<?xml version="1.0" encoding="UTF-8" standalone="no"?>
<!DOCTYPE svg PUBLIC "-//W3C//DTD SVG 1.1//EN" "http://www.w3.org/Graphics/SVG/1.1/DTD/svg11.dtd">
<!-- 由 Microsoft Visio, SVG Export 生成 化学62.svg 页-1 -->
<svg xmlns="http://www.w3.org/2000/svg" xmlns:xlink="http://www.w3.org/1999/xlink" xmlns:ev="http://www.w3.org/2001/xml-events"
		xmlns:v="http://schemas.microsoft.com/visio/2003/SVGExtensions/" width="0.59375in" height="1.79667in"
		viewBox="0 0 42.75 129.36" xml:space="preserve" color-interpolation-filters="sRGB" class="st3">
	<v:documentProperties v:langID="2052" v:metric="true" v:viewMarkup="false"/>

	<style type="text/css">
	<![CDATA[
		.st1 {fill:url(#grad0-5);stroke:none;stroke-linecap:butt;stroke-width:0.75}
		.st2 {fill:url(#grad0-12);stroke:none;stroke-linecap:butt;stroke-width:0.75}
		.st3 {fill:none;fill-rule:evenodd;font-size:12px;overflow:visible;stroke-linecap:square;stroke-miterlimit:3}
	]]>
	</style>

	<defs id="Patterns_And_Gradients">
		<linearGradient id="grad0-5" x1="0" y1="0" x2="1" y2="0" gradientTransform="rotate(-180 0.5 0.5)">
			<stop offset="0" stop-color="#99aeb6" stop-opacity="1"/>
			<stop offset="0.15" stop-color="#d2ecf7" stop-opacity="1"/>
			<stop offset="0.25" stop-color="#e6f4fa" stop-opacity="1"/>
			<stop offset="0.52" stop-color="#b5ced7" stop-opacity="1"/>
			<stop offset="0.69" stop-color="#a1b7c0" stop-opacity="1"/>
			<stop offset="0.8" stop-color="#98adb5" stop-opacity="1"/>
			<stop offset="0.92" stop-color="#8fa3ab" stop-opacity="1"/>
			<stop offset="1" stop-color="#a5bbc4" stop-opacity="1"/>
		</linearGradient>
		<linearGradient id="grad0-12" x1="0" y1="0" x2="1" y2="0" gradientTransform="rotate(-180 0.5 0.5)">
			<stop offset="0" stop-color="#75a0b1" stop-opacity="1"/>
			<stop offset="0.15" stop-color="#a8dbf0" stop-opacity="1"/>
			<stop offset="0.25" stop-color="#d2ebf6" stop-opacity="1"/>
			<stop offset="0.52" stop-color="#8bbdd1" stop-opacity="1"/>
			<stop offset="0.69" stop-color="#7ca8ba" stop-opacity="1"/>
			<stop offset="0.8" stop-color="#749eb0" stop-opacity="1"/>
			<stop offset="0.92" stop-color="#6e95a6" stop-opacity="1"/>
			<stop offset="1" stop-color="#7facbe" stop-opacity="1"/>
		</linearGradient>
	</defs>
	<g v:mID="0" v:index="1" v:groupContext="foregroundPage">
		<title>页-1</title>
		<v:pageProperties v:drawingScale="0.0393701" v:pageScale="0.0393701" v:drawingUnits="24" v:shadowOffsetX="8.50394"
				v:shadowOffsetY="-8.50394"/>
		<g id="group3588-1" transform="translate(0.75,-0.75)" v:mID="3588" v:groupContext="group">
			<title>反应塔</title>
			<g id="shape3589-2" v:mID="3589" v:groupContext="shape" transform="translate(6.0075,-0.5775)">
				<title>shape1</title>
				<path d="M0 5.61 L29.25 5.61 L29.25 129.36 L0 129.36 L0 5.61 Z" class="st1"/>
			</g>
			<g id="shape3590-6" v:mID="3590" v:groupContext="shape" transform="translate(6.0075,-124.485)">
				<title>shape2</title>
				<path d="M14.55 125.99 C28.35 125.99 29.25 129.36 29.25 129.36 L0 129.36 C0 129.36 0.68 125.99 14.55 125.99 Z"
						class="st1"/>
			</g>
			<g id="shape3591-9" v:mID="3591" v:groupContext="shape" transform="translate(6.0075,-84.45)">
				<title>shape5</title>
				<path d="M0 127.86 L29.25 127.86 L29.25 129.36 L0 129.36 L0 127.86 Z" class="st2"/>
			</g>
			<g id="shape3592-13" v:mID="3592" v:groupContext="shape" transform="translate(1.785,-84.8475)">
				<title>shape6</title>
				<path d="M0.82 128.61 L36.82 128.61 C37.2 128.61 37.57 128.76 37.57 128.91 C37.57 129.21 37.2 129.36 36.82 129.36
							 L0.83 129.36 C0.37 129.36 0 129.21 0 129.06 C0 128.76 0.37 128.61 0.82 128.61 Z" class="st1"/>
			</g>
			<g id="shape3593-16" v:mID="3593" v:groupContext="shape" transform="translate(6.0075,-46.5075)">
				<title>shape7</title>
				<path d="M0 127.86 L29.25 127.86 L29.25 129.36 L0 129.36 L0 127.86 Z" class="st2"/>
			</g>
			<g id="shape3594-19" v:mID="3594" v:groupContext="shape" transform="translate(1.785,-46.905)">
				<title>shape8</title>
				<path d="M0.82 128.61 L36.82 128.61 C37.2 128.61 37.57 128.76 37.57 128.91 C37.57 129.21 37.2 129.36 36.82 129.36
							 L0.83 129.36 C0.37 129.36 0 129.21 0 129.06 C0 128.76 0.37 128.61 0.82 128.61 Z" class="st1"/>
			</g>
			<g id="shape3595-22" v:mID="3595" v:groupContext="shape">
				<title>shape10</title>
				<path d="M0.22 127.86 L41.03 127.86 C41.17 127.86 41.25 127.94 41.25 127.94 L41.25 129.29 C41.25 129.29 41.17 129.36
							 41.03 129.36 L0.23 129.36 C0.07 129.36 0 129.29 0 129.29 L0 127.94 C0 127.94 0.07 127.86 0.22 127.86
							 Z" class="st1"/>
			</g>
		</g>
	</g>
</svg>
