<?xml version="1.0" encoding="UTF-8" standalone="no"?>
<!DOCTYPE svg PUBLIC "-//W3C//DTD SVG 1.1//EN" "http://www.w3.org/Graphics/SVG/1.1/DTD/svg11.dtd">
<!-- 由 Microsoft Visio, SVG Export 生成 化学56.svg 页-1 -->
<svg xmlns="http://www.w3.org/2000/svg" xmlns:xlink="http://www.w3.org/1999/xlink" xmlns:ev="http://www.w3.org/2001/xml-events"
		xmlns:v="http://schemas.microsoft.com/visio/2003/SVGExtensions/" width="0.777708in" height="1.615in"
		viewBox="0 0 55.995 116.28" xml:space="preserve" color-interpolation-filters="sRGB" class="st8">
	<v:documentProperties v:langID="2052" v:metric="true" v:viewMarkup="false"/>

	<style type="text/css">
	<![CDATA[
		.st1 {fill:url(#grad0-6);stroke:none;stroke-linecap:butt;stroke-width:0.75}
		.st2 {fill:url(#grad0-10);stroke:none;stroke-linecap:butt;stroke-width:0.75}
		.st3 {fill:url(#grad0-21);stroke:none;stroke-linecap:butt;stroke-width:0.75}
		.st4 {fill:url(#grad0-25);stroke:none;stroke-linecap:butt;stroke-width:0.75}
		.st5 {fill:url(#grad0-29);stroke:none;stroke-linecap:butt;stroke-width:0.75}
		.st6 {fill:url(#grad0-33);stroke:none;stroke-linecap:butt;stroke-width:0.75}
		.st7 {fill:url(#grad0-41);stroke:none;stroke-linecap:butt;stroke-width:0.75}
		.st8 {fill:none;fill-rule:evenodd;font-size:12px;overflow:visible;stroke-linecap:square;stroke-miterlimit:3}
	]]>
	</style>

	<defs id="Patterns_And_Gradients">
		<linearGradient id="grad0-6" x1="0" y1="0" x2="1" y2="0" gradientTransform="rotate(90 0.5 0.5)">
			<stop offset="0" stop-color="#86a57f" stop-opacity="1"/>
			<stop offset="0.15" stop-color="#b6dbae" stop-opacity="1"/>
			<stop offset="0.25" stop-color="#d8ebd5" stop-opacity="1"/>
			<stop offset="0.52" stop-color="#9abd92" stop-opacity="1"/>
			<stop offset="0.69" stop-color="#88a881" stop-opacity="1"/>
			<stop offset="0.8" stop-color="#809e7a" stop-opacity="1"/>
			<stop offset="0.97" stop-color="#799573" stop-opacity="1"/>
			<stop offset="1" stop-color="#8cac84" stop-opacity="1"/>
		</linearGradient>
		<linearGradient id="grad0-10" x1="0" y1="0" x2="1" y2="0" gradientTransform="rotate(90 0.5 0.5)">
			<stop offset="0" stop-color="#9db098" stop-opacity="1"/>
			<stop offset="0.15" stop-color="#d0e8cb" stop-opacity="1"/>
			<stop offset="0.25" stop-color="#e5f2e2" stop-opacity="1"/>
			<stop offset="0.52" stop-color="#b3c9ae" stop-opacity="1"/>
			<stop offset="0.69" stop-color="#9fb39b" stop-opacity="1"/>
			<stop offset="0.8" stop-color="#96a992" stop-opacity="1"/>
			<stop offset="0.97" stop-color="#8e9f89" stop-opacity="1"/>
			<stop offset="1" stop-color="#a3b79e" stop-opacity="1"/>
		</linearGradient>
		<linearGradient id="grad0-21" x1="0" y1="0" x2="1" y2="0" gradientTransform="rotate(-180 0.5 0.5)">
			<stop offset="0" stop-color="#9db098" stop-opacity="1"/>
			<stop offset="0.15" stop-color="#d0e8cb" stop-opacity="1"/>
			<stop offset="0.25" stop-color="#e5f2e2" stop-opacity="1"/>
			<stop offset="0.44" stop-color="#b3c9ae" stop-opacity="1"/>
			<stop offset="0.6" stop-color="#9fb39b" stop-opacity="1"/>
			<stop offset="0.8" stop-color="#869782" stop-opacity="1"/>
			<stop offset="0.97" stop-color="#7a8a76" stop-opacity="1"/>
			<stop offset="1" stop-color="#a3b79e" stop-opacity="1"/>
		</linearGradient>
		<linearGradient id="grad0-25" x1="0" y1="0" x2="1" y2="0" gradientTransform="rotate(-180 0.5 0.5)">
			<stop offset="0" stop-color="#c4c4c4" stop-opacity="1"/>
			<stop offset="0.15" stop-color="#ffffff" stop-opacity="1"/>
			<stop offset="0.25" stop-color="#ffffff" stop-opacity="1"/>
			<stop offset="0.44" stop-color="#dfdfdf" stop-opacity="1"/>
			<stop offset="0.6" stop-color="#c7c7c7" stop-opacity="1"/>
			<stop offset="0.8" stop-color="#a8a8a8" stop-opacity="1"/>
			<stop offset="0.97" stop-color="#999999" stop-opacity="1"/>
			<stop offset="1" stop-color="#cbcbcb" stop-opacity="1"/>
		</linearGradient>
		<linearGradient id="grad0-29" x1="0" y1="0" x2="1" y2="0" gradientTransform="rotate(-180 0.5 0.5)">
			<stop offset="0" stop-color="#91a530" stop-opacity="1"/>
			<stop offset="0.15" stop-color="#c3da5e" stop-opacity="1"/>
			<stop offset="0.25" stop-color="#deeab8" stop-opacity="1"/>
			<stop offset="0.44" stop-color="#a6bc39" stop-opacity="1"/>
			<stop offset="0.6" stop-color="#93a731" stop-opacity="1"/>
			<stop offset="0.8" stop-color="#7c8d28" stop-opacity="1"/>
			<stop offset="0.97" stop-color="#718024" stop-opacity="1"/>
			<stop offset="1" stop-color="#97ab33" stop-opacity="1"/>
		</linearGradient>
		<linearGradient id="grad0-33" x1="0" y1="0" x2="1" y2="0" gradientTransform="rotate(127.17633216487 0.5 0.5)">
			<stop offset="0" stop-color="#9db098" stop-opacity="1"/>
			<stop offset="0.26" stop-color="#d0e8cb" stop-opacity="1"/>
			<stop offset="0.32" stop-color="#e5f2e2" stop-opacity="1"/>
			<stop offset="0.44" stop-color="#b3c9ae" stop-opacity="1"/>
			<stop offset="0.6" stop-color="#9fb39b" stop-opacity="1"/>
			<stop offset="0.8" stop-color="#869782" stop-opacity="1"/>
			<stop offset="1" stop-color="#7a8a76" stop-opacity="1"/>
		</linearGradient>
		<linearGradient id="grad0-41" x1="0" y1="0" x2="1" y2="0" gradientTransform="rotate(-180 0.5 0.5)">
			<stop offset="0" stop-color="#93a731" stop-opacity="1"/>
			<stop offset="0.8" stop-color="#7c8d28" stop-opacity="1"/>
			<stop offset="0.97" stop-color="#718024" stop-opacity="1"/>
			<stop offset="1" stop-color="#97ab33" stop-opacity="1"/>
		</linearGradient>
	</defs>
	<g v:mID="0" v:index="1" v:groupContext="foregroundPage">
		<title>页-1</title>
		<v:pageProperties v:drawingScale="0.0393701" v:pageScale="0.0393701" v:drawingUnits="24" v:shadowOffsetX="8.50394"
				v:shadowOffsetY="-8.50394"/>
		<g id="group3429-1" transform="translate(0.75,-0.75)" v:mID="3429" v:groupContext="group">
			<title>脱硫塔</title>
			<g id="group3430-2" transform="translate(47.445,-3.81)" v:mID="3430" v:groupContext="group">
				<title>工作表.3430</title>
				<g id="shape3431-3" v:mID="3431" v:groupContext="shape" transform="translate(5.1,-1.05) scale(-1,1)">
					<title>shape1</title>
					<path d="M5.1 110.88 L0 110.88 L0 116.28 L5.1 116.28 L5.1 110.88 Z" class="st1"/>
				</g>
				<g id="shape3432-7" v:mID="3432" v:groupContext="shape" transform="translate(6.375,0) scale(-1,1)">
					<title>shape2</title>
					<path d="M0.53 108.78 C1.13 108.78 1.35 109 1.35 109.23 L1.35 115.83 C1.35 116.05 1.13 116.28 0.83 116.28 C0.23
								 116.28 0 116.05 0 115.83 L0 109.23 C0 109 0.23 108.78 0.53 108.78 Z" class="st2"/>
				</g>
			</g>
			<g id="group3433-11" transform="translate(47.445,-34.74)" v:mID="3433" v:groupContext="group">
				<title>工作表.3433</title>
				<g id="shape3434-12" v:mID="3434" v:groupContext="shape" transform="translate(5.4,-1.05) scale(-1,1)">
					<title>shape3</title>
					<path d="M5.4 111.03 L0 111.03 L0 116.28 L5.4 116.28 L5.4 111.03 Z" class="st1"/>
				</g>
				<g id="shape3435-15" v:mID="3435" v:groupContext="shape" transform="translate(7.05,2.84217E-14) scale(-1,1)">
					<title>shape4</title>
					<path d="M0.68 108.93 C1.43 108.93 1.8 109.15 1.8 109.38 L1.8 115.83 C1.8 116.05 1.43 116.28 1.05 116.28 C0.3
								 116.28 0 116.05 0 115.83 L0 109.38 C0 109.15 0.3 108.93 0.68 108.93 Z" class="st2"/>
				</g>
			</g>
			<g id="shape3436-18" v:mID="3436" v:groupContext="shape" transform="translate(7.02,-2.7525)">
				<title>shape5</title>
				<path d="M0 22 L40.65 22 L40.65 116.28 L0 116.28 L0 22 Z" class="st3"/>
			</g>
			<g id="shape3437-22" v:mID="3437" v:groupContext="shape" transform="translate(7.02,-88.0575)">
				<title>shape6</title>
				<path d="M0 108.48 L40.65 108.48 L40.65 116.28 L0 116.28 L0 108.48 Z" class="st4"/>
			</g>
			<g id="shape3438-26" v:mID="3438" v:groupContext="shape" transform="translate(6.6675,-95.9025)">
				<title>shape7</title>
				<path d="M0 115.15 L41.4 115.15 L41.4 116.28 L0 116.28 L0 115.15 Z" class="st5"/>
			</g>
			<g id="shape3439-30" v:mID="3439" v:groupContext="shape" transform="translate(7.02,-97.0275)">
				<title>shape8</title>
				<path d="M12.07 103.83 L28.65 103.83 L40.65 116.28 L0 116.28 L12.07 103.83 Z" class="st6"/>
			</g>
			<g id="shape3440-34" v:mID="3440" v:groupContext="shape" transform="translate(19.0725,-109.455)">
				<title>shape9</title>
				<path d="M0 110.95 L16.58 110.95 L16.58 116.28 L0 116.28 L0 110.95 Z" class="st3"/>
			</g>
			<g id="group3441-37" transform="translate(7.02,-88.0575)" v:mID="3441" v:groupContext="group">
				<title>工作表.3441</title>
				<g id="shape3442-38" v:mID="3442" v:groupContext="shape">
					<title>shape11</title>
					<path d="M2.78 112.38 L0 116.28 L3.37 112.38 L0.6 108.55 L2.78 112.38 Z" class="st7"/>
				</g>
				<g id="shape3443-42" v:mID="3443" v:groupContext="shape" transform="translate(2.6625,4.26326E-14)">
					<title>shape12</title>
					<path d="M2.78 112.38 L0 116.28 L3.37 112.38 L0.6 108.55 L2.78 112.38 Z" class="st7"/>
				</g>
				<g id="shape3444-45" v:mID="3444" v:groupContext="shape" transform="translate(5.5875,4.26326E-14)">
					<title>shape13</title>
					<path d="M2.78 112.38 L0 116.28 L3.37 112.38 L0.6 108.55 L2.78 112.38 Z" class="st7"/>
				</g>
				<g id="shape3445-48" v:mID="3445" v:groupContext="shape" transform="translate(7.98,4.26326E-14)">
					<title>shape14</title>
					<path d="M2.78 112.38 L0 116.28 L3.37 112.38 L0.6 108.55 L2.78 112.38 Z" class="st7"/>
				</g>
				<g id="shape3446-51" v:mID="3446" v:groupContext="shape" transform="translate(10.6425,4.26326E-14)">
					<title>shape15</title>
					<path d="M2.78 112.38 L0 116.28 L3.37 112.38 L0.6 108.55 L2.78 112.38 Z" class="st7"/>
				</g>
				<g id="shape3447-54" v:mID="3447" v:groupContext="shape" transform="translate(13.305,4.26326E-14)">
					<title>shape16</title>
					<path d="M2.78 112.38 L0 116.28 L3.37 112.38 L0.6 108.55 L2.78 112.38 Z" class="st7"/>
				</g>
				<g id="shape3448-57" v:mID="3448" v:groupContext="shape" transform="translate(23.9475,4.26326E-14)">
					<title>shape17</title>
					<path d="M2.78 112.38 L0 116.28 L3.37 112.38 L0.6 108.55 L2.78 112.38 Z" class="st7"/>
				</g>
				<g id="shape3449-60" v:mID="3449" v:groupContext="shape" transform="translate(26.61,4.26326E-14)">
					<title>shape18</title>
					<path d="M2.78 112.38 L0 116.28 L3.37 112.38 L0.6 108.55 L2.78 112.38 Z" class="st7"/>
				</g>
				<g id="shape3450-63" v:mID="3450" v:groupContext="shape" transform="translate(29.2725,4.26326E-14)">
					<title>shape19</title>
					<path d="M2.78 112.38 L0 116.28 L3.37 112.38 L0.6 108.55 L2.78 112.38 Z" class="st7"/>
				</g>
				<g id="shape3451-66" v:mID="3451" v:groupContext="shape" transform="translate(31.935,4.26326E-14)">
					<title>shape20</title>
					<path d="M2.78 112.38 L0 116.28 L3.37 112.38 L0.6 108.55 L2.78 112.38 Z" class="st7"/>
				</g>
				<g id="shape3452-69" v:mID="3452" v:groupContext="shape" transform="translate(34.59,4.26326E-14)">
					<title>shape21</title>
					<path d="M2.78 112.38 L0 116.28 L3.37 112.38 L0.6 108.55 L2.78 112.38 Z" class="st7"/>
				</g>
				<g id="shape3453-72" v:mID="3453" v:groupContext="shape" transform="translate(37.2525,4.26326E-14)">
					<title>shape22</title>
					<path d="M2.78 112.38 L0 116.28 L3.37 112.38 L0.6 108.55 L2.78 112.38 Z" class="st7"/>
				</g>
				<g id="shape3454-75" v:mID="3454" v:groupContext="shape" transform="translate(15.9675,4.26326E-14)">
					<title>shape23</title>
					<path d="M2.78 112.38 L0 116.28 L3.37 112.38 L0.6 108.55 L2.78 112.38 Z" class="st7"/>
				</g>
				<g id="shape3455-78" v:mID="3455" v:groupContext="shape" transform="translate(18.63,4.26326E-14)">
					<title>shape24</title>
					<path d="M2.78 112.38 L0 116.28 L3.37 112.38 L0.6 108.55 L2.78 112.38 Z" class="st7"/>
				</g>
				<g id="shape3456-81" v:mID="3456" v:groupContext="shape" transform="translate(21.285,4.26326E-14)">
					<title>shape25</title>
					<path d="M2.78 112.38 L0 116.28 L3.37 112.38 L0.6 108.55 L2.78 112.38 Z" class="st7"/>
				</g>
			</g>
			<g id="shape3457-84" v:mID="3457" v:groupContext="shape" transform="translate(6.6,1.42109E-14)">
				<title>shape26</title>
				<path d="M0.45 113.2 L41.02 113.2 C41.32 113.2 41.47 113.43 41.47 113.65 L41.47 115.75 C41.47 116.05 41.32 116.28
							 41.02 116.28 L0.45 116.28 C0.22 116.28 0 116.05 0 115.75 L0 113.65 C0 113.43 0.22 113.2 0.45 113.2 Z"
						class="st3"/>
			</g>
			<g id="group3458-87" transform="translate(47.445,-87.2775)" v:mID="3458" v:groupContext="group">
				<title>工作表.3458</title>
				<g id="shape3459-88" v:mID="3459" v:groupContext="shape" transform="translate(5.4,-1.05) scale(-1,1)">
					<title>shape28</title>
					<path d="M5.4 111.03 L0 111.03 L0 116.28 L5.4 116.28 L5.4 111.03 Z" class="st1"/>
				</g>
				<g id="shape3460-91" v:mID="3460" v:groupContext="shape" transform="translate(7.05,2.84217E-14) scale(-1,1)">
					<title>shape29</title>
					<path d="M0.68 108.93 C1.43 108.93 1.8 109.15 1.8 109.38 L1.8 115.83 C1.8 116.05 1.43 116.28 1.05 116.28 C0.3
								 116.28 0 116.05 0 115.83 L0 109.38 C0 109.15 0.3 108.93 0.68 108.93 Z" class="st2"/>
				</g>
			</g>
			<g id="group3461-94" transform="translate(47.445,-68.37)" v:mID="3461" v:groupContext="group">
				<title>工作表.3461</title>
				<g id="shape3462-95" v:mID="3462" v:groupContext="shape" transform="translate(4.2,-1.05) scale(-1,1)">
					<title>shape30</title>
					<path d="M4.2 110.88 L0 110.88 L0 116.28 L4.2 116.28 L4.2 110.88 Z" class="st1"/>
				</g>
				<g id="shape3463-98" v:mID="3463" v:groupContext="shape" transform="translate(5.475,0) scale(-1,1)">
					<title>shape31</title>
					<path d="M0.52 108.78 C1.12 108.78 1.35 109 1.35 109.23 L1.35 115.83 C1.35 116.05 1.12 116.28 0.82 116.28 C0.22
								 116.28 0 116.05 0 115.83 L0 109.23 C0 109 0.22 108.78 0.52 108.78 Z" class="st2"/>
				</g>
			</g>
			<g id="group3464-101" transform="translate(8.99281E-15,-34.425)" v:mID="3464" v:groupContext="group">
				<title>工作表.3464</title>
				<g id="shape3465-102" v:mID="3465" v:groupContext="shape" transform="translate(1.635,-1.7025)">
					<title>shape32</title>
					<path d="M5.4 107.8 L0 107.8 L0 116.28 L5.4 116.28 L5.4 107.8 Z" class="st1"/>
				</g>
				<g id="shape3466-105" v:mID="3466" v:groupContext="shape">
					<title>shape33</title>
					<path d="M0.67 104.43 C1.42 104.43 1.8 104.73 1.8 105.1 L1.8 115.53 C1.8 115.9 1.42 116.28 1.05 116.28 C0.3 116.28
								 0 115.9 0 115.53 L0 105.1 C0 104.73 0.3 104.43 0.67 104.43 Z" class="st2"/>
				</g>
			</g>
			<g id="group3467-108" transform="translate(1.185,-21.435)" v:mID="3467" v:groupContext="group">
				<title>工作表.3467</title>
				<g id="shape3468-109" v:mID="3468" v:groupContext="shape" transform="translate(1.3575,-1.38)">
					<title>shape34</title>
					<path d="M4.5 109.23 L0 109.23 L0 116.28 L4.5 116.28 L4.5 109.23 Z" class="st1"/>
				</g>
				<g id="shape3469-112" v:mID="3469" v:groupContext="shape">
					<title>shape35</title>
					<path d="M0.6 106.45 C1.2 106.45 1.5 106.68 1.5 107.05 L1.5 115.68 C1.5 116.05 1.2 116.28 0.9 116.28 C0.23 116.28
								 0 116.05 0 115.68 L0 107.05 C0 106.68 0.23 106.45 0.6 106.45 Z" class="st2"/>
				</g>
			</g>
			<g id="group3470-115" transform="translate(0.0825,-4.2225)" v:mID="3470" v:groupContext="group">
				<title>工作表.3470</title>
				<g id="shape3471-116" v:mID="3471" v:groupContext="shape" transform="translate(1.3575,-1.1625)">
					<title>shape36</title>
					<path d="M5.62 110.43 L0 110.43 L0 116.28 L5.62 116.28 L5.62 110.43 Z" class="st1"/>
				</g>
				<g id="shape3472-119" v:mID="3472" v:groupContext="shape">
					<title>shape37</title>
					<path d="M0.6 108.1 C1.2 108.1 1.5 108.33 1.5 108.55 L1.5 115.83 C1.5 116.05 1.2 116.28 0.9 116.28 C0.22 116.28
								 0 116.05 0 115.83 L0 108.55 C0 108.33 0.22 108.1 0.6 108.1 Z" class="st2"/>
				</g>
			</g>
			<g id="group3473-122" transform="translate(47.445,-21.285)" v:mID="3473" v:groupContext="group">
				<title>工作表.3473</title>
				<g id="shape3474-123" v:mID="3474" v:groupContext="shape" transform="translate(3.9,-0.975) scale(-1,1)">
					<title>shape38</title>
					<path d="M3.9 111.25 L0 111.25 L0 116.28 L3.9 116.28 L3.9 111.25 Z" class="st1"/>
				</g>
				<g id="shape3475-126" v:mID="3475" v:groupContext="shape" transform="translate(5.025,2.84217E-14) scale(-1,1)">
					<title>shape39</title>
					<path d="M0.53 109.3 C1.05 109.3 1.28 109.45 1.28 109.75 L1.28 115.83 C1.28 116.05 1.05 116.28 0.75 116.28 C0.23
								 116.28 0 116.05 0 115.83 L0 109.75 C0 109.45 0.23 109.3 0.53 109.3 Z" class="st2"/>
				</g>
			</g>
		</g>
	</g>
</svg>
