<?xml version="1.0" encoding="UTF-8" standalone="no"?>
<!DOCTYPE svg PUBLIC "-//W3C//DTD SVG 1.1//EN" "http://www.w3.org/Graphics/SVG/1.1/DTD/svg11.dtd">
<!-- 由 Microsoft Visio, SVG Export 生成 化学69.svg 页-1 -->
<svg xmlns="http://www.w3.org/2000/svg" xmlns:xlink="http://www.w3.org/1999/xlink" xmlns:ev="http://www.w3.org/2001/xml-events"
		xmlns:v="http://schemas.microsoft.com/visio/2003/SVGExtensions/" width="0.847292in" height="1.26677in"
		viewBox="0 0 61.005 91.2075" xml:space="preserve" color-interpolation-filters="sRGB" class="st21">
	<v:documentProperties v:langID="2052" v:metric="true" v:viewMarkup="false"/>

	<style type="text/css">
	<![CDATA[
		.st1 {fill:#d4cbcd;stroke:none;stroke-linecap:butt;stroke-width:0.75}
		.st2 {fill:#dbd2d4;stroke:none;stroke-linecap:butt;stroke-width:0.75}
		.st3 {fill:#e5dee0;stroke:none;stroke-linecap:butt;stroke-width:0.75}
		.st4 {fill:#e0d7d9;stroke:none;stroke-linecap:butt;stroke-width:0.75}
		.st5 {fill:#d9d0d2;stroke:none;stroke-linecap:butt;stroke-width:0.75}
		.st6 {fill:#cdc5c7;stroke:none;stroke-linecap:butt;stroke-width:0.75}
		.st7 {fill:url(#grad0-18);stroke:none;stroke-linecap:butt;stroke-width:0.75}
		.st8 {fill:url(#grad0-22);stroke:none;stroke-linecap:butt;stroke-width:0.75}
		.st9 {fill:url(#grad0-32);stroke:none;stroke-linecap:butt;stroke-width:0.75}
		.st10 {fill:url(#grad0-36);stroke:none;stroke-linecap:butt;stroke-width:0.75}
		.st11 {fill:url(#grad0-57);stroke:none;stroke-linecap:butt;stroke-width:0.75}
		.st12 {fill:url(#grad0-70);stroke:none;stroke-linecap:butt;stroke-width:0.75}
		.st13 {fill:url(#grad0-74);stroke:none;stroke-linecap:butt;stroke-width:0.75}
		.st14 {fill:url(#grad0-78);stroke:none;stroke-linecap:butt;stroke-width:0.75}
		.st15 {fill:url(#grad0-85);stroke:none;stroke-linecap:butt;stroke-width:0.75}
		.st16 {fill:url(#grad0-101);stroke:none;stroke-linecap:butt;stroke-width:0.75}
		.st17 {fill:url(#grad0-183);stroke:none;stroke-linecap:butt;stroke-width:0.75}
		.st18 {fill:url(#grad0-187);stroke:none;stroke-linecap:butt;stroke-width:0.75}
		.st19 {fill:url(#grad0-215);stroke:none;stroke-linecap:butt;stroke-width:0.75}
		.st20 {fill:url(#grad0-231);stroke:none;stroke-linecap:butt;stroke-width:0.75}
		.st21 {fill:none;fill-rule:evenodd;font-size:12px;overflow:visible;stroke-linecap:square;stroke-miterlimit:3}
	]]>
	</style>

	<defs id="Patterns_And_Gradients">
		<linearGradient id="grad0-18" x1="0" y1="0" x2="1" y2="0" gradientTransform="rotate(0 0.5 0.5)">
			<stop offset="0" stop-color="#9e9799" stop-opacity="1"/>
			<stop offset="0.17" stop-color="#c7bec0" stop-opacity="1"/>
			<stop offset="0.68" stop-color="#e4dcdd" stop-opacity="1"/>
			<stop offset="0.83" stop-color="#dfd6d8" stop-opacity="1"/>
			<stop offset="1" stop-color="#9e9798" stop-opacity="1"/>
		</linearGradient>
		<linearGradient id="grad0-22" x1="0" y1="0" x2="1" y2="0" gradientTransform="rotate(0 0.5 0.5)">
			<stop offset="0" stop-color="#9e9799" stop-opacity="1"/>
			<stop offset="0.26" stop-color="#c7bec0" stop-opacity="1"/>
			<stop offset="0.54" stop-color="#e4dcdd" stop-opacity="1"/>
			<stop offset="0.76" stop-color="#dfd6d8" stop-opacity="1"/>
			<stop offset="1" stop-color="#9e9798" stop-opacity="1"/>
		</linearGradient>
		<linearGradient id="grad0-32" x1="0" y1="0" x2="1" y2="0" gradientTransform="rotate(0 0.5 0.5)">
			<stop offset="0" stop-color="#90868a" stop-opacity="1"/>
			<stop offset="0.26" stop-color="#b6a9ae" stop-opacity="1"/>
			<stop offset="0.54" stop-color="#d5cbcf" stop-opacity="1"/>
			<stop offset="0.76" stop-color="#cec2c6" stop-opacity="1"/>
			<stop offset="1" stop-color="#90868a" stop-opacity="1"/>
		</linearGradient>
		<linearGradient id="grad0-36" x1="0" y1="0" x2="1" y2="0" gradientTransform="rotate(-90 0.5 0.5)">
			<stop offset="0" stop-color="#9e9799" stop-opacity="1"/>
			<stop offset="0.26" stop-color="#c7bec0" stop-opacity="1"/>
			<stop offset="0.54" stop-color="#e4dcdd" stop-opacity="1"/>
			<stop offset="0.76" stop-color="#dfd6d8" stop-opacity="1"/>
			<stop offset="1" stop-color="#9e9798" stop-opacity="1"/>
		</linearGradient>
		<linearGradient id="grad0-57" x1="0" y1="0" x2="1" y2="0" gradientTransform="rotate(0 0.5 0.5)">
			<stop offset="0" stop-color="#93888b" stop-opacity="1"/>
			<stop offset="0.26" stop-color="#b9abb0" stop-opacity="1"/>
			<stop offset="0.54" stop-color="#d7ccd0" stop-opacity="1"/>
			<stop offset="0.76" stop-color="#d1c3c8" stop-opacity="1"/>
			<stop offset="1" stop-color="#93888b" stop-opacity="1"/>
		</linearGradient>
		<linearGradient id="grad0-70" x1="0" y1="0" x2="1" y2="0" gradientTransform="rotate(0 0.5 0.5)">
			<stop offset="0" stop-color="#007d3a" stop-opacity="1"/>
			<stop offset="0.26" stop-color="#009e4b" stop-opacity="1"/>
			<stop offset="0.54" stop-color="#7cc38e" stop-opacity="1"/>
			<stop offset="0.76" stop-color="#50b770" stop-opacity="1"/>
			<stop offset="1" stop-color="#007d3a" stop-opacity="1"/>
		</linearGradient>
		<linearGradient id="grad0-74" x1="0" y1="0" x2="1" y2="0" gradientTransform="rotate(0 0.5 0.5)">
			<stop offset="0" stop-color="#005531" stop-opacity="1"/>
			<stop offset="0.26" stop-color="#006d3f" stop-opacity="1"/>
			<stop offset="0.54" stop-color="#7ca089" stop-opacity="1"/>
			<stop offset="0.76" stop-color="#508a68" stop-opacity="1"/>
			<stop offset="1" stop-color="#005531" stop-opacity="1"/>
		</linearGradient>
		<linearGradient id="grad0-78" x1="0" y1="0" x2="1" y2="0" gradientTransform="rotate(-90 0.5 0.5)">
			<stop offset="0" stop-color="#126a2b" stop-opacity="1"/>
			<stop offset="0.26" stop-color="#198738" stop-opacity="1"/>
			<stop offset="0.54" stop-color="#7eb186" stop-opacity="1"/>
			<stop offset="0.76" stop-color="#55a163" stop-opacity="1"/>
			<stop offset="1" stop-color="#126a2b" stop-opacity="1"/>
		</linearGradient>
		<linearGradient id="grad0-85" x1="0" y1="0" x2="1" y2="0" gradientTransform="rotate(0 0.5 0.5)">
			<stop offset="0" stop-color="#242830" stop-opacity="1"/>
			<stop offset="0.83" stop-color="#5d5f64" stop-opacity="1"/>
			<stop offset="1" stop-color="#20242c" stop-opacity="1"/>
		</linearGradient>
		<linearGradient id="grad0-101" x1="0" y1="0" x2="1" y2="0" gradientTransform="rotate(0 0.5 0.5)">
			<stop offset="0" stop-color="#867d81" stop-opacity="1"/>
			<stop offset="0.26" stop-color="#baaeb3" stop-opacity="1"/>
			<stop offset="0.54" stop-color="#dcd2d5" stop-opacity="1"/>
			<stop offset="1" stop-color="#d6cace" stop-opacity="1"/>
		</linearGradient>
		<linearGradient id="grad0-183" x1="0" y1="0" x2="1" y2="0" gradientTransform="rotate(-90 0.5 0.5)">
			<stop offset="0" stop-color="#308558" stop-opacity="1"/>
			<stop offset="0.26" stop-color="#3fa871" stop-opacity="1"/>
			<stop offset="0.54" stop-color="#89caa3" stop-opacity="1"/>
			<stop offset="0.76" stop-color="#67c18e" stop-opacity="1"/>
			<stop offset="1" stop-color="#308558" stop-opacity="1"/>
		</linearGradient>
		<linearGradient id="grad0-187" x1="0" y1="0" x2="1" y2="0" gradientTransform="rotate(0 0.5 0.5)">
			<stop offset="0" stop-color="#308558" stop-opacity="1"/>
			<stop offset="0.26" stop-color="#3fa871" stop-opacity="1"/>
			<stop offset="0.54" stop-color="#89caa3" stop-opacity="1"/>
			<stop offset="0.76" stop-color="#67c18e" stop-opacity="1"/>
			<stop offset="1" stop-color="#308558" stop-opacity="1"/>
		</linearGradient>
		<linearGradient id="grad0-215" x1="0" y1="0" x2="1" y2="0" gradientTransform="rotate(-180 0.5 0.5)">
			<stop offset="0" stop-color="#b59d79" stop-opacity="1"/>
			<stop offset="0.01" stop-color="#ffe5c1" stop-opacity="1"/>
			<stop offset="0.05" stop-color="#ebcc9f" stop-opacity="1"/>
			<stop offset="0.9" stop-color="#e7c99c" stop-opacity="1"/>
			<stop offset="0.95" stop-color="#e2c499" stop-opacity="1"/>
			<stop offset="1" stop-color="#a89170" stop-opacity="1"/>
		</linearGradient>
		<linearGradient id="grad0-231" x1="0" y1="0" x2="1" y2="0" gradientTransform="rotate(0 0.5 0.5)">
			<stop offset="0" stop-color="#ae7600" stop-opacity="1"/>
			<stop offset="0.26" stop-color="#da9500" stop-opacity="1"/>
			<stop offset="0.54" stop-color="#f4bc7c" stop-opacity="1"/>
			<stop offset="0.76" stop-color="#f2af50" stop-opacity="1"/>
			<stop offset="1" stop-color="#ae7600" stop-opacity="1"/>
		</linearGradient>
	</defs>
	<g v:mID="0" v:index="1" v:groupContext="foregroundPage">
		<title>页-1</title>
		<v:pageProperties v:drawingScale="0.0393701" v:pageScale="0.0393701" v:drawingUnits="24" v:shadowOffsetX="8.50394"
				v:shadowOffsetY="-8.50394"/>
		<g id="group3735-1" transform="translate(0.75,-0.75)" v:mID="3735" v:groupContext="group">
			<title>蛋白质分离器</title>
			<g id="group3736-2" transform="translate(6.59472E-14,-57.42)" v:mID="3736" v:groupContext="group">
				<title>工作表.3736</title>
				<g id="shape3737-3" v:mID="3737" v:groupContext="shape">
					<title>shape1</title>
					<path d="M24 91.21 C24 91.21 24.38 86.63 20.48 82.66 C16.58 78.68 11.63 79.06 11.63 79.06 C11.63 79.06 7.43 78.98
								 4.2 81.46 C0.98 84.01 0 87.46 0 87.46 C0 87.46 4.35 87.46 4.35 87.46 C7.35 83.26 11.63 83.26 11.63
								 83.26 C11.63 83.26 15.23 83.18 17.33 85.06 C19.58 87.08 19.65 91.21 19.65 91.21 L24 91.21 Z"
							class="st1"/>
				</g>
				<g id="shape3738-5" v:mID="3738" v:groupContext="shape" transform="translate(0.33,-0.18)">
					<title>shape2</title>
					<path d="M23.33 91.21 C23.33 91.21 23.4 86.63 19.95 83.18 C16.05 79.28 11.33 79.58 11.33 79.58 C11.33 79.58 7.13
								 79.58 4.05 82.06 C1.35 84.16 0.3 86.86 0 87.68 C0 87.68 1.13 87.68 1.13 87.68 C3.83 79.96 11.33
								 80.33 11.33 80.33 C11.33 80.33 16.28 80.18 19.43 83.71 C22.2 86.48 22.43 91.21 22.43 91.21 L23.33
								 91.21 Z" class="st2"/>
				</g>
				<g id="shape3739-7" v:mID="3739" v:groupContext="shape" transform="translate(0.8925,-0.1575)">
					<title>shape3</title>
					<path d="M22.27 91.21 C22.27 91.21 22.05 86.71 19.05 83.56 C15.6 79.96 10.88 80.03 10.88 80.03 C10.88 80.03 6.9
								 80.03 4.05 82.28 C1.28 84.53 0 87.61 0 87.61 C0 87.61 0.68 87.61 0.68 87.61 C3.82 80.18 10.8 80.63
								 10.8 80.63 C10.8 80.63 15.23 80.26 18.67 83.93 C21.6 87.16 21.75 91.21 22.27 91.21 Z" class="st3"/>
				</g>
				<g id="shape3740-9" v:mID="3740" v:groupContext="shape" transform="translate(1.53,-0.15)">
					<title>shape4</title>
					<path d="M21.15 91.21 C21.15 91.21 21.23 87.16 17.93 83.78 C14.4 80.18 10.2 80.56 10.2 80.56 C10.2 80.56 6.83
								 80.41 3.83 82.66 C0.9 84.83 0 87.61 0 87.61 C0 87.61 0.68 87.53 0.68 87.53 C4.05 80.63 10.2 81.16
								 10.2 81.16 C10.2 81.16 13.95 80.71 17.55 84.16 C20.55 87.01 20.55 91.21 21.15 91.21 Z" class="st4"/>
				</g>
				<g id="shape3741-11" v:mID="3741" v:groupContext="shape" transform="translate(2.1975,-0.1275)">
					<title>shape5</title>
					<path d="M19.95 91.21 C19.95 91.21 19.95 87.16 17.1 84.38 C13.35 80.63 9.53 81.08 9.53 81.08 C9.53 81.08 6.45
								 80.93 3.53 83.11 C1.13 84.91 0 87.53 0 87.53 C0 87.53 0.83 87.61 0.83 87.61 C3.9 81.61 9.53 81.91
								 9.53 81.91 C9.53 81.91 13.5 81.76 16.43 84.91 C18.98 87.53 18.98 91.13 18.98 91.13 L19.95 91.21
								 Z" class="st5"/>
				</g>
				<g id="shape3742-13" v:mID="3742" v:groupContext="shape" transform="translate(3.6825,-0.225)">
					<title>shape6</title>
					<path d="M16.8 91.21 C16.8 91.21 16.65 87.53 14.33 85.21 C11.55 82.36 7.8 82.58 7.8 82.58 C7.8 82.58 5.48 82.43
								 3 84.23 C0.83 85.88 0 87.68 0 87.68 C0 87.68 0.68 87.61 0.68 87.61 C3.75 83.56 7.58 83.56 7.58 83.56
								 C7.58 83.56 11.33 83.11 13.65 85.51 C16.13 88.06 15.98 91.21 15.98 91.21 L16.8 91.21 Z"
							class="st6"/>
				</g>
			</g>
			<g id="shape3743-15" v:mID="3743" v:groupContext="shape" transform="translate(27.6975,3.2685E-13)">
				<title>shape7</title>
				<path d="M12.45 18.61 L12.45 90.23 C12.45 90.76 12 91.21 11.47 91.21 L0.97 91.21 C0.45 91.21 0 90.76 0 90.23 L0 18.61
							 L12.45 18.61 Z" class="st7"/>
			</g>
			<g id="shape3744-19" v:mID="3744" v:groupContext="shape" transform="translate(19.545,-5.835)">
				<title>shape8</title>
				<path d="M0 39.31 L4.57 39.31 L4.57 91.21 L0 91.21 L0 39.31 Z" class="st8"/>
			</g>
			<g id="shape3745-23" v:mID="3745" v:groupContext="shape" transform="translate(21.06,-1.2075)">
				<title>shape9</title>
				<path d="M0 89.56 L1.57 89.56 L1.57 91.21 L0 91.21 L0 89.56 Z" class="st8"/>
			</g>
			<g id="shape3746-26" v:mID="3746" v:groupContext="shape" transform="translate(19.545,-2.76)">
				<title>shape10</title>
				<path d="M0 89.86 L4.57 89.86 L3.07 91.21 L1.5 91.21 L0 89.86 Z" class="st8"/>
			</g>
			<g id="shape3747-29" v:mID="3747" v:groupContext="shape" transform="translate(19.23,-6.7875)">
				<title>shape11</title>
				<path d="M0 87.68 L5.25 87.68 L5.25 91.21 L0 91.21 L0 87.68 Z" class="st9"/>
			</g>
			<g id="shape3748-33" v:mID="3748" v:groupContext="shape" transform="translate(26.7375,-3.2325)">
				<title>shape12</title>
				<path d="M0.97 87.01 L0 87.01 L0 91.21 L0.97 91.21 L0.97 87.01 Z" class="st10"/>
			</g>
			<g id="shape3749-37" v:mID="3749" v:groupContext="shape" transform="translate(33.0825,-18.75)">
				<title>shape13</title>
				<path d="M1.73 37.36 L1.73 91.21 L0 91.21 L0 37.36 L1.73 37.36 Z" class="st8"/>
			</g>
			<g id="group3750-40" transform="translate(24.525,-49.89)" v:mID="3750" v:groupContext="group">
				<title>工作表.3750</title>
				<g id="shape3751-41" v:mID="3751" v:groupContext="shape" transform="translate(-5.7454E-15,-1.0425)">
					<title>shape14</title>
					<path d="M0 88.81 L2.32 88.81 L2.32 91.21 L0 91.21 L0 88.81 Z" class="st10"/>
				</g>
				<g id="shape3752-44" v:mID="3752" v:groupContext="shape" transform="translate(2.2125,0)">
					<title>shape15</title>
					<path d="M0.98 86.78 L0 86.78 L0 91.21 L0.98 91.21 L0.98 86.78 Z" class="st10"/>
				</g>
			</g>
			<g id="group3753-47" transform="translate(24.525,-43.485)" v:mID="3753" v:groupContext="group">
				<title>工作表.3753</title>
				<g id="shape3754-48" v:mID="3754" v:groupContext="shape" transform="translate(-5.7454E-15,-1.0425)">
					<title>shape16</title>
					<path d="M0 88.81 L2.32 88.81 L2.32 91.21 L0 91.21 L0 88.81 Z" class="st10"/>
				</g>
				<g id="shape3755-51" v:mID="3755" v:groupContext="shape" transform="translate(2.2125,0)">
					<title>shape17</title>
					<path d="M0.98 86.78 L0 86.78 L0 91.21 L0.98 91.21 L0.98 86.78 Z" class="st10"/>
				</g>
			</g>
			<g id="shape3756-54" v:mID="3756" v:groupContext="shape" transform="translate(19.1175,-43.7925)">
				<title>shape18</title>
				<path d="M0.22 80.71 L5.17 80.71 C5.32 80.71 5.47 80.78 5.47 80.93 L5.47 90.98 C5.47 91.06 5.32 91.21 5.17 91.21
							 L0.22 91.21 C0.07 91.21 0 91.06 0 90.98 L0 80.93 C0 80.78 0.07 80.71 0.22 80.71 Z" class="st11"/>
			</g>
			<g id="shape3757-58" v:mID="3757" v:groupContext="shape" transform="translate(27.6975,-56.9475)">
				<title>shape19</title>
				<path d="M12.45 88.81 L12.45 91.13 C12.45 91.13 12 91.21 11.47 91.21 L0.97 91.21 C0.45 91.21 0 91.13 0 91.13 L0 88.81
							 L12.45 88.81 Z" class="st11"/>
			</g>
			<g id="shape3758-61" v:mID="3758" v:groupContext="shape" transform="translate(27.3825,-54.5775)">
				<title>shape20</title>
				<path d="M13.05 88.81 L13.05 91.13 C13.05 91.13 12.6 91.21 12.08 91.21 L0.98 91.21 C0.45 91.21 0 91.13 0 91.13 L0
							 88.81 L13.05 88.81 Z" class="st8"/>
			</g>
			<g id="shape3759-64" v:mID="3759" v:groupContext="shape" transform="translate(27.3825,-41.115)">
				<title>shape21</title>
				<path d="M13.05 88.81 L13.05 91.13 C13.05 91.13 12.6 91.21 12.08 91.21 L0.98 91.21 C0.45 91.21 0 91.13 0 91.13 L0
							 88.81 L13.05 88.81 Z" class="st8"/>
			</g>
			<g id="shape3760-67" v:mID="3760" v:groupContext="shape" transform="translate(32.5425,-48.6675)">
				<title>shape22</title>
				<path d="M0 85.28 L2.77 85.28 L2.77 91.21 L0 91.21 L0 85.28 Z" class="st12"/>
			</g>
			<g id="shape3761-71" v:mID="3761" v:groupContext="shape" transform="translate(32.79,-45.5175)">
				<title>shape23</title>
				<path d="M0 88.06 L2.25 88.06 L2.25 91.21 L0 91.21 L0 88.06 Z" class="st13"/>
			</g>
			<g id="shape3762-75" v:mID="3762" v:groupContext="shape" transform="translate(35.385,-50.73)">
				<title>shape24</title>
				<path d="M0 89.93 L4.65 89.93 L4.65 91.21 L0 91.21 L0 89.93 Z" class="st14"/>
			</g>
			<g id="shape3763-79" v:mID="3763" v:groupContext="shape" transform="translate(25.9875,-75.6825)">
				<title>shape25</title>
				<path d="M0 79.13 L15.9 79.13 L15.9 91.21 L0 91.21 L0 79.13 Z" class="st7"/>
			</g>
			<g id="shape3764-82" v:mID="3764" v:groupContext="shape" transform="translate(25.9875,-72.495)">
				<title>shape26</title>
				<path d="M0 88.06 L15.9 88.06 L14.18 91.21 L1.65 91.21 L0 88.06 Z" class="st15"/>
			</g>
			<g id="shape3765-86" v:mID="3765" v:groupContext="shape" transform="translate(25.9875,-87.6075)">
				<title>shape27</title>
				<path d="M0.98 89.11 L14.93 89.11 C15.45 89.11 15.9 89.56 15.9 90.08 L15.9 91.21 L0 91.21 L0 90.08 C0 89.56 0.45
							 89.11 0.98 89.11 Z" class="st15"/>
			</g>
			<g id="shape3766-89" v:mID="3766" v:groupContext="shape" transform="translate(25.9875,-75.69)">
				<title>shape28</title>
				<path d="M6 86.78 L9.9 86.78 L15.9 91.21 L0 91.21 L6 86.78 Z" class="st8"/>
			</g>
			<g id="shape3767-92" v:mID="3767" v:groupContext="shape" transform="translate(31.98,-80.1075)">
				<title>shape29</title>
				<path d="M0 86.26 L3.9 86.26 L3.9 91.21 L0 91.21 L0 86.26 Z" class="st8"/>
			</g>
			<g id="shape3768-95" v:mID="3768" v:groupContext="shape" transform="translate(27.66,-0.015)">
				<title>shape30</title>
				<path d="M12.52 88.66 L12.52 90.23 C12.52 90.76 12.07 91.21 11.55 91.21 L0.97 91.21 C0.45 91.21 0 90.76 0 90.23 L0
							 88.66 L12.52 88.66 Z" class="st11"/>
			</g>
			<g id="shape3769-98" v:mID="3769" v:groupContext="shape" transform="translate(18.87,-3.675)">
				<title>shape32</title>
				<path d="M0 87.91 L7.95 87.91 L7.95 91.21 L0 91.21 L0 87.91 Z" class="st16"/>
			</g>
			<g id="shape3770-102" v:mID="3770" v:groupContext="shape" transform="translate(27.6975,-43.5)">
				<title>shape33</title>
				<path d="M12.45 79.96 L12.45 91.21 L0 91.21 L0 79.96 L12.45 79.96 Z" class="st7"/>
			</g>
			<g id="group3771-105" transform="translate(27.675,-54.585)" v:mID="3771" v:groupContext="group">
				<title>工作表.3771</title>
				<g id="shape3772-106" v:mID="3772" v:groupContext="shape">
					<title>shape34</title>
					<path d="M0.6 88.81 L0.6 91.13 C0.6 91.13 0.53 91.21 0.53 91.21 C0 91.21 0 91.13 0 91.13 L0.6 88.81 Z"
							class="st8"/>
				</g>
				<g id="shape3773-109" v:mID="3773" v:groupContext="shape" transform="translate(1.725,-1.42109E-14)">
					<title>shape35</title>
					<path d="M0.6 88.81 L0.6 91.13 C0.6 91.13 0.53 91.21 0.53 91.21 C0 91.21 0 91.13 0 91.13 L0.6 88.81 Z"
							class="st8"/>
				</g>
				<g id="shape3774-112" v:mID="3774" v:groupContext="shape" transform="translate(3.3975,-1.42109E-14)">
					<title>shape36</title>
					<path d="M0.6 88.81 L0.6 91.13 C0.6 91.13 0.53 91.21 0.53 91.21 C0 91.21 0 91.13 0 91.13 L0.6 88.81 Z"
							class="st8"/>
				</g>
				<g id="shape3775-115" v:mID="3775" v:groupContext="shape" transform="translate(5.1,-1.42109E-14)">
					<title>shape37</title>
					<path d="M0.6 88.81 L0.6 91.13 C0.6 91.13 0.53 91.21 0.53 91.21 C0 91.21 0 91.13 0 91.13 L0.6 88.81 Z"
							class="st8"/>
				</g>
				<g id="shape3776-118" v:mID="3776" v:groupContext="shape" transform="translate(6.8025,-1.42109E-14)">
					<title>shape38</title>
					<path d="M0.6 88.81 L0.6 91.13 C0.6 91.13 0.53 91.21 0.53 91.21 C0 91.21 0 91.13 0 91.13 L0.6 88.81 Z"
							class="st8"/>
				</g>
				<g id="shape3777-121" v:mID="3777" v:groupContext="shape" transform="translate(8.505,-1.42109E-14)">
					<title>shape39</title>
					<path d="M0.6 88.81 L0.6 91.13 C0.6 91.13 0.53 91.21 0.53 91.21 C0 91.21 0 91.13 0 91.13 L0.6 88.81 Z"
							class="st8"/>
				</g>
				<g id="shape3778-124" v:mID="3778" v:groupContext="shape" transform="translate(10.2075,-1.42109E-14)">
					<title>shape40</title>
					<path d="M0.6 88.81 L0.6 91.13 C0.6 91.13 0.53 91.21 0.53 91.21 C0 91.21 0 91.13 0 91.13 L0.6 88.81 Z"
							class="st8"/>
				</g>
				<g id="shape3779-127" v:mID="3779" v:groupContext="shape" transform="translate(11.91,-1.42109E-14)">
					<title>shape41</title>
					<path d="M0.6 88.81 L0.6 91.13 C0.6 91.13 0.53 91.21 0.53 91.21 C0 91.21 0 91.13 0 91.13 L0.6 88.81 Z"
							class="st8"/>
				</g>
			</g>
			<g id="group3780-130" transform="translate(28.5225,-57.4275)" v:mID="3780" v:groupContext="group">
				<title>工作表.3780</title>
				<g id="shape3781-131" v:mID="3781" v:groupContext="shape">
					<title>shape42</title>
					<path d="M0.6 89.71 L0.6 91.21 C0.6 91.21 0.53 91.21 0.53 91.21 C0 91.21 0 91.21 0 91.21 L0.6 89.71 Z"
							class="st8"/>
				</g>
				<g id="shape3782-134" v:mID="3782" v:groupContext="shape" transform="translate(1.725,-1.42109E-14)">
					<title>shape43</title>
					<path d="M0.6 89.71 L0.6 91.21 C0.6 91.21 0.53 91.21 0.53 91.21 C0 91.21 0 91.21 0 91.21 L0.6 89.71 Z"
							class="st8"/>
				</g>
				<g id="shape3783-137" v:mID="3783" v:groupContext="shape" transform="translate(3.3975,-1.42109E-14)">
					<title>shape44</title>
					<path d="M0.6 89.71 L0.6 91.21 C0.6 91.21 0.53 91.21 0.53 91.21 C0 91.21 0 91.21 0 91.21 L0.6 89.71 Z"
							class="st8"/>
				</g>
				<g id="shape3784-140" v:mID="3784" v:groupContext="shape" transform="translate(5.1,-1.42109E-14)">
					<title>shape45</title>
					<path d="M0.6 89.71 L0.6 91.21 C0.6 91.21 0.53 91.21 0.53 91.21 C0 91.21 0 91.21 0 91.21 L0.6 89.71 Z"
							class="st8"/>
				</g>
				<g id="shape3785-143" v:mID="3785" v:groupContext="shape" transform="translate(6.8025,-1.42109E-14)">
					<title>shape46</title>
					<path d="M0.6 89.71 L0.6 91.21 C0.6 91.21 0.53 91.21 0.53 91.21 C0 91.21 0 91.21 0 91.21 L0.6 89.71 Z"
							class="st8"/>
				</g>
				<g id="shape3786-146" v:mID="3786" v:groupContext="shape" transform="translate(8.505,-1.42109E-14)">
					<title>shape47</title>
					<path d="M0.6 89.71 L0.6 91.21 C0.6 91.21 0.53 91.21 0.53 91.21 C0 91.21 0 91.21 0 91.21 L0.6 89.71 Z"
							class="st8"/>
				</g>
				<g id="shape3787-149" v:mID="3787" v:groupContext="shape" transform="translate(10.2075,-1.42109E-14)">
					<title>shape48</title>
					<path d="M0.6 89.71 L0.6 91.21 C0.6 91.21 0.53 91.21 0.53 91.21 C0 91.21 0 91.21 0 91.21 L0.6 89.71 Z"
							class="st8"/>
				</g>
			</g>
			<g id="group3788-152" transform="translate(27.675,-41.13)" v:mID="3788" v:groupContext="group">
				<title>工作表.3788</title>
				<g id="shape3789-153" v:mID="3789" v:groupContext="shape">
					<title>shape49</title>
					<path d="M0.6 88.81 L0.6 91.13 C0.6 91.13 0.53 91.21 0.53 91.21 C0 91.21 0 91.13 0 91.13 L0.6 88.81 Z"
							class="st8"/>
				</g>
				<g id="shape3790-156" v:mID="3790" v:groupContext="shape" transform="translate(1.725,-1.42109E-14)">
					<title>shape50</title>
					<path d="M0.6 88.81 L0.6 91.13 C0.6 91.13 0.53 91.21 0.53 91.21 C0 91.21 0 91.13 0 91.13 L0.6 88.81 Z"
							class="st8"/>
				</g>
				<g id="shape3791-159" v:mID="3791" v:groupContext="shape" transform="translate(3.3975,-1.42109E-14)">
					<title>shape51</title>
					<path d="M0.6 88.81 L0.6 91.13 C0.6 91.13 0.53 91.21 0.53 91.21 C0 91.21 0 91.13 0 91.13 L0.6 88.81 Z"
							class="st8"/>
				</g>
				<g id="shape3792-162" v:mID="3792" v:groupContext="shape" transform="translate(5.1,-1.42109E-14)">
					<title>shape52</title>
					<path d="M0.6 88.81 L0.6 91.13 C0.6 91.13 0.53 91.21 0.53 91.21 C0 91.21 0 91.13 0 91.13 L0.6 88.81 Z"
							class="st8"/>
				</g>
				<g id="shape3793-165" v:mID="3793" v:groupContext="shape" transform="translate(6.8025,-1.42109E-14)">
					<title>shape53</title>
					<path d="M0.6 88.81 L0.6 91.13 C0.6 91.13 0.53 91.21 0.53 91.21 C0 91.21 0 91.13 0 91.13 L0.6 88.81 Z"
							class="st8"/>
				</g>
				<g id="shape3794-168" v:mID="3794" v:groupContext="shape" transform="translate(8.505,-1.42109E-14)">
					<title>shape54</title>
					<path d="M0.6 88.81 L0.6 91.13 C0.6 91.13 0.53 91.21 0.53 91.21 C0 91.21 0 91.13 0 91.13 L0.6 88.81 Z"
							class="st8"/>
				</g>
				<g id="shape3795-171" v:mID="3795" v:groupContext="shape" transform="translate(10.2075,-1.42109E-14)">
					<title>shape55</title>
					<path d="M0.6 88.81 L0.6 91.13 C0.6 91.13 0.53 91.21 0.53 91.21 C0 91.21 0 91.13 0 91.13 L0.6 88.81 Z"
							class="st8"/>
				</g>
				<g id="shape3796-174" v:mID="3796" v:groupContext="shape" transform="translate(11.91,-1.42109E-14)">
					<title>shape56</title>
					<path d="M0.6 88.81 L0.6 91.13 C0.6 91.13 0.53 91.21 0.53 91.21 C0 91.21 0 91.13 0 91.13 L0.6 88.81 Z"
							class="st8"/>
				</g>
			</g>
			<g id="shape3797-177" v:mID="3797" v:groupContext="shape" transform="translate(27.3825,-7.335)">
				<title>shape57</title>
				<path d="M13.05 88.81 L13.05 91.13 C13.05 91.13 12.6 91.21 12.08 91.21 L0.98 91.21 C0.45 91.21 0 91.13 0 91.13 L0
							 88.81 L13.05 88.81 Z" class="st8"/>
			</g>
			<g id="shape3798-180" v:mID="3798" v:groupContext="shape" transform="translate(39.4875,-26.52)">
				<title>shape58</title>
				<path d="M0 90.31 L9.45 90.31 L9.45 91.21 L0 91.21 L0 90.31 Z" class="st17"/>
			</g>
			<g id="shape3799-184" v:mID="3799" v:groupContext="shape" transform="translate(27.6975,-26.235)">
				<title>shape59</title>
				<path d="M0 89.71 L12.6 89.71 L12.6 91.21 L0 91.21 L0 89.71 Z" class="st18"/>
			</g>
			<g id="shape3800-188" v:mID="3800" v:groupContext="shape" transform="translate(48.24,-22.965)">
				<title>shape60</title>
				<path d="M0 56.48 L1.5 56.48 L1.5 91.21 L0 91.21 L0 56.48 Z" class="st18"/>
			</g>
			<g id="shape3801-191" v:mID="3801" v:groupContext="shape" transform="translate(48.24,-53.0775)">
				<title>shape61</title>
				<path d="M0 84.53 L5.33 84.53 L5.33 91.21 L0 91.21 L0 84.53 Z" class="st18"/>
			</g>
			<g id="shape3802-194" v:mID="3802" v:groupContext="shape" transform="translate(53.58,-56.0175)">
				<title>shape62</title>
				<path d="M0 91.21 L4.73 91.21 L4.73 89.48 L0 89.48 L0 91.21 Z" class="st17"/>
			</g>
			<g id="shape3803-197" v:mID="3803" v:groupContext="shape" transform="translate(48.24,-59.4375)">
				<title>shape63</title>
				<path d="M0 91.21 L8.47 91.21 L8.47 90.01 L0 90.01 L0 91.21 Z" class="st18"/>
			</g>
			<g id="shape3804-200" v:mID="3804" v:groupContext="shape" transform="translate(58.305,-55.2)">
				<title>shape64</title>
				<path d="M1.2 87.91 L0 87.91 L0 91.21 L1.2 91.21 L1.2 87.91 Z" class="st17"/>
			</g>
			<g id="shape3805-203" v:mID="3805" v:groupContext="shape" transform="translate(55.95,-53.6625)">
				<title>shape65</title>
				<path d="M1.2 84.23 L0 84.23 L0 91.21 L1.2 91.21 L1.2 84.23 Z" class="st17"/>
			</g>
			<g id="shape3806-206" v:mID="3806" v:groupContext="shape" transform="translate(27.7575,-59.295)">
				<title>shape66</title>
				<path d="M12.45 78.08 L12.45 91.21 L0 91.21 L0 78.08 L12.45 78.08 Z" class="st8"/>
			</g>
			<g id="shape3807-209" v:mID="3807" v:groupContext="shape" transform="translate(33.0825,-17.775)">
				<title>shape67</title>
				<path d="M0 89.78 L1.73 89.78 L1.73 91.21 L0 91.21 L0 89.78 Z" class="st9"/>
			</g>
			<g id="shape3808-212" v:mID="3808" v:groupContext="shape" transform="translate(32.475,-13.515)">
				<title>shape68</title>
				<path d="M0 87.91 L0.6 86.93 L2.33 86.93 L2.92 87.91 L2.92 91.21 L0 91.21 L0 87.91 Z" class="st19"/>
			</g>
			<g id="shape3809-216" v:mID="3809" v:groupContext="shape" transform="translate(40.155,-2.01)">
				<title>shape69</title>
				<path d="M0 83.48 L7.2 83.48 L7.2 91.21 L0 91.21 L0 83.48 Z" class="st7"/>
			</g>
			<g id="shape3810-219" v:mID="3810" v:groupContext="shape" transform="translate(40.0275,-45.3)">
				<title>shape70</title>
				<path d="M0 83.41 L8.25 83.41 L8.25 91.21 L0 91.21 L0 83.41 Z" class="st7"/>
			</g>
			<g id="shape3811-222" v:mID="3811" v:groupContext="shape" transform="translate(48.81,-2.01)">
				<title>shape71</title>
				<path d="M0 86.41 L1.87 83.48 L1.87 91.21 L0 88.36 L0 86.41 Z" class="st10"/>
			</g>
			<g id="shape3812-225" v:mID="3812" v:groupContext="shape" transform="translate(47.31,-4.89)">
				<title>shape72</title>
				<path d="M0 89.26 L1.5 89.26 L1.5 91.21 L0 91.21 L0 89.26 Z" class="st10"/>
			</g>
			<g id="shape3813-228" v:mID="3813" v:groupContext="shape" transform="translate(45.42,-51.99)">
				<title>shape73</title>
				<path d="M0 90.23 C0 89.71 0.45 89.33 0.97 89.33 C1.5 89.33 1.87 89.71 1.87 90.23 C1.87 90.76 1.5 91.21 0.97 91.21
							 C0.45 91.21 0 90.76 0 90.23 Z" class="st20"/>
			</g>
			<g id="shape3814-232" v:mID="3814" v:groupContext="shape" transform="translate(39.5175,-50.43)">
				<title>shape74</title>
				<path d="M0 90.23 C0 89.71 0.45 89.33 0.97 89.33 C1.5 89.33 1.87 89.71 1.87 90.23 C1.87 90.76 1.5 91.21 0.97 91.21
							 C0.45 91.21 0 90.76 0 90.23 Z" class="st20"/>
			</g>
		</g>
	</g>
</svg>
