<?xml version="1.0" encoding="UTF-8" standalone="no"?>
<!DOCTYPE svg PUBLIC "-//W3C//DTD SVG 1.1//EN" "http://www.w3.org/Graphics/SVG/1.1/DTD/svg11.dtd">
<!-- 由 Microsoft Visio, SVG Export 生成 化学42.svg 页-1 -->
<svg xmlns="http://www.w3.org/2000/svg" xmlns:xlink="http://www.w3.org/1999/xlink" xmlns:ev="http://www.w3.org/2001/xml-events"
		xmlns:v="http://schemas.microsoft.com/visio/2003/SVGExtensions/" width="1.55104in" height="1.34896in"
		viewBox="0 0 111.675 97.125" xml:space="preserve" color-interpolation-filters="sRGB" class="st7">
	<v:documentProperties v:langID="2052" v:metric="true" v:viewMarkup="false"/>

	<style type="text/css">
	<![CDATA[
		.st1 {fill:url(#grad0-6);stroke:none;stroke-linecap:butt;stroke-width:0.75}
		.st2 {fill:url(#grad0-10);stroke:none;stroke-linecap:butt;stroke-width:0.75}
		.st3 {fill:url(#grad0-22);stroke:none;stroke-linecap:butt;stroke-width:0.75}
		.st4 {fill:url(#grad0-26);stroke:none;stroke-linecap:butt;stroke-width:0.75}
		.st5 {fill:url(#grad0-30);stroke:none;stroke-linecap:butt;stroke-width:0.75}
		.st6 {fill:url(#grad0-37);stroke:none;stroke-linecap:butt;stroke-width:0.75}
		.st7 {fill:none;fill-rule:evenodd;font-size:12px;overflow:visible;stroke-linecap:square;stroke-miterlimit:3}
	]]>
	</style>

	<defs id="Patterns_And_Gradients">
		<linearGradient id="grad0-6" x1="0" y1="0" x2="1" y2="0" gradientTransform="rotate(90 0.5 0.5)">
			<stop offset="0" stop-color="#2c97bc" stop-opacity="1"/>
			<stop offset="0.15" stop-color="#5acaf6" stop-opacity="1"/>
			<stop offset="0.25" stop-color="#b7e2fa" stop-opacity="1"/>
			<stop offset="0.52" stop-color="#33add6" stop-opacity="1"/>
			<stop offset="0.69" stop-color="#2d9abf" stop-opacity="1"/>
			<stop offset="0.8" stop-color="#2991b4" stop-opacity="1"/>
			<stop offset="0.97" stop-color="#2789aa" stop-opacity="1"/>
			<stop offset="1" stop-color="#2e9dc3" stop-opacity="1"/>
		</linearGradient>
		<linearGradient id="grad0-10" x1="0" y1="0" x2="1" y2="0" gradientTransform="rotate(90 0.5 0.5)">
			<stop offset="0" stop-color="#229abd" stop-opacity="1"/>
			<stop offset="0.15" stop-color="#54cdf7" stop-opacity="1"/>
			<stop offset="0.25" stop-color="#b6e3fb" stop-opacity="1"/>
			<stop offset="0.52" stop-color="#29b0d8" stop-opacity="1"/>
			<stop offset="0.69" stop-color="#239cc0" stop-opacity="1"/>
			<stop offset="0.8" stop-color="#2093b6" stop-opacity="1"/>
			<stop offset="0.97" stop-color="#1e8bab" stop-opacity="1"/>
			<stop offset="1" stop-color="#24a0c5" stop-opacity="1"/>
		</linearGradient>
		<linearGradient id="grad0-22" x1="0" y1="0" x2="1" y2="0" gradientTransform="rotate(-180 0.5 0.5)">
			<stop offset="0" stop-color="#1d82a1" stop-opacity="1"/>
			<stop offset="0.03" stop-color="#81caea" stop-opacity="1"/>
			<stop offset="0.08" stop-color="#29aad2" stop-opacity="1"/>
			<stop offset="0.64" stop-color="#28a7cf" stop-opacity="1"/>
			<stop offset="0.94" stop-color="#27a3ca" stop-opacity="1"/>
			<stop offset="1" stop-color="#1a7895" stop-opacity="1"/>
		</linearGradient>
		<linearGradient id="grad0-26" x1="0" y1="0" x2="1" y2="0" gradientTransform="rotate(-180 0.5 0.5)">
			<stop offset="0" stop-color="#257d98" stop-opacity="1"/>
			<stop offset="0.03" stop-color="#85c5e1" stop-opacity="1"/>
			<stop offset="0.08" stop-color="#34a4c7" stop-opacity="1"/>
			<stop offset="0.64" stop-color="#33a1c4" stop-opacity="1"/>
			<stop offset="0.94" stop-color="#319dbf" stop-opacity="1"/>
			<stop offset="1" stop-color="#22748d" stop-opacity="1"/>
		</linearGradient>
		<linearGradient id="grad0-30" x1="0" y1="0" x2="1" y2="0" gradientTransform="rotate(90 0.5 0.5)">
			<stop offset="0" stop-color="#1f8eaf" stop-opacity="1"/>
			<stop offset="0.03" stop-color="#82d5f9" stop-opacity="1"/>
			<stop offset="0.08" stop-color="#2bb9e4" stop-opacity="1"/>
			<stop offset="0.64" stop-color="#2ab6e0" stop-opacity="1"/>
			<stop offset="0.94" stop-color="#29b2db" stop-opacity="1"/>
			<stop offset="1" stop-color="#1c83a2" stop-opacity="1"/>
		</linearGradient>
		<linearGradient id="grad0-37" x1="0" y1="0" x2="1" y2="0" gradientTransform="rotate(-180 0.5 0.5)">
			<stop offset="0" stop-color="#1f8eaf" stop-opacity="1"/>
			<stop offset="0.03" stop-color="#82d5f9" stop-opacity="1"/>
			<stop offset="0.08" stop-color="#2bb9e4" stop-opacity="1"/>
			<stop offset="0.64" stop-color="#2ab6e0" stop-opacity="1"/>
			<stop offset="0.94" stop-color="#29b2db" stop-opacity="1"/>
			<stop offset="1" stop-color="#1c83a2" stop-opacity="1"/>
		</linearGradient>
	</defs>
	<g v:mID="0" v:index="1" v:groupContext="foregroundPage">
		<title>页-1</title>
		<v:pageProperties v:drawingScale="0.0393701" v:pageScale="0.0393701" v:drawingUnits="24" v:shadowOffsetX="8.50394"
				v:shadowOffsetY="-8.50394"/>
		<g id="group3292-1" transform="translate(0.75,-0.75)" v:mID="3292" v:groupContext="group">
			<title>静电除尘器</title>
			<g id="group3293-2" transform="translate(-4.09672E-14,-56.4525)" v:mID="3293" v:groupContext="group">
				<title>工作表.3293</title>
				<g id="shape3294-3" v:mID="3294" v:groupContext="shape" transform="translate(2.2875,-2.385)">
					<title>shape1</title>
					<path d="M4.43 85.28 L0 85.28 L0 97.13 L4.43 97.13 L4.43 85.28 Z" class="st1"/>
				</g>
				<g id="shape3295-7" v:mID="3295" v:groupContext="shape">
					<title>shape2</title>
					<path d="M0.97 80.55 C2.02 80.55 2.47 81 2.47 81.53 L2.47 96.08 C2.47 96.68 2.02 97.13 1.5 97.13 C0.45 97.13
								 0 96.68 0 96.08 L0 81.53 C0 81 0.45 80.55 0.97 80.55 Z" class="st2"/>
				</g>
			</g>
			<g id="group3296-11" transform="translate(103.462,-75.3)" v:mID="3296" v:groupContext="group">
				<title>工作表.3296</title>
				<g id="shape3297-12" v:mID="3297" v:groupContext="shape" transform="translate(4.425,-2.385) scale(-1,1)">
					<title>shape3</title>
					<path d="M4.42 85.28 L0 85.28 L0 97.13 L4.42 97.13 L4.42 85.28 Z" class="st1"/>
				</g>
				<g id="shape3298-15" v:mID="3298" v:groupContext="shape" transform="translate(6.7125,1.13687E-13) scale(-1,1)">
					<title>shape4</title>
					<path d="M0.97 80.55 C2.02 80.55 2.47 81 2.47 81.53 L2.47 96.08 C2.47 96.68 2.02 97.13 1.5 97.13 C0.45 97.13
								 0 96.68 0 96.08 L0 81.53 C0 81 0.45 80.55 0.97 80.55 Z" class="st2"/>
				</g>
			</g>
			<g id="group3299-18" transform="translate(6.285,-2.13163E-13)" v:mID="3299" v:groupContext="group">
				<title>工作表.3299</title>
				<g id="shape3300-19" v:mID="3300" v:groupContext="shape" transform="translate(-1.75859E-13,-41.325)">
					<title>shape5</title>
					<path d="M0 42.83 L48.6 42.83 L48.6 97.13 L0 97.13 L0 42.83 Z" class="st3"/>
				</g>
				<g id="shape3301-23" v:mID="3301" v:groupContext="shape" transform="translate(-1.75859E-13,-16.6725)">
					<title>shape6</title>
					<path d="M0 72.45 L48.6 72.45 L27.75 97.13 L20.85 97.13 L0 72.45 Z" class="st4"/>
				</g>
				<g id="shape3302-27" v:mID="3302" v:groupContext="shape" transform="translate(-1.75859E-13,-93)">
					<title>shape7</title>
					<path d="M0 94.5 L48.6 94.5 L48.6 97.13 L0 97.13 L0 94.5 Z" class="st5"/>
				</g>
				<g id="shape3303-31" v:mID="3303" v:groupContext="shape" transform="translate(20.8725,-13.9125)">
					<title>shape9</title>
					<path d="M0 97.13 L6.9 97.13 L6.9 94.28 L0 94.28 L0 97.13 Z" class="st3"/>
				</g>
				<g id="shape3304-34" v:mID="3304" v:groupContext="shape" transform="translate(20.5125,-6.84)">
					<title>shape10</title>
					<path d="M0.37 90 L7.2 90 C7.42 90 7.57 90.15 7.57 90.38 L7.57 96.75 C7.57 96.98 7.42 97.13 7.2 97.13 L0.37 97.13
								 C0.15 97.13 0 96.98 0 96.75 L0 90.38 C0 90.15 0.15 90 0.37 90 Z" class="st6"/>
				</g>
				<g id="shape3305-38" v:mID="3305" v:groupContext="shape" transform="translate(-1.75859E-13,-41.265)">
					<title>shape12</title>
					<path d="M0 94.5 L48.6 94.5 L48.6 97.13 L0 97.13 L0 94.5 Z" class="st5"/>
				</g>
				<g id="shape3306-41" v:mID="3306" v:groupContext="shape">
					<title>shape13</title>
					<path d="M0 1.5 L2.63 1.5 L2.63 97.13 L0 97.13 L0 1.5 Z" class="st6"/>
				</g>
				<g id="shape3307-44" v:mID="3307" v:groupContext="shape" transform="translate(46.0125,-2.13163E-13)">
					<title>shape14</title>
					<path d="M0 1.5 L2.63 1.5 L2.63 97.13 L0 97.13 L0 1.5 Z" class="st6"/>
				</g>
				<g id="shape3308-47" v:mID="3308" v:groupContext="shape" transform="translate(23.0025,-2.13163E-13)">
					<title>shape18</title>
					<path d="M0 1.5 L2.63 1.5 L2.63 97.13 L0 97.13 L0 1.5 Z" class="st6"/>
				</g>
			</g>
			<g id="group3309-50" transform="translate(54.855,-2.13163E-13)" v:mID="3309" v:groupContext="group">
				<title>工作表.3309</title>
				<g id="shape3310-51" v:mID="3310" v:groupContext="shape" transform="translate(-1.75859E-13,-41.325)">
					<title>shape19</title>
					<path d="M0 42.83 L48.6 42.83 L48.6 97.13 L0 97.13 L0 42.83 Z" class="st3"/>
				</g>
				<g id="shape3311-54" v:mID="3311" v:groupContext="shape" transform="translate(-1.75859E-13,-16.6725)">
					<title>shape20</title>
					<path d="M0 72.45 L48.6 72.45 L27.75 97.13 L20.85 97.13 L0 72.45 Z" class="st4"/>
				</g>
				<g id="shape3312-57" v:mID="3312" v:groupContext="shape" transform="translate(-1.75859E-13,-93)">
					<title>shape21</title>
					<path d="M0 94.5 L48.6 94.5 L48.6 97.13 L0 97.13 L0 94.5 Z" class="st5"/>
				</g>
				<g id="shape3313-60" v:mID="3313" v:groupContext="shape" transform="translate(20.8725,-13.9125)">
					<title>shape23</title>
					<path d="M0 97.13 L6.9 97.13 L6.9 94.28 L0 94.28 L0 97.13 Z" class="st3"/>
				</g>
				<g id="shape3314-63" v:mID="3314" v:groupContext="shape" transform="translate(20.5125,-6.84)">
					<title>shape24</title>
					<path d="M0.37 90 L7.2 90 C7.42 90 7.57 90.15 7.57 90.38 L7.57 96.75 C7.57 96.98 7.42 97.13 7.2 97.13 L0.37 97.13
								 C0.15 97.13 0 96.98 0 96.75 L0 90.38 C0 90.15 0.15 90 0.37 90 Z" class="st6"/>
				</g>
				<g id="shape3315-66" v:mID="3315" v:groupContext="shape" transform="translate(-1.75859E-13,-41.265)">
					<title>shape26</title>
					<path d="M0 94.5 L48.6 94.5 L48.6 97.13 L0 97.13 L0 94.5 Z" class="st5"/>
				</g>
				<g id="shape3316-69" v:mID="3316" v:groupContext="shape">
					<title>shape27</title>
					<path d="M0 1.5 L2.63 1.5 L2.63 97.13 L0 97.13 L0 1.5 Z" class="st6"/>
				</g>
				<g id="shape3317-72" v:mID="3317" v:groupContext="shape" transform="translate(46.0125,-2.13163E-13)">
					<title>shape28</title>
					<path d="M0 1.5 L2.63 1.5 L2.63 97.13 L0 97.13 L0 1.5 Z" class="st6"/>
				</g>
				<g id="shape3318-75" v:mID="3318" v:groupContext="shape" transform="translate(23.0025,-2.13163E-13)">
					<title>shape32</title>
					<path d="M0 1.5 L2.63 1.5 L2.63 97.13 L0 97.13 L0 1.5 Z" class="st6"/>
				</g>
			</g>
		</g>
	</g>
</svg>
