<?xml version="1.0" encoding="UTF-8" standalone="no"?>
<!DOCTYPE svg PUBLIC "-//W3C//DTD SVG 1.1//EN" "http://www.w3.org/Graphics/SVG/1.1/DTD/svg11.dtd">
<!-- 由 Microsoft Visio, SVG Export 生成 化学28.svg 页-1 -->
<svg xmlns="http://www.w3.org/2000/svg" xmlns:xlink="http://www.w3.org/1999/xlink" xmlns:ev="http://www.w3.org/2001/xml-events"
		xmlns:v="http://schemas.microsoft.com/visio/2003/SVGExtensions/" width="0.942708in" height="1.25in" viewBox="0 0 67.875 90"
		xml:space="preserve" color-interpolation-filters="sRGB" class="st17">
	<v:documentProperties v:langID="2052" v:metric="true" v:viewMarkup="false"/>

	<style type="text/css">
	<![CDATA[
		.st1 {fill:url(#grad0-5);stroke:none;stroke-linecap:butt;stroke-width:0.75}
		.st2 {fill:url(#grad0-9);stroke:none;stroke-linecap:butt;stroke-width:0.75}
		.st3 {fill:url(#grad0-16);stroke:none;stroke-linecap:butt;stroke-width:0.75}
		.st4 {fill:#d4dcd2;stroke:none;stroke-linecap:butt;stroke-width:0.75}
		.st5 {fill:#00ae9d;stroke:#00ae9d;stroke-linecap:butt;stroke-width:0.75}
		.st6 {fill:#cdcece;stroke:#cdcece;stroke-linecap:butt;stroke-width:0.75}
		.st7 {fill:#dcdcdd;stroke:none;stroke-linecap:butt;stroke-width:0.75}
		.st8 {fill:#eeeeee;stroke:none;stroke-linecap:butt;stroke-width:0.75}
		.st9 {fill:#b4b5b5;stroke:none;stroke-linecap:butt;stroke-width:0.75}
		.st10 {fill:#000000;stroke:none;stroke-linecap:butt;stroke-width:0.75}
		.st11 {fill:url(#grad0-50);stroke:#ffffff;stroke-linecap:butt;stroke-width:0.75}
		.st12 {fill:url(#grad0-67);stroke:none;stroke-linecap:butt;stroke-width:0.75}
		.st13 {fill:#ffffff;fill-opacity:0.2;stroke:none;stroke-linecap:butt;stroke-width:0.75}
		.st14 {fill:#242020;stroke:#3e3938;stroke-linecap:butt;stroke-width:0.75}
		.st15 {fill:#ffffff;fill-opacity:0.17;stroke:none;stroke-linecap:butt;stroke-width:0.75}
		.st16 {fill:url(#grad0-99);stroke:none;stroke-linecap:butt;stroke-width:0.75}
		.st17 {fill:none;fill-rule:evenodd;font-size:12px;overflow:visible;stroke-linecap:square;stroke-miterlimit:3}
	]]>
	</style>

	<defs id="Patterns_And_Gradients">
		<linearGradient id="grad0-5" x1="0" y1="0" x2="1" y2="0" gradientTransform="rotate(-180 0.5 0.5)">
			<stop offset="0" stop-color="#aeaead" stop-opacity="1"/>
			<stop offset="0.03" stop-color="#f8f8f7" stop-opacity="1"/>
			<stop offset="0.08" stop-color="#e3e3e2" stop-opacity="1"/>
			<stop offset="0.64" stop-color="#dfdfde" stop-opacity="1"/>
			<stop offset="0.95" stop-color="#dadad9" stop-opacity="1"/>
			<stop offset="1" stop-color="#a2a2a1" stop-opacity="1"/>
		</linearGradient>
		<linearGradient id="grad0-9" x1="0" y1="0" x2="1" y2="0" gradientTransform="rotate(-180 0.5 0.5)">
			<stop offset="0" stop-color="#3d3b3b" stop-opacity="1"/>
			<stop offset="0.03" stop-color="#908f8f" stop-opacity="1"/>
			<stop offset="0.08" stop-color="#514f4f" stop-opacity="1"/>
			<stop offset="0.64" stop-color="#504e4e" stop-opacity="1"/>
			<stop offset="0.95" stop-color="#4e4c4c" stop-opacity="1"/>
			<stop offset="1" stop-color="#383636" stop-opacity="1"/>
		</linearGradient>
		<linearGradient id="grad0-16" x1="0" y1="0" x2="1" y2="0" gradientTransform="rotate(153.66691427422 0.5 0.5)">
			<stop offset="0" stop-color="#bcbcbc" stop-opacity="1"/>
			<stop offset="0.52" stop-color="#4d4b4b" stop-opacity="1"/>
			<stop offset="0.69" stop-color="#434242" stop-opacity="1"/>
			<stop offset="0.8" stop-color="#3f3e3e" stop-opacity="1"/>
			<stop offset="0.92" stop-color="#3b3a3a" stop-opacity="1"/>
			<stop offset="1" stop-color="#454444" stop-opacity="1"/>
		</linearGradient>
		<linearGradient id="grad0-50" x1="0" y1="0" x2="1" y2="0" gradientTransform="rotate(62.818888914523 0.5 0.5)">
			<stop offset="0" stop-color="#505050" stop-opacity="1"/>
			<stop offset="1" stop-color="#000000" stop-opacity="1"/>
		</linearGradient>
		<linearGradient id="grad0-67" x1="0" y1="0" x2="1" y2="0" gradientTransform="rotate(-180 0.5 0.5)">
			<stop offset="0" stop-color="#161616" stop-opacity="1"/>
			<stop offset="0.15" stop-color="#464646" stop-opacity="1"/>
			<stop offset="0.25" stop-color="#474747" stop-opacity="1"/>
			<stop offset="0.63" stop-color="#000000" stop-opacity="1"/>
		</linearGradient>
		<linearGradient id="grad0-99" x1="0" y1="0" x2="1" y2="0" gradientTransform="rotate(-180 0.5 0.5)">
			<stop offset="0" stop-color="#9b9b9c" stop-opacity="1"/>
			<stop offset="0.03" stop-color="#e4e4e4" stop-opacity="1"/>
			<stop offset="0.08" stop-color="#cbcbcb" stop-opacity="1"/>
			<stop offset="0.64" stop-color="#c7c7c8" stop-opacity="1"/>
			<stop offset="0.95" stop-color="#c3c3c4" stop-opacity="1"/>
			<stop offset="1" stop-color="#909091" stop-opacity="1"/>
		</linearGradient>
	</defs>
	<g v:mID="0" v:index="1" v:groupContext="foregroundPage">
		<title>页-1</title>
		<v:pageProperties v:drawingScale="0.0393701" v:pageScale="0.0393701" v:drawingUnits="24" v:shadowOffsetX="8.50394"
				v:shadowOffsetY="-8.50394"/>
		<g id="group2933-1" transform="translate(0.75,-0.75)" v:mID="2933" v:groupContext="group">
			<title>分段通量电容器</title>
			<g id="shape2934-2" v:mID="2934" v:groupContext="shape">
				<title>shape1</title>
				<path d="M0 1.8 L66.37 1.8 L66.37 90 L0 90 L0 1.8 Z" class="st1"/>
			</g>
			<g id="shape2935-6" v:mID="2935" v:groupContext="shape" transform="translate(6.1425,-53.6925)">
				<title>shape2</title>
				<path d="M0 70.35 L19.35 70.35 L19.35 90 L0 90 L0 70.35 Z" class="st2"/>
			</g>
			<g id="shape2936-10" v:mID="2936" v:groupContext="shape" transform="translate(6.615,-24.45)">
				<title>shape3</title>
				<path d="M0 70.35 L19.35 70.35 L19.35 90 L0 90 L0 70.35 Z" class="st2"/>
			</g>
			<g id="shape2937-13" v:mID="2937" v:groupContext="shape" transform="translate(38.9175,-29.8425)">
				<title>shape4</title>
				<path d="M0 86.32 C0 84.22 1.65 82.57 3.68 82.57 C5.7 82.57 7.35 84.22 7.35 86.32 C7.35 88.35 5.7 90 3.68 90 C1.65
							 90 0 88.35 0 86.32 Z" class="st3"/>
			</g>
			<g id="shape2938-17" v:mID="2938" v:groupContext="shape" transform="translate(11.025,-4.6125)">
				<title>shape5</title>
				<path d="M0 79.27 L8.63 79.27 L8.63 90 L0 90 L0 79.27 Z" class="st2"/>
			</g>
			<g id="shape2939-20" v:mID="2939" v:groupContext="shape" transform="translate(11.73,-65.9625)">
				<title>shape6</title>
				<path d="M0 86.7 L9.6 86.7 L9.6 90 L0 90 L0 86.7 Z" class="st4"/>
			</g>
			<g id="shape2940-22" v:mID="2940" v:groupContext="shape" transform="translate(9.8625,-57.0825)">
				<title>shape7</title>
				<path d="M0 87.22 L2.77 87.22 L2.77 90 L0 90 L0 87.22 Z" class="st5"/>
			</g>
			<g id="shape2941-24" v:mID="2941" v:groupContext="shape" transform="translate(13.4175,-57.0825)">
				<title>shape8</title>
				<path d="M0 87.22 L2.77 87.22 L2.77 90 L0 90 L0 87.22 Z" class="st6"/>
			</g>
			<g id="shape2942-26" v:mID="2942" v:groupContext="shape" transform="translate(16.9725,-57.0825)">
				<title>shape9</title>
				<path d="M0 87.22 L2.77 87.22 L2.77 90 L0 90 L0 87.22 Z" class="st6"/>
			</g>
			<g id="shape2943-28" v:mID="2943" v:groupContext="shape" transform="translate(20.5275,-57.0825)">
				<title>shape10</title>
				<path d="M0 87.22 L2.77 87.22 L2.77 90 L0 90 L0 87.22 Z" class="st6"/>
			</g>
			<g id="shape2944-30" v:mID="2944" v:groupContext="shape" transform="translate(11.73,-61.8525)">
				<title>shape11</title>
				<path d="M0 86.7 L9.6 86.7 L9.6 90 L0 90 L0 86.7 Z" class="st4"/>
			</g>
			<g id="shape2945-32" v:mID="2945" v:groupContext="shape" transform="translate(7.95,-53.5425)">
				<title>shape12</title>
				<path d="M0 70.2 L0.6 90 L0 70.2 Z" class="st7"/>
			</g>
			<g id="shape2946-34" v:mID="2946" v:groupContext="shape" transform="translate(11.79,-36.8025)">
				<title>shape13</title>
				<path d="M0 86.7 L9.6 86.7 L9.6 90 L0 90 L0 86.7 Z" class="st4"/>
			</g>
			<g id="shape2947-36" v:mID="2947" v:groupContext="shape" transform="translate(11.79,-32.6925)">
				<title>shape14</title>
				<path d="M0 86.7 L9.6 86.7 L9.6 90 L0 90 L0 86.7 Z" class="st4"/>
			</g>
			<g id="shape2948-38" v:mID="2948" v:groupContext="shape" transform="translate(8.01,-24.3825)">
				<title>shape15</title>
				<path d="M0 70.2 L0.6 90 L0 70.2 Z" class="st7"/>
			</g>
			<g id="shape2949-40" v:mID="2949" v:groupContext="shape" transform="translate(12.6825,-6.6825)">
				<title>shape16</title>
				<path d="M0 83.4 L5.32 83.4 L5.32 90 L0 90 L0 83.4 Z" class="st8"/>
			</g>
			<g id="shape2950-42" v:mID="2950" v:groupContext="shape" transform="translate(12.6825,-11.7075)">
				<title>shape17</title>
				<path d="M0 88.42 L5.32 88.42 L5.32 90 L0 90 L0 88.42 Z" class="st9"/>
			</g>
			<g id="group2951-44" transform="translate(29.3475,-76.92)" v:mID="2951" v:groupContext="group">
				<title>工作表.2951</title>
				<g id="shape2952-45" v:mID="2952" v:groupContext="shape">
					<title>shape18</title>
					<path d="M0 88.2 C0 87.22 0.75 86.47 1.73 86.47 C2.7 86.47 3.45 87.22 3.45 88.2 C3.45 89.17 2.7 90 1.73 90 C0.75
								 90 0 89.17 0 88.2 Z" class="st10"/>
				</g>
				<g id="shape2953-47" v:mID="2953" v:groupContext="shape" transform="translate(0.315,-0.3525)">
					<title>shape19</title>
					<path d="M0 88.57 C0 87.75 0.6 87.15 1.43 87.15 C2.18 87.15 2.78 87.75 2.78 88.57 C2.78 89.32 2.18 90 1.43 90
								 C0.6 90 0 89.32 0 88.57 Z" class="st11"/>
				</g>
			</g>
			<g id="group2954-51" transform="translate(29.3475,-42.15)" v:mID="2954" v:groupContext="group">
				<title>工作表.2954</title>
				<g id="shape2955-52" v:mID="2955" v:groupContext="shape">
					<title>shape20</title>
					<path d="M0 88.2 C0 87.22 0.75 86.47 1.73 86.47 C2.7 86.47 3.45 87.22 3.45 88.2 C3.45 89.17 2.7 90 1.73 90 C0.75
								 90 0 89.17 0 88.2 Z" class="st10"/>
				</g>
				<g id="shape2956-54" v:mID="2956" v:groupContext="shape" transform="translate(0.315,-0.3525)">
					<title>shape21</title>
					<path d="M0 88.57 C0 87.75 0.6 87.15 1.43 87.15 C2.18 87.15 2.78 87.75 2.78 88.57 C2.78 89.32 2.18 90 1.43 90
								 C0.6 90 0 89.32 0 88.57 Z" class="st11"/>
				</g>
			</g>
			<g id="group2957-57" transform="translate(29.3475,-7.2075)" v:mID="2957" v:groupContext="group">
				<title>工作表.2957</title>
				<g id="shape2958-58" v:mID="2958" v:groupContext="shape">
					<title>shape22</title>
					<path d="M0 88.2 C0 87.22 0.75 86.47 1.73 86.47 C2.7 86.47 3.45 87.22 3.45 88.2 C3.45 89.17 2.7 90 1.73 90 C0.75
								 90 0 89.17 0 88.2 Z" class="st10"/>
				</g>
				<g id="shape2959-60" v:mID="2959" v:groupContext="shape" transform="translate(0.315,-0.3525)">
					<title>shape23</title>
					<path d="M0 88.57 C0 87.75 0.6 87.15 1.43 87.15 C2.18 87.15 2.78 87.75 2.78 88.57 C2.78 89.32 2.18 90 1.43 90
								 C0.6 90 0 89.32 0 88.57 Z" class="st11"/>
				</g>
			</g>
			<g id="group2960-63" transform="translate(48.495,-31.5975)" v:mID="2960" v:groupContext="group">
				<title>工作表.2960</title>
				<g id="shape2961-64" v:mID="2961" v:groupContext="shape">
					<title>shape24</title>
					<path d="M3.15 86.17 C3.3 86.32 3.22 86.77 3.52 87.22 C3.75 87.67 4.2 87.82 4.2 88.05 C4.2 88.27 3.75 88.42 3.52
								 88.87 C3.3 89.25 3.37 89.77 3.15 89.92 C2.92 90 2.62 89.7 2.1 89.7 C1.57 89.7 1.27 90 1.05 89.92
								 C0.82 89.77 0.97 89.4 0.67 88.87 C0.37 88.42 0 88.35 0 88.05 C0 87.75 0.37 87.67 0.67 87.15 C0.97
								 86.7 0.9 86.25 1.05 86.17 C1.2 86.1 1.5 86.4 2.1 86.4 C2.7 86.4 3 86.1 3.15 86.17 Z" class="st12"/>
				</g>
				<g id="shape2962-68" v:mID="2962" v:groupContext="shape" transform="translate(0.12,-0.0525)">
					<title>shape25</title>
					<path d="M3 86.32 C3.15 86.47 3.07 86.85 3.3 87.3 C3.6 87.75 3.97 87.9 3.97 88.12 C3.97 88.35 3.6 88.5 3.37 88.87
								 C3.15 89.25 3.22 89.7 3 89.85 C2.77 90 2.47 89.7 1.95 89.7 C1.5 89.7 1.2 89.92 0.97 89.85 C0.82
								 89.7 0.9 89.32 0.6 88.87 C0.37 88.5 0 88.35 0 88.12 C0 87.82 0.37 87.75 0.6 87.3 C0.9 86.77 0.82
								 86.4 0.97 86.32 C1.12 86.25 1.42 86.47 2.02 86.47 C2.55 86.47 2.85 86.25 3 86.32 Z" class="st13"/>
				</g>
				<g id="shape2963-70" v:mID="2963" v:groupContext="shape" transform="translate(0.8175,-0.6375)">
					<title>shape26</title>
					<path d="M0 88.65 C0 87.97 0.6 87.37 1.27 87.37 C2.02 87.37 2.55 87.97 2.55 88.65 C2.55 89.4 2.02 90 1.27 90
								 C0.6 90 0 89.4 0 88.65 Z" class="st14"/>
				</g>
				<g id="shape2964-72" v:mID="2964" v:groupContext="shape" transform="translate(1.485,-0.8325)">
					<title>shape27</title>
					<path d="M0.68 88.95 C0.68 88.35 0 87.75 0.6 87.75 C1.28 87.75 1.73 88.27 1.73 88.87 C1.73 89.47 1.28 90 0.6
								 90 C0 90 0.68 89.62 0.68 88.95 Z" class="st15"/>
				</g>
			</g>
			<g id="group2965-74" transform="translate(54.6975,-31.5975)" v:mID="2965" v:groupContext="group">
				<title>工作表.2965</title>
				<g id="shape2966-75" v:mID="2966" v:groupContext="shape">
					<title>shape28</title>
					<path d="M3.15 86.17 C3.3 86.32 3.22 86.77 3.52 87.22 C3.75 87.67 4.2 87.82 4.2 88.05 C4.2 88.27 3.75 88.42 3.52
								 88.87 C3.3 89.25 3.37 89.77 3.15 89.92 C2.92 90 2.62 89.7 2.1 89.7 C1.57 89.7 1.27 90 1.05 89.92
								 C0.82 89.77 0.97 89.4 0.67 88.87 C0.37 88.42 0 88.35 0 88.05 C0 87.75 0.37 87.67 0.67 87.15 C0.97
								 86.7 0.9 86.25 1.05 86.17 C1.2 86.1 1.5 86.4 2.1 86.4 C2.7 86.4 3 86.1 3.15 86.17 Z" class="st12"/>
				</g>
				<g id="shape2967-78" v:mID="2967" v:groupContext="shape" transform="translate(0.12,-0.0525)">
					<title>shape29</title>
					<path d="M3 86.32 C3.15 86.47 3.07 86.85 3.3 87.3 C3.6 87.75 3.97 87.9 3.97 88.12 C3.97 88.35 3.6 88.5 3.37 88.87
								 C3.15 89.25 3.22 89.7 3 89.85 C2.77 90 2.47 89.7 1.95 89.7 C1.5 89.7 1.2 89.92 0.97 89.85 C0.82
								 89.7 0.9 89.32 0.6 88.87 C0.37 88.5 0 88.35 0 88.12 C0 87.82 0.37 87.75 0.6 87.3 C0.9 86.77 0.82
								 86.4 0.97 86.32 C1.12 86.25 1.42 86.47 2.02 86.47 C2.55 86.47 2.85 86.25 3 86.32 Z" class="st13"/>
				</g>
				<g id="shape2968-80" v:mID="2968" v:groupContext="shape" transform="translate(0.8175,-0.6375)">
					<title>shape30</title>
					<path d="M0 88.65 C0 87.97 0.6 87.37 1.27 87.37 C2.02 87.37 2.55 87.97 2.55 88.65 C2.55 89.4 2.02 90 1.27 90
								 C0.6 90 0 89.4 0 88.65 Z" class="st14"/>
				</g>
				<g id="shape2969-82" v:mID="2969" v:groupContext="shape" transform="translate(1.485,-0.8325)">
					<title>shape31</title>
					<path d="M0.68 88.95 C0.68 88.35 0 87.75 0.6 87.75 C1.28 87.75 1.73 88.27 1.73 88.87 C1.73 89.47 1.28 90 0.6
								 90 C0 90 0.68 89.62 0.68 88.95 Z" class="st15"/>
				</g>
			</g>
			<g id="group2970-84" transform="translate(48.885,-17.3925)" v:mID="2970" v:groupContext="group">
				<title>工作表.2970</title>
				<g id="shape2971-85" v:mID="2971" v:groupContext="shape">
					<title>shape32</title>
					<path d="M0 88.2 C0 87.22 0.75 86.47 1.72 86.47 C2.7 86.47 3.45 87.22 3.45 88.2 C3.45 89.17 2.7 90 1.72 90 C0.75
								 90 0 89.17 0 88.2 Z" class="st10"/>
				</g>
				<g id="shape2972-87" v:mID="2972" v:groupContext="shape" transform="translate(0.315,-0.3525)">
					<title>shape33</title>
					<path d="M0 88.57 C0 87.75 0.6 87.15 1.42 87.15 C2.17 87.15 2.77 87.75 2.77 88.57 C2.77 89.32 2.17 90 1.42 90
								 C0.6 90 0 89.32 0 88.57 Z" class="st11"/>
				</g>
			</g>
			<g id="group2973-90" transform="translate(55.0875,-17.3925)" v:mID="2973" v:groupContext="group">
				<title>工作表.2973</title>
				<g id="shape2974-91" v:mID="2974" v:groupContext="shape">
					<title>shape34</title>
					<path d="M0 88.2 C0 87.22 0.75 86.47 1.72 86.47 C2.7 86.47 3.45 87.22 3.45 88.2 C3.45 89.17 2.7 90 1.72 90 C0.75
								 90 0 89.17 0 88.2 Z" class="st10"/>
				</g>
				<g id="shape2975-93" v:mID="2975" v:groupContext="shape" transform="translate(0.315,-0.3525)">
					<title>shape35</title>
					<path d="M0 88.57 C0 87.75 0.6 87.15 1.42 87.15 C2.17 87.15 2.77 87.75 2.77 88.57 C2.77 89.32 2.17 90 1.42 90
								 C0.6 90 0 89.32 0 88.57 Z" class="st11"/>
				</g>
			</g>
			<g id="shape2976-96" v:mID="2976" v:groupContext="shape" transform="translate(-2.15827E-13,-0.0075)">
				<title>shape36</title>
				<path d="M0 87.37 L66.37 87.37 L66.37 90 L0 90 L0 87.37 Z" class="st16"/>
			</g>
			<g id="shape2977-100" v:mID="2977" v:groupContext="shape" transform="translate(-2.15827E-13,-85.875)">
				<title>shape37</title>
				<path d="M0 87.37 L66.37 87.37 L66.37 90 L0 90 L0 87.37 Z" class="st16"/>
			</g>
			<g id="shape2978-103" v:mID="2978" v:groupContext="shape" transform="translate(9.885,-27.9225)">
				<title>shape38</title>
				<path d="M0 87.22 L2.77 87.22 L2.77 90 L0 90 L0 87.22 Z" class="st5"/>
			</g>
			<g id="shape2979-105" v:mID="2979" v:groupContext="shape" transform="translate(13.44,-27.9225)">
				<title>shape39</title>
				<path d="M0 87.22 L2.77 87.22 L2.77 90 L0 90 L0 87.22 Z" class="st6"/>
			</g>
			<g id="shape2980-107" v:mID="2980" v:groupContext="shape" transform="translate(16.995,-27.9225)">
				<title>shape40</title>
				<path d="M0 87.22 L2.77 87.22 L2.77 90 L0 90 L0 87.22 Z" class="st6"/>
			</g>
			<g id="shape2981-109" v:mID="2981" v:groupContext="shape" transform="translate(20.55,-27.9225)">
				<title>shape41</title>
				<path d="M0 87.22 L2.77 87.22 L2.77 90 L0 90 L0 87.22 Z" class="st6"/>
			</g>
		</g>
	</g>
</svg>
