<?xml version="1.0" encoding="UTF-8" standalone="no"?>
<!DOCTYPE svg PUBLIC "-//W3C//DTD SVG 1.1//EN" "http://www.w3.org/Graphics/SVG/1.1/DTD/svg11.dtd">
<!-- 由 Microsoft Visio, SVG Export 生成 化学46.svg 页-1 -->
<svg xmlns="http://www.w3.org/2000/svg" xmlns:xlink="http://www.w3.org/1999/xlink" xmlns:ev="http://www.w3.org/2001/xml-events"
		xmlns:v="http://schemas.microsoft.com/visio/2003/SVGExtensions/" width="0.9375in" height="1.74948in"
		viewBox="0 0 67.5 125.963" xml:space="preserve" color-interpolation-filters="sRGB" class="st5">
	<v:documentProperties v:langID="2052" v:metric="true" v:viewMarkup="false"/>

	<style type="text/css">
	<![CDATA[
		.st1 {fill:url(#grad0-5);stroke:none;stroke-linecap:butt;stroke-width:0.75}
		.st2 {fill:url(#grad0-12);stroke:none;stroke-linecap:butt;stroke-width:0.75}
		.st3 {fill:url(#grad0-22);stroke:none;stroke-linecap:butt;stroke-width:0.75}
		.st4 {fill:url(#grad0-29);stroke:none;stroke-linecap:butt;stroke-width:0.75}
		.st5 {fill:none;fill-rule:evenodd;font-size:12px;overflow:visible;stroke-linecap:square;stroke-miterlimit:3}
	]]>
	</style>

	<defs id="Patterns_And_Gradients">
		<linearGradient id="grad0-5" x1="0" y1="0" x2="1" y2="0" gradientTransform="rotate(-180 0.5 0.5)">
			<stop offset="0" stop-color="#9db098" stop-opacity="1"/>
			<stop offset="0.15" stop-color="#d0e8cb" stop-opacity="1"/>
			<stop offset="0.25" stop-color="#e5f2e2" stop-opacity="1"/>
			<stop offset="0.44" stop-color="#b3c9ae" stop-opacity="1"/>
			<stop offset="0.6" stop-color="#9fb39b" stop-opacity="1"/>
			<stop offset="0.8" stop-color="#869782" stop-opacity="1"/>
			<stop offset="0.97" stop-color="#7a8a76" stop-opacity="1"/>
		</linearGradient>
		<linearGradient id="grad0-12" x1="0" y1="0" x2="1" y2="0" gradientTransform="rotate(-164.49684916879 0.5 0.5)">
			<stop offset="0" stop-color="#9db098" stop-opacity="1"/>
			<stop offset="0.29" stop-color="#d0e8cb" stop-opacity="1"/>
			<stop offset="0.31" stop-color="#daedd7" stop-opacity="1"/>
			<stop offset="0.44" stop-color="#b3c9ae" stop-opacity="1"/>
			<stop offset="0.6" stop-color="#9fb39b" stop-opacity="1"/>
			<stop offset="0.8" stop-color="#869782" stop-opacity="1"/>
			<stop offset="0.97" stop-color="#7a8a76" stop-opacity="1"/>
		</linearGradient>
		<linearGradient id="grad0-22" x1="0" y1="0" x2="1" y2="0" gradientTransform="rotate(112.44581641844 0.5 0.5)">
			<stop offset="0" stop-color="#9db098" stop-opacity="1"/>
			<stop offset="0.22" stop-color="#d0e8cb" stop-opacity="1"/>
			<stop offset="0.31" stop-color="#e5f2e2" stop-opacity="1"/>
			<stop offset="0.44" stop-color="#b3c9ae" stop-opacity="1"/>
			<stop offset="0.6" stop-color="#9fb39b" stop-opacity="1"/>
			<stop offset="0.8" stop-color="#869782" stop-opacity="1"/>
			<stop offset="0.97" stop-color="#7a8a76" stop-opacity="1"/>
		</linearGradient>
		<linearGradient id="grad0-29" x1="0" y1="0" x2="1" y2="0" gradientTransform="rotate(-180 0.5 0.5)">
			<stop offset="0" stop-color="#85a57f" stop-opacity="1"/>
			<stop offset="0.15" stop-color="#b5dbae" stop-opacity="1"/>
			<stop offset="0.25" stop-color="#d8ebd5" stop-opacity="1"/>
			<stop offset="0.44" stop-color="#99bd92" stop-opacity="1"/>
			<stop offset="0.6" stop-color="#88a881" stop-opacity="1"/>
			<stop offset="0.8" stop-color="#728d6c" stop-opacity="1"/>
			<stop offset="0.97" stop-color="#688163" stop-opacity="1"/>
		</linearGradient>
	</defs>
	<g v:mID="0" v:index="1" v:groupContext="foregroundPage">
		<title>页-1</title>
		<v:pageProperties v:drawingScale="0.0393701" v:pageScale="0.0393701" v:drawingUnits="24" v:shadowOffsetX="8.50394"
				v:shadowOffsetY="-8.50394"/>
		<g id="group3351-1" transform="translate(0.75,-0.75)" v:mID="3351" v:groupContext="group">
			<title>粗粉分离器</title>
			<g id="shape3352-2" v:mID="3352" v:groupContext="shape" transform="translate(15.2325,-102.833)">
				<title>shape1</title>
				<path d="M0 115.09 L35.55 115.09 L35.55 125.96 L0 125.96 L0 115.09 Z" class="st1"/>
			</g>
			<g id="shape3353-6" v:mID="3353" v:groupContext="shape" transform="translate(1.51879E-13,-43.56)">
				<title>shape2</title>
				<path d="M0 76.54 L66 76.54 L66 125.96 L0 125.96 L0 76.54 Z" class="st1"/>
			</g>
			<g id="shape3354-9" v:mID="3354" v:groupContext="shape" transform="translate(1.51879E-13,-3.0525)">
				<title>shape3</title>
				<path d="M0 85.46 L66 85.46 L56.63 125.96 L9.38 125.96 L0 85.46 Z" class="st2"/>
			</g>
			<g id="shape3355-13" v:mID="3355" v:groupContext="shape" transform="translate(9.345,5.68434E-14)">
				<title>shape4</title>
				<path d="M0 122.89 L47.32 122.89 L47.32 125.96 L0 125.96 L0 122.89 Z" class="st1"/>
			</g>
			<g id="shape3356-16" v:mID="3356" v:groupContext="shape" transform="translate(15.2175,-113.865)">
				<title>shape5</title>
				<path d="M7.2 121.54 C12.75 121.54 22.35 121.46 28.35 121.54 C34.42 121.69 35.55 125.96 35.55 125.96 L0 125.96 C0
							 125.96 1.57 121.54 7.2 121.54 Z" class="st1"/>
			</g>
			<g id="shape3357-19" v:mID="3357" v:groupContext="shape" transform="translate(1.51879E-13,-92.895)">
				<title>shape6</title>
				<path d="M15.23 115.99 C28.13 115.99 37.95 115.99 50.78 115.99 C63.6 115.99 66 125.96 66 125.96 L0 125.96 C0 125.96
							 2.4 115.99 15.23 115.99 Z" class="st3"/>
			</g>
			<g id="shape3358-23" v:mID="3358" v:groupContext="shape" transform="translate(22.395,-118.312)">
				<title>shape7</title>
				<path d="M0 119.81 L21.23 119.81 L21.23 125.96 L0 125.96 L0 119.81 Z" class="st1"/>
			</g>
			<g id="shape3359-26" v:mID="3359" v:groupContext="shape" transform="translate(15.2325,-112.642)">
				<title>shape8</title>
				<path d="M0 124.46 L35.55 124.46 L35.55 125.96 L0 125.96 L0 124.46 Z" class="st4"/>
			</g>
			<g id="shape3360-30" v:mID="3360" v:groupContext="shape" transform="translate(15.2325,-102.885)">
				<title>shape9</title>
				<path d="M0 124.46 L35.55 124.46 L35.55 125.96 L0 125.96 L0 124.46 Z" class="st4"/>
			</g>
			<g id="shape3361-33" v:mID="3361" v:groupContext="shape" transform="translate(22.395,-118.035)">
				<title>shape10</title>
				<path d="M0 124.54 L21.23 124.54 L21.23 125.96 L0 125.96 L0 124.54 Z" class="st4"/>
			</g>
			<g id="shape3362-36" v:mID="3362" v:groupContext="shape" transform="translate(1.51879E-13,-43.5525)">
				<title>shape11</title>
				<path d="M0 124.54 L66 124.54 L66 125.96 L0 125.96 L0 124.54 Z" class="st4"/>
			</g>
			<g id="shape3363-39" v:mID="3363" v:groupContext="shape" transform="translate(1.51879E-13,-91.56)">
				<title>shape12</title>
				<path d="M0 124.54 L66 124.54 L66 125.96 L0 125.96 L0 124.54 Z" class="st4"/>
			</g>
		</g>
	</g>
</svg>
