<?xml version="1.0" encoding="UTF-8" standalone="no"?>
<!DOCTYPE svg PUBLIC "-//W3C//DTD SVG 1.1//EN" "http://www.w3.org/Graphics/SVG/1.1/DTD/svg11.dtd">
<!-- 由 Microsoft Visio, SVG Export 生成 化学79.svg 页-1 -->
<svg xmlns="http://www.w3.org/2000/svg" xmlns:xlink="http://www.w3.org/1999/xlink" xmlns:ev="http://www.w3.org/2001/xml-events"
		xmlns:v="http://schemas.microsoft.com/visio/2003/SVGExtensions/" width="0.483333in" height="1.45333in"
		viewBox="0 0 34.8 104.64" xml:space="preserve" color-interpolation-filters="sRGB" class="st12">
	<v:documentProperties v:langID="2052" v:metric="true" v:viewMarkup="false"/>

	<style type="text/css">
	<![CDATA[
		.st1 {fill:url(#grad0-5);stroke:none;stroke-linecap:butt;stroke-width:0.75}
		.st2 {fill:url(#grad0-9);stroke:none;stroke-linecap:butt;stroke-width:0.75}
		.st3 {fill:url(#grad0-13);stroke:none;stroke-linecap:butt;stroke-width:0.75}
		.st4 {fill:url(#grad0-17);stroke:none;stroke-linecap:butt;stroke-width:0.75}
		.st5 {fill:#f4dbb8;stroke:none;stroke-linecap:butt;stroke-width:0.75}
		.st6 {fill:#fce5ca;stroke:none;stroke-linecap:butt;stroke-width:0.75}
		.st7 {fill:url(#grad0-31);stroke:none;stroke-linecap:butt;stroke-width:0.75}
		.st8 {fill:url(#grad0-39);stroke:none;stroke-linecap:butt;stroke-width:0.75}
		.st9 {fill:url(#grad0-70);stroke:none;stroke-linecap:butt;stroke-width:0.75}
		.st10 {fill:url(#grad0-75);stroke:#9e9f9f;stroke-linecap:butt;stroke-width:0.1875}
		.st11 {fill:url(#grad0-109);stroke:none;stroke-linecap:butt;stroke-width:0.75}
		.st12 {fill:none;fill-rule:evenodd;font-size:12px;overflow:visible;stroke-linecap:square;stroke-miterlimit:3}
	]]>
	</style>

	<defs id="Patterns_And_Gradients">
		<linearGradient id="grad0-5" x1="0" y1="0" x2="1" y2="0" gradientTransform="rotate(-180 0.5 0.5)">
			<stop offset="0" stop-color="#bc9a6b" stop-opacity="1"/>
			<stop offset="0.15" stop-color="#f4d6b0" stop-opacity="1"/>
			<stop offset="0.25" stop-color="#f5d9b7" stop-opacity="1"/>
			<stop offset="0.52" stop-color="#d3ad79" stop-opacity="1"/>
			<stop offset="0.69" stop-color="#bc9a6b" stop-opacity="1"/>
			<stop offset="0.8" stop-color="#b19165" stop-opacity="1"/>
			<stop offset="0.92" stop-color="#a7895f" stop-opacity="1"/>
		</linearGradient>
		<linearGradient id="grad0-9" x1="0" y1="0" x2="1" y2="0" gradientTransform="rotate(-180 0.5 0.5)">
			<stop offset="0" stop-color="#c7ad86" stop-opacity="1"/>
			<stop offset="0.15" stop-color="#ffe6c5" stop-opacity="1"/>
			<stop offset="0.25" stop-color="#ffe8c9" stop-opacity="1"/>
			<stop offset="0.52" stop-color="#dfc297" stop-opacity="1"/>
			<stop offset="0.69" stop-color="#c7ad86" stop-opacity="1"/>
			<stop offset="0.8" stop-color="#bca37e" stop-opacity="1"/>
			<stop offset="0.92" stop-color="#b19a77" stop-opacity="1"/>
		</linearGradient>
		<linearGradient id="grad0-13" x1="0" y1="0" x2="1" y2="0" gradientTransform="rotate(-180 0.5 0.5)">
			<stop offset="0" stop-color="#b5a080" stop-opacity="1"/>
			<stop offset="0.52" stop-color="#ccb491" stop-opacity="1"/>
			<stop offset="0.69" stop-color="#b5a080" stop-opacity="1"/>
			<stop offset="0.8" stop-color="#ab9779" stop-opacity="1"/>
			<stop offset="0.92" stop-color="#a18e72" stop-opacity="1"/>
		</linearGradient>
		<linearGradient id="grad0-17" x1="0" y1="0" x2="1" y2="0" gradientTransform="rotate(-180 0.5 0.5)">
			<stop offset="0" stop-color="#9b805c" stop-opacity="1"/>
			<stop offset="0.52" stop-color="#ae9068" stop-opacity="1"/>
			<stop offset="0.69" stop-color="#9b805c" stop-opacity="1"/>
			<stop offset="0.8" stop-color="#927856" stop-opacity="1"/>
			<stop offset="0.92" stop-color="#897151" stop-opacity="1"/>
		</linearGradient>
		<linearGradient id="grad0-31" x1="0" y1="0" x2="1" y2="0" gradientTransform="rotate(-180 0.5 0.5)">
			<stop offset="0" stop-color="#bea277" stop-opacity="1"/>
			<stop offset="0.15" stop-color="#f7ddb9" stop-opacity="1"/>
			<stop offset="0.25" stop-color="#f7dfbf" stop-opacity="1"/>
			<stop offset="0.52" stop-color="#d6b686" stop-opacity="1"/>
			<stop offset="0.69" stop-color="#bea277" stop-opacity="1"/>
			<stop offset="0.8" stop-color="#b39870" stop-opacity="1"/>
			<stop offset="0.92" stop-color="#a99069" stop-opacity="1"/>
		</linearGradient>
		<linearGradient id="grad0-39" x1="0" y1="0" x2="1" y2="0" gradientTransform="rotate(-180 0.5 0.5)">
			<stop offset="0" stop-color="#b9b9b9" stop-opacity="1"/>
			<stop offset="0.15" stop-color="#f2f2f2" stop-opacity="1"/>
			<stop offset="0.25" stop-color="#f3f3f3" stop-opacity="1"/>
			<stop offset="0.52" stop-color="#d0d0d0" stop-opacity="1"/>
			<stop offset="0.69" stop-color="#b9b9b9" stop-opacity="1"/>
			<stop offset="0.8" stop-color="#afafaf" stop-opacity="1"/>
			<stop offset="0.92" stop-color="#a5a5a5" stop-opacity="1"/>
		</linearGradient>
		<linearGradient id="grad0-70" x1="0" y1="0" x2="1" y2="0" gradientTransform="rotate(90 0.5 0.5)">
			<stop offset="0" stop-color="#b9b9b9" stop-opacity="1"/>
			<stop offset="0.15" stop-color="#f2f2f2" stop-opacity="1"/>
			<stop offset="0.25" stop-color="#f3f3f3" stop-opacity="1"/>
			<stop offset="0.52" stop-color="#d0d0d0" stop-opacity="1"/>
			<stop offset="0.69" stop-color="#b9b9b9" stop-opacity="1"/>
			<stop offset="0.8" stop-color="#afafaf" stop-opacity="1"/>
			<stop offset="0.92" stop-color="#a5a5a5" stop-opacity="1"/>
		</linearGradient>
		<linearGradient id="grad0-75" x1="0" y1="0" x2="1" y2="0" gradientTransform="rotate(-180 0.5 0.5)">
			<stop offset="0" stop-color="#7a7b7b" stop-opacity="1"/>
			<stop offset="0.15" stop-color="#bbbcbc" stop-opacity="1"/>
			<stop offset="0.25" stop-color="#c1c1c1" stop-opacity="1"/>
			<stop offset="0.52" stop-color="#8a8b8b" stop-opacity="1"/>
			<stop offset="0.69" stop-color="#7a7b7b" stop-opacity="1"/>
			<stop offset="0.8" stop-color="#737474" stop-opacity="1"/>
			<stop offset="0.92" stop-color="#6c6d6d" stop-opacity="1"/>
		</linearGradient>
		<linearGradient id="grad0-109" x1="0" y1="0" x2="1" y2="0" gradientTransform="rotate(-180 0.5 0.5)">
			<stop offset="0" stop-color="#b69f75" stop-opacity="1"/>
			<stop offset="0.15" stop-color="#efdab8" stop-opacity="1"/>
			<stop offset="0.25" stop-color="#f0ddbe" stop-opacity="1"/>
			<stop offset="0.52" stop-color="#cdb384" stop-opacity="1"/>
			<stop offset="0.69" stop-color="#b69f75" stop-opacity="1"/>
			<stop offset="0.8" stop-color="#ac966e" stop-opacity="1"/>
			<stop offset="0.92" stop-color="#a28e68" stop-opacity="1"/>
		</linearGradient>
	</defs>
	<g v:mID="0" v:index="1" v:groupContext="foregroundPage">
		<title>页-1</title>
		<v:pageProperties v:drawingScale="0.0393701" v:pageScale="0.0393701" v:drawingUnits="24" v:shadowOffsetX="8.50394"
				v:shadowOffsetY="-8.50394"/>
		<g id="group3923-1" transform="translate(0.75,-0.75)" v:mID="3923" v:groupContext="group">
			<title>气焊枪</title>
			<g id="shape3924-2" v:mID="3924" v:groupContext="shape" transform="translate(5.8725,-98.0925)">
				<title>shape1</title>
				<path d="M0 101.12 L21.6 101.12 L21.6 104.64 L0 104.64 L0 101.12 Z" class="st1"/>
			</g>
			<g id="shape3925-6" v:mID="3925" v:groupContext="shape" transform="translate(4.5525,-3.55271E-13)">
				<title>shape2</title>
				<path d="M24.23 5.87 L24.23 104.64 L0 104.64 L0 5.87 L24.23 5.87 Z" class="st2"/>
			</g>
			<g id="shape3926-10" v:mID="3926" v:groupContext="shape" transform="translate(2.415,-98.7825)">
				<title>shape3</title>
				<path d="M0 101.79 C0 101.79 2.4 102.02 3.45 102.39 L3.45 104.64 L4.72 104.64 L4.72 101.79 L0 101.79 Z" class="st3"/>
			</g>
			<g id="shape3927-14" v:mID="3927" v:groupContext="shape" transform="translate(31.4775,-98.805) scale(-1,1)">
				<title>shape4</title>
				<path d="M0 101.79 C0 101.79 2.4 102.02 3.45 102.39 L3.45 104.64 L4.72 104.64 L4.72 101.79 L0 101.79 Z" class="st4"/>
			</g>
			<g id="shape3928-18" v:mID="3928" v:groupContext="shape" transform="translate(12.0975,-98.7975)">
				<title>shape5</title>
				<path d="M0 101.79 C0 101.79 0.22 101.94 0.67 102.39 L0.67 104.64 L1.57 104.64 L1.57 101.79 L0 101.79 Z"
						class="st5"/>
			</g>
			<g id="shape3929-20" v:mID="3929" v:groupContext="shape" transform="translate(11.2875,-98.7975)">
				<title>shape6</title>
				<path d="M0.82 101.79 C0.82 101.79 1.35 101.87 1.5 102.39 L1.5 104.64 L0.9 102.39 C0.9 102.39 0.97 102.02 0 101.79
							 L0.82 101.79 Z" class="st4"/>
			</g>
			<g id="shape3930-23" v:mID="3930" v:groupContext="shape" transform="translate(22.8525,-98.805) scale(-1,1)">
				<title>shape7</title>
				<path d="M0 101.79 C0 101.79 0.22 101.94 0.67 102.39 L0.67 104.64 L1.57 104.64 L1.57 101.79 L0 101.79 Z"
						class="st4"/>
			</g>
			<g id="shape3931-26" v:mID="3931" v:groupContext="shape" transform="translate(23.6775,-98.805) scale(-1,1)">
				<title>shape8</title>
				<path d="M0.82 101.79 C0.82 101.79 1.35 101.87 1.5 102.39 L1.5 104.64 L0.9 102.39 C0.9 102.39 0.97 102.02 0 101.79
							 L0.82 101.79 Z" class="st6"/>
			</g>
			<g id="shape3932-28" v:mID="3932" v:groupContext="shape" transform="translate(2.8275,-0.0225)">
				<title>shape9</title>
				<path d="M1.13 102.39 L26.55 102.39 C27.15 102.39 27.67 102.92 27.67 103.52 C27.67 104.12 27.15 104.64 26.55 104.64
							 L1.12 104.64 C0.52 104.64 0 104.12 0 103.52 C0 102.92 0.52 102.39 1.13 102.39 Z" class="st7"/>
			</g>
			<g id="shape3933-32" v:mID="3933" v:groupContext="shape" transform="translate(0,-101.64)">
				<title>shape10</title>
				<path d="M0.75 103.14 L32.55 103.14 C33 103.14 33.3 103.44 33.3 103.89 C33.3 104.34 33 104.64 32.55 104.64 L0.75
							 104.64 C0.3 104.64 0 104.34 0 103.89 C0 103.44 0.3 103.14 0.75 103.14 Z" class="st2"/>
			</g>
			<g id="group3934-35" transform="translate(1.0425,-75.9225)" v:mID="3934" v:groupContext="group">
				<title>工作表.3934</title>
				<g id="shape3935-36" v:mID="3935" v:groupContext="shape">
					<title>shape11</title>
					<path d="M0.38 93.09 C0.75 93.09 0.9 93.39 0.9 93.77 L0.9 104.64 L0 104.64 L0 93.77 C0 93.39 0.15 93.09 0.38
								 93.09 Z" class="st8"/>
				</g>
				<g id="shape3936-40" v:mID="3936" v:groupContext="shape" transform="translate(3.375,7.10543E-14)">
					<title>shape12</title>
					<path d="M0.38 93.09 C0.75 93.09 0.9 93.39 0.9 93.77 L0.9 104.64 L0 104.64 L0 93.77 C0 93.39 0.15 93.09 0.38
								 93.09 Z" class="st8"/>
				</g>
				<g id="shape3937-43" v:mID="3937" v:groupContext="shape" transform="translate(6.7425,7.10543E-14)">
					<title>shape13</title>
					<path d="M0.38 93.09 C0.75 93.09 0.9 93.39 0.9 93.77 L0.9 104.64 L0 104.64 L0 93.77 C0 93.39 0.15 93.09 0.38
								 93.09 Z" class="st8"/>
				</g>
				<g id="shape3938-46" v:mID="3938" v:groupContext="shape" transform="translate(10.11,7.10543E-14)">
					<title>shape14</title>
					<path d="M0.38 93.09 C0.75 93.09 0.9 93.39 0.9 93.77 L0.9 104.64 L0 104.64 L0 93.77 C0 93.39 0.15 93.09 0.38
								 93.09 Z" class="st8"/>
				</g>
				<g id="shape3939-49" v:mID="3939" v:groupContext="shape" transform="translate(13.4775,7.10543E-14)">
					<title>shape15</title>
					<path d="M0.38 93.09 C0.75 93.09 0.9 93.39 0.9 93.77 L0.9 104.64 L0 104.64 L0 93.77 C0 93.39 0.15 93.09 0.38
								 93.09 Z" class="st8"/>
				</g>
				<g id="shape3940-52" v:mID="3940" v:groupContext="shape" transform="translate(16.8525,7.10543E-14)">
					<title>shape16</title>
					<path d="M0.38 93.09 C0.75 93.09 0.9 93.39 0.9 93.77 L0.9 104.64 L0 104.64 L0 93.77 C0 93.39 0.15 93.09 0.38
								 93.09 Z" class="st8"/>
				</g>
				<g id="shape3941-55" v:mID="3941" v:groupContext="shape" transform="translate(20.22,7.10543E-14)">
					<title>shape17</title>
					<path d="M0.38 93.09 C0.75 93.09 0.9 93.39 0.9 93.77 L0.9 104.64 L0 104.64 L0 93.77 C0 93.39 0.15 93.09 0.38
								 93.09 Z" class="st8"/>
				</g>
				<g id="shape3942-58" v:mID="3942" v:groupContext="shape" transform="translate(23.5875,7.10543E-14)">
					<title>shape18</title>
					<path d="M0.38 93.09 C0.75 93.09 0.9 93.39 0.9 93.77 L0.9 104.64 L0 104.64 L0 93.77 C0 93.39 0.15 93.09 0.38
								 93.09 Z" class="st8"/>
				</g>
				<g id="shape3943-61" v:mID="3943" v:groupContext="shape" transform="translate(26.955,7.10543E-14)">
					<title>shape19</title>
					<path d="M0.38 93.09 C0.75 93.09 0.9 93.39 0.9 93.77 L0.9 104.64 L0 104.64 L0 93.77 C0 93.39 0.15 93.09 0.38
								 93.09 Z" class="st8"/>
				</g>
				<g id="shape3944-64" v:mID="3944" v:groupContext="shape" transform="translate(30.3225,7.10543E-14)">
					<title>shape20</title>
					<path d="M0.38 93.09 C0.75 93.09 0.9 93.39 0.9 93.77 L0.9 104.64 L0 104.64 L0 93.77 C0 93.39 0.15 93.09 0.38
								 93.09 Z" class="st8"/>
				</g>
			</g>
			<g id="shape3945-67" v:mID="3945" v:groupContext="shape" transform="translate(0.765,-84.54)">
				<title>shape21</title>
				<path d="M0 103.67 L31.8 103.67 L31.8 104.64 L0 104.64 L0 103.67 Z" class="st9"/>
			</g>
			<g id="group3946-71" transform="translate(1.1625,-84.6)" v:mID="3946" v:groupContext="group">
				<title>工作表.3946</title>
				<g id="shape3947-72" v:mID="3947" v:groupContext="shape" transform="translate(3.375,0)">
					<title>shape22</title>
					<path d="M0 104.27 C0 104.04 0.15 103.82 0.45 103.82 C0.67 103.82 0.82 104.04 0.82 104.27 C0.82 104.49 0.67 104.64
								 0.45 104.64 C0.15 104.64 0 104.49 0 104.27 Z" class="st10"/>
				</g>
				<g id="shape3948-76" v:mID="3948" v:groupContext="shape">
					<title>shape23</title>
					<path d="M0 104.27 C0 104.04 0.15 103.82 0.45 103.82 C0.67 103.82 0.82 104.04 0.82 104.27 C0.82 104.49 0.67 104.64
								 0.45 104.64 C0.15 104.64 0 104.49 0 104.27 Z" class="st10"/>
				</g>
				<g id="shape3949-79" v:mID="3949" v:groupContext="shape" transform="translate(6.75,0)">
					<title>shape24</title>
					<path d="M0 104.27 C0 104.04 0.15 103.82 0.45 103.82 C0.67 103.82 0.82 104.04 0.82 104.27 C0.82 104.49 0.67 104.64
								 0.45 104.64 C0.15 104.64 0 104.49 0 104.27 Z" class="st10"/>
				</g>
				<g id="shape3950-82" v:mID="3950" v:groupContext="shape" transform="translate(10.1325,0)">
					<title>shape25</title>
					<path d="M0 104.27 C0 104.04 0.15 103.82 0.45 103.82 C0.67 103.82 0.82 104.04 0.82 104.27 C0.82 104.49 0.67 104.64
								 0.45 104.64 C0.15 104.64 0 104.49 0 104.27 Z" class="st10"/>
				</g>
				<g id="shape3951-85" v:mID="3951" v:groupContext="shape" transform="translate(13.5075,0)">
					<title>shape26</title>
					<path d="M0 104.27 C0 104.04 0.15 103.82 0.45 103.82 C0.67 103.82 0.82 104.04 0.82 104.27 C0.82 104.49 0.67 104.64
								 0.45 104.64 C0.15 104.64 0 104.49 0 104.27 Z" class="st10"/>
				</g>
				<g id="shape3952-88" v:mID="3952" v:groupContext="shape" transform="translate(20.265,0)">
					<title>shape27</title>
					<path d="M0 104.27 C0 104.04 0.15 103.82 0.45 103.82 C0.67 103.82 0.82 104.04 0.82 104.27 C0.82 104.49 0.67 104.64
								 0.45 104.64 C0.15 104.64 0 104.49 0 104.27 Z" class="st10"/>
				</g>
				<g id="shape3953-91" v:mID="3953" v:groupContext="shape" transform="translate(16.8825,0)">
					<title>shape28</title>
					<path d="M0 104.27 C0 104.04 0.15 103.82 0.45 103.82 C0.67 103.82 0.82 104.04 0.82 104.27 C0.82 104.49 0.67 104.64
								 0.45 104.64 C0.15 104.64 0 104.49 0 104.27 Z" class="st10"/>
				</g>
				<g id="shape3954-94" v:mID="3954" v:groupContext="shape" transform="translate(23.64,0)">
					<title>shape29</title>
					<path d="M0 104.27 C0 104.04 0.15 103.82 0.45 103.82 C0.67 103.82 0.82 104.04 0.82 104.27 C0.82 104.49 0.67 104.64
								 0.45 104.64 C0.15 104.64 0 104.49 0 104.27 Z" class="st10"/>
				</g>
				<g id="shape3955-97" v:mID="3955" v:groupContext="shape" transform="translate(27.015,0)">
					<title>shape30</title>
					<path d="M0 104.27 C0 104.04 0.15 103.82 0.45 103.82 C0.67 103.82 0.82 104.04 0.82 104.27 C0.82 104.49 0.67 104.64
								 0.45 104.64 C0.15 104.64 0 104.49 0 104.27 Z" class="st10"/>
				</g>
				<g id="shape3956-100" v:mID="3956" v:groupContext="shape" transform="translate(30.165,0)">
					<title>shape31</title>
					<path d="M0 104.27 C0 104.04 0.15 103.82 0.45 103.82 C0.67 103.82 0.82 104.04 0.82 104.27 C0.82 104.49 0.67 104.64
								 0.45 104.64 C0.15 104.64 0 104.49 0 104.27 Z" class="st10"/>
				</g>
			</g>
			<g id="shape3957-103" v:mID="3957" v:groupContext="shape" transform="translate(0,-74.9925)">
				<title>shape32</title>
				<path d="M0.75 103.14 L32.55 103.14 C33 103.14 33.3 103.44 33.3 103.89 C33.3 104.34 33 104.64 32.55 104.64 L0.75
							 104.64 C0.3 104.64 0 104.34 0 103.89 C0 103.44 0.3 103.14 0.75 103.14 Z" class="st2"/>
			</g>
			<g id="shape3958-106" v:mID="3958" v:groupContext="shape" transform="translate(4.5525,-74.25)">
				<title>shape33</title>
				<path d="M24.23 103.97 L0 104.64 L24.23 103.97 Z" class="st11"/>
			</g>
		</g>
	</g>
</svg>
