<?xml version="1.0" encoding="UTF-8" standalone="no"?>
<!DOCTYPE svg PUBLIC "-//W3C//DTD SVG 1.1//EN" "http://www.w3.org/Graphics/SVG/1.1/DTD/svg11.dtd">
<!-- 由 Microsoft Visio, SVG Export 生成 化学60.svg 页-1 -->
<svg xmlns="http://www.w3.org/2000/svg" xmlns:xlink="http://www.w3.org/1999/xlink" xmlns:ev="http://www.w3.org/2001/xml-events"
		xmlns:v="http://schemas.microsoft.com/visio/2003/SVGExtensions/" width="0.55625in" height="1.87504in"
		viewBox="0 0 40.05 135.003" xml:space="preserve" color-interpolation-filters="sRGB" class="st4">
	<v:documentProperties v:langID="2052" v:metric="true" v:viewMarkup="false"/>

	<style type="text/css">
	<![CDATA[
		.st1 {fill:url(#grad0-5);stroke:none;stroke-linecap:butt;stroke-width:0.75}
		.st2 {fill:url(#grad0-9);stroke:none;stroke-linecap:butt;stroke-width:0.75}
		.st3 {fill:#ffffff;fill-opacity:0.32;stroke:none;stroke-linecap:butt;stroke-width:0.75}
		.st4 {fill:none;fill-rule:evenodd;font-size:12px;overflow:visible;stroke-linecap:square;stroke-miterlimit:3}
	]]>
	</style>

	<defs id="Patterns_And_Gradients">
		<linearGradient id="grad0-5" x1="0" y1="0" x2="1" y2="0" gradientTransform="rotate(-180 0.5 0.5)">
			<stop offset="0" stop-color="#bcad9a" stop-opacity="1"/>
			<stop offset="0.15" stop-color="#fdead3" stop-opacity="1"/>
			<stop offset="0.25" stop-color="#fef3e7" stop-opacity="1"/>
			<stop offset="0.52" stop-color="#deccb6" stop-opacity="1"/>
			<stop offset="0.69" stop-color="#c5b5a2" stop-opacity="1"/>
			<stop offset="0.8" stop-color="#baab98" stop-opacity="1"/>
			<stop offset="0.92" stop-color="#b0a190" stop-opacity="1"/>
			<stop offset="1" stop-color="#cabaa5" stop-opacity="1"/>
		</linearGradient>
		<linearGradient id="grad0-9" x1="0" y1="0" x2="1" y2="0" gradientTransform="rotate(-180 0.5 0.5)">
			<stop offset="0" stop-color="#ad976f" stop-opacity="1"/>
			<stop offset="0.15" stop-color="#ebd0a1" stop-opacity="1"/>
			<stop offset="0.25" stop-color="#f4e5cf" stop-opacity="1"/>
			<stop offset="0.52" stop-color="#cdb384" stop-opacity="1"/>
			<stop offset="0.69" stop-color="#b69f75" stop-opacity="1"/>
			<stop offset="0.8" stop-color="#ac966e" stop-opacity="1"/>
			<stop offset="0.92" stop-color="#a28e68" stop-opacity="1"/>
			<stop offset="1" stop-color="#baa378" stop-opacity="1"/>
		</linearGradient>
	</defs>
	<g v:mID="0" v:index="1" v:groupContext="foregroundPage">
		<title>页-1</title>
		<v:pageProperties v:drawingScale="0.0393701" v:pageScale="0.0393701" v:drawingUnits="24" v:shadowOffsetX="8.50394"
				v:shadowOffsetY="-8.50394"/>
		<g id="group3573-1" transform="translate(0.75,-0.52761)" v:mID="3573" v:groupContext="group">
			<title>回收塔</title>
			<g id="shape3574-2" v:mID="3574" v:groupContext="shape" transform="translate(0.855,-1.98952E-13)">
				<title>shape1</title>
				<path d="M0 14.25 L0 120.6 C0 120.6 0.6 135 18.82 134.78 C37.05 134.55 36.75 120.6 36.75 120.6 L36.75 14.25 C36.75
							 14.25 34.12 1.28 18.52 1.28 C2.92 1.28 0.6 14.25 0 14.25 Z" class="st1"/>
			</g>
			<g id="shape3575-6" v:mID="3575" v:groupContext="shape" transform="translate(0,-116.228)">
				<title>shape2</title>
				<path d="M0.3 130.88 L38.17 130.88 C38.4 130.88 38.55 131.1 38.55 131.33 L38.55 134.55 C38.55 134.78 38.4 135 38.17
							 135 L0.3 135 C0.15 135 0 134.78 0 134.55 L0 131.33 C0 131.1 0.15 130.88 0.3 130.88 Z" class="st2"/>
			</g>
			<g id="shape3576-10" v:mID="3576" v:groupContext="shape" transform="translate(0,-16.335)">
				<title>shape3</title>
				<path d="M0.3 130.88 L38.17 130.88 C38.4 130.88 38.55 131.1 38.55 131.33 L38.55 134.55 C38.55 134.78 38.4 135 38.17
							 135 L0.3 135 C0.15 135 0 134.78 0 134.55 L0 131.33 C0 131.1 0.15 130.88 0.3 130.88 Z" class="st2"/>
			</g>
			<g id="shape3577-13" v:mID="3577" v:groupContext="shape" transform="translate(0.885,-106.38)">
				<title>shape4</title>
				<path d="M0 125.25 L0 135 L36.75 135 L36.75 125.25 L0 125.25 Z" class="st3"/>
			</g>
			<g id="shape3578-15" v:mID="3578" v:groupContext="shape" transform="translate(0.885,-20.625)">
				<title>shape5</title>
				<path d="M0 125.25 L0 135 L36.75 135 L36.75 125.25 L0 125.25 Z" class="st3"/>
			</g>
			<g id="shape3579-17" v:mID="3579" v:groupContext="shape" transform="translate(0,-117.142)">
				<title>shape6</title>
				<path d="M0.3 132.68 L38.17 132.68 C38.4 132.68 38.55 132.75 38.55 132.9 L38.55 134.78 C38.55 134.93 38.4 135 38.17
							 135 L0.3 135 C0.15 135 0 134.93 0 134.78 L0 132.9 C0 132.75 0.15 132.68 0.3 132.68 Z" class="st1"/>
			</g>
			<g id="shape3580-20" v:mID="3580" v:groupContext="shape" transform="translate(0,-17.25)">
				<title>shape7</title>
				<path d="M0.3 132.68 L38.17 132.68 C38.4 132.68 38.55 132.75 38.55 132.9 L38.55 134.78 C38.55 134.93 38.4 135 38.17
							 135 L0.3 135 C0.15 135 0 134.93 0 134.78 L0 132.9 C0 132.75 0.15 132.68 0.3 132.68 Z" class="st1"/>
			</g>
		</g>
	</g>
</svg>
