<?xml version="1.0" encoding="UTF-8" standalone="no"?>
<!DOCTYPE svg PUBLIC "-//W3C//DTD SVG 1.1//EN" "http://www.w3.org/Graphics/SVG/1.1/DTD/svg11.dtd">
<!-- 由 Microsoft Visio, SVG Export 生成 化学85.svg 页-1 -->
<svg xmlns="http://www.w3.org/2000/svg" xmlns:xlink="http://www.w3.org/1999/xlink" xmlns:ev="http://www.w3.org/2001/xml-events"
		xmlns:v="http://schemas.microsoft.com/visio/2003/SVGExtensions/" width="1.125in" height="1.47021in"
		viewBox="0 0 81 105.855" xml:space="preserve" color-interpolation-filters="sRGB" class="st23">
	<v:documentProperties v:langID="2052" v:metric="true" v:viewMarkup="false"/>

	<style type="text/css">
	<![CDATA[
		.st1 {fill:url(#grad0-5);stroke:none;stroke-linecap:butt;stroke-width:0.75}
		.st2 {fill:url(#grad0-9);stroke:none;stroke-linecap:butt;stroke-width:0.75}
		.st3 {fill:url(#grad0-14);stroke:none;stroke-linecap:butt;stroke-width:0.75}
		.st4 {fill:url(#grad0-89);stroke:none;stroke-linecap:butt;stroke-width:0.75}
		.st5 {fill:url(#grad0-95);stroke:none;stroke-linecap:butt;stroke-width:0.75}
		.st6 {fill:#bf793e;stroke:none;stroke-linecap:butt;stroke-width:0.753069}
		.st7 {fill:#3e3938;stroke:none;stroke-linecap:butt;stroke-width:0.75}
		.st8 {fill:#ffffff;fill-opacity:0.14;stroke:none;stroke-linecap:butt;stroke-width:0.75}
		.st9 {fill:#7d040f;stroke:#000000;stroke-linecap:butt;stroke-width:0.1875}
		.st10 {fill:url(#grad0-135);stroke:#ffffff;stroke-linecap:butt;stroke-width:0.1875}
		.st11 {fill:#276f71;stroke:#000000;stroke-linecap:butt;stroke-width:0.1875}
		.st12 {fill:url(#grad0-148);stroke:#ffffff;stroke-linecap:butt;stroke-width:0.1875}
		.st13 {fill:url(#grad0-183);stroke:none;stroke-linecap:butt;stroke-width:0.75}
		.st14 {fill:#888889;stroke:none;stroke-linecap:butt;stroke-width:0.75}
		.st15 {fill:#eeeeee;stroke:none;stroke-linecap:butt;stroke-width:0.75}
		.st16 {fill:url(#grad0-191);stroke:none;stroke-linecap:butt;stroke-width:0.75}
		.st17 {fill:none}
		.st18 {stroke:#000000;stroke-linecap:butt;stroke-width:0.75}
		.st19 {fill:#ffffff;fill-opacity:0.82;stroke:none;stroke-linecap:butt;stroke-width:0.75}
		.st20 {fill:#ffdead;stroke:none;stroke-linecap:butt;stroke-width:0.753069}
		.st21 {fill:#fde9d0;stroke:none;stroke-linecap:butt;stroke-width:0.753069}
		.st22 {fill:url(#grad0-207);stroke:none;stroke-linecap:butt;stroke-width:0.75}
		.st23 {fill:none;fill-rule:evenodd;font-size:12px;overflow:visible;stroke-linecap:square;stroke-miterlimit:3}
	]]>
	</style>

	<defs id="Patterns_And_Gradients">
		<linearGradient id="grad0-5" x1="0" y1="0" x2="1" y2="0" gradientTransform="rotate(-180 0.5 0.5)">
			<stop offset="0" stop-color="#b39fa3" stop-opacity="1"/>
			<stop offset="0.01" stop-color="#fde7ec" stop-opacity="1"/>
			<stop offset="0.05" stop-color="#e9cfd5" stop-opacity="1"/>
			<stop offset="0.9" stop-color="#e5ccd1" stop-opacity="1"/>
			<stop offset="0.95" stop-color="#e0c7cd" stop-opacity="1"/>
			<stop offset="1" stop-color="#a69397" stop-opacity="1"/>
		</linearGradient>
		<linearGradient id="grad0-9" x1="0" y1="0" x2="1" y2="0" gradientTransform="rotate(-180 0.5 0.5)">
			<stop offset="0" stop-color="#ae8684" stop-opacity="1"/>
			<stop offset="0.01" stop-color="#f8cecc" stop-opacity="1"/>
			<stop offset="0.05" stop-color="#e3b0ad" stop-opacity="1"/>
			<stop offset="0.9" stop-color="#dfadaa" stop-opacity="1"/>
			<stop offset="0.95" stop-color="#daa9a6" stop-opacity="1"/>
			<stop offset="1" stop-color="#a27c7a" stop-opacity="1"/>
		</linearGradient>
		<linearGradient id="grad0-14" x1="0" y1="0" x2="1" y2="0" gradientTransform="rotate(90 0.5 0.5)">
			<stop offset="0" stop-color="#c2acb1" stop-opacity="1"/>
			<stop offset="0.15" stop-color="#fde3e9" stop-opacity="1"/>
			<stop offset="0.25" stop-color="#feeff2" stop-opacity="1"/>
			<stop offset="0.77" stop-color="#dec5ca" stop-opacity="1"/>
			<stop offset="1" stop-color="#c5afb4" stop-opacity="1"/>
		</linearGradient>
		<linearGradient id="grad0-89" x1="0" y1="0" x2="1" y2="0" gradientTransform="rotate(-180 0.5 0.5)">
			<stop offset="0" stop-color="#292525" stop-opacity="1"/>
			<stop offset="0.01" stop-color="#868584" stop-opacity="1"/>
			<stop offset="0.05" stop-color="#383433" stop-opacity="1"/>
			<stop offset="0.97" stop-color="#373332" stop-opacity="1"/>
			<stop offset="0.99" stop-color="#524f4e" stop-opacity="1"/>
			<stop offset="1" stop-color="#23211f" stop-opacity="1"/>
		</linearGradient>
		<linearGradient id="grad0-95" x1="0" y1="0" x2="1" y2="0" gradientTransform="rotate(-180 0.5 0.5)">
			<stop offset="0" stop-color="#c4aa84" stop-opacity="1"/>
			<stop offset="0.15" stop-color="#ffe0b3" stop-opacity="1"/>
			<stop offset="0.25" stop-color="#ffeed7" stop-opacity="1"/>
			<stop offset="0.44" stop-color="#dfc297" stop-opacity="1"/>
			<stop offset="0.6" stop-color="#c7ad86" stop-opacity="1"/>
			<stop offset="0.8" stop-color="#a89170" stop-opacity="1"/>
			<stop offset="0.97" stop-color="#998566" stop-opacity="1"/>
			<stop offset="1" stop-color="#cbb189" stop-opacity="1"/>
		</linearGradient>
		<linearGradient id="grad0-135" x1="0" y1="0" x2="1" y2="0" gradientTransform="rotate(63.434948822922 0.5 0.5)">
			<stop offset="0" stop-color="#9f5153" stop-opacity="1"/>
			<stop offset="1" stop-color="#7b030d" stop-opacity="1"/>
		</linearGradient>
		<linearGradient id="grad0-148" x1="0" y1="0" x2="1" y2="0" gradientTransform="rotate(63.434948822922 0.5 0.5)">
			<stop offset="0" stop-color="#91cfd1" stop-opacity="1"/>
			<stop offset="1" stop-color="#49aeb1" stop-opacity="1"/>
		</linearGradient>
		<linearGradient id="grad0-183" x1="0" y1="0" x2="1" y2="0" gradientTransform="rotate(-180 0.5 0.5)">
			<stop offset="0" stop-color="#9b9b9c" stop-opacity="1"/>
			<stop offset="0.02" stop-color="#e4e4e4" stop-opacity="1"/>
			<stop offset="0.02" stop-color="#cbcbcb" stop-opacity="1"/>
			<stop offset="0.64" stop-color="#c7c7c8" stop-opacity="1"/>
			<stop offset="0.95" stop-color="#c3c3c4" stop-opacity="1"/>
			<stop offset="1" stop-color="#909091" stop-opacity="1"/>
		</linearGradient>
		<linearGradient id="grad0-191" x1="0" y1="0" x2="1" y2="0" gradientTransform="rotate(-22.714412353167 0.5 0.5)">
			<stop offset="0" stop-color="#000000" stop-opacity="1"/>
			<stop offset="0.15" stop-color="#454545" stop-opacity="1"/>
			<stop offset="0.25" stop-color="#b3b3b3" stop-opacity="1"/>
			<stop offset="0.44" stop-color="#000000" stop-opacity="1"/>
			<stop offset="0.6" stop-color="#000000" stop-opacity="1"/>
			<stop offset="0.8" stop-color="#000000" stop-opacity="1"/>
			<stop offset="0.97" stop-color="#000000" stop-opacity="1"/>
			<stop offset="1" stop-color="#000000" stop-opacity="1"/>
		</linearGradient>
		<linearGradient id="grad0-207" x1="0" y1="0" x2="1" y2="0" gradientTransform="rotate(-180 0.5 0.5)">
			<stop offset="0" stop-color="#424141" stop-opacity="1"/>
			<stop offset="0.15" stop-color="#6d6c6c" stop-opacity="1"/>
			<stop offset="0.25" stop-color="#bcbcbc" stop-opacity="1"/>
			<stop offset="0.44" stop-color="#4d4b4b" stop-opacity="1"/>
			<stop offset="0.6" stop-color="#434242" stop-opacity="1"/>
			<stop offset="0.8" stop-color="#383636" stop-opacity="1"/>
			<stop offset="0.97" stop-color="#323131" stop-opacity="1"/>
			<stop offset="1" stop-color="#454444" stop-opacity="1"/>
		</linearGradient>
	</defs>
	<g v:mID="0" v:index="1" v:groupContext="foregroundPage">
		<title>页-1</title>
		<v:pageProperties v:drawingScale="0.0393701" v:pageScale="0.0393701" v:drawingUnits="24" v:shadowOffsetX="8.50394"
				v:shadowOffsetY="-8.50394"/>
		<g id="group4021-1" transform="translate(0.75,-0.75)" v:mID="4021" v:groupContext="group">
			<title>臭氧发生器</title>
			<g id="shape4022-2" v:mID="4022" v:groupContext="shape" transform="translate(0.675,-8.3925)">
				<title>shape1</title>
				<path d="M0 18.63 L78.15 18.63 L78.15 105.86 L0 105.86 L0 18.63 Z" class="st1"/>
			</g>
			<g id="shape4023-6" v:mID="4023" v:groupContext="shape" transform="translate(0.675,-95.43)">
				<title>shape2</title>
				<path d="M4.73 96.93 L73.35 96.93 L78.15 101.58 L78.15 105.86 L0 105.86 L0 101.66 L4.73 96.93 Z" class="st2"/>
			</g>
			<g id="group4024-10" transform="translate(17.265,-13.125)" v:mID="4024" v:groupContext="group">
				<title>工作表.4024</title>
				<g id="shape4025-11" v:mID="4025" v:groupContext="shape" transform="translate(-3.64708E-14,-34.7775)">
					<title>shape3</title>
					<path d="M0.9 104.06 L8.02 104.06 C8.55 104.06 9 104.43 9 104.96 C9 105.48 8.55 105.86 8.02 105.86 L0.9 105.86
								 C0.37 105.86 0 105.48 0 104.96 C0 104.43 0.37 104.06 0.9 104.06 Z" class="st3"/>
				</g>
				<g id="shape4026-15" v:mID="4026" v:groupContext="shape" transform="translate(-3.64708E-14,-29.97)">
					<title>shape4</title>
					<path d="M0.9 104.06 L8.02 104.06 C8.55 104.06 9 104.43 9 104.96 C9 105.48 8.55 105.86 8.02 105.86 L0.9 105.86
								 C0.37 105.86 0 105.48 0 104.96 C0 104.43 0.37 104.06 0.9 104.06 Z" class="st3"/>
				</g>
				<g id="shape4027-18" v:mID="4027" v:groupContext="shape" transform="translate(-3.64708E-14,-24.7125)">
					<title>shape5</title>
					<path d="M0.9 104.06 L8.02 104.06 C8.55 104.06 9 104.43 9 104.96 C9 105.48 8.55 105.86 8.02 105.86 L0.9 105.86
								 C0.37 105.86 0 105.48 0 104.96 C0 104.43 0.37 104.06 0.9 104.06 Z" class="st3"/>
				</g>
				<g id="shape4028-21" v:mID="4028" v:groupContext="shape" transform="translate(-3.64708E-14,-19.875)">
					<title>shape6</title>
					<path d="M0.9 104.06 L8.02 104.06 C8.55 104.06 9 104.43 9 104.96 C9 105.48 8.55 105.86 8.02 105.86 L0.9 105.86
								 C0.37 105.86 0 105.48 0 104.96 C0 104.43 0.37 104.06 0.9 104.06 Z" class="st3"/>
				</g>
				<g id="shape4029-24" v:mID="4029" v:groupContext="shape" transform="translate(-3.64708E-14,-14.9025)">
					<title>shape7</title>
					<path d="M0.9 104.06 L8.02 104.06 C8.55 104.06 9 104.43 9 104.96 C9 105.48 8.55 105.86 8.02 105.86 L0.9 105.86
								 C0.37 105.86 0 105.48 0 104.96 C0 104.43 0.37 104.06 0.9 104.06 Z" class="st3"/>
				</g>
				<g id="shape4030-27" v:mID="4030" v:groupContext="shape" transform="translate(-3.64708E-14,-9.9375)">
					<title>shape8</title>
					<path d="M0.9 104.06 L8.02 104.06 C8.55 104.06 9 104.43 9 104.96 C9 105.48 8.55 105.86 8.02 105.86 L0.9 105.86
								 C0.37 105.86 0 105.48 0 104.96 C0 104.43 0.37 104.06 0.9 104.06 Z" class="st3"/>
				</g>
				<g id="shape4031-30" v:mID="4031" v:groupContext="shape" transform="translate(-3.64708E-14,-5.145)">
					<title>shape9</title>
					<path d="M0.9 104.06 L8.02 104.06 C8.55 104.06 9 104.43 9 104.96 C9 105.48 8.55 105.86 8.02 105.86 L0.9 105.86
								 C0.37 105.86 0 105.48 0 104.96 C0 104.43 0.37 104.06 0.9 104.06 Z" class="st3"/>
				</g>
				<g id="shape4032-33" v:mID="4032" v:groupContext="shape">
					<title>shape10</title>
					<path d="M0.9 104.06 L8.02 104.06 C8.55 104.06 9 104.43 9 104.96 C9 105.48 8.55 105.86 8.02 105.86 L0.9 105.86
								 C0.37 105.86 0 105.48 0 104.96 C0 104.43 0.37 104.06 0.9 104.06 Z" class="st3"/>
				</g>
			</g>
			<g id="group4033-36" transform="translate(35.64,-13.125)" v:mID="4033" v:groupContext="group">
				<title>工作表.4033</title>
				<g id="shape4034-37" v:mID="4034" v:groupContext="shape" transform="translate(-3.64708E-14,-34.7775)">
					<title>shape11</title>
					<path d="M0.9 104.06 L8.02 104.06 C8.55 104.06 9 104.43 9 104.96 C9 105.48 8.55 105.86 8.02 105.86 L0.9 105.86
								 C0.37 105.86 0 105.48 0 104.96 C0 104.43 0.37 104.06 0.9 104.06 Z" class="st3"/>
				</g>
				<g id="shape4035-40" v:mID="4035" v:groupContext="shape" transform="translate(-3.64708E-14,-29.97)">
					<title>shape12</title>
					<path d="M0.9 104.06 L8.02 104.06 C8.55 104.06 9 104.43 9 104.96 C9 105.48 8.55 105.86 8.02 105.86 L0.9 105.86
								 C0.37 105.86 0 105.48 0 104.96 C0 104.43 0.37 104.06 0.9 104.06 Z" class="st3"/>
				</g>
				<g id="shape4036-43" v:mID="4036" v:groupContext="shape" transform="translate(-3.64708E-14,-24.7125)">
					<title>shape13</title>
					<path d="M0.9 104.06 L8.02 104.06 C8.55 104.06 9 104.43 9 104.96 C9 105.48 8.55 105.86 8.02 105.86 L0.9 105.86
								 C0.37 105.86 0 105.48 0 104.96 C0 104.43 0.37 104.06 0.9 104.06 Z" class="st3"/>
				</g>
				<g id="shape4037-46" v:mID="4037" v:groupContext="shape" transform="translate(-3.64708E-14,-19.875)">
					<title>shape14</title>
					<path d="M0.9 104.06 L8.02 104.06 C8.55 104.06 9 104.43 9 104.96 C9 105.48 8.55 105.86 8.02 105.86 L0.9 105.86
								 C0.37 105.86 0 105.48 0 104.96 C0 104.43 0.37 104.06 0.9 104.06 Z" class="st3"/>
				</g>
				<g id="shape4038-49" v:mID="4038" v:groupContext="shape" transform="translate(-3.64708E-14,-14.9025)">
					<title>shape15</title>
					<path d="M0.9 104.06 L8.02 104.06 C8.55 104.06 9 104.43 9 104.96 C9 105.48 8.55 105.86 8.02 105.86 L0.9 105.86
								 C0.37 105.86 0 105.48 0 104.96 C0 104.43 0.37 104.06 0.9 104.06 Z" class="st3"/>
				</g>
				<g id="shape4039-52" v:mID="4039" v:groupContext="shape" transform="translate(-3.64708E-14,-9.9375)">
					<title>shape16</title>
					<path d="M0.9 104.06 L8.02 104.06 C8.55 104.06 9 104.43 9 104.96 C9 105.48 8.55 105.86 8.02 105.86 L0.9 105.86
								 C0.37 105.86 0 105.48 0 104.96 C0 104.43 0.37 104.06 0.9 104.06 Z" class="st3"/>
				</g>
				<g id="shape4040-55" v:mID="4040" v:groupContext="shape" transform="translate(-3.64708E-14,-5.145)">
					<title>shape17</title>
					<path d="M0.9 104.06 L8.02 104.06 C8.55 104.06 9 104.43 9 104.96 C9 105.48 8.55 105.86 8.02 105.86 L0.9 105.86
								 C0.37 105.86 0 105.48 0 104.96 C0 104.43 0.37 104.06 0.9 104.06 Z" class="st3"/>
				</g>
				<g id="shape4041-58" v:mID="4041" v:groupContext="shape">
					<title>shape18</title>
					<path d="M0.9 104.06 L8.02 104.06 C8.55 104.06 9 104.43 9 104.96 C9 105.48 8.55 105.86 8.02 105.86 L0.9 105.86
								 C0.37 105.86 0 105.48 0 104.96 C0 104.43 0.37 104.06 0.9 104.06 Z" class="st3"/>
				</g>
			</g>
			<g id="group4042-61" transform="translate(54.0075,-13.125)" v:mID="4042" v:groupContext="group">
				<title>工作表.4042</title>
				<g id="shape4043-62" v:mID="4043" v:groupContext="shape" transform="translate(-3.64708E-14,-34.7775)">
					<title>shape19</title>
					<path d="M0.9 104.06 L8.02 104.06 C8.55 104.06 9 104.43 9 104.96 C9 105.48 8.55 105.86 8.02 105.86 L0.9 105.86
								 C0.37 105.86 0 105.48 0 104.96 C0 104.43 0.37 104.06 0.9 104.06 Z" class="st3"/>
				</g>
				<g id="shape4044-65" v:mID="4044" v:groupContext="shape" transform="translate(-3.64708E-14,-29.97)">
					<title>shape20</title>
					<path d="M0.9 104.06 L8.02 104.06 C8.55 104.06 9 104.43 9 104.96 C9 105.48 8.55 105.86 8.02 105.86 L0.9 105.86
								 C0.37 105.86 0 105.48 0 104.96 C0 104.43 0.37 104.06 0.9 104.06 Z" class="st3"/>
				</g>
				<g id="shape4045-68" v:mID="4045" v:groupContext="shape" transform="translate(-3.64708E-14,-24.7125)">
					<title>shape21</title>
					<path d="M0.9 104.06 L8.02 104.06 C8.55 104.06 9 104.43 9 104.96 C9 105.48 8.55 105.86 8.02 105.86 L0.9 105.86
								 C0.37 105.86 0 105.48 0 104.96 C0 104.43 0.37 104.06 0.9 104.06 Z" class="st3"/>
				</g>
				<g id="shape4046-71" v:mID="4046" v:groupContext="shape" transform="translate(-3.64708E-14,-19.875)">
					<title>shape22</title>
					<path d="M0.9 104.06 L8.02 104.06 C8.55 104.06 9 104.43 9 104.96 C9 105.48 8.55 105.86 8.02 105.86 L0.9 105.86
								 C0.37 105.86 0 105.48 0 104.96 C0 104.43 0.37 104.06 0.9 104.06 Z" class="st3"/>
				</g>
				<g id="shape4047-74" v:mID="4047" v:groupContext="shape" transform="translate(-3.64708E-14,-14.9025)">
					<title>shape23</title>
					<path d="M0.9 104.06 L8.02 104.06 C8.55 104.06 9 104.43 9 104.96 C9 105.48 8.55 105.86 8.02 105.86 L0.9 105.86
								 C0.37 105.86 0 105.48 0 104.96 C0 104.43 0.37 104.06 0.9 104.06 Z" class="st3"/>
				</g>
				<g id="shape4048-77" v:mID="4048" v:groupContext="shape" transform="translate(-3.64708E-14,-9.9375)">
					<title>shape24</title>
					<path d="M0.9 104.06 L8.02 104.06 C8.55 104.06 9 104.43 9 104.96 C9 105.48 8.55 105.86 8.02 105.86 L0.9 105.86
								 C0.37 105.86 0 105.48 0 104.96 C0 104.43 0.37 104.06 0.9 104.06 Z" class="st3"/>
				</g>
				<g id="shape4049-80" v:mID="4049" v:groupContext="shape" transform="translate(-3.64708E-14,-5.145)">
					<title>shape25</title>
					<path d="M0.9 104.06 L8.02 104.06 C8.55 104.06 9 104.43 9 104.96 C9 105.48 8.55 105.86 8.02 105.86 L0.9 105.86
								 C0.37 105.86 0 105.48 0 104.96 C0 104.43 0.37 104.06 0.9 104.06 Z" class="st3"/>
				</g>
				<g id="shape4050-83" v:mID="4050" v:groupContext="shape">
					<title>shape26</title>
					<path d="M0.9 104.06 L8.02 104.06 C8.55 104.06 9 104.43 9 104.96 C9 105.48 8.55 105.86 8.02 105.86 L0.9 105.86
								 C0.37 105.86 0 105.48 0 104.96 C0 104.43 0.37 104.06 0.9 104.06 Z" class="st3"/>
				</g>
			</g>
			<g id="shape4051-86" v:mID="4051" v:groupContext="shape">
				<title>shape27</title>
				<path d="M0 97.46 L79.5 97.46 L79.5 105.86 L0 105.86 L0 97.46 Z" class="st4"/>
			</g>
			<g id="group4052-90" transform="translate(2.7375,-10.2825)" v:mID="4052" v:groupContext="group">
				<title>工作表.4052</title>
				<g id="group4053-91" transform="translate(3.4972E-15,-79.155)" v:mID="4053" v:groupContext="group">
					<title>工作表.4053</title>
					<g id="shape4054-92" v:mID="4054" v:groupContext="shape">
						<title>shape28</title>
						<path d="M0 104.28 C0 103.46 0.75 102.71 1.58 102.71 C2.48 102.71 3.23 103.46 3.23 104.28 C3.23 105.18 2.48
									 105.86 1.58 105.86 C0.75 105.86 0 105.18 0 104.28 Z" class="st5"/>
					</g>
					<g id="shape4055-96" v:mID="4055" v:groupContext="shape" transform="translate(-72.5708,30.3592) rotate(-45)">
						<title>shape29</title>
						<path d="M0.23 103.6 C0.3 103.6 0.45 103.67 0.45 103.82 L0.45 105.7 C0.45 105.78 0.3 105.86 0.23 105.86 C0.08
									 105.86 0 105.78 0 105.7 L0 103.82 C0 103.67 0.08 103.6 0.23 103.6 Z" class="st6"/>
					</g>
					<g id="shape4056-98" v:mID="4056" v:groupContext="shape" transform="translate(75.5108,30.1342) rotate(45)">
						<title>shape30</title>
						<path d="M0.23 103.6 C0.3 103.6 0.45 103.67 0.45 103.82 L0.45 105.7 C0.45 105.78 0.3 105.86 0.23 105.86 C0.08
									 105.86 0 105.78 0 105.7 L0 103.82 C0 103.67 0.08 103.6 0.23 103.6 Z" class="st6"/>
					</g>
				</g>
				<g id="group4057-100" v:mID="4057" v:groupContext="group">
					<title>工作表.4057</title>
					<g id="shape4058-101" v:mID="4058" v:groupContext="shape">
						<title>shape31</title>
						<path d="M0 104.28 C0 103.46 0.75 102.71 1.58 102.71 C2.48 102.71 3.23 103.46 3.23 104.28 C3.23 105.18 2.48
									 105.86 1.58 105.86 C0.75 105.86 0 105.18 0 104.28 Z" class="st5"/>
					</g>
					<g id="shape4059-104" v:mID="4059" v:groupContext="shape" transform="translate(-72.5708,30.3592) rotate(-45)">
						<title>shape32</title>
						<path d="M0.23 103.6 C0.3 103.6 0.45 103.67 0.45 103.82 L0.45 105.7 C0.45 105.78 0.3 105.86 0.23 105.86 C0.08
									 105.86 0 105.78 0 105.7 L0 103.82 C0 103.67 0.08 103.6 0.23 103.6 Z" class="st6"/>
					</g>
					<g id="shape4060-106" v:mID="4060" v:groupContext="shape" transform="translate(75.5108,30.1342) rotate(45)">
						<title>shape33</title>
						<path d="M0.23 103.6 C0.3 103.6 0.45 103.67 0.45 103.82 L0.45 105.7 C0.45 105.78 0.3 105.86 0.23 105.86 C0.08
									 105.86 0 105.78 0 105.7 L0 103.82 C0 103.67 0.08 103.6 0.23 103.6 Z" class="st6"/>
					</g>
				</g>
			</g>
			<g id="group4061-108" transform="translate(73.905,-10.2825)" v:mID="4061" v:groupContext="group">
				<title>工作表.4061</title>
				<g id="group4062-109" transform="translate(3.4972E-15,-79.155)" v:mID="4062" v:groupContext="group">
					<title>工作表.4062</title>
					<g id="shape4063-110" v:mID="4063" v:groupContext="shape">
						<title>shape34</title>
						<path d="M0 104.28 C0 103.46 0.75 102.71 1.58 102.71 C2.48 102.71 3.23 103.46 3.23 104.28 C3.23 105.18 2.48
									 105.86 1.58 105.86 C0.75 105.86 0 105.18 0 104.28 Z" class="st5"/>
					</g>
					<g id="shape4064-113" v:mID="4064" v:groupContext="shape" transform="translate(-72.5708,30.3592) rotate(-45)">
						<title>shape35</title>
						<path d="M0.23 103.6 C0.3 103.6 0.45 103.67 0.45 103.82 L0.45 105.7 C0.45 105.78 0.3 105.86 0.23 105.86 C0.08
									 105.86 0 105.78 0 105.7 L0 103.82 C0 103.67 0.08 103.6 0.23 103.6 Z" class="st6"/>
					</g>
					<g id="shape4065-115" v:mID="4065" v:groupContext="shape" transform="translate(75.5108,30.1342) rotate(45)">
						<title>shape36</title>
						<path d="M0.23 103.6 C0.3 103.6 0.45 103.67 0.45 103.82 L0.45 105.7 C0.45 105.78 0.3 105.86 0.23 105.86 C0.08
									 105.86 0 105.78 0 105.7 L0 103.82 C0 103.67 0.08 103.6 0.23 103.6 Z" class="st6"/>
					</g>
				</g>
				<g id="group4066-117" v:mID="4066" v:groupContext="group">
					<title>工作表.4066</title>
					<g id="shape4067-118" v:mID="4067" v:groupContext="shape">
						<title>shape37</title>
						<path d="M0 104.28 C0 103.46 0.75 102.71 1.58 102.71 C2.48 102.71 3.23 103.46 3.23 104.28 C3.23 105.18 2.48
									 105.86 1.58 105.86 C0.75 105.86 0 105.18 0 104.28 Z" class="st5"/>
					</g>
					<g id="shape4068-121" v:mID="4068" v:groupContext="shape" transform="translate(-72.5708,30.3592) rotate(-45)">
						<title>shape38</title>
						<path d="M0.23 103.6 C0.3 103.6 0.45 103.67 0.45 103.82 L0.45 105.7 C0.45 105.78 0.3 105.86 0.23 105.86 C0.08
									 105.86 0 105.78 0 105.7 L0 103.82 C0 103.67 0.08 103.6 0.23 103.6 Z" class="st6"/>
					</g>
					<g id="shape4069-123" v:mID="4069" v:groupContext="shape" transform="translate(75.5108,30.1342) rotate(45)">
						<title>shape39</title>
						<path d="M0.23 103.6 C0.3 103.6 0.45 103.67 0.45 103.82 L0.45 105.7 C0.45 105.78 0.3 105.86 0.23 105.86 C0.08
									 105.86 0 105.78 0 105.7 L0 103.82 C0 103.67 0.08 103.6 0.23 103.6 Z" class="st6"/>
					</g>
				</g>
			</g>
			<g id="shape4070-125" v:mID="4070" v:groupContext="shape" transform="translate(11.9325,-67.935)">
				<title>shape40</title>
				<path d="M2.1 86.35 L53.55 86.35 C54.68 86.35 55.65 87.25 55.65 88.45 L55.65 103.76 C55.65 104.88 54.68 105.86 53.55
							 105.86 L2.1 105.86 C0.9 105.86 0 104.88 0 103.76 L0 88.45 C0 87.25 0.9 86.35 2.1 86.35 Z" class="st7"/>
			</g>
			<g id="shape4071-127" v:mID="4071" v:groupContext="shape" transform="translate(13.635,-69.375)">
				<title>shape41</title>
				<path d="M0.9 89.2 L51.3 89.2 C51.83 89.2 52.2 89.58 52.2 90.1 L52.2 104.96 C52.2 105.48 51.83 105.86 51.3 105.86
							 L0.9 105.86 C0.38 105.86 0 105.48 0 104.96 L0 90.1 C0 89.58 0.38 89.2 0.9 89.2 Z" class="st8"/>
			</g>
			<g id="group4072-129" transform="translate(140.205,23.775) rotate(90)" v:mID="4072" v:groupContext="group">
				<title>工作表.4072</title>
				<g id="shape4073-130" v:mID="4073" v:groupContext="shape">
					<title>shape42</title>
					<path d="M0 104.36 C0 103.53 0.68 102.86 1.5 102.86 C2.25 102.86 2.93 103.53 2.93 104.36 C2.93 105.18 2.25 105.86
								 1.5 105.86 C0.68 105.86 0 105.18 0 104.36 Z" class="st9"/>
				</g>
				<g id="shape4074-132" v:mID="4074" v:groupContext="shape" transform="translate(0.27,-0.3225)">
					<title>shape43</title>
					<path d="M0 104.66 C0 103.98 0.53 103.46 1.2 103.46 C1.88 103.46 2.4 103.98 2.4 104.66 C2.4 105.33 1.88 105.86
								 1.2 105.86 C0.53 105.86 0 105.33 0 104.66 Z" class="st10"/>
				</g>
			</g>
			<g id="group4075-136" transform="translate(162.855,23.775) rotate(90)" v:mID="4075" v:groupContext="group">
				<title>工作表.4075</title>
				<g id="shape4076-137" v:mID="4076" v:groupContext="shape">
					<title>shape44</title>
					<path d="M0 104.36 C0 103.53 0.68 102.86 1.5 102.86 C2.25 102.86 2.93 103.53 2.93 104.36 C2.93 105.18 2.25 105.86
								 1.5 105.86 C0.68 105.86 0 105.18 0 104.36 Z" class="st9"/>
				</g>
				<g id="shape4077-139" v:mID="4077" v:groupContext="shape" transform="translate(0.27,-0.3225)">
					<title>shape45</title>
					<path d="M0 104.66 C0 103.98 0.53 103.46 1.2 103.46 C1.88 103.46 2.4 103.98 2.4 104.66 C2.4 105.33 1.88 105.86
								 1.2 105.86 C0.53 105.86 0 105.33 0 104.66 Z" class="st10"/>
				</g>
			</g>
			<g id="group4078-142" transform="translate(155.73,23.775) rotate(90)" v:mID="4078" v:groupContext="group">
				<title>工作表.4078</title>
				<g id="shape4079-143" v:mID="4079" v:groupContext="shape">
					<title>shape46</title>
					<path d="M0 104.36 C0 103.53 0.68 102.86 1.5 102.86 C2.25 102.86 2.93 103.53 2.93 104.36 C2.93 105.18 2.25 105.86
								 1.5 105.86 C0.68 105.86 0 105.18 0 104.36 Z" class="st11"/>
				</g>
				<g id="shape4080-145" v:mID="4080" v:groupContext="shape" transform="translate(0.27,-0.3225)">
					<title>shape47</title>
					<path d="M0 104.66 C0 103.98 0.53 103.46 1.2 103.46 C1.88 103.46 2.4 103.98 2.4 104.66 C2.4 105.33 1.88 105.86
								 1.2 105.86 C0.53 105.86 0 105.33 0 104.66 Z" class="st12"/>
				</g>
			</g>
			<g id="group4081-149" transform="translate(148.68,23.775) rotate(90)" v:mID="4081" v:groupContext="group">
				<title>工作表.4081</title>
				<g id="shape4082-150" v:mID="4082" v:groupContext="shape">
					<title>shape48</title>
					<path d="M0 104.36 C0 103.53 0.68 102.86 1.5 102.86 C2.25 102.86 2.93 103.53 2.93 104.36 C2.93 105.18 2.25 105.86
								 1.5 105.86 C0.68 105.86 0 105.18 0 104.36 Z" class="st9"/>
				</g>
				<g id="shape4083-152" v:mID="4083" v:groupContext="shape" transform="translate(0.27,-0.3225)">
					<title>shape49</title>
					<path d="M0 104.66 C0 103.98 0.53 103.46 1.2 103.46 C1.88 103.46 2.4 103.98 2.4 104.66 C2.4 105.33 1.88 105.86
								 1.2 105.86 C0.53 105.86 0 105.33 0 104.66 Z" class="st10"/>
				</g>
			</g>
			<g id="group4084-155" transform="translate(139.83,31.35) rotate(90)" v:mID="4084" v:groupContext="group">
				<title>工作表.4084</title>
				<g id="shape4085-156" v:mID="4085" v:groupContext="shape">
					<title>shape50</title>
					<path d="M0 104.36 C0 103.53 0.68 102.86 1.5 102.86 C2.25 102.86 2.93 103.53 2.93 104.36 C2.93 105.18 2.25 105.86
								 1.5 105.86 C0.68 105.86 0 105.18 0 104.36 Z" class="st9"/>
				</g>
				<g id="shape4086-158" v:mID="4086" v:groupContext="shape" transform="translate(0.27,-0.3225)">
					<title>shape51</title>
					<path d="M0 104.66 C0 103.98 0.53 103.46 1.2 103.46 C1.88 103.46 2.4 103.98 2.4 104.66 C2.4 105.33 1.88 105.86
								 1.2 105.86 C0.53 105.86 0 105.33 0 104.66 Z" class="st10"/>
				</g>
			</g>
			<g id="group4087-161" transform="translate(162.48,31.35) rotate(90)" v:mID="4087" v:groupContext="group">
				<title>工作表.4087</title>
				<g id="shape4088-162" v:mID="4088" v:groupContext="shape">
					<title>shape52</title>
					<path d="M0 104.36 C0 103.53 0.68 102.86 1.5 102.86 C2.25 102.86 2.93 103.53 2.93 104.36 C2.93 105.18 2.25 105.86
								 1.5 105.86 C0.68 105.86 0 105.18 0 104.36 Z" class="st9"/>
				</g>
				<g id="shape4089-164" v:mID="4089" v:groupContext="shape" transform="translate(0.27,-0.3225)">
					<title>shape53</title>
					<path d="M0 104.66 C0 103.98 0.53 103.46 1.2 103.46 C1.88 103.46 2.4 103.98 2.4 104.66 C2.4 105.33 1.88 105.86
								 1.2 105.86 C0.53 105.86 0 105.33 0 104.66 Z" class="st10"/>
				</g>
			</g>
			<g id="group4090-167" transform="translate(155.43,31.35) rotate(90)" v:mID="4090" v:groupContext="group">
				<title>工作表.4090</title>
				<g id="shape4091-168" v:mID="4091" v:groupContext="shape">
					<title>shape54</title>
					<path d="M0 104.36 C0 103.53 0.68 102.86 1.5 102.86 C2.25 102.86 2.93 103.53 2.93 104.36 C2.93 105.18 2.25 105.86
								 1.5 105.86 C0.68 105.86 0 105.18 0 104.36 Z" class="st11"/>
				</g>
				<g id="shape4092-170" v:mID="4092" v:groupContext="shape" transform="translate(0.27,-0.3225)">
					<title>shape55</title>
					<path d="M0 104.66 C0 103.98 0.53 103.46 1.2 103.46 C1.88 103.46 2.4 103.98 2.4 104.66 C2.4 105.33 1.88 105.86
								 1.2 105.86 C0.53 105.86 0 105.33 0 104.66 Z" class="st12"/>
				</g>
			</g>
			<g id="group4093-173" transform="translate(148.305,31.35) rotate(90)" v:mID="4093" v:groupContext="group">
				<title>工作表.4093</title>
				<g id="shape4094-174" v:mID="4094" v:groupContext="shape">
					<title>shape56</title>
					<path d="M0 104.36 C0 103.53 0.68 102.86 1.5 102.86 C2.25 102.86 2.93 103.53 2.93 104.36 C2.93 105.18 2.25 105.86
								 1.5 105.86 C0.68 105.86 0 105.18 0 104.36 Z" class="st9"/>
				</g>
				<g id="shape4095-176" v:mID="4095" v:groupContext="shape" transform="translate(0.27,-0.3225)">
					<title>shape57</title>
					<path d="M0 104.66 C0 103.98 0.53 103.46 1.2 103.46 C1.88 103.46 2.4 103.98 2.4 104.66 C2.4 105.33 1.88 105.86
								 1.2 105.86 C0.53 105.86 0 105.33 0 104.66 Z" class="st10"/>
				</g>
			</g>
			<g id="group4096-179" transform="translate(17.265,-73.305)" v:mID="4096" v:groupContext="group">
				<title>工作表.4096</title>
				<g id="shape4097-180" v:mID="4097" v:groupContext="shape">
					<title>shape58</title>
					<path d="M0.15 97.08 L8.55 97.08 C8.62 97.08 8.7 97.15 8.7 97.23 L8.7 105.71 C8.7 105.78 8.62 105.86 8.55 105.86
								 L0.15 105.86 C0.07 105.86 0 105.78 0 105.71 L0 97.23 C0 97.15 0.07 97.08 0.15 97.08 Z"
							class="st13"/>
				</g>
				<g id="shape4098-184" v:mID="4098" v:groupContext="shape" transform="translate(0.54,-0.525)">
					<title>shape59</title>
					<path d="M0.15 98.13 L7.5 98.13 C7.57 98.13 7.65 98.21 7.65 98.28 L7.65 103.08 L4.73 105.86 L0.15 105.86 C0.08
								 105.86 0 105.78 0 105.71 L0 98.28 C0 98.21 0.08 98.13 0.15 98.13 Z" class="st14"/>
				</g>
				<g id="shape4099-186" v:mID="4099" v:groupContext="shape" transform="translate(0.6975,-0.645)">
					<title>shape60</title>
					<path d="M0.15 98.43 L7.2 98.43 C7.27 98.43 7.35 98.5 7.35 98.58 L7.35 103.16 L4.57 105.86 L0.15 105.86 C0.07
								 105.86 0 105.78 0 105.71 L0 98.58 C0 98.5 0.07 98.43 0.15 98.43 Z" class="st15"/>
				</g>
				<g id="shape4100-188" v:mID="4100" v:groupContext="shape" transform="translate(2.745,-3.0525)">
					<title>shape61</title>
					<path d="M0 102.63 L2.7 105.86 L0 102.63 Z" class="st16"/>
				</g>
				<g id="shape4101-192" v:mID="4101" v:groupContext="shape" transform="translate(1.545,-2.3475)">
					<title>shape62</title>
					<path d="M0 105.86 L0.82 105.86 L0 105.86 Z" class="st17"/>
					<path d="M0 105.86 L0.82 105.86" class="st18"/>
				</g>
				<g id="shape4102-195" v:mID="4102" v:groupContext="shape" transform="translate(1.8525,-4.545)">
					<title>shape63</title>
				</g>
				<g id="shape4103-196" v:mID="4103" v:groupContext="shape" transform="translate(4.2675,-7.0275)">
					<title>shape64</title>
				</g>
				<g id="shape4104-197" v:mID="4104" v:groupContext="shape" transform="translate(6.645,-7.425)">
					<title>shape65</title>
				</g>
				<g id="shape4105-198" v:mID="4105" v:groupContext="shape" transform="translate(1.065,-6.75)">
					<title>shape66</title>
					<path d="M0 104.96 L2.4 104.96 L2.4 105.86 L0 105.86 L0 104.96 Z" class="st19"/>
				</g>
				<g id="shape4106-200" v:mID="4106" v:groupContext="shape" transform="translate(78.6503,29.0797) rotate(45)">
					<title>shape67</title>
					<path d="M0 103.82 C0 102.69 0.9 101.79 1.96 101.79 C1.96 101.86 1.96 105.86 1.96 105.86 C0.83 105.86 0 104.95
								 0 103.82 Z" class="st20"/>
				</g>
				<g id="shape4107-202" v:mID="4107" v:groupContext="shape" transform="translate(78.81,29.07) rotate(45)">
					<title>shape68</title>
					<path d="M0 103.9 C0 102.84 0.83 102.01 1.88 102.01 C1.88 102.09 1.81 105.86 1.81 105.86 C0.83 105.86 0 104.95
								 0 103.9 Z" class="st21"/>
				</g>
				<g id="shape4108-204" v:mID="4108" v:groupContext="shape" transform="translate(4.155,-0.7275)">
					<title>shape69</title>
					<path d="M0 105.56 C0 105.41 0.07 105.33 0.22 105.33 C0.37 105.33 0.52 105.41 0.52 105.56 C0.52 105.71 0.37 105.86
								 0.22 105.86 C0.07 105.86 0 105.71 0 105.56 Z" class="st22"/>
				</g>
				<g id="shape4109-208" v:mID="4109" v:groupContext="shape" transform="translate(7.3575,-3.9)">
					<title>shape70</title>
					<path d="M0 105.56 C0 105.41 0.07 105.33 0.22 105.33 C0.37 105.33 0.52 105.41 0.52 105.56 C0.52 105.71 0.37 105.86
								 0.22 105.86 C0.07 105.86 0 105.71 0 105.56 Z" class="st22"/>
				</g>
			</g>
		</g>
	</g>
</svg>
