<?xml version="1.0" encoding="UTF-8" standalone="no"?>
<!DOCTYPE svg PUBLIC "-//W3C//DTD SVG 1.1//EN" "http://www.w3.org/Graphics/SVG/1.1/DTD/svg11.dtd">
<!-- 由 Microsoft Visio, SVG Export 生成 化学15.svg 页-1 -->
<svg xmlns="http://www.w3.org/2000/svg" xmlns:xlink="http://www.w3.org/1999/xlink" xmlns:ev="http://www.w3.org/2001/xml-events"
		xmlns:v="http://schemas.microsoft.com/visio/2003/SVGExtensions/" width="0.729167in" height="1.79219in"
		viewBox="0 0 52.5 129.037" xml:space="preserve" color-interpolation-filters="sRGB" class="st4">
	<v:documentProperties v:langID="2052" v:metric="true" v:viewMarkup="false"/>

	<style type="text/css">
	<![CDATA[
		.st1 {fill:url(#grad0-5);stroke:none;stroke-linecap:butt;stroke-width:0.75}
		.st2 {fill:url(#grad0-9);stroke:none;stroke-linecap:butt;stroke-width:0.75}
		.st3 {fill:url(#grad0-19);stroke:none;stroke-linecap:butt;stroke-width:0.75}
		.st4 {fill:none;fill-rule:evenodd;font-size:12px;overflow:visible;stroke-linecap:square;stroke-miterlimit:3}
	]]>
	</style>

	<defs id="Patterns_And_Gradients">
		<linearGradient id="grad0-5" x1="0" y1="0" x2="1" y2="0" gradientTransform="rotate(-180 0.5 0.5)">
			<stop offset="0" stop-color="#9d9793" stop-opacity="1"/>
			<stop offset="0.15" stop-color="#d7d0cb" stop-opacity="1"/>
			<stop offset="0.25" stop-color="#e9e5e2" stop-opacity="1"/>
			<stop offset="0.52" stop-color="#b9b3ae" stop-opacity="1"/>
			<stop offset="0.69" stop-color="#a59f9b" stop-opacity="1"/>
			<stop offset="0.8" stop-color="#9b9692" stop-opacity="1"/>
			<stop offset="0.92" stop-color="#938e89" stop-opacity="1"/>
			<stop offset="1" stop-color="#a9a39e" stop-opacity="1"/>
		</linearGradient>
		<linearGradient id="grad0-9" x1="0" y1="0" x2="1" y2="0" gradientTransform="rotate(-180 0.5 0.5)">
			<stop offset="0" stop-color="#aca9a7" stop-opacity="1"/>
			<stop offset="0.15" stop-color="#e9e6e4" stop-opacity="1"/>
			<stop offset="0.25" stop-color="#f3f1f0" stop-opacity="1"/>
			<stop offset="0.52" stop-color="#cbc7c6" stop-opacity="1"/>
			<stop offset="0.69" stop-color="#b5b1b0" stop-opacity="1"/>
			<stop offset="0.8" stop-color="#aaa7a6" stop-opacity="1"/>
			<stop offset="0.92" stop-color="#a19e9c" stop-opacity="1"/>
			<stop offset="1" stop-color="#b9b6b4" stop-opacity="1"/>
		</linearGradient>
		<linearGradient id="grad0-19" x1="0" y1="0" x2="1" y2="0" gradientTransform="rotate(90 0.5 0.5)">
			<stop offset="0" stop-color="#8b8784" stop-opacity="1"/>
			<stop offset="0.15" stop-color="#c2bcb9" stop-opacity="1"/>
			<stop offset="0.25" stop-color="#dedbda" stop-opacity="1"/>
			<stop offset="0.52" stop-color="#a5a09c" stop-opacity="1"/>
			<stop offset="0.69" stop-color="#938e8b" stop-opacity="1"/>
			<stop offset="0.8" stop-color="#8a8683" stop-opacity="1"/>
			<stop offset="0.92" stop-color="#827e7b" stop-opacity="1"/>
			<stop offset="1" stop-color="#96918e" stop-opacity="1"/>
		</linearGradient>
	</defs>
	<g v:mID="0" v:index="1" v:groupContext="foregroundPage">
		<title>页-1</title>
		<v:pageProperties v:drawingScale="0.0393701" v:pageScale="0.0393701" v:drawingUnits="24" v:shadowOffsetX="8.50394"
				v:shadowOffsetY="-8.50394"/>
		<g id="group2273-1" transform="translate(0.75,-0.75)" v:mID="2273" v:groupContext="group">
			<title>蒸发器2</title>
			<g id="shape2274-2" v:mID="2274" v:groupContext="shape" transform="translate(13.1625,1.13687E-13)">
				<title>shape1</title>
				<path d="M0 7.91 L24.67 7.91 L24.67 129.04 L0 129.04 L0 7.91 Z" class="st1"/>
			</g>
			<g id="shape2275-6" v:mID="2275" v:groupContext="shape" transform="translate(0.045,-26.2575)">
				<title>shape2</title>
				<path d="M0 61.24 C0 61.24 1.05 54.19 14.77 52.54 C14.77 52.54 36.15 52.54 36.15 52.54 C49.95 53.29 50.92 61.24 50.92
							 61.24 L50.92 129.04 L0 129.04 L0 61.24 Z" class="st2"/>
			</g>
			<g id="shape2276-10" v:mID="2276" v:groupContext="shape" transform="translate(-2.15827E-13,232.088) scale(1,-1)">
				<title>shape3</title>
				<path d="M0 129.04 C0 129.04 1.05 116.59 14.77 113.66 C14.77 113.66 37.35 113.66 37.35 113.66 C50.4 116.59 51 129.04
							 51 129.04 L0 129.04 Z" class="st2"/>
			</g>
			<g id="shape2277-13" v:mID="2277" v:groupContext="shape" transform="translate(-2.15827E-13,-94.215)">
				<title>shape4</title>
				<path d="M0 129.04 C0 129.04 1.05 116.59 14.77 113.66 C14.77 113.66 36.97 113.59 36.97 113.59 C50.7 116.51 51 129.04
							 51 129.04 L0 129.04 Z" class="st2"/>
			</g>
			<g id="shape2278-16" v:mID="2278" v:groupContext="shape" transform="translate(0.045,-93.555)">
				<title>shape5</title>
				<path d="M0 127.99 L50.92 127.99 L50.92 129.04 L0 129.04 L0 127.99 Z" class="st3"/>
			</g>
			<g id="shape2279-20" v:mID="2279" v:groupContext="shape" transform="translate(0.045,-25.5375)">
				<title>shape6</title>
				<path d="M0 127.99 L50.92 127.99 L50.92 129.04 L0 129.04 L0 127.99 Z" class="st3"/>
			</g>
			<g id="shape2280-23" v:mID="2280" v:groupContext="shape" transform="translate(13.2,130.538) scale(1,-1)">
				<title>shape7</title>
				<path d="M0 122.44 L24.6 122.44 L24.6 123.79 C24.6 123.79 24.75 129.04 12.6 129.04 C0.45 129.04 0 123.79 0 123.79
							 L0 122.44 Z" class="st1"/>
			</g>
			<g id="shape2281-26" v:mID="2281" v:groupContext="shape" transform="translate(0.045,-72.5775)">
				<title>shape8</title>
				<path d="M0 127.99 L50.92 127.99 L50.92 129.04 L0 129.04 L0 127.99 Z" class="st3"/>
			</g>
			<g id="shape2282-29" v:mID="2282" v:groupContext="shape" transform="translate(0.045,-50.04)">
				<title>shape9</title>
				<path d="M0 127.99 L50.92 127.99 L50.92 129.04 L0 129.04 L0 127.99 Z" class="st3"/>
			</g>
		</g>
	</g>
</svg>
