<?xml version="1.0" encoding="UTF-8" standalone="no"?>
<!DOCTYPE svg PUBLIC "-//W3C//DTD SVG 1.1//EN" "http://www.w3.org/Graphics/SVG/1.1/DTD/svg11.dtd">
<!-- 由 Microsoft Visio, SVG Export 生成 化学3.svg 页-1 -->
<svg xmlns="http://www.w3.org/2000/svg" xmlns:xlink="http://www.w3.org/1999/xlink" xmlns:ev="http://www.w3.org/2001/xml-events"
		xmlns:v="http://schemas.microsoft.com/visio/2003/SVGExtensions/" width="1.10396in" height="1.63625in"
		viewBox="0 0 79.485 117.81" xml:space="preserve" color-interpolation-filters="sRGB" class="st13">
	<v:documentProperties v:langID="2052" v:metric="true" v:viewMarkup="false"/>

	<style type="text/css">
	<![CDATA[
		.st1 {fill:url(#grad0-6);stroke:none;stroke-linecap:butt;stroke-width:0.75}
		.st2 {fill:url(#grad0-19);stroke:none;stroke-linecap:butt;stroke-width:0.75}
		.st3 {fill:#b6bcbd;stroke:none;stroke-linecap:butt;stroke-width:0.75}
		.st4 {fill:#bec4c5;stroke:none;stroke-linecap:butt;stroke-width:0.75}
		.st5 {fill:#9ca0a2;stroke:none;stroke-linecap:butt;stroke-width:0.75}
		.st6 {fill:url(#grad0-54);stroke:none;stroke-linecap:butt;stroke-width:0.75}
		.st7 {fill:url(#grad0-59);stroke:none;stroke-linecap:butt;stroke-width:0.75}
		.st8 {fill:url(#grad0-63);stroke:none;stroke-linecap:butt;stroke-width:0.75}
		.st9 {fill:url(#grad0-74);stroke:none;stroke-linecap:butt;stroke-width:0.75}
		.st10 {fill:url(#grad0-78);stroke:none;stroke-linecap:butt;stroke-width:0.75}
		.st11 {fill:#bac0c1;stroke:none;stroke-linecap:butt;stroke-width:0.75}
		.st12 {fill:url(#grad0-128);stroke:none;stroke-linecap:butt;stroke-width:0.75}
		.st13 {fill:none;fill-rule:evenodd;font-size:12px;overflow:visible;stroke-linecap:square;stroke-miterlimit:3}
	]]>
	</style>

	<defs id="Patterns_And_Gradients">
		<linearGradient id="grad0-6" x1="0" y1="0" x2="1" y2="0" gradientTransform="rotate(-90 0.5 0.5)">
			<stop offset="0" stop-color="#8b8e91" stop-opacity="1"/>
			<stop offset="0.15" stop-color="#c2c5c8" stop-opacity="1"/>
			<stop offset="0.25" stop-color="#dedfe1" stop-opacity="1"/>
			<stop offset="0.52" stop-color="#a5a8ab" stop-opacity="1"/>
			<stop offset="0.69" stop-color="#939598" stop-opacity="1"/>
			<stop offset="0.8" stop-color="#8a8c8f" stop-opacity="1"/>
			<stop offset="0.92" stop-color="#828487" stop-opacity="1"/>
			<stop offset="1" stop-color="#96999c" stop-opacity="1"/>
		</linearGradient>
		<linearGradient id="grad0-19" x1="0" y1="0" x2="1" y2="0" gradientTransform="rotate(-90 0.5 0.5)">
			<stop offset="0" stop-color="#75787b" stop-opacity="1"/>
			<stop offset="0.15" stop-color="#a8abaf" stop-opacity="1"/>
			<stop offset="0.25" stop-color="#d2d3d5" stop-opacity="1"/>
			<stop offset="0.52" stop-color="#8b8f93" stop-opacity="1"/>
			<stop offset="0.69" stop-color="#7c7f82" stop-opacity="1"/>
			<stop offset="0.8" stop-color="#74777a" stop-opacity="1"/>
			<stop offset="0.92" stop-color="#6e7073" stop-opacity="1"/>
			<stop offset="1" stop-color="#7f8285" stop-opacity="1"/>
		</linearGradient>
		<linearGradient id="grad0-54" x1="0" y1="0" x2="1" y2="0" gradientTransform="rotate(90 0.5 0.5)">
			<stop offset="0" stop-color="#bac0c1" stop-opacity="1"/>
			<stop offset="0.15" stop-color="#f4fafc" stop-opacity="1"/>
			<stop offset="0.25" stop-color="#f8fcfd" stop-opacity="1"/>
			<stop offset="0.44" stop-color="#d5dbdd" stop-opacity="1"/>
			<stop offset="0.6" stop-color="#bdc3c4" stop-opacity="1"/>
			<stop offset="0.8" stop-color="#a0a4a6" stop-opacity="1"/>
			<stop offset="0.97" stop-color="#929697" stop-opacity="1"/>
			<stop offset="1" stop-color="#c2c7c9" stop-opacity="1"/>
		</linearGradient>
		<linearGradient id="grad0-59" x1="0" y1="0" x2="1" y2="0" gradientTransform="rotate(-180 0.5 0.5)">
			<stop offset="0" stop-color="#adaeae" stop-opacity="1"/>
			<stop offset="0.03" stop-color="#f7f8f8" stop-opacity="1"/>
			<stop offset="0.08" stop-color="#e2e3e3" stop-opacity="1"/>
			<stop offset="0.64" stop-color="#dedfdf" stop-opacity="1"/>
			<stop offset="0.95" stop-color="#d9dada" stop-opacity="1"/>
			<stop offset="1" stop-color="#a1a2a2" stop-opacity="1"/>
		</linearGradient>
		<linearGradient id="grad0-63" x1="0" y1="0" x2="1" y2="0" gradientTransform="rotate(-180 0.5 0.5)">
			<stop offset="0" stop-color="#969b9c" stop-opacity="1"/>
			<stop offset="0.03" stop-color="#dee3e4" stop-opacity="1"/>
			<stop offset="0.08" stop-color="#c4cacb" stop-opacity="1"/>
			<stop offset="0.64" stop-color="#c1c6c8" stop-opacity="1"/>
			<stop offset="0.95" stop-color="#bcc2c4" stop-opacity="1"/>
			<stop offset="1" stop-color="#8b8f91" stop-opacity="1"/>
		</linearGradient>
		<linearGradient id="grad0-74" x1="0" y1="0" x2="1" y2="0" gradientTransform="rotate(-180 0.5 0.5)">
			<stop offset="0" stop-color="#8c9192" stop-opacity="1"/>
			<stop offset="0.15" stop-color="#bdc3c4" stop-opacity="1"/>
			<stop offset="0.25" stop-color="#dcdedf" stop-opacity="1"/>
			<stop offset="0.44" stop-color="#a1a6a7" stop-opacity="1"/>
			<stop offset="0.6" stop-color="#8f9394" stop-opacity="1"/>
			<stop offset="0.8" stop-color="#787c7c" stop-opacity="1"/>
			<stop offset="0.97" stop-color="#6d7172" stop-opacity="1"/>
			<stop offset="1" stop-color="#929798" stop-opacity="1"/>
		</linearGradient>
		<linearGradient id="grad0-78" x1="0" y1="0" x2="1" y2="0" gradientTransform="rotate(-180 0.5 0.5)">
			<stop offset="0" stop-color="#bac0c1" stop-opacity="1"/>
			<stop offset="0.15" stop-color="#f4fafc" stop-opacity="1"/>
			<stop offset="0.25" stop-color="#f8fcfd" stop-opacity="1"/>
			<stop offset="0.44" stop-color="#d5dbdd" stop-opacity="1"/>
			<stop offset="0.6" stop-color="#bdc3c4" stop-opacity="1"/>
			<stop offset="0.8" stop-color="#a0a4a6" stop-opacity="1"/>
			<stop offset="0.97" stop-color="#929697" stop-opacity="1"/>
			<stop offset="1" stop-color="#c2c7c9" stop-opacity="1"/>
		</linearGradient>
		<linearGradient id="grad0-128" x1="0" y1="0" x2="1" y2="0" gradientTransform="rotate(90 0.5 0.5)">
			<stop offset="0" stop-color="#969a9b" stop-opacity="1"/>
			<stop offset="0.15" stop-color="#c8cecf" stop-opacity="1"/>
			<stop offset="0.25" stop-color="#e1e4e4" stop-opacity="1"/>
			<stop offset="0.44" stop-color="#abb1b1" stop-opacity="1"/>
			<stop offset="0.6" stop-color="#989d9e" stop-opacity="1"/>
			<stop offset="0.8" stop-color="#808485" stop-opacity="1"/>
			<stop offset="0.97" stop-color="#757879" stop-opacity="1"/>
			<stop offset="1" stop-color="#9ca1a1" stop-opacity="1"/>
		</linearGradient>
	</defs>
	<g v:mID="0" v:index="1" v:groupContext="foregroundPage">
		<title>页-1</title>
		<v:pageProperties v:drawingScale="0.0393701" v:pageScale="0.0393701" v:drawingUnits="24" v:shadowOffsetX="8.50394"
				v:shadowOffsetY="-8.50394"/>
		<g id="group1909-1" transform="translate(0.75,-0.75)" v:mID="1909" v:groupContext="group">
			<title>化学剂混合罐</title>
			<g id="group1910-2" transform="translate(21.9225,-74.235)" v:mID="1910" v:groupContext="group">
				<title>工作表.1910</title>
				<g id="shape1911-3" v:mID="1911" v:groupContext="shape" transform="translate(-92.46,117.81) rotate(-90)">
					<title>shape1</title>
					<path d="M0 101.68 L1.95 101.68 L1.95 117.81 L0 117.81 L0 101.68 Z" class="st1"/>
				</g>
				<g id="shape1912-7" v:mID="1912" v:groupContext="shape" transform="translate(-89.235,116.01) rotate(-90)">
					<title>shape2</title>
					<path d="M0.53 94.48 L3.08 94.48 L3.08 117.81 L0.53 117.81 C0.23 117.81 0 117.51 0 117.21 L0 95.01 C0 94.71 0.23
								 94.48 0.53 94.48 Z" class="st1"/>
				</g>
				<g id="shape1913-10" v:mID="1913" v:groupContext="shape" transform="translate(-88.785,111.585) rotate(-90)">
					<title>shape3</title>
					<path d="M0 93.58 L24.97 93.58 L24.97 117.81 L0 117.81 L0 93.58 Z" class="st1"/>
				</g>
				<g id="shape1914-13" v:mID="1914" v:groupContext="shape" transform="translate(-88.785,86.835) rotate(-90)">
					<title>shape4</title>
					<path d="M0 93.58 L8.85 93.58 C8.85 93.58 11.1 93.58 11.1 105.66 C11.1 117.73 8.85 117.81 8.85 117.81 L0 117.81
								 L0 93.58 Z" class="st1"/>
				</g>
				<g id="shape1915-16" v:mID="1915" v:groupContext="shape" transform="translate(-88.785,86.91) rotate(-90)">
					<title>shape5</title>
					<path d="M0 93.58 L0.45 117.81 L0 93.58 Z" class="st2"/>
				</g>
				<g id="shape1916-20" v:mID="1916" v:groupContext="shape"
						transform="translate(-88.185,111.51) rotate(-90) scale(-1,1)">
					<title>shape6</title>
					<path d="M0.23 92.31 L1.2 92.31 C1.35 92.31 1.5 92.38 1.5 92.53 L1.5 117.58 C1.5 117.73 1.35 117.81 1.2 117.81
								 L0.23 117.81 C0.08 117.81 0 117.73 0 117.58 L0 92.53 C0 92.38 0.08 92.31 0.23 92.31 Z" class="st2"/>
				</g>
				<g id="shape1917-23" v:mID="1917" v:groupContext="shape"
						transform="translate(-88.185,112.11) rotate(-90) scale(-1,1)">
					<title>shape7</title>
					<path d="M0.3 92.31 C0.75 92.31 0.9 92.46 0.9 92.53 L0.9 117.51 C0.9 117.66 0.75 117.81 0.6 117.81 C0.15 117.81
								 0 117.66 0 117.51 L0 92.53 C0 92.46 0.15 92.31 0.3 92.31 Z" class="st1"/>
				</g>
				<g id="shape1918-26" v:mID="1918" v:groupContext="shape" transform="translate(-86.31,110.535) rotate(-90)">
					<title>shape8</title>
					<path d="M0 111.66 L22.72 111.66 L22.72 117.81 L0 117.81 L0 111.66 Z" class="st3"/>
				</g>
				<g id="group1919-28" transform="translate(-94.89,108.885) rotate(-90)" v:mID="1919" v:groupContext="group">
					<title>工作表.1919</title>
					<g id="shape1920-29" v:mID="1920" v:groupContext="shape" transform="translate(7.99361E-14,-11.895)">
						<title>shape9</title>
						<path d="M0.23 116.98 L21.38 116.98 C21.53 116.98 21.6 117.06 21.6 117.21 C21.6 117.66 21.53 117.81 21.38
									 117.81 L0.23 117.81 C0.08 117.81 0 117.66 0 117.51 C0 117.06 0.08 116.98 0.23 116.98 Z"
								class="st1"/>
					</g>
					<g id="shape1921-32" v:mID="1921" v:groupContext="shape" transform="translate(7.99361E-14,-9.5175)">
						<title>shape10</title>
						<path d="M0.23 116.98 L21.38 116.98 C21.53 116.98 21.6 117.06 21.6 117.21 C21.6 117.66 21.53 117.81 21.38
									 117.81 L0.23 117.81 C0.08 117.81 0 117.66 0 117.51 C0 117.06 0.08 116.98 0.23 116.98 Z"
								class="st1"/>
					</g>
					<g id="shape1922-35" v:mID="1922" v:groupContext="shape" transform="translate(7.99361E-14,-7.14)">
						<title>shape11</title>
						<path d="M0.23 116.98 L21.38 116.98 C21.53 116.98 21.6 117.06 21.6 117.21 C21.6 117.66 21.53 117.81 21.38
									 117.81 L0.23 117.81 C0.08 117.81 0 117.66 0 117.51 C0 117.06 0.08 116.98 0.23 116.98 Z"
								class="st1"/>
					</g>
					<g id="shape1923-38" v:mID="1923" v:groupContext="shape" transform="translate(7.99361E-14,-4.755)">
						<title>shape12</title>
						<path d="M0.23 116.98 L21.38 116.98 C21.53 116.98 21.6 117.06 21.6 117.21 C21.6 117.66 21.53 117.81 21.38
									 117.81 L0.23 117.81 C0.08 117.81 0 117.66 0 117.51 C0 117.06 0.08 116.98 0.23 116.98 Z"
								class="st1"/>
					</g>
					<g id="shape1924-41" v:mID="1924" v:groupContext="shape" transform="translate(7.99361E-14,-2.3775)">
						<title>shape13</title>
						<path d="M0.23 116.98 L21.38 116.98 C21.53 116.98 21.6 117.06 21.6 117.21 C21.6 117.66 21.53 117.81 21.38
									 117.81 L0.23 117.81 C0.08 117.81 0 117.66 0 117.51 C0 117.06 0.08 116.98 0.23 116.98 Z"
								class="st1"/>
					</g>
					<g id="shape1925-44" v:mID="1925" v:groupContext="shape">
						<title>shape14</title>
						<path d="M0.23 116.98 L21.38 116.98 C21.53 116.98 21.6 117.06 21.6 117.21 C21.6 117.66 21.53 117.81 21.38
									 117.81 L0.23 117.81 C0.08 117.81 0 117.66 0 117.51 C0 117.06 0.08 116.98 0.23 116.98 Z"
								class="st1"/>
					</g>
				</g>
				<g id="shape1926-47" v:mID="1926" v:groupContext="shape" transform="translate(-113.01,111.285) rotate(-90)">
					<title>shape15</title>
					<path d="M0 113.53 L12.45 113.53 L11.1 117.81 L1.35 117.81 L0 113.53 Z" class="st4"/>
				</g>
				<g id="shape1927-49" v:mID="1927" v:groupContext="shape" transform="translate(-116.91,111.585) rotate(-90)">
					<title>shape16</title>
					<path d="M0.15 116.91 L12.9 116.91 C12.97 116.91 13.05 116.98 13.05 117.06 C13.05 117.73 12.97 117.81 12.9 117.81
								 L0.15 117.81 C0.07 117.81 0 117.73 0 117.66 C0 116.98 0.07 116.91 0.15 116.91 Z" class="st5"/>
				</g>
			</g>
			<g id="shape1928-51" v:mID="1928" v:groupContext="shape" transform="translate(10.5825,-10.53)">
				<title>shape17</title>
				<path d="M0 116.61 L60.6 116.61 L60.6 117.81 L0 117.81 L0 116.61 Z" class="st6"/>
			</g>
			<g id="group1929-55" transform="translate(71.0175,-2.55)" v:mID="1929" v:groupContext="group">
				<title>工作表.1929</title>
				<g id="shape1930-56" v:mID="1930" v:groupContext="shape">
					<title>shape18</title>
					<path d="M0 63.81 L4.2 63.81 L4.2 117.81 L0 117.81 L0 63.81 Z" class="st7"/>
				</g>
				<g id="shape1931-60" v:mID="1931" v:groupContext="shape" transform="translate(-2.44804E-14,-24.675)">
					<title>shape19</title>
					<path d="M0 88.48 L4.2 88.48 L4.2 117.81 L0 117.81 L0 88.48 Z" class="st8"/>
				</g>
			</g>
			<g id="group1932-64" transform="translate(6.87,-2.55)" v:mID="1932" v:groupContext="group">
				<title>工作表.1932</title>
				<g id="shape1933-65" v:mID="1933" v:groupContext="shape">
					<title>shape20</title>
					<path d="M0 63.81 L4.2 63.81 L4.2 117.81 L0 117.81 L0 63.81 Z" class="st7"/>
				</g>
				<g id="shape1934-68" v:mID="1934" v:groupContext="shape" transform="translate(1.4988E-14,-24.675)">
					<title>shape21</title>
					<path d="M0 88.48 L4.2 88.48 L4.2 117.81 L0 117.81 L0 88.48 Z" class="st8"/>
				</g>
			</g>
			<g id="shape1935-71" v:mID="1935" v:groupContext="shape" transform="translate(30.2025,-6.2625)">
				<title>shape22</title>
				<path d="M0 108.21 L4.95 108.21 L4.95 117.81 L0 117.81 L0 108.21 Z" class="st9"/>
			</g>
			<g id="shape1936-75" v:mID="1936" v:groupContext="shape" transform="translate(29.6025,-4.9875)">
				<title>shape23</title>
				<path d="M0 114.81 C0 113.08 1.35 111.74 3.07 111.74 C4.72 111.74 6.07 113.08 6.07 114.81 C6.07 116.46 4.72 117.81
							 3.07 117.81 C1.35 117.81 0 116.46 0 114.81 Z" class="st10"/>
			</g>
			<g id="shape1937-79" v:mID="1937" v:groupContext="shape" transform="translate(30.48,-5.8275)">
				<title>shape24</title>
				<path d="M0 115.64 C0 114.43 0.97 113.46 2.17 113.46 C3.37 113.46 4.35 114.43 4.35 115.64 C4.35 116.83 3.37 117.81
							 2.17 117.81 C0.97 117.81 0 116.83 0 115.64 Z" class="st11"/>
			</g>
			<g id="shape1938-81" v:mID="1938" v:groupContext="shape" transform="translate(37.0725,-6.2625)">
				<title>shape25</title>
				<path d="M0 108.21 L4.95 108.21 L4.95 117.81 L0 117.81 L0 108.21 Z" class="st9"/>
			</g>
			<g id="shape1939-84" v:mID="1939" v:groupContext="shape" transform="translate(36.4725,-4.9875)">
				<title>shape26</title>
				<path d="M0 114.81 C0 113.08 1.35 111.74 3.07 111.74 C4.72 111.74 6.07 113.08 6.07 114.81 C6.07 116.46 4.72 117.81
							 3.07 117.81 C1.35 117.81 0 116.46 0 114.81 Z" class="st10"/>
			</g>
			<g id="shape1940-87" v:mID="1940" v:groupContext="shape" transform="translate(37.3575,-5.8275)">
				<title>shape27</title>
				<path d="M0 115.64 C0 114.43 0.97 113.46 2.17 113.46 C3.37 113.46 4.35 114.43 4.35 115.64 C4.35 116.83 3.37 117.81
							 2.17 117.81 C0.97 117.81 0 116.83 0 115.64 Z" class="st11"/>
			</g>
			<g id="shape1941-89" v:mID="1941" v:groupContext="shape" transform="translate(43.95,-6.2625)">
				<title>shape28</title>
				<path d="M0 108.21 L4.95 108.21 L4.95 117.81 L0 117.81 L0 108.21 Z" class="st9"/>
			</g>
			<g id="shape1942-92" v:mID="1942" v:groupContext="shape" transform="translate(43.35,-4.9875)">
				<title>shape29</title>
				<path d="M0 114.81 C0 113.08 1.35 111.74 3.07 111.74 C4.72 111.74 6.07 113.08 6.07 114.81 C6.07 116.46 4.72 117.81
							 3.07 117.81 C1.35 117.81 0 116.46 0 114.81 Z" class="st10"/>
			</g>
			<g id="shape1943-95" v:mID="1943" v:groupContext="shape" transform="translate(44.2275,-5.8275)">
				<title>shape30</title>
				<path d="M0 115.64 C0 114.43 0.97 113.46 2.17 113.46 C3.37 113.46 4.35 114.43 4.35 115.64 C4.35 116.83 3.37 117.81
							 2.17 117.81 C0.97 117.81 0 116.83 0 115.64 Z" class="st11"/>
			</g>
			<g id="shape1944-97" v:mID="1944" v:groupContext="shape" transform="translate(8.9775,-5.67)">
				<title>shape31</title>
				<path d="M0 116.61 L63.52 116.61 L63.52 117.81 L0 117.81 L0 116.61 Z" class="st6"/>
			</g>
			<g id="shape1945-100" v:mID="1945" v:groupContext="shape" transform="translate(72.315,-3.69482E-13)">
				<title>shape32</title>
				<path d="M0 61.26 L4.2 61.26 L4.2 117.81 L0 117.81 L0 61.26 Z" class="st7"/>
			</g>
			<g id="shape1946-103" v:mID="1946" v:groupContext="shape" transform="translate(13.395,-37.8525)">
				<title>shape33</title>
				<path d="M0 82.86 L52.28 82.86 L52.28 117.81 L0 117.81 L0 82.86 Z" class="st10"/>
			</g>
			<g id="shape1947-106" v:mID="1947" v:groupContext="shape" transform="translate(13.395,-11.37)">
				<title>shape34</title>
				<path d="M0 91.33 L52.27 91.33 L52.27 96.66 C52.27 96.66 52.5 117.81 26.7 117.81 C0.9 117.81 0 96.66 0 96.66 L0 91.33
							 Z" class="st10"/>
			</g>
			<g id="shape1948-109" v:mID="1948" v:groupContext="shape" transform="translate(3.9225,-53.625)">
				<title>shape35</title>
				<path d="M0 114.88 L68.4 114.88 L68.4 117.81 L0 117.81 L0 114.88 Z" class="st6"/>
			</g>
			<g id="shape1949-112" v:mID="1949" v:groupContext="shape" transform="translate(12.675,-72.81)">
				<title>shape36</title>
				<path d="M0.75 116.31 L52.95 116.31 C53.33 116.31 53.7 116.61 53.7 117.06 C53.7 117.51 53.33 117.81 52.95 117.81
							 L0.75 117.81 C0.3 117.81 0 117.51 0 117.06 C0 116.61 0.3 116.31 0.75 116.31 Z" class="st10"/>
			</g>
			<g id="shape1950-115" v:mID="1950" v:groupContext="shape" transform="translate(72.315,-25.8)">
				<title>shape37</title>
				<path d="M0 87.06 L4.2 87.06 L4.2 117.81 L0 117.81 L0 87.06 Z" class="st8"/>
			</g>
			<g id="group1951-118" transform="translate(5.4225,-0.2175)" v:mID="1951" v:groupContext="group">
				<title>工作表.1951</title>
				<g id="shape1952-119" v:mID="1952" v:groupContext="shape">
					<title>shape38</title>
					<path d="M0 61.26 L4.2 61.26 L4.2 117.81 L0 117.81 L0 61.26 Z" class="st7"/>
				</g>
				<g id="shape1953-122" v:mID="1953" v:groupContext="shape" transform="translate(1.4988E-14,-25.8)">
					<title>shape39</title>
					<path d="M0 87.06 L4.2 87.06 L4.2 117.81 L0 117.81 L0 87.06 Z" class="st8"/>
				</g>
			</g>
			<g id="shape1954-125" v:mID="1954" v:groupContext="shape" transform="translate(69.135,-53.685)">
				<title>shape40</title>
				<path d="M0.75 114.73 L8.1 114.73 C8.55 114.73 8.85 115.03 8.85 115.48 L8.85 117.06 C8.85 117.51 8.55 117.81 8.1
							 117.81 L0.75 117.81 C0.3 117.81 0 117.51 0 117.06 L0 115.48 C0 115.03 0.3 114.73 0.75 114.73 Z"
						class="st12"/>
			</g>
			<g id="shape1955-129" v:mID="1955" v:groupContext="shape" transform="translate(3.0975,-53.685)">
				<title>shape41</title>
				<path d="M0.75 114.73 L8.1 114.73 C8.55 114.73 8.85 115.03 8.85 115.48 L8.85 117.06 C8.85 117.51 8.55 117.81 8.1
							 117.81 L0.75 117.81 C0.3 117.81 0 117.51 0 117.06 L0 115.48 C0 115.03 0.3 114.73 0.75 114.73 Z"
						class="st12"/>
			</g>
			<g id="shape1956-132" v:mID="1956" v:groupContext="shape" transform="translate(-3.44724E-14,-44.865)">
				<title>shape42</title>
				<path d="M1.88 97.33 C3.23 97.33 4.13 98.16 4.13 99.21 L4.13 115.93 C4.13 116.98 3.23 117.81 2.25 117.81 C0.83 117.81
							 0 116.98 0 115.93 L0 99.21 C0 98.16 0.83 97.33 1.88 97.33 Z" class="st6"/>
			</g>
		</g>
	</g>
</svg>
