<?xml version="1.0" encoding="UTF-8" standalone="no"?>
<!DOCTYPE svg PUBLIC "-//W3C//DTD SVG 1.1//EN" "http://www.w3.org/Graphics/SVG/1.1/DTD/svg11.dtd">
<!-- 由 Microsoft Visio, SVG Export 生成 化学32.svg 页-1 -->
<svg xmlns="http://www.w3.org/2000/svg" xmlns:xlink="http://www.w3.org/1999/xlink" xmlns:ev="http://www.w3.org/2001/xml-events"
		xmlns:v="http://schemas.microsoft.com/visio/2003/SVGExtensions/" width="0.761458in" height="1.67708in"
		viewBox="0 0 54.825 120.75" xml:space="preserve" color-interpolation-filters="sRGB" class="st8">
	<v:documentProperties v:langID="2052" v:metric="true" v:viewMarkup="false"/>

	<style type="text/css">
	<![CDATA[
		.st1 {fill:url(#grad0-5);stroke:none;stroke-linecap:butt;stroke-width:0.75}
		.st2 {fill:url(#grad0-9);stroke:none;stroke-linecap:butt;stroke-width:0.75}
		.st3 {fill:url(#grad0-13);stroke:none;stroke-linecap:butt;stroke-width:0.75}
		.st4 {fill:url(#grad0-23);stroke:none;stroke-linecap:butt;stroke-width:0.75}
		.st5 {fill:url(#grad0-27);stroke:none;stroke-linecap:butt;stroke-width:0.75}
		.st6 {fill:url(#grad0-44);stroke:none;stroke-linecap:butt;stroke-width:0.75}
		.st7 {fill:url(#grad0-48);stroke:#9e9f9f;stroke-linecap:butt;stroke-width:0.1875}
		.st8 {fill:none;fill-rule:evenodd;font-size:12px;overflow:visible;stroke-linecap:square;stroke-miterlimit:3}
	]]>
	</style>

	<defs id="Patterns_And_Gradients">
		<linearGradient id="grad0-5" x1="0" y1="0" x2="1" y2="0" gradientTransform="rotate(-180 0.5 0.5)">
			<stop offset="0" stop-color="#b6baba" stop-opacity="1"/>
			<stop offset="0.15" stop-color="#eef3f4" stop-opacity="1"/>
			<stop offset="0.25" stop-color="#f5f8f8" stop-opacity="1"/>
			<stop offset="0.52" stop-color="#cfd4d5" stop-opacity="1"/>
			<stop offset="0.69" stop-color="#b9bdbd" stop-opacity="1"/>
			<stop offset="0.8" stop-color="#aeb2b3" stop-opacity="1"/>
			<stop offset="0.97" stop-color="#a4a8a9" stop-opacity="1"/>
			<stop offset="1" stop-color="#bdc1c2" stop-opacity="1"/>
		</linearGradient>
		<linearGradient id="grad0-9" x1="0" y1="0" x2="1" y2="0" gradientTransform="rotate(-180 0.5 0.5)">
			<stop offset="0" stop-color="#bac0c1" stop-opacity="1"/>
			<stop offset="0.15" stop-color="#f4fafc" stop-opacity="1"/>
			<stop offset="0.25" stop-color="#f8fcfd" stop-opacity="1"/>
			<stop offset="0.52" stop-color="#d5dbdd" stop-opacity="1"/>
			<stop offset="0.69" stop-color="#bdc3c4" stop-opacity="1"/>
			<stop offset="0.8" stop-color="#b3b8b9" stop-opacity="1"/>
			<stop offset="0.97" stop-color="#a9aeaf" stop-opacity="1"/>
			<stop offset="1" stop-color="#c2c7c9" stop-opacity="1"/>
		</linearGradient>
		<linearGradient id="grad0-13" x1="0" y1="0" x2="1" y2="0" gradientTransform="rotate(-180 0.5 0.5)">
			<stop offset="0" stop-color="#a5adaf" stop-opacity="1"/>
			<stop offset="0.15" stop-color="#dbe4e7" stop-opacity="1"/>
			<stop offset="0.25" stop-color="#ebf0f1" stop-opacity="1"/>
			<stop offset="0.52" stop-color="#bdc6c8" stop-opacity="1"/>
			<stop offset="0.69" stop-color="#a8b0b2" stop-opacity="1"/>
			<stop offset="0.8" stop-color="#9ea6a8" stop-opacity="1"/>
			<stop offset="0.97" stop-color="#959c9f" stop-opacity="1"/>
			<stop offset="1" stop-color="#acb4b6" stop-opacity="1"/>
		</linearGradient>
		<linearGradient id="grad0-23" x1="0" y1="0" x2="1" y2="0" gradientTransform="rotate(-180 0.5 0.5)">
			<stop offset="0" stop-color="#9fa0a0" stop-opacity="1"/>
			<stop offset="0.15" stop-color="#dadbdb" stop-opacity="1"/>
			<stop offset="0.25" stop-color="#dddede" stop-opacity="1"/>
			<stop offset="0.52" stop-color="#b3b4b4" stop-opacity="1"/>
			<stop offset="0.69" stop-color="#9fa0a0" stop-opacity="1"/>
			<stop offset="0.8" stop-color="#969797" stop-opacity="1"/>
			<stop offset="0.92" stop-color="#8e8e8e" stop-opacity="1"/>
		</linearGradient>
		<linearGradient id="grad0-27" x1="0" y1="0" x2="1" y2="0" gradientTransform="rotate(-180 0.5 0.5)">
			<stop offset="0" stop-color="#b9b9b9" stop-opacity="1"/>
			<stop offset="0.15" stop-color="#f2f2f2" stop-opacity="1"/>
			<stop offset="0.25" stop-color="#f3f3f3" stop-opacity="1"/>
			<stop offset="0.52" stop-color="#d0d0d0" stop-opacity="1"/>
			<stop offset="0.69" stop-color="#b9b9b9" stop-opacity="1"/>
			<stop offset="0.8" stop-color="#afafaf" stop-opacity="1"/>
			<stop offset="0.92" stop-color="#a5a5a5" stop-opacity="1"/>
		</linearGradient>
		<linearGradient id="grad0-44" x1="0" y1="0" x2="1" y2="0" gradientTransform="rotate(90 0.5 0.5)">
			<stop offset="0" stop-color="#b9b9b9" stop-opacity="1"/>
			<stop offset="0.15" stop-color="#f2f2f2" stop-opacity="1"/>
			<stop offset="0.25" stop-color="#f3f3f3" stop-opacity="1"/>
			<stop offset="0.52" stop-color="#d0d0d0" stop-opacity="1"/>
			<stop offset="0.69" stop-color="#b9b9b9" stop-opacity="1"/>
			<stop offset="0.8" stop-color="#afafaf" stop-opacity="1"/>
			<stop offset="0.92" stop-color="#a5a5a5" stop-opacity="1"/>
		</linearGradient>
		<linearGradient id="grad0-48" x1="0" y1="0" x2="1" y2="0" gradientTransform="rotate(-180 0.5 0.5)">
			<stop offset="0" stop-color="#7a7b7b" stop-opacity="1"/>
			<stop offset="0.15" stop-color="#bbbcbc" stop-opacity="1"/>
			<stop offset="0.25" stop-color="#c1c1c1" stop-opacity="1"/>
			<stop offset="0.52" stop-color="#8a8b8b" stop-opacity="1"/>
			<stop offset="0.69" stop-color="#7a7b7b" stop-opacity="1"/>
			<stop offset="0.8" stop-color="#737474" stop-opacity="1"/>
			<stop offset="0.92" stop-color="#6c6d6d" stop-opacity="1"/>
		</linearGradient>
	</defs>
	<g v:mID="0" v:index="1" v:groupContext="foregroundPage">
		<title>页-1</title>
		<v:pageProperties v:drawingScale="0.0393701" v:pageScale="0.0393701" v:drawingUnits="24" v:shadowOffsetX="8.50394"
				v:shadowOffsetY="-8.50394"/>
		<g id="group3006-1" transform="translate(0.75,-0.75)" v:mID="3006" v:groupContext="group">
			<title>剥离器</title>
			<g id="shape3007-2" v:mID="3007" v:groupContext="shape" transform="translate(7.0725,-96.435)">
				<title>shape1</title>
				<path d="M0 120.75 L39.15 120.75 L39.15 114.82 L0 114.82 L0 120.75 Z" class="st1"/>
			</g>
			<g id="shape3008-6" v:mID="3008" v:groupContext="shape" transform="translate(0.045,3.12639E-13)">
				<title>shape2</title>
				<path d="M0 28.5 C0 28.5 0.37 24.9 7.05 24.15 C7.05 24.15 46.2 24.15 46.2 24.15 C53.25 25.05 53.25 28.5 53.25 28.5
							 L53.25 108.37 C53.25 108.37 53.4 120.67 26.77 120.75 C0.22 120.75 0 108.37 0 108.37 L0 28.5 Z"
						class="st2"/>
			</g>
			<g id="shape3009-10" v:mID="3009" v:groupContext="shape" transform="translate(-3.15747E-13,-90.4425)">
				<title>shape3</title>
				<path d="M0 118.95 L53.32 118.95 L53.32 120.75 L0 120.75 L0 118.95 Z" class="st3"/>
			</g>
			<g id="shape3010-14" v:mID="3010" v:groupContext="shape" transform="translate(-3.15747E-13,-50.625)">
				<title>shape4</title>
				<path d="M0 118.95 L53.32 118.95 L53.32 120.75 L0 120.75 L0 118.95 Z" class="st3"/>
			</g>
			<g id="shape3011-17" v:mID="3011" v:groupContext="shape" transform="translate(-3.15747E-13,-10.8)">
				<title>shape5</title>
				<path d="M0 118.95 L53.32 118.95 L53.32 120.75 L0 120.75 L0 118.95 Z" class="st3"/>
			</g>
			<g id="shape3012-20" v:mID="3012" v:groupContext="shape" transform="translate(6.66,-102.195)">
				<title>shape6</title>
				<path d="M0.9 119.02 L38.62 119.02 C39.15 119.02 39.52 119.4 39.52 119.92 C39.52 120.37 39.15 120.75 38.62 120.75
							 L0.9 120.75 C0.37 120.75 0 120.37 0 119.92 C0 119.4 0.37 119.02 0.9 119.02 Z" class="st4"/>
			</g>
			<g id="shape3013-24" v:mID="3013" v:groupContext="shape" transform="translate(7.86,-104.025)">
				<title>shape7</title>
				<path d="M0.9 105.52 C1.8 105.52 2.25 105.9 2.25 106.42 L2.25 120.75 L0 120.75 L0 106.42 C0 105.9 0.38 105.52 0.9
							 105.52 Z" class="st5"/>
			</g>
			<g id="shape3014-28" v:mID="3014" v:groupContext="shape" transform="translate(16.6125,-104.025)">
				<title>shape8</title>
				<path d="M0.9 105.52 C1.8 105.52 2.25 105.9 2.25 106.42 L2.25 120.75 L0 120.75 L0 106.42 C0 105.9 0.38 105.52 0.9
							 105.52 Z" class="st5"/>
			</g>
			<g id="shape3015-31" v:mID="3015" v:groupContext="shape" transform="translate(25.365,-104.025)">
				<title>shape9</title>
				<path d="M0.9 105.52 C1.8 105.52 2.25 105.9 2.25 106.42 L2.25 120.75 L0 120.75 L0 106.42 C0 105.9 0.38 105.52 0.9
							 105.52 Z" class="st5"/>
			</g>
			<g id="shape3016-34" v:mID="3016" v:groupContext="shape" transform="translate(34.1175,-104.025)">
				<title>shape10</title>
				<path d="M0.9 105.52 C1.8 105.52 2.25 105.9 2.25 106.42 L2.25 120.75 L0 120.75 L0 106.42 C0 105.9 0.38 105.52 0.9
							 105.52 Z" class="st5"/>
			</g>
			<g id="shape3017-37" v:mID="3017" v:groupContext="shape" transform="translate(42.8775,-104.025)">
				<title>shape11</title>
				<path d="M0.9 105.52 C1.8 105.52 2.25 105.9 2.25 106.42 L2.25 120.75 L0 120.75 L0 106.42 C0 105.9 0.38 105.52 0.9
							 105.52 Z" class="st5"/>
			</g>
			<g id="group3018-40" transform="translate(7.56,-115.755)" v:mID="3018" v:groupContext="group">
				<title>工作表.3018</title>
				<g id="shape3019-41" v:mID="3019" v:groupContext="shape" transform="translate(-2.03837E-13,-0.27)">
					<title>shape12</title>
					<path d="M0 118.95 L37.72 118.95 L37.72 120.75 L0 120.75 L0 118.95 Z" class="st6"/>
				</g>
				<g id="shape3020-45" v:mID="3020" v:groupContext="shape" transform="translate(9.1575,1.42109E-14)">
					<title>shape13</title>
					<path d="M0 119.7 C0 119.17 0.45 118.72 0.97 118.72 C1.57 118.72 1.95 119.17 1.95 119.7 C1.95 120.3 1.57 120.75
								 0.97 120.75 C0.45 120.75 0 120.3 0 119.7 Z" class="st7"/>
				</g>
				<g id="shape3021-49" v:mID="3021" v:groupContext="shape" transform="translate(0.405,-0.1575)">
					<title>shape14</title>
					<path d="M0 119.7 C0 119.17 0.45 118.72 0.97 118.72 C1.57 118.72 1.95 119.17 1.95 119.7 C1.95 120.3 1.57 120.75
								 0.97 120.75 C0.45 120.75 0 120.3 0 119.7 Z" class="st7"/>
				</g>
				<g id="shape3022-52" v:mID="3022" v:groupContext="shape" transform="translate(17.91,-0.1575)">
					<title>shape15</title>
					<path d="M0 119.7 C0 119.17 0.45 118.72 0.97 118.72 C1.57 118.72 1.95 119.17 1.95 119.7 C1.95 120.3 1.57 120.75
								 0.97 120.75 C0.45 120.75 0 120.3 0 119.7 Z" class="st7"/>
				</g>
				<g id="shape3023-55" v:mID="3023" v:groupContext="shape" transform="translate(26.6625,-0.1575)">
					<title>shape16</title>
					<path d="M0 119.7 C0 119.17 0.45 118.72 0.97 118.72 C1.57 118.72 1.95 119.17 1.95 119.7 C1.95 120.3 1.57 120.75
								 0.97 120.75 C0.45 120.75 0 120.3 0 119.7 Z" class="st7"/>
				</g>
				<g id="shape3024-58" v:mID="3024" v:groupContext="shape" transform="translate(35.4225,1.42109E-14)">
					<title>shape17</title>
					<path d="M0 119.7 C0 119.17 0.45 118.72 0.97 118.72 C1.57 118.72 1.95 119.17 1.95 119.7 C1.95 120.3 1.57 120.75
								 0.97 120.75 C0.45 120.75 0 120.3 0 119.7 Z" class="st7"/>
				</g>
			</g>
			<g id="group3025-61" transform="translate(7.56,-105.502)" v:mID="3025" v:groupContext="group">
				<title>工作表.3025</title>
				<g id="shape3026-62" v:mID="3026" v:groupContext="shape" transform="translate(-2.03837E-13,-0.27)">
					<title>shape18</title>
					<path d="M0 118.95 L37.72 118.95 L37.72 120.75 L0 120.75 L0 118.95 Z" class="st6"/>
				</g>
				<g id="shape3027-65" v:mID="3027" v:groupContext="shape" transform="translate(9.1575,1.42109E-14)">
					<title>shape19</title>
					<path d="M0 119.7 C0 119.17 0.45 118.72 0.97 118.72 C1.57 118.72 1.95 119.17 1.95 119.7 C1.95 120.3 1.57 120.75
								 0.97 120.75 C0.45 120.75 0 120.3 0 119.7 Z" class="st7"/>
				</g>
				<g id="shape3028-68" v:mID="3028" v:groupContext="shape" transform="translate(0.405,-0.1575)">
					<title>shape20</title>
					<path d="M0 119.7 C0 119.17 0.45 118.72 0.97 118.72 C1.57 118.72 1.95 119.17 1.95 119.7 C1.95 120.3 1.57 120.75
								 0.97 120.75 C0.45 120.75 0 120.3 0 119.7 Z" class="st7"/>
				</g>
				<g id="shape3029-71" v:mID="3029" v:groupContext="shape" transform="translate(17.91,-0.1575)">
					<title>shape21</title>
					<path d="M0 119.7 C0 119.17 0.45 118.72 0.97 118.72 C1.57 118.72 1.95 119.17 1.95 119.7 C1.95 120.3 1.57 120.75
								 0.97 120.75 C0.45 120.75 0 120.3 0 119.7 Z" class="st7"/>
				</g>
				<g id="shape3030-74" v:mID="3030" v:groupContext="shape" transform="translate(26.6625,-0.1575)">
					<title>shape22</title>
					<path d="M0 119.7 C0 119.17 0.45 118.72 0.97 118.72 C1.57 118.72 1.95 119.17 1.95 119.7 C1.95 120.3 1.57 120.75
								 0.97 120.75 C0.45 120.75 0 120.3 0 119.7 Z" class="st7"/>
				</g>
				<g id="shape3031-77" v:mID="3031" v:groupContext="shape" transform="translate(35.4225,1.42109E-14)">
					<title>shape23</title>
					<path d="M0 119.7 C0 119.17 0.45 118.72 0.97 118.72 C1.57 118.72 1.95 119.17 1.95 119.7 C1.95 120.3 1.57 120.75
								 0.97 120.75 C0.45 120.75 0 120.3 0 119.7 Z" class="st7"/>
				</g>
			</g>
		</g>
	</g>
</svg>
