<?xml version="1.0" encoding="UTF-8" standalone="no"?>
<!DOCTYPE svg PUBLIC "-//W3C//DTD SVG 1.1//EN" "http://www.w3.org/Graphics/SVG/1.1/DTD/svg11.dtd">
<!-- 由 Microsoft Visio, SVG Export 生成 化学93.svg 页-1 -->
<svg xmlns="http://www.w3.org/2000/svg" xmlns:xlink="http://www.w3.org/1999/xlink" xmlns:ev="http://www.w3.org/2001/xml-events"
		xmlns:v="http://schemas.microsoft.com/visio/2003/SVGExtensions/" width="1.00771in" height="1.52083in"
		viewBox="0 0 72.555 109.5" xml:space="preserve" color-interpolation-filters="sRGB" class="st24">
	<v:documentProperties v:langID="2052" v:metric="true" v:viewMarkup="false"/>

	<style type="text/css">
	<![CDATA[
		.st1 {fill:url(#grad0-5);stroke:none;stroke-linecap:butt;stroke-width:0.75}
		.st2 {fill:url(#grad0-12);stroke:none;stroke-linecap:butt;stroke-width:0.75}
		.st3 {fill:url(#grad0-19);stroke:none;stroke-linecap:butt;stroke-width:0.75}
		.st4 {fill:url(#grad0-24);stroke:none;stroke-linecap:butt;stroke-width:0.75}
		.st5 {fill:#ffffff;fill-opacity:0.2;stroke:none;stroke-linecap:butt;stroke-width:0.75}
		.st6 {fill:#3e3938;stroke:#9e9f9f;stroke-linecap:butt;stroke-width:0.75}
		.st7 {fill:#ffffff;fill-opacity:0.17;stroke:none;stroke-linecap:butt;stroke-width:0.75}
		.st8 {fill:url(#grad0-34);stroke:none;stroke-linecap:butt;stroke-width:0.75}
		.st9 {fill:url(#grad0-41);stroke:none;stroke-linecap:butt;stroke-width:0.75}
		.st10 {fill:url(#grad0-48);stroke:none;stroke-linecap:butt;stroke-width:0.75}
		.st11 {fill:url(#grad0-52);stroke:none;stroke-linecap:butt;stroke-width:0.75}
		.st12 {fill:url(#grad3-63);stroke:#5f89b9;stroke-linecap:butt;stroke-width:0.1875}
		.st13 {fill:#c6d5e8;stroke:#384e64;stroke-linecap:butt;stroke-width:0.75}
		.st14 {fill:#e35020;stroke:none;stroke-linecap:butt;stroke-width:0.752583}
		.st15 {fill:#4b6884;stroke:none;stroke-linecap:butt;stroke-width:0.75}
		.st16 {fill:none;stroke:#3f77a8;stroke-linecap:butt;stroke-width:0.75}
		.st17 {fill:#ffffff;fill-opacity:0.38;stroke:none;stroke-linecap:butt;stroke-width:0.75}
		.st18 {fill:url(#grad0-86);stroke:none;stroke-linecap:butt;stroke-width:0.75}
		.st19 {fill:url(#grad0-97);stroke:none;stroke-linecap:butt;stroke-width:0.75}
		.st20 {fill:#fde9d0;stroke:#888889;stroke-linecap:butt;stroke-width:0.75}
		.st21 {fill:#eacd98;stroke:#eacd98;stroke-linecap:butt;stroke-width:0.75}
		.st22 {fill:#3e3938;stroke:#3e3938;stroke-linecap:butt;stroke-width:0.75}
		.st23 {fill:url(#grad0-117);stroke:none;stroke-linecap:butt;stroke-width:0.75}
		.st24 {fill:none;fill-rule:evenodd;font-size:12px;overflow:visible;stroke-linecap:square;stroke-miterlimit:3}
	]]>
	</style>

	<defs id="Patterns_And_Gradients">
		<linearGradient id="grad0-5" x1="0" y1="0" x2="1" y2="0" gradientTransform="rotate(90 0.5 0.5)">
			<stop offset="0" stop-color="#c2b39f" stop-opacity="1"/>
			<stop offset="0.15" stop-color="#fdead3" stop-opacity="1"/>
			<stop offset="0.25" stop-color="#fef3e7" stop-opacity="1"/>
			<stop offset="0.44" stop-color="#deccb6" stop-opacity="1"/>
			<stop offset="0.6" stop-color="#c5b5a2" stop-opacity="1"/>
			<stop offset="0.8" stop-color="#a69988" stop-opacity="1"/>
			<stop offset="0.97" stop-color="#988c7c" stop-opacity="1"/>
		</linearGradient>
		<linearGradient id="grad0-12" x1="0" y1="0" x2="1" y2="0" gradientTransform="rotate(90 0.5 0.5)">
			<stop offset="0" stop-color="#c3a156" stop-opacity="1"/>
			<stop offset="0.15" stop-color="#fed681" stop-opacity="1"/>
			<stop offset="0.25" stop-color="#fee8c2" stop-opacity="1"/>
			<stop offset="0.44" stop-color="#deb863" stop-opacity="1"/>
			<stop offset="0.6" stop-color="#c6a457" stop-opacity="1"/>
			<stop offset="0.8" stop-color="#a78a48" stop-opacity="1"/>
			<stop offset="0.97" stop-color="#997e42" stop-opacity="1"/>
			<stop offset="1" stop-color="#cba859" stop-opacity="1"/>
		</linearGradient>
		<linearGradient id="grad0-19" x1="0" y1="0" x2="1" y2="0" gradientTransform="rotate(-180 0.5 0.5)">
			<stop offset="0" stop-color="#c4aa84" stop-opacity="1"/>
			<stop offset="0.15" stop-color="#ffe0b3" stop-opacity="1"/>
			<stop offset="0.25" stop-color="#ffeed7" stop-opacity="1"/>
			<stop offset="0.44" stop-color="#dfc297" stop-opacity="1"/>
			<stop offset="0.6" stop-color="#c7ad86" stop-opacity="1"/>
			<stop offset="0.8" stop-color="#a89170" stop-opacity="1"/>
			<stop offset="0.97" stop-color="#998566" stop-opacity="1"/>
		</linearGradient>
		<linearGradient id="grad0-24" x1="0" y1="0" x2="1" y2="0" gradientTransform="rotate(-180 0.5 0.5)">
			<stop offset="0" stop-color="#000000" stop-opacity="1"/>
			<stop offset="0.15" stop-color="#454545" stop-opacity="1"/>
			<stop offset="0.25" stop-color="#b3b3b3" stop-opacity="1"/>
			<stop offset="0.52" stop-color="#000000" stop-opacity="1"/>
			<stop offset="0.69" stop-color="#000000" stop-opacity="1"/>
			<stop offset="0.8" stop-color="#000000" stop-opacity="1"/>
			<stop offset="0.92" stop-color="#000000" stop-opacity="1"/>
			<stop offset="1" stop-color="#000000" stop-opacity="1"/>
		</linearGradient>
		<linearGradient id="grad0-34" x1="0" y1="0" x2="1" y2="0" gradientTransform="rotate(-180 0.5 0.5)">
			<stop offset="0" stop-color="#b0b0b0" stop-opacity="1"/>
			<stop offset="0.15" stop-color="#efefef" stop-opacity="1"/>
			<stop offset="0.25" stop-color="#f6f6f6" stop-opacity="1"/>
			<stop offset="0.52" stop-color="#d0d0d0" stop-opacity="1"/>
			<stop offset="0.69" stop-color="#b9b9b9" stop-opacity="1"/>
			<stop offset="0.8" stop-color="#afafaf" stop-opacity="1"/>
			<stop offset="0.92" stop-color="#a5a5a5" stop-opacity="1"/>
			<stop offset="1" stop-color="#bebebe" stop-opacity="1"/>
		</linearGradient>
		<linearGradient id="grad0-41" x1="0" y1="0" x2="1" y2="0" gradientTransform="rotate(-180 0.5 0.5)">
			<stop offset="0" stop-color="#403e3e" stop-opacity="1"/>
			<stop offset="0.15" stop-color="#6d6c6c" stop-opacity="1"/>
			<stop offset="0.25" stop-color="#bcbcbc" stop-opacity="1"/>
			<stop offset="0.52" stop-color="#4d4b4b" stop-opacity="1"/>
			<stop offset="0.69" stop-color="#434242" stop-opacity="1"/>
			<stop offset="0.8" stop-color="#3f3e3e" stop-opacity="1"/>
			<stop offset="0.92" stop-color="#3b3a3a" stop-opacity="1"/>
			<stop offset="1" stop-color="#454444" stop-opacity="1"/>
		</linearGradient>
		<linearGradient id="grad0-48" x1="0" y1="0" x2="1" y2="0" gradientTransform="rotate(-180 0.5 0.5)">
			<stop offset="0" stop-color="#aeaead" stop-opacity="1"/>
			<stop offset="0.03" stop-color="#f8f8f7" stop-opacity="1"/>
			<stop offset="0.08" stop-color="#e3e3e2" stop-opacity="1"/>
			<stop offset="0.64" stop-color="#dfdfde" stop-opacity="1"/>
			<stop offset="0.95" stop-color="#dadad9" stop-opacity="1"/>
			<stop offset="1" stop-color="#a2a2a1" stop-opacity="1"/>
		</linearGradient>
		<linearGradient id="grad0-52" x1="0" y1="0" x2="1" y2="0" gradientTransform="rotate(-180 0.5 0.5)">
			<stop offset="0" stop-color="#383e4c" stop-opacity="1"/>
			<stop offset="0.03" stop-color="#8e919b" stop-opacity="1"/>
			<stop offset="0.08" stop-color="#4c5366" stop-opacity="1"/>
			<stop offset="0.64" stop-color="#4a5264" stop-opacity="1"/>
			<stop offset="0.95" stop-color="#495061" stop-opacity="1"/>
			<stop offset="1" stop-color="#343946" stop-opacity="1"/>
		</linearGradient>
		<radialGradient id="grad3-63" cx="0.5" cy="0.5" r="0.73">
			<stop offset="0" stop-color="#76a2c9" stop-opacity="1"/>
			<stop offset="0.91" stop-color="#76a2c9" stop-opacity="1"/>
		</radialGradient>
		<linearGradient id="grad0-86" x1="0" y1="0" x2="1" y2="0" gradientTransform="rotate(-180 0.5 0.5)">
			<stop offset="0" stop-color="#007eaa" stop-opacity="1"/>
			<stop offset="0.03" stop-color="#7cc6f3" stop-opacity="1"/>
			<stop offset="0.08" stop-color="#00a6dd" stop-opacity="1"/>
			<stop offset="0.64" stop-color="#00a3d9" stop-opacity="1"/>
			<stop offset="0.95" stop-color="#009fd5" stop-opacity="1"/>
			<stop offset="1" stop-color="#00759e" stop-opacity="1"/>
		</linearGradient>
		<linearGradient id="grad0-97" x1="0" y1="0" x2="1" y2="0" gradientTransform="rotate(-180 0.5 0.5)">
			<stop offset="0" stop-color="#a64b4e" stop-opacity="1"/>
			<stop offset="0.03" stop-color="#ef9a9c" stop-opacity="1"/>
			<stop offset="0.08" stop-color="#d86468" stop-opacity="1"/>
			<stop offset="0.64" stop-color="#d56266" stop-opacity="1"/>
			<stop offset="0.95" stop-color="#d06063" stop-opacity="1"/>
			<stop offset="1" stop-color="#9a4548" stop-opacity="1"/>
		</linearGradient>
		<linearGradient id="grad0-117" x1="0" y1="0" x2="1" y2="0" gradientTransform="rotate(-180 0.5 0.5)">
			<stop offset="0" stop-color="#bdbdbd" stop-opacity="1"/>
			<stop offset="0.15" stop-color="#ffffff" stop-opacity="1"/>
			<stop offset="0.25" stop-color="#ffffff" stop-opacity="1"/>
			<stop offset="0.52" stop-color="#dfdfdf" stop-opacity="1"/>
			<stop offset="0.69" stop-color="#c7c7c7" stop-opacity="1"/>
			<stop offset="0.8" stop-color="#bcbcbc" stop-opacity="1"/>
			<stop offset="0.92" stop-color="#b1b1b1" stop-opacity="1"/>
			<stop offset="1" stop-color="#cbcbcb" stop-opacity="1"/>
		</linearGradient>
	</defs>
	<g v:mID="0" v:index="1" v:groupContext="foregroundPage">
		<title>页-1</title>
		<v:pageProperties v:drawingScale="0.0393701" v:pageScale="0.0393701" v:drawingUnits="24" v:shadowOffsetX="8.50394"
				v:shadowOffsetY="-8.50394"/>
		<g id="group4177-1" transform="translate(0.75,-0.75)" v:mID="4177" v:groupContext="group">
			<title>蒸发器2.107</title>
			<g id="shape4178-2" v:mID="4178" v:groupContext="shape" transform="translate(121.425,1.5) rotate(90)">
				<title>shape1</title>
				<path d="M0 80.93 C0 65.18 5.78 52.43 12.98 52.43 C12.98 53.25 12.68 109.28 12.98 109.5 C5.78 109.5 0 96.68 0 80.93
							 Z" class="st1"/>
			</g>
			<g id="shape4179-6" v:mID="4179" v:groupContext="shape" transform="translate(121.35,105.3) rotate(90) scale(-1,1)">
				<title>shape2</title>
				<path d="M0 52.28 L91.2 52.28 L91.2 109.5 L0 109.5 L0 52.28 Z" class="st1"/>
			</g>
			<g id="shape4180-9" v:mID="4180" v:groupContext="shape" transform="translate(121.275,17.775) rotate(90) scale(-1,1)">
				<title>shape3</title>
				<path d="M0.15 52.13 L2.85 52.13 C2.93 52.13 3 52.35 3 52.65 L3 108.9 C3 109.2 2.93 109.5 2.85 109.5 L0.15 109.5
							 C0.08 109.5 0 109.2 0 108.9 L0 52.65 C0 52.35 0.08 52.13 0.15 52.13 Z" class="st2"/>
			</g>
			<g id="shape4181-13" v:mID="4181" v:groupContext="shape" transform="translate(121.275,17.475) rotate(90) scale(-1,1)">
				<title>shape4</title>
				<path d="M0.07 52.13 L2.17 52.13 C2.25 52.13 2.32 52.35 2.32 52.65 L2.32 108.9 C2.32 109.2 2.25 109.5 2.17 109.5
							 L0.07 109.5 C0.07 109.5 0 109.2 0 108.9 L0 52.65 C0 52.35 0.07 52.13 0.07 52.13 Z" class="st1"/>
			</g>
			<g id="shape4182-16" v:mID="4182" v:groupContext="shape" transform="translate(9.855,-8.52651E-14)">
				<title>shape5</title>
				<path d="M0.75 104.63 L60.45 104.63 C60.9 104.63 61.2 104.85 61.2 105.15 L61.2 108.98 C61.2 109.28 60.9 109.5 60.45
							 109.5 L0.75 109.5 C0.38 109.5 0 109.28 0 108.98 L0 105.15 C0 104.85 0.38 104.63 0.75 104.63 Z"
						class="st3"/>
			</g>
			<g id="group4183-20" transform="translate(37.425,-83.865)" v:mID="4183" v:groupContext="group">
				<title>工作表.4183</title>
				<g id="shape4184-21" v:mID="4184" v:groupContext="shape">
					<title>shape6</title>
					<path d="M4.58 104.48 C4.8 104.63 4.73 105.23 5.1 105.83 C5.48 106.35 6.08 106.58 6.08 106.88 C6.08 107.25 5.48
								 107.4 5.1 108 C4.73 108.53 4.88 109.13 4.58 109.28 C4.2 109.5 3.83 109.05 3 109.05 C2.25 109.05
								 1.8 109.43 1.5 109.28 C1.2 109.13 1.35 108.6 0.98 108 C0.6 107.4 0 107.25 0 106.88 C0 106.58 0.53
								 106.43 0.98 105.75 C1.35 105.15 1.28 104.63 1.5 104.48 C1.73 104.4 2.18 104.7 3.08 104.7 C3.9 104.7
								 4.35 104.4 4.58 104.48 Z" class="st4"/>
				</g>
				<g id="shape4185-25" v:mID="4185" v:groupContext="shape" transform="translate(0.165,-0.165)">
					<title>shape7</title>
					<path d="M4.35 104.78 C4.58 104.93 4.43 105.45 4.8 106.05 C5.18 106.58 5.78 106.8 5.78 107.1 C5.78 107.4 5.18
								 107.55 4.8 108.08 C4.5 108.6 4.65 109.2 4.35 109.35 C3.98 109.5 3.6 109.13 2.85 109.13 C2.1 109.13
								 1.73 109.5 1.43 109.35 C1.13 109.2 1.28 108.68 0.9 108.08 C0.53 107.55 0 107.4 0 107.1 C0 106.73
								 0.53 106.58 0.9 105.98 C1.28 105.38 1.2 104.93 1.43 104.78 C1.65 104.7 2.1 105 2.93 105 C3.68 105
								 4.13 104.7 4.35 104.78 Z" class="st5"/>
				</g>
				<g id="shape4186-27" v:mID="4186" v:groupContext="shape" transform="translate(1.17,-0.915)">
					<title>shape8</title>
					<path d="M0 107.85 C0 106.88 0.82 106.13 1.87 106.13 C2.92 106.13 3.75 106.88 3.75 107.85 C3.75 108.75 2.92 109.5
								 1.87 109.5 C0.82 109.5 0 108.75 0 107.85 Z" class="st6"/>
				</g>
				<g id="shape4187-29" v:mID="4187" v:groupContext="shape" transform="translate(2.16,-1.14)">
					<title>shape9</title>
					<path d="M0.98 108.15 C0.98 107.33 0 106.58 0.9 106.58 C1.8 106.58 2.48 107.25 2.48 108.08 C2.48 108.9 1.8 109.5
								 0.9 109.5 C0 109.5 0.98 108.98 0.98 108.15 Z" class="st7"/>
				</g>
			</g>
			<g id="shape4188-31" v:mID="4188" v:groupContext="shape" transform="translate(6.1125,-4.38)">
				<title>shape10</title>
				<path d="M0 102.98 L3.38 102.98 L3.38 109.5 L0 109.5 L0 102.98 Z" class="st8"/>
			</g>
			<g id="shape4189-35" v:mID="4189" v:groupContext="shape" transform="translate(34.7775,-4.305)">
				<title>shape11</title>
				<path d="M0 102.83 L3.38 102.83 L3.38 109.5 L0 109.5 L0 102.83 Z" class="st8"/>
			</g>
			<g id="shape4190-38" v:mID="4190" v:groupContext="shape" transform="translate(5.43,-0.0075)">
				<title>shape12</title>
				<path d="M0.38 104.03 L4.35 104.03 C4.58 104.03 4.73 104.18 4.73 104.4 L4.73 109.13 C4.73 109.35 4.58 109.5 4.35
							 109.5 L0.38 109.5 C0.15 109.5 0 109.35 0 109.13 L0 104.4 C0 104.18 0.15 104.03 0.38 104.03 Z"
						class="st9"/>
			</g>
			<g id="shape4191-42" v:mID="4191" v:groupContext="shape" transform="translate(34.0875,2.84217E-14)">
				<title>shape13</title>
				<path d="M0.38 103.95 L4.43 103.95 C4.65 103.95 4.8 104.1 4.8 104.33 L4.8 109.13 C4.8 109.35 4.65 109.5 4.43 109.5
							 L0.38 109.5 C0.15 109.5 0 109.35 0 109.13 L0 104.33 C0 104.1 0.15 103.95 0.38 103.95 Z" class="st9"/>
			</g>
			<g id="shape4192-45" v:mID="4192" v:groupContext="shape" transform="translate(2.59792E-13,-8.61)">
				<title>shape14</title>
				<path d="M0 44.18 L44.32 44.18 L44.32 109.5 L0 109.5 L0 44.18 Z" class="st10"/>
			</g>
			<g id="shape4193-49" v:mID="4193" v:groupContext="shape" transform="translate(2.59792E-13,-71.61)">
				<title>shape15</title>
				<path d="M0 107.18 L44.32 107.18 L44.32 109.5 L0 109.5 L0 107.18 Z" class="st11"/>
			</g>
			<g id="shape4194-53" v:mID="4194" v:groupContext="shape" transform="translate(3.675,-44.925)">
				<title>shape16</title>
				<path d="M0.6 87.6 L11.18 87.6 C11.48 87.6 11.78 87.83 11.78 88.2 L11.78 108.9 C11.78 109.28 11.48 109.5 11.18 109.5
							 L0.6 109.5 C0.23 109.5 0 109.28 0 108.9 L0 88.2 C0 87.83 0.23 87.6 0.6 87.6 Z" class="st11"/>
			</g>
			<g id="shape4195-56" v:mID="4195" v:groupContext="shape" transform="translate(4.5225,-45.9)">
				<title>shape17</title>
				<path d="M0 89.55 L10.05 89.55 L10.05 109.5 L0 109.5 L0 89.55 Z" class="st10"/>
			</g>
			<g id="group4196-59" transform="translate(18.225,-59.5725)" v:mID="4196" v:groupContext="group">
				<title>工作表.4196</title>
				<g id="shape4197-60" v:mID="4197" v:groupContext="shape">
					<title>shape18</title>
					<path d="M0 106.35 C0 104.7 1.35 103.28 3.08 103.28 C4.73 103.28 6.15 104.7 6.15 106.35 C6.15 108.08 4.73 109.5
								 3.08 109.5 C1.35 109.5 0 108.08 0 106.35 Z" class="st12"/>
				</g>
				<g id="shape4198-64" v:mID="4198" v:groupContext="shape" transform="translate(0.555,-0.57)">
					<title>shape19</title>
					<path d="M0 106.95 C0 105.53 1.13 104.4 2.48 104.4 C3.9 104.4 5.03 105.53 5.03 106.95 C5.03 108.38 3.9 109.5
								 2.48 109.5 C1.13 109.5 0 108.38 0 106.95 Z" class="st13"/>
				</g>
				<g id="shape4199-66" v:mID="4199" v:groupContext="shape" transform="translate(-50.2121,199.506) rotate(-150.113)">
					<title>shape20</title>
					<path d="M0.45 105.89 C0.45 105.89 0.38 109.5 0.23 109.5 C0 109.5 0 105.89 0.45 105.89 Z" class="st14"/>
				</g>
				<g id="shape4200-68" v:mID="4200" v:groupContext="shape" transform="translate(2.6625,-2.7)">
					<title>shape21</title>
					<path d="M0 109.05 C0 108.83 0.15 108.68 0.37 108.68 C0.6 108.68 0.82 108.83 0.82 109.05 C0.82 109.28 0.6 109.5
								 0.37 109.5 C0.15 109.5 0 109.28 0 109.05 Z" class="st15"/>
				</g>
				<g id="shape4201-70" v:mID="4201" v:groupContext="shape" transform="translate(3,-5.25)">
					<title>shape22</title>
				</g>
				<g id="shape4202-71" v:mID="4202" v:groupContext="shape" transform="translate(-108.375,106.275) rotate(-90)">
					<title>shape23</title>
				</g>
				<g id="shape4203-72" v:mID="4203" v:groupContext="shape" transform="translate(-104.925,106.275) rotate(-90)">
					<title>shape24</title>
				</g>
				<g id="shape4204-73" v:mID="4204" v:groupContext="shape" transform="translate(-75.7782,27.4968) rotate(-45)">
					<title>shape25</title>
				</g>
				<g id="shape4205-74" v:mID="4205" v:groupContext="shape" transform="translate(81.8532,27.4968) rotate(45)">
					<title>shape26</title>
				</g>
				<g id="shape4206-75" v:mID="4206" v:groupContext="shape" transform="translate(1.9275,-1.1775)">
					<title>shape27</title>
					<path d="M0.22 109.05 L2.1 109.05 C2.25 109.05 2.32 109.13 2.32 109.28 C2.32 109.43 2.25 109.5 2.1 109.5 L0.22
								 109.5 C0.07 109.5 0 109.43 0 109.28 C0 109.13 0.07 109.05 0.22 109.05 Z" class="st16"/>
				</g>
				<g id="shape4207-77" v:mID="4207" v:groupContext="shape" transform="translate(1.6425,-0.57)">
					<title>shape28</title>
					<path d="M1.87 106.95 C1.87 105.6 0 104.4 1.42 104.4 C2.77 104.4 3.9 105.53 3.9 106.95 C3.9 108.38 2.77 109.5
								 1.42 109.5 C0 109.5 1.87 108.38 1.87 106.95 Z" class="st17"/>
				</g>
			</g>
			<g id="shape4208-79" v:mID="4208" v:groupContext="shape" transform="translate(25.6275,-16.47)">
				<title>shape29</title>
				<path d="M0.45 77.48 L7.95 77.48 C8.25 77.48 8.4 77.7 8.4 77.93 L8.4 109.05 C8.4 109.28 8.25 109.5 7.95 109.5 L0.45
							 109.5 C0.23 109.5 0 109.28 0 109.05 L0 77.93 C0 77.7 0.23 77.48 0.45 77.48 Z" class="st10"/>
			</g>
			<g id="group4209-82" transform="translate(5.5725,-59.0475)" v:mID="4209" v:groupContext="group">
				<title>工作表.4209</title>
				<g id="shape4210-83" v:mID="4210" v:groupContext="shape">
					<title>shape30</title>
					<path d="M0.45 107.4 L1.58 107.4 C1.8 107.4 2.03 107.63 2.03 107.85 L2.03 108.98 C2.03 109.28 1.8 109.5 1.58
								 109.5 L0.45 109.5 C0.23 109.5 0 109.28 0 108.98 L0 107.85 C0 107.63 0.23 107.4 0.45 107.4 Z"
							class="st18"/>
				</g>
				<g id="shape4211-87" v:mID="4211" v:groupContext="shape" transform="translate(2.9625,1.42109E-14)">
					<title>shape31</title>
					<path d="M0.45 107.4 L1.58 107.4 C1.8 107.4 2.03 107.63 2.03 107.85 L2.03 108.98 C2.03 109.28 1.8 109.5 1.58
								 109.5 L0.45 109.5 C0.23 109.5 0 109.28 0 108.98 L0 107.85 C0 107.63 0.23 107.4 0.45 107.4 Z"
							class="st18"/>
				</g>
				<g id="shape4212-90" v:mID="4212" v:groupContext="shape" transform="translate(5.91,1.42109E-14)">
					<title>shape32</title>
					<path d="M0.45 107.4 L1.58 107.4 C1.8 107.4 2.03 107.63 2.03 107.85 L2.03 108.98 C2.03 109.28 1.8 109.5 1.58
								 109.5 L0.45 109.5 C0.23 109.5 0 109.28 0 108.98 L0 107.85 C0 107.63 0.23 107.4 0.45 107.4 Z"
							class="st18"/>
				</g>
			</g>
			<g id="group4213-93" transform="translate(5.5725,-54.7425)" v:mID="4213" v:groupContext="group">
				<title>工作表.4213</title>
				<g id="shape4214-94" v:mID="4214" v:groupContext="shape">
					<title>shape33</title>
					<path d="M0.45 107.4 L1.58 107.4 C1.8 107.4 2.03 107.63 2.03 107.85 L2.03 108.98 C2.03 109.28 1.8 109.5 1.58
								 109.5 L0.45 109.5 C0.23 109.5 0 109.28 0 108.98 L0 107.85 C0 107.63 0.23 107.4 0.45 107.4 Z"
							class="st19"/>
				</g>
				<g id="shape4215-98" v:mID="4215" v:groupContext="shape" transform="translate(2.9625,1.42109E-14)">
					<title>shape34</title>
					<path d="M0.45 107.4 L1.58 107.4 C1.8 107.4 2.03 107.63 2.03 107.85 L2.03 108.98 C2.03 109.28 1.8 109.5 1.58
								 109.5 L0.45 109.5 C0.23 109.5 0 109.28 0 108.98 L0 107.85 C0 107.63 0.23 107.4 0.45 107.4 Z"
							class="st19"/>
				</g>
				<g id="shape4216-101" v:mID="4216" v:groupContext="shape" transform="translate(5.91,1.42109E-14)">
					<title>shape35</title>
					<path d="M0.45 107.4 L1.58 107.4 C1.8 107.4 2.03 107.63 2.03 107.85 L2.03 108.98 C2.03 109.28 1.8 109.5 1.58
								 109.5 L0.45 109.5 C0.23 109.5 0 109.28 0 108.98 L0 107.85 C0 107.63 0.23 107.4 0.45 107.4 Z"
							class="st19"/>
				</g>
			</g>
			<g id="shape4217-104" v:mID="4217" v:groupContext="shape" transform="translate(5.3025,-62.88)">
				<title>shape36</title>
				<path d="M0 107.93 L8.62 107.93 L8.62 109.5 L0 109.5 L0 107.93 Z" class="st20"/>
			</g>
			<g id="shape4218-106" v:mID="4218" v:groupContext="shape" transform="translate(2.59792E-13,-8.5875)">
				<title>shape37</title>
				<path d="M0 107.18 L44.32 107.18 L44.32 109.5 L0 109.5 L0 107.18 Z" class="st11"/>
			</g>
			<g id="group4219-109" transform="translate(46.1475,-5.865)" v:mID="4219" v:groupContext="group">
				<title>工作表.4219</title>
				<g id="shape4220-110" v:mID="4220" v:groupContext="shape">
					<title>shape38</title>
					<path d="M0 107.33 C0 106.05 0.98 105.08 2.18 105.08 C3.38 105.08 4.43 106.05 4.43 107.33 C4.43 108.53 3.38 109.5
								 2.18 109.5 C0.98 109.5 0 108.53 0 107.33 Z" class="st21"/>
				</g>
				<g id="shape4221-112" v:mID="4221" v:groupContext="shape" transform="translate(0.315,-0.285)">
					<title>shape39</title>
					<path d="M0 107.55 C0 106.5 0.82 105.68 1.87 105.68 C2.92 105.68 3.75 106.5 3.75 107.55 C3.75 108.68 2.92 109.5
								 1.87 109.5 C0.82 109.5 0 108.68 0 107.55 Z" class="st22"/>
				</g>
			</g>
			<g id="shape4222-114" v:mID="4222" v:groupContext="shape" transform="translate(46.815,-6.84)">
				<title>shape40</title>
				<path d="M0 75.08 L3.08 75.08 L3.08 108.53 C3.08 108.53 3.3 109.5 1.65 109.5 C0 109.5 0 108.53 0 108.53 L0 75.08 Z"
						class="st23"/>
			</g>
			<g id="shape4223-118" v:mID="4223" v:groupContext="shape" transform="translate(44.3025,-43.6575)">
				<title>shape41</title>
				<path d="M0 83.4 L8.48 83.4 L8.48 109.5 L0 109.5 L0 83.4 Z" class="st10"/>
			</g>
			<g id="shape4224-121" v:mID="4224" v:groupContext="shape" transform="translate(44.3025,-68.4075)">
				<title>shape42</title>
				<path d="M0 108.15 L8.48 108.15 L8.48 109.5 L0 109.5 L0 108.15 Z" class="st11"/>
			</g>
			<g id="shape4225-124" v:mID="4225" v:groupContext="shape" transform="translate(45.9225,-41.1675)">
				<title>shape43</title>
				<path d="M0 106.95 L4.88 106.95 L4.88 109.5 L0 109.5 L0 106.95 Z" class="st9"/>
			</g>
		</g>
	</g>
</svg>
