<?xml version="1.0" encoding="UTF-8" standalone="no"?>
<!DOCTYPE svg PUBLIC "-//W3C//DTD SVG 1.1//EN" "http://www.w3.org/Graphics/SVG/1.1/DTD/svg11.dtd">
<!-- 由 Microsoft Visio, SVG Export 生成 化学87.svg 页-1 -->
<svg xmlns="http://www.w3.org/2000/svg" xmlns:xlink="http://www.w3.org/1999/xlink" xmlns:ev="http://www.w3.org/2001/xml-events"
		xmlns:v="http://schemas.microsoft.com/visio/2003/SVGExtensions/" width="1.10938in" height="1.42063in"
		viewBox="0 0 79.875 102.285" xml:space="preserve" color-interpolation-filters="sRGB" class="st5">
	<v:documentProperties v:langID="2052" v:metric="true" v:viewMarkup="false"/>

	<style type="text/css">
	<![CDATA[
		.st1 {fill:url(#grad0-5);stroke:none;stroke-linecap:butt;stroke-width:0.75}
		.st2 {fill:url(#grad0-9);stroke:none;stroke-linecap:butt;stroke-width:0.75}
		.st3 {fill:url(#grad0-13);stroke:none;stroke-linecap:butt;stroke-width:0.75}
		.st4 {fill:url(#grad0-20);stroke:none;stroke-linecap:butt;stroke-width:0.75}
		.st5 {fill:none;fill-rule:evenodd;font-size:12px;overflow:visible;stroke-linecap:square;stroke-miterlimit:3}
	]]>
	</style>

	<defs id="Patterns_And_Gradients">
		<linearGradient id="grad0-5" x1="0" y1="0" x2="1" y2="0" gradientTransform="rotate(-180 0.5 0.5)">
			<stop offset="0" stop-color="#6490ae" stop-opacity="1"/>
			<stop offset="0.15" stop-color="#94c7ec" stop-opacity="1"/>
			<stop offset="0.25" stop-color="#cae1f4" stop-opacity="1"/>
			<stop offset="0.52" stop-color="#77aace" stop-opacity="1"/>
			<stop offset="0.69" stop-color="#6997b7" stop-opacity="1"/>
			<stop offset="0.8" stop-color="#638fad" stop-opacity="1"/>
			<stop offset="0.92" stop-color="#5d86a3" stop-opacity="1"/>
			<stop offset="1" stop-color="#6c9bbb" stop-opacity="1"/>
		</linearGradient>
		<linearGradient id="grad0-9" x1="0" y1="0" x2="1" y2="0" gradientTransform="rotate(0 0.5 0.5)">
			<stop offset="0" stop-color="#b8b8b8" stop-opacity="1"/>
			<stop offset="0.17" stop-color="#e7e7e7" stop-opacity="1"/>
			<stop offset="0.68" stop-color="#ffffff" stop-opacity="1"/>
			<stop offset="0.83" stop-color="#ffffff" stop-opacity="1"/>
			<stop offset="1" stop-color="#b8b8b8" stop-opacity="1"/>
		</linearGradient>
		<linearGradient id="grad0-13" x1="0" y1="0" x2="1" y2="0" gradientTransform="rotate(90 0.5 0.5)">
			<stop offset="0" stop-color="#5f89a6" stop-opacity="1"/>
			<stop offset="0.01" stop-color="#aad1ef" stop-opacity="1"/>
			<stop offset="0.02" stop-color="#7eb3d8" stop-opacity="1"/>
			<stop offset="0.64" stop-color="#7cb0d5" stop-opacity="1"/>
			<stop offset="0.99" stop-color="#79acd0" stop-opacity="1"/>
			<stop offset="1" stop-color="#587f9a" stop-opacity="1"/>
		</linearGradient>
		<linearGradient id="grad0-20" x1="0" y1="0" x2="1" y2="0" gradientTransform="rotate(90 0.5 0.5)">
			<stop offset="0" stop-color="#527ea5" stop-opacity="1"/>
			<stop offset="0.01" stop-color="#9fc6ee" stop-opacity="1"/>
			<stop offset="0.02" stop-color="#6ca6d7" stop-opacity="1"/>
			<stop offset="0.64" stop-color="#6aa3d3" stop-opacity="1"/>
			<stop offset="0.99" stop-color="#689fce" stop-opacity="1"/>
			<stop offset="1" stop-color="#4b7599" stop-opacity="1"/>
		</linearGradient>
	</defs>
	<g v:mID="0" v:index="1" v:groupContext="foregroundPage">
		<title>页-1</title>
		<v:pageProperties v:drawingScale="0.0393701" v:pageScale="0.0393701" v:drawingUnits="24" v:shadowOffsetX="8.50394"
				v:shadowOffsetY="-8.50394"/>
		<g id="group4117-1" transform="translate(0.75,-0.75)" v:mID="4117" v:groupContext="group">
			<title>回旋沉淀</title>
			<g id="shape4118-2" v:mID="4118" v:groupContext="shape">
				<title>shape1</title>
				<path d="M0.3 92.99 L78.08 92.99 C78.23 92.99 78.38 93.14 78.38 93.29 L78.38 101.98 C78.38 102.13 78.23 102.28 78.08
							 102.28 L0.3 102.28 C0.15 102.28 0 102.13 0 101.98 L0 93.29 C0 93.14 0.15 92.99 0.3 92.99 Z"
						class="st1"/>
			</g>
			<g id="shape4119-6" v:mID="4119" v:groupContext="shape" transform="translate(3.555,-9.0675)">
				<title>shape2</title>
				<path d="M0 102.28 L71.25 102.28 L71.25 40.11 L0 40.11 L0 102.28 Z" class="st2"/>
			</g>
			<g id="shape4120-10" v:mID="4120" v:groupContext="shape" transform="translate(3.555,-70.875)">
				<title>shape3</title>
				<path d="M0 102.28 L71.25 102.28 L39.75 82.18 L31.58 82.18 L0 102.28 Z" class="st3"/>
			</g>
			<g id="shape4121-14" v:mID="4121" v:groupContext="shape" transform="translate(35.1375,-90.735)">
				<title>shape4</title>
				<path d="M0.3 92.23 L7.8 92.23 C7.95 92.23 8.1 92.38 8.1 92.53 L8.1 101.91 C8.1 102.13 7.95 102.28 7.8 102.28 L0.3
							 102.28 C0.15 102.28 0 102.13 0 101.91 L0 92.53 C0 92.38 0.15 92.23 0.3 92.23 Z" class="st1"/>
			</g>
			<g id="shape4122-17" v:mID="4122" v:groupContext="shape" transform="translate(2.2275,-67.4925)">
				<title>shape5</title>
				<path d="M0 102.28 L73.95 102.28 L73.95 98.54 L0 98.54 L0 102.28 Z" class="st4"/>
			</g>
		</g>
	</g>
</svg>
