<?xml version="1.0" encoding="UTF-8" standalone="no"?>
<!DOCTYPE svg PUBLIC "-//W3C//DTD SVG 1.1//EN" "http://www.w3.org/Graphics/SVG/1.1/DTD/svg11.dtd">
<!-- 由 Microsoft Visio, SVG Export 生成 化学64.svg 页-1 -->
<svg xmlns="http://www.w3.org/2000/svg" xmlns:xlink="http://www.w3.org/1999/xlink" xmlns:ev="http://www.w3.org/2001/xml-events"
		xmlns:v="http://schemas.microsoft.com/visio/2003/SVGExtensions/" width="0.687917in" height="1.83937in"
		viewBox="0 0 49.53 132.435" xml:space="preserve" color-interpolation-filters="sRGB" class="st5">
	<v:documentProperties v:langID="2052" v:metric="true" v:viewMarkup="false"/>

	<style type="text/css">
	<![CDATA[
		.st1 {fill:url(#grad0-5);stroke:none;stroke-linecap:butt;stroke-width:0.75}
		.st2 {fill:url(#grad0-9);stroke:none;stroke-linecap:butt;stroke-width:0.75}
		.st3 {fill:url(#grad0-20);stroke:none;stroke-linecap:butt;stroke-width:0.75}
		.st4 {fill:url(#grad0-24);stroke:none;stroke-linecap:butt;stroke-width:0.75}
		.st5 {fill:none;fill-rule:evenodd;font-size:12px;overflow:visible;stroke-linecap:square;stroke-miterlimit:3}
	]]>
	</style>

	<defs id="Patterns_And_Gradients">
		<linearGradient id="grad0-5" x1="0" y1="0" x2="1" y2="0" gradientTransform="rotate(-180 0.5 0.5)">
			<stop offset="0" stop-color="#75a0b1" stop-opacity="1"/>
			<stop offset="0.15" stop-color="#a8dbf0" stop-opacity="1"/>
			<stop offset="0.25" stop-color="#d2ebf6" stop-opacity="1"/>
			<stop offset="0.52" stop-color="#8bbdd1" stop-opacity="1"/>
			<stop offset="0.69" stop-color="#7ca8ba" stop-opacity="1"/>
			<stop offset="0.8" stop-color="#749eb0" stop-opacity="1"/>
			<stop offset="0.92" stop-color="#6e95a6" stop-opacity="1"/>
			<stop offset="1" stop-color="#7facbe" stop-opacity="1"/>
		</linearGradient>
		<linearGradient id="grad0-9" x1="0" y1="0" x2="1" y2="0" gradientTransform="rotate(-180 0.5 0.5)">
			<stop offset="0" stop-color="#5d96ad" stop-opacity="1"/>
			<stop offset="0.15" stop-color="#8ccfea" stop-opacity="1"/>
			<stop offset="0.25" stop-color="#c7e4f3" stop-opacity="1"/>
			<stop offset="0.52" stop-color="#6fb1cc" stop-opacity="1"/>
			<stop offset="0.69" stop-color="#629eb5" stop-opacity="1"/>
			<stop offset="0.8" stop-color="#5c95ab" stop-opacity="1"/>
			<stop offset="0.92" stop-color="#578ca1" stop-opacity="1"/>
			<stop offset="1" stop-color="#65a1ba" stop-opacity="1"/>
		</linearGradient>
		<linearGradient id="grad0-20" x1="0" y1="0" x2="1" y2="0" gradientTransform="rotate(90 0.5 0.5)">
			<stop offset="0" stop-color="#75a0b1" stop-opacity="1"/>
			<stop offset="0.15" stop-color="#a8dbf0" stop-opacity="1"/>
			<stop offset="0.25" stop-color="#d2ebf6" stop-opacity="1"/>
			<stop offset="0.52" stop-color="#8bbdd1" stop-opacity="1"/>
			<stop offset="0.69" stop-color="#7ca8ba" stop-opacity="1"/>
			<stop offset="0.8" stop-color="#749eb0" stop-opacity="1"/>
			<stop offset="0.92" stop-color="#6e95a6" stop-opacity="1"/>
			<stop offset="1" stop-color="#7facbe" stop-opacity="1"/>
		</linearGradient>
		<linearGradient id="grad0-24" x1="0" y1="0" x2="1" y2="0" gradientTransform="rotate(90 0.5 0.5)">
			<stop offset="0" stop-color="#5290aa" stop-opacity="1"/>
			<stop offset="0.15" stop-color="#80c7e7" stop-opacity="1"/>
			<stop offset="0.25" stop-color="#c2e1f1" stop-opacity="1"/>
			<stop offset="0.52" stop-color="#62aac8" stop-opacity="1"/>
			<stop offset="0.69" stop-color="#5697b2" stop-opacity="1"/>
			<stop offset="0.8" stop-color="#518fa8" stop-opacity="1"/>
			<stop offset="0.92" stop-color="#4c869f" stop-opacity="1"/>
			<stop offset="1" stop-color="#599bb6" stop-opacity="1"/>
		</linearGradient>
	</defs>
	<g v:mID="0" v:index="1" v:groupContext="foregroundPage">
		<title>页-1</title>
		<v:pageProperties v:drawingScale="0.0393701" v:pageScale="0.0393701" v:drawingUnits="24" v:shadowOffsetX="8.50394"
				v:shadowOffsetY="-8.50394"/>
		<g id="group3600-1" transform="translate(0.75,-0.75)" v:mID="3600" v:groupContext="group">
			<title>洗涤塔</title>
			<g id="shape3601-2" v:mID="3601" v:groupContext="shape" transform="translate(2.415,-0.03)">
				<title>shape1</title>
				<path d="M0 9.06 L38.4 9.06 L38.4 132.43 L0 132.43 L0 9.06 Z" class="st1"/>
			</g>
			<g id="shape3602-6" v:mID="3602" v:groupContext="shape">
				<title>shape2</title>
				<path d="M0.53 130.04 L42.68 130.04 C42.98 130.04 43.2 130.19 43.2 130.26 L43.2 132.21 C43.2 132.28 42.98 132.43
							 42.68 132.43 L0.53 132.43 C0.23 132.43 0 132.28 0 132.21 L0 130.26 C0 130.19 0.23 130.04 0.53 130.04
							 Z" class="st2"/>
			</g>
			<g id="shape3603-10" v:mID="3603" v:groupContext="shape" transform="translate(3.1875,-125.385)">
				<title>shape3</title>
				<path d="M0 132.43 C0 129.36 8.25 126.89 18.45 126.89 C28.58 126.89 36.83 129.36 36.83 132.43 C36.83 132.43 0 132.43
							 0 132.43 Z" class="st1"/>
			</g>
			<g id="shape3604-13" v:mID="3604" v:groupContext="shape" transform="translate(0.8625,-123.247)">
				<title>shape4</title>
				<path d="M0.53 130.11 L40.95 130.11 C41.25 130.11 41.48 130.19 41.48 130.34 L41.48 132.14 C41.48 132.29 41.25 132.43
							 40.95 132.43 L0.53 132.43 C0.23 132.43 0 132.29 0 132.14 L0 130.34 C0 130.19 0.23 130.11 0.53 130.11
							 Z" class="st2"/>
			</g>
			<g id="group3605-16" transform="translate(40.095,-115.702)" v:mID="3605" v:groupContext="group">
				<title>工作表.3605</title>
				<g id="shape3606-17" v:mID="3606" v:groupContext="shape" transform="translate(6.75,-0.2175) scale(-1,1)">
					<title>shape5</title>
					<path d="M0 129.44 L6.75 129.44 L6.75 132.43 L0 132.43 L0 129.44 Z" class="st3"/>
				</g>
				<g id="shape3607-21" v:mID="3607" v:groupContext="shape" transform="translate(7.26,2.84217E-14) scale(-1,1)">
					<title>shape6</title>
					<path d="M0.53 128.99 C1.13 128.99 1.35 129.06 1.35 129.21 L1.35 132.21 C1.35 132.36 1.13 132.43 0.83 132.43
								 C0.23 132.43 0 132.36 0 132.21 L0 129.21 C0 129.06 0.23 128.99 0.53 128.99 Z" class="st4"/>
				</g>
			</g>
			<g id="group3608-25" transform="translate(40.77,-7.8525)" v:mID="3608" v:groupContext="group">
				<title>工作表.3608</title>
				<g id="shape3609-26" v:mID="3609" v:groupContext="shape" transform="translate(6.75,-0.2175) scale(-1,1)">
					<title>shape7</title>
					<path d="M0 129.44 L6.75 129.44 L6.75 132.43 L0 132.43 L0 129.44 Z" class="st3"/>
				</g>
				<g id="shape3610-29" v:mID="3610" v:groupContext="shape" transform="translate(7.26,2.84217E-14) scale(-1,1)">
					<title>shape8</title>
					<path d="M0.53 128.99 C1.13 128.99 1.35 129.06 1.35 129.21 L1.35 132.21 C1.35 132.36 1.13 132.43 0.83 132.43
								 C0.23 132.43 0 132.36 0 132.21 L0 129.21 C0 129.06 0.23 128.99 0.53 128.99 Z" class="st4"/>
				</g>
			</g>
		</g>
	</g>
</svg>
