<?xml version="1.0" encoding="UTF-8" standalone="no"?>
<!DOCTYPE svg PUBLIC "-//W3C//DTD SVG 1.1//EN" "http://www.w3.org/Graphics/SVG/1.1/DTD/svg11.dtd">
<!-- 由 Microsoft Visio, SVG Export 生成 化学16.svg 页-1 -->
<svg xmlns="http://www.w3.org/2000/svg" xmlns:xlink="http://www.w3.org/1999/xlink" xmlns:ev="http://www.w3.org/2001/xml-events"
		xmlns:v="http://schemas.microsoft.com/visio/2003/SVGExtensions/" width="1.21552in" height="1.3174in"
		viewBox="0 0 87.5175 94.8525" xml:space="preserve" color-interpolation-filters="sRGB" class="st8">
	<v:documentProperties v:langID="2052" v:metric="true" v:viewMarkup="false"/>

	<style type="text/css">
	<![CDATA[
		.st1 {fill:url(#grad0-6);stroke:none;stroke-linecap:butt;stroke-width:0.75}
		.st2 {fill:url(#grad0-46);stroke:none;stroke-linecap:butt;stroke-width:0.75}
		.st3 {fill:url(#grad0-50);stroke:none;stroke-linecap:butt;stroke-width:0.75}
		.st4 {fill:url(#grad0-60);stroke:none;stroke-linecap:butt;stroke-width:0.75}
		.st5 {fill:url(#grad0-79);stroke:none;stroke-linecap:butt;stroke-width:0.75}
		.st6 {fill:#eeeeee;stroke:#b4b5b5;stroke-linecap:butt;stroke-width:0.1875}
		.st7 {fill:#ffffff;stroke:none;stroke-linecap:butt;stroke-width:0.75}
		.st8 {fill:none;fill-rule:evenodd;font-size:12px;overflow:visible;stroke-linecap:square;stroke-miterlimit:3}
	]]>
	</style>

	<defs id="Patterns_And_Gradients">
		<linearGradient id="grad0-6" x1="0" y1="0" x2="1" y2="0" gradientTransform="rotate(-180 0.5 0.5)">
			<stop offset="0" stop-color="#bac0c1" stop-opacity="1"/>
			<stop offset="0.15" stop-color="#f4fafc" stop-opacity="1"/>
			<stop offset="0.25" stop-color="#f8fcfd" stop-opacity="1"/>
			<stop offset="0.52" stop-color="#d5dbdd" stop-opacity="1"/>
			<stop offset="0.69" stop-color="#bdc3c4" stop-opacity="1"/>
			<stop offset="0.8" stop-color="#b3b8b9" stop-opacity="1"/>
			<stop offset="0.97" stop-color="#a9aeaf" stop-opacity="1"/>
			<stop offset="1" stop-color="#c2c7c9" stop-opacity="1"/>
		</linearGradient>
		<linearGradient id="grad0-46" x1="0" y1="0" x2="1" y2="0" gradientTransform="rotate(90 0.5 0.5)">
			<stop offset="0" stop-color="#bac0c1" stop-opacity="1"/>
			<stop offset="0.15" stop-color="#f4fafc" stop-opacity="1"/>
			<stop offset="0.25" stop-color="#f8fcfd" stop-opacity="1"/>
			<stop offset="0.52" stop-color="#d5dbdd" stop-opacity="1"/>
			<stop offset="0.69" stop-color="#bdc3c4" stop-opacity="1"/>
			<stop offset="0.8" stop-color="#b3b8b9" stop-opacity="1"/>
			<stop offset="0.97" stop-color="#a9aeaf" stop-opacity="1"/>
			<stop offset="1" stop-color="#c2c7c9" stop-opacity="1"/>
		</linearGradient>
		<linearGradient id="grad0-50" x1="0" y1="0" x2="1" y2="0" gradientTransform="rotate(-180 0.5 0.5)">
			<stop offset="0" stop-color="#aeaead" stop-opacity="1"/>
			<stop offset="0.03" stop-color="#f8f8f7" stop-opacity="1"/>
			<stop offset="0.08" stop-color="#e3e3e2" stop-opacity="1"/>
			<stop offset="0.64" stop-color="#dfdfde" stop-opacity="1"/>
			<stop offset="0.95" stop-color="#dadad9" stop-opacity="1"/>
			<stop offset="1" stop-color="#a2a2a1" stop-opacity="1"/>
		</linearGradient>
		<linearGradient id="grad0-60" x1="0" y1="0" x2="1" y2="0" gradientTransform="rotate(90 0.5 0.5)">
			<stop offset="0" stop-color="#aeaead" stop-opacity="1"/>
			<stop offset="0.03" stop-color="#f8f8f7" stop-opacity="1"/>
			<stop offset="0.08" stop-color="#e3e3e2" stop-opacity="1"/>
			<stop offset="0.64" stop-color="#dfdfde" stop-opacity="1"/>
			<stop offset="0.95" stop-color="#dadad9" stop-opacity="1"/>
			<stop offset="1" stop-color="#a2a2a1" stop-opacity="1"/>
		</linearGradient>
		<linearGradient id="grad0-79" x1="0" y1="0" x2="1" y2="0" gradientTransform="rotate(142.66680426181 0.5 0.5)">
			<stop offset="0" stop-color="#bac0c1" stop-opacity="1"/>
			<stop offset="0.15" stop-color="#f4fafc" stop-opacity="1"/>
			<stop offset="0.25" stop-color="#f8fcfd" stop-opacity="1"/>
			<stop offset="0.52" stop-color="#d5dbdd" stop-opacity="1"/>
			<stop offset="0.69" stop-color="#bdc3c4" stop-opacity="1"/>
			<stop offset="0.8" stop-color="#b3b8b9" stop-opacity="1"/>
			<stop offset="0.97" stop-color="#a9aeaf" stop-opacity="1"/>
			<stop offset="1" stop-color="#c2c7c9" stop-opacity="1"/>
		</linearGradient>
	</defs>
	<g v:mID="0" v:index="1" v:groupContext="foregroundPage">
		<title>页-1</title>
		<v:pageProperties v:drawingScale="0.0393701" v:pageScale="0.0393701" v:drawingUnits="24" v:shadowOffsetX="8.50394"
				v:shadowOffsetY="-8.50394"/>
		<g id="group2283-1" transform="translate(0.75,-0.75)" v:mID="2283" v:groupContext="group">
			<title>过滤器系统</title>
			<g id="group2284-2" transform="translate(22.0275,-4.3275)" v:mID="2284" v:groupContext="group">
				<title>工作表.2284</title>
				<g id="shape2285-3" v:mID="2285" v:groupContext="shape" transform="translate(1.2975,-10.74)">
					<title>shape1</title>
					<path d="M0 90.05 L6.68 90.05 L6.68 94.85 L0 94.85 L0 90.05 Z" class="st1"/>
				</g>
				<g id="shape2286-7" v:mID="2286" v:groupContext="shape" transform="translate(1.07914E-13,-8.3325)">
					<title>shape2</title>
					<path d="M0 92.45 L9.3 92.45 L9.3 94.85 L0 94.85 L0 92.45 Z" class="st1"/>
				</g>
				<g id="shape2287-10" v:mID="2287" v:groupContext="shape" transform="translate(3.45,-4.26326E-14)">
					<title>shape3</title>
					<path d="M0 86.53 L2.4 86.53 L2.4 94.85 L0 94.85 L0 86.53 Z" class="st1"/>
				</g>
			</g>
			<g id="group2288-13" transform="translate(33.7275,-4.3275)" v:mID="2288" v:groupContext="group">
				<title>工作表.2288</title>
				<g id="shape2289-14" v:mID="2289" v:groupContext="shape" transform="translate(1.2975,-10.74)">
					<title>shape4</title>
					<path d="M0 90.05 L6.68 90.05 L6.68 94.85 L0 94.85 L0 90.05 Z" class="st1"/>
				</g>
				<g id="shape2290-17" v:mID="2290" v:groupContext="shape" transform="translate(1.07914E-13,-8.3325)">
					<title>shape5</title>
					<path d="M0 92.45 L9.3 92.45 L9.3 94.85 L0 94.85 L0 92.45 Z" class="st1"/>
				</g>
				<g id="shape2291-20" v:mID="2291" v:groupContext="shape" transform="translate(3.45,-4.26326E-14)">
					<title>shape6</title>
					<path d="M0 86.53 L2.4 86.53 L2.4 94.85 L0 94.85 L0 86.53 Z" class="st1"/>
				</g>
			</g>
			<g id="group2292-23" transform="translate(45.5325,-4.3275)" v:mID="2292" v:groupContext="group">
				<title>工作表.2292</title>
				<g id="shape2293-24" v:mID="2293" v:groupContext="shape" transform="translate(1.2975,-10.74)">
					<title>shape7</title>
					<path d="M0 90.05 L6.68 90.05 L6.68 94.85 L0 94.85 L0 90.05 Z" class="st1"/>
				</g>
				<g id="shape2294-27" v:mID="2294" v:groupContext="shape" transform="translate(1.07914E-13,-8.3325)">
					<title>shape8</title>
					<path d="M0 92.45 L9.3 92.45 L9.3 94.85 L0 94.85 L0 92.45 Z" class="st1"/>
				</g>
				<g id="shape2295-30" v:mID="2295" v:groupContext="shape" transform="translate(3.45,-4.26326E-14)">
					<title>shape9</title>
					<path d="M0 86.53 L2.4 86.53 L2.4 94.85 L0 94.85 L0 86.53 Z" class="st1"/>
				</g>
			</g>
			<g id="group2296-33" transform="translate(57.015,-4.3275)" v:mID="2296" v:groupContext="group">
				<title>工作表.2296</title>
				<g id="shape2297-34" v:mID="2297" v:groupContext="shape" transform="translate(1.2975,-10.74)">
					<title>shape10</title>
					<path d="M0 90.05 L6.68 90.05 L6.68 94.85 L0 94.85 L0 90.05 Z" class="st1"/>
				</g>
				<g id="shape2298-37" v:mID="2298" v:groupContext="shape" transform="translate(1.07914E-13,-8.3325)">
					<title>shape11</title>
					<path d="M0 92.45 L9.3 92.45 L9.3 94.85 L0 94.85 L0 92.45 Z" class="st1"/>
				</g>
				<g id="shape2299-40" v:mID="2299" v:groupContext="shape" transform="translate(3.45,-4.26326E-14)">
					<title>shape12</title>
					<path d="M0 86.53 L2.4 86.53 L2.4 94.85 L0 94.85 L0 86.53 Z" class="st1"/>
				</g>
			</g>
			<g id="shape2300-43" v:mID="2300" v:groupContext="shape" transform="translate(9.645,-84.105)">
				<title>shape13</title>
				<path d="M0 91.78 L69.22 91.78 L69.22 94.85 L0 94.85 L0 91.78 Z" class="st2"/>
			</g>
			<g id="shape2301-47" v:mID="2301" v:groupContext="shape" transform="translate(20.3175,-19.5975)">
				<title>shape14</title>
				<path d="M0 25.1 L47.85 25.1 L47.85 94.85 L0 94.85 L0 25.1 Z" class="st3"/>
			</g>
			<g id="shape2302-51" v:mID="2302" v:groupContext="shape" transform="translate(9.4125,-0.7575)">
				<title>shape15</title>
				<path d="M6.97 3.05 L3.97 3.05 L0 94.85 L6.97 94.85 L6.97 3.05 Z" class="st3"/>
			</g>
			<g id="shape2303-54" v:mID="2303" v:groupContext="shape" transform="translate(79.125,-0.7275) scale(-1,1)">
				<title>shape16</title>
				<path d="M6.97 3.05 L3.97 3.05 L0 94.85 L6.97 94.85 L6.97 3.05 Z" class="st3"/>
			</g>
			<g id="shape2304-57" v:mID="2304" v:groupContext="shape" transform="translate(6.375,2.84217E-14)">
				<title>shape17</title>
				<path d="M0 90.43 L77.1 90.43 L77.1 94.85 L0 94.85 L0 90.43 Z" class="st4"/>
			</g>
			<g id="shape2305-61" v:mID="2305" v:groupContext="shape" transform="translate(1.1775,-83.1225)">
				<title>shape18</title>
				<path d="M0 89.83 L7.05 89.83 L7.05 94.85 L0 94.85 L0 89.83 Z" class="st2"/>
			</g>
			<g id="shape2306-64" v:mID="2306" v:groupContext="shape" transform="translate(2.3731E-15,-82.7925)">
				<title>shape19</title>
				<path d="M0 89.15 L1.42 89.15 L1.42 94.85 L0 94.85 L0 89.15 Z" class="st2"/>
			</g>
			<g id="shape2307-67" v:mID="2307" v:groupContext="shape" transform="translate(8.1975,-82.7925)">
				<title>shape20</title>
				<path d="M0 89.15 L1.42 89.15 L1.42 94.85 L0 94.85 L0 89.15 Z" class="st2"/>
			</g>
			<g id="shape2308-70" v:mID="2308" v:groupContext="shape" transform="translate(78.5325,-83.19)">
				<title>shape21</title>
				<path d="M0 90.35 L6.15 90.35 L6.15 94.85 L0 94.85 L0 90.35 Z" class="st2"/>
			</g>
			<g id="shape2309-73" v:mID="2309" v:groupContext="shape" transform="translate(79.6125,-76.875)">
				<title>shape22</title>
				<path d="M0 88.7 L4.05 88.7 L4.05 94.85 L0 94.85 L0 88.7 Z" class="st1"/>
			</g>
			<g id="shape2310-76" v:mID="2310" v:groupContext="shape" transform="translate(77.2425,-84.5025)">
				<title>shape23</title>
				<path d="M0 90.43 C0 87.95 1.95 86 4.35 86 C6.83 86 8.78 87.95 8.78 90.43 C8.78 92.9 6.83 94.85 4.35 94.85 C1.95
							 94.85 0 92.9 0 90.43 Z" class="st5"/>
			</g>
			<g id="shape2311-80" v:mID="2311" v:groupContext="shape" transform="translate(78.255,-85.515)">
				<title>shape24</title>
				<path d="M0 91.48 C0 89.53 1.5 88.03 3.37 88.03 C5.25 88.03 6.75 89.53 6.75 91.48 C6.75 93.35 5.25 94.85 3.37 94.85
							 C1.5 94.85 0 93.35 0 91.48 Z" class="st6"/>
			</g>
			<g id="shape2312-82" v:mID="2312" v:groupContext="shape" transform="translate(26.985,-25.5825)">
				<title>shape25</title>
				<path d="M1.2 40.25 C1.88 40.25 2.4 40.78 2.4 41.45 L2.4 93.65 C2.4 94.33 1.88 94.85 1.2 94.85 C0.53 94.85 0 94.33
							 0 93.65 L0 41.45 C0 40.78 0.53 40.25 1.2 40.25 Z" class="st7"/>
			</g>
			<g id="shape2313-84" v:mID="2313" v:groupContext="shape" transform="translate(37.605,-25.5825)">
				<title>shape26</title>
				<path d="M1.2 40.25 C1.88 40.25 2.4 40.78 2.4 41.45 L2.4 93.65 C2.4 94.33 1.88 94.85 1.2 94.85 C0.53 94.85 0 94.33
							 0 93.65 L0 41.45 C0 40.78 0.53 40.25 1.2 40.25 Z" class="st7"/>
			</g>
			<g id="shape2314-86" v:mID="2314" v:groupContext="shape" transform="translate(48.225,-25.5825)">
				<title>shape27</title>
				<path d="M1.2 40.25 C1.88 40.25 2.4 40.78 2.4 41.45 L2.4 93.65 C2.4 94.33 1.88 94.85 1.2 94.85 C0.53 94.85 0 94.33
							 0 93.65 L0 41.45 C0 40.78 0.53 40.25 1.2 40.25 Z" class="st7"/>
			</g>
			<g id="shape2315-88" v:mID="2315" v:groupContext="shape" transform="translate(58.845,-25.5825)">
				<title>shape28</title>
				<path d="M1.2 40.25 C1.88 40.25 2.4 40.78 2.4 41.45 L2.4 93.65 C2.4 94.33 1.88 94.85 1.2 94.85 C0.53 94.85 0 94.33
							 0 93.65 L0 41.45 C0 40.78 0.53 40.25 1.2 40.25 Z" class="st7"/>
			</g>
		</g>
	</g>
</svg>
