<?xml version="1.0" encoding="UTF-8" standalone="no"?>
<!DOCTYPE svg PUBLIC "-//W3C//DTD SVG 1.1//EN" "http://www.w3.org/Graphics/SVG/1.1/DTD/svg11.dtd">
<!-- 由 Microsoft Visio, SVG Export 生成 化学67.svg 页-1 -->
<svg xmlns="http://www.w3.org/2000/svg" xmlns:xlink="http://www.w3.org/1999/xlink" xmlns:ev="http://www.w3.org/2001/xml-events"
		xmlns:v="http://schemas.microsoft.com/visio/2003/SVGExtensions/" width="0.500208in" height="1.81771in"
		viewBox="0 0 36.015 130.875" xml:space="preserve" color-interpolation-filters="sRGB" class="st38">
	<v:documentProperties v:langID="2052" v:metric="true" v:viewMarkup="false"/>

	<style type="text/css">
	<![CDATA[
		.st1 {fill:url(#grad0-5);stroke:none;stroke-linecap:butt;stroke-width:0.75}
		.st2 {fill:url(#grad0-9);stroke:none;stroke-linecap:butt;stroke-width:0.75}
		.st3 {fill:#467597;stroke:none;stroke-linecap:butt;stroke-width:0.75}
		.st4 {fill:url(#grad0-18);stroke:none;stroke-linecap:butt;stroke-width:0.75}
		.st5 {fill:url(#grad0-22);stroke:none;stroke-linecap:butt;stroke-width:0.75}
		.st6 {fill:url(#grad0-26);stroke:none;stroke-linecap:butt;stroke-width:0.75}
		.st7 {fill:url(#grad0-30);stroke:none;stroke-linecap:butt;stroke-width:0.75}
		.st8 {fill:url(#grad0-34);stroke:none;stroke-linecap:butt;stroke-width:0.75}
		.st9 {fill:url(#grad0-41);stroke:none;stroke-linecap:butt;stroke-width:0.75}
		.st10 {fill:url(#grad0-45);stroke:none;stroke-linecap:butt;stroke-width:0.75}
		.st11 {fill:url(#grad0-49);stroke:none;stroke-linecap:butt;stroke-width:0.75}
		.st12 {fill:url(#grad0-56);stroke:none;stroke-linecap:butt;stroke-width:0.75}
		.st13 {fill:url(#grad0-60);stroke:none;stroke-linecap:butt;stroke-width:0.75}
		.st14 {fill:url(#grad0-64);stroke:none;stroke-linecap:butt;stroke-width:0.75}
		.st15 {fill:url(#grad0-68);stroke:none;stroke-linecap:butt;stroke-width:0.75}
		.st16 {fill:url(#grad0-72);stroke:none;stroke-linecap:butt;stroke-width:0.75}
		.st17 {fill:url(#grad0-79);stroke:none;stroke-linecap:butt;stroke-width:0.75}
		.st18 {fill:url(#grad0-83);stroke:none;stroke-linecap:butt;stroke-width:0.75}
		.st19 {fill:url(#grad0-87);stroke:none;stroke-linecap:butt;stroke-width:0.75}
		.st20 {fill:url(#grad0-91);stroke:none;stroke-linecap:butt;stroke-width:0.75}
		.st21 {fill:url(#grad0-95);stroke:none;stroke-linecap:butt;stroke-width:0.75}
		.st22 {fill:url(#grad0-99);stroke:none;stroke-linecap:butt;stroke-width:0.75}
		.st23 {fill:url(#grad0-112);stroke:none;stroke-linecap:butt;stroke-width:0.75}
		.st24 {fill:url(#grad0-116);stroke:none;stroke-linecap:butt;stroke-width:0.75}
		.st25 {fill:url(#grad0-120);stroke:none;stroke-linecap:butt;stroke-width:0.75}
		.st26 {fill:url(#grad0-124);stroke:none;stroke-linecap:butt;stroke-width:0.75}
		.st27 {fill:url(#grad0-134);stroke:none;stroke-linecap:butt;stroke-width:0.75}
		.st28 {fill:url(#grad0-138);stroke:none;stroke-linecap:butt;stroke-width:0.75}
		.st29 {fill:url(#grad0-145);stroke:none;stroke-linecap:butt;stroke-width:0.75}
		.st30 {fill:url(#grad0-152);stroke:none;stroke-linecap:butt;stroke-width:0.75}
		.st31 {fill:url(#grad0-156);stroke:none;stroke-linecap:butt;stroke-width:0.75}
		.st32 {fill:url(#grad0-160);stroke:none;stroke-linecap:butt;stroke-width:0.75}
		.st33 {fill:url(#grad0-167);stroke:none;stroke-linecap:butt;stroke-width:0.75}
		.st34 {fill:url(#grad0-177);stroke:none;stroke-linecap:butt;stroke-width:0.75}
		.st35 {fill:url(#grad0-187);stroke:none;stroke-linecap:butt;stroke-width:0.75}
		.st36 {fill:url(#grad0-194);stroke:none;stroke-linecap:butt;stroke-width:0.75}
		.st37 {fill:url(#grad0-198);stroke:none;stroke-linecap:butt;stroke-width:0.75}
		.st38 {fill:none;fill-rule:evenodd;font-size:12px;overflow:visible;stroke-linecap:square;stroke-miterlimit:3}
	]]>
	</style>

	<defs id="Patterns_And_Gradients">
		<linearGradient id="grad0-5" x1="0" y1="0" x2="1" y2="0" gradientTransform="rotate(-180 0.5 0.5)">
			<stop offset="0" stop-color="#5288af" stop-opacity="1"/>
			<stop offset="0.15" stop-color="#7db8e7" stop-opacity="1"/>
			<stop offset="0.25" stop-color="#a1c7eb" stop-opacity="1"/>
			<stop offset="0.44" stop-color="#5e9bc8" stop-opacity="1"/>
			<stop offset="0.6" stop-color="#538ab2" stop-opacity="1"/>
			<stop offset="0.8" stop-color="#457496" stop-opacity="1"/>
			<stop offset="0.97" stop-color="#3f6989" stop-opacity="1"/>
			<stop offset="1" stop-color="#558db6" stop-opacity="1"/>
		</linearGradient>
		<linearGradient id="grad0-9" x1="0" y1="0" x2="1" y2="0" gradientTransform="rotate(-180 0.5 0.5)">
			<stop offset="0" stop-color="#3475a8" stop-opacity="1"/>
			<stop offset="0.15" stop-color="#61a2de" stop-opacity="1"/>
			<stop offset="0.25" stop-color="#7fade1" stop-opacity="1"/>
			<stop offset="0.44" stop-color="#3d86c0" stop-opacity="1"/>
			<stop offset="0.6" stop-color="#3577ab" stop-opacity="1"/>
			<stop offset="0.8" stop-color="#2b6390" stop-opacity="1"/>
			<stop offset="0.97" stop-color="#275a84" stop-opacity="1"/>
			<stop offset="1" stop-color="#377aaf" stop-opacity="1"/>
		</linearGradient>
		<linearGradient id="grad0-18" x1="0" y1="0" x2="1" y2="0" gradientTransform="rotate(136.04162667601 0.5 0.5)">
			<stop offset="0" stop-color="#608c08" stop-opacity="1"/>
			<stop offset="0.15" stop-color="#8bbd48" stop-opacity="1"/>
			<stop offset="0.25" stop-color="#a7ca82" stop-opacity="1"/>
			<stop offset="0.44" stop-color="#6ea10b" stop-opacity="1"/>
			<stop offset="0.6" stop-color="#628f08" stop-opacity="1"/>
			<stop offset="0.8" stop-color="#517806" stop-opacity="1"/>
			<stop offset="0.97" stop-color="#4a6d05" stop-opacity="1"/>
			<stop offset="1" stop-color="#649209" stop-opacity="1"/>
		</linearGradient>
		<linearGradient id="grad0-22" x1="0" y1="0" x2="1" y2="0" gradientTransform="rotate(139.26789330029 0.5 0.5)">
			<stop offset="0" stop-color="#608c08" stop-opacity="1"/>
			<stop offset="0.15" stop-color="#8bbd48" stop-opacity="1"/>
			<stop offset="0.25" stop-color="#a7ca82" stop-opacity="1"/>
			<stop offset="0.44" stop-color="#6ea10b" stop-opacity="1"/>
			<stop offset="0.6" stop-color="#628f08" stop-opacity="1"/>
			<stop offset="0.8" stop-color="#517806" stop-opacity="1"/>
			<stop offset="0.97" stop-color="#4a6d05" stop-opacity="1"/>
			<stop offset="1" stop-color="#649209" stop-opacity="1"/>
		</linearGradient>
		<linearGradient id="grad0-26" x1="0" y1="0" x2="1" y2="0" gradientTransform="rotate(136.46880071439 0.5 0.5)">
			<stop offset="0" stop-color="#608c08" stop-opacity="1"/>
			<stop offset="0.15" stop-color="#8bbd48" stop-opacity="1"/>
			<stop offset="0.25" stop-color="#a7ca82" stop-opacity="1"/>
			<stop offset="0.44" stop-color="#6ea10b" stop-opacity="1"/>
			<stop offset="0.6" stop-color="#628f08" stop-opacity="1"/>
			<stop offset="0.8" stop-color="#517806" stop-opacity="1"/>
			<stop offset="0.97" stop-color="#4a6d05" stop-opacity="1"/>
			<stop offset="1" stop-color="#649209" stop-opacity="1"/>
		</linearGradient>
		<linearGradient id="grad0-30" x1="0" y1="0" x2="1" y2="0" gradientTransform="rotate(139.26789330029 0.5 0.5)">
			<stop offset="0" stop-color="#608c08" stop-opacity="1"/>
			<stop offset="0.15" stop-color="#8bbd48" stop-opacity="1"/>
			<stop offset="0.25" stop-color="#a7ca82" stop-opacity="1"/>
			<stop offset="0.44" stop-color="#6ea10b" stop-opacity="1"/>
			<stop offset="0.6" stop-color="#628f08" stop-opacity="1"/>
			<stop offset="0.8" stop-color="#517806" stop-opacity="1"/>
			<stop offset="0.97" stop-color="#4a6d05" stop-opacity="1"/>
			<stop offset="1" stop-color="#649209" stop-opacity="1"/>
		</linearGradient>
		<linearGradient id="grad0-34" x1="0" y1="0" x2="1" y2="0" gradientTransform="rotate(142.17171216539 0.5 0.5)">
			<stop offset="0" stop-color="#608c08" stop-opacity="1"/>
			<stop offset="0.15" stop-color="#8bbd48" stop-opacity="1"/>
			<stop offset="0.25" stop-color="#a7ca82" stop-opacity="1"/>
			<stop offset="0.44" stop-color="#6ea10b" stop-opacity="1"/>
			<stop offset="0.6" stop-color="#628f08" stop-opacity="1"/>
			<stop offset="0.8" stop-color="#517806" stop-opacity="1"/>
			<stop offset="0.97" stop-color="#4a6d05" stop-opacity="1"/>
			<stop offset="1" stop-color="#649209" stop-opacity="1"/>
		</linearGradient>
		<linearGradient id="grad0-41" x1="0" y1="0" x2="1" y2="0" gradientTransform="rotate(136.04162667601 0.5 0.5)">
			<stop offset="0" stop-color="#608c08" stop-opacity="1"/>
			<stop offset="0.15" stop-color="#8bbd48" stop-opacity="1"/>
			<stop offset="0.25" stop-color="#a7ca82" stop-opacity="1"/>
			<stop offset="0.44" stop-color="#6ea10b" stop-opacity="1"/>
			<stop offset="0.6" stop-color="#628f08" stop-opacity="1"/>
			<stop offset="0.8" stop-color="#517806" stop-opacity="1"/>
			<stop offset="0.97" stop-color="#4a6d05" stop-opacity="1"/>
			<stop offset="1" stop-color="#649209" stop-opacity="1"/>
		</linearGradient>
		<linearGradient id="grad0-45" x1="0" y1="0" x2="1" y2="0" gradientTransform="rotate(142.9893267664 0.5 0.5)">
			<stop offset="0" stop-color="#608c08" stop-opacity="1"/>
			<stop offset="0.15" stop-color="#8bbd48" stop-opacity="1"/>
			<stop offset="0.25" stop-color="#a7ca82" stop-opacity="1"/>
			<stop offset="0.44" stop-color="#6ea10b" stop-opacity="1"/>
			<stop offset="0.6" stop-color="#628f08" stop-opacity="1"/>
			<stop offset="0.8" stop-color="#517806" stop-opacity="1"/>
			<stop offset="0.97" stop-color="#4a6d05" stop-opacity="1"/>
			<stop offset="1" stop-color="#649209" stop-opacity="1"/>
		</linearGradient>
		<linearGradient id="grad0-49" x1="0" y1="0" x2="1" y2="0" gradientTransform="rotate(142.97327123257 0.5 0.5)">
			<stop offset="0" stop-color="#608c08" stop-opacity="1"/>
			<stop offset="0.15" stop-color="#8bbd48" stop-opacity="1"/>
			<stop offset="0.25" stop-color="#a7ca82" stop-opacity="1"/>
			<stop offset="0.44" stop-color="#6ea10b" stop-opacity="1"/>
			<stop offset="0.6" stop-color="#628f08" stop-opacity="1"/>
			<stop offset="0.8" stop-color="#517806" stop-opacity="1"/>
			<stop offset="0.97" stop-color="#4a6d05" stop-opacity="1"/>
			<stop offset="1" stop-color="#649209" stop-opacity="1"/>
		</linearGradient>
		<linearGradient id="grad0-56" x1="0" y1="0" x2="1" y2="0" gradientTransform="rotate(143.27905118546 0.5 0.5)">
			<stop offset="0" stop-color="#608c08" stop-opacity="1"/>
			<stop offset="0.15" stop-color="#8bbd48" stop-opacity="1"/>
			<stop offset="0.25" stop-color="#a7ca82" stop-opacity="1"/>
			<stop offset="0.44" stop-color="#6ea10b" stop-opacity="1"/>
			<stop offset="0.6" stop-color="#628f08" stop-opacity="1"/>
			<stop offset="0.8" stop-color="#517806" stop-opacity="1"/>
			<stop offset="0.97" stop-color="#4a6d05" stop-opacity="1"/>
			<stop offset="1" stop-color="#649209" stop-opacity="1"/>
		</linearGradient>
		<linearGradient id="grad0-60" x1="0" y1="0" x2="1" y2="0" gradientTransform="rotate(135.72522429906 0.5 0.5)">
			<stop offset="0" stop-color="#608c08" stop-opacity="1"/>
			<stop offset="0.15" stop-color="#8bbd48" stop-opacity="1"/>
			<stop offset="0.25" stop-color="#a7ca82" stop-opacity="1"/>
			<stop offset="0.44" stop-color="#6ea10b" stop-opacity="1"/>
			<stop offset="0.6" stop-color="#628f08" stop-opacity="1"/>
			<stop offset="0.8" stop-color="#517806" stop-opacity="1"/>
			<stop offset="0.97" stop-color="#4a6d05" stop-opacity="1"/>
			<stop offset="1" stop-color="#649209" stop-opacity="1"/>
		</linearGradient>
		<linearGradient id="grad0-64" x1="0" y1="0" x2="1" y2="0" gradientTransform="rotate(139.6858998395 0.5 0.5)">
			<stop offset="0" stop-color="#608c08" stop-opacity="1"/>
			<stop offset="0.15" stop-color="#8bbd48" stop-opacity="1"/>
			<stop offset="0.25" stop-color="#a7ca82" stop-opacity="1"/>
			<stop offset="0.44" stop-color="#6ea10b" stop-opacity="1"/>
			<stop offset="0.6" stop-color="#628f08" stop-opacity="1"/>
			<stop offset="0.8" stop-color="#517806" stop-opacity="1"/>
			<stop offset="0.97" stop-color="#4a6d05" stop-opacity="1"/>
			<stop offset="1" stop-color="#649209" stop-opacity="1"/>
		</linearGradient>
		<linearGradient id="grad0-68" x1="0" y1="0" x2="1" y2="0" gradientTransform="rotate(140.19442890773 0.5 0.5)">
			<stop offset="0" stop-color="#608c08" stop-opacity="1"/>
			<stop offset="0.15" stop-color="#8bbd48" stop-opacity="1"/>
			<stop offset="0.25" stop-color="#a7ca82" stop-opacity="1"/>
			<stop offset="0.44" stop-color="#6ea10b" stop-opacity="1"/>
			<stop offset="0.6" stop-color="#628f08" stop-opacity="1"/>
			<stop offset="0.8" stop-color="#517806" stop-opacity="1"/>
			<stop offset="0.97" stop-color="#4a6d05" stop-opacity="1"/>
			<stop offset="1" stop-color="#649209" stop-opacity="1"/>
		</linearGradient>
		<linearGradient id="grad0-72" x1="0" y1="0" x2="1" y2="0" gradientTransform="rotate(135.2569300245 0.5 0.5)">
			<stop offset="0" stop-color="#608c08" stop-opacity="1"/>
			<stop offset="0.15" stop-color="#8bbd48" stop-opacity="1"/>
			<stop offset="0.25" stop-color="#a7ca82" stop-opacity="1"/>
			<stop offset="0.44" stop-color="#6ea10b" stop-opacity="1"/>
			<stop offset="0.6" stop-color="#628f08" stop-opacity="1"/>
			<stop offset="0.8" stop-color="#517806" stop-opacity="1"/>
			<stop offset="0.97" stop-color="#4a6d05" stop-opacity="1"/>
			<stop offset="1" stop-color="#649209" stop-opacity="1"/>
		</linearGradient>
		<linearGradient id="grad0-79" x1="0" y1="0" x2="1" y2="0" gradientTransform="rotate(135.45113854679 0.5 0.5)">
			<stop offset="0" stop-color="#00609c" stop-opacity="1"/>
			<stop offset="0.15" stop-color="#458bd0" stop-opacity="1"/>
			<stop offset="0.25" stop-color="#81a7d9" stop-opacity="1"/>
			<stop offset="0.44" stop-color="#006eb2" stop-opacity="1"/>
			<stop offset="0.6" stop-color="#00629e" stop-opacity="1"/>
			<stop offset="0.8" stop-color="#005185" stop-opacity="1"/>
			<stop offset="0.97" stop-color="#004a7a" stop-opacity="1"/>
			<stop offset="1" stop-color="#0064a2" stop-opacity="1"/>
		</linearGradient>
		<linearGradient id="grad0-83" x1="0" y1="0" x2="1" y2="0" gradientTransform="rotate(136.04162667601 0.5 0.5)">
			<stop offset="0" stop-color="#00609c" stop-opacity="1"/>
			<stop offset="0.15" stop-color="#458bd0" stop-opacity="1"/>
			<stop offset="0.25" stop-color="#81a7d9" stop-opacity="1"/>
			<stop offset="0.44" stop-color="#006eb2" stop-opacity="1"/>
			<stop offset="0.6" stop-color="#00629e" stop-opacity="1"/>
			<stop offset="0.8" stop-color="#005185" stop-opacity="1"/>
			<stop offset="0.97" stop-color="#004a7a" stop-opacity="1"/>
			<stop offset="1" stop-color="#0064a2" stop-opacity="1"/>
		</linearGradient>
		<linearGradient id="grad0-87" x1="0" y1="0" x2="1" y2="0" gradientTransform="rotate(139.76364169073 0.5 0.5)">
			<stop offset="0" stop-color="#00609c" stop-opacity="1"/>
			<stop offset="0.15" stop-color="#458bd0" stop-opacity="1"/>
			<stop offset="0.25" stop-color="#81a7d9" stop-opacity="1"/>
			<stop offset="0.44" stop-color="#006eb2" stop-opacity="1"/>
			<stop offset="0.6" stop-color="#00629e" stop-opacity="1"/>
			<stop offset="0.8" stop-color="#005185" stop-opacity="1"/>
			<stop offset="0.97" stop-color="#004a7a" stop-opacity="1"/>
			<stop offset="1" stop-color="#0064a2" stop-opacity="1"/>
		</linearGradient>
		<linearGradient id="grad0-91" x1="0" y1="0" x2="1" y2="0" gradientTransform="rotate(139.6858998395 0.5 0.5)">
			<stop offset="0" stop-color="#00609c" stop-opacity="1"/>
			<stop offset="0.15" stop-color="#458bd0" stop-opacity="1"/>
			<stop offset="0.25" stop-color="#81a7d9" stop-opacity="1"/>
			<stop offset="0.44" stop-color="#006eb2" stop-opacity="1"/>
			<stop offset="0.6" stop-color="#00629e" stop-opacity="1"/>
			<stop offset="0.8" stop-color="#005185" stop-opacity="1"/>
			<stop offset="0.97" stop-color="#004a7a" stop-opacity="1"/>
			<stop offset="1" stop-color="#0064a2" stop-opacity="1"/>
		</linearGradient>
		<linearGradient id="grad0-95" x1="0" y1="0" x2="1" y2="0" gradientTransform="rotate(139.08561677997 0.5 0.5)">
			<stop offset="0" stop-color="#00609c" stop-opacity="1"/>
			<stop offset="0.15" stop-color="#458bd0" stop-opacity="1"/>
			<stop offset="0.25" stop-color="#81a7d9" stop-opacity="1"/>
			<stop offset="0.44" stop-color="#006eb2" stop-opacity="1"/>
			<stop offset="0.6" stop-color="#00629e" stop-opacity="1"/>
			<stop offset="0.8" stop-color="#005185" stop-opacity="1"/>
			<stop offset="0.97" stop-color="#004a7a" stop-opacity="1"/>
			<stop offset="1" stop-color="#0064a2" stop-opacity="1"/>
		</linearGradient>
		<linearGradient id="grad0-99" x1="0" y1="0" x2="1" y2="0" gradientTransform="rotate(136.46880071439 0.5 0.5)">
			<stop offset="0" stop-color="#00609c" stop-opacity="1"/>
			<stop offset="0.15" stop-color="#458bd0" stop-opacity="1"/>
			<stop offset="0.25" stop-color="#81a7d9" stop-opacity="1"/>
			<stop offset="0.44" stop-color="#006eb2" stop-opacity="1"/>
			<stop offset="0.6" stop-color="#00629e" stop-opacity="1"/>
			<stop offset="0.8" stop-color="#005185" stop-opacity="1"/>
			<stop offset="0.97" stop-color="#004a7a" stop-opacity="1"/>
			<stop offset="1" stop-color="#0064a2" stop-opacity="1"/>
		</linearGradient>
		<linearGradient id="grad0-112" x1="0" y1="0" x2="1" y2="0" gradientTransform="rotate(139.26789330029 0.5 0.5)">
			<stop offset="0" stop-color="#00609c" stop-opacity="1"/>
			<stop offset="0.15" stop-color="#458bd0" stop-opacity="1"/>
			<stop offset="0.25" stop-color="#81a7d9" stop-opacity="1"/>
			<stop offset="0.44" stop-color="#006eb2" stop-opacity="1"/>
			<stop offset="0.6" stop-color="#00629e" stop-opacity="1"/>
			<stop offset="0.8" stop-color="#005185" stop-opacity="1"/>
			<stop offset="0.97" stop-color="#004a7a" stop-opacity="1"/>
			<stop offset="1" stop-color="#0064a2" stop-opacity="1"/>
		</linearGradient>
		<linearGradient id="grad0-116" x1="0" y1="0" x2="1" y2="0" gradientTransform="rotate(139.26789330029 0.5 0.5)">
			<stop offset="0" stop-color="#006a9c" stop-opacity="1"/>
			<stop offset="0.15" stop-color="#4596d0" stop-opacity="1"/>
			<stop offset="0.25" stop-color="#81aed9" stop-opacity="1"/>
			<stop offset="0.44" stop-color="#007ab2" stop-opacity="1"/>
			<stop offset="0.6" stop-color="#006c9e" stop-opacity="1"/>
			<stop offset="0.8" stop-color="#005a85" stop-opacity="1"/>
			<stop offset="0.97" stop-color="#00527a" stop-opacity="1"/>
			<stop offset="1" stop-color="#006ea2" stop-opacity="1"/>
		</linearGradient>
		<linearGradient id="grad0-120" x1="0" y1="0" x2="1" y2="0" gradientTransform="rotate(140.06361685303 0.5 0.5)">
			<stop offset="0" stop-color="#006a9c" stop-opacity="1"/>
			<stop offset="0.15" stop-color="#4596d0" stop-opacity="1"/>
			<stop offset="0.25" stop-color="#81aed9" stop-opacity="1"/>
			<stop offset="0.44" stop-color="#007ab2" stop-opacity="1"/>
			<stop offset="0.6" stop-color="#006c9e" stop-opacity="1"/>
			<stop offset="0.8" stop-color="#005a85" stop-opacity="1"/>
			<stop offset="0.97" stop-color="#00527a" stop-opacity="1"/>
			<stop offset="1" stop-color="#006ea2" stop-opacity="1"/>
		</linearGradient>
		<linearGradient id="grad0-124" x1="0" y1="0" x2="1" y2="0" gradientTransform="rotate(139.6858998395 0.5 0.5)">
			<stop offset="0" stop-color="#006a9c" stop-opacity="1"/>
			<stop offset="0.15" stop-color="#4596d0" stop-opacity="1"/>
			<stop offset="0.25" stop-color="#81aed9" stop-opacity="1"/>
			<stop offset="0.44" stop-color="#007ab2" stop-opacity="1"/>
			<stop offset="0.6" stop-color="#006c9e" stop-opacity="1"/>
			<stop offset="0.8" stop-color="#005a85" stop-opacity="1"/>
			<stop offset="0.97" stop-color="#00527a" stop-opacity="1"/>
			<stop offset="1" stop-color="#006ea2" stop-opacity="1"/>
		</linearGradient>
		<linearGradient id="grad0-134" x1="0" y1="0" x2="1" y2="0" gradientTransform="rotate(136.14119925559 0.5 0.5)">
			<stop offset="0" stop-color="#006a9c" stop-opacity="1"/>
			<stop offset="0.15" stop-color="#4596d0" stop-opacity="1"/>
			<stop offset="0.25" stop-color="#81aed9" stop-opacity="1"/>
			<stop offset="0.44" stop-color="#007ab2" stop-opacity="1"/>
			<stop offset="0.6" stop-color="#006c9e" stop-opacity="1"/>
			<stop offset="0.8" stop-color="#005a85" stop-opacity="1"/>
			<stop offset="0.97" stop-color="#00527a" stop-opacity="1"/>
			<stop offset="1" stop-color="#006ea2" stop-opacity="1"/>
		</linearGradient>
		<linearGradient id="grad0-138" x1="0" y1="0" x2="1" y2="0" gradientTransform="rotate(138.69138598645 0.5 0.5)">
			<stop offset="0" stop-color="#00609c" stop-opacity="1"/>
			<stop offset="0.15" stop-color="#458bd0" stop-opacity="1"/>
			<stop offset="0.25" stop-color="#81a7d9" stop-opacity="1"/>
			<stop offset="0.44" stop-color="#006eb2" stop-opacity="1"/>
			<stop offset="0.6" stop-color="#00629e" stop-opacity="1"/>
			<stop offset="0.8" stop-color="#005185" stop-opacity="1"/>
			<stop offset="0.97" stop-color="#004a7a" stop-opacity="1"/>
			<stop offset="1" stop-color="#0064a2" stop-opacity="1"/>
		</linearGradient>
		<linearGradient id="grad0-145" x1="0" y1="0" x2="1" y2="0" gradientTransform="rotate(142.80791767406 0.5 0.5)">
			<stop offset="0" stop-color="#00609c" stop-opacity="1"/>
			<stop offset="0.15" stop-color="#458bd0" stop-opacity="1"/>
			<stop offset="0.25" stop-color="#81a7d9" stop-opacity="1"/>
			<stop offset="0.44" stop-color="#006eb2" stop-opacity="1"/>
			<stop offset="0.6" stop-color="#00629e" stop-opacity="1"/>
			<stop offset="0.8" stop-color="#005185" stop-opacity="1"/>
			<stop offset="0.97" stop-color="#004a7a" stop-opacity="1"/>
			<stop offset="1" stop-color="#0064a2" stop-opacity="1"/>
		</linearGradient>
		<linearGradient id="grad0-152" x1="0" y1="0" x2="1" y2="0" gradientTransform="rotate(139.08561677997 0.5 0.5)">
			<stop offset="0" stop-color="#608c08" stop-opacity="1"/>
			<stop offset="0.15" stop-color="#8bbd48" stop-opacity="1"/>
			<stop offset="0.25" stop-color="#a7ca82" stop-opacity="1"/>
			<stop offset="0.44" stop-color="#6ea10b" stop-opacity="1"/>
			<stop offset="0.6" stop-color="#628f08" stop-opacity="1"/>
			<stop offset="0.8" stop-color="#517806" stop-opacity="1"/>
			<stop offset="0.97" stop-color="#4a6d05" stop-opacity="1"/>
			<stop offset="1" stop-color="#649209" stop-opacity="1"/>
		</linearGradient>
		<linearGradient id="grad0-156" x1="0" y1="0" x2="1" y2="0" gradientTransform="rotate(147.60015982608 0.5 0.5)">
			<stop offset="0" stop-color="#608c08" stop-opacity="1"/>
			<stop offset="0.15" stop-color="#8bbd48" stop-opacity="1"/>
			<stop offset="0.25" stop-color="#a7ca82" stop-opacity="1"/>
			<stop offset="0.44" stop-color="#6ea10b" stop-opacity="1"/>
			<stop offset="0.6" stop-color="#628f08" stop-opacity="1"/>
			<stop offset="0.8" stop-color="#517806" stop-opacity="1"/>
			<stop offset="0.97" stop-color="#4a6d05" stop-opacity="1"/>
			<stop offset="1" stop-color="#649209" stop-opacity="1"/>
		</linearGradient>
		<linearGradient id="grad0-160" x1="0" y1="0" x2="1" y2="0" gradientTransform="rotate(139.6858998395 0.5 0.5)">
			<stop offset="0" stop-color="#00609c" stop-opacity="1"/>
			<stop offset="0.15" stop-color="#458bd0" stop-opacity="1"/>
			<stop offset="0.25" stop-color="#81a7d9" stop-opacity="1"/>
			<stop offset="0.44" stop-color="#006eb2" stop-opacity="1"/>
			<stop offset="0.6" stop-color="#00629e" stop-opacity="1"/>
			<stop offset="0.8" stop-color="#005185" stop-opacity="1"/>
			<stop offset="0.97" stop-color="#004a7a" stop-opacity="1"/>
			<stop offset="1" stop-color="#0064a2" stop-opacity="1"/>
		</linearGradient>
		<linearGradient id="grad0-167" x1="0" y1="0" x2="1" y2="0" gradientTransform="rotate(139.76364169073 0.5 0.5)">
			<stop offset="0" stop-color="#608c08" stop-opacity="1"/>
			<stop offset="0.15" stop-color="#8bbd48" stop-opacity="1"/>
			<stop offset="0.25" stop-color="#a7ca82" stop-opacity="1"/>
			<stop offset="0.44" stop-color="#6ea10b" stop-opacity="1"/>
			<stop offset="0.6" stop-color="#628f08" stop-opacity="1"/>
			<stop offset="0.8" stop-color="#517806" stop-opacity="1"/>
			<stop offset="0.97" stop-color="#4a6d05" stop-opacity="1"/>
			<stop offset="1" stop-color="#649209" stop-opacity="1"/>
		</linearGradient>
		<linearGradient id="grad0-177" x1="0" y1="0" x2="1" y2="0" gradientTransform="rotate(138.69138598645 0.5 0.5)">
			<stop offset="0" stop-color="#608c08" stop-opacity="1"/>
			<stop offset="0.15" stop-color="#8bbd48" stop-opacity="1"/>
			<stop offset="0.25" stop-color="#a7ca82" stop-opacity="1"/>
			<stop offset="0.44" stop-color="#6ea10b" stop-opacity="1"/>
			<stop offset="0.6" stop-color="#628f08" stop-opacity="1"/>
			<stop offset="0.8" stop-color="#517806" stop-opacity="1"/>
			<stop offset="0.97" stop-color="#4a6d05" stop-opacity="1"/>
			<stop offset="1" stop-color="#649209" stop-opacity="1"/>
		</linearGradient>
		<linearGradient id="grad0-187" x1="0" y1="0" x2="1" y2="0" gradientTransform="rotate(135.72522429906 0.5 0.5)">
			<stop offset="0" stop-color="#00609c" stop-opacity="1"/>
			<stop offset="0.15" stop-color="#458bd0" stop-opacity="1"/>
			<stop offset="0.25" stop-color="#81a7d9" stop-opacity="1"/>
			<stop offset="0.44" stop-color="#006eb2" stop-opacity="1"/>
			<stop offset="0.6" stop-color="#00629e" stop-opacity="1"/>
			<stop offset="0.8" stop-color="#005185" stop-opacity="1"/>
			<stop offset="0.97" stop-color="#004a7a" stop-opacity="1"/>
			<stop offset="1" stop-color="#0064a2" stop-opacity="1"/>
		</linearGradient>
		<linearGradient id="grad0-194" x1="0" y1="0" x2="1" y2="0" gradientTransform="rotate(142.80791767406 0.5 0.5)">
			<stop offset="0" stop-color="#608c08" stop-opacity="1"/>
			<stop offset="0.15" stop-color="#8bbd48" stop-opacity="1"/>
			<stop offset="0.25" stop-color="#a7ca82" stop-opacity="1"/>
			<stop offset="0.44" stop-color="#6ea10b" stop-opacity="1"/>
			<stop offset="0.6" stop-color="#628f08" stop-opacity="1"/>
			<stop offset="0.8" stop-color="#517806" stop-opacity="1"/>
			<stop offset="0.97" stop-color="#4a6d05" stop-opacity="1"/>
			<stop offset="1" stop-color="#649209" stop-opacity="1"/>
		</linearGradient>
		<linearGradient id="grad0-198" x1="0" y1="0" x2="1" y2="0" gradientTransform="rotate(142.17171216539 0.5 0.5)">
			<stop offset="0" stop-color="#00609c" stop-opacity="1"/>
			<stop offset="0.15" stop-color="#458bd0" stop-opacity="1"/>
			<stop offset="0.25" stop-color="#81a7d9" stop-opacity="1"/>
			<stop offset="0.44" stop-color="#006eb2" stop-opacity="1"/>
			<stop offset="0.6" stop-color="#00629e" stop-opacity="1"/>
			<stop offset="0.8" stop-color="#005185" stop-opacity="1"/>
			<stop offset="0.97" stop-color="#004a7a" stop-opacity="1"/>
			<stop offset="1" stop-color="#0064a2" stop-opacity="1"/>
		</linearGradient>
	</defs>
	<g v:mID="0" v:index="1" v:groupContext="foregroundPage">
		<title>页-1</title>
		<v:pageProperties v:drawingScale="0.0393701" v:pageScale="0.0393701" v:drawingUnits="24" v:shadowOffsetX="8.50394"
				v:shadowOffsetY="-8.50394"/>
		<g id="group3625-1" transform="translate(0.75,-0.75)" v:mID="3625" v:groupContext="group">
			<title>水槽</title>
			<g id="shape3626-2" v:mID="3626" v:groupContext="shape">
				<title>shape1</title>
				<path d="M0 9.08 C0 9.08 0 1.5 17.1 1.5 C34.2 1.5 34.5 9.08 34.5 9.08 L34.5 123.38 C34.5 123.38 33.98 130.88 17.18
							 130.88 C0.38 130.88 0 123.38 0 123.38 L0 9.08 Z" class="st1"/>
			</g>
			<g id="shape3627-6" v:mID="3627" v:groupContext="shape" transform="translate(0.015,-8.07)">
				<title>shape2</title>
				<path d="M0 130.05 L34.5 130.05 L34.5 130.88 L0 130.88 L0 130.05 Z" class="st2"/>
			</g>
			<g id="shape3628-10" v:mID="3628" v:groupContext="shape" transform="translate(0.015,-120.915)">
				<title>shape3</title>
				<path d="M0 130.05 L34.5 130.05 L34.5 130.88 L0 130.88 L0 130.05 Z" class="st2"/>
			</g>
			<g id="shape3629-13" v:mID="3629" v:groupContext="shape" transform="translate(3.0975,-9.33)">
				<title>shape4</title>
				<path d="M7.2 23.4 C7.2 23.4 14.92 21.75 19.5 23.4 L24.82 27.07 L27.75 73.57 L25.57 124.43 L22.2 128.63 L18.3 127.65
							 C18.3 127.65 13.72 129.75 11.1 130.35 C8.4 130.88 6.97 129.75 6.97 129.75 L2.17 126.53 L0 95.1 L0.97
							 28.95 L7.2 23.4 Z" class="st3"/>
			</g>
			<g id="shape3630-15" v:mID="3630" v:groupContext="shape" transform="translate(11.6025,-109.268)">
				<title>shape5</title>
				<path d="M0 129.83 C0 129.23 0.6 128.78 1.35 128.78 C2.1 128.78 2.7 129.23 2.7 129.83 C2.7 130.43 2.1 130.88 1.35
							 130.88 C0.6 130.88 0 130.43 0 129.83 Z" class="st4"/>
			</g>
			<g id="shape3631-19" v:mID="3631" v:groupContext="shape" transform="translate(9.795,-104.603)">
				<title>shape6</title>
				<path d="M0 129.98 C0 129.45 0.53 129.08 1.13 129.08 C1.8 129.08 2.33 129.45 2.33 129.98 C2.33 130.5 1.8 130.88 1.13
							 130.88 C0.53 130.88 0 130.5 0 129.98 Z" class="st5"/>
			</g>
			<g id="shape3632-23" v:mID="3632" v:groupContext="shape" transform="translate(10.11,-98.505)">
				<title>shape7</title>
				<path d="M0 129.75 C0 129.15 0.6 128.63 1.42 128.63 C2.25 128.63 2.85 129.15 2.85 129.75 C2.85 130.43 2.25 130.88
							 1.42 130.88 C0.6 130.88 0 130.43 0 129.75 Z" class="st6"/>
			</g>
			<g id="shape3633-27" v:mID="3633" v:groupContext="shape" transform="translate(11.1975,-91.5975)">
				<title>shape8</title>
				<path d="M0 129.98 C0 129.45 0.53 129.08 1.13 129.08 C1.8 129.08 2.33 129.45 2.33 129.98 C2.33 130.5 1.8 130.88 1.13
							 130.88 C0.53 130.88 0 130.5 0 129.98 Z" class="st7"/>
			</g>
			<g id="shape3634-31" v:mID="3634" v:groupContext="shape" transform="translate(5.2725,-88.5975)">
				<title>shape9</title>
				<path d="M0 129.6 C0 128.85 0.75 128.33 1.65 128.33 C2.55 128.33 3.3 128.85 3.3 129.6 C3.3 130.35 2.55 130.88 1.65
							 130.88 C0.75 130.88 0 130.35 0 129.6 Z" class="st8"/>
			</g>
			<g id="shape3635-35" v:mID="3635" v:groupContext="shape" transform="translate(21.15,-101.205)">
				<title>shape10</title>
				<path d="M0 129.98 C0 129.45 0.53 129.08 1.13 129.08 C1.8 129.08 2.33 129.45 2.33 129.98 C2.33 130.5 1.8 130.88 1.13
							 130.88 C0.53 130.88 0 130.5 0 129.98 Z" class="st5"/>
			</g>
			<g id="shape3636-38" v:mID="3636" v:groupContext="shape" transform="translate(16.9425,-106.267)">
				<title>shape11</title>
				<path d="M0 129.83 C0 129.23 0.6 128.78 1.35 128.78 C2.1 128.78 2.7 129.23 2.7 129.83 C2.7 130.43 2.1 130.88 1.35
							 130.88 C0.6 130.88 0 130.43 0 129.83 Z" class="st9"/>
			</g>
			<g id="shape3637-42" v:mID="3637" v:groupContext="shape" transform="translate(18.09,-87.615)">
				<title>shape12</title>
				<path d="M0 129.38 C0 128.63 0.83 127.95 1.8 127.95 C2.85 127.95 3.68 128.63 3.68 129.38 C3.68 130.2 2.85 130.88
							 1.8 130.88 C0.83 130.88 0 130.2 0 129.38 Z" class="st10"/>
			</g>
			<g id="shape3638-46" v:mID="3638" v:groupContext="shape" transform="translate(4.9575,-79.125)">
				<title>shape13</title>
				<path d="M0 129.6 C0 128.85 0.75 128.25 1.65 128.25 C2.62 128.25 3.3 128.85 3.3 129.6 C3.3 130.28 2.62 130.88 1.65
							 130.88 C0.75 130.88 0 130.28 0 129.6 Z" class="st11"/>
			</g>
			<g id="shape3639-50" v:mID="3639" v:groupContext="shape" transform="translate(16.1775,-72.4425)">
				<title>shape14</title>
				<path d="M0 129.6 C0 128.93 0.75 128.33 1.65 128.33 C2.55 128.33 3.3 128.93 3.3 129.6 C3.3 130.35 2.55 130.88 1.65
							 130.88 C0.75 130.88 0 130.35 0 129.6 Z" class="st8"/>
			</g>
			<g id="shape3640-53" v:mID="3640" v:groupContext="shape" transform="translate(13.095,-66.435)">
				<title>shape15</title>
				<path d="M0 129.45 C0 128.7 0.75 128.1 1.73 128.1 C2.7 128.1 3.45 128.7 3.45 129.45 C3.45 130.2 2.7 130.88 1.73 130.88
							 C0.75 130.88 0 130.2 0 129.45 Z" class="st12"/>
			</g>
			<g id="shape3641-57" v:mID="3641" v:groupContext="shape" transform="translate(9.0225,-58.4175)">
				<title>shape16</title>
				<path d="M0 129.75 C0 129.15 0.67 128.63 1.42 128.63 C2.25 128.63 2.92 129.15 2.92 129.75 C2.92 130.43 2.25 130.88
							 1.42 130.88 C0.67 130.88 0 130.43 0 129.75 Z" class="st13"/>
			</g>
			<g id="shape3642-61" v:mID="3642" v:groupContext="shape" transform="translate(9.435,-75.0225)">
				<title>shape17</title>
				<path d="M0 130.05 C0 129.6 0.45 129.23 1.05 129.23 C1.65 129.23 2.1 129.6 2.1 130.05 C2.1 130.5 1.65 130.88 1.05
							 130.88 C0.45 130.88 0 130.5 0 130.05 Z" class="st14"/>
			</g>
			<g id="shape3643-65" v:mID="3643" v:groupContext="shape" transform="translate(18.705,-79.2825)">
				<title>shape18</title>
				<path d="M0 130.13 C0 129.68 0.38 129.38 0.9 129.38 C1.43 129.38 1.88 129.68 1.88 130.13 C1.88 130.58 1.43 130.88
							 0.9 130.88 C0.38 130.88 0 130.58 0 130.13 Z" class="st15"/>
			</g>
			<g id="shape3644-69" v:mID="3644" v:groupContext="shape" transform="translate(6.2775,-67.7175)">
				<title>shape19</title>
				<path d="M0 129.83 C0 129.23 0.67 128.78 1.35 128.78 C2.1 128.78 2.77 129.23 2.77 129.83 C2.77 130.43 2.1 130.88
							 1.35 130.88 C0.67 130.88 0 130.43 0 129.83 Z" class="st16"/>
			</g>
			<g id="shape3645-73" v:mID="3645" v:groupContext="shape" transform="translate(14.82,-56.28)">
				<title>shape20</title>
				<path d="M0 129.83 C0 129.23 0.6 128.78 1.35 128.78 C2.1 128.78 2.7 129.23 2.7 129.83 C2.7 130.43 2.1 130.88 1.35
							 130.88 C0.6 130.88 0 130.43 0 129.83 Z" class="st4"/>
			</g>
			<g id="shape3646-76" v:mID="3646" v:groupContext="shape" transform="translate(20.76,-46.8375)">
				<title>shape21</title>
				<path d="M0 129.68 C0 129 0.75 128.48 1.57 128.48 C2.4 128.48 3.15 129 3.15 129.68 C3.15 130.35 2.4 130.88 1.57 130.88
							 C0.75 130.88 0 130.35 0 129.68 Z" class="st17"/>
			</g>
			<g id="shape3647-80" v:mID="3647" v:groupContext="shape" transform="translate(4.455,-42.525)">
				<title>shape22</title>
				<path d="M0 129.83 C0 129.23 0.6 128.78 1.35 128.78 C2.1 128.78 2.7 129.23 2.7 129.83 C2.7 130.43 2.1 130.88 1.35
							 130.88 C0.6 130.88 0 130.43 0 129.83 Z" class="st18"/>
			</g>
			<g id="shape3648-84" v:mID="3648" v:groupContext="shape" transform="translate(12.69,-37.53)">
				<title>shape23</title>
				<path d="M0 129.9 C0 129.38 0.52 128.93 1.27 128.93 C1.95 128.93 2.47 129.38 2.47 129.9 C2.47 130.43 1.95 130.88
							 1.27 130.88 C0.52 130.88 0 130.43 0 129.9 Z" class="st19"/>
			</g>
			<g id="shape3649-88" v:mID="3649" v:groupContext="shape" transform="translate(8.0775,-36.2925)">
				<title>shape24</title>
				<path d="M0 130.05 C0 129.6 0.45 129.23 1.05 129.23 C1.65 129.23 2.1 129.6 2.1 130.05 C2.1 130.5 1.65 130.88 1.05
							 130.88 C0.45 130.88 0 130.5 0 130.05 Z" class="st20"/>
			</g>
			<g id="shape3650-92" v:mID="3650" v:groupContext="shape" transform="translate(16.1775,-29.1225)">
				<title>shape25</title>
				<path d="M0 130.13 C0 129.68 0.45 129.38 0.98 129.38 C1.5 129.38 1.95 129.68 1.95 130.13 C1.95 130.5 1.5 130.88 0.98
							 130.88 C0.45 130.88 0 130.5 0 130.13 Z" class="st21"/>
			</g>
			<g id="shape3651-96" v:mID="3651" v:groupContext="shape" transform="translate(22.5525,-28.695)">
				<title>shape26</title>
				<path d="M0 129.75 C0 129.15 0.6 128.63 1.42 128.63 C2.25 128.63 2.85 129.15 2.85 129.75 C2.85 130.43 2.25 130.88
							 1.42 130.88 C0.6 130.88 0 130.43 0 129.75 Z" class="st22"/>
			</g>
			<g id="shape3652-100" v:mID="3652" v:groupContext="shape" transform="translate(22.3725,-24.42)">
				<title>shape27</title>
				<path d="M0 129.9 C0 129.38 0.52 128.93 1.2 128.93 C1.95 128.93 2.47 129.38 2.47 129.9 C2.47 130.43 1.95 130.88 1.2
							 130.88 C0.52 130.88 0 130.43 0 129.9 Z" class="st19"/>
			</g>
			<g id="shape3653-103" v:mID="3653" v:groupContext="shape" transform="translate(11.1525,-23.9475)">
				<title>shape28</title>
				<path d="M0 129.83 C0 129.23 0.6 128.78 1.35 128.78 C2.1 128.78 2.7 129.23 2.7 129.83 C2.7 130.43 2.1 130.88 1.35
							 130.88 C0.6 130.88 0 130.43 0 129.83 Z" class="st18"/>
			</g>
			<g id="shape3654-106" v:mID="3654" v:groupContext="shape" transform="translate(7.125,-21.0525)">
				<title>shape29</title>
				<path d="M0 129.83 C0 129.23 0.6 128.78 1.35 128.78 C2.03 128.78 2.7 129.23 2.7 129.83 C2.7 130.43 2.03 130.88 1.35
							 130.88 C0.6 130.88 0 130.43 0 129.83 Z" class="st18"/>
			</g>
			<g id="shape3655-109" v:mID="3655" v:groupContext="shape" transform="translate(12.075,-17.385)">
				<title>shape30</title>
				<path d="M0 129.98 C0 129.45 0.53 129.08 1.2 129.08 C1.8 129.08 2.33 129.45 2.33 129.98 C2.33 130.5 1.8 130.88 1.2
							 130.88 C0.53 130.88 0 130.5 0 129.98 Z" class="st23"/>
			</g>
			<g id="shape3656-113" v:mID="3656" v:groupContext="shape" transform="translate(10.56,-12.6675)">
				<title>shape31</title>
				<path d="M0 129.98 C0 129.45 0.53 129.08 1.13 129.08 C1.8 129.08 2.33 129.45 2.33 129.98 C2.33 130.5 1.8 130.88 1.13
							 130.88 C0.53 130.88 0 130.5 0 129.98 Z" class="st24"/>
			</g>
			<g id="shape3657-117" v:mID="3657" v:groupContext="shape" transform="translate(17.535,-13.4625)">
				<title>shape32</title>
				<path d="M0 129.23 C0 128.33 0.9 127.65 2.02 127.65 C3.15 127.65 4.05 128.33 4.05 129.23 C4.05 130.13 3.15 130.88
							 2.02 130.88 C0.9 130.88 0 130.13 0 129.23 Z" class="st25"/>
			</g>
			<g id="shape3658-121" v:mID="3658" v:groupContext="shape" transform="translate(24.6825,-16.785)">
				<title>shape33</title>
				<path d="M0 130.05 C0 129.6 0.45 129.23 1.05 129.23 C1.65 129.23 2.1 129.6 2.1 130.05 C2.1 130.5 1.65 130.88 1.05
							 130.88 C0.45 130.88 0 130.5 0 130.05 Z" class="st26"/>
			</g>
			<g id="shape3659-125" v:mID="3659" v:groupContext="shape" transform="translate(17.0925,-19.53)">
				<title>shape34</title>
				<path d="M0 129.98 C0 129.45 0.53 129.08 1.2 129.08 C1.8 129.08 2.33 129.45 2.33 129.98 C2.33 130.5 1.8 130.88 1.2
							 130.88 C0.53 130.88 0 130.5 0 129.98 Z" class="st23"/>
			</g>
			<g id="shape3660-128" v:mID="3660" v:groupContext="shape" transform="translate(8.6625,-46.9575)">
				<title>shape35</title>
				<path d="M0 129.83 C0 129.23 0.6 128.78 1.35 128.78 C2.1 128.78 2.7 129.23 2.7 129.83 C2.7 130.43 2.1 130.88 1.35
							 130.88 C0.6 130.88 0 130.43 0 129.83 Z" class="st18"/>
			</g>
			<g id="shape3661-131" v:mID="3661" v:groupContext="shape" transform="translate(25.635,-37.365)">
				<title>shape36</title>
				<path d="M0 129.68 C0 129 0.68 128.48 1.5 128.48 C2.4 128.48 3.08 129 3.08 129.68 C3.08 130.35 2.4 130.88 1.5 130.88
							 C0.68 130.88 0 130.35 0 129.68 Z" class="st27"/>
			</g>
			<g id="shape3662-135" v:mID="3662" v:groupContext="shape" transform="translate(14.1975,-44.835)">
				<title>shape37</title>
				<path d="M0 130.05 C0 129.6 0.53 129.23 1.13 129.23 C1.65 129.23 2.18 129.6 2.18 130.05 C2.18 130.5 1.65 130.88 1.13
							 130.88 C0.53 130.88 0 130.5 0 130.05 Z" class="st28"/>
			</g>
			<g id="shape3663-139" v:mID="3663" v:groupContext="shape" transform="translate(22.89,-55.9725)">
				<title>shape38</title>
				<path d="M0 129.98 C0 129.45 0.53 129.08 1.2 129.08 C1.8 129.08 2.33 129.45 2.33 129.98 C2.33 130.5 1.8 130.88 1.2
							 130.88 C0.53 130.88 0 130.5 0 129.98 Z" class="st24"/>
			</g>
			<g id="shape3664-142" v:mID="3664" v:groupContext="shape" transform="translate(25.4475,-63.585)">
				<title>shape39</title>
				<path d="M0 129.6 C0 128.85 0.75 128.33 1.65 128.33 C2.55 128.33 3.22 128.85 3.22 129.6 C3.22 130.28 2.55 130.88
							 1.65 130.88 C0.75 130.88 0 130.28 0 129.6 Z" class="st29"/>
			</g>
			<g id="shape3665-146" v:mID="3665" v:groupContext="shape" transform="translate(23.145,-70.455)">
				<title>shape40</title>
				<path d="M0 129.75 C0 129.15 0.6 128.63 1.42 128.63 C2.25 128.63 2.85 129.15 2.85 129.75 C2.85 130.43 2.25 130.88
							 1.42 130.88 C0.6 130.88 0 130.43 0 129.75 Z" class="st22"/>
			</g>
			<g id="shape3666-149" v:mID="3666" v:groupContext="shape" transform="translate(19.0725,-67.8525)">
				<title>shape41</title>
				<path d="M0 130.13 C0 129.68 0.45 129.38 0.98 129.38 C1.5 129.38 1.95 129.68 1.95 130.13 C1.95 130.58 1.5 130.88
							 0.98 130.88 C0.45 130.88 0 130.58 0 130.13 Z" class="st30"/>
			</g>
			<g id="shape3667-153" v:mID="3667" v:groupContext="shape" transform="translate(22.1475,-75.615)">
				<title>shape42</title>
				<path d="M0 129.9 C0 129.38 0.52 128.93 1.27 128.93 C1.95 128.93 2.47 129.38 2.47 129.9 C2.47 130.43 1.95 130.88
							 1.27 130.88 C0.52 130.88 0 130.43 0 129.9 Z" class="st31"/>
			</g>
			<g id="shape3668-157" v:mID="3668" v:groupContext="shape" transform="translate(22.7325,-95.28)">
				<title>shape43</title>
				<path d="M0 130.05 C0 129.6 0.45 129.23 1.05 129.23 C1.65 129.23 2.1 129.6 2.1 130.05 C2.1 130.5 1.65 130.88 1.05
							 130.88 C0.45 130.88 0 130.5 0 130.05 Z" class="st32"/>
			</g>
			<g id="shape3669-161" v:mID="3669" v:groupContext="shape" transform="translate(15.99,-97.905)">
				<title>shape44</title>
				<path d="M0 129.83 C0 129.23 0.6 128.78 1.35 128.78 C2.1 128.78 2.7 129.23 2.7 129.83 C2.7 130.43 2.1 130.88 1.35
							 130.88 C0.6 130.88 0 130.43 0 129.83 Z" class="st4"/>
			</g>
			<g id="shape3670-164" v:mID="3670" v:groupContext="shape" transform="translate(6.1275,-95.445)">
				<title>shape45</title>
				<path d="M0 129.9 C0 129.38 0.52 128.93 1.27 128.93 C1.95 128.93 2.47 129.38 2.47 129.9 C2.47 130.43 1.95 130.88
							 1.27 130.88 C0.52 130.88 0 130.43 0 129.9 Z" class="st33"/>
			</g>
			<g id="shape3671-168" v:mID="3671" v:groupContext="shape" transform="translate(19.0725,-111.983)">
				<title>shape46</title>
				<path d="M0 129.83 C0 129.23 0.6 128.78 1.35 128.78 C2.1 128.78 2.7 129.23 2.7 129.83 C2.7 130.43 2.1 130.88 1.35
							 130.88 C0.6 130.88 0 130.43 0 129.83 Z" class="st9"/>
			</g>
			<g id="shape3672-171" v:mID="3672" v:groupContext="shape" transform="translate(24.6825,-104.752)">
				<title>shape47</title>
				<path d="M0 130.05 C0 129.6 0.45 129.23 1.05 129.23 C1.65 129.23 2.1 129.6 2.1 130.05 C2.1 130.5 1.65 130.88 1.05
							 130.88 C0.45 130.88 0 130.5 0 130.05 Z" class="st20"/>
			</g>
			<g id="shape3673-174" v:mID="3673" v:groupContext="shape" transform="translate(5.5125,-109.327)">
				<title>shape48</title>
				<path d="M0 130.05 C0 129.6 0.52 129.23 1.12 129.23 C1.65 129.23 2.17 129.6 2.17 130.05 C2.17 130.5 1.65 130.88 1.12
							 130.88 C0.52 130.88 0 130.5 0 130.05 Z" class="st34"/>
			</g>
			<g id="shape3674-178" v:mID="3674" v:groupContext="shape" transform="translate(25.2675,-81.2625)">
				<title>shape49</title>
				<path d="M0 129.9 C0 129.38 0.52 128.93 1.2 128.93 C1.95 128.93 2.47 129.38 2.47 129.9 C2.47 130.43 1.95 130.88 1.2
							 130.88 C0.52 130.88 0 130.43 0 129.9 Z" class="st19"/>
			</g>
			<g id="shape3675-181" v:mID="3675" v:groupContext="shape" transform="translate(12.69,-83.7225)">
				<title>shape50</title>
				<path d="M0 129.83 C0 129.23 0.6 128.78 1.35 128.78 C2.1 128.78 2.7 129.23 2.7 129.83 C2.7 130.43 2.1 130.88 1.35
							 130.88 C0.6 130.88 0 130.43 0 129.83 Z" class="st4"/>
			</g>
			<g id="shape3676-184" v:mID="3676" v:groupContext="shape" transform="translate(6.9,-30.0525)">
				<title>shape51</title>
				<path d="M0 129.75 C0 129.15 0.67 128.63 1.42 128.63 C2.25 128.63 2.92 129.15 2.92 129.75 C2.92 130.35 2.25 130.88
							 1.42 130.88 C0.67 130.88 0 130.35 0 129.75 Z" class="st35"/>
			</g>
			<g id="shape3677-188" v:mID="3677" v:groupContext="shape" transform="translate(19.0725,-37.8375)">
				<title>shape52</title>
				<path d="M0 129.75 C0 129.15 0.6 128.63 1.42 128.63 C2.25 128.63 2.85 129.15 2.85 129.75 C2.85 130.43 2.25 130.88
							 1.42 130.88 C0.6 130.88 0 130.43 0 129.75 Z" class="st22"/>
			</g>
			<g id="shape3678-191" v:mID="3678" v:groupContext="shape" transform="translate(7.305,-54.15)">
				<title>shape53</title>
				<path d="M0 129.6 C0 128.93 0.67 128.33 1.65 128.33 C2.55 128.33 3.22 128.93 3.22 129.6 C3.22 130.35 2.55 130.88
							 1.65 130.88 C0.67 130.88 0 130.35 0 129.6 Z" class="st36"/>
			</g>
			<g id="shape3679-195" v:mID="3679" v:groupContext="shape" transform="translate(24.8625,-85.7925)">
				<title>shape54</title>
				<path d="M0 129.6 C0 128.93 0.75 128.33 1.65 128.33 C2.55 128.33 3.3 128.93 3.3 129.6 C3.3 130.35 2.55 130.88 1.65
							 130.88 C0.75 130.88 0 130.35 0 129.6 Z" class="st37"/>
			</g>
		</g>
	</g>
</svg>
