<?xml version="1.0" encoding="UTF-8" standalone="no"?>
<!DOCTYPE svg PUBLIC "-//W3C//DTD SVG 1.1//EN" "http://www.w3.org/Graphics/SVG/1.1/DTD/svg11.dtd">
<!-- 由 Microsoft Visio, SVG Export 生成 化学74.svg 页-1 -->
<svg xmlns="http://www.w3.org/2000/svg" xmlns:xlink="http://www.w3.org/1999/xlink" xmlns:ev="http://www.w3.org/2001/xml-events"
		xmlns:v="http://schemas.microsoft.com/visio/2003/SVGExtensions/" width="1.05729in" height="0.995833in"
		viewBox="0 0 76.125 71.7" xml:space="preserve" color-interpolation-filters="sRGB" class="st6">
	<v:documentProperties v:langID="2052" v:metric="true" v:viewMarkup="false"/>

	<style type="text/css">
	<![CDATA[
		.st1 {fill:url(#grad0-5);stroke:none;stroke-linecap:butt;stroke-width:0.75}
		.st2 {fill:#eeeeee;stroke:none;stroke-linecap:butt;stroke-width:0.75}
		.st3 {fill:url(#grad0-19);stroke:none;stroke-linecap:butt;stroke-width:0.75}
		.st4 {fill:url(#grad0-23);stroke:none;stroke-linecap:butt;stroke-width:0.75}
		.st5 {fill:url(#grad0-27);stroke:none;stroke-linecap:butt;stroke-width:0.75}
		.st6 {fill:none;fill-rule:evenodd;font-size:12px;overflow:visible;stroke-linecap:square;stroke-miterlimit:3}
	]]>
	</style>

	<defs id="Patterns_And_Gradients">
		<linearGradient id="grad0-5" x1="0" y1="0" x2="1" y2="0" gradientTransform="rotate(-180 0.5 0.5)">
			<stop offset="0" stop-color="#c4c4c4" stop-opacity="1"/>
			<stop offset="0.15" stop-color="#ffffff" stop-opacity="1"/>
			<stop offset="0.25" stop-color="#ffffff" stop-opacity="1"/>
			<stop offset="0.44" stop-color="#dfdfdf" stop-opacity="1"/>
			<stop offset="0.6" stop-color="#c7c7c7" stop-opacity="1"/>
			<stop offset="0.8" stop-color="#a8a8a8" stop-opacity="1"/>
			<stop offset="0.97" stop-color="#999999" stop-opacity="1"/>
			<stop offset="1" stop-color="#cbcbcb" stop-opacity="1"/>
		</linearGradient>
		<linearGradient id="grad0-19" x1="0" y1="0" x2="1" y2="0" gradientTransform="rotate(-180 0.5 0.5)">
			<stop offset="0" stop-color="#97aa93" stop-opacity="1"/>
			<stop offset="0.15" stop-color="#d0e8cb" stop-opacity="1"/>
			<stop offset="0.25" stop-color="#e5f2e2" stop-opacity="1"/>
			<stop offset="0.52" stop-color="#b3c9ae" stop-opacity="1"/>
			<stop offset="0.69" stop-color="#9fb39b" stop-opacity="1"/>
			<stop offset="0.8" stop-color="#96a992" stop-opacity="1"/>
			<stop offset="0.92" stop-color="#8e9f89" stop-opacity="1"/>
		</linearGradient>
		<linearGradient id="grad0-23" x1="0" y1="0" x2="1" y2="0" gradientTransform="rotate(90 0.5 0.5)">
			<stop offset="0" stop-color="#3d3b3b" stop-opacity="1"/>
			<stop offset="0.03" stop-color="#908f8f" stop-opacity="1"/>
			<stop offset="0.08" stop-color="#514f4f" stop-opacity="1"/>
			<stop offset="0.64" stop-color="#504e4e" stop-opacity="1"/>
			<stop offset="0.95" stop-color="#4e4c4c" stop-opacity="1"/>
			<stop offset="1" stop-color="#383636" stop-opacity="1"/>
		</linearGradient>
		<linearGradient id="grad0-27" x1="0" y1="0" x2="1" y2="0" gradientTransform="rotate(-180 0.5 0.5)">
			<stop offset="0" stop-color="#8c9f2e" stop-opacity="1"/>
			<stop offset="0.15" stop-color="#c3da5e" stop-opacity="1"/>
			<stop offset="0.25" stop-color="#deeab8" stop-opacity="1"/>
			<stop offset="0.52" stop-color="#a6bc39" stop-opacity="1"/>
			<stop offset="0.69" stop-color="#93a731" stop-opacity="1"/>
			<stop offset="0.8" stop-color="#8b9e2e" stop-opacity="1"/>
			<stop offset="0.92" stop-color="#83952b" stop-opacity="1"/>
			<stop offset="1" stop-color="#97ab33" stop-opacity="1"/>
		</linearGradient>
	</defs>
	<g v:mID="0" v:index="1" v:groupContext="foregroundPage">
		<title>页-1</title>
		<v:pageProperties v:drawingScale="0.0393701" v:pageScale="0.0393701" v:drawingUnits="24" v:shadowOffsetX="8.50394"
				v:shadowOffsetY="-8.50394"/>
		<g id="group3883-1" transform="translate(0.75,-0.75)" v:mID="3883" v:groupContext="group">
			<title>后发酵罐</title>
			<g id="shape3884-2" v:mID="3884" v:groupContext="shape" transform="translate(1.5825,-52.65)">
				<title>shape1</title>
				<path d="M0 71.7 C0 64.43 15.98 54.15 35.55 54.15 C55.28 54.15 71.18 64.43 71.18 71.7 C71.18 71.7 0 71.7 0 71.7 Z"
						class="st1"/>
			</g>
			<g id="shape3885-6" v:mID="3885" v:groupContext="shape" transform="translate(5.16,-52.725)">
				<title>shape2</title>
				<path d="M31.95 54.23 C31.95 54.23 12.75 56.93 0 71.7 L2.48 71.7 C2.48 71.7 13.73 58.13 31.95 54.23 Z" class="st2"/>
			</g>
			<g id="shape3886-8" v:mID="3886" v:groupContext="shape" transform="translate(20.01,-52.635)">
				<title>shape3</title>
				<path d="M17.17 54.15 C17.17 54.15 7.05 59.48 0 71.7 L1.87 71.7 C1.87 71.7 8.92 59.48 17.17 54.15 Z" class="st2"/>
			</g>
			<g id="shape3887-10" v:mID="3887" v:groupContext="shape" transform="translate(36.015,-52.635)">
				<title>shape4</title>
				<path d="M1.13 54.15 L0 71.7 L1.95 71.7 L1.13 54.15 Z" class="st2"/>
			</g>
			<g id="shape3888-12" v:mID="3888" v:groupContext="shape" transform="translate(69.075,-52.71) scale(-1,1)">
				<title>shape5</title>
				<path d="M31.95 54.23 C31.95 54.23 12.75 56.93 0 71.7 L2.48 71.7 C2.48 71.7 13.73 58.13 31.95 54.23 Z" class="st2"/>
			</g>
			<g id="shape3889-14" v:mID="3889" v:groupContext="shape" transform="translate(54.225,-52.635) scale(-1,1)">
				<title>shape6</title>
				<path d="M17.17 54.15 C17.17 54.15 7.05 59.48 0 71.7 L1.87 71.7 C1.87 71.7 8.92 59.48 17.17 54.15 Z" class="st2"/>
			</g>
			<g id="shape3890-16" v:mID="3890" v:groupContext="shape" transform="translate(1.5825,-2.49)">
				<title>shape7</title>
				<path d="M0 21.82 L71.48 21.82 L71.48 71.7 L0 71.7 L0 21.82 Z" class="st3"/>
			</g>
			<g id="shape3891-20" v:mID="3891" v:groupContext="shape">
				<title>shape8</title>
				<path d="M0 69.23 L74.63 69.23 L74.63 71.7 L0 71.7 L0 69.23 Z" class="st4"/>
			</g>
			<g id="shape3892-24" v:mID="3892" v:groupContext="shape" transform="translate(1.5825,-50.04)">
				<title>shape9</title>
				<path d="M0 69.38 L71.48 69.38 L71.48 71.7 L0 71.7 L0 69.38 Z" class="st5"/>
			</g>
		</g>
	</g>
</svg>
