<?xml version="1.0" encoding="UTF-8" standalone="no"?>
<!DOCTYPE svg PUBLIC "-//W3C//DTD SVG 1.1//EN" "http://www.w3.org/Graphics/SVG/1.1/DTD/svg11.dtd">
<!-- 由 Microsoft Visio, SVG Export 生成 化学14.svg 页-1 -->
<svg xmlns="http://www.w3.org/2000/svg" xmlns:xlink="http://www.w3.org/1999/xlink" xmlns:ev="http://www.w3.org/2001/xml-events"
		xmlns:v="http://schemas.microsoft.com/visio/2003/SVGExtensions/" width="0.75in" height="1.84385in" viewBox="0 0 54 132.758"
		xml:space="preserve" color-interpolation-filters="sRGB" class="st5">
	<v:documentProperties v:langID="2052" v:metric="true" v:viewMarkup="false"/>

	<style type="text/css">
	<![CDATA[
		.st1 {fill:url(#grad0-5);stroke:none;stroke-linecap:butt;stroke-width:0.75}
		.st2 {fill:url(#grad0-9);stroke:none;stroke-linecap:butt;stroke-width:0.75}
		.st3 {fill:#9e9f9f;stroke:none;stroke-linecap:butt;stroke-width:0.75}
		.st4 {fill:url(#grad0-39);stroke:none;stroke-linecap:butt;stroke-width:0.75}
		.st5 {fill:none;fill-rule:evenodd;font-size:12px;overflow:visible;stroke-linecap:square;stroke-miterlimit:3}
	]]>
	</style>

	<defs id="Patterns_And_Gradients">
		<linearGradient id="grad0-5" x1="0" y1="0" x2="1" y2="0" gradientTransform="rotate(-180 0.5 0.5)">
			<stop offset="0" stop-color="#b8b8b8" stop-opacity="1"/>
			<stop offset="0.15" stop-color="#f8f8f8" stop-opacity="1"/>
			<stop offset="0.25" stop-color="#fbfbfb" stop-opacity="1"/>
			<stop offset="0.52" stop-color="#d9d9d9" stop-opacity="1"/>
			<stop offset="0.69" stop-color="#c1c1c1" stop-opacity="1"/>
			<stop offset="0.8" stop-color="#b6b6b6" stop-opacity="1"/>
			<stop offset="0.92" stop-color="#acacac" stop-opacity="1"/>
			<stop offset="1" stop-color="#c6c6c6" stop-opacity="1"/>
		</linearGradient>
		<linearGradient id="grad0-9" x1="0" y1="0" x2="1" y2="0" gradientTransform="rotate(-180 0.5 0.5)">
			<stop offset="0" stop-color="#979898" stop-opacity="1"/>
			<stop offset="0.15" stop-color="#d0d1d1" stop-opacity="1"/>
			<stop offset="0.25" stop-color="#e5e6e6" stop-opacity="1"/>
			<stop offset="0.52" stop-color="#b3b4b4" stop-opacity="1"/>
			<stop offset="0.69" stop-color="#9fa0a0" stop-opacity="1"/>
			<stop offset="0.8" stop-color="#969797" stop-opacity="1"/>
			<stop offset="0.92" stop-color="#8e8e8e" stop-opacity="1"/>
			<stop offset="1" stop-color="#a3a4a4" stop-opacity="1"/>
		</linearGradient>
		<linearGradient id="grad0-39" x1="0" y1="0" x2="1" y2="0" gradientTransform="rotate(90 0.5 0.5)">
			<stop offset="0" stop-color="#909191" stop-opacity="1"/>
			<stop offset="0.03" stop-color="#d8d9d9" stop-opacity="1"/>
			<stop offset="0.08" stop-color="#bdbebe" stop-opacity="1"/>
			<stop offset="0.64" stop-color="#bababa" stop-opacity="1"/>
			<stop offset="0.95" stop-color="#b5b6b6" stop-opacity="1"/>
			<stop offset="1" stop-color="#868787" stop-opacity="1"/>
		</linearGradient>
	</defs>
	<g v:mID="0" v:index="1" v:groupContext="foregroundPage">
		<title>页-1</title>
		<v:pageProperties v:drawingScale="0.0393701" v:pageScale="0.0393701" v:drawingUnits="24" v:shadowOffsetX="8.50394"
				v:shadowOffsetY="-8.50394"/>
		<g id="group2258-1" transform="translate(0.75,-0.75)" v:mID="2258" v:groupContext="group">
			<title>蒸发器</title>
			<g id="shape2259-2" v:mID="2259" v:groupContext="shape" transform="translate(10.395,-1.5)">
				<title>shape1</title>
				<path d="M0 29.26 L31.72 29.26 L31.72 132.76 L0 132.76 L0 29.26 Z" class="st1"/>
			</g>
			<g id="shape2260-6" v:mID="2260" v:groupContext="shape" transform="translate(10.395,-35.9475)">
				<title>shape2</title>
				<path d="M0 131.71 L31.72 131.71 L31.72 132.76 L0 132.76 L0 131.71 Z" class="st2"/>
			</g>
			<g id="shape2261-10" v:mID="2261" v:groupContext="shape" transform="translate(10.395,-53.4)">
				<title>shape3</title>
				<path d="M0 131.71 L31.72 131.71 L31.72 132.76 L0 132.76 L0 131.71 Z" class="st2"/>
			</g>
			<g id="shape2262-13" v:mID="2262" v:groupContext="shape" transform="translate(10.395,-70.845)">
				<title>shape4</title>
				<path d="M0 131.71 L31.72 131.71 L31.72 132.76 L0 132.76 L0 131.71 Z" class="st2"/>
			</g>
			<g id="shape2263-16" v:mID="2263" v:groupContext="shape" transform="translate(10.395,-88.2975)">
				<title>shape5</title>
				<path d="M0 131.71 L31.72 131.71 L31.72 132.76 L0 132.76 L0 131.71 Z" class="st2"/>
			</g>
			<g id="shape2264-19" v:mID="2264" v:groupContext="shape" transform="translate(10.395,-18.5025)">
				<title>shape6</title>
				<path d="M0 131.71 L31.72 131.71 L31.72 132.76 L0 132.76 L0 131.71 Z" class="st2"/>
			</g>
			<g id="shape2265-22" v:mID="2265" v:groupContext="shape" transform="translate(8.505,2.84217E-14)">
				<title>shape7</title>
				<path d="M0.75 130.51 L34.73 130.51 C35.18 130.51 35.48 130.81 35.48 131.26 C35.48 132.38 35.18 132.76 34.73 132.76
							 L0.75 132.76 C0.38 132.76 0 132.38 0 132.01 C0 130.81 0.38 130.51 0.75 130.51 Z" class="st2"/>
			</g>
			<g id="shape2266-25" v:mID="2266" v:groupContext="shape" transform="translate(-3.19744E-14,-101.678)">
				<title>shape8</title>
				<path d="M0.82 128.86 L51.67 128.86 C52.12 128.86 52.5 129.23 52.5 129.68 L52.5 131.93 C52.5 132.38 52.12 132.76
							 51.67 132.76 L0.83 132.76 C0.37 132.76 0 132.38 0 131.93 L0 129.68 C0 129.23 0.37 128.86 0.82 128.86
							 Z" class="st2"/>
			</g>
			<g id="shape2267-28" v:mID="2267" v:groupContext="shape" transform="translate(0.96,-105.577)">
				<title>shape9</title>
				<path d="M0 111.01 L50.55 111.01 L50.55 132.76 L0 132.76 L0 111.01 Z" class="st1"/>
			</g>
			<g id="shape2268-31" v:mID="2268" v:groupContext="shape" transform="translate(-3.19744E-14,-127.35)">
				<title>shape10</title>
				<path d="M0.82 128.86 L51.67 128.86 C52.12 128.86 52.5 129.23 52.5 129.68 L52.5 131.93 C52.5 132.38 52.12 132.76
							 51.67 132.76 L0.83 132.76 C0.37 132.76 0 132.38 0 131.93 L0 129.68 C0 129.23 0.37 128.86 0.82 128.86
							 Z" class="st2"/>
			</g>
			<g id="shape2269-34" v:mID="2269" v:groupContext="shape" transform="translate(15.3525,-105.607)">
				<title>shape11</title>
				<path d="M0 107.11 L21.83 107.11 L21.83 132.76 L0 132.76 L0 107.11 Z" class="st3"/>
			</g>
			<g id="shape2270-36" v:mID="2270" v:groupContext="shape" transform="translate(15.3525,-127.282)">
				<title>shape12</title>
				<path d="M0 128.78 L21.83 128.78 L21.83 132.76 L0 132.76 L0 128.78 Z" class="st4"/>
			</g>
			<g id="shape2271-40" v:mID="2271" v:groupContext="shape" transform="translate(15.345,-105.532)">
				<title>shape13</title>
				<path d="M0 107.03 L1.8 107.03 L1.8 132.76 L0 132.76 L0 107.03 Z" class="st1"/>
			</g>
			<g id="shape2272-43" v:mID="2272" v:groupContext="shape" transform="translate(35.505,-105.525)">
				<title>shape14</title>
				<path d="M0 107.03 L1.8 107.03 L1.8 132.76 L0 132.76 L0 107.03 Z" class="st1"/>
			</g>
		</g>
	</g>
</svg>
