<?xml version="1.0" encoding="UTF-8" standalone="no"?>
<!DOCTYPE svg PUBLIC "-//W3C//DTD SVG 1.1//EN" "http://www.w3.org/Graphics/SVG/1.1/DTD/svg11.dtd">
<!-- 由 Microsoft Visio, SVG Export 生成 化学89.svg 页-1 -->
<svg xmlns="http://www.w3.org/2000/svg" xmlns:xlink="http://www.w3.org/1999/xlink" xmlns:ev="http://www.w3.org/2001/xml-events"
		xmlns:v="http://schemas.microsoft.com/visio/2003/SVGExtensions/" width="1.17708in" height="1.34583in"
		viewBox="0 0 84.75 96.9" xml:space="preserve" color-interpolation-filters="sRGB" class="st4">
	<v:documentProperties v:langID="2052" v:metric="true" v:viewMarkup="false"/>

	<style type="text/css">
	<![CDATA[
		.st1 {fill:url(#grad0-6);stroke:none;stroke-linecap:butt;stroke-width:0.75}
		.st2 {fill:url(#grad7-10);stroke:none;stroke-linecap:butt;stroke-width:0.75}
		.st3 {fill:url(#grad0-20);stroke:none;stroke-linecap:butt;stroke-width:0.75}
		.st4 {fill:none;fill-rule:evenodd;font-size:12px;overflow:visible;stroke-linecap:square;stroke-miterlimit:3}
	]]>
	</style>

	<defs id="Patterns_And_Gradients">
		<linearGradient id="grad0-6" x1="0" y1="0" x2="1" y2="0" gradientTransform="rotate(90 0.5 0.5)">
			<stop offset="0" stop-color="#dddddd" stop-opacity="1"/>
			<stop offset="1" stop-color="#b3b3b3" stop-opacity="1"/>
		</linearGradient>
		<radialGradient id="grad7-10" cx="0" cy="0" r="1.4">
			<stop offset="0" stop-color="#ffffff" stop-opacity="1"/>
			<stop offset="0.57" stop-color="#ffffff" stop-opacity="1"/>
			<stop offset="1" stop-color="#ffffff" stop-opacity="1"/>
		</radialGradient>
		<linearGradient id="grad0-20" x1="0" y1="0" x2="1" y2="0" gradientTransform="rotate(-180 0.5 0.5)">
			<stop offset="0" stop-color="#bdbdbd" stop-opacity="1"/>
			<stop offset="0.15" stop-color="#ffffff" stop-opacity="1"/>
			<stop offset="0.25" stop-color="#ffffff" stop-opacity="1"/>
			<stop offset="0.52" stop-color="#dfdfdf" stop-opacity="1"/>
			<stop offset="0.69" stop-color="#c7c7c7" stop-opacity="1"/>
			<stop offset="0.8" stop-color="#bcbcbc" stop-opacity="1"/>
			<stop offset="0.92" stop-color="#b1b1b1" stop-opacity="1"/>
			<stop offset="1" stop-color="#cbcbcb" stop-opacity="1"/>
		</linearGradient>
	</defs>
	<g v:mID="0" v:index="1" v:groupContext="foregroundPage">
		<title>页-1</title>
		<v:pageProperties v:drawingScale="0.0393701" v:pageScale="0.0393701" v:drawingUnits="24" v:shadowOffsetX="8.50394"
				v:shadowOffsetY="-8.50394"/>
		<g id="group4133-1" transform="translate(0.75,-0.75)" v:mID="4133" v:groupContext="group">
			<title>脱氧器</title>
			<g id="group4134-2" v:mID="4134" v:groupContext="group">
				<title>工作表.4134</title>
				<g id="shape4135-3" v:mID="4135" v:groupContext="shape" transform="translate(83.25,2.41585E-13) scale(-1,1)">
					<title>shape1</title>
					<path d="M0 56.77 C0 34.57 18.6 16.65 41.62 16.65 C64.57 16.65 83.25 34.57 83.25 56.77 C83.25 78.97 64.57 96.9
								 41.62 96.9 C18.6 96.9 0 78.97 0 56.77 Z" class="st1"/>
				</g>
				<g id="shape4136-7" v:mID="4136" v:groupContext="shape" transform="translate(2.4375,-2.055)">
					<title>shape2</title>
					<path d="M0 57.9 C0 36.3 17.92 18.83 40.05 18.83 C62.17 18.83 80.1 36.3 80.1 57.9 C80.1 79.42 62.17 96.9 40.05
								 96.9 C17.92 96.9 0 79.42 0 57.9 Z" class="st2"/>
				</g>
				<g id="shape4137-11" v:mID="4137" v:groupContext="shape" transform="translate(16.755,-22.14)">
					<title>shape3</title>
					<path d="M0 67.95 C0 51.98 13.27 39 29.7 39 C46.05 39 59.4 51.98 59.4 67.95 C59.4 83.92 46.05 96.9 29.7 96.9
								 C13.27 96.9 0 83.92 0 67.95 Z" class="st2"/>
				</g>
				<g id="shape4138-14" v:mID="4138" v:groupContext="shape" transform="translate(18.225,-25.7325)">
					<title>shape4</title>
					<path d="M0 71.1 C0 56.85 11.85 45.3 26.48 45.3 C41.1 45.3 52.95 56.85 52.95 71.1 C52.95 85.35 41.1 96.9 26.48
								 96.9 C11.85 96.9 0 85.35 0 71.1 Z" class="st2"/>
				</g>
			</g>
			<g id="shape4139-17" v:mID="4139" v:groupContext="shape" transform="translate(27.12,-77.25)">
				<title>shape5</title>
				<path d="M0.15 78.75 L28.88 78.75 C28.95 78.75 29.03 78.83 29.03 78.98 L29.03 96.6 C29.03 96.75 28.95 96.9 28.88
							 96.9 L0.15 96.9 C0.08 96.9 0 96.75 0 96.6 L0 78.98 C0 78.83 0.08 78.75 0.15 78.75 Z" class="st3"/>
			</g>
		</g>
	</g>
</svg>
