<?xml version="1.0" encoding="UTF-8" standalone="no"?>
<!DOCTYPE svg PUBLIC "-//W3C//DTD SVG 1.1//EN" "http://www.w3.org/Graphics/SVG/1.1/DTD/svg11.dtd">
<!-- 由 Microsoft Visio, SVG Export 生成 化学22.svg 页-1 -->
<svg xmlns="http://www.w3.org/2000/svg" xmlns:xlink="http://www.w3.org/1999/xlink" xmlns:ev="http://www.w3.org/2001/xml-events"
		xmlns:v="http://schemas.microsoft.com/visio/2003/SVGExtensions/" width="1.25in" height="1.79135in" viewBox="0 0 90 128.977"
		xml:space="preserve" color-interpolation-filters="sRGB" class="st14">
	<v:documentProperties v:langID="2052" v:metric="true" v:viewMarkup="false"/>

	<style type="text/css">
	<![CDATA[
		.st1 {fill:url(#grad0-5);stroke:none;stroke-linecap:butt;stroke-width:0.75}
		.st2 {fill:url(#grad0-9);stroke:none;stroke-linecap:butt;stroke-width:0.75}
		.st3 {fill:#bbcad5;stroke:none;stroke-linecap:butt;stroke-width:0.75}
		.st4 {fill:#6e8ca2;stroke:none;stroke-linecap:butt;stroke-width:0.75}
		.st5 {fill:#607e95;stroke:none;stroke-linecap:butt;stroke-width:0.75}
		.st6 {fill:url(#grad0-283);stroke:none;stroke-linecap:butt;stroke-width:0.75}
		.st7 {fill:#5e7c92;stroke:none;stroke-linecap:butt;stroke-width:0.75}
		.st8 {fill:#87a0b2;stroke:none;stroke-linecap:butt;stroke-width:0.75}
		.st9 {fill:url(#grad0-302);stroke:none;stroke-linecap:butt;stroke-width:0.75}
		.st10 {fill:url(#grad0-306);stroke:none;stroke-linecap:butt;stroke-width:0.75}
		.st11 {fill:url(#grad0-311);stroke:none;stroke-linecap:butt;stroke-width:0.75}
		.st12 {fill:#667a8a;stroke:none;stroke-linecap:butt;stroke-width:0.75}
		.st13 {fill:url(#grad0-9);stroke:#5e778c;stroke-linecap:butt;stroke-width:0.75}
		.st14 {fill:none;fill-rule:evenodd;font-size:12px;overflow:visible;stroke-linecap:square;stroke-miterlimit:3}
	]]>
	</style>

	<defs id="Patterns_And_Gradients">
		<linearGradient id="grad0-5" x1="0" y1="0" x2="1" y2="0" gradientTransform="rotate(-180 0.5 0.5)">
			<stop offset="0" stop-color="#718696" stop-opacity="1"/>
			<stop offset="0.15" stop-color="#a2bbcf" stop-opacity="1"/>
			<stop offset="0.25" stop-color="#d0dbe4" stop-opacity="1"/>
			<stop offset="0.52" stop-color="#869fb1" stop-opacity="1"/>
			<stop offset="0.69" stop-color="#778d9e" stop-opacity="1"/>
			<stop offset="0.8" stop-color="#708595" stop-opacity="1"/>
			<stop offset="0.92" stop-color="#697d8c" stop-opacity="1"/>
			<stop offset="1" stop-color="#7a90a1" stop-opacity="1"/>
		</linearGradient>
		<linearGradient id="grad0-9" x1="0" y1="0" x2="1" y2="0" gradientTransform="rotate(90 0.5 0.5)">
			<stop offset="0" stop-color="#718696" stop-opacity="1"/>
			<stop offset="0.15" stop-color="#a2bbcf" stop-opacity="1"/>
			<stop offset="0.25" stop-color="#d0dbe4" stop-opacity="1"/>
			<stop offset="0.52" stop-color="#869fb1" stop-opacity="1"/>
			<stop offset="0.69" stop-color="#778d9e" stop-opacity="1"/>
			<stop offset="0.8" stop-color="#708595" stop-opacity="1"/>
			<stop offset="0.92" stop-color="#697d8c" stop-opacity="1"/>
			<stop offset="1" stop-color="#7a90a1" stop-opacity="1"/>
		</linearGradient>
		<linearGradient id="grad0-283" x1="0" y1="0" x2="1" y2="0" gradientTransform="rotate(-180 0.5 0.5)">
			<stop offset="0" stop-color="#808f9a" stop-opacity="1"/>
			<stop offset="0.15" stop-color="#c0ccd6" stop-opacity="1"/>
			<stop offset="0.25" stop-color="#c5d0d9" stop-opacity="1"/>
			<stop offset="0.52" stop-color="#90a1ad" stop-opacity="1"/>
			<stop offset="0.69" stop-color="#808f9a" stop-opacity="1"/>
			<stop offset="0.8" stop-color="#788691" stop-opacity="1"/>
			<stop offset="0.92" stop-color="#717f89" stop-opacity="1"/>
		</linearGradient>
		<linearGradient id="grad0-302" x1="0" y1="0" x2="1" y2="0" gradientTransform="rotate(-207.58652929706 0.5 0.5)">
			<stop offset="0" stop-color="#728b9e" stop-opacity="1"/>
			<stop offset="0.15" stop-color="#b6c9d9" stop-opacity="1"/>
			<stop offset="0.25" stop-color="#bccddc" stop-opacity="1"/>
			<stop offset="0.52" stop-color="#819cb1" stop-opacity="1"/>
			<stop offset="0.69" stop-color="#728b9e" stop-opacity="1"/>
			<stop offset="0.8" stop-color="#6b8395" stop-opacity="1"/>
			<stop offset="0.92" stop-color="#657b8c" stop-opacity="1"/>
		</linearGradient>
		<linearGradient id="grad0-306" x1="0" y1="0" x2="1" y2="0" gradientTransform="rotate(-27.586529297062 0.5 0.5)">
			<stop offset="0" stop-color="#728b9e" stop-opacity="1"/>
			<stop offset="0.15" stop-color="#b6c9d9" stop-opacity="1"/>
			<stop offset="0.25" stop-color="#bccddc" stop-opacity="1"/>
			<stop offset="0.52" stop-color="#819cb1" stop-opacity="1"/>
			<stop offset="0.69" stop-color="#728b9e" stop-opacity="1"/>
			<stop offset="0.8" stop-color="#6b8395" stop-opacity="1"/>
			<stop offset="0.92" stop-color="#657b8c" stop-opacity="1"/>
		</linearGradient>
		<linearGradient id="grad0-311" x1="0" y1="0" x2="1" y2="0" gradientTransform="rotate(90 0.5 0.5)">
			<stop offset="0" stop-color="#506e8c" stop-opacity="1"/>
			<stop offset="0.15" stop-color="#7d9fc3" stop-opacity="1"/>
			<stop offset="0.25" stop-color="#c1cede" stop-opacity="1"/>
			<stop offset="0.52" stop-color="#5f83a6" stop-opacity="1"/>
			<stop offset="0.69" stop-color="#547493" stop-opacity="1"/>
			<stop offset="0.8" stop-color="#4f6d8b" stop-opacity="1"/>
			<stop offset="0.92" stop-color="#4a6683" stop-opacity="1"/>
			<stop offset="1" stop-color="#567797" stop-opacity="1"/>
		</linearGradient>
	</defs>
	<g v:mID="0" v:index="1" v:groupContext="foregroundPage">
		<title>页-1</title>
		<v:pageProperties v:drawingScale="0.0393701" v:pageScale="0.0393701" v:drawingUnits="24" v:shadowOffsetX="8.50394"
				v:shadowOffsetY="-8.50394"/>
		<g id="group2505-1" transform="translate(0.75,-0.75)" v:mID="2505" v:groupContext="group">
			<title>加热除湿干燥机</title>
			<g id="shape2506-2" v:mID="2506" v:groupContext="shape" transform="translate(40.485,-29.16)">
				<title>shape1</title>
				<path d="M0 124.63 L6.98 124.63 L6.98 128.98 L0 128.98 L0 124.63 Z" class="st1"/>
			</g>
			<g id="shape2507-6" v:mID="2507" v:groupContext="shape" transform="translate(170.677,24.1575) rotate(90) scale(-1,1)">
				<title>shape2</title>
				<path d="M0 124.48 L13.35 124.48 L13.35 128.98 L0 128.98 L0 124.48 Z" class="st2"/>
			</g>
			<g id="group2508-10" transform="translate(35.2275,-31.0425)" v:mID="2508" v:groupContext="group">
				<title>工作表.2508</title>
				<g id="group2509-11" transform="translate(5.415,-69.66)" v:mID="2509" v:groupContext="group">
					<title>工作表.2509</title>
					<g id="shape2510-12" v:mID="2510" v:groupContext="shape" transform="translate(0.6975,-8.52651E-14)">
						<title>shape3</title>
						<path d="M0 123.35 L5.25 123.35 L5.25 128.98 L0 128.98 L0 123.35 Z" class="st1"/>
					</g>
					<g id="shape2511-15" v:mID="2511" v:groupContext="shape" transform="translate(-4.09672E-14,-5.805)">
						<title>shape4</title>
						<path d="M0.37 126.13 L6.3 126.13 C6.52 126.13 6.67 126.5 6.67 126.95 L6.67 128.15 C6.67 128.6 6.52 128.98
									 6.3 128.98 L0.37 128.98 C0.15 128.98 0 128.6 0 128.15 L0 126.95 C0 126.5 0.15 126.13 0.37 126.13
									 Z" class="st1"/>
					</g>
					<g id="group2512-18" transform="translate(0.225,-5.67)" v:mID="2512" v:groupContext="group">
						<title>工作表.2512</title>
						<g id="shape2513-19" v:mID="2513" v:groupContext="shape">
							<title>shape6</title>
							<path d="M0 128.98 L0 125.9 C0 125.83 0 125.83 0.07 125.83 C0.07 125.83 0.15 125.83 0.15 125.9 L0.15
										 128.98 C0.15 128.98 0.07 128.98 0.07 128.98 C0 128.98 0 128.98 0 128.98 Z" class="st1"/>
						</g>
						<g id="shape2514-22" v:mID="2514" v:groupContext="shape" transform="translate(0.675,-5.68434E-14)">
							<title>shape7</title>
							<path d="M0 128.98 L0 125.9 C0 125.83 0 125.83 0.07 125.83 C0.07 125.83 0.15 125.83 0.15 125.9 L0.15
										 128.98 C0.15 128.98 0.07 128.98 0.07 128.98 C0 128.98 0 128.98 0 128.98 Z" class="st1"/>
						</g>
						<g id="shape2515-25" v:mID="2515" v:groupContext="shape" transform="translate(1.35,-5.68434E-14)">
							<title>shape8</title>
							<path d="M0 128.98 L0 125.9 C0 125.83 0 125.83 0.07 125.83 C0.07 125.83 0.15 125.83 0.15 125.9 L0.15
										 128.98 C0.15 128.98 0.07 128.98 0.07 128.98 C0 128.98 0 128.98 0 128.98 Z" class="st1"/>
						</g>
						<g id="shape2516-28" v:mID="2516" v:groupContext="shape" transform="translate(2.025,-5.68434E-14)">
							<title>shape9</title>
							<path d="M0 128.98 L0 125.9 C0 125.83 0 125.83 0.07 125.83 C0.07 125.83 0.15 125.83 0.15 125.9 L0.15
										 128.98 C0.15 128.98 0.07 128.98 0.07 128.98 C0 128.98 0 128.98 0 128.98 Z" class="st1"/>
						</g>
						<g id="shape2517-31" v:mID="2517" v:groupContext="shape" transform="translate(2.7,-5.68434E-14)">
							<title>shape10</title>
							<path d="M0 128.98 L0 125.9 C0 125.83 0 125.83 0.07 125.83 C0.07 125.83 0.15 125.83 0.15 125.9 L0.15
										 128.98 C0.15 128.98 0.07 128.98 0.07 128.98 C0 128.98 0 128.98 0 128.98 Z" class="st1"/>
						</g>
						<g id="shape2518-34" v:mID="2518" v:groupContext="shape" transform="translate(3.375,-5.68434E-14)">
							<title>shape11</title>
							<path d="M0 128.98 L0 125.9 C0 125.83 0 125.83 0.07 125.83 C0.07 125.83 0.15 125.83 0.15 125.9 L0.15
										 128.98 C0.15 128.98 0.07 128.98 0.07 128.98 C0 128.98 0 128.98 0 128.98 Z" class="st1"/>
						</g>
						<g id="shape2519-37" v:mID="2519" v:groupContext="shape" transform="translate(4.7325,-5.68434E-14)">
							<title>shape12</title>
							<path d="M0 128.98 L0 125.9 C0 125.83 0 125.83 0.07 125.83 C0.07 125.83 0.15 125.83 0.15 125.9 L0.15
										 128.98 C0.15 128.98 0.07 128.98 0.07 128.98 C0 128.98 0 128.98 0 128.98 Z" class="st1"/>
						</g>
						<g id="shape2520-40" v:mID="2520" v:groupContext="shape" transform="translate(4.05,-5.68434E-14)">
							<title>shape13</title>
							<path d="M0 128.98 L0 125.9 C0 125.83 0 125.83 0.07 125.83 C0.07 125.83 0.15 125.83 0.15 125.9 L0.15
										 128.98 C0.15 128.98 0.07 128.98 0.07 128.98 C0 128.98 0 128.98 0 128.98 Z" class="st1"/>
						</g>
						<g id="shape2521-43" v:mID="2521" v:groupContext="shape" transform="translate(5.4075,-5.68434E-14)">
							<title>shape14</title>
							<path d="M0 128.98 L0 125.9 C0 125.83 0 125.83 0.07 125.83 C0.07 125.83 0.15 125.83 0.15 125.9 L0.15
										 128.98 C0.15 128.98 0.07 128.98 0.07 128.98 C0 128.98 0 128.98 0 128.98 Z" class="st1"/>
						</g>
						<g id="shape2522-46" v:mID="2522" v:groupContext="shape" transform="translate(6.0825,-5.68434E-14)">
							<title>shape15</title>
							<path d="M0 128.98 L0 125.9 C0 125.83 0 125.83 0.07 125.83 C0.07 125.83 0.15 125.83 0.15 125.9 L0.15
										 128.98 C0.15 128.98 0.07 128.98 0.07 128.98 C0 128.98 0 128.98 0 128.98 Z" class="st1"/>
						</g>
					</g>
				</g>
				<g id="shape2523-49" v:mID="2523" v:groupContext="shape">
					<title>shape16</title>
					<path d="M0 63.28 C0 63.28 0.37 57.5 5.1 56.15 C5.1 56.15 12.45 56.15 12.45 56.15 C17.17 56.75 17.47 63.28 17.47
								 63.28 L17.47 119.23 C17.47 119.23 17.32 128.98 8.7 128.98 C0.07 128.98 0 119.23 0 119.23 L0 63.28
								 Z" class="st1"/>
				</g>
				<g id="shape2524-52" v:mID="2524" v:groupContext="shape" transform="translate(-1.35891E-13,-65.7)">
					<title>shape17</title>
					<path d="M0 128.98 C0 128.98 0.37 123.2 5.1 121.85 C5.1 121.85 12.45 121.85 12.45 121.85 C17.17 122.45 17.47
								 128.98 17.47 128.98 L0 128.98 Z" class="st1"/>
				</g>
				<g id="shape2525-55" v:mID="2525" v:groupContext="shape" transform="translate(-1.35891E-13,-0.0375)">
					<title>shape18</title>
					<path d="M17.47 119.23 C17.47 119.23 17.32 128.98 8.7 128.98 C0.07 128.98 0 119.23 0 119.23 L17.47 119.23 Z"
							class="st1"/>
				</g>
			</g>
			<g id="shape2526-58" v:mID="2526" v:groupContext="shape" transform="translate(198.353,24.2325) rotate(90) scale(-1,1)">
				<title>shape21</title>
				<path d="M0 124.48 L13.35 124.48 L13.35 128.98 L0 128.98 L0 124.48 Z" class="st2"/>
			</g>
			<g id="shape2527-61" v:mID="2527" v:groupContext="shape" transform="translate(142.927,24.2325) rotate(90) scale(-1,1)">
				<title>shape22</title>
				<path d="M0 124.48 L12.98 124.48 L12.98 128.98 L0 128.98 L0 124.48 Z" class="st2"/>
			</g>
			<g id="group2528-64" transform="translate(66.2475,-95.8125)" v:mID="2528" v:groupContext="group">
				<title>工作表.2528</title>
				<g id="shape2529-65" v:mID="2529" v:groupContext="shape" transform="translate(1.1175,5.68434E-14)">
					<title>shape23</title>
					<path d="M0 122.53 L8.48 122.53 L8.48 128.98 L0 128.98 L0 122.53 Z" class="st1"/>
				</g>
				<g id="shape2530-68" v:mID="2530" v:groupContext="shape" transform="translate(1.3689E-13,-6.6825)">
					<title>shape24</title>
					<path d="M0.6 125.75 L10.13 125.75 C10.43 125.75 10.65 126.2 10.65 126.65 L10.65 128.08 C10.65 128.6 10.43 128.98
								 10.13 128.98 L0.6 128.98 C0.3 128.98 0 128.6 0 128.08 L0 126.65 C0 126.2 0.3 125.75 0.6 125.75 Z"
							class="st1"/>
				</g>
				<g id="group2531-71" transform="translate(0.36,-6.4875)" v:mID="2531" v:groupContext="group">
					<title>工作表.2531</title>
					<g id="shape2532-72" v:mID="2532" v:groupContext="shape">
						<title>shape26</title>
						<path d="M0 128.9 L0 125.45 C0 125.38 0.08 125.38 0.08 125.38 C0.15 125.38 0.23 125.38 0.23 125.45 L0.23
									 128.9 C0.23 128.98 0.15 128.98 0.15 128.98 C0.08 128.98 0 128.98 0 128.9 Z" class="st1"/>
					</g>
					<g id="shape2533-75" v:mID="2533" v:groupContext="shape" transform="translate(1.08,2.84217E-14)">
						<title>shape27</title>
						<path d="M0 128.9 L0 125.45 C0 125.38 0.08 125.38 0.08 125.38 C0.15 125.38 0.23 125.38 0.23 125.45 L0.23
									 128.9 C0.23 128.98 0.15 128.98 0.15 128.98 C0.08 128.98 0 128.98 0 128.9 Z" class="st1"/>
					</g>
					<g id="shape2534-78" v:mID="2534" v:groupContext="shape" transform="translate(2.16,2.84217E-14)">
						<title>shape28</title>
						<path d="M0 128.9 L0 125.45 C0 125.38 0.08 125.38 0.08 125.38 C0.15 125.38 0.23 125.38 0.23 125.45 L0.23
									 128.9 C0.23 128.98 0.15 128.98 0.15 128.98 C0.08 128.98 0 128.98 0 128.9 Z" class="st1"/>
					</g>
					<g id="shape2535-81" v:mID="2535" v:groupContext="shape" transform="translate(3.2475,2.84217E-14)">
						<title>shape29</title>
						<path d="M0 128.9 L0 125.45 C0 125.38 0.08 125.38 0.08 125.38 C0.15 125.38 0.23 125.38 0.23 125.45 L0.23
									 128.9 C0.23 128.98 0.15 128.98 0.15 128.98 C0.08 128.98 0 128.98 0 128.9 Z" class="st1"/>
					</g>
					<g id="shape2536-84" v:mID="2536" v:groupContext="shape" transform="translate(4.3275,2.84217E-14)">
						<title>shape30</title>
						<path d="M0 128.9 L0 125.45 C0 125.38 0.08 125.38 0.08 125.38 C0.15 125.38 0.23 125.38 0.23 125.45 L0.23
									 128.9 C0.23 128.98 0.15 128.98 0.15 128.98 C0.08 128.98 0 128.98 0 128.9 Z" class="st1"/>
					</g>
					<g id="shape2537-87" v:mID="2537" v:groupContext="shape" transform="translate(5.415,2.84217E-14)">
						<title>shape31</title>
						<path d="M0 128.9 L0 125.45 C0 125.38 0.08 125.38 0.08 125.38 C0.15 125.38 0.23 125.38 0.23 125.45 L0.23
									 128.9 C0.23 128.98 0.15 128.98 0.15 128.98 C0.08 128.98 0 128.98 0 128.9 Z" class="st1"/>
					</g>
					<g id="shape2538-90" v:mID="2538" v:groupContext="shape" transform="translate(7.575,2.84217E-14)">
						<title>shape32</title>
						<path d="M0 128.9 L0 125.45 C0 125.38 0.08 125.38 0.08 125.38 C0.15 125.38 0.23 125.38 0.23 125.45 L0.23
									 128.9 C0.23 128.98 0.15 128.98 0.15 128.98 C0.08 128.98 0 128.98 0 128.9 Z" class="st1"/>
					</g>
					<g id="shape2539-93" v:mID="2539" v:groupContext="shape" transform="translate(6.495,2.84217E-14)">
						<title>shape33</title>
						<path d="M0 128.9 L0 125.45 C0 125.38 0.08 125.38 0.08 125.38 C0.15 125.38 0.23 125.38 0.23 125.45 L0.23
									 128.9 C0.23 128.98 0.15 128.98 0.15 128.98 C0.08 128.98 0 128.98 0 128.9 Z" class="st1"/>
					</g>
					<g id="shape2540-96" v:mID="2540" v:groupContext="shape" transform="translate(8.6625,2.84217E-14)">
						<title>shape34</title>
						<path d="M0 128.9 L0 125.45 C0 125.38 0.08 125.38 0.08 125.38 C0.15 125.38 0.23 125.38 0.23 125.45 L0.23
									 128.9 C0.23 128.98 0.15 128.98 0.15 128.98 C0.08 128.98 0 128.98 0 128.9 Z" class="st1"/>
					</g>
					<g id="shape2541-99" v:mID="2541" v:groupContext="shape" transform="translate(9.7425,2.84217E-14)">
						<title>shape35</title>
						<path d="M0 128.9 L0 125.45 C0 125.38 0.08 125.38 0.08 125.38 C0.15 125.38 0.23 125.38 0.23 125.45 L0.23
									 128.9 C0.23 128.98 0.15 128.98 0.15 128.98 C0.08 128.98 0 128.98 0 128.9 Z" class="st1"/>
					</g>
				</g>
			</g>
			<g id="group2542-102" transform="translate(10.815,-95.8125)" v:mID="2542" v:groupContext="group">
				<title>工作表.2542</title>
				<g id="shape2543-103" v:mID="2543" v:groupContext="shape" transform="translate(1.1175,5.68434E-14)">
					<title>shape36</title>
					<path d="M0 122.53 L8.48 122.53 L8.48 128.98 L0 128.98 L0 122.53 Z" class="st1"/>
				</g>
				<g id="shape2544-106" v:mID="2544" v:groupContext="shape" transform="translate(1.3689E-13,-6.675)">
					<title>shape37</title>
					<path d="M0.6 125.75 L10.13 125.75 C10.43 125.75 10.65 126.2 10.65 126.65 L10.65 128.08 C10.65 128.6 10.43 128.98
								 10.13 128.98 L0.6 128.98 C0.3 128.98 0 128.6 0 128.08 L0 126.65 C0 126.2 0.3 125.75 0.6 125.75 Z"
							class="st1"/>
				</g>
				<g id="group2545-109" transform="translate(0.36,-6.4875)" v:mID="2545" v:groupContext="group">
					<title>工作表.2545</title>
					<g id="shape2546-110" v:mID="2546" v:groupContext="shape">
						<title>shape39</title>
						<path d="M0 128.9 L0 125.45 C0 125.38 0.08 125.38 0.08 125.38 C0.15 125.38 0.23 125.38 0.23 125.45 L0.23
									 128.9 C0.23 128.98 0.15 128.98 0.15 128.98 C0.08 128.98 0 128.98 0 128.9 Z" class="st1"/>
					</g>
					<g id="shape2547-113" v:mID="2547" v:groupContext="shape" transform="translate(1.08,2.84217E-14)">
						<title>shape40</title>
						<path d="M0 128.9 L0 125.45 C0 125.38 0.08 125.38 0.08 125.38 C0.15 125.38 0.23 125.38 0.23 125.45 L0.23
									 128.9 C0.23 128.98 0.15 128.98 0.15 128.98 C0.08 128.98 0 128.98 0 128.9 Z" class="st1"/>
					</g>
					<g id="shape2548-116" v:mID="2548" v:groupContext="shape" transform="translate(2.16,2.84217E-14)">
						<title>shape41</title>
						<path d="M0 128.9 L0 125.45 C0 125.38 0.08 125.38 0.08 125.38 C0.15 125.38 0.23 125.38 0.23 125.45 L0.23
									 128.9 C0.23 128.98 0.15 128.98 0.15 128.98 C0.08 128.98 0 128.98 0 128.9 Z" class="st1"/>
					</g>
					<g id="shape2549-119" v:mID="2549" v:groupContext="shape" transform="translate(3.2475,2.84217E-14)">
						<title>shape42</title>
						<path d="M0 128.9 L0 125.45 C0 125.38 0.08 125.38 0.08 125.38 C0.15 125.38 0.23 125.38 0.23 125.45 L0.23
									 128.9 C0.23 128.98 0.15 128.98 0.15 128.98 C0.08 128.98 0 128.98 0 128.9 Z" class="st1"/>
					</g>
					<g id="shape2550-122" v:mID="2550" v:groupContext="shape" transform="translate(4.3275,2.84217E-14)">
						<title>shape43</title>
						<path d="M0 128.9 L0 125.45 C0 125.38 0.08 125.38 0.08 125.38 C0.15 125.38 0.23 125.38 0.23 125.45 L0.23
									 128.9 C0.23 128.98 0.15 128.98 0.15 128.98 C0.08 128.98 0 128.98 0 128.9 Z" class="st1"/>
					</g>
					<g id="shape2551-125" v:mID="2551" v:groupContext="shape" transform="translate(5.415,2.84217E-14)">
						<title>shape44</title>
						<path d="M0 128.9 L0 125.45 C0 125.38 0.08 125.38 0.08 125.38 C0.15 125.38 0.23 125.38 0.23 125.45 L0.23
									 128.9 C0.23 128.98 0.15 128.98 0.15 128.98 C0.08 128.98 0 128.98 0 128.9 Z" class="st1"/>
					</g>
					<g id="shape2552-128" v:mID="2552" v:groupContext="shape" transform="translate(7.575,2.84217E-14)">
						<title>shape45</title>
						<path d="M0 128.9 L0 125.45 C0 125.38 0.08 125.38 0.08 125.38 C0.15 125.38 0.23 125.38 0.23 125.45 L0.23
									 128.9 C0.23 128.98 0.15 128.98 0.15 128.98 C0.08 128.98 0 128.98 0 128.9 Z" class="st1"/>
					</g>
					<g id="shape2553-131" v:mID="2553" v:groupContext="shape" transform="translate(6.495,2.84217E-14)">
						<title>shape46</title>
						<path d="M0 128.9 L0 125.45 C0 125.38 0.08 125.38 0.08 125.38 C0.15 125.38 0.23 125.38 0.23 125.45 L0.23
									 128.9 C0.23 128.98 0.15 128.98 0.15 128.98 C0.08 128.98 0 128.98 0 128.9 Z" class="st1"/>
					</g>
					<g id="shape2554-134" v:mID="2554" v:groupContext="shape" transform="translate(8.6625,2.84217E-14)">
						<title>shape47</title>
						<path d="M0 128.9 L0 125.45 C0 125.38 0.08 125.38 0.08 125.38 C0.15 125.38 0.23 125.38 0.23 125.45 L0.23
									 128.9 C0.23 128.98 0.15 128.98 0.15 128.98 C0.08 128.98 0 128.98 0 128.9 Z" class="st1"/>
					</g>
					<g id="shape2555-137" v:mID="2555" v:groupContext="shape" transform="translate(9.7425,2.84217E-14)">
						<title>shape48</title>
						<path d="M0 128.9 L0 125.45 C0 125.38 0.08 125.38 0.08 125.38 C0.15 125.38 0.23 125.38 0.23 125.45 L0.23
									 128.9 C0.23 128.98 0.15 128.98 0.15 128.98 C0.08 128.98 0 128.98 0 128.9 Z" class="st1"/>
					</g>
				</g>
			</g>
			<g id="group2556-140" transform="translate(66.5775,-11.8575)" v:mID="2556" v:groupContext="group">
				<title>工作表.2556</title>
				<g id="shape2557-141" v:mID="2557" v:groupContext="shape" transform="translate(0.4425,-0.39)">
					<title>shape49</title>
					<path d="M0 123.13 L9.15 123.13 L9.15 128.98 L0 128.98 L0 123.13 Z" class="st1"/>
				</g>
				<g id="shape2558-144" v:mID="2558" v:groupContext="shape" transform="translate(9.69225E-14,-0.1125)">
					<title>shape51</title>
					<path d="M0.53 127.03 L9.45 127.03 C9.75 127.03 10.05 127.25 10.05 127.55 L10.05 128.45 C10.05 128.75 9.75 128.98
								 9.45 128.98 L0.53 128.98 C0.23 128.98 0 128.75 0 128.45 L0 127.55 C0 127.25 0.23 127.03 0.53 127.03
								 Z" class="st1"/>
				</g>
				<g id="group2559-147" transform="translate(0.3375,-2.84217E-14)" v:mID="2559" v:groupContext="group">
					<title>工作表.2559</title>
					<g id="shape2560-148" v:mID="2560" v:groupContext="shape">
						<title>shape52</title>
						<path d="M0 128.98 L0 126.8 C0 126.8 0 126.8 0.08 126.8 C0.15 126.8 0.23 126.8 0.23 126.8 L0.23 128.98 C0.23
									 128.98 0.15 128.98 0.15 128.98 C0 128.98 0 128.98 0 128.98 Z" class="st1"/>
					</g>
					<g id="shape2561-151" v:mID="2561" v:groupContext="shape" transform="translate(1.0125,0)">
						<title>shape53</title>
						<path d="M0 128.98 L0 126.8 C0 126.8 0.08 126.8 0.08 126.8 C0.15 126.8 0.23 126.8 0.23 126.8 L0.23 128.98
									 C0.23 128.98 0.15 128.98 0.15 128.98 C0.08 128.98 0 128.98 0 128.98 Z" class="st1"/>
					</g>
					<g id="shape2562-154" v:mID="2562" v:groupContext="shape" transform="translate(2.0325,0)">
						<title>shape54</title>
						<path d="M0 128.98 L0 126.8 C0 126.8 0.08 126.8 0.08 126.8 C0.15 126.8 0.23 126.8 0.23 126.8 L0.23 128.98
									 C0.23 128.98 0.15 128.98 0.15 128.98 C0.08 128.98 0 128.98 0 128.98 Z" class="st1"/>
					</g>
					<g id="shape2563-157" v:mID="2563" v:groupContext="shape" transform="translate(3.045,0)">
						<title>shape55</title>
						<path d="M0 128.98 L0 126.8 C0 126.8 0.08 126.8 0.08 126.8 C0.15 126.8 0.23 126.8 0.23 126.8 L0.23 128.98
									 C0.23 128.98 0.15 128.98 0.15 128.98 C0.08 128.98 0 128.98 0 128.98 Z" class="st1"/>
					</g>
					<g id="shape2564-160" v:mID="2564" v:groupContext="shape" transform="translate(4.065,0)">
						<title>shape56</title>
						<path d="M0 128.98 L0 126.8 C0 126.8 0.08 126.8 0.08 126.8 C0.15 126.8 0.23 126.8 0.23 126.8 L0.23 128.98
									 C0.23 128.98 0.15 128.98 0.15 128.98 C0.08 128.98 0 128.98 0 128.98 Z" class="st1"/>
					</g>
					<g id="shape2565-163" v:mID="2565" v:groupContext="shape" transform="translate(5.0775,0)">
						<title>shape57</title>
						<path d="M0 128.98 L0 126.8 C0 126.8 0.08 126.8 0.08 126.8 C0.15 126.8 0.23 126.8 0.23 126.8 L0.23 128.98
									 C0.23 128.98 0.15 128.98 0.15 128.98 C0.08 128.98 0 128.98 0 128.98 Z" class="st1"/>
					</g>
					<g id="shape2566-166" v:mID="2566" v:groupContext="shape" transform="translate(7.11,0)">
						<title>shape58</title>
						<path d="M0 128.98 L0 126.8 C0 126.8 0.08 126.8 0.08 126.8 C0.15 126.8 0.23 126.8 0.23 126.8 L0.23 128.98
									 C0.23 128.98 0.15 128.98 0.15 128.98 C0.08 128.98 0 128.98 0 128.98 Z" class="st1"/>
					</g>
					<g id="shape2567-169" v:mID="2567" v:groupContext="shape" transform="translate(6.0975,0)">
						<title>shape59</title>
						<path d="M0 128.98 L0 126.8 C0 126.8 0.08 126.8 0.08 126.8 C0.15 126.8 0.23 126.8 0.23 126.8 L0.23 128.98
									 C0.23 128.98 0.15 128.98 0.15 128.98 C0.08 128.98 0 128.98 0 128.98 Z" class="st1"/>
					</g>
					<g id="shape2568-172" v:mID="2568" v:groupContext="shape" transform="translate(8.13,0)">
						<title>shape60</title>
						<path d="M0 128.98 L0 126.8 C0 126.8 0.08 126.8 0.08 126.8 C0.15 126.8 0.23 126.8 0.23 126.8 L0.23 128.98
									 C0.23 128.98 0.15 128.98 0.15 128.98 C0.08 128.98 0 128.98 0 128.98 Z" class="st1"/>
					</g>
					<g id="shape2569-175" v:mID="2569" v:groupContext="shape" transform="translate(9.1425,0)">
						<title>shape61</title>
						<path d="M0 128.98 L0 126.8 C0 126.8 0.08 126.8 0.08 126.8 C0.15 126.8 0.23 126.8 0.23 126.8 L0.23 128.98
									 C0.23 128.98 0.15 128.98 0.15 128.98 C0.08 128.98 0 128.98 0 128.98 Z" class="st1"/>
					</g>
				</g>
			</g>
			<g id="group2570-178" transform="translate(11.1525,-11.8575)" v:mID="2570" v:groupContext="group">
				<title>工作表.2570</title>
				<g id="shape2571-179" v:mID="2571" v:groupContext="shape" transform="translate(0.4425,-0.39)">
					<title>shape62</title>
					<path d="M0 123.13 L9.15 123.13 L9.15 128.98 L0 128.98 L0 123.13 Z" class="st1"/>
				</g>
				<g id="shape2572-182" v:mID="2572" v:groupContext="shape" transform="translate(9.69225E-14,-0.1125)">
					<title>shape64</title>
					<path d="M0.53 127.03 L9.45 127.03 C9.75 127.03 10.05 127.25 10.05 127.55 L10.05 128.45 C10.05 128.75 9.75 128.98
								 9.45 128.98 L0.53 128.98 C0.23 128.98 0 128.75 0 128.45 L0 127.55 C0 127.25 0.23 127.03 0.53 127.03
								 Z" class="st1"/>
				</g>
				<g id="group2573-185" transform="translate(0.3375,-2.84217E-14)" v:mID="2573" v:groupContext="group">
					<title>工作表.2573</title>
					<g id="shape2574-186" v:mID="2574" v:groupContext="shape">
						<title>shape65</title>
						<path d="M0 128.98 L0 126.8 C0 126.8 0 126.8 0.08 126.8 C0.15 126.8 0.23 126.8 0.23 126.8 L0.23 128.98 C0.23
									 128.98 0.15 128.98 0.15 128.98 C0 128.98 0 128.98 0 128.98 Z" class="st1"/>
					</g>
					<g id="shape2575-189" v:mID="2575" v:groupContext="shape" transform="translate(1.0125,0)">
						<title>shape66</title>
						<path d="M0 128.98 L0 126.8 C0 126.8 0.08 126.8 0.08 126.8 C0.15 126.8 0.23 126.8 0.23 126.8 L0.23 128.98
									 C0.23 128.98 0.15 128.98 0.15 128.98 C0.08 128.98 0 128.98 0 128.98 Z" class="st1"/>
					</g>
					<g id="shape2576-192" v:mID="2576" v:groupContext="shape" transform="translate(2.0325,0)">
						<title>shape67</title>
						<path d="M0 128.98 L0 126.8 C0 126.8 0.08 126.8 0.08 126.8 C0.15 126.8 0.23 126.8 0.23 126.8 L0.23 128.98
									 C0.23 128.98 0.15 128.98 0.15 128.98 C0.08 128.98 0 128.98 0 128.98 Z" class="st1"/>
					</g>
					<g id="shape2577-195" v:mID="2577" v:groupContext="shape" transform="translate(3.045,0)">
						<title>shape68</title>
						<path d="M0 128.98 L0 126.8 C0 126.8 0.08 126.8 0.08 126.8 C0.15 126.8 0.23 126.8 0.23 126.8 L0.23 128.98
									 C0.23 128.98 0.15 128.98 0.15 128.98 C0.08 128.98 0 128.98 0 128.98 Z" class="st1"/>
					</g>
					<g id="shape2578-198" v:mID="2578" v:groupContext="shape" transform="translate(4.065,0)">
						<title>shape69</title>
						<path d="M0 128.98 L0 126.8 C0 126.8 0.08 126.8 0.08 126.8 C0.15 126.8 0.23 126.8 0.23 126.8 L0.23 128.98
									 C0.23 128.98 0.15 128.98 0.15 128.98 C0.08 128.98 0 128.98 0 128.98 Z" class="st1"/>
					</g>
					<g id="shape2579-201" v:mID="2579" v:groupContext="shape" transform="translate(5.0775,0)">
						<title>shape70</title>
						<path d="M0 128.98 L0 126.8 C0 126.8 0.08 126.8 0.08 126.8 C0.15 126.8 0.23 126.8 0.23 126.8 L0.23 128.98
									 C0.23 128.98 0.15 128.98 0.15 128.98 C0.08 128.98 0 128.98 0 128.98 Z" class="st1"/>
					</g>
					<g id="shape2580-204" v:mID="2580" v:groupContext="shape" transform="translate(7.11,0)">
						<title>shape71</title>
						<path d="M0 128.98 L0 126.8 C0 126.8 0.08 126.8 0.08 126.8 C0.15 126.8 0.23 126.8 0.23 126.8 L0.23 128.98
									 C0.23 128.98 0.15 128.98 0.15 128.98 C0.08 128.98 0 128.98 0 128.98 Z" class="st1"/>
					</g>
					<g id="shape2581-207" v:mID="2581" v:groupContext="shape" transform="translate(6.0975,0)">
						<title>shape72</title>
						<path d="M0 128.98 L0 126.8 C0 126.8 0.08 126.8 0.08 126.8 C0.15 126.8 0.23 126.8 0.23 126.8 L0.23 128.98
									 C0.23 128.98 0.15 128.98 0.15 128.98 C0.08 128.98 0 128.98 0 128.98 Z" class="st1"/>
					</g>
					<g id="shape2582-210" v:mID="2582" v:groupContext="shape" transform="translate(8.13,0)">
						<title>shape73</title>
						<path d="M0 128.98 L0 126.8 C0 126.8 0.08 126.8 0.08 126.8 C0.15 126.8 0.23 126.8 0.23 126.8 L0.23 128.98
									 C0.23 128.98 0.15 128.98 0.15 128.98 C0.08 128.98 0 128.98 0 128.98 Z" class="st1"/>
					</g>
					<g id="shape2583-213" v:mID="2583" v:groupContext="shape" transform="translate(9.1425,0)">
						<title>shape74</title>
						<path d="M0 128.98 L0 126.8 C0 126.8 0.08 126.8 0.08 126.8 C0.15 126.8 0.23 126.8 0.23 126.8 L0.23 128.98
									 C0.23 128.98 0.15 128.98 0.15 128.98 C0.08 128.98 0 128.98 0 128.98 Z" class="st1"/>
					</g>
				</g>
			</g>
			<g id="shape2584-216" v:mID="2584" v:groupContext="shape" transform="translate(2.16,-16.6725)">
				<title>shape75</title>
				<path d="M0 54.28 C0 54.28 0.6 47.75 8.1 46.18 C8.1 46.18 19.87 46.18 19.87 46.18 C27.45 46.93 28.05 54.28 28.05
							 54.28 L28.05 117.88 C28.05 117.88 27.75 128.98 13.95 128.98 C0.15 128.98 0 117.88 0 117.88 L0 54.28
							 Z" class="st1"/>
			</g>
			<g id="shape2585-219" v:mID="2585" v:groupContext="shape" transform="translate(3.8475,-4.7475)">
				<title>shape76</title>
				<path d="M0.82 109.78 L2.32 109.78 C2.77 109.78 3.07 110.3 3.07 110.9 L3.07 127.85 C3.07 128.53 2.77 128.98 2.32
							 128.98 L0.82 128.98 C0.37 128.98 0 128.53 0 127.85 L0 110.9 C0 110.3 0.37 109.78 0.82 109.78 Z"
						class="st1"/>
			</g>
			<g id="shape2586-222" v:mID="2586" v:groupContext="shape" transform="translate(25.275,-4.7475)">
				<title>shape77</title>
				<path d="M0.82 109.78 L2.32 109.78 C2.77 109.78 3.07 110.3 3.07 110.9 L3.07 127.85 C3.07 128.53 2.77 128.98 2.32
							 128.98 L0.82 128.98 C0.37 128.98 0 128.53 0 127.85 L0 110.9 C0 110.3 0.37 109.78 0.82 109.78 Z"
						class="st1"/>
			</g>
			<g id="shape2587-225" v:mID="2587" v:groupContext="shape" transform="translate(57.585,-16.6725)">
				<title>shape78</title>
				<path d="M0 54.28 C0 54.28 0.6 47.75 8.1 46.18 C8.1 46.18 19.87 46.18 19.87 46.18 C27.45 46.93 28.05 54.28 28.05
							 54.28 L28.05 117.88 C28.05 117.88 27.75 128.98 13.95 128.98 C0.15 128.98 0 117.88 0 117.88 L0 54.28
							 Z" class="st1"/>
			</g>
			<g id="shape2588-228" v:mID="2588" v:groupContext="shape" transform="translate(59.8725,-5.4975)">
				<title>shape79</title>
				<path d="M0.82 110.38 L2.32 110.38 C2.77 110.38 3.07 110.83 3.07 111.43 L3.07 127.85 C3.07 128.45 2.77 128.98 2.32
							 128.98 L0.82 128.98 C0.37 128.98 0 128.45 0 127.85 L0 111.43 C0 110.83 0.37 110.38 0.82 110.38 Z"
						class="st1"/>
			</g>
			<g id="shape2589-231" v:mID="2589" v:groupContext="shape" transform="translate(81.3075,-5.4975)">
				<title>shape80</title>
				<path d="M0.82 110.38 L2.32 110.38 C2.77 110.38 3.07 110.83 3.07 111.43 L3.07 127.85 C3.07 128.45 2.77 128.98 2.32
							 128.98 L0.82 128.98 C0.37 128.98 0 128.45 0 127.85 L0 111.43 C0 110.83 0.37 110.38 0.82 110.38 Z"
						class="st1"/>
			</g>
			<g id="shape2590-234" v:mID="2590" v:groupContext="shape">
				<title>shape81</title>
				<path d="M0 122.15 L88.5 122.15 L88.5 128.98 L0 128.98 L0 122.15 Z" class="st2"/>
			</g>
			<g id="shape2591-237" v:mID="2591" v:groupContext="shape" transform="translate(19.89,-119.52)">
				<title>shape82</title>
				<path d="M0 124.48 L47.85 124.48 L47.85 128.98 L0 128.98 L0 124.48 Z" class="st2"/>
			</g>
			<g id="shape2592-240" v:mID="2592" v:groupContext="shape" transform="translate(2.1525,-91.365)">
				<title>shape83</title>
				<path d="M0 128.98 C0 128.98 0.6 122.45 8.1 120.88 C8.1 120.88 19.95 120.88 19.95 120.88 C27.52 121.63 28.05 128.98
							 28.05 128.98 L0 128.98 Z" class="st1"/>
			</g>
			<g id="shape2593-243" v:mID="2593" v:groupContext="shape" transform="translate(57.57,-91.3725)">
				<title>shape84</title>
				<path d="M0 128.98 C0 128.98 0.6 122.45 8.1 120.88 C8.1 120.88 19.95 120.88 19.95 120.88 C27.52 121.63 28.05 128.98
							 28.05 128.98 L0 128.98 Z" class="st1"/>
			</g>
			<g id="shape2594-246" v:mID="2594" v:groupContext="shape" transform="translate(2.16,-16.6725)">
				<title>shape85</title>
				<path d="M28.05 117.88 C28.05 117.88 27.75 128.98 13.95 128.98 C0.15 128.98 0 117.88 0 117.88 L28.05 117.88 Z"
						class="st1"/>
			</g>
			<g id="shape2595-249" v:mID="2595" v:groupContext="shape" transform="translate(57.585,-16.68)">
				<title>shape86</title>
				<path d="M28.05 117.88 C28.05 117.88 27.75 128.98 13.95 128.98 C0.15 128.98 0 117.88 0 117.88 L28.05 117.88 Z"
						class="st1"/>
			</g>
			<g id="shape2596-252" v:mID="2596" v:groupContext="shape" transform="translate(32.7825,-47.205)">
				<title>shape91</title>
				<path d="M0 99.43 L22.42 99.43 L22.42 128.98 L0 128.98 L0 99.43 Z" class="st3"/>
			</g>
			<g id="group2597-254" transform="translate(40.155,-50.745)" v:mID="2597" v:groupContext="group">
				<title>工作表.2597</title>
				<g id="group2598-255" v:mID="2598" v:groupContext="group">
					<title>工作表.2598</title>
					<g id="shape2599-256" v:mID="2599" v:groupContext="shape" transform="translate(-2.9976E-15,-10.155)">
						<title>shape92</title>
						<path d="M0 128.38 C0 128 0.3 127.7 0.67 127.7 C0.97 127.7 1.27 128 1.27 128.38 C1.27 128.68 0.97 128.98
									 0.67 128.98 C0.3 128.98 0 128.68 0 128.38 Z" class="st4"/>
					</g>
					<g id="shape2600-258" v:mID="2600" v:groupContext="shape" transform="translate(-2.9976E-15,-6.855)">
						<title>shape93</title>
						<path d="M0 128.38 C0 128 0.3 127.7 0.67 127.7 C0.97 127.7 1.27 128 1.27 128.38 C1.27 128.68 0.97 128.98
									 0.67 128.98 C0.3 128.98 0 128.68 0 128.38 Z" class="st4"/>
					</g>
					<g id="shape2601-260" v:mID="2601" v:groupContext="shape" transform="translate(-2.9976E-15,-3.3)">
						<title>shape94</title>
						<path d="M0 128.38 C0 128 0.3 127.7 0.67 127.7 C0.97 127.7 1.27 128 1.27 128.38 C1.27 128.68 0.97 128.98
									 0.67 128.98 C0.3 128.98 0 128.68 0 128.38 Z" class="st4"/>
					</g>
					<g id="shape2602-262" v:mID="2602" v:groupContext="shape">
						<title>shape95</title>
						<path d="M0 128.38 C0 128 0.3 127.7 0.67 127.7 C0.97 127.7 1.27 128 1.27 128.38 C1.27 128.68 0.97 128.98
									 0.67 128.98 C0.3 128.98 0 128.68 0 128.38 Z" class="st4"/>
					</g>
				</g>
				<g id="group2603-264" transform="translate(6.3675,2.84217E-14)" v:mID="2603" v:groupContext="group">
					<title>工作表.2603</title>
					<g id="shape2604-265" v:mID="2604" v:groupContext="shape" transform="translate(-2.9976E-15,-10.155)">
						<title>shape96</title>
						<path d="M0 128.38 C0 128 0.3 127.7 0.67 127.7 C0.97 127.7 1.27 128 1.27 128.38 C1.27 128.68 0.97 128.98
									 0.67 128.98 C0.3 128.98 0 128.68 0 128.38 Z" class="st4"/>
					</g>
					<g id="shape2605-267" v:mID="2605" v:groupContext="shape" transform="translate(-2.9976E-15,-6.855)">
						<title>shape97</title>
						<path d="M0 128.38 C0 128 0.3 127.7 0.67 127.7 C0.97 127.7 1.27 128 1.27 128.38 C1.27 128.68 0.97 128.98
									 0.67 128.98 C0.3 128.98 0 128.68 0 128.38 Z" class="st4"/>
					</g>
					<g id="shape2606-269" v:mID="2606" v:groupContext="shape" transform="translate(-2.9976E-15,-3.3)">
						<title>shape98</title>
						<path d="M0 128.38 C0 128 0.3 127.7 0.67 127.7 C0.97 127.7 1.27 128 1.27 128.38 C1.27 128.68 0.97 128.98
									 0.67 128.98 C0.3 128.98 0 128.68 0 128.38 Z" class="st4"/>
					</g>
					<g id="shape2607-271" v:mID="2607" v:groupContext="shape">
						<title>shape99</title>
						<path d="M0 128.38 C0 128 0.3 127.7 0.67 127.7 C0.97 127.7 1.27 128 1.27 128.38 C1.27 128.68 0.97 128.98
									 0.67 128.98 C0.3 128.98 0 128.68 0 128.38 Z" class="st4"/>
					</g>
				</g>
			</g>
			<g id="group2608-273" transform="translate(36.525,-64.89)" v:mID="2608" v:groupContext="group">
				<title>工作表.2608</title>
				<g id="shape2609-274" v:mID="2609" v:groupContext="shape" transform="translate(-7.44405E-14,-0.045)">
					<title>shape100</title>
					<path d="M0 125.6 L6.45 125.6 L6.45 128.98 L0 128.98 L0 125.6 Z" class="st4"/>
				</g>
				<g id="shape2610-276" v:mID="2610" v:groupContext="shape" transform="translate(8.49,0)">
					<title>shape101</title>
					<path d="M0 125.6 L6.45 125.6 L6.45 128.98 L0 128.98 L0 125.6 Z" class="st4"/>
				</g>
			</g>
			<g id="shape2611-278" v:mID="2611" v:groupContext="shape" transform="translate(38.1075,-70.3725)">
				<title>shape102</title>
				<path d="M0 126.95 C0 125.9 0.9 125 1.95 125 C3.08 125 3.98 125.9 3.98 126.95 C3.98 128.08 3.08 128.98 1.95 128.98
							 C0.9 128.98 0 128.08 0 126.95 Z" class="st5"/>
			</g>
			<g id="shape2612-280" v:mID="2612" v:groupContext="shape" transform="translate(38.73,-71.025)">
				<title>shape103</title>
				<path d="M0 127.63 C0 126.88 0.6 126.28 1.35 126.28 C2.1 126.28 2.7 126.88 2.7 127.63 C2.7 128.38 2.1 128.98 1.35
							 128.98 C0.6 128.98 0 128.38 0 127.63 Z" class="st6"/>
			</g>
			<g id="shape2613-284" v:mID="2613" v:groupContext="shape" transform="translate(39.72,-71.9925)">
				<title>shape104</title>
				<path d="M0 128.6 C0 128.38 0.15 128.23 0.38 128.23 C0.53 128.23 0.75 128.38 0.75 128.6 C0.75 128.75 0.53 128.98
							 0.38 128.98 C0.15 128.98 0 128.75 0 128.6 Z" class="st7"/>
			</g>
			<g id="shape2614-286" v:mID="2614" v:groupContext="shape" transform="translate(45.9075,-70.3725)">
				<title>shape105</title>
				<path d="M0 126.95 C0 125.9 0.9 125 1.95 125 C3.08 125 3.98 125.9 3.98 126.95 C3.98 128.08 3.08 128.98 1.95 128.98
							 C0.9 128.98 0 128.08 0 126.95 Z" class="st5"/>
			</g>
			<g id="shape2615-288" v:mID="2615" v:groupContext="shape" transform="translate(46.53,-71.025)">
				<title>shape106</title>
				<path d="M0 127.63 C0 126.88 0.6 126.28 1.35 126.28 C2.1 126.28 2.7 126.88 2.7 127.63 C2.7 128.38 2.1 128.98 1.35
							 128.98 C0.6 128.98 0 128.38 0 127.63 Z" class="st6"/>
			</g>
			<g id="shape2616-291" v:mID="2616" v:groupContext="shape" transform="translate(47.52,-71.9925)">
				<title>shape107</title>
				<path d="M0 128.6 C0 128.38 0.15 128.23 0.38 128.23 C0.53 128.23 0.75 128.38 0.75 128.6 C0.75 128.75 0.53 128.98
							 0.38 128.98 C0.15 128.98 0 128.75 0 128.6 Z" class="st7"/>
			</g>
			<g id="shape2617-293" v:mID="2617" v:groupContext="shape" transform="translate(24.4575,-44.64)">
				<title>shape108</title>
				<path d="M0 126.35 L38.4 126.35 L38.4 128.98 L0 128.98 L0 126.35 Z" class="st4"/>
			</g>
			<g id="shape2618-295" v:mID="2618" v:groupContext="shape" transform="translate(32.7825,-74.88)">
				<title>shape109</title>
				<path d="M0 127.1 L22.42 127.1 L22.42 128.98 L0 128.98 L0 127.1 Z" class="st8"/>
			</g>
			<g id="shape2619-297" v:mID="2619" v:groupContext="shape" transform="translate(32.7825,-47.19)">
				<title>shape110</title>
				<path d="M0 127.1 L22.42 127.1 L22.42 128.98 L0 128.98 L0 127.1 Z" class="st8"/>
			</g>
			<g id="shape2620-299" v:mID="2620" v:groupContext="shape" transform="translate(20.475,-117.12) scale(-1,1)">
				<title>shape111</title>
				<path d="M0 121.85 C0 121.85 3.53 121.93 5.18 123.95 C6.83 125.83 6.6 128.98 6.6 128.98 L1.95 128.98 C1.95 128.98
							 2.03 127.18 0 126.5 L0 121.85 Z" class="st9"/>
			</g>
			<g id="shape2621-303" v:mID="2621" v:groupContext="shape" transform="translate(67.2225,-117.098)">
				<title>shape112</title>
				<path d="M0 121.85 C0 121.85 3.53 121.93 5.18 123.95 C6.83 125.83 6.6 128.98 6.6 128.98 L1.95 128.98 C1.95 128.98
							 2.03 127.18 0 126.5 L0 121.85 Z" class="st10"/>
			</g>
			<g id="group2622-307" transform="translate(31.875,-118.125)" v:mID="2622" v:groupContext="group">
				<title>工作表.2622</title>
				<g id="shape2623-308" v:mID="2623" v:groupContext="shape">
					<title>shape113</title>
					<path d="M0.67 121.7 C1.05 121.7 1.35 122 1.35 122.38 L1.35 128.3 C1.35 128.68 1.05 128.98 0.67 128.98 C0.3 128.98
								 0 128.68 0 128.3 L0 122.38 C0 122 0.3 121.7 0.67 121.7 Z" class="st11"/>
				</g>
				<g id="shape2624-312" v:mID="2624" v:groupContext="shape" transform="translate(1.9575,0)">
					<title>shape114</title>
					<path d="M0.67 121.7 C1.05 121.7 1.35 122 1.35 122.38 L1.35 128.3 C1.35 128.68 1.05 128.98 0.67 128.98 C0.3 128.98
								 0 128.68 0 128.3 L0 122.38 C0 122 0.3 121.7 0.67 121.7 Z" class="st11"/>
				</g>
			</g>
			<g id="group2625-315" transform="translate(52.725,-118.125)" v:mID="2625" v:groupContext="group">
				<title>工作表.2625</title>
				<g id="shape2626-316" v:mID="2626" v:groupContext="shape">
					<title>shape115</title>
					<path d="M0.67 121.7 C1.05 121.7 1.35 122 1.35 122.38 L1.35 128.3 C1.35 128.68 1.05 128.98 0.67 128.98 C0.3 128.98
								 0 128.68 0 128.3 L0 122.38 C0 122 0.3 121.7 0.67 121.7 Z" class="st11"/>
				</g>
				<g id="shape2627-319" v:mID="2627" v:groupContext="shape" transform="translate(1.9575,0)">
					<title>shape116</title>
					<path d="M0.67 121.7 C1.05 121.7 1.35 122 1.35 122.38 L1.35 128.3 C1.35 128.68 1.05 128.98 0.67 128.98 C0.3 128.98
								 0 128.68 0 128.3 L0 122.38 C0 122 0.3 121.7 0.67 121.7 Z" class="st11"/>
				</g>
			</g>
			<g id="shape2628-322" v:mID="2628" v:groupContext="shape" transform="translate(38.2425,-116.077)">
				<title>shape117</title>
				<path d="M0 123.28 C0 120.13 2.55 117.58 5.7 117.58 C8.85 117.58 11.4 120.13 11.4 123.28 C11.4 126.43 8.85 128.98
							 5.7 128.98 C2.55 128.98 0 126.43 0 123.28 Z" class="st12"/>
			</g>
			<g id="group2629-324" transform="translate(38.715,-116.513)" v:mID="2629" v:groupContext="group">
				<title>工作表.2629</title>
				<g id="shape2630-325" v:mID="2630" v:groupContext="shape">
					<title>shape118</title>
					<path d="M0 123.73 C0 120.8 2.33 118.48 5.25 118.48 C8.1 118.48 10.5 120.8 10.5 123.73 C10.5 126.58 8.1 128.98
								 5.25 128.98 C2.33 128.98 0 126.58 0 123.73 Z" class="st1"/>
				</g>
				<g id="shape2631-328" v:mID="2631" v:groupContext="shape" transform="translate(2.6925,-2.7075)">
					<title>shape119</title>
					<path d="M0 126.43 C0 125 1.13 123.88 2.55 123.88 C3.98 123.88 5.1 125 5.1 126.43 C5.1 127.85 3.98 128.98 2.55
								 128.98 C1.13 128.98 0 127.85 0 126.43 Z" class="st12"/>
				</g>
				<g id="shape2632-330" v:mID="2632" v:groupContext="shape" transform="translate(4.2525,-8.1525)">
					<title>shape120</title>
					<path d="M1.5 127.25 L1.95 128.08 L1.5 128.98 L0.53 128.98 L0 128.08 L0.53 127.25 L1.5 127.25 Z" class="st13"/>
				</g>
				<g id="shape2633-333" v:mID="2633" v:groupContext="shape" transform="translate(4.2525,-0.645)">
					<title>shape121</title>
					<path d="M1.5 127.25 L1.95 128.08 L1.5 128.98 L0.53 128.98 L0 128.08 L0.53 127.25 L1.5 127.25 Z" class="st13"/>
				</g>
				<g id="shape2634-336" v:mID="2634" v:groupContext="shape" transform="translate(0.465,-4.3875)">
					<title>shape122</title>
					<path d="M1.5 127.25 L1.95 128.08 L1.5 128.98 L0.53 128.98 L0 128.08 L0.53 127.25 L1.5 127.25 Z" class="st13"/>
				</g>
				<g id="shape2635-339" v:mID="2635" v:groupContext="shape" transform="translate(8.22,-4.3875)">
					<title>shape123</title>
					<path d="M1.5 127.25 L1.95 128.08 L1.5 128.98 L0.53 128.98 L0 128.08 L0.53 127.25 L1.5 127.25 Z" class="st13"/>
				</g>
			</g>
			<g id="shape2636-342" v:mID="2636" v:groupContext="shape" transform="translate(39.3075,-26.6475)">
				<title>shape124</title>
				<path d="M0.67 126.28 L8.7 126.28 C9 126.28 9.3 126.58 9.3 126.95 L9.3 128.38 C9.3 128.68 9 128.98 8.7 128.98 L0.67
							 128.98 C0.3 128.98 0 128.68 0 128.38 L0 126.95 C0 126.58 0.3 126.28 0.67 126.28 Z" class="st1"/>
			</g>
		</g>
	</g>
</svg>
