<?xml version="1.0" encoding="UTF-8" standalone="no"?>
<!DOCTYPE svg PUBLIC "-//W3C//DTD SVG 1.1//EN" "http://www.w3.org/Graphics/SVG/1.1/DTD/svg11.dtd">
<!-- 由 Microsoft Visio, SVG Export 生成 化学35.svg 页-1 -->
<svg xmlns="http://www.w3.org/2000/svg" xmlns:xlink="http://www.w3.org/1999/xlink" xmlns:ev="http://www.w3.org/2001/xml-events"
		xmlns:v="http://schemas.microsoft.com/visio/2003/SVGExtensions/" width="0.843437in" height="1.33437in"
		viewBox="0 0 60.7275 96.075" xml:space="preserve" color-interpolation-filters="sRGB" class="st16">
	<v:documentProperties v:langID="2052" v:metric="true" v:viewMarkup="false"/>

	<style type="text/css">
	<![CDATA[
		.st1 {fill:url(#grad0-6);stroke:none;stroke-linecap:butt;stroke-width:0.75}
		.st2 {fill:url(#grad0-10);stroke:none;stroke-linecap:butt;stroke-width:0.75}
		.st3 {fill:url(#grad0-14);stroke:none;stroke-linecap:butt;stroke-width:0.75}
		.st4 {fill:url(#grad0-52);stroke:none;stroke-linecap:butt;stroke-width:0.75}
		.st5 {fill:url(#grad0-57);stroke:none;stroke-linecap:butt;stroke-width:0.75}
		.st6 {fill:url(#grad0-61);stroke:none;stroke-linecap:butt;stroke-width:0.75}
		.st7 {fill:#edf6f9;stroke:none;stroke-linecap:butt;stroke-width:0.75}
		.st8 {fill:none}
		.st9 {stroke:#000000;stroke-linecap:butt;stroke-width:0.1875}
		.st10 {stroke:#ff4500;stroke-linecap:butt;stroke-width:0.1875}
		.st11 {fill:#de0c00;stroke:none;stroke-linecap:butt;stroke-width:0.75}
		.st12 {fill:#000000;stroke:none;stroke-linecap:butt;stroke-width:0.75}
		.st13 {fill:#e0e0e0;stroke:none;stroke-linecap:butt;stroke-width:0.75}
		.st14 {fill:#ffffff;stroke:none;stroke-linecap:butt;stroke-width:0.75}
		.st15 {fill:#202020;stroke:none;stroke-linecap:butt;stroke-width:0.75}
		.st16 {fill:none;fill-rule:evenodd;font-size:12px;overflow:visible;stroke-linecap:square;stroke-miterlimit:3}
	]]>
	</style>

	<defs id="Patterns_And_Gradients">
		<linearGradient id="grad0-6" x1="0" y1="0" x2="1" y2="0" gradientTransform="rotate(-180 0.5 0.5)">
			<stop offset="0" stop-color="#9db098" stop-opacity="1"/>
			<stop offset="0.15" stop-color="#d0e8cb" stop-opacity="1"/>
			<stop offset="0.25" stop-color="#e5f2e2" stop-opacity="1"/>
			<stop offset="0.44" stop-color="#b3c9ae" stop-opacity="1"/>
			<stop offset="0.6" stop-color="#9fb39b" stop-opacity="1"/>
			<stop offset="0.8" stop-color="#869782" stop-opacity="1"/>
			<stop offset="0.97" stop-color="#7a8a76" stop-opacity="1"/>
		</linearGradient>
		<linearGradient id="grad0-10" x1="0" y1="0" x2="1" y2="0" gradientTransform="rotate(122.86902772754 0.5 0.5)">
			<stop offset="0" stop-color="#9db098" stop-opacity="1"/>
			<stop offset="0.22" stop-color="#d0e8cb" stop-opacity="1"/>
			<stop offset="0.31" stop-color="#e5f2e2" stop-opacity="1"/>
			<stop offset="0.44" stop-color="#b3c9ae" stop-opacity="1"/>
			<stop offset="0.6" stop-color="#9fb39b" stop-opacity="1"/>
			<stop offset="0.8" stop-color="#869782" stop-opacity="1"/>
			<stop offset="0.97" stop-color="#7a8a76" stop-opacity="1"/>
		</linearGradient>
		<linearGradient id="grad0-14" x1="0" y1="0" x2="1" y2="0" gradientTransform="rotate(-180 0.5 0.5)">
			<stop offset="0" stop-color="#85a57f" stop-opacity="1"/>
			<stop offset="0.15" stop-color="#b5dbae" stop-opacity="1"/>
			<stop offset="0.25" stop-color="#d8ebd5" stop-opacity="1"/>
			<stop offset="0.44" stop-color="#99bd92" stop-opacity="1"/>
			<stop offset="0.6" stop-color="#88a881" stop-opacity="1"/>
			<stop offset="0.8" stop-color="#728d6c" stop-opacity="1"/>
			<stop offset="0.97" stop-color="#688163" stop-opacity="1"/>
		</linearGradient>
		<linearGradient id="grad0-52" x1="0" y1="0" x2="1" y2="0" gradientTransform="rotate(90 0.5 0.5)">
			<stop offset="0" stop-color="#9eb4bd" stop-opacity="1"/>
			<stop offset="0.22" stop-color="#c7e2ed" stop-opacity="1"/>
			<stop offset="0.31" stop-color="#d7eef7" stop-opacity="1"/>
			<stop offset="0.44" stop-color="#b5ced7" stop-opacity="1"/>
			<stop offset="0.6" stop-color="#a1b7c0" stop-opacity="1"/>
			<stop offset="0.8" stop-color="#879aa2" stop-opacity="1"/>
			<stop offset="0.97" stop-color="#7b8d94" stop-opacity="1"/>
		</linearGradient>
		<linearGradient id="grad0-57" x1="0" y1="0" x2="1" y2="0" gradientTransform="rotate(-180 0.5 0.5)">
			<stop offset="0" stop-color="#92a6ae" stop-opacity="1"/>
			<stop offset="0.03" stop-color="#daeff8" stop-opacity="1"/>
			<stop offset="0.08" stop-color="#bed8e3" stop-opacity="1"/>
			<stop offset="0.64" stop-color="#bbd5df" stop-opacity="1"/>
			<stop offset="0.95" stop-color="#b7d0da" stop-opacity="1"/>
			<stop offset="1" stop-color="#879aa2" stop-opacity="1"/>
		</linearGradient>
		<linearGradient id="grad0-61" x1="0" y1="0" x2="1" y2="0" gradientTransform="rotate(-180 0.5 0.5)">
			<stop offset="0" stop-color="#9eb4bd" stop-opacity="1"/>
			<stop offset="0.15" stop-color="#d2ecf7" stop-opacity="1"/>
			<stop offset="0.25" stop-color="#e6f4fa" stop-opacity="1"/>
			<stop offset="0.44" stop-color="#b5ced7" stop-opacity="1"/>
			<stop offset="0.6" stop-color="#a1b7c0" stop-opacity="1"/>
			<stop offset="0.8" stop-color="#879aa2" stop-opacity="1"/>
			<stop offset="0.97" stop-color="#7b8d94" stop-opacity="1"/>
		</linearGradient>
	</defs>
	<g v:mID="0" v:index="1" v:groupContext="foregroundPage">
		<title>页-1</title>
		<v:pageProperties v:drawingScale="0.0393701" v:pageScale="0.0393701" v:drawingUnits="24" v:shadowOffsetX="8.50394"
				v:shadowOffsetY="-8.50394"/>
		<g id="group3111-1" transform="translate(0.75,-0.75)" v:mID="3111" v:groupContext="group">
			<title>氨分离器</title>
			<g id="group3112-2" v:mID="3112" v:groupContext="group">
				<title>工作表.3112</title>
				<g id="shape3113-3" v:mID="3113" v:groupContext="shape" transform="translate(4.39648E-14,-16.8375)">
					<title>shape1</title>
					<path d="M0 41.7 L42.23 41.7 L42.23 96.07 L0 96.07 L0 41.7 Z" class="st1"/>
				</g>
				<g id="shape3114-7" v:mID="3114" v:groupContext="shape" transform="translate(4.39648E-14,-71.145)">
					<title>shape2</title>
					<path d="M11.93 86.47 C20.18 86.47 22.05 86.47 30.23 86.47 C40.88 86.47 42.23 96.07 42.23 96.07 L0 96.07 C0 96.07
								 1.73 86.47 11.93 86.47 Z" class="st2"/>
				</g>
				<g id="shape3115-11" v:mID="3115" v:groupContext="shape" transform="translate(4.39648E-14,-70.0875)">
					<title>shape3</title>
					<path d="M0 94.95 L42.23 94.95 L42.23 96.07 L0 96.07 L0 94.95 Z" class="st3"/>
				</g>
				<g id="shape3116-15" v:mID="3116" v:groupContext="shape" transform="translate(4.39648E-14,175.65) scale(1,-1)">
					<title>shape4</title>
					<path d="M11.93 86.47 C20.18 86.47 22.05 86.47 30.23 86.47 C40.88 86.47 42.23 96.07 42.23 96.07 L0 96.07 C0 96.07
								 1.73 86.47 11.93 86.47 Z" class="st2"/>
				</g>
				<g id="shape3117-18" v:mID="3117" v:groupContext="shape" transform="translate(11.9625,-80.715)">
					<title>shape5</title>
					<path d="M0 90.67 L18.3 90.67 L18.3 96.07 L0 96.07 L0 90.67 Z" class="st1"/>
				</g>
				<g id="shape3118-21" v:mID="3118" v:groupContext="shape" transform="translate(10.3875,-86.055)">
					<title>shape7</title>
					<path d="M0.07 94.5 L21.37 94.5 C21.37 94.5 21.45 94.57 21.45 94.57 L21.45 95.92 C21.45 96 21.37 96.07 21.37
								 96.07 L0.07 96.07 C0 96.07 0 96 0 95.92 L0 94.57 C0 94.57 0 94.5 0.07 94.5 Z" class="st1"/>
				</g>
				<g id="shape3119-24" v:mID="3119" v:groupContext="shape" transform="translate(12,185.25) scale(1,-1)">
					<title>shape9</title>
					<path d="M0 90.67 L18.3 90.67 L18.3 96.07 L0 96.07 L0 90.67 Z" class="st1"/>
				</g>
				<g id="shape3120-27" v:mID="3120" v:groupContext="shape" transform="translate(10.425,190.575) scale(1,-1)">
					<title>shape11</title>
					<path d="M0.07 94.5 L21.37 94.5 C21.37 94.5 21.45 94.57 21.45 94.57 L21.45 95.92 C21.45 96 21.37 96.07 21.37
								 96.07 L0.07 96.07 C0 96.07 0 96 0 95.92 L0 94.57 C0 94.57 0 94.5 0.07 94.5 Z" class="st1"/>
				</g>
				<g id="shape3121-30" v:mID="3121" v:groupContext="shape" transform="translate(4.39648E-14,-16.0425)">
					<title>shape13</title>
					<path d="M0 94.95 L42.23 94.95 L42.23 96.07 L0 96.07 L0 94.95 Z" class="st3"/>
				</g>
				<g id="shape3122-33" v:mID="3122" v:groupContext="shape" transform="translate(4.39648E-14,-49.92)">
					<title>shape14</title>
					<path d="M0 94.95 L42.23 94.95 L42.23 96.07 L0 96.07 L0 94.95 Z" class="st3"/>
				</g>
				<g id="shape3123-36" v:mID="3123" v:groupContext="shape" transform="translate(4.39648E-14,-35.2575)">
					<title>shape15</title>
					<path d="M0 94.95 L42.23 94.95 L42.23 96.07 L0 96.07 L0 94.95 Z" class="st3"/>
				</g>
				<g id="group3124-39" transform="translate(12.4725,-87.6075)" v:mID="3124" v:groupContext="group">
					<title>工作表.3124</title>
					<g id="shape3125-40" v:mID="3125" v:groupContext="shape">
						<title>shape16</title>
						<path d="M0 90.67 L1.73 90.67 L1.73 96.07 L0 96.07 L0 90.67 Z" class="st1"/>
					</g>
					<g id="shape3126-43" v:mID="3126" v:groupContext="shape" transform="translate(15.555,1.42109E-14)">
						<title>shape17</title>
						<path d="M0 90.67 L1.73 90.67 L1.73 96.07 L0 96.07 L0 90.67 Z" class="st1"/>
					</g>
				</g>
				<g id="shape3127-46" v:mID="3127" v:groupContext="shape" transform="translate(11.715,-91.875)">
					<title>shape18</title>
					<path d="M0.08 93.37 L18.68 93.37 C18.75 93.37 18.75 93.45 18.75 93.52 L18.75 95.85 C18.75 96 18.75 96.07 18.68
								 96.07 L0.07 96.07 C0 96.07 0 96 0 95.85 L0 93.52 C0 93.45 0 93.37 0.08 93.37 Z" class="st1"/>
				</g>
			</g>
			<g id="shape3128-49" v:mID="3128" v:groupContext="shape" transform="translate(42.21,-62.07)">
				<title>shape19</title>
				<path d="M0 90.67 L4.88 90.67 L4.88 96.07 L0 96.07 L0 90.67 Z" class="st4"/>
			</g>
			<g id="group3129-53" transform="translate(46.7775,-15.315)" v:mID="3129" v:groupContext="group">
				<title>工作表.3129</title>
				<g id="shape3130-54" v:mID="3130" v:groupContext="shape">
					<title>shape20</title>
					<path d="M0.15 36.82 L12.3 36.82 C12.38 36.82 12.45 36.9 12.45 36.97 L12.45 95.92 C12.45 96 12.38 96.07 12.3
								 96.07 L0.15 96.07 C0.08 96.07 0 96 0 95.92 L0 36.97 C0 36.9 0.08 36.82 0.15 36.82 Z" class="st5"/>
				</g>
				<g id="shape3131-58" v:mID="3131" v:groupContext="shape" transform="translate(5.355,-50.6625)">
					<title>shape21</title>
					<path d="M0.68 89.55 C1.43 89.55 1.73 90 1.73 90.6 L1.73 96.07 L0 96.07 L0 90.6 C0 90 0.3 89.55 0.68 89.55 Z"
							class="st6"/>
				</g>
				<g id="shape3132-62" v:mID="3132" v:groupContext="shape" transform="translate(2.5125,-18.1425)">
					<title>shape22</title>
					<path d="M0.45 63.15 L6.83 63.15 C7.13 63.15 7.28 63.37 7.28 63.6 L7.28 95.62 C7.28 95.85 7.13 96.07 6.83 96.07
								 L0.45 96.07 C0.23 96.07 0 95.85 0 95.62 L0 63.6 C0 63.37 0.23 63.15 0.45 63.15 Z" class="st7"/>
				</g>
				<g id="group3133-64" transform="translate(3.195,-18.045)" v:mID="3133" v:groupContext="group">
					<title>工作表.3133</title>
					<g id="shape3134-65" v:mID="3134" v:groupContext="shape" transform="translate(1.3275,-28.4325)">
						<title>shape23</title>
						<path d="M0 96.07 L3.6 96.07 L0 96.07 Z" class="st8"/>
						<path d="M0 96.07 L3.6 96.07" class="st9"/>
					</g>
					<g id="shape3135-68" v:mID="3135" v:groupContext="shape" transform="translate(0.39,-26.475)">
						<title>shape24</title>
						<path d="M0 96.07 L5.48 96.07 L0 96.07 Z" class="st8"/>
						<path d="M0 96.07 L5.48 96.07" class="st9"/>
					</g>
					<g id="shape3136-71" v:mID="3136" v:groupContext="shape" transform="translate(0.39,-22.62)">
						<title>shape25</title>
						<path d="M0 96.07 L5.48 96.07 L0 96.07 Z" class="st8"/>
						<path d="M0 96.07 L5.48 96.07" class="st9"/>
					</g>
					<g id="shape3137-74" v:mID="3137" v:groupContext="shape" transform="translate(0.39,-18.7875)">
						<title>shape26</title>
						<path d="M0 96.07 L5.48 96.07 L0 96.07 Z" class="st8"/>
						<path d="M0 96.07 L5.48 96.07" class="st9"/>
					</g>
					<g id="shape3138-77" v:mID="3138" v:groupContext="shape" transform="translate(0.39,-14.9325)">
						<title>shape27</title>
						<path d="M0 96.07 L5.48 96.07 L0 96.07 Z" class="st8"/>
						<path d="M0 96.07 L5.48 96.07" class="st9"/>
					</g>
					<g id="shape3139-80" v:mID="3139" v:groupContext="shape" transform="translate(0.39,-11.07)">
						<title>shape28</title>
						<path d="M0 96.07 L5.48 96.07 L0 96.07 Z" class="st8"/>
						<path d="M0 96.07 L5.48 96.07" class="st9"/>
					</g>
					<g id="shape3140-83" v:mID="3140" v:groupContext="shape" transform="translate(0.39,-7.23)">
						<title>shape29</title>
						<path d="M0 96.07 L5.48 96.07 L0 96.07 Z" class="st8"/>
						<path d="M0 96.07 L5.48 96.07" class="st10"/>
					</g>
					<g id="shape3141-86" v:mID="3141" v:groupContext="shape" transform="translate(0.39,-3.3525)">
						<title>shape30</title>
						<path d="M0 96.07 L5.48 96.07 L0 96.07 Z" class="st8"/>
						<path d="M0 96.07 L5.48 96.07" class="st10"/>
					</g>
					<g id="shape3142-89" v:mID="3142" v:groupContext="shape" transform="translate(1.3275,-24.5775)">
						<title>shape31</title>
						<path d="M0 96.07 L3.6 96.07 L0 96.07 Z" class="st8"/>
						<path d="M0 96.07 L3.6 96.07" class="st9"/>
					</g>
					<g id="shape3143-92" v:mID="3143" v:groupContext="shape" transform="translate(1.3275,-20.7)">
						<title>shape32</title>
						<path d="M0 96.07 L3.6 96.07 L0 96.07 Z" class="st8"/>
						<path d="M0 96.07 L3.6 96.07" class="st9"/>
					</g>
					<g id="shape3144-95" v:mID="3144" v:groupContext="shape" transform="translate(1.3275,-16.86)">
						<title>shape33</title>
						<path d="M0 96.07 L3.6 96.07 L0 96.07 Z" class="st8"/>
						<path d="M0 96.07 L3.6 96.07" class="st9"/>
					</g>
					<g id="shape3145-98" v:mID="3145" v:groupContext="shape" transform="translate(1.3275,-13.005)">
						<title>shape34</title>
						<path d="M0 96.07 L3.6 96.07 L0 96.07 Z" class="st8"/>
						<path d="M0 96.07 L3.6 96.07" class="st9"/>
					</g>
					<g id="shape3146-101" v:mID="3146" v:groupContext="shape" transform="translate(1.3275,-9.1275)">
						<title>shape35</title>
						<path d="M0 96.07 L3.6 96.07 L0 96.07 Z" class="st8"/>
						<path d="M0 96.07 L3.6 96.07" class="st10"/>
					</g>
					<g id="shape3147-104" v:mID="3147" v:groupContext="shape" transform="translate(1.3275,-5.295)">
						<title>shape36</title>
						<path d="M0 96.07 L3.6 96.07 L0 96.07 Z" class="st8"/>
						<path d="M0 96.07 L3.6 96.07" class="st10"/>
					</g>
					<g id="shape3148-107" v:mID="3148" v:groupContext="shape" transform="translate(0.39,-30.3975)">
						<title>shape37</title>
						<path d="M0 96.07 L5.48 96.07 L0 96.07 Z" class="st8"/>
						<path d="M0 96.07 L5.48 96.07" class="st9"/>
					</g>
					<g id="group3149-110" transform="translate(-2.02338E-14,-3.4425)" v:mID="3149" v:groupContext="group">
						<title>工作表.3149</title>
						<g id="shape3150-111" v:mID="3150" v:groupContext="shape">
							<title>shape38</title>
							<path d="M0.83 95.85 L0 96.07 C0 95.92 0 95.85 0.08 95.77 C0.15 95.7 0.23 95.62 0.38 95.47 C0.45 95.4
										 0.53 95.32 0.53 95.32 C0.6 95.25 0.6 95.17 0.6 95.17 C0.6 95.1 0.6 95.1 0.6 95.02 C0.53
										 95.02 0.53 95.02 0.45 95.02 C0.38 95.02 0.38 95.02 0.3 95.02 C0.3 95.1 0.3 95.1 0.3 95.17
										 C0.08 95.02 0.08 94.95 0.15 94.87 C0.23 94.8 0.3 94.8 0.45 94.8 C0.6 94.8 0.68 94.8 0.75
										 94.87 C0.83 94.95 0.83 95.02 0.83 95.17 C0.83 95.17 0.83 95.25 0.83 95.32 C0.83 95.32 0.75
										 95.4 0.75 95.47 C0.68 95.47 0.68 95.55 0.6 95.62 C0.53 95.7 0.45 95.7 0.45 95.77 C0.38 95.77
										 0.38 95.77 0.83 95.85 ZM1.43 94.8 C1.28 94.8 1.2 94.87 1.13 94.95 C1.05 95.02 1.05 95.17
										 1.05 95.4 C1.05 95.7 1.05 95.85 1.13 95.92 C1.2 96 1.28 96.07 1.43 96.07 C1.58 96.07 1.65
										 96 1.73 95.92 C1.8 95.85 1.88 95.7 1.88 95.4 C1.88 95.17 1.8 95.02 1.73 94.95 C1.65 94.87
										 1.58 94.8 1.43 94.8 ZM1.43 95.02 C1.43 95.02 1.35 95.02 1.35 95.02 C1.35 95.02 1.28 95.1
										 1.28 95.1 C1.28 95.17 1.28 95.25 1.28 95.4 C1.28 95.55 1.28 95.7 1.28 95.7 C1.28 95.77 1.35
										 95.85 1.35 95.85 C1.35 95.85 1.43 95.85 1.43 95.85 C1.43 95.85 1.5 95.85 1.5 95.85 C1.5
										 95.85 1.58 95.77 1.58 95.77 C1.58 95.7 1.58 95.55 1.58 95.4 C1.58 95.25 1.58 95.17 1.58
										 95.1 C1.58 95.1 1.5 95.02 1.5 95.02 C1.5 95.02 1.43 95.02 1.43 95.02 Z" class="st11"/>
						</g>
						<g id="shape3151-113" v:mID="3151" v:groupContext="shape" transform="translate(0.045,-3.8475)">
							<title>shape39</title>
							<path d="M0.53 96.07 L0.3 95.17 C0.23 95.25 0.15 95.32 0 95.32 C0.08 95.1 0.15 95.02 0.23 95.02 C0.3
										 94.95 0.3 94.87 0.38 94.8 L0.53 96.07 ZM1.35 94.8 C1.2 94.8 1.13 94.87 1.05 94.95 C0.98
										 95.02 0.9 95.17 0.9 95.4 C0.9 95.7 0.98 95.85 1.05 95.92 C1.13 96 1.2 96.07 1.35 96.07 C1.43
										 96.07 1.58 96 1.65 95.92 C1.73 95.85 1.73 95.7 1.73 95.4 C1.73 95.17 1.73 95.02 1.65 94.95
										 C1.58 94.87 1.43 94.8 1.35 94.8 ZM1.35 95.02 C1.28 95.02 1.28 95.02 1.28 95.02 C1.2 95.02
										 1.2 95.1 1.2 95.1 C1.2 95.17 1.2 95.25 1.2 95.4 C1.2 95.55 1.2 95.7 1.2 95.7 C1.2 95.77
										 1.2 95.85 1.28 95.85 C1.28 95.85 1.28 95.85 1.35 95.85 C1.35 95.85 1.43 95.85 1.43 95.85
										 C1.43 95.85 1.43 95.77 1.5 95.77 C1.5 95.7 1.5 95.55 1.5 95.4 C1.5 95.25 1.5 95.17 1.5 95.1
										 C1.43 95.1 1.43 95.02 1.43 95.02 C1.43 95.02 1.35 95.02 1.35 95.02 Z" class="st11"/>
						</g>
						<g id="shape3152-115" v:mID="3152" v:groupContext="shape" transform="translate(0.51,-7.7025)">
							<title>shape40</title>
							<path d="M0.38 94.8 C0.53 94.8 0.6 94.87 0.68 94.95 C0.75 95.02 0.83 95.17 0.83 95.4 C0.83 95.7 0.75
										 95.85 0.68 95.92 C0.6 96 0.53 96.07 0.38 96.07 C0.3 96.07 0.23 96 0.15 95.92 C0 95.85 0
										 95.7 0 95.4 C0 95.17 0.08 95.02 0.15 94.95 C0.23 94.87 0.3 94.8 0.38 94.8 ZM0.38 95.02 C0.38
										 95.02 0.38 95.02 0.3 95.02 C0.3 95.02 0.3 95.1 0.3 95.1 C0.23 95.17 0.23 95.25 0.23 95.4
										 C0.23 95.55 0.23 95.7 0.3 95.7 C0.3 95.77 0.3 95.85 0.3 95.85 C0.38 95.85 0.38 95.85 0.38
										 95.85 C0.45 95.85 0.45 95.85 0.53 95.85 C0.53 95.85 0.53 95.77 0.53 95.77 C0.53 95.7 0.6
										 95.55 0.6 95.4 C0.6 95.25 0.53 95.17 0.53 95.1 C0.53 95.1 0.53 95.02 0.53 95.02 C0.45 95.02
										 0.45 95.02 0.38 95.02 Z" class="st11"/>
						</g>
						<g id="shape3153-117" v:mID="3153" v:groupContext="shape" transform="translate(0.03,-19.2825)">
							<title>shape41</title>
							<path d="M0 95.77 C0.23 95.77 0.23 95.85 0.3 95.85 C0.3 95.92 0.38 95.92 0.38 95.92 C0.45 95.92 0.53
										 95.92 0.53 95.85 C0.53 95.85 0.6 95.77 0.6 95.7 C0.6 95.62 0.53 95.62 0.53 95.55 C0.53 95.55
										 0.45 95.55 0.45 95.55 C0.38 95.55 0.38 95.55 0.3 95.55 C0.38 95.32 0.45 95.32 0.45 95.32
										 C0.53 95.25 0.53 95.25 0.53 95.17 C0.53 95.17 0.53 95.1 0.53 95.1 C0.45 95.1 0.45 95.1 0.38
										 95.1 C0.38 95.1 0.3 95.1 0.3 95.1 C0.23 95.1 0.23 95.17 0.23 95.25 C0 95.1 0.08 95.02 0.08
										 95.02 C0.15 94.95 0.15 94.95 0.23 94.87 C0.3 94.87 0.3 94.87 0.38 94.87 C0.53 94.87 0.6
										 94.87 0.68 94.95 C0.75 95.02 0.75 95.1 0.75 95.17 C0.75 95.32 0.68 95.4 0.6 95.4 C0.68 95.47
										 0.75 95.47 0.75 95.55 C0.83 95.62 0.83 95.62 0.83 95.7 C0.83 95.85 0.75 95.92 0.68 96 C0.6
										 96.07 0.53 96.07 0.38 96.07 C0.3 96.07 0.23 96.07 0.15 96 C0.08 95.92 0 95.85 0 95.77 ZM1.35
										 94.87 C1.28 94.87 1.13 94.95 1.13 95.02 C0.98 95.1 0.98 95.25 0.98 95.47 C0.98 95.7 0.98
										 95.85 1.05 96 C1.13 96.07 1.28 96.07 1.35 96.07 C1.5 96.07 1.58 96.07 1.65 96 C1.73 95.85
										 1.8 95.7 1.8 95.47 C1.8 95.25 1.73 95.1 1.65 95.02 C1.58 94.95 1.5 94.87 1.35 94.87 ZM1.35
										 95.1 C1.35 95.1 1.35 95.1 1.28 95.1 C1.28 95.1 1.28 95.17 1.28 95.17 C1.2 95.25 1.2 95.32
										 1.2 95.47 C1.2 95.62 1.2 95.7 1.28 95.77 C1.28 95.85 1.28 95.85 1.28 95.92 C1.35 95.92 1.35
										 95.92 1.35 95.92 C1.43 95.92 1.43 95.92 1.43 95.92 C1.5 95.85 1.5 95.85 1.5 95.77 C1.5 95.7
										 1.5 95.62 1.5 95.47 C1.5 95.32 1.5 95.25 1.5 95.17 C1.5 95.17 1.5 95.1 1.43 95.1 C1.43 95.1
										 1.43 95.1 1.35 95.1 Z" class="st12"/>
						</g>
						<g id="shape3154-119" v:mID="3154" v:groupContext="shape" transform="translate(0.015,-22.74)">
							<title>shape42</title>
							<path d="M0.98 96.07 L0.98 94.5 L0 95.47 L0.98 96.07 ZM1.43 94.5 C1.28 94.5 1.2 94.57 1.13 94.65 C1.05
										 94.72 0.98 94.87 0.98 95.1 C0.98 95.32 1.05 95.47 1.13 95.62 C1.2 95.7 1.28 95.7 1.43 95.7
										 C1.5 95.7 1.65 95.7 1.65 95.62 C1.8 95.47 1.8 95.32 1.8 95.1 C1.8 94.87 1.8 94.72 1.65 94.65
										 C1.65 94.57 1.5 94.5 1.43 94.5 ZM1.43 94.72 C1.35 94.72 1.35 94.72 1.35 94.72 C1.28 94.72
										 1.28 94.8 1.28 94.8 C1.28 94.87 1.28 94.95 1.28 95.1 C1.28 95.25 1.28 95.32 1.28 95.4 C1.28
										 95.47 1.28 95.47 1.35 95.55 C1.35 95.55 1.35 95.55 1.43 95.55 C1.43 95.55 1.43 95.55 1.5
										 95.55 C1.5 95.47 1.5 95.47 1.5 95.4 C1.58 95.32 1.58 95.25 1.58 95.1 C1.58 94.95 1.58 94.87
										 1.5 94.8 C1.5 94.8 1.5 94.72 1.5 94.72 C1.43 94.72 1.43 94.72 1.43 94.72 Z" class="st12"/>
						</g>
						<g id="shape3155-121" v:mID="3155" v:groupContext="shape" transform="translate(0.0375,-27.06)">
							<title>shape43</title>
							<path d="M0 95.77 C0.23 95.77 0.3 95.85 0.3 95.85 C0.3 95.92 0.38 95.92 0.38 95.92 C0.45 95.92 0.53 95.92
										 0.53 95.85 C0.6 95.85 0.6 95.77 0.6 95.7 C0.6 95.62 0.6 95.55 0.53 95.55 C0.53 95.47 0.45
										 95.47 0.38 95.47 C0.3 95.47 0.3 95.47 0.23 95.55 C0.38 95.32 0.38 95.25 0.45 95.25 C0.53
										 95.25 0.68 95.32 0.75 95.4 C0.83 95.47 0.83 95.55 0.83 95.7 C0.83 95.77 0.83 95.85 0.75
										 95.92 C0.68 96.07 0.53 96.07 0.38 96.07 C0.3 96.07 0.23 96.07 0.15 96 C0.08 95.92 0 95.85
										 0 95.77 ZM1.35 94.87 C1.28 94.87 1.13 94.95 1.05 95.02 C0.98 95.1 0.98 95.25 0.98 95.47
										 C0.98 95.7 0.98 95.85 1.05 96 C1.13 96.07 1.28 96.07 1.35 96.07 C1.5 96.07 1.58 96.07 1.65
										 96 C1.73 95.85 1.73 95.7 1.73 95.47 C1.73 95.25 1.73 95.1 1.65 95.02 C1.58 94.95 1.5 94.87
										 1.35 94.87 ZM1.35 95.1 C1.35 95.1 1.28 95.1 1.28 95.1 C1.28 95.1 1.28 95.17 1.2 95.17 C1.2
										 95.25 1.2 95.32 1.2 95.47 C1.2 95.62 1.2 95.7 1.2 95.77 C1.28 95.85 1.28 95.85 1.28 95.92
										 C1.28 95.92 1.35 95.92 1.35 95.92 C1.35 95.92 1.43 95.92 1.43 95.92 C1.43 95.85 1.5 95.85
										 1.5 95.77 C1.5 95.7 1.5 95.62 1.5 95.47 C1.5 95.32 1.5 95.25 1.5 95.17 C1.5 95.17 1.43 95.1
										 1.43 95.1 C1.43 95.1 1.35 95.1 1.35 95.1 Z" class="st12"/>
						</g>
						<g id="shape3156-123" v:mID="3156" v:groupContext="shape" transform="translate(0.045,-11.55)">
							<title>shape44</title>
							<path d="M0.53 96.07 L0.3 95.17 C0.23 95.25 0.15 95.32 0 95.32 C0.08 95.1 0.15 95.02 0.23 95.02 C0.3
										 94.95 0.3 94.87 0.38 94.8 L0.53 96.07 ZM1.35 94.8 C1.2 94.8 1.13 94.87 1.05 94.95 C0.98
										 95.02 0.9 95.17 0.9 95.4 C0.9 95.7 0.98 95.85 1.05 95.92 C1.13 96 1.2 96.07 1.35 96.07 C1.43
										 96.07 1.58 96 1.65 95.92 C1.73 95.85 1.73 95.7 1.73 95.4 C1.73 95.17 1.73 95.02 1.65 94.95
										 C1.58 94.87 1.43 94.8 1.35 94.8 ZM1.35 95.02 C1.28 95.02 1.28 95.02 1.28 95.02 C1.2 95.02
										 1.2 95.1 1.2 95.1 C1.2 95.17 1.2 95.25 1.2 95.4 C1.2 95.55 1.2 95.7 1.2 95.7 C1.2 95.77
										 1.2 95.85 1.28 95.85 C1.28 95.85 1.28 95.85 1.35 95.85 C1.35 95.85 1.43 95.85 1.43 95.85
										 C1.43 95.85 1.43 95.77 1.5 95.77 C1.5 95.7 1.5 95.55 1.5 95.4 C1.5 95.25 1.5 95.17 1.5 95.1
										 C1.43 95.1 1.43 95.02 1.43 95.02 C1.43 95.02 1.35 95.02 1.35 95.02 Z" class="st12"/>
						</g>
						<g id="shape3157-125" v:mID="3157" v:groupContext="shape" transform="translate(1.07414E-14,-15.4275)">
							<title>shape45</title>
							<path d="M0.83 95.85 L0 96.07 C0 95.92 0 95.85 0.08 95.77 C0.15 95.7 0.23 95.62 0.38 95.47 C0.45 95.4
										 0.53 95.32 0.53 95.32 C0.6 95.25 0.6 95.17 0.6 95.17 C0.6 95.1 0.6 95.1 0.6 95.02 C0.53
										 95.02 0.53 95.02 0.45 95.02 C0.38 95.02 0.38 95.02 0.3 95.02 C0.3 95.1 0.3 95.1 0.3 95.17
										 C0.08 95.02 0.08 94.95 0.15 94.87 C0.23 94.8 0.3 94.8 0.45 94.8 C0.6 94.8 0.68 94.8 0.75
										 94.87 C0.83 94.95 0.83 95.02 0.83 95.17 C0.83 95.17 0.83 95.25 0.83 95.32 C0.83 95.32 0.75
										 95.4 0.75 95.47 C0.68 95.47 0.68 95.55 0.6 95.62 C0.53 95.7 0.45 95.7 0.45 95.77 C0.38 95.77
										 0.38 95.77 0.83 95.85 ZM1.43 94.8 C1.28 94.8 1.2 94.87 1.13 94.95 C1.05 95.02 1.05 95.17
										 1.05 95.4 C1.05 95.7 1.05 95.85 1.13 95.92 C1.2 96 1.28 96.07 1.43 96.07 C1.58 96.07 1.65
										 96 1.73 95.92 C1.8 95.85 1.88 95.7 1.88 95.4 C1.88 95.17 1.8 95.02 1.73 94.95 C1.65 94.87
										 1.58 94.8 1.43 94.8 ZM1.43 95.02 C1.43 95.02 1.35 95.02 1.35 95.02 C1.35 95.02 1.28 95.1
										 1.28 95.1 C1.28 95.17 1.28 95.25 1.28 95.4 C1.28 95.55 1.28 95.7 1.28 95.7 C1.28 95.77 1.35
										 95.85 1.35 95.85 C1.35 95.85 1.43 95.85 1.43 95.85 C1.43 95.85 1.5 95.85 1.5 95.85 C1.5
										 95.85 1.58 95.77 1.58 95.77 C1.58 95.7 1.58 95.55 1.58 95.4 C1.58 95.25 1.58 95.17 1.58
										 95.1 C1.58 95.1 1.5 95.02 1.5 95.02 C1.5 95.02 1.43 95.02 1.43 95.02 Z" class="st12"/>
						</g>
					</g>
					<g id="group3158-127" transform="translate(4.23,-3.4425)" v:mID="3158" v:groupContext="group">
						<title>工作表.3158</title>
						<g id="shape3159-128" v:mID="3159" v:groupContext="shape">
							<title>shape46</title>
							<path d="M0.83 95.85 L0 96.07 C0 95.92 0 95.85 0.08 95.77 C0.15 95.7 0.23 95.62 0.38 95.47 C0.45 95.4
										 0.53 95.32 0.53 95.32 C0.6 95.25 0.6 95.17 0.6 95.17 C0.6 95.1 0.6 95.1 0.6 95.02 C0.53
										 95.02 0.53 95.02 0.45 95.02 C0.38 95.02 0.38 95.02 0.3 95.02 C0.3 95.1 0.3 95.1 0.3 95.17
										 C0.08 95.02 0.08 94.95 0.15 94.87 C0.23 94.8 0.3 94.8 0.45 94.8 C0.6 94.8 0.68 94.8 0.75
										 94.87 C0.83 94.95 0.83 95.02 0.83 95.17 C0.83 95.17 0.83 95.25 0.83 95.32 C0.83 95.32 0.75
										 95.4 0.75 95.47 C0.68 95.47 0.68 95.55 0.6 95.62 C0.53 95.7 0.45 95.7 0.45 95.77 C0.38 95.77
										 0.38 95.77 0.83 95.85 ZM1.43 94.8 C1.28 94.8 1.2 94.87 1.13 94.95 C1.05 95.02 1.05 95.17
										 1.05 95.4 C1.05 95.7 1.05 95.85 1.13 95.92 C1.2 96 1.28 96.07 1.43 96.07 C1.58 96.07 1.65
										 96 1.73 95.92 C1.8 95.85 1.88 95.7 1.88 95.4 C1.88 95.17 1.8 95.02 1.73 94.95 C1.65 94.87
										 1.58 94.8 1.43 94.8 ZM1.43 95.02 C1.43 95.02 1.35 95.02 1.35 95.02 C1.35 95.02 1.28 95.1
										 1.28 95.1 C1.28 95.17 1.28 95.25 1.28 95.4 C1.28 95.55 1.28 95.7 1.28 95.7 C1.28 95.77 1.35
										 95.85 1.35 95.85 C1.35 95.85 1.43 95.85 1.43 95.85 C1.43 95.85 1.5 95.85 1.5 95.85 C1.5
										 95.85 1.58 95.77 1.58 95.77 C1.58 95.7 1.58 95.55 1.58 95.4 C1.58 95.25 1.58 95.17 1.58
										 95.1 C1.58 95.1 1.5 95.02 1.5 95.02 C1.5 95.02 1.43 95.02 1.43 95.02 Z" class="st11"/>
						</g>
						<g id="shape3160-130" v:mID="3160" v:groupContext="shape" transform="translate(0.045,-3.8475)">
							<title>shape47</title>
							<path d="M0.53 96.07 L0.3 95.17 C0.23 95.25 0.15 95.32 0 95.32 C0.08 95.1 0.15 95.02 0.23 95.02 C0.3
										 94.95 0.3 94.87 0.38 94.8 L0.53 96.07 ZM1.35 94.8 C1.2 94.8 1.13 94.87 1.05 94.95 C0.98
										 95.02 0.9 95.17 0.9 95.4 C0.9 95.7 0.98 95.85 1.05 95.92 C1.13 96 1.2 96.07 1.35 96.07 C1.43
										 96.07 1.58 96 1.65 95.92 C1.73 95.85 1.73 95.7 1.73 95.4 C1.73 95.17 1.73 95.02 1.65 94.95
										 C1.58 94.87 1.43 94.8 1.35 94.8 ZM1.35 95.02 C1.28 95.02 1.28 95.02 1.28 95.02 C1.2 95.02
										 1.2 95.1 1.2 95.1 C1.2 95.17 1.2 95.25 1.2 95.4 C1.2 95.55 1.2 95.7 1.2 95.7 C1.2 95.77
										 1.2 95.85 1.28 95.85 C1.28 95.85 1.28 95.85 1.35 95.85 C1.35 95.85 1.43 95.85 1.43 95.85
										 C1.43 95.85 1.43 95.77 1.5 95.77 C1.5 95.7 1.5 95.55 1.5 95.4 C1.5 95.25 1.5 95.17 1.5 95.1
										 C1.43 95.1 1.43 95.02 1.43 95.02 C1.43 95.02 1.35 95.02 1.35 95.02 Z" class="st11"/>
						</g>
						<g id="shape3161-132" v:mID="3161" v:groupContext="shape" transform="translate(0.51,-7.7025)">
							<title>shape48</title>
							<path d="M0.38 94.8 C0.53 94.8 0.6 94.87 0.68 94.95 C0.75 95.02 0.83 95.17 0.83 95.4 C0.83 95.7 0.75
										 95.85 0.68 95.92 C0.6 96 0.53 96.07 0.38 96.07 C0.3 96.07 0.23 96 0.15 95.92 C0 95.85 0
										 95.7 0 95.4 C0 95.17 0.08 95.02 0.15 94.95 C0.23 94.87 0.3 94.8 0.38 94.8 ZM0.38 95.02 C0.38
										 95.02 0.38 95.02 0.3 95.02 C0.3 95.02 0.3 95.1 0.3 95.1 C0.23 95.17 0.23 95.25 0.23 95.4
										 C0.23 95.55 0.23 95.7 0.3 95.7 C0.3 95.77 0.3 95.85 0.3 95.85 C0.38 95.85 0.38 95.85 0.38
										 95.85 C0.45 95.85 0.45 95.85 0.53 95.85 C0.53 95.85 0.53 95.77 0.53 95.77 C0.53 95.7 0.6
										 95.55 0.6 95.4 C0.6 95.25 0.53 95.17 0.53 95.1 C0.53 95.1 0.53 95.02 0.53 95.02 C0.45 95.02
										 0.45 95.02 0.38 95.02 Z" class="st11"/>
						</g>
						<g id="shape3162-134" v:mID="3162" v:groupContext="shape" transform="translate(0.045,-11.55)">
							<title>shape49</title>
							<path d="M0.53 96.07 L0.3 95.17 C0.23 95.25 0.15 95.32 0 95.32 C0.08 95.1 0.15 95.02 0.23 95.02 C0.3
										 94.95 0.3 94.87 0.38 94.8 L0.53 96.07 ZM1.35 94.8 C1.2 94.8 1.13 94.87 1.05 94.95 C0.98
										 95.02 0.9 95.17 0.9 95.4 C0.9 95.7 0.98 95.85 1.05 95.92 C1.13 96 1.2 96.07 1.35 96.07 C1.43
										 96.07 1.58 96 1.65 95.92 C1.73 95.85 1.73 95.7 1.73 95.4 C1.73 95.17 1.73 95.02 1.65 94.95
										 C1.58 94.87 1.43 94.8 1.35 94.8 ZM1.35 95.02 C1.28 95.02 1.28 95.02 1.28 95.02 C1.2 95.02
										 1.2 95.1 1.2 95.1 C1.2 95.17 1.2 95.25 1.2 95.4 C1.2 95.55 1.2 95.7 1.2 95.7 C1.2 95.77
										 1.2 95.85 1.28 95.85 C1.28 95.85 1.28 95.85 1.35 95.85 C1.35 95.85 1.43 95.85 1.43 95.85
										 C1.43 95.85 1.43 95.77 1.5 95.77 C1.5 95.7 1.5 95.55 1.5 95.4 C1.5 95.25 1.5 95.17 1.5 95.1
										 C1.43 95.1 1.43 95.02 1.43 95.02 C1.43 95.02 1.35 95.02 1.35 95.02 Z" class="st12"/>
						</g>
						<g id="shape3163-136" v:mID="3163" v:groupContext="shape" transform="translate(1.07414E-14,-15.4275)">
							<title>shape50</title>
							<path d="M0.83 95.85 L0 96.07 C0 95.92 0 95.85 0.08 95.77 C0.15 95.7 0.23 95.62 0.38 95.47 C0.45 95.4
										 0.53 95.32 0.53 95.32 C0.6 95.25 0.6 95.17 0.6 95.17 C0.6 95.1 0.6 95.1 0.6 95.02 C0.53
										 95.02 0.53 95.02 0.45 95.02 C0.38 95.02 0.38 95.02 0.3 95.02 C0.3 95.1 0.3 95.1 0.3 95.17
										 C0.08 95.02 0.08 94.95 0.15 94.87 C0.23 94.8 0.3 94.8 0.45 94.8 C0.6 94.8 0.68 94.8 0.75
										 94.87 C0.83 94.95 0.83 95.02 0.83 95.17 C0.83 95.17 0.83 95.25 0.83 95.32 C0.83 95.32 0.75
										 95.4 0.75 95.47 C0.68 95.47 0.68 95.55 0.6 95.62 C0.53 95.7 0.45 95.7 0.45 95.77 C0.38 95.77
										 0.38 95.77 0.83 95.85 ZM1.43 94.8 C1.28 94.8 1.2 94.87 1.13 94.95 C1.05 95.02 1.05 95.17
										 1.05 95.4 C1.05 95.7 1.05 95.85 1.13 95.92 C1.2 96 1.28 96.07 1.43 96.07 C1.58 96.07 1.65
										 96 1.73 95.92 C1.8 95.85 1.88 95.7 1.88 95.4 C1.88 95.17 1.8 95.02 1.73 94.95 C1.65 94.87
										 1.58 94.8 1.43 94.8 ZM1.43 95.02 C1.43 95.02 1.35 95.02 1.35 95.02 C1.35 95.02 1.28 95.1
										 1.28 95.1 C1.28 95.17 1.28 95.25 1.28 95.4 C1.28 95.55 1.28 95.7 1.28 95.7 C1.28 95.77 1.35
										 95.85 1.35 95.85 C1.35 95.85 1.43 95.85 1.43 95.85 C1.43 95.85 1.5 95.85 1.5 95.85 C1.5
										 95.85 1.58 95.77 1.58 95.77 C1.58 95.7 1.58 95.55 1.58 95.4 C1.58 95.25 1.58 95.17 1.58
										 95.1 C1.58 95.1 1.5 95.02 1.5 95.02 C1.5 95.02 1.43 95.02 1.43 95.02 Z" class="st12"/>
						</g>
						<g id="shape3164-138" v:mID="3164" v:groupContext="shape" transform="translate(0.0375,-19.2825)">
							<title>shape51</title>
							<path d="M0 95.77 C0.23 95.77 0.23 95.85 0.3 95.85 C0.3 95.92 0.38 95.92 0.38 95.92 C0.45 95.92 0.53
										 95.92 0.53 95.85 C0.53 95.85 0.6 95.77 0.6 95.7 C0.6 95.62 0.53 95.62 0.53 95.55 C0.53 95.55
										 0.45 95.55 0.45 95.55 C0.38 95.55 0.38 95.55 0.3 95.55 C0.38 95.32 0.45 95.32 0.45 95.32
										 C0.53 95.25 0.53 95.25 0.53 95.17 C0.53 95.17 0.53 95.1 0.53 95.1 C0.45 95.1 0.45 95.1 0.38
										 95.1 C0.38 95.1 0.3 95.1 0.3 95.1 C0.23 95.1 0.23 95.17 0.23 95.25 C0 95.1 0.08 95.02 0.08
										 95.02 C0.15 94.95 0.15 94.95 0.23 94.87 C0.3 94.87 0.3 94.87 0.38 94.87 C0.53 94.87 0.6
										 94.87 0.68 94.95 C0.75 95.02 0.75 95.1 0.75 95.17 C0.75 95.32 0.68 95.4 0.6 95.4 C0.68 95.47
										 0.75 95.47 0.75 95.55 C0.83 95.62 0.83 95.62 0.83 95.7 C0.83 95.85 0.75 95.92 0.68 96 C0.6
										 96.07 0.53 96.07 0.38 96.07 C0.3 96.07 0.23 96.07 0.15 96 C0.08 95.92 0 95.85 0 95.77 ZM1.35
										 94.87 C1.28 94.87 1.13 94.95 1.13 95.02 C0.98 95.1 0.98 95.25 0.98 95.47 C0.98 95.7 0.98
										 95.85 1.05 96 C1.13 96.07 1.28 96.07 1.35 96.07 C1.5 96.07 1.58 96.07 1.65 96 C1.73 95.85
										 1.8 95.7 1.8 95.47 C1.8 95.25 1.73 95.1 1.65 95.02 C1.58 94.95 1.5 94.87 1.35 94.87 ZM1.35
										 95.1 C1.35 95.1 1.35 95.1 1.28 95.1 C1.28 95.1 1.28 95.17 1.28 95.17 C1.2 95.25 1.2 95.32
										 1.2 95.47 C1.2 95.62 1.2 95.7 1.28 95.77 C1.28 95.85 1.28 95.85 1.28 95.92 C1.35 95.92 1.35
										 95.92 1.35 95.92 C1.43 95.92 1.43 95.92 1.43 95.92 C1.5 95.85 1.5 95.85 1.5 95.77 C1.5 95.7
										 1.5 95.62 1.5 95.47 C1.5 95.32 1.5 95.25 1.5 95.17 C1.5 95.17 1.5 95.1 1.43 95.1 C1.43 95.1
										 1.43 95.1 1.35 95.1 Z" class="st12"/>
						</g>
						<g id="shape3165-140" v:mID="3165" v:groupContext="shape" transform="translate(0.24,-23.115)">
							<title>shape52</title>
							<path d="M0.3 96.07 L0.3 94.87 L0.3 96.07 ZM1.2 94.87 C1.05 94.87 0.98 94.95 0.9 95.02 C0.83 95.1 0.75
										 95.25 0.75 95.47 C0.75 95.7 0.83 95.85 0.9 96 C0.98 96.07 1.05 96.07 1.2 96.07 C1.28 96.07
										 1.43 96.07 1.43 96 C1.58 95.85 1.58 95.7 1.58 95.47 C1.58 95.25 1.58 95.1 1.43 95.02 C1.43
										 94.95 1.28 94.87 1.2 94.87 ZM1.2 95.1 C1.13 95.1 1.13 95.1 1.13 95.1 C1.05 95.1 1.05 95.17
										 1.05 95.17 C1.05 95.25 1.05 95.32 1.05 95.47 C1.05 95.62 1.05 95.7 1.05 95.77 C1.05 95.85
										 1.05 95.85 1.13 95.92 C1.13 95.92 1.13 95.92 1.2 95.92 C1.2 95.92 1.2 95.92 1.28 95.92 C1.28
										 95.85 1.28 95.85 1.28 95.77 C1.35 95.7 1.35 95.62 1.35 95.47 C1.35 95.32 1.35 95.25 1.28
										 95.17 C1.28 95.17 1.28 95.1 1.28 95.1 C1.2 95.1 1.2 95.1 1.2 95.1 Z" class="st12"/>
						</g>
						<g id="shape3166-142" v:mID="3166" v:groupContext="shape" transform="translate(0.0375,-27.06)">
							<title>shape53</title>
							<path d="M0 95.77 C0.23 95.77 0.3 95.85 0.3 95.85 C0.3 95.92 0.38 95.92 0.38 95.92 C0.45 95.92 0.53 95.92
										 0.53 95.85 C0.6 95.85 0.6 95.77 0.6 95.7 C0.6 95.62 0.6 95.55 0.53 95.55 C0.53 95.47 0.45
										 95.47 0.38 95.47 C0.3 95.47 0.3 95.47 0.23 95.55 C0.38 95.32 0.38 95.25 0.45 95.25 C0.53
										 95.25 0.68 95.32 0.75 95.4 C0.83 95.47 0.83 95.55 0.83 95.7 C0.83 95.77 0.83 95.85 0.75
										 95.92 C0.68 96.07 0.53 96.07 0.38 96.07 C0.3 96.07 0.23 96.07 0.15 96 C0.08 95.92 0 95.85
										 0 95.77 ZM1.35 94.87 C1.28 94.87 1.13 94.95 1.05 95.02 C0.98 95.1 0.98 95.25 0.98 95.47
										 C0.98 95.7 0.98 95.85 1.05 96 C1.13 96.07 1.28 96.07 1.35 96.07 C1.5 96.07 1.58 96.07 1.65
										 96 C1.73 95.85 1.73 95.7 1.73 95.47 C1.73 95.25 1.73 95.1 1.65 95.02 C1.58 94.95 1.5 94.87
										 1.35 94.87 ZM1.35 95.1 C1.35 95.1 1.28 95.1 1.28 95.1 C1.28 95.1 1.28 95.17 1.2 95.17 C1.2
										 95.25 1.2 95.32 1.2 95.47 C1.2 95.62 1.2 95.7 1.2 95.77 C1.28 95.85 1.28 95.85 1.28 95.92
										 C1.28 95.92 1.35 95.92 1.35 95.92 C1.35 95.92 1.43 95.92 1.43 95.92 C1.43 95.85 1.5 95.85
										 1.5 95.77 C1.5 95.7 1.5 95.62 1.5 95.47 C1.5 95.32 1.5 95.25 1.5 95.17 C1.5 95.17 1.43 95.1
										 1.43 95.1 C1.43 95.1 1.35 95.1 1.35 95.1 Z" class="st12"/>
						</g>
					</g>
					<g id="group3167-144" transform="translate(2.4825,-4.26326E-14)" v:mID="3167" v:groupContext="group">
						<title>工作表.3167</title>
						<g id="shape3168-145" v:mID="3168" v:groupContext="shape">
							<title>shape54</title>
							<path d="M0 65.25 L1.28 65.25 L1.28 96.07 L0 96.07 L0 65.25 Z" class="st13"/>
						</g>
						<g id="shape3169-147" v:mID="3169" v:groupContext="shape" transform="translate(0.24,-0.165)">
							<title>shape55</title>
							<path d="M0 66.75 L0.83 66.75 L0.83 96.07 L0 96.07 L0 66.75 Z" class="st14"/>
						</g>
						<g id="shape3170-149" v:mID="3170" v:groupContext="shape" transform="translate(0.465,-0.2175)">
							<title>shape56</title>
							<path d="M0 77.85 L0.37 96.07 L0 77.85 Z" class="st11"/>
						</g>
						<g id="shape3171-151" v:mID="3171" v:groupContext="shape" transform="translate(0.45,-29.4675)">
							<title>shape58</title>
							<path d="M0 95.02 L0.37 96.07 L0 95.02 Z" class="st15"/>
						</g>
						<g id="shape3172-153" v:mID="3172" v:groupContext="shape" transform="translate(0.06,-0.0675)">
							<title>shape60</title>
							<path d="M0 95.25 L1.13 95.25 L1.13 96.07 L0 96.07 L0 95.25 Z" class="st15"/>
						</g>
					</g>
				</g>
				<g id="shape3173-155" v:mID="3173" v:groupContext="shape" transform="translate(2.5125,-13.8075)">
					<title>shape62</title>
					<path d="M0 91.27 L7.35 91.27 L7.35 96.07 L0 96.07 L0 91.27 Z" class="st6"/>
				</g>
				<g id="shape3174-158" v:mID="3174" v:groupContext="shape" transform="translate(1.4625,-9.9525)">
					<title>shape63</title>
					<path d="M0 92.25 L9.45 92.25 L9.45 96.07 L0 96.07 L0 92.25 Z" class="st6"/>
				</g>
				<g id="shape3175-161" v:mID="3175" v:groupContext="shape" transform="translate(3.5475,-8.1)">
					<title>shape64</title>
					<path d="M0 94.2 L5.25 94.2 L5.25 96.07 L0 96.07 L0 94.2 Z" class="st6"/>
				</g>
				<g id="shape3176-164" v:mID="3176" v:groupContext="shape" transform="translate(5.25,-2.04)">
					<title>shape65</title>
					<path d="M0 90 L1.87 90 L1.87 96.07 L0 96.07 L0 90 Z" class="st6"/>
				</g>
				<g id="shape3177-167" v:mID="3177" v:groupContext="shape" transform="translate(4.77,-3.285)">
					<title>shape66</title>
					<path d="M0 93.22 L2.78 93.22 L2.78 96.07 L0 96.07 L0 93.22 Z" class="st6"/>
				</g>
			</g>
			<g id="shape3178-170" v:mID="3178" v:groupContext="shape" transform="translate(42.21,-22.155)">
				<title>shape67</title>
				<path d="M0 90.67 L4.88 90.67 L4.88 96.07 L0 96.07 L0 90.67 Z" class="st4"/>
			</g>
		</g>
	</g>
</svg>
