<?xml version="1.0" encoding="UTF-8" standalone="no"?>
<!DOCTYPE svg PUBLIC "-//W3C//DTD SVG 1.1//EN" "http://www.w3.org/Graphics/SVG/1.1/DTD/svg11.dtd">
<!-- 由 Microsoft Visio, SVG Export 生成 化学66.svg 页-1 -->
<svg xmlns="http://www.w3.org/2000/svg" xmlns:xlink="http://www.w3.org/1999/xlink" xmlns:ev="http://www.w3.org/2001/xml-events"
		xmlns:v="http://schemas.microsoft.com/visio/2003/SVGExtensions/" width="0.619792in" height="1.87in"
		viewBox="0 0 44.625 134.64" xml:space="preserve" color-interpolation-filters="sRGB" class="st3">
	<v:documentProperties v:langID="2052" v:metric="true" v:viewMarkup="false"/>

	<style type="text/css">
	<![CDATA[
		.st1 {fill:url(#grad0-5);stroke:none;stroke-linecap:butt;stroke-width:0.75}
		.st2 {fill:url(#grad0-12);stroke:none;stroke-linecap:butt;stroke-width:0.75}
		.st3 {fill:none;fill-rule:evenodd;font-size:12px;overflow:visible;stroke-linecap:square;stroke-miterlimit:3}
	]]>
	</style>

	<defs id="Patterns_And_Gradients">
		<linearGradient id="grad0-5" x1="0" y1="0" x2="1" y2="0" gradientTransform="rotate(-180 0.5 0.5)">
			<stop offset="0" stop-color="#b4a59f" stop-opacity="1"/>
			<stop offset="0.15" stop-color="#eddfda" stop-opacity="1"/>
			<stop offset="0.25" stop-color="#eee2dd" stop-opacity="1"/>
			<stop offset="0.52" stop-color="#cab9b3" stop-opacity="1"/>
			<stop offset="0.69" stop-color="#b4a59f" stop-opacity="1"/>
			<stop offset="0.8" stop-color="#aa9b96" stop-opacity="1"/>
			<stop offset="0.92" stop-color="#a0938e" stop-opacity="1"/>
		</linearGradient>
		<linearGradient id="grad0-12" x1="0" y1="0" x2="1" y2="0" gradientTransform="rotate(-180 0.5 0.5)">
			<stop offset="0" stop-color="#a78f87" stop-opacity="1"/>
			<stop offset="0.15" stop-color="#e1cdc6" stop-opacity="1"/>
			<stop offset="0.25" stop-color="#e4d1ca" stop-opacity="1"/>
			<stop offset="0.52" stop-color="#bca298" stop-opacity="1"/>
			<stop offset="0.69" stop-color="#a78f87" stop-opacity="1"/>
			<stop offset="0.8" stop-color="#9e877f" stop-opacity="1"/>
			<stop offset="0.92" stop-color="#957f78" stop-opacity="1"/>
		</linearGradient>
	</defs>
	<g v:mID="0" v:index="1" v:groupContext="foregroundPage">
		<title>页-1</title>
		<v:pageProperties v:drawingScale="0.0393701" v:pageScale="0.0393701" v:drawingUnits="24" v:shadowOffsetX="8.50394"
				v:shadowOffsetY="-8.50394"/>
		<g id="group3615-1" transform="translate(0.75,-0.75)" v:mID="3615" v:groupContext="group">
			<title>氨吸收塔</title>
			<g id="shape3616-2" v:mID="3616" v:groupContext="shape" transform="translate(4.935,-2.1)">
				<title>shape1</title>
				<path d="M0 10.44 L33.23 10.44 L33.23 134.64 L0 134.64 L0 10.44 Z" class="st1"/>
			</g>
			<g id="shape3617-6" v:mID="3617" v:groupContext="shape" transform="translate(4.935,-126.99)">
				<title>shape2</title>
				<path d="M16.5 128.49 C32.25 128.49 33.23 134.64 33.23 134.64 L0 134.64 C0 134.64 0.83 128.49 16.5 128.49 Z"
						class="st1"/>
			</g>
			<g id="shape3618-9" v:mID="3618" v:groupContext="shape">
				<title>shape3</title>
				<path d="M0.9 132.24 L42.22 132.24 C42.75 132.24 43.12 132.46 43.12 132.69 L43.12 134.19 C43.12 134.41 42.75 134.64
							 42.22 134.64 L0.9 134.64 C0.37 134.64 0 134.41 0 134.19 L0 132.69 C0 132.46 0.37 132.24 0.9 132.24 Z"
						class="st2"/>
			</g>
			<g id="group3619-13" transform="translate(2.5875,-125.062)" v:mID="3619" v:groupContext="group">
				<title>工作表.3619</title>
				<g id="shape3620-14" v:mID="3620" v:groupContext="shape">
					<title>shape4</title>
					<path d="M0.83 133.51 L37.05 133.51 C37.5 133.51 37.88 133.74 37.88 133.96 C37.88 134.49 37.5 134.64 37.05 134.64
								 L0.83 134.64 C0.38 134.64 0 134.49 0 134.19 C0 133.74 0.38 133.51 0.83 133.51 Z" class="st2"/>
				</g>
				<g id="shape3621-17" v:mID="3621" v:groupContext="shape" transform="translate(5.59552E-14,-1.155)">
					<title>shape5</title>
					<path d="M0.83 133.51 L37.05 133.51 C37.5 133.51 37.88 133.74 37.88 133.96 C37.88 134.49 37.5 134.64 37.05 134.64
								 L0.83 134.64 C0.38 134.64 0 134.49 0 134.19 C0 133.74 0.38 133.51 0.83 133.51 Z" class="st2"/>
				</g>
			</g>
			<g id="group3622-20" transform="translate(2.445,-71.9775)" v:mID="3622" v:groupContext="group">
				<title>工作表.3622</title>
				<g id="shape3623-21" v:mID="3623" v:groupContext="shape">
					<title>shape6</title>
					<path d="M0.83 133.51 L37.05 133.51 C37.5 133.51 37.88 133.74 37.88 133.96 C37.88 134.49 37.5 134.64 37.05 134.64
								 L0.83 134.64 C0.38 134.64 0 134.49 0 134.19 C0 133.74 0.38 133.51 0.83 133.51 Z" class="st2"/>
				</g>
				<g id="shape3624-24" v:mID="3624" v:groupContext="shape" transform="translate(5.59552E-14,-1.155)">
					<title>shape7</title>
					<path d="M0.83 133.51 L37.05 133.51 C37.5 133.51 37.88 133.74 37.88 133.96 C37.88 134.49 37.5 134.64 37.05 134.64
								 L0.83 134.64 C0.38 134.64 0 134.49 0 134.19 C0 133.74 0.38 133.51 0.83 133.51 Z" class="st2"/>
				</g>
			</g>
		</g>
	</g>
</svg>
