<?xml version="1.0" encoding="UTF-8" standalone="no"?>
<!DOCTYPE svg PUBLIC "-//W3C//DTD SVG 1.1//EN" "http://www.w3.org/Graphics/SVG/1.1/DTD/svg11.dtd">
<!-- 由 Microsoft Visio, SVG Export 生成 化学68.svg 页-1 -->
<svg xmlns="http://www.w3.org/2000/svg" xmlns:xlink="http://www.w3.org/1999/xlink" xmlns:ev="http://www.w3.org/2001/xml-events"
		xmlns:v="http://schemas.microsoft.com/visio/2003/SVGExtensions/" width="0.5in" height="1.81771in" viewBox="0 0 36 130.875"
		xml:space="preserve" color-interpolation-filters="sRGB" class="st26">
	<v:documentProperties v:langID="2052" v:metric="true" v:viewMarkup="false"/>

	<style type="text/css">
	<![CDATA[
		.st1 {fill:url(#grad0-5);stroke:none;stroke-linecap:butt;stroke-width:0.75}
		.st2 {fill:url(#grad0-9);stroke:none;stroke-linecap:butt;stroke-width:0.75}
		.st3 {fill:#467597;stroke:none;stroke-linecap:butt;stroke-width:0.75}
		.st4 {fill:url(#grad0-18);stroke:none;stroke-linecap:butt;stroke-width:0.75}
		.st5 {fill:url(#grad0-22);stroke:none;stroke-linecap:butt;stroke-width:0.75}
		.st6 {fill:url(#grad0-26);stroke:none;stroke-linecap:butt;stroke-width:0.75}
		.st7 {fill:url(#grad0-33);stroke:none;stroke-linecap:butt;stroke-width:0.75}
		.st8 {fill:url(#grad0-40);stroke:none;stroke-linecap:butt;stroke-width:0.75}
		.st9 {fill:url(#grad0-44);stroke:none;stroke-linecap:butt;stroke-width:0.75}
		.st10 {fill:url(#grad0-48);stroke:none;stroke-linecap:butt;stroke-width:0.75}
		.st11 {fill:url(#grad0-55);stroke:none;stroke-linecap:butt;stroke-width:0.75}
		.st12 {fill:url(#grad0-59);stroke:none;stroke-linecap:butt;stroke-width:0.75}
		.st13 {fill:url(#grad0-63);stroke:none;stroke-linecap:butt;stroke-width:0.75}
		.st14 {fill:url(#grad0-67);stroke:none;stroke-linecap:butt;stroke-width:0.75}
		.st15 {fill:url(#grad0-77);stroke:none;stroke-linecap:butt;stroke-width:0.75}
		.st16 {fill:url(#grad0-84);stroke:none;stroke-linecap:butt;stroke-width:0.75}
		.st17 {fill:url(#grad0-88);stroke:none;stroke-linecap:butt;stroke-width:0.75}
		.st18 {fill:url(#grad0-92);stroke:none;stroke-linecap:butt;stroke-width:0.75}
		.st19 {fill:url(#grad0-96);stroke:none;stroke-linecap:butt;stroke-width:0.75}
		.st20 {fill:url(#grad0-115);stroke:none;stroke-linecap:butt;stroke-width:0.75}
		.st21 {fill:url(#grad0-122);stroke:none;stroke-linecap:butt;stroke-width:0.75}
		.st22 {fill:url(#grad0-129);stroke:none;stroke-linecap:butt;stroke-width:0.75}
		.st23 {fill:url(#grad0-133);stroke:none;stroke-linecap:butt;stroke-width:0.75}
		.st24 {fill:url(#grad0-140);stroke:none;stroke-linecap:butt;stroke-width:0.75}
		.st25 {fill:url(#grad0-168);stroke:none;stroke-linecap:butt;stroke-width:0.75}
		.st26 {fill:none;fill-rule:evenodd;font-size:12px;overflow:visible;stroke-linecap:square;stroke-miterlimit:3}
	]]>
	</style>

	<defs id="Patterns_And_Gradients">
		<linearGradient id="grad0-5" x1="0" y1="0" x2="1" y2="0" gradientTransform="rotate(-180 0.5 0.5)">
			<stop offset="0" stop-color="#5288af" stop-opacity="1"/>
			<stop offset="0.15" stop-color="#7db8e7" stop-opacity="1"/>
			<stop offset="0.25" stop-color="#a1c7eb" stop-opacity="1"/>
			<stop offset="0.44" stop-color="#5e9bc8" stop-opacity="1"/>
			<stop offset="0.6" stop-color="#538ab2" stop-opacity="1"/>
			<stop offset="0.8" stop-color="#457496" stop-opacity="1"/>
			<stop offset="0.97" stop-color="#3f6989" stop-opacity="1"/>
			<stop offset="1" stop-color="#558db6" stop-opacity="1"/>
		</linearGradient>
		<linearGradient id="grad0-9" x1="0" y1="0" x2="1" y2="0" gradientTransform="rotate(-180 0.5 0.5)">
			<stop offset="0" stop-color="#3475a8" stop-opacity="1"/>
			<stop offset="0.15" stop-color="#61a2de" stop-opacity="1"/>
			<stop offset="0.25" stop-color="#7fade1" stop-opacity="1"/>
			<stop offset="0.44" stop-color="#3d86c0" stop-opacity="1"/>
			<stop offset="0.6" stop-color="#3577ab" stop-opacity="1"/>
			<stop offset="0.8" stop-color="#2b6390" stop-opacity="1"/>
			<stop offset="0.97" stop-color="#275a84" stop-opacity="1"/>
			<stop offset="1" stop-color="#377aaf" stop-opacity="1"/>
		</linearGradient>
		<linearGradient id="grad0-18" x1="0" y1="0" x2="1" y2="0" gradientTransform="rotate(136.04162667601 0.5 0.5)">
			<stop offset="0" stop-color="#555454" stop-opacity="1"/>
			<stop offset="0.15" stop-color="#807f7f" stop-opacity="1"/>
			<stop offset="0.25" stop-color="#9f9f9f" stop-opacity="1"/>
			<stop offset="0.44" stop-color="#626161" stop-opacity="1"/>
			<stop offset="0.6" stop-color="#565656" stop-opacity="1"/>
			<stop offset="0.8" stop-color="#484747" stop-opacity="1"/>
			<stop offset="0.97" stop-color="#414040" stop-opacity="1"/>
			<stop offset="1" stop-color="#595858" stop-opacity="1"/>
		</linearGradient>
		<linearGradient id="grad0-22" x1="0" y1="0" x2="1" y2="0" gradientTransform="rotate(139.26789330029 0.5 0.5)">
			<stop offset="0" stop-color="#555454" stop-opacity="1"/>
			<stop offset="0.15" stop-color="#807f7f" stop-opacity="1"/>
			<stop offset="0.25" stop-color="#9f9f9f" stop-opacity="1"/>
			<stop offset="0.44" stop-color="#626161" stop-opacity="1"/>
			<stop offset="0.6" stop-color="#565656" stop-opacity="1"/>
			<stop offset="0.8" stop-color="#484747" stop-opacity="1"/>
			<stop offset="0.97" stop-color="#414040" stop-opacity="1"/>
			<stop offset="1" stop-color="#595858" stop-opacity="1"/>
		</linearGradient>
		<linearGradient id="grad0-26" x1="0" y1="0" x2="1" y2="0" gradientTransform="rotate(136.46880071439 0.5 0.5)">
			<stop offset="0" stop-color="#555454" stop-opacity="1"/>
			<stop offset="0.15" stop-color="#807f7f" stop-opacity="1"/>
			<stop offset="0.25" stop-color="#9f9f9f" stop-opacity="1"/>
			<stop offset="0.44" stop-color="#626161" stop-opacity="1"/>
			<stop offset="0.6" stop-color="#565656" stop-opacity="1"/>
			<stop offset="0.8" stop-color="#484747" stop-opacity="1"/>
			<stop offset="0.97" stop-color="#414040" stop-opacity="1"/>
			<stop offset="1" stop-color="#595858" stop-opacity="1"/>
		</linearGradient>
		<linearGradient id="grad0-33" x1="0" y1="0" x2="1" y2="0" gradientTransform="rotate(142.17171216539 0.5 0.5)">
			<stop offset="0" stop-color="#555454" stop-opacity="1"/>
			<stop offset="0.15" stop-color="#807f7f" stop-opacity="1"/>
			<stop offset="0.25" stop-color="#9f9f9f" stop-opacity="1"/>
			<stop offset="0.44" stop-color="#626161" stop-opacity="1"/>
			<stop offset="0.6" stop-color="#565656" stop-opacity="1"/>
			<stop offset="0.8" stop-color="#484747" stop-opacity="1"/>
			<stop offset="0.97" stop-color="#414040" stop-opacity="1"/>
			<stop offset="1" stop-color="#595858" stop-opacity="1"/>
		</linearGradient>
		<linearGradient id="grad0-40" x1="0" y1="0" x2="1" y2="0" gradientTransform="rotate(136.04162667601 0.5 0.5)">
			<stop offset="0" stop-color="#555454" stop-opacity="1"/>
			<stop offset="0.15" stop-color="#807f7f" stop-opacity="1"/>
			<stop offset="0.25" stop-color="#9f9f9f" stop-opacity="1"/>
			<stop offset="0.44" stop-color="#626161" stop-opacity="1"/>
			<stop offset="0.6" stop-color="#565656" stop-opacity="1"/>
			<stop offset="0.8" stop-color="#484747" stop-opacity="1"/>
			<stop offset="0.97" stop-color="#414040" stop-opacity="1"/>
			<stop offset="1" stop-color="#595858" stop-opacity="1"/>
		</linearGradient>
		<linearGradient id="grad0-44" x1="0" y1="0" x2="1" y2="0" gradientTransform="rotate(142.9893267664 0.5 0.5)">
			<stop offset="0" stop-color="#555454" stop-opacity="1"/>
			<stop offset="0.15" stop-color="#807f7f" stop-opacity="1"/>
			<stop offset="0.25" stop-color="#9f9f9f" stop-opacity="1"/>
			<stop offset="0.44" stop-color="#626161" stop-opacity="1"/>
			<stop offset="0.6" stop-color="#565656" stop-opacity="1"/>
			<stop offset="0.8" stop-color="#484747" stop-opacity="1"/>
			<stop offset="0.97" stop-color="#414040" stop-opacity="1"/>
			<stop offset="1" stop-color="#595858" stop-opacity="1"/>
		</linearGradient>
		<linearGradient id="grad0-48" x1="0" y1="0" x2="1" y2="0" gradientTransform="rotate(142.97327123257 0.5 0.5)">
			<stop offset="0" stop-color="#555454" stop-opacity="1"/>
			<stop offset="0.15" stop-color="#807f7f" stop-opacity="1"/>
			<stop offset="0.25" stop-color="#9f9f9f" stop-opacity="1"/>
			<stop offset="0.44" stop-color="#626161" stop-opacity="1"/>
			<stop offset="0.6" stop-color="#565656" stop-opacity="1"/>
			<stop offset="0.8" stop-color="#484747" stop-opacity="1"/>
			<stop offset="0.97" stop-color="#414040" stop-opacity="1"/>
			<stop offset="1" stop-color="#595858" stop-opacity="1"/>
		</linearGradient>
		<linearGradient id="grad0-55" x1="0" y1="0" x2="1" y2="0" gradientTransform="rotate(143.27905118546 0.5 0.5)">
			<stop offset="0" stop-color="#555454" stop-opacity="1"/>
			<stop offset="0.15" stop-color="#807f7f" stop-opacity="1"/>
			<stop offset="0.25" stop-color="#9f9f9f" stop-opacity="1"/>
			<stop offset="0.44" stop-color="#626161" stop-opacity="1"/>
			<stop offset="0.6" stop-color="#565656" stop-opacity="1"/>
			<stop offset="0.8" stop-color="#484747" stop-opacity="1"/>
			<stop offset="0.97" stop-color="#414040" stop-opacity="1"/>
			<stop offset="1" stop-color="#595858" stop-opacity="1"/>
		</linearGradient>
		<linearGradient id="grad0-59" x1="0" y1="0" x2="1" y2="0" gradientTransform="rotate(135.72522429906 0.5 0.5)">
			<stop offset="0" stop-color="#555454" stop-opacity="1"/>
			<stop offset="0.15" stop-color="#807f7f" stop-opacity="1"/>
			<stop offset="0.25" stop-color="#9f9f9f" stop-opacity="1"/>
			<stop offset="0.44" stop-color="#626161" stop-opacity="1"/>
			<stop offset="0.6" stop-color="#565656" stop-opacity="1"/>
			<stop offset="0.8" stop-color="#484747" stop-opacity="1"/>
			<stop offset="0.97" stop-color="#414040" stop-opacity="1"/>
			<stop offset="1" stop-color="#595858" stop-opacity="1"/>
		</linearGradient>
		<linearGradient id="grad0-63" x1="0" y1="0" x2="1" y2="0" gradientTransform="rotate(139.6858998395 0.5 0.5)">
			<stop offset="0" stop-color="#555454" stop-opacity="1"/>
			<stop offset="0.15" stop-color="#807f7f" stop-opacity="1"/>
			<stop offset="0.25" stop-color="#9f9f9f" stop-opacity="1"/>
			<stop offset="0.44" stop-color="#626161" stop-opacity="1"/>
			<stop offset="0.6" stop-color="#565656" stop-opacity="1"/>
			<stop offset="0.8" stop-color="#484747" stop-opacity="1"/>
			<stop offset="0.97" stop-color="#414040" stop-opacity="1"/>
			<stop offset="1" stop-color="#595858" stop-opacity="1"/>
		</linearGradient>
		<linearGradient id="grad0-67" x1="0" y1="0" x2="1" y2="0" gradientTransform="rotate(140.19442890773 0.5 0.5)">
			<stop offset="0" stop-color="#555454" stop-opacity="1"/>
			<stop offset="0.15" stop-color="#807f7f" stop-opacity="1"/>
			<stop offset="0.25" stop-color="#9f9f9f" stop-opacity="1"/>
			<stop offset="0.44" stop-color="#626161" stop-opacity="1"/>
			<stop offset="0.6" stop-color="#565656" stop-opacity="1"/>
			<stop offset="0.8" stop-color="#484747" stop-opacity="1"/>
			<stop offset="0.97" stop-color="#414040" stop-opacity="1"/>
			<stop offset="1" stop-color="#595858" stop-opacity="1"/>
		</linearGradient>
		<linearGradient id="grad0-77" x1="0" y1="0" x2="1" y2="0" gradientTransform="rotate(135.45113854679 0.5 0.5)">
			<stop offset="0" stop-color="#555454" stop-opacity="1"/>
			<stop offset="0.15" stop-color="#807f7f" stop-opacity="1"/>
			<stop offset="0.25" stop-color="#9f9f9f" stop-opacity="1"/>
			<stop offset="0.44" stop-color="#626161" stop-opacity="1"/>
			<stop offset="0.6" stop-color="#565656" stop-opacity="1"/>
			<stop offset="0.8" stop-color="#484747" stop-opacity="1"/>
			<stop offset="0.97" stop-color="#414040" stop-opacity="1"/>
			<stop offset="1" stop-color="#595858" stop-opacity="1"/>
		</linearGradient>
		<linearGradient id="grad0-84" x1="0" y1="0" x2="1" y2="0" gradientTransform="rotate(139.76364169073 0.5 0.5)">
			<stop offset="0" stop-color="#555454" stop-opacity="1"/>
			<stop offset="0.15" stop-color="#807f7f" stop-opacity="1"/>
			<stop offset="0.25" stop-color="#9f9f9f" stop-opacity="1"/>
			<stop offset="0.44" stop-color="#626161" stop-opacity="1"/>
			<stop offset="0.6" stop-color="#565656" stop-opacity="1"/>
			<stop offset="0.8" stop-color="#484747" stop-opacity="1"/>
			<stop offset="0.97" stop-color="#414040" stop-opacity="1"/>
			<stop offset="1" stop-color="#595858" stop-opacity="1"/>
		</linearGradient>
		<linearGradient id="grad0-88" x1="0" y1="0" x2="1" y2="0" gradientTransform="rotate(139.6858998395 0.5 0.5)">
			<stop offset="0" stop-color="#555454" stop-opacity="1"/>
			<stop offset="0.15" stop-color="#807f7f" stop-opacity="1"/>
			<stop offset="0.25" stop-color="#9f9f9f" stop-opacity="1"/>
			<stop offset="0.44" stop-color="#626161" stop-opacity="1"/>
			<stop offset="0.6" stop-color="#565656" stop-opacity="1"/>
			<stop offset="0.8" stop-color="#484747" stop-opacity="1"/>
			<stop offset="0.97" stop-color="#414040" stop-opacity="1"/>
			<stop offset="1" stop-color="#595858" stop-opacity="1"/>
		</linearGradient>
		<linearGradient id="grad0-92" x1="0" y1="0" x2="1" y2="0" gradientTransform="rotate(139.08561677997 0.5 0.5)">
			<stop offset="0" stop-color="#555454" stop-opacity="1"/>
			<stop offset="0.15" stop-color="#807f7f" stop-opacity="1"/>
			<stop offset="0.25" stop-color="#9f9f9f" stop-opacity="1"/>
			<stop offset="0.44" stop-color="#626161" stop-opacity="1"/>
			<stop offset="0.6" stop-color="#565656" stop-opacity="1"/>
			<stop offset="0.8" stop-color="#484747" stop-opacity="1"/>
			<stop offset="0.97" stop-color="#414040" stop-opacity="1"/>
			<stop offset="1" stop-color="#595858" stop-opacity="1"/>
		</linearGradient>
		<linearGradient id="grad0-96" x1="0" y1="0" x2="1" y2="0" gradientTransform="rotate(136.46880071439 0.5 0.5)">
			<stop offset="0" stop-color="#555454" stop-opacity="1"/>
			<stop offset="0.15" stop-color="#807f7f" stop-opacity="1"/>
			<stop offset="0.25" stop-color="#9f9f9f" stop-opacity="1"/>
			<stop offset="0.44" stop-color="#626161" stop-opacity="1"/>
			<stop offset="0.6" stop-color="#565656" stop-opacity="1"/>
			<stop offset="0.8" stop-color="#484747" stop-opacity="1"/>
			<stop offset="0.97" stop-color="#414040" stop-opacity="1"/>
			<stop offset="1" stop-color="#595858" stop-opacity="1"/>
		</linearGradient>
		<linearGradient id="grad0-115" x1="0" y1="0" x2="1" y2="0" gradientTransform="rotate(140.06361685303 0.5 0.5)">
			<stop offset="0" stop-color="#555454" stop-opacity="1"/>
			<stop offset="0.15" stop-color="#807f7f" stop-opacity="1"/>
			<stop offset="0.25" stop-color="#9f9f9f" stop-opacity="1"/>
			<stop offset="0.44" stop-color="#626161" stop-opacity="1"/>
			<stop offset="0.6" stop-color="#565656" stop-opacity="1"/>
			<stop offset="0.8" stop-color="#484747" stop-opacity="1"/>
			<stop offset="0.97" stop-color="#414040" stop-opacity="1"/>
			<stop offset="1" stop-color="#595858" stop-opacity="1"/>
		</linearGradient>
		<linearGradient id="grad0-122" x1="0" y1="0" x2="1" y2="0" gradientTransform="rotate(139.26789330029 0.5 0.5)">
			<stop offset="0" stop-color="#555454" stop-opacity="1"/>
			<stop offset="0.15" stop-color="#807f7f" stop-opacity="1"/>
			<stop offset="0.25" stop-color="#9f9f9f" stop-opacity="1"/>
			<stop offset="0.44" stop-color="#626161" stop-opacity="1"/>
			<stop offset="0.6" stop-color="#565656" stop-opacity="1"/>
			<stop offset="0.8" stop-color="#484747" stop-opacity="1"/>
			<stop offset="0.97" stop-color="#414040" stop-opacity="1"/>
			<stop offset="1" stop-color="#595858" stop-opacity="1"/>
		</linearGradient>
		<linearGradient id="grad0-129" x1="0" y1="0" x2="1" y2="0" gradientTransform="rotate(136.14119925559 0.5 0.5)">
			<stop offset="0" stop-color="#555454" stop-opacity="1"/>
			<stop offset="0.15" stop-color="#807f7f" stop-opacity="1"/>
			<stop offset="0.25" stop-color="#9f9f9f" stop-opacity="1"/>
			<stop offset="0.44" stop-color="#626161" stop-opacity="1"/>
			<stop offset="0.6" stop-color="#565656" stop-opacity="1"/>
			<stop offset="0.8" stop-color="#484747" stop-opacity="1"/>
			<stop offset="0.97" stop-color="#414040" stop-opacity="1"/>
			<stop offset="1" stop-color="#595858" stop-opacity="1"/>
		</linearGradient>
		<linearGradient id="grad0-133" x1="0" y1="0" x2="1" y2="0" gradientTransform="rotate(138.69138598645 0.5 0.5)">
			<stop offset="0" stop-color="#555454" stop-opacity="1"/>
			<stop offset="0.15" stop-color="#807f7f" stop-opacity="1"/>
			<stop offset="0.25" stop-color="#9f9f9f" stop-opacity="1"/>
			<stop offset="0.44" stop-color="#626161" stop-opacity="1"/>
			<stop offset="0.6" stop-color="#565656" stop-opacity="1"/>
			<stop offset="0.8" stop-color="#484747" stop-opacity="1"/>
			<stop offset="0.97" stop-color="#414040" stop-opacity="1"/>
			<stop offset="1" stop-color="#595858" stop-opacity="1"/>
		</linearGradient>
		<linearGradient id="grad0-140" x1="0" y1="0" x2="1" y2="0" gradientTransform="rotate(142.80791767406 0.5 0.5)">
			<stop offset="0" stop-color="#555454" stop-opacity="1"/>
			<stop offset="0.15" stop-color="#807f7f" stop-opacity="1"/>
			<stop offset="0.25" stop-color="#9f9f9f" stop-opacity="1"/>
			<stop offset="0.44" stop-color="#626161" stop-opacity="1"/>
			<stop offset="0.6" stop-color="#565656" stop-opacity="1"/>
			<stop offset="0.8" stop-color="#484747" stop-opacity="1"/>
			<stop offset="0.97" stop-color="#414040" stop-opacity="1"/>
			<stop offset="1" stop-color="#595858" stop-opacity="1"/>
		</linearGradient>
		<linearGradient id="grad0-168" x1="0" y1="0" x2="1" y2="0" gradientTransform="rotate(138.69138598645 0.5 0.5)">
			<stop offset="0" stop-color="#555454" stop-opacity="1"/>
			<stop offset="0.15" stop-color="#807f7f" stop-opacity="1"/>
			<stop offset="0.25" stop-color="#9f9f9f" stop-opacity="1"/>
			<stop offset="0.44" stop-color="#626161" stop-opacity="1"/>
			<stop offset="0.6" stop-color="#565656" stop-opacity="1"/>
			<stop offset="0.8" stop-color="#484747" stop-opacity="1"/>
			<stop offset="0.97" stop-color="#414040" stop-opacity="1"/>
			<stop offset="1" stop-color="#595858" stop-opacity="1"/>
		</linearGradient>
	</defs>
	<g v:mID="0" v:index="1" v:groupContext="foregroundPage">
		<title>页-1</title>
		<v:pageProperties v:drawingScale="0.0393701" v:pageScale="0.0393701" v:drawingUnits="24" v:shadowOffsetX="8.50394"
				v:shadowOffsetY="-8.50394"/>
		<g id="group3680-1" transform="translate(0.75,-0.75)" v:mID="3680" v:groupContext="group">
			<title>水槽2</title>
			<g id="shape3681-2" v:mID="3681" v:groupContext="shape">
				<title>shape1</title>
				<path d="M0 9.08 C0 9.08 0 1.5 17.1 1.5 C34.2 1.5 34.5 9.08 34.5 9.08 L34.5 123.38 C34.5 123.38 33.97 130.88 17.17
							 130.88 C0.37 130.88 0 123.38 0 123.38 L0 9.08 Z" class="st1"/>
			</g>
			<g id="shape3682-6" v:mID="3682" v:groupContext="shape" transform="translate(0.03,-8.085)">
				<title>shape2</title>
				<path d="M0 130.05 L34.42 130.05 L34.42 130.88 L0 130.88 L0 130.05 Z" class="st2"/>
			</g>
			<g id="shape3683-10" v:mID="3683" v:groupContext="shape" transform="translate(0.03,-120.93)">
				<title>shape3</title>
				<path d="M0 130.05 L34.42 130.05 L34.42 130.88 L0 130.88 L0 130.05 Z" class="st2"/>
			</g>
			<g id="shape3684-13" v:mID="3684" v:groupContext="shape" transform="translate(3.0825,-9.345)">
				<title>shape4</title>
				<path d="M7.2 23.4 C7.2 23.4 14.93 21.75 19.5 23.4 L24.83 27.07 L27.75 73.57 L25.58 124.43 L22.2 128.63 L18.3 127.65
							 C18.3 127.65 13.73 129.75 11.1 130.35 C8.4 130.88 6.98 129.75 6.98 129.75 L2.18 126.53 L0 95.1 L0.98
							 28.95 L7.2 23.4 Z" class="st3"/>
			</g>
			<g id="shape3685-15" v:mID="3685" v:groupContext="shape" transform="translate(11.5875,-109.29)">
				<title>shape5</title>
				<path d="M0 129.83 C0 129.23 0.6 128.78 1.35 128.78 C2.1 128.78 2.7 129.23 2.7 129.83 C2.7 130.43 2.1 130.88 1.35
							 130.88 C0.6 130.88 0 130.43 0 129.83 Z" class="st4"/>
			</g>
			<g id="shape3686-19" v:mID="3686" v:groupContext="shape" transform="translate(9.78,-104.617)">
				<title>shape6</title>
				<path d="M0 129.98 C0 129.45 0.52 129.08 1.12 129.08 C1.8 129.08 2.32 129.45 2.32 129.98 C2.32 130.5 1.8 130.88 1.12
							 130.88 C0.52 130.88 0 130.5 0 129.98 Z" class="st5"/>
			</g>
			<g id="shape3687-23" v:mID="3687" v:groupContext="shape" transform="translate(10.095,-98.5275)">
				<title>shape7</title>
				<path d="M0 129.75 C0 129.15 0.6 128.63 1.43 128.63 C2.25 128.63 2.85 129.15 2.85 129.75 C2.85 130.43 2.25 130.88
							 1.43 130.88 C0.6 130.88 0 130.43 0 129.75 Z" class="st6"/>
			</g>
			<g id="shape3688-27" v:mID="3688" v:groupContext="shape" transform="translate(11.1825,-91.6125)">
				<title>shape8</title>
				<path d="M0 129.98 C0 129.45 0.52 129.08 1.12 129.08 C1.8 129.08 2.32 129.45 2.32 129.98 C2.32 130.5 1.8 130.88 1.12
							 130.88 C0.52 130.88 0 130.5 0 129.98 Z" class="st5"/>
			</g>
			<g id="shape3689-30" v:mID="3689" v:groupContext="shape" transform="translate(5.2575,-88.6125)">
				<title>shape9</title>
				<path d="M0 129.6 C0 128.85 0.75 128.33 1.65 128.33 C2.55 128.33 3.3 128.85 3.3 129.6 C3.3 130.35 2.55 130.88 1.65
							 130.88 C0.75 130.88 0 130.35 0 129.6 Z" class="st7"/>
			</g>
			<g id="shape3690-34" v:mID="3690" v:groupContext="shape" transform="translate(21.1275,-101.228)">
				<title>shape10</title>
				<path d="M0 129.98 C0 129.45 0.52 129.08 1.12 129.08 C1.8 129.08 2.32 129.45 2.32 129.98 C2.32 130.5 1.8 130.88 1.12
							 130.88 C0.52 130.88 0 130.5 0 129.98 Z" class="st5"/>
			</g>
			<g id="shape3691-37" v:mID="3691" v:groupContext="shape" transform="translate(16.92,-106.283)">
				<title>shape11</title>
				<path d="M0 129.83 C0 129.23 0.6 128.78 1.35 128.78 C2.1 128.78 2.7 129.23 2.7 129.83 C2.7 130.43 2.1 130.88 1.35
							 130.88 C0.6 130.88 0 130.43 0 129.83 Z" class="st8"/>
			</g>
			<g id="shape3692-41" v:mID="3692" v:groupContext="shape" transform="translate(18.0675,-87.63)">
				<title>shape12</title>
				<path d="M0 129.38 C0 128.63 0.82 127.95 1.8 127.95 C2.85 127.95 3.67 128.63 3.67 129.38 C3.67 130.2 2.85 130.88
							 1.8 130.88 C0.82 130.88 0 130.2 0 129.38 Z" class="st9"/>
			</g>
			<g id="shape3693-45" v:mID="3693" v:groupContext="shape" transform="translate(4.9425,-79.14)">
				<title>shape13</title>
				<path d="M0 129.6 C0 128.85 0.75 128.25 1.65 128.25 C2.55 128.25 3.3 128.85 3.3 129.6 C3.3 130.28 2.55 130.88 1.65
							 130.88 C0.75 130.88 0 130.28 0 129.6 Z" class="st10"/>
			</g>
			<g id="shape3694-49" v:mID="3694" v:groupContext="shape" transform="translate(16.155,-72.465)">
				<title>shape14</title>
				<path d="M0 129.6 C0 128.93 0.75 128.33 1.65 128.33 C2.55 128.33 3.3 128.93 3.3 129.6 C3.3 130.35 2.55 130.88 1.65
							 130.88 C0.75 130.88 0 130.35 0 129.6 Z" class="st7"/>
			</g>
			<g id="shape3695-52" v:mID="3695" v:groupContext="shape" transform="translate(13.08,-66.45)">
				<title>shape15</title>
				<path d="M0 129.45 C0 128.7 0.75 128.1 1.72 128.1 C2.7 128.1 3.45 128.7 3.45 129.45 C3.45 130.2 2.7 130.88 1.72 130.88
							 C0.75 130.88 0 130.2 0 129.45 Z" class="st11"/>
			</g>
			<g id="shape3696-56" v:mID="3696" v:groupContext="shape" transform="translate(9.0075,-58.44)">
				<title>shape16</title>
				<path d="M0 129.75 C0 129.15 0.67 128.63 1.42 128.63 C2.25 128.63 2.92 129.15 2.92 129.75 C2.92 130.43 2.25 130.88
							 1.42 130.88 C0.67 130.88 0 130.43 0 129.75 Z" class="st12"/>
			</g>
			<g id="shape3697-60" v:mID="3697" v:groupContext="shape" transform="translate(9.4125,-75.045)">
				<title>shape17</title>
				<path d="M0 130.05 C0 129.6 0.45 129.23 1.05 129.23 C1.65 129.23 2.1 129.6 2.1 130.05 C2.1 130.5 1.65 130.88 1.05
							 130.88 C0.45 130.88 0 130.5 0 130.05 Z" class="st13"/>
			</g>
			<g id="shape3698-64" v:mID="3698" v:groupContext="shape" transform="translate(18.6825,-79.305)">
				<title>shape18</title>
				<path d="M0 130.13 C0 129.68 0.38 129.38 0.9 129.38 C1.43 129.38 1.88 129.68 1.88 130.13 C1.88 130.58 1.43 130.88
							 0.9 130.88 C0.38 130.88 0 130.58 0 130.13 Z" class="st14"/>
			</g>
			<g id="shape3699-68" v:mID="3699" v:groupContext="shape" transform="translate(6.2625,-67.7325)">
				<title>shape19</title>
				<path d="M0 129.83 C0 129.23 0.67 128.78 1.35 128.78 C2.1 128.78 2.7 129.23 2.7 129.83 C2.7 130.43 2.1 130.88 1.35
							 130.88 C0.67 130.88 0 130.43 0 129.83 Z" class="st4"/>
			</g>
			<g id="shape3700-71" v:mID="3700" v:groupContext="shape" transform="translate(14.7975,-56.3025)">
				<title>shape20</title>
				<path d="M0 129.83 C0 129.23 0.6 128.78 1.35 128.78 C2.1 128.78 2.7 129.23 2.7 129.83 C2.7 130.43 2.1 130.88 1.35
							 130.88 C0.6 130.88 0 130.43 0 129.83 Z" class="st4"/>
			</g>
			<g id="shape3701-74" v:mID="3701" v:groupContext="shape" transform="translate(20.7375,-46.8525)">
				<title>shape21</title>
				<path d="M0 129.68 C0 129 0.75 128.48 1.57 128.48 C2.4 128.48 3.15 129 3.15 129.68 C3.15 130.35 2.4 130.88 1.57 130.88
							 C0.75 130.88 0 130.35 0 129.68 Z" class="st15"/>
			</g>
			<g id="shape3702-78" v:mID="3702" v:groupContext="shape" transform="translate(4.44,-42.5475)">
				<title>shape22</title>
				<path d="M0 129.83 C0 129.23 0.6 128.78 1.35 128.78 C2.1 128.78 2.7 129.23 2.7 129.83 C2.7 130.43 2.1 130.88 1.35
							 130.88 C0.6 130.88 0 130.43 0 129.83 Z" class="st4"/>
			</g>
			<g id="shape3703-81" v:mID="3703" v:groupContext="shape" transform="translate(12.6675,-37.5525)">
				<title>shape23</title>
				<path d="M0 129.9 C0 129.38 0.53 128.93 1.28 128.93 C1.95 128.93 2.48 129.38 2.48 129.9 C2.48 130.43 1.95 130.88
							 1.28 130.88 C0.53 130.88 0 130.43 0 129.9 Z" class="st16"/>
			</g>
			<g id="shape3704-85" v:mID="3704" v:groupContext="shape" transform="translate(8.0625,-36.315)">
				<title>shape24</title>
				<path d="M0 130.05 C0 129.6 0.45 129.23 1.05 129.23 C1.65 129.23 2.1 129.6 2.1 130.05 C2.1 130.5 1.65 130.88 1.05
							 130.88 C0.45 130.88 0 130.5 0 130.05 Z" class="st17"/>
			</g>
			<g id="shape3705-89" v:mID="3705" v:groupContext="shape" transform="translate(16.155,-29.1375)">
				<title>shape25</title>
				<path d="M0 130.13 C0 129.68 0.45 129.38 0.98 129.38 C1.5 129.38 1.95 129.68 1.95 130.13 C1.95 130.5 1.5 130.88 0.98
							 130.88 C0.45 130.88 0 130.5 0 130.13 Z" class="st18"/>
			</g>
			<g id="shape3706-93" v:mID="3706" v:groupContext="shape" transform="translate(22.53,-28.71)">
				<title>shape26</title>
				<path d="M0 129.75 C0 129.15 0.6 128.63 1.43 128.63 C2.25 128.63 2.85 129.15 2.85 129.75 C2.85 130.43 2.25 130.88
							 1.43 130.88 C0.6 130.88 0 130.43 0 129.75 Z" class="st19"/>
			</g>
			<g id="shape3707-97" v:mID="3707" v:groupContext="shape" transform="translate(22.35,-24.435)">
				<title>shape27</title>
				<path d="M0 129.9 C0 129.38 0.53 128.93 1.2 128.93 C1.95 128.93 2.48 129.38 2.48 129.9 C2.48 130.43 1.95 130.88 1.2
							 130.88 C0.53 130.88 0 130.43 0 129.9 Z" class="st16"/>
			</g>
			<g id="shape3708-100" v:mID="3708" v:groupContext="shape" transform="translate(11.1375,-23.9625)">
				<title>shape28</title>
				<path d="M0 129.83 C0 129.23 0.6 128.78 1.35 128.78 C2.1 128.78 2.7 129.23 2.7 129.83 C2.7 130.43 2.1 130.88 1.35
							 130.88 C0.6 130.88 0 130.43 0 129.83 Z" class="st4"/>
			</g>
			<g id="shape3709-103" v:mID="3709" v:groupContext="shape" transform="translate(7.11,-21.075)">
				<title>shape29</title>
				<path d="M0 129.83 C0 129.23 0.6 128.78 1.35 128.78 C2.02 128.78 2.7 129.23 2.7 129.83 C2.7 130.43 2.02 130.88 1.35
							 130.88 C0.6 130.88 0 130.43 0 129.83 Z" class="st4"/>
			</g>
			<g id="shape3710-106" v:mID="3710" v:groupContext="shape" transform="translate(12.0525,-17.4075)">
				<title>shape30</title>
				<path d="M0 129.98 C0 129.45 0.52 129.08 1.2 129.08 C1.8 129.08 2.32 129.45 2.32 129.98 C2.32 130.5 1.8 130.88 1.2
							 130.88 C0.52 130.88 0 130.5 0 129.98 Z" class="st5"/>
			</g>
			<g id="shape3711-109" v:mID="3711" v:groupContext="shape" transform="translate(10.545,-12.69)">
				<title>shape31</title>
				<path d="M0 129.98 C0 129.45 0.52 129.08 1.12 129.08 C1.8 129.08 2.32 129.45 2.32 129.98 C2.32 130.5 1.8 130.88 1.12
							 130.88 C0.52 130.88 0 130.5 0 129.98 Z" class="st5"/>
			</g>
			<g id="shape3712-112" v:mID="3712" v:groupContext="shape" transform="translate(17.5125,-13.4775)">
				<title>shape32</title>
				<path d="M0 129.23 C0 128.33 0.9 127.65 2.03 127.65 C3.15 127.65 4.05 128.33 4.05 129.23 C4.05 130.13 3.15 130.88
							 2.03 130.88 C0.9 130.88 0 130.13 0 129.23 Z" class="st20"/>
			</g>
			<g id="shape3713-116" v:mID="3713" v:groupContext="shape" transform="translate(24.6525,-16.8075)">
				<title>shape33</title>
				<path d="M0 130.05 C0 129.6 0.45 129.23 1.05 129.23 C1.65 129.23 2.1 129.6 2.1 130.05 C2.1 130.5 1.65 130.88 1.05
							 130.88 C0.45 130.88 0 130.5 0 130.05 Z" class="st17"/>
			</g>
			<g id="shape3714-119" v:mID="3714" v:groupContext="shape" transform="translate(17.07,-19.5525)">
				<title>shape34</title>
				<path d="M0 129.98 C0 129.45 0.52 129.08 1.2 129.08 C1.8 129.08 2.32 129.45 2.32 129.98 C2.32 130.5 1.8 130.88 1.2
							 130.88 C0.52 130.88 0 130.5 0 129.98 Z" class="st21"/>
			</g>
			<g id="shape3715-123" v:mID="3715" v:groupContext="shape" transform="translate(8.6475,-46.9725)">
				<title>shape35</title>
				<path d="M0 129.83 C0 129.23 0.6 128.78 1.35 128.78 C2.1 128.78 2.7 129.23 2.7 129.83 C2.7 130.43 2.1 130.88 1.35
							 130.88 C0.6 130.88 0 130.43 0 129.83 Z" class="st4"/>
			</g>
			<g id="shape3716-126" v:mID="3716" v:groupContext="shape" transform="translate(25.605,-37.3875)">
				<title>shape36</title>
				<path d="M0 129.68 C0 129 0.68 128.48 1.5 128.48 C2.4 128.48 3.08 129 3.08 129.68 C3.08 130.35 2.4 130.88 1.5 130.88
							 C0.68 130.88 0 130.35 0 129.68 Z" class="st22"/>
			</g>
			<g id="shape3717-130" v:mID="3717" v:groupContext="shape" transform="translate(14.175,-44.85)">
				<title>shape37</title>
				<path d="M0 130.05 C0 129.6 0.53 129.23 1.13 129.23 C1.65 129.23 2.18 129.6 2.18 130.05 C2.18 130.5 1.65 130.88 1.13
							 130.88 C0.53 130.88 0 130.5 0 130.05 Z" class="st23"/>
			</g>
			<g id="shape3718-134" v:mID="3718" v:groupContext="shape" transform="translate(22.86,-55.995)">
				<title>shape38</title>
				<path d="M0 129.98 C0 129.45 0.52 129.08 1.2 129.08 C1.8 129.08 2.32 129.45 2.32 129.98 C2.32 130.5 1.8 130.88 1.2
							 130.88 C0.52 130.88 0 130.5 0 129.98 Z" class="st5"/>
			</g>
			<g id="shape3719-137" v:mID="3719" v:groupContext="shape" transform="translate(25.425,-63.6)">
				<title>shape39</title>
				<path d="M0 129.6 C0 128.85 0.75 128.33 1.65 128.33 C2.55 128.33 3.22 128.85 3.22 129.6 C3.22 130.28 2.55 130.88
							 1.65 130.88 C0.75 130.88 0 130.28 0 129.6 Z" class="st24"/>
			</g>
			<g id="shape3720-141" v:mID="3720" v:groupContext="shape" transform="translate(23.115,-70.4775)">
				<title>shape40</title>
				<path d="M0 129.75 C0 129.15 0.6 128.63 1.43 128.63 C2.25 128.63 2.85 129.15 2.85 129.75 C2.85 130.43 2.25 130.88
							 1.43 130.88 C0.6 130.88 0 130.43 0 129.75 Z" class="st19"/>
			</g>
			<g id="shape3721-144" v:mID="3721" v:groupContext="shape" transform="translate(19.05,-67.8675)">
				<title>shape41</title>
				<path d="M0 130.13 C0 129.68 0.45 129.38 0.98 129.38 C1.5 129.38 1.95 129.68 1.95 130.13 C1.95 130.58 1.5 130.88
							 0.98 130.88 C0.45 130.88 0 130.58 0 130.13 Z" class="st18"/>
			</g>
			<g id="shape3722-147" v:mID="3722" v:groupContext="shape" transform="translate(22.1175,-75.6375)">
				<title>shape42</title>
				<path d="M0 129.9 C0 129.38 0.53 128.93 1.28 128.93 C1.95 128.93 2.48 129.38 2.48 129.9 C2.48 130.43 1.95 130.88
							 1.28 130.88 C0.53 130.88 0 130.43 0 129.9 Z" class="st16"/>
			</g>
			<g id="shape3723-150" v:mID="3723" v:groupContext="shape" transform="translate(22.71,-95.3025)">
				<title>shape43</title>
				<path d="M0 130.05 C0 129.6 0.45 129.23 1.05 129.23 C1.65 129.23 2.1 129.6 2.1 130.05 C2.1 130.5 1.65 130.88 1.05
							 130.88 C0.45 130.88 0 130.5 0 130.05 Z" class="st17"/>
			</g>
			<g id="shape3724-153" v:mID="3724" v:groupContext="shape" transform="translate(15.975,-97.9275)">
				<title>shape44</title>
				<path d="M0 129.83 C0 129.23 0.6 128.78 1.35 128.78 C2.1 128.78 2.7 129.23 2.7 129.83 C2.7 130.43 2.1 130.88 1.35
							 130.88 C0.6 130.88 0 130.43 0 129.83 Z" class="st8"/>
			</g>
			<g id="shape3725-156" v:mID="3725" v:groupContext="shape" transform="translate(6.1125,-95.4675)">
				<title>shape45</title>
				<path d="M0 129.9 C0 129.38 0.53 128.93 1.28 128.93 C1.95 128.93 2.48 129.38 2.48 129.9 C2.48 130.43 1.95 130.88
							 1.28 130.88 C0.53 130.88 0 130.43 0 129.9 Z" class="st16"/>
			</g>
			<g id="shape3726-159" v:mID="3726" v:groupContext="shape" transform="translate(19.05,-112.005)">
				<title>shape46</title>
				<path d="M0 129.83 C0 129.23 0.6 128.78 1.35 128.78 C2.1 128.78 2.7 129.23 2.7 129.83 C2.7 130.43 2.1 130.88 1.35
							 130.88 C0.6 130.88 0 130.43 0 129.83 Z" class="st8"/>
			</g>
			<g id="shape3727-162" v:mID="3727" v:groupContext="shape" transform="translate(24.6525,-104.767)">
				<title>shape47</title>
				<path d="M0 130.05 C0 129.6 0.45 129.23 1.05 129.23 C1.65 129.23 2.1 129.6 2.1 130.05 C2.1 130.5 1.65 130.88 1.05
							 130.88 C0.45 130.88 0 130.5 0 130.05 Z" class="st17"/>
			</g>
			<g id="shape3728-165" v:mID="3728" v:groupContext="shape" transform="translate(5.4975,-109.343)">
				<title>shape48</title>
				<path d="M0 130.05 C0 129.6 0.53 129.23 1.13 129.23 C1.65 129.23 2.18 129.6 2.18 130.05 C2.18 130.5 1.65 130.88 1.13
							 130.88 C0.53 130.88 0 130.5 0 130.05 Z" class="st25"/>
			</g>
			<g id="shape3729-169" v:mID="3729" v:groupContext="shape" transform="translate(25.245,-81.285)">
				<title>shape49</title>
				<path d="M0 129.9 C0 129.38 0.53 128.93 1.2 128.93 C1.95 128.93 2.48 129.38 2.48 129.9 C2.48 130.43 1.95 130.88 1.2
							 130.88 C0.53 130.88 0 130.43 0 129.9 Z" class="st16"/>
			</g>
			<g id="shape3730-172" v:mID="3730" v:groupContext="shape" transform="translate(12.6675,-83.7375)">
				<title>shape50</title>
				<path d="M0 129.83 C0 129.23 0.6 128.78 1.35 128.78 C2.1 128.78 2.7 129.23 2.7 129.83 C2.7 130.43 2.1 130.88 1.35
							 130.88 C0.6 130.88 0 130.43 0 129.83 Z" class="st4"/>
			</g>
			<g id="shape3731-175" v:mID="3731" v:groupContext="shape" transform="translate(6.885,-30.0675)">
				<title>shape51</title>
				<path d="M0 129.75 C0 129.15 0.67 128.63 1.42 128.63 C2.25 128.63 2.92 129.15 2.92 129.75 C2.92 130.35 2.25 130.88
							 1.42 130.88 C0.67 130.88 0 130.35 0 129.75 Z" class="st12"/>
			</g>
			<g id="shape3732-178" v:mID="3732" v:groupContext="shape" transform="translate(19.05,-37.86)">
				<title>shape52</title>
				<path d="M0 129.75 C0 129.15 0.6 128.63 1.43 128.63 C2.25 128.63 2.85 129.15 2.85 129.75 C2.85 130.43 2.25 130.88
							 1.43 130.88 C0.6 130.88 0 130.43 0 129.75 Z" class="st19"/>
			</g>
			<g id="shape3733-181" v:mID="3733" v:groupContext="shape" transform="translate(7.29,-54.1725)">
				<title>shape53</title>
				<path d="M0 129.6 C0 128.93 0.67 128.33 1.65 128.33 C2.55 128.33 3.22 128.93 3.22 129.6 C3.22 130.35 2.55 130.88
							 1.65 130.88 C0.67 130.88 0 130.35 0 129.6 Z" class="st24"/>
			</g>
			<g id="shape3734-184" v:mID="3734" v:groupContext="shape" transform="translate(24.8325,-85.8075)">
				<title>shape54</title>
				<path d="M0 129.6 C0 128.93 0.75 128.33 1.65 128.33 C2.55 128.33 3.3 128.93 3.3 129.6 C3.3 130.35 2.55 130.88 1.65
							 130.88 C0.75 130.88 0 130.35 0 129.6 Z" class="st7"/>
			</g>
		</g>
	</g>
</svg>
