<?xml version="1.0" encoding="UTF-8" standalone="no"?>
<!DOCTYPE svg PUBLIC "-//W3C//DTD SVG 1.1//EN" "http://www.w3.org/Graphics/SVG/1.1/DTD/svg11.dtd">
<!-- 由 Microsoft Visio, SVG Export 生成 化学73.svg 页-1 -->
<svg xmlns="http://www.w3.org/2000/svg" xmlns:xlink="http://www.w3.org/1999/xlink" xmlns:ev="http://www.w3.org/2001/xml-events"
		xmlns:v="http://schemas.microsoft.com/visio/2003/SVGExtensions/" width="0.993542in" height="1.86406in"
		viewBox="0 0 71.535 134.213" xml:space="preserve" color-interpolation-filters="sRGB" class="st4">
	<v:documentProperties v:langID="2052" v:metric="true" v:viewMarkup="false"/>

	<style type="text/css">
	<![CDATA[
		.st1 {fill:url(#grad0-5);stroke:none;stroke-linecap:butt;stroke-width:0.75}
		.st2 {fill:#8b748d;stroke:none;stroke-linecap:butt;stroke-width:0.75}
		.st3 {fill:url(#grad0-20);stroke:none;stroke-linecap:butt;stroke-width:0.75}
		.st4 {fill:none;fill-rule:evenodd;font-size:12px;overflow:visible;stroke-linecap:square;stroke-miterlimit:3}
	]]>
	</style>

	<defs id="Patterns_And_Gradients">
		<linearGradient id="grad0-5" x1="0" y1="0" x2="1" y2="0" gradientTransform="rotate(-180 0.5 0.5)">
			<stop offset="0" stop-color="#8b748d" stop-opacity="1"/>
			<stop offset="0.03" stop-color="#d3bcd5" stop-opacity="1"/>
			<stop offset="0.08" stop-color="#b698b8" stop-opacity="1"/>
			<stop offset="0.64" stop-color="#b395b5" stop-opacity="1"/>
			<stop offset="0.95" stop-color="#af92b1" stop-opacity="1"/>
			<stop offset="1" stop-color="#816b83" stop-opacity="1"/>
		</linearGradient>
		<linearGradient id="grad0-20" x1="0" y1="0" x2="1" y2="0" gradientTransform="rotate(90 0.5 0.5)">
			<stop offset="0" stop-color="#a68a9b" stop-opacity="1"/>
			<stop offset="0.03" stop-color="#efd2e3" stop-opacity="1"/>
			<stop offset="0.08" stop-color="#d8b4ca" stop-opacity="1"/>
			<stop offset="0.64" stop-color="#d5b1c6" stop-opacity="1"/>
			<stop offset="0.95" stop-color="#d0adc2" stop-opacity="1"/>
			<stop offset="1" stop-color="#9a808f" stop-opacity="1"/>
		</linearGradient>
	</defs>
	<g v:mID="0" v:index="1" v:groupContext="foregroundPage">
		<title>页-1</title>
		<v:pageProperties v:drawingScale="0.0393701" v:pageScale="0.0393701" v:drawingUnits="24" v:shadowOffsetX="8.50394"
				v:shadowOffsetY="-8.50394"/>
		<g id="group3875-1" transform="translate(0.75,-0.75)" v:mID="3875" v:groupContext="group">
			<title>选择性催化还原反应器</title>
			<g id="shape3876-2" v:mID="3876" v:groupContext="shape" transform="translate(26.5125,-4.1775)">
				<title>shape1</title>
				<path d="M0 88.31 L41.55 88.31 L41.55 134.21 L0 134.21 L0 88.31 Z" class="st1"/>
			</g>
			<g id="shape3877-6" v:mID="3877" v:groupContext="shape" transform="translate(26.5125,-50.1075)">
				<title>shape2</title>
				<path d="M8.92 122.51 L32.62 122.51 L41.55 134.21 L0 134.21 L8.92 122.51 Z" class="st1"/>
			</g>
			<g id="shape3878-9" v:mID="3878" v:groupContext="shape" transform="translate(-1.71863E-13,-42.3375)">
				<title>shape3</title>
				<path d="M0 43.84 L59.17 43.84 L59.17 114.71 L35.47 114.71 L35.47 62.14 L13.8 62.14 L13.87 134.21 L0 133.91 L0 43.84
							 Z" class="st1"/>
			</g>
			<g id="shape3879-12" v:mID="3879" v:groupContext="shape" transform="translate(24.585,-2.84217E-14)">
				<title>shape4</title>
				<path d="M0 130.01 L45.45 130.01 L45.45 134.21 L0 134.21 L0 130.01 Z" class="st1"/>
			</g>
			<g id="shape3880-15" v:mID="3880" v:groupContext="shape" transform="translate(36.9075,-63.7575)">
				<title>shape5</title>
				<path d="M0 84.71 L20.77 84.71 L20.77 134.21 L0 134.21 L0 84.71 Z" class="st2"/>
			</g>
			<g id="shape3881-17" v:mID="3881" v:groupContext="shape" transform="translate(37.4175,-94.02)">
				<title>shape6</title>
				<path d="M0 125.81 L19.8 125.81 L19.8 134.21 L0 134.21 L0 125.81 Z" class="st3"/>
			</g>
			<g id="shape3882-21" v:mID="3882" v:groupContext="shape" transform="translate(37.4175,-74.7)">
				<title>shape7</title>
				<path d="M0 125.81 L19.8 125.81 L19.8 134.21 L0 134.21 L0 125.81 Z" class="st3"/>
			</g>
		</g>
	</g>
</svg>
