<?xml version="1.0" encoding="UTF-8" standalone="no"?>
<!DOCTYPE svg PUBLIC "-//W3C//DTD SVG 1.1//EN" "http://www.w3.org/Graphics/SVG/1.1/DTD/svg11.dtd">
<!-- 由 Microsoft Visio, SVG Export 生成 化学.svg 页-1 -->
<svg xmlns="http://www.w3.org/2000/svg" xmlns:xlink="http://www.w3.org/1999/xlink" xmlns:ev="http://www.w3.org/2001/xml-events"
		xmlns:v="http://schemas.microsoft.com/visio/2003/SVGExtensions/" width="2.49698in" height="2.17687in"
		viewBox="0 0 179.783 156.735" xml:space="preserve" color-interpolation-filters="sRGB" class="st6">
	<v:documentProperties v:langID="2052" v:metric="true" v:viewMarkup="false"/>

	<style type="text/css">
	<![CDATA[
		.st1 {fill:url(#grad0-5);stroke:none;stroke-linecap:butt;stroke-width:0.75}
		.st2 {fill:url(#grad0-9);stroke:none;stroke-linecap:butt;stroke-width:0.75}
		.st3 {fill:url(#grad0-16);stroke:none;stroke-linecap:butt;stroke-width:0.75}
		.st4 {fill:url(#grad0-35);stroke:none;stroke-linecap:butt;stroke-width:0.75}
		.st5 {fill:url(#grad0-48);stroke:none;stroke-linecap:butt;stroke-width:0.75}
		.st6 {fill:none;fill-rule:evenodd;font-size:12px;overflow:visible;stroke-linecap:square;stroke-miterlimit:3}
	]]>
	</style>

	<defs id="Patterns_And_Gradients">
		<linearGradient id="grad0-5" x1="0" y1="0" x2="1" y2="0" gradientTransform="rotate(-180 0.5 0.5)">
			<stop offset="0" stop-color="#68727b" stop-opacity="1"/>
			<stop offset="0.15" stop-color="#98a4af" stop-opacity="1"/>
			<stop offset="0.25" stop-color="#cbd0d5" stop-opacity="1"/>
			<stop offset="0.52" stop-color="#7c8893" stop-opacity="1"/>
			<stop offset="0.69" stop-color="#6d7882" stop-opacity="1"/>
			<stop offset="1" stop-color="#565e66" stop-opacity="1"/>
		</linearGradient>
		<linearGradient id="grad0-9" x1="0" y1="0" x2="1" y2="0" gradientTransform="rotate(-180 0.5 0.5)">
			<stop offset="0" stop-color="#a1a9b3" stop-opacity="1"/>
			<stop offset="0.09" stop-color="#a3acb6" stop-opacity="1"/>
			<stop offset="0.36" stop-color="#c9d4e0" stop-opacity="1"/>
			<stop offset="0.56" stop-color="#b5bfc9" stop-opacity="1"/>
			<stop offset="0.83" stop-color="#9199a2" stop-opacity="1"/>
			<stop offset="1" stop-color="#676d74" stop-opacity="1"/>
		</linearGradient>
		<linearGradient id="grad0-16" x1="0" y1="0" x2="1" y2="0" gradientTransform="rotate(-108.61871001065 0.5 0.5)">
			<stop offset="0" stop-color="#a1a9b3" stop-opacity="1"/>
			<stop offset="0.09" stop-color="#a3acb6" stop-opacity="1"/>
			<stop offset="0.36" stop-color="#c9d4e0" stop-opacity="1"/>
			<stop offset="0.56" stop-color="#b5bfc9" stop-opacity="1"/>
			<stop offset="0.83" stop-color="#9199a2" stop-opacity="1"/>
			<stop offset="1" stop-color="#676d74" stop-opacity="1"/>
		</linearGradient>
		<linearGradient id="grad0-35" x1="0" y1="0" x2="1" y2="0" gradientTransform="rotate(90 0.5 0.5)">
			<stop offset="0" stop-color="#a1a9b3" stop-opacity="1"/>
			<stop offset="0.09" stop-color="#a3acb6" stop-opacity="1"/>
			<stop offset="0.36" stop-color="#c9d4e0" stop-opacity="1"/>
			<stop offset="0.56" stop-color="#b5bfc9" stop-opacity="1"/>
			<stop offset="0.83" stop-color="#9199a2" stop-opacity="1"/>
			<stop offset="1" stop-color="#676d74" stop-opacity="1"/>
		</linearGradient>
		<linearGradient id="grad0-48" x1="0" y1="0" x2="1" y2="0" gradientTransform="rotate(-180 0.5 0.5)">
			<stop offset="0" stop-color="#909ba9" stop-opacity="1"/>
			<stop offset="0.09" stop-color="#929dab" stop-opacity="1"/>
			<stop offset="0.36" stop-color="#b4c2d3" stop-opacity="1"/>
			<stop offset="0.56" stop-color="#a2aebe" stop-opacity="1"/>
			<stop offset="0.83" stop-color="#828c98" stop-opacity="1"/>
			<stop offset="1" stop-color="#5c636c" stop-opacity="1"/>
		</linearGradient>
	</defs>
	<g v:mID="0" v:index="1" v:groupContext="foregroundPage">
		<title>页-1</title>
		<v:pageProperties v:drawingScale="0.0393701" v:pageScale="0.0393701" v:drawingUnits="24" v:shadowOffsetX="8.50394"
				v:shadowOffsetY="-8.50394"/>
		<g id="group1828-1" transform="translate(0.75,-0.75)" v:mID="1828" v:groupContext="group">
			<title>空气洗涤器</title>
			<g id="shape1829-2" v:mID="1829" v:groupContext="shape" transform="translate(44.3775,-37.905)">
				<title>shape1</title>
				<path d="M0 155.38 L89.18 155.38 L89.18 156.73 L0 156.73 L0 155.38 Z" class="st1"/>
			</g>
			<g id="shape1830-6" v:mID="1830" v:groupContext="shape" transform="translate(80.0775,-143.362)">
				<title>shape2</title>
				<path d="M0 147.28 L17.77 147.28 L17.77 156.73 L0 156.73 L0 147.28 Z" class="st2"/>
			</g>
			<g id="shape1831-10" v:mID="1831" v:groupContext="shape" transform="translate(44.9025,-17.9925)">
				<title>shape3</title>
				<path d="M0 141.81 L89.18 141.81 L89.18 156.73 L0 156.73 L0 141.81 Z" class="st2"/>
			</g>
			<g id="shape1832-13" v:mID="1832" v:groupContext="shape" transform="translate(44.9025,-6.405)">
				<title>shape4</title>
				<path d="M89.18 145.71 C89.18 145.71 81 150.73 56.7 156.73 C56.7 156.73 32.48 156.73 32.48 156.73 C9.15 150.88 0
							 145.71 0 145.71 L89.18 145.71 Z" class="st3"/>
			</g>
			<g id="shape1833-17" v:mID="1833" v:groupContext="shape" transform="translate(77.415,-1.6125)">
				<title>shape5</title>
				<path d="M0 151.56 L24.15 151.56 L24.15 156.73 L0 156.73 L0 151.56 Z" class="st2"/>
			</g>
			<g id="shape1834-20" v:mID="1834" v:groupContext="shape" transform="translate(71.985,0)">
				<title>shape6</title>
				<path d="M0.98 154.71 L33.98 154.71 C34.58 154.71 35.03 155.16 35.03 155.68 C35.03 156.28 34.58 156.73 33.98 156.73
							 L0.98 156.73 C0.45 156.73 0 156.28 0 155.68 C0 155.16 0.45 154.71 0.98 154.71 Z" class="st2"/>
			</g>
			<g id="shape1835-23" v:mID="1835" v:groupContext="shape" transform="translate(44.9025,-17.4)">
				<title>shape7</title>
				<path d="M0 155.68 L89.18 155.68 L89.18 156.73 L0 156.73 L0 155.68 Z" class="st1"/>
			</g>
			<g id="shape1836-26" v:mID="1836" v:groupContext="shape" transform="translate(44.9025,-31.8525)">
				<title>shape8</title>
				<path d="M0 155.38 L89.18 155.38 L89.18 156.73 L0 156.73 L0 155.38 Z" class="st1"/>
			</g>
			<g id="shape1837-29" v:mID="1837" v:groupContext="shape" transform="translate(44.3775,-44.0175)">
				<title>shape9</title>
				<path d="M0 76.33 C0 76.33 0 54.66 44.48 54.81 C89.18 54.96 89.18 76.33 89.18 76.33 L89.18 156.73 L0 156.73 L0 76.33
							 Z" class="st2"/>
			</g>
			<g id="shape1838-32" v:mID="1838" v:groupContext="shape" transform="translate(2.16,-53.0475)">
				<title>shape10</title>
				<path d="M0 130.18 L42.75 130.18 C42.75 130.18 45.98 130.71 45.98 143.46 C45.98 156.21 42.75 156.73 42.75 156.73
							 L0 156.73 L0 130.18 Z" class="st4"/>
			</g>
			<g id="shape1839-36" v:mID="1839" v:groupContext="shape" transform="translate(-1.4988E-14,-50.6325)">
				<title>shape11</title>
				<path d="M1.28 125.38 C2.1 125.38 2.7 125.91 2.7 126.66 L2.7 155.46 C2.7 156.13 2.1 156.73 1.43 156.73 C0.6 156.73
							 0 156.13 0 155.46 L0 126.66 C0 125.91 0.6 125.38 1.28 125.38 Z" class="st4"/>
			</g>
			<g id="shape1840-39" v:mID="1840" v:groupContext="shape" transform="translate(176.183,-53.01) scale(-1,1)">
				<title>shape12</title>
				<path d="M0 130.18 L42.75 130.18 C42.75 130.18 45.98 130.71 45.98 143.46 C45.98 156.21 42.75 156.73 42.75 156.73
							 L0 156.73 L0 130.18 Z" class="st4"/>
			</g>
			<g id="shape1841-42" v:mID="1841" v:groupContext="shape" transform="translate(178.283,-50.61) scale(-1,1)">
				<title>shape13</title>
				<path d="M1.28 125.38 C2.1 125.38 2.7 125.91 2.7 126.66 L2.7 155.46 C2.7 156.13 2.1 156.73 1.43 156.73 C0.6 156.73
							 0 156.13 0 155.46 L0 126.66 C0 125.91 0.6 125.38 1.28 125.38 Z" class="st4"/>
			</g>
			<g id="shape1842-45" v:mID="1842" v:groupContext="shape" transform="translate(79.44,-152.01)">
				<title>shape14</title>
				<path d="M0 153.51 L19.05 153.51 L19.05 156.73 L0 156.73 L0 153.51 Z" class="st5"/>
			</g>
			<g id="shape1843-49" v:mID="1843" v:groupContext="shape" transform="translate(44.3775,-43.8975)">
				<title>shape15</title>
				<path d="M0 155.38 L89.18 155.38 L89.18 156.73 L0 156.73 L0 155.38 Z" class="st1"/>
			</g>
			<g id="shape1844-52" v:mID="1844" v:groupContext="shape" transform="translate(42.66,-32.715)">
				<title>shape16</title>
				<path d="M2.18 150.88 L91.43 150.88 C92.63 150.88 93.68 151.86 93.68 153.06 L93.68 154.56 C93.68 155.76 92.63 156.73
							 91.43 156.73 L2.18 156.73 C0.9 156.73 0 155.76 0 154.56 L0 153.06 C0 151.86 0.9 150.88 2.18 150.88 Z"
						class="st2"/>
			</g>
			<g id="shape1845-55" v:mID="1845" v:groupContext="shape" transform="translate(42.66,-38.7075)">
				<title>shape17</title>
				<path d="M2.18 150.88 L91.43 150.88 C92.63 150.88 93.68 151.86 93.68 153.06 L93.68 154.56 C93.68 155.76 92.63 156.73
							 91.43 156.73 L2.18 156.73 C0.9 156.73 0 155.76 0 154.56 L0 153.06 C0 151.86 0.9 150.88 2.18 150.88 Z"
						class="st2"/>
			</g>
		</g>
	</g>
</svg>
