<?xml version="1.0" encoding="UTF-8" standalone="no"?>
<!DOCTYPE svg PUBLIC "-//W3C//DTD SVG 1.1//EN" "http://www.w3.org/Graphics/SVG/1.1/DTD/svg11.dtd">
<!-- 由 Microsoft Visio, SVG Export 生成 化学13.svg 页-1 -->
<svg xmlns="http://www.w3.org/2000/svg" xmlns:xlink="http://www.w3.org/1999/xlink" xmlns:ev="http://www.w3.org/2001/xml-events"
		xmlns:v="http://schemas.microsoft.com/visio/2003/SVGExtensions/" width="1.54271in" height="1.47427in"
		viewBox="0 0 111.075 106.148" xml:space="preserve" color-interpolation-filters="sRGB" class="st14">
	<v:documentProperties v:langID="2052" v:metric="true" v:viewMarkup="false"/>

	<style type="text/css">
	<![CDATA[
		.st1 {fill:url(#grad0-7);stroke:none;stroke-linecap:butt;stroke-width:0.75}
		.st2 {fill:url(#grad0-11);stroke:none;stroke-linecap:butt;stroke-width:0.75}
		.st3 {fill:url(#grad0-15);stroke:none;stroke-linecap:butt;stroke-width:0.75}
		.st4 {fill:url(#grad0-30);stroke:none;stroke-linecap:butt;stroke-width:0.75}
		.st5 {fill:url(#grad0-37);stroke:none;stroke-linecap:butt;stroke-width:0.75}
		.st6 {fill:url(#grad0-82);stroke:none;stroke-linecap:butt;stroke-width:0.75}
		.st7 {fill:url(#grad0-86);stroke:none;stroke-linecap:butt;stroke-width:0.75}
		.st8 {fill:url(#grad0-115);stroke:none;stroke-linecap:butt;stroke-width:0.75}
		.st9 {fill:url(#grad0-119);stroke:none;stroke-linecap:butt;stroke-width:0.75}
		.st10 {fill:url(#grad0-199);stroke:none;stroke-linecap:butt;stroke-width:0.75}
		.st11 {fill:url(#grad0-206);stroke:none;stroke-linecap:butt;stroke-width:0.75}
		.st12 {fill:url(#grad0-222);stroke:none;stroke-linecap:butt;stroke-width:0.75}
		.st13 {fill:url(#grad0-232);stroke:none;stroke-linecap:butt;stroke-width:0.75}
		.st14 {fill:none;fill-rule:evenodd;font-size:12px;overflow:visible;stroke-linecap:square;stroke-miterlimit:3}
	]]>
	</style>

	<defs id="Patterns_And_Gradients">
		<linearGradient id="grad0-7" x1="0" y1="0" x2="1" y2="0" gradientTransform="rotate(-180 0.5 0.5)">
			<stop offset="0" stop-color="#b4a59f" stop-opacity="1"/>
			<stop offset="0.15" stop-color="#eddfda" stop-opacity="1"/>
			<stop offset="0.25" stop-color="#eee2dd" stop-opacity="1"/>
			<stop offset="0.52" stop-color="#cab9b3" stop-opacity="1"/>
			<stop offset="0.69" stop-color="#b4a59f" stop-opacity="1"/>
			<stop offset="0.8" stop-color="#aa9b96" stop-opacity="1"/>
			<stop offset="0.92" stop-color="#a0938e" stop-opacity="1"/>
		</linearGradient>
		<linearGradient id="grad0-11" x1="0" y1="0" x2="1" y2="0" gradientTransform="rotate(343.30075576601 0.5 0.5)">
			<stop offset="0" stop-color="#b4a59f" stop-opacity="1"/>
			<stop offset="0.15" stop-color="#eddfda" stop-opacity="1"/>
			<stop offset="0.25" stop-color="#eee2dd" stop-opacity="1"/>
			<stop offset="0.52" stop-color="#cab9b3" stop-opacity="1"/>
			<stop offset="0.69" stop-color="#b4a59f" stop-opacity="1"/>
			<stop offset="0.8" stop-color="#aa9b96" stop-opacity="1"/>
			<stop offset="0.92" stop-color="#a0938e" stop-opacity="1"/>
		</linearGradient>
		<linearGradient id="grad0-15" x1="0" y1="0" x2="1" y2="0" gradientTransform="rotate(90 0.5 0.5)">
			<stop offset="0" stop-color="#eddfda" stop-opacity="1"/>
			<stop offset="0.25" stop-color="#eee2dd" stop-opacity="1"/>
			<stop offset="0.67" stop-color="#cab9b3" stop-opacity="1"/>
			<stop offset="1" stop-color="#b4a59f" stop-opacity="1"/>
		</linearGradient>
		<linearGradient id="grad0-30" x1="0" y1="0" x2="1" y2="0" gradientTransform="rotate(90 0.5 0.5)">
			<stop offset="0" stop-color="#4795bc" stop-opacity="1"/>
			<stop offset="0.15" stop-color="#9ad1f4" stop-opacity="1"/>
			<stop offset="0.25" stop-color="#a4d5f5" stop-opacity="1"/>
			<stop offset="0.52" stop-color="#51a8d3" stop-opacity="1"/>
			<stop offset="0.69" stop-color="#4795bc" stop-opacity="1"/>
			<stop offset="0.8" stop-color="#438cb1" stop-opacity="1"/>
			<stop offset="0.92" stop-color="#3f84a7" stop-opacity="1"/>
		</linearGradient>
		<linearGradient id="grad0-37" x1="0" y1="0" x2="1" y2="0" gradientTransform="rotate(90 0.5 0.5)">
			<stop offset="0" stop-color="#3b7e9f" stop-opacity="1"/>
			<stop offset="0.15" stop-color="#94bfda" stop-opacity="1"/>
			<stop offset="0.25" stop-color="#9ec4dd" stop-opacity="1"/>
			<stop offset="0.52" stop-color="#438eb3" stop-opacity="1"/>
			<stop offset="0.69" stop-color="#3b7e9f" stop-opacity="1"/>
			<stop offset="0.8" stop-color="#377796" stop-opacity="1"/>
			<stop offset="0.92" stop-color="#33708e" stop-opacity="1"/>
		</linearGradient>
		<linearGradient id="grad0-82" x1="0" y1="0" x2="1" y2="0" gradientTransform="rotate(-180 0.5 0.5)">
			<stop offset="0" stop-color="#4795bc" stop-opacity="1"/>
			<stop offset="0.15" stop-color="#9ad1f4" stop-opacity="1"/>
			<stop offset="0.25" stop-color="#a4d5f5" stop-opacity="1"/>
			<stop offset="0.52" stop-color="#51a8d3" stop-opacity="1"/>
			<stop offset="0.69" stop-color="#4795bc" stop-opacity="1"/>
			<stop offset="0.8" stop-color="#438cb1" stop-opacity="1"/>
			<stop offset="0.92" stop-color="#3f84a7" stop-opacity="1"/>
		</linearGradient>
		<linearGradient id="grad0-86" x1="0" y1="0" x2="1" y2="0" gradientTransform="rotate(-180 0.5 0.5)">
			<stop offset="0" stop-color="#4b85a1" stop-opacity="1"/>
			<stop offset="0.03" stop-color="#9accea" stop-opacity="1"/>
			<stop offset="0.08" stop-color="#64aed2" stop-opacity="1"/>
			<stop offset="0.64" stop-color="#62abcf" stop-opacity="1"/>
			<stop offset="0.95" stop-color="#60a7ca" stop-opacity="1"/>
			<stop offset="1" stop-color="#457b95" stop-opacity="1"/>
		</linearGradient>
		<linearGradient id="grad0-115" x1="0" y1="0" x2="1" y2="0" gradientTransform="rotate(0 0.5 0.5)">
			<stop offset="0" stop-color="#4795bc" stop-opacity="1"/>
			<stop offset="0.15" stop-color="#9ad1f4" stop-opacity="1"/>
			<stop offset="0.25" stop-color="#a4d5f5" stop-opacity="1"/>
			<stop offset="0.52" stop-color="#51a8d3" stop-opacity="1"/>
			<stop offset="0.69" stop-color="#4795bc" stop-opacity="1"/>
			<stop offset="0.8" stop-color="#438cb1" stop-opacity="1"/>
			<stop offset="0.92" stop-color="#3f84a7" stop-opacity="1"/>
		</linearGradient>
		<linearGradient id="grad0-119" x1="0" y1="0" x2="1" y2="0" gradientTransform="rotate(-201.21796957678 0.5 0.5)">
			<stop offset="0" stop-color="#4795bc" stop-opacity="1"/>
			<stop offset="0.15" stop-color="#9ad1f4" stop-opacity="1"/>
			<stop offset="0.25" stop-color="#a4d5f5" stop-opacity="1"/>
			<stop offset="0.52" stop-color="#51a8d3" stop-opacity="1"/>
			<stop offset="0.69" stop-color="#4795bc" stop-opacity="1"/>
			<stop offset="0.8" stop-color="#438cb1" stop-opacity="1"/>
			<stop offset="0.92" stop-color="#3f84a7" stop-opacity="1"/>
		</linearGradient>
		<linearGradient id="grad0-199" x1="0" y1="0" x2="1" y2="0" gradientTransform="rotate(-180 0.5 0.5)">
			<stop offset="0" stop-color="#3d7691" stop-opacity="1"/>
			<stop offset="0.03" stop-color="#90bed9" stop-opacity="1"/>
			<stop offset="0.08" stop-color="#519bbe" stop-opacity="1"/>
			<stop offset="0.64" stop-color="#5099ba" stop-opacity="1"/>
			<stop offset="0.95" stop-color="#4e95b6" stop-opacity="1"/>
			<stop offset="1" stop-color="#386e87" stop-opacity="1"/>
		</linearGradient>
		<linearGradient id="grad0-206" x1="0" y1="0" x2="1" y2="0" gradientTransform="rotate(90 0.5 0.5)">
			<stop offset="0" stop-color="#316177" stop-opacity="1"/>
			<stop offset="0.03" stop-color="#8aabbf" stop-opacity="1"/>
			<stop offset="0.08" stop-color="#42809c" stop-opacity="1"/>
			<stop offset="0.64" stop-color="#417d9a" stop-opacity="1"/>
			<stop offset="0.95" stop-color="#407a96" stop-opacity="1"/>
			<stop offset="1" stop-color="#2d596e" stop-opacity="1"/>
		</linearGradient>
		<linearGradient id="grad0-222" x1="0" y1="0" x2="1" y2="0" gradientTransform="rotate(90 0.5 0.5)">
			<stop offset="0" stop-color="#376c84" stop-opacity="1"/>
			<stop offset="0.03" stop-color="#8db4cc" stop-opacity="1"/>
			<stop offset="0.08" stop-color="#4a8dad" stop-opacity="1"/>
			<stop offset="0.64" stop-color="#498baa" stop-opacity="1"/>
			<stop offset="0.95" stop-color="#4788a6" stop-opacity="1"/>
			<stop offset="1" stop-color="#32637a" stop-opacity="1"/>
		</linearGradient>
		<linearGradient id="grad0-232" x1="0" y1="0" x2="1" y2="0" gradientTransform="rotate(90 0.5 0.5)">
			<stop offset="0" stop-color="#3d7691" stop-opacity="1"/>
			<stop offset="0.03" stop-color="#90bed9" stop-opacity="1"/>
			<stop offset="0.08" stop-color="#519bbe" stop-opacity="1"/>
			<stop offset="0.64" stop-color="#5099ba" stop-opacity="1"/>
			<stop offset="0.95" stop-color="#4e95b6" stop-opacity="1"/>
			<stop offset="1" stop-color="#386e87" stop-opacity="1"/>
		</linearGradient>
	</defs>
	<g v:mID="0" v:index="1" v:groupContext="foregroundPage">
		<title>页-1</title>
		<v:pageProperties v:drawingScale="0.0393701" v:pageScale="0.0393701" v:drawingUnits="24" v:shadowOffsetX="8.50394"
				v:shadowOffsetY="-8.50394"/>
		<g id="group2175-1" transform="translate(0.75,-0.75)" v:mID="2175" v:groupContext="group">
			<title>蒸发过程</title>
			<g id="group2176-2" transform="translate(92.3625,-33.9)" v:mID="2176" v:groupContext="group">
				<title>工作表.2176</title>
				<g id="group2177-3" transform="translate(5.895,-20.595)" v:mID="2177" v:groupContext="group">
					<title>工作表.2177</title>
					<g id="shape2178-4" v:mID="2178" v:groupContext="shape" transform="translate(0.9975,-7.10543E-14) scale(-1,1)">
						<title>shape1</title>
						<path d="M0 106.15 L0.6 102.47 L0 106.15 Z" class="st1"/>
					</g>
					<g id="shape2179-8" v:mID="2179" v:groupContext="shape" transform="translate(1.35,-3.075) scale(-1,1)">
						<title>shape2</title>
						<path d="M0.68 103.9 C1.05 103.9 1.35 104.27 1.35 104.8 C1.35 105.77 1.05 106.15 0.68 106.15 C0.3 106.15
									 0 105.77 0 105.25 C0 104.27 0.3 103.9 0.68 103.9 Z" class="st2"/>
					</g>
					<g id="shape2180-12" v:mID="2180" v:groupContext="shape" transform="translate(1.2675,-4.05) scale(-1,1)">
						<title>shape3</title>
						<path d="M0 105.55 C0 105.17 0.23 104.87 0.6 104.87 C0.9 104.87 1.13 105.17 1.13 105.55 C1.13 105.85 0.9
									 106.15 0.6 106.15 C0.23 106.15 0 105.85 0 105.55 Z" class="st3"/>
					</g>
				</g>
				<g id="group2181-16" transform="translate(2.9475,-20.595)" v:mID="2181" v:groupContext="group">
					<title>工作表.2181</title>
					<g id="shape2182-17" v:mID="2182" v:groupContext="shape" transform="translate(0.9975,-7.10543E-14) scale(-1,1)">
						<title>shape4</title>
						<path d="M0 106.15 L0.6 102.47 L0 106.15 Z" class="st1"/>
					</g>
					<g id="shape2183-20" v:mID="2183" v:groupContext="shape" transform="translate(1.35,-3.075) scale(-1,1)">
						<title>shape5</title>
						<path d="M0.68 103.9 C1.05 103.9 1.35 104.27 1.35 104.8 C1.35 105.77 1.05 106.15 0.68 106.15 C0.3 106.15
									 0 105.77 0 105.25 C0 104.27 0.3 103.9 0.68 103.9 Z" class="st2"/>
					</g>
					<g id="shape2184-23" v:mID="2184" v:groupContext="shape" transform="translate(1.2675,-4.05) scale(-1,1)">
						<title>shape6</title>
						<path d="M0 105.55 C0 105.17 0.23 104.87 0.6 104.87 C0.9 104.87 1.13 105.17 1.13 105.55 C1.13 105.85 0.9
									 106.15 0.6 106.15 C0.23 106.15 0 105.85 0 105.55 Z" class="st3"/>
					</g>
				</g>
				<g id="group2185-26" transform="translate(2.94958E-14,-15.27)" v:mID="2185" v:groupContext="group">
					<title>工作表.2185</title>
					<g id="shape2186-27" v:mID="2186" v:groupContext="shape" transform="translate(7.725,-0.675) scale(-1,1)">
						<title>shape7</title>
						<path d="M0 100.97 L7.73 100.97 L7.73 106.15 L0 106.15 L0 100.97 Z" class="st4"/>
					</g>
					<g id="shape2187-31" v:mID="2187" v:groupContext="shape" transform="translate(8.82,-1.42109E-13) scale(-1,1)">
						<title>shape8</title>
						<path d="M0.52 99.62 C1.05 99.62 1.27 100 1.27 100.37 L1.27 105.32 C1.27 105.77 1.05 106.15 0.75 106.15 C0.22
									 106.15 0 105.77 0 105.32 L0 100.37 C0 100 0.22 99.62 0.52 99.62 Z" class="st4"/>
					</g>
					<g id="shape2188-34" v:mID="2188" v:groupContext="shape" transform="translate(7.5825,-0.675) scale(-1,1)">
						<title>shape9</title>
						<path d="M0 100.97 L0.3 106.15 L0 100.97 Z" class="st5"/>
					</g>
				</g>
				<g id="group2189-38" v:mID="2189" v:groupContext="group">
					<title>工作表.2189</title>
					<g id="shape2190-39" v:mID="2190" v:groupContext="shape" transform="translate(7.725,-0.675) scale(-1,1)">
						<title>shape10</title>
						<path d="M0 100.97 L7.73 100.97 L7.73 106.15 L0 106.15 L0 100.97 Z" class="st4"/>
					</g>
					<g id="shape2191-42" v:mID="2191" v:groupContext="shape" transform="translate(8.82,-1.42109E-13) scale(-1,1)">
						<title>shape11</title>
						<path d="M0.52 99.62 C1.05 99.62 1.27 100 1.27 100.37 L1.27 105.32 C1.27 105.77 1.05 106.15 0.75 106.15 C0.22
									 106.15 0 105.77 0 105.32 L0 100.37 C0 100 0.22 99.62 0.52 99.62 Z" class="st4"/>
					</g>
					<g id="shape2192-45" v:mID="2192" v:groupContext="shape" transform="translate(7.5825,-0.675) scale(-1,1)">
						<title>shape12</title>
						<path d="M0 100.97 L0.3 106.15 L0 100.97 Z" class="st5"/>
					</g>
				</g>
				<g id="group2193-48" transform="translate(2.94958E-14,-40.5075)" v:mID="2193" v:groupContext="group">
					<title>工作表.2193</title>
					<g id="shape2194-49" v:mID="2194" v:groupContext="shape" transform="translate(7.725,-0.675) scale(-1,1)">
						<title>shape13</title>
						<path d="M0 100.97 L7.73 100.97 L7.73 106.15 L0 106.15 L0 100.97 Z" class="st4"/>
					</g>
					<g id="shape2195-52" v:mID="2195" v:groupContext="shape" transform="translate(8.82,-1.42109E-13) scale(-1,1)">
						<title>shape14</title>
						<path d="M0.52 99.62 C1.05 99.62 1.27 100 1.27 100.37 L1.27 105.32 C1.27 105.77 1.05 106.15 0.75 106.15 C0.22
									 106.15 0 105.77 0 105.32 L0 100.37 C0 100 0.22 99.62 0.52 99.62 Z" class="st4"/>
					</g>
					<g id="shape2196-55" v:mID="2196" v:groupContext="shape" transform="translate(7.5825,-0.675) scale(-1,1)">
						<title>shape15</title>
						<path d="M0 100.97 L0.3 106.15 L0 100.97 Z" class="st5"/>
					</g>
				</g>
				<g id="group2197-58" transform="translate(5.895,-46.35)" v:mID="2197" v:groupContext="group">
					<title>工作表.2197</title>
					<g id="shape2198-59" v:mID="2198" v:groupContext="shape" transform="translate(0.9975,-7.10543E-14) scale(-1,1)">
						<title>shape16</title>
						<path d="M0 106.15 L0.6 102.47 L0 106.15 Z" class="st1"/>
					</g>
					<g id="shape2199-62" v:mID="2199" v:groupContext="shape" transform="translate(1.35,-3.075) scale(-1,1)">
						<title>shape17</title>
						<path d="M0.68 103.9 C1.05 103.9 1.35 104.27 1.35 104.8 C1.35 105.77 1.05 106.15 0.68 106.15 C0.3 106.15
									 0 105.77 0 105.25 C0 104.27 0.3 103.9 0.68 103.9 Z" class="st2"/>
					</g>
					<g id="shape2200-65" v:mID="2200" v:groupContext="shape" transform="translate(1.2675,-4.05) scale(-1,1)">
						<title>shape18</title>
						<path d="M0 105.55 C0 105.17 0.23 104.87 0.6 104.87 C0.9 104.87 1.13 105.17 1.13 105.55 C1.13 105.85 0.9
									 106.15 0.6 106.15 C0.23 106.15 0 105.85 0 105.55 Z" class="st3"/>
					</g>
				</g>
				<g id="group2201-68" transform="translate(5.895,-5.79)" v:mID="2201" v:groupContext="group">
					<title>工作表.2201</title>
					<g id="shape2202-69" v:mID="2202" v:groupContext="shape" transform="translate(0.9975,-7.10543E-14) scale(-1,1)">
						<title>shape19</title>
						<path d="M0 106.15 L0.6 102.47 L0 106.15 Z" class="st1"/>
					</g>
					<g id="shape2203-72" v:mID="2203" v:groupContext="shape" transform="translate(1.35,-3.075) scale(-1,1)">
						<title>shape20</title>
						<path d="M0.68 103.9 C1.05 103.9 1.35 104.27 1.35 104.8 C1.35 105.77 1.05 106.15 0.68 106.15 C0.3 106.15
									 0 105.77 0 105.25 C0 104.27 0.3 103.9 0.68 103.9 Z" class="st2"/>
					</g>
					<g id="shape2204-75" v:mID="2204" v:groupContext="shape" transform="translate(1.2675,-4.05) scale(-1,1)">
						<title>shape21</title>
						<path d="M0 105.55 C0 105.17 0.23 104.87 0.6 104.87 C0.9 104.87 1.13 105.17 1.13 105.55 C1.13 105.85 0.9
									 106.15 0.6 106.15 C0.23 106.15 0 105.85 0 105.55 Z" class="st3"/>
					</g>
				</g>
			</g>
			<g id="group2205-78" transform="translate(69.0075,-3.2175)" v:mID="2205" v:groupContext="group">
				<title>工作表.2205</title>
				<g id="shape2206-79" v:mID="2206" v:groupContext="shape" transform="translate(12.09,-96.105)">
					<title>shape22</title>
					<path d="M0 103.75 L2.92 103.75 L2.92 106.15 L0 106.15 L0 103.75 Z" class="st6"/>
				</g>
				<g id="shape2207-83" v:mID="2207" v:groupContext="shape" transform="translate(22.38,-1.42109E-14)">
					<title>shape23</title>
					<path d="M0.83 91.67 L2.25 91.67 C2.63 91.67 3 92.05 3 92.5 L3 105.32 C3 105.77 2.63 106.15 2.25 106.15 L0.83
								 106.15 C0.38 106.15 0 105.77 0 105.32 L0 92.5 C0 92.05 0.38 91.67 0.83 91.67 Z" class="st7"/>
				</g>
				<g id="shape2208-87" v:mID="2208" v:groupContext="shape" transform="translate(7.8675,-84.3825)">
					<title>shape24</title>
					<path d="M0 97.37 L11.4 97.37 L11.4 106.15 L0 106.15 L0 97.37 Z" class="st6"/>
				</g>
				<g id="shape2209-90" v:mID="2209" v:groupContext="shape" transform="translate(0.015,-8.4825)">
					<title>shape25</title>
					<path d="M0 37.6 C0 37.6 0.53 31.52 7.88 30.1 C7.88 30.1 19.28 30.1 19.28 30.1 C26.63 30.77 27.08 37.6 27.08
								 37.6 L27.08 95.95 C27.08 95.95 26.85 106.15 13.5 106.15 C0.15 106.15 0 95.95 0 95.95 L0 37.6 Z"
							class="st6"/>
				</g>
				<g id="shape2210-93" v:mID="2210" v:groupContext="shape" transform="translate(1.6425,-1.42109E-14)">
					<title>shape26</title>
					<path d="M0.83 91.67 L2.25 91.67 C2.63 91.67 3 92.05 3 92.5 L3 105.32 C3 105.77 2.63 106.15 2.25 106.15 L0.83
								 106.15 C0.38 106.15 0 105.77 0 105.32 L0 92.5 C0 92.05 0.38 91.67 0.83 91.67 Z" class="st7"/>
				</g>
				<g id="shape2211-96" v:mID="2211" v:groupContext="shape" transform="translate(2.95763E-13,-77.0325)">
					<title>shape27</title>
					<path d="M0 106.15 C0 106.15 0.6 100.07 7.88 98.65 C7.88 98.65 19.28 98.65 19.28 98.65 C26.63 99.32 27.15 106.15
								 27.15 106.15 L0 106.15 Z" class="st6"/>
				</g>
				<g id="shape2212-99" v:mID="2212" v:groupContext="shape" transform="translate(0.015,-8.4525)">
					<title>shape28</title>
					<path d="M27.08 95.95 C27.08 95.95 26.85 106.15 13.5 106.15 C0.15 106.15 0 95.95 0 95.95 L27.08 95.95 Z"
							class="st6"/>
				</g>
				<g id="shape2213-102" v:mID="2213" v:groupContext="shape" transform="translate(7.8375,-93.1275)">
					<title>shape31</title>
					<path d="M0 106.15 C0 106.15 0.23 103.6 3.3 103 C3.3 103 8.1 103 8.1 103 C11.25 103.3 11.48 106.15 11.48 106.15
								 L0 106.15 Z" class="st6"/>
				</g>
				<g id="group2214-105" transform="translate(10.875,-98.295)" v:mID="2214" v:groupContext="group">
					<title>工作表.2214</title>
					<g id="shape2215-106" v:mID="2215" v:groupContext="shape">
						<title>shape33</title>
						<path d="M0.3 104.57 L5.1 104.57 C5.25 104.57 5.4 104.8 5.4 105.02 C5.4 105.92 5.25 106.15 5.1 106.15 L0.3
									 106.15 C0.15 106.15 0 105.92 0 105.7 C0 104.8 0.15 104.57 0.3 104.57 Z" class="st6"/>
					</g>
					<g id="shape2216-109" v:mID="2216" v:groupContext="shape" transform="translate(6.79456E-14,-1.56)">
						<title>shape34</title>
						<path d="M0.3 104.57 L5.1 104.57 C5.25 104.57 5.4 104.8 5.4 105.02 C5.4 105.92 5.25 106.15 5.1 106.15 L0.3
									 106.15 C0.15 106.15 0 105.92 0 105.7 C0 104.8 0.15 104.57 0.3 104.57 Z" class="st6"/>
					</g>
				</g>
				<g id="shape2217-112" v:mID="2217" v:groupContext="shape" transform="translate(23.625,-82.5825) scale(-1,1)">
					<title>shape35</title>
					<path d="M0 106.15 L0 100.45 L1.65 100.45 L1.65 106.15 L0 106.15 Z" class="st8"/>
				</g>
				<g id="shape2218-116" v:mID="2218" v:groupContext="shape" transform="translate(24.3,-88.2825) scale(-1,1)">
					<title>shape36</title>
					<path d="M0 102.32 C0 102.32 1.28 102.4 1.88 103.45 C2.48 104.5 2.4 106.15 2.4 106.15 L0.68 106.15 C0.68 106.15
								 0.75 105.17 0 104.8 L0 102.32 Z" class="st9"/>
				</g>
			</g>
			<g id="group2219-120" transform="translate(41.2125,-3.2175)" v:mID="2219" v:groupContext="group">
				<title>工作表.2219</title>
				<g id="shape2220-121" v:mID="2220" v:groupContext="shape" transform="translate(12.09,-96.105)">
					<title>shape37</title>
					<path d="M0 103.75 L2.92 103.75 L2.92 106.15 L0 106.15 L0 103.75 Z" class="st6"/>
				</g>
				<g id="shape2221-124" v:mID="2221" v:groupContext="shape" transform="translate(22.38,-1.42109E-14)">
					<title>shape38</title>
					<path d="M0.83 91.67 L2.25 91.67 C2.63 91.67 3 92.05 3 92.5 L3 105.32 C3 105.77 2.63 106.15 2.25 106.15 L0.83
								 106.15 C0.38 106.15 0 105.77 0 105.32 L0 92.5 C0 92.05 0.38 91.67 0.83 91.67 Z" class="st7"/>
				</g>
				<g id="shape2222-127" v:mID="2222" v:groupContext="shape" transform="translate(7.8675,-84.3825)">
					<title>shape39</title>
					<path d="M0 97.37 L11.4 97.37 L11.4 106.15 L0 106.15 L0 97.37 Z" class="st6"/>
				</g>
				<g id="shape2223-130" v:mID="2223" v:groupContext="shape" transform="translate(0.015,-8.4825)">
					<title>shape40</title>
					<path d="M0 37.6 C0 37.6 0.53 31.52 7.88 30.1 C7.88 30.1 19.28 30.1 19.28 30.1 C26.63 30.77 27.08 37.6 27.08
								 37.6 L27.08 95.95 C27.08 95.95 26.85 106.15 13.5 106.15 C0.15 106.15 0 95.95 0 95.95 L0 37.6 Z"
							class="st6"/>
				</g>
				<g id="shape2224-133" v:mID="2224" v:groupContext="shape" transform="translate(1.6425,-1.42109E-14)">
					<title>shape41</title>
					<path d="M0.83 91.67 L2.25 91.67 C2.63 91.67 3 92.05 3 92.5 L3 105.32 C3 105.77 2.63 106.15 2.25 106.15 L0.83
								 106.15 C0.38 106.15 0 105.77 0 105.32 L0 92.5 C0 92.05 0.38 91.67 0.83 91.67 Z" class="st7"/>
				</g>
				<g id="shape2225-136" v:mID="2225" v:groupContext="shape" transform="translate(2.95763E-13,-77.0325)">
					<title>shape42</title>
					<path d="M0 106.15 C0 106.15 0.6 100.07 7.88 98.65 C7.88 98.65 19.28 98.65 19.28 98.65 C26.63 99.32 27.15 106.15
								 27.15 106.15 L0 106.15 Z" class="st6"/>
				</g>
				<g id="shape2226-139" v:mID="2226" v:groupContext="shape" transform="translate(0.015,-8.4525)">
					<title>shape43</title>
					<path d="M27.08 95.95 C27.08 95.95 26.85 106.15 13.5 106.15 C0.15 106.15 0 95.95 0 95.95 L27.08 95.95 Z"
							class="st6"/>
				</g>
				<g id="shape2227-142" v:mID="2227" v:groupContext="shape" transform="translate(7.8375,-93.1275)">
					<title>shape46</title>
					<path d="M0 106.15 C0 106.15 0.23 103.6 3.3 103 C3.3 103 8.1 103 8.1 103 C11.25 103.3 11.48 106.15 11.48 106.15
								 L0 106.15 Z" class="st6"/>
				</g>
				<g id="group2228-145" transform="translate(10.875,-98.295)" v:mID="2228" v:groupContext="group">
					<title>工作表.2228</title>
					<g id="shape2229-146" v:mID="2229" v:groupContext="shape">
						<title>shape48</title>
						<path d="M0.3 104.57 L5.1 104.57 C5.25 104.57 5.4 104.8 5.4 105.02 C5.4 105.92 5.25 106.15 5.1 106.15 L0.3
									 106.15 C0.15 106.15 0 105.92 0 105.7 C0 104.8 0.15 104.57 0.3 104.57 Z" class="st6"/>
					</g>
					<g id="shape2230-149" v:mID="2230" v:groupContext="shape" transform="translate(6.79456E-14,-1.56)">
						<title>shape49</title>
						<path d="M0.3 104.57 L5.1 104.57 C5.25 104.57 5.4 104.8 5.4 105.02 C5.4 105.92 5.25 106.15 5.1 106.15 L0.3
									 106.15 C0.15 106.15 0 105.92 0 105.7 C0 104.8 0.15 104.57 0.3 104.57 Z" class="st6"/>
					</g>
				</g>
				<g id="shape2231-152" v:mID="2231" v:groupContext="shape" transform="translate(23.625,-82.5825) scale(-1,1)">
					<title>shape50</title>
					<path d="M0 106.15 L0 100.45 L1.65 100.45 L1.65 106.15 L0 106.15 Z" class="st8"/>
				</g>
				<g id="shape2232-155" v:mID="2232" v:groupContext="shape" transform="translate(24.3,-88.2825) scale(-1,1)">
					<title>shape51</title>
					<path d="M0 102.32 C0 102.32 1.28 102.4 1.88 103.45 C2.48 104.5 2.4 106.15 2.4 106.15 L0.68 106.15 C0.68 106.15
								 0.75 105.17 0 104.8 L0 102.32 Z" class="st9"/>
				</g>
			</g>
			<g id="group2233-158" transform="translate(13.6275,-3.2175)" v:mID="2233" v:groupContext="group">
				<title>工作表.2233</title>
				<g id="shape2234-159" v:mID="2234" v:groupContext="shape" transform="translate(12.09,-96.105)">
					<title>shape52</title>
					<path d="M0 103.75 L2.92 103.75 L2.92 106.15 L0 106.15 L0 103.75 Z" class="st6"/>
				</g>
				<g id="shape2235-162" v:mID="2235" v:groupContext="shape" transform="translate(22.38,-1.42109E-14)">
					<title>shape53</title>
					<path d="M0.83 91.67 L2.25 91.67 C2.63 91.67 3 92.05 3 92.5 L3 105.32 C3 105.77 2.63 106.15 2.25 106.15 L0.83
								 106.15 C0.38 106.15 0 105.77 0 105.32 L0 92.5 C0 92.05 0.38 91.67 0.83 91.67 Z" class="st7"/>
				</g>
				<g id="shape2236-165" v:mID="2236" v:groupContext="shape" transform="translate(7.8675,-84.3825)">
					<title>shape54</title>
					<path d="M0 97.37 L11.4 97.37 L11.4 106.15 L0 106.15 L0 97.37 Z" class="st6"/>
				</g>
				<g id="shape2237-168" v:mID="2237" v:groupContext="shape" transform="translate(0.015,-8.4825)">
					<title>shape55</title>
					<path d="M0 37.6 C0 37.6 0.53 31.52 7.88 30.1 C7.88 30.1 19.28 30.1 19.28 30.1 C26.63 30.77 27.08 37.6 27.08
								 37.6 L27.08 95.95 C27.08 95.95 26.85 106.15 13.5 106.15 C0.15 106.15 0 95.95 0 95.95 L0 37.6 Z"
							class="st6"/>
				</g>
				<g id="shape2238-171" v:mID="2238" v:groupContext="shape" transform="translate(1.6425,-1.42109E-14)">
					<title>shape56</title>
					<path d="M0.83 91.67 L2.25 91.67 C2.63 91.67 3 92.05 3 92.5 L3 105.32 C3 105.77 2.63 106.15 2.25 106.15 L0.83
								 106.15 C0.38 106.15 0 105.77 0 105.32 L0 92.5 C0 92.05 0.38 91.67 0.83 91.67 Z" class="st7"/>
				</g>
				<g id="shape2239-174" v:mID="2239" v:groupContext="shape" transform="translate(2.95763E-13,-77.0325)">
					<title>shape57</title>
					<path d="M0 106.15 C0 106.15 0.6 100.07 7.88 98.65 C7.88 98.65 19.28 98.65 19.28 98.65 C26.63 99.32 27.15 106.15
								 27.15 106.15 L0 106.15 Z" class="st6"/>
				</g>
				<g id="shape2240-177" v:mID="2240" v:groupContext="shape" transform="translate(0.015,-8.4525)">
					<title>shape58</title>
					<path d="M27.08 95.95 C27.08 95.95 26.85 106.15 13.5 106.15 C0.15 106.15 0 95.95 0 95.95 L27.08 95.95 Z"
							class="st6"/>
				</g>
				<g id="shape2241-180" v:mID="2241" v:groupContext="shape" transform="translate(7.8375,-93.1275)">
					<title>shape61</title>
					<path d="M0 106.15 C0 106.15 0.23 103.6 3.3 103 C3.3 103 8.1 103 8.1 103 C11.25 103.3 11.48 106.15 11.48 106.15
								 L0 106.15 Z" class="st6"/>
				</g>
				<g id="group2242-183" transform="translate(10.875,-98.295)" v:mID="2242" v:groupContext="group">
					<title>工作表.2242</title>
					<g id="shape2243-184" v:mID="2243" v:groupContext="shape">
						<title>shape63</title>
						<path d="M0.3 104.57 L5.1 104.57 C5.25 104.57 5.4 104.8 5.4 105.02 C5.4 105.92 5.25 106.15 5.1 106.15 L0.3
									 106.15 C0.15 106.15 0 105.92 0 105.7 C0 104.8 0.15 104.57 0.3 104.57 Z" class="st6"/>
					</g>
					<g id="shape2244-187" v:mID="2244" v:groupContext="shape" transform="translate(6.79456E-14,-1.56)">
						<title>shape64</title>
						<path d="M0.3 104.57 L5.1 104.57 C5.25 104.57 5.4 104.8 5.4 105.02 C5.4 105.92 5.25 106.15 5.1 106.15 L0.3
									 106.15 C0.15 106.15 0 105.92 0 105.7 C0 104.8 0.15 104.57 0.3 104.57 Z" class="st6"/>
					</g>
				</g>
				<g id="shape2245-190" v:mID="2245" v:groupContext="shape" transform="translate(23.625,-82.5825) scale(-1,1)">
					<title>shape65</title>
					<path d="M0 106.15 L0 100.45 L1.65 100.45 L1.65 106.15 L0 106.15 Z" class="st8"/>
				</g>
				<g id="shape2246-193" v:mID="2246" v:groupContext="shape" transform="translate(24.3,-88.2825) scale(-1,1)">
					<title>shape66</title>
					<path d="M0 102.32 C0 102.32 1.28 102.4 1.88 103.45 C2.48 104.5 2.4 106.15 2.4 106.15 L0.68 106.15 C0.68 106.15
								 0.75 105.17 0 104.8 L0 102.32 Z" class="st9"/>
				</g>
			</g>
			<g id="shape2247-196" v:mID="2247" v:groupContext="shape" transform="translate(3.87,-5.31)">
				<title>shape67</title>
				<path d="M0 106.15 L0 28.45 L2.48 28.45 L2.48 106.15 L0 106.15 Z" class="st10"/>
			</g>
			<g id="shape2248-200" v:mID="2248" v:groupContext="shape" transform="translate(103.192,-5.31)">
				<title>shape68</title>
				<path d="M0 106.15 L0 28.45 L2.48 28.45 L2.48 106.15 L0 106.15 Z" class="st10"/>
			</g>
			<g id="shape2249-203" v:mID="2249" v:groupContext="shape" transform="translate(5.115,-53.895)">
				<title>shape69</title>
				<path d="M0 105.1 L99.3 105.1 L99.3 106.15 L0 106.15 L0 105.1 Z" class="st11"/>
			</g>
			<g id="shape2250-207" v:mID="2250" v:groupContext="shape" transform="translate(6.3525,-32.88)">
				<title>shape70</title>
				<path d="M0 105.1 L99.3 105.1 L99.3 106.15 L0 106.15 L0 105.1 Z" class="st11"/>
			</g>
			<g id="shape2251-210" v:mID="2251" v:groupContext="shape" transform="translate(24.8325,-5.325)">
				<title>shape71</title>
				<path d="M0 106.15 L0 42.92 L2.48 42.92 L2.48 106.15 L0 106.15 Z" class="st10"/>
			</g>
			<g id="shape2252-213" v:mID="2252" v:groupContext="shape" transform="translate(53.535,-5.3325)">
				<title>shape72</title>
				<path d="M0 106.15 L0 43.15 L2.48 43.15 L2.48 106.15 L0 106.15 Z" class="st10"/>
			</g>
			<g id="shape2253-216" v:mID="2253" v:groupContext="shape" transform="translate(82.8825,-5.355)">
				<title>shape73</title>
				<path d="M0 106.15 L0 43.6 L2.48 43.6 L2.48 106.15 L0 106.15 Z" class="st10"/>
			</g>
			<g id="shape2254-219" v:mID="2254" v:groupContext="shape" transform="translate(5.115,-66.7875)">
				<title>shape74</title>
				<path d="M0 103.67 L99.3 103.67 L99.3 106.15 L0 106.15 L0 103.67 Z" class="st12"/>
			</g>
			<g id="shape2255-223" v:mID="2255" v:groupContext="shape" transform="translate(5.115,-45.8325)">
				<title>shape75</title>
				<path d="M0 103.67 L99.3 103.67 L99.3 106.15 L0 106.15 L0 103.67 Z" class="st12"/>
			</g>
			<g id="shape2256-226" v:mID="2256" v:groupContext="shape" transform="translate(5.115,-24.8775)">
				<title>shape76</title>
				<path d="M0 103.67 L99.3 103.67 L99.3 106.15 L0 106.15 L0 103.67 Z" class="st12"/>
			</g>
			<g id="shape2257-229" v:mID="2257" v:groupContext="shape">
				<title>shape77</title>
				<path d="M0 99.85 L109.57 99.85 L109.57 106.15 L0 106.15 L0 99.85 Z" class="st13"/>
			</g>
		</g>
	</g>
</svg>
