<svg xmlns="http://www.w3.org/2000/svg" width="396.58mm" height="396.58mm" viewBox="0 0 1124.16 1124.16">
  <defs>
    <style>
      .cls-1 {
        fill: #79bb29;
      }

      .cls-1, .cls-2 {
        fill-rule: evenodd;
      }

      .cls-2 {
        fill: #658d33;
      }
    </style>
  </defs>
  <g id="图层_2" data-name="图层 2">
    <g id="图层_1-2" data-name="图层 1">
      <g>
        <path class="cls-1" d="M623.62,3.43c308.48,34,531.1,311.7,497.12,620.19a559.33,559.33,0,0,1-120.29,290.24L923,817.27A341.07,341.07,0,0,0,974.36,637V487.15c0-187.77-152.13-341.39-338.07-341.39H487.87c-185.94,0-338.07,153.62-338.07,341.39V637c0,187.76,152.13,341.38,338.07,341.38H636.29A332.91,332.91,0,0,0,810.7,929.13L885.1,1022a559.85,559.85,0,0,1-384.56,98.78C192.06,1086.75-30.55,809,3.43,500.54S315.13-30.56,623.62,3.43Z"/>
        <path class="cls-2" d="M388,269.16h348.1c63.82,0,116,52.73,116,117.17v351.5c0,64.45-52.21,117.17-116,117.17H388c-63.82,0-116-52.72-116-117.17V386.33c0-64.44,52.21-117.17,116-117.17ZM522.15,327.8H445.62c-28.06,0-51,25.71-51,57.14V803.56h76.53c28.06,0,51-25.71,51-57.14V327.8Zm255.76-.52c-44.57,0-80.43-.38-110.28-.38-49.15,0-77.86,14.41-104.52,57.17-12.57,20.16-24,47.2-35.41,83.42,32,0,63.92.85,92.18.85,96.42,0,98.43-12.83,131.73-84.47l26.3-56.59ZM690.06,522.89c-28.79,0-52-.25-71.25-.25-31.75,0-50.3,9.31-67.53,36.94-8.11,13-15.52,30.49-22.87,53.89,20.65,0,41.3.55,59.56.55,62.29,0,63.59-8.29,85.1-54.57Z"/>
      </g>
    </g>
  </g>
</svg>
