<?xml version="1.0" encoding="UTF-8" standalone="no"?>
<!DOCTYPE svg PUBLIC "-//W3C//DTD SVG 1.1//EN" "http://www.w3.org/Graphics/SVG/1.1/DTD/svg11.dtd">
<!-- 由 Microsoft Visio, SVG Export 生成 罐45.svg 页-1 -->
<svg xmlns="http://www.w3.org/2000/svg" xmlns:xlink="http://www.w3.org/1999/xlink" xmlns:ev="http://www.w3.org/2001/xml-events"
		xmlns:v="http://schemas.microsoft.com/visio/2003/SVGExtensions/" width="1.34896in" height="1.48302in"
		viewBox="0 0 97.125 106.778" xml:space="preserve" color-interpolation-filters="sRGB" class="st8">
	<v:documentProperties v:langID="2052" v:metric="true" v:viewMarkup="false"/>

	<style type="text/css">
	<![CDATA[
		.st1 {fill:url(#grad0-5);stroke:none;stroke-linecap:butt;stroke-width:0.75}
		.st2 {fill:url(#grad0-15);stroke:none;stroke-linecap:butt;stroke-width:0.75}
		.st3 {fill:url(#grad0-28);stroke:none;stroke-linecap:butt;stroke-width:0.75}
		.st4 {fill:#fe5c1c;stroke:none;stroke-linecap:butt;stroke-width:0.75}
		.st5 {fill:#fd991f;stroke:none;stroke-linecap:butt;stroke-width:0.75}
		.st6 {fill:#fcd732;stroke:none;stroke-linecap:butt;stroke-width:0.75}
		.st7 {fill:#fcffa4;stroke:none;stroke-linecap:butt;stroke-width:0.75}
		.st8 {fill:none;fill-rule:evenodd;font-size:12px;overflow:visible;stroke-linecap:square;stroke-miterlimit:3}
	]]>
	</style>

	<defs id="Patterns_And_Gradients">
		<linearGradient id="grad0-5" x1="0" y1="0" x2="1" y2="0" gradientTransform="rotate(-180 0.5 0.5)">
			<stop offset="0" stop-color="#bcad9a" stop-opacity="1"/>
			<stop offset="0.15" stop-color="#fdead3" stop-opacity="1"/>
			<stop offset="0.25" stop-color="#fef3e7" stop-opacity="1"/>
			<stop offset="0.52" stop-color="#deccb6" stop-opacity="1"/>
			<stop offset="0.69" stop-color="#c5b5a2" stop-opacity="1"/>
			<stop offset="0.8" stop-color="#baab98" stop-opacity="1"/>
			<stop offset="0.92" stop-color="#b0a190" stop-opacity="1"/>
			<stop offset="1" stop-color="#cabaa5" stop-opacity="1"/>
		</linearGradient>
		<linearGradient id="grad0-15" x1="0" y1="0" x2="1" y2="0" gradientTransform="rotate(-180 0.5 0.5)">
			<stop offset="0" stop-color="#b39777" stop-opacity="1"/>
			<stop offset="0.15" stop-color="#f2d0aa" stop-opacity="1"/>
			<stop offset="0.25" stop-color="#f7e5d3" stop-opacity="1"/>
			<stop offset="0.52" stop-color="#d3b28d" stop-opacity="1"/>
			<stop offset="0.69" stop-color="#bc9e7d" stop-opacity="1"/>
			<stop offset="0.8" stop-color="#b19576" stop-opacity="1"/>
			<stop offset="0.92" stop-color="#a78d6f" stop-opacity="1"/>
			<stop offset="1" stop-color="#c0a280" stop-opacity="1"/>
		</linearGradient>
		<linearGradient id="grad0-28" x1="0" y1="0" x2="1" y2="0" gradientTransform="rotate(0 0.5 0.5)">
			<stop offset="0" stop-color="#947b62" stop-opacity="1"/>
			<stop offset="0.24" stop-color="#ccaf91" stop-opacity="1"/>
			<stop offset="0.57" stop-color="#af9375" stop-opacity="1"/>
			<stop offset="0.74" stop-color="#9b8267" stop-opacity="1"/>
			<stop offset="0.86" stop-color="#927a61" stop-opacity="1"/>
		</linearGradient>
	</defs>
	<g v:mID="0" v:index="1" v:groupContext="foregroundPage">
		<title>页-1</title>
		<v:pageProperties v:drawingScale="0.0393701" v:pageScale="0.0393701" v:drawingUnits="24" v:shadowOffsetX="8.50394"
				v:shadowOffsetY="-8.50394"/>
		<g id="group6208-1" transform="translate(0.75,-0.75)" v:mID="6208" v:groupContext="group">
			<title>火焰锅炉</title>
			<g id="shape6209-2" v:mID="6209" v:groupContext="shape" transform="translate(18.75,-75.2775)">
				<title>shape1</title>
				<path d="M0 79.1 L58.12 79.1 L58.12 106.78 L0 106.78 L0 79.1 Z" class="st1"/>
			</g>
			<g id="shape6210-6" v:mID="6210" v:groupContext="shape" transform="translate(1.3125,-58.35)">
				<title>shape2</title>
				<path d="M17.4 89.83 L75.52 89.83 L93 106.78 L0 106.78 L17.4 89.83 Z" class="st1"/>
			</g>
			<g id="shape6211-9" v:mID="6211" v:groupContext="shape" transform="translate(1.3125,-3.045)">
				<title>shape3</title>
				<path d="M0 51.28 L93 51.28 L93 106.78 L0 106.78 L0 51.28 Z" class="st1"/>
			</g>
			<g id="shape6212-12" v:mID="6212" v:groupContext="shape" transform="translate(18.75,-101.82)">
				<title>shape4</title>
				<path d="M0 105.58 L58.12 105.58 L58.12 106.78 L0 106.78 L0 105.58 Z" class="st2"/>
			</g>
			<g id="shape6213-16" v:mID="6213" v:groupContext="shape" transform="translate(17.8725,-102.953)">
				<title>shape5</title>
				<path d="M0.75 104.45 L59.18 104.45 C59.55 104.45 59.85 104.75 59.85 105.2 L59.85 106.03 C59.85 106.48 59.55 106.78
							 59.18 106.78 L0.75 106.78 C0.3 106.78 0 106.48 0 106.03 L0 105.2 C0 104.75 0.3 104.45 0.75 104.45 Z"
						class="st1"/>
			</g>
			<g id="shape6214-19" v:mID="6214" v:groupContext="shape" transform="translate(1.3125,-3.0975)">
				<title>shape6</title>
				<path d="M0 104.75 L93 104.75 L93 106.78 L0 106.78 L0 104.75 Z" class="st2"/>
			</g>
			<g id="shape6215-22" v:mID="6215" v:groupContext="shape">
				<title>shape7</title>
				<path d="M0.75 103.7 L94.88 103.7 C95.32 103.7 95.62 104 95.62 104.45 L95.62 106.03 C95.62 106.48 95.32 106.78 94.88
							 106.78 L0.75 106.78 C0.3 106.78 0 106.48 0 106.03 L0 104.45 C0 104 0.3 103.7 0.75 103.7 Z" class="st1"/>
			</g>
			<g id="shape6216-25" v:mID="6216" v:groupContext="shape" transform="translate(6.7725,-10.6875)">
				<title>shape8</title>
				<path d="M0 63.35 L82.05 63.35 L82.05 106.78 L0 106.78 L0 63.35 Z" class="st3"/>
			</g>
			<g id="shape6217-29" v:mID="6217" v:groupContext="shape" transform="translate(6.885,-10.815)">
				<title>shape9</title>
				<path d="M0 106.78 C0 106.78 0 104.68 1.87 104.53 C1.87 104.53 1.42 105.13 1.42 105.43 C1.42 105.73 3.15 102.95 3.07
							 102.95 C3.07 102.95 1.95 104.9 3.52 105.5 C3.52 105.5 6.67 106.55 6.22 101.68 C5.85 96.73 6.67 95.83
							 6.67 95.83 C6.67 95.83 6.22 102.58 9.45 101.6 C9.45 101.6 11.32 101.3 10.87 95.23 C10.87 95.23 10.8
							 92.3 9.45 93.58 C9.45 93.58 8.77 91.25 10.12 91.55 C10.12 91.55 12.07 91.85 11.85 96.65 C11.85 96.65
							 12.07 98.53 12.6 96.2 C12.6 96.2 14.02 102.05 16.8 101.3 C16.8 101.3 17.85 101.23 18.22 97.4 C18.22
							 97.4 19.27 99.05 18.67 101.9 C18.67 101.9 20.1 101.53 20.32 101.68 C20.32 101.68 19.8 104.98 21.45 105.5
							 C23.17 106.03 25.87 104.98 26.4 102.73 C26.85 100.55 26.47 96.28 25.05 93.28 C25.05 93.28 27.45 98.23
							 28.72 98.9 C28.72 98.9 29.4 95.6 26.92 90.28 C26.92 90.28 29.25 94.1 27.75 90.58 C27.75 90.58 29.7 91.1
							 30.15 92.9 C30.6 94.78 31.27 95.45 31.27 95.45 C31.27 95.45 31.42 93.73 31.95 93.8 C31.95 93.8 31.87
							 98 33.6 99.95 C33.6 99.95 34.35 101.53 35.25 95.15 C35.25 95.15 35.1 92.53 34.27 90.28 C33.37 88.03
							 34.42 88.1 34.27 85.1 C34.27 85.1 34.35 84.5 35.1 85.4 C35.1 85.4 34.72 82.33 36.82 80.38 C36.82 80.38
							 35.85 81.43 36 83.38 C36.22 85.4 35.17 88.4 35.17 88.4 C35.17 88.4 34.35 92.98 37.35 93.5 C37.35 93.5
							 39.15 93.28 39.97 86.6 C39.97 86.6 40.35 82.93 40.42 82.18 C40.42 82.18 40.27 82.25 39.97 82.93 C39.75
							 83.6 39.37 82.25 39.75 81.05 C39.97 79.93 41.1 78.88 38.85 79.25 C38.85 79.25 39.82 78.73 39.07 77.15
							 C38.4 75.65 35.02 71.6 39.67 69.05 C39.67 69.05 40.5 68.53 39.15 70.1 C37.8 71.6 38.55 73.1 38.55 73.1
							 C38.55 73.1 39.15 72.05 39.97 71.9 C39.97 71.9 36.75 73.7 41.1 77 C41.1 77 40.95 75.2 42.67 75.5 C42.67
							 75.5 40.5 77.38 42.52 79.93 C42.52 79.93 43.5 80.15 42.67 83.3 C42.67 83.3 42.15 85.63 42.75 86.75 C43.27
							 86.08 44.55 87.88 44.55 90.43 C44.55 92.9 44.7 94.33 46.12 92.83 C46.12 92.83 47.7 90.95 46.65 87.05
							 C46.65 87.05 45.82 84.65 46.12 82.48 C46.12 82.48 45.97 81.28 45.37 80.53 C45.37 80.53 47.4 81.95 47.02
							 85.48 C47.02 85.48 47.77 84.58 48 85.18 C48 85.18 47.47 86 48 87.5 C48.52 88.93 47.32 92.38 47.17 93.73
							 C46.95 95 46.72 98.6 48.52 100.1 C48.52 100.1 50.1 98.3 50.25 93.73 C50.25 93.73 51.07 93.8 50.92 95.45
							 C50.92 95.45 51.75 94.55 52.2 92.68 C52.65 90.8 54.3 90.43 54.3 90.43 C54.3 90.43 53.17 92.68 54.3 91.85
							 C54.3 91.85 54.9 91.4 55.57 90.13 C55.57 90.13 52.57 95.45 53.47 98.98 C53.47 98.98 53.62 100.1 57.15
							 93.2 C57.15 93.2 54.9 97.78 55.95 102.88 C55.95 102.88 56.85 105.65 59.7 105.58 C62.47 105.43 61.87
							 101.68 61.87 101.68 C61.87 101.68 63.3 101.45 63.6 101.9 C63.82 102.28 62.55 100.25 64.2 97.48 C64.2
							 97.48 63.82 102.95 67.2 100.78 C67.2 100.78 68.62 99.65 69.67 95.83 C69.67 95.83 69.52 97.63 70.2 97.1
							 C70.2 97.1 70.42 97.03 70.42 95.53 C70.42 94.1 70.72 91.4 72.75 91.7 C72.75 91.55 73.5 93.13 72.67 93.58
							 C72.67 93.58 72.07 91.85 71.4 94.03 C71.4 94.03 70.35 100.7 73.12 101.68 C73.12 101.68 75.67 102.5 75.52
							 96.05 C75.52 96.05 76.2 97.1 75.9 101.75 C75.9 101.75 75.6 106.03 78.37 105.73 C78.37 105.73 79.8 105.58
							 79.5 103.63 C79.5 103.63 80.1 105.2 80.55 105.35 C81 105.43 80.32 104.6 80.32 104.6 C80.32 104.6 81.45
							 104.15 81.82 105.88 C81.82 105.88 81.82 106.55 81.67 106.78 L0 106.78 Z" class="st4"/>
			</g>
			<g id="shape6218-31" v:mID="6218" v:groupContext="shape" transform="translate(33.33,-10.845)">
				<title>shape10</title>
				<path d="M1.5 106.78 C1.5 106.78 0.15 105.28 0.08 103.78 C0 102.2 1.58 99.5 1.58 99.5 C1.58 99.5 1.2 104.3 3.83 103.33
							 C3.83 103.33 5.78 102.35 3.83 100.03 C3.83 100.03 3.23 99.35 2.55 99.35 C2.55 99.35 3.6 97.63 5.93 99.35
							 C5.93 99.35 7.58 100.85 7.73 101.08 C7.73 101.08 8.33 95 11.7 94.18 C11.7 94.18 10.28 96.43 10.5 97.18
							 C10.73 97.93 12.3 97.18 12.45 95.45 C12.53 93.73 12.23 92.75 12.23 92.75 C12.23 92.75 12.75 93.43 12.75
							 93.58 C12.75 93.8 13.88 94.48 14.18 87.13 C14.18 87.13 14.78 88.1 14.78 88.85 C14.78 88.85 15.23 84.73
							 14.78 82.7 C14.78 82.7 17.33 89.98 14.48 95.15 C14.48 95.15 15.68 93.88 16.2 94.55 C16.2 94.55 14.55
							 96.13 15.98 100.1 C15.98 100.1 16.5 96.58 16.88 96.2 C17.18 95.83 17.18 97.78 18.68 96.8 C18.68 96.8
							 19.13 96.05 17.4 94.18 C17.4 94.18 20.33 94.93 21.45 101 C21.45 101 23.7 97.93 26.55 99.2 C26.55 99.2
							 23.85 100.48 25.13 102.95 C25.13 102.95 26.48 104.45 27.38 101.98 C27.38 101.98 27.68 100.78 27.68 99.73
							 C27.68 99.73 29.48 102.28 28.73 104.68 C28.73 104.68 27.98 106.63 27.53 106.7 L1.5 106.78 Z"
						class="st5"/>
			</g>
			<g id="shape6219-33" v:mID="6219" v:groupContext="shape" transform="translate(34.3875,-10.875)">
				<title>shape11</title>
				<path d="M1.87 106.78 C1.87 106.78 2.1 105.95 1.05 104.83 C0 103.7 0.37 102.43 0.37 102.43 C0.37 102.43 0.82 103.93
							 2.1 103.93 C3.3 103.93 3.67 104.45 3.67 104.45 C3.67 104.45 3.97 103.18 4.35 102.8 C4.72 102.43 4.35
							 104.9 5.62 104.98 C5.62 104.98 5.7 104.83 5.25 104.08 C4.72 103.25 5.62 102.35 5.62 102.35 C5.62 102.35
							 9.07 102.88 8.1 97.7 C8.1 97.7 9.52 98.68 10.27 98.6 C10.95 98.53 11.92 99.8 11.92 100.93 C11.92 100.93
							 13.57 100.48 13.05 97.18 C13.05 97.18 13.12 95.3 14.62 95.6 C14.62 95.6 13.27 97.48 14.32 100.33 L15
							 101.08 C15 101.08 14.92 99.05 16.87 98.6 C18.82 98.23 18.97 97.4 18.97 97.4 C18.97 97.4 18.07 100.18
							 18.75 101.3 C19.42 102.35 20.77 102.65 21.37 102.58 C21.9 102.5 21.9 103.78 21.75 104.15 C21.6 104.6
							 21.45 105.88 22.27 104.68 C23.02 103.4 22.42 102.2 23.02 104.08 C23.02 104.08 23.25 104.98 23.55 104.08
							 C23.55 104.08 24.15 103.18 25.42 103.93 C25.42 103.93 26.32 104.3 26.47 103.18 C26.47 103.18 26.92 104.23
							 25.57 105.35 C25.57 105.35 25.05 105.95 25.2 106.78 L1.87 106.78 Z" class="st6"/>
			</g>
			<g id="shape6220-35" v:mID="6220" v:groupContext="shape" transform="translate(39.9675,-10.8525)">
				<title>shape12</title>
				<path d="M1.12 106.7 C1.12 106.7 1.12 105.5 0.52 105.5 C0 105.5 0.9 105.05 1.42 105.58 C1.95 106.1 1.42 105.05 1.2
							 104.6 C1.05 104.08 1.12 103.1 1.95 103.1 C2.7 103.1 3.45 103.25 3.07 99.28 C3.07 99.28 3.82 100.18 4.5
							 100.18 C5.1 100.18 5.7 101.68 5.55 102.05 C5.47 102.43 6.97 101.9 7.2 100.1 C7.42 98.3 7.95 96.5 8.55
							 95.98 C9.15 95.38 8.02 96.28 8.02 98.75 C8.02 101.3 9 102.5 10.12 101.9 C10.12 101.9 10.27 100.33 11.25
							 100.03 C12.22 99.73 12.75 99.43 12.75 99.28 C12.75 99.05 11.47 103.25 14.32 103.25 C14.32 103.25 15
							 104.15 14.25 105.43 C13.5 106.78 14.7 104.9 15.3 105.28 C15.3 105.28 15 105.28 14.62 105.88 C14.32 106.4
							 14.4 106.78 14.4 106.78 L1.12 106.7 Z" class="st7"/>
			</g>
			<g id="shape6221-37" v:mID="6221" v:groupContext="shape" transform="translate(54.8925,-10.815)">
				<title>shape13</title>
				<path d="M4.12 106.7 C4.12 106.7 3.37 104.9 4.57 104.15 C4.57 104.15 3.37 103.33 3.07 105.73 C3.07 105.73 2.47 106.4
							 2.1 103.1 C2.1 103.1 2.32 105.73 1.8 106.03 C1.27 106.33 0.97 105.58 1.5 104.98 C1.5 104.98 0.52 104.45
							 1.05 106.03 C1.05 106.03 1.05 105.13 0 106.78 L4.12 106.7 Z" class="st7"/>
			</g>
			<g id="shape6222-39" v:mID="6222" v:groupContext="shape" transform="translate(36.195,-10.725)">
				<title>shape14</title>
				<path d="M0.6 106.63 C0.6 106.63 1.42 104.3 0 104.23 C0 104.23 1.72 102.8 1.5 105.43 C1.5 105.43 2.1 105.73 2.62
							 103.48 C2.62 103.48 2.92 104.38 2.47 105.43 C2.02 106.55 3.15 106.33 3.22 104.98 C3.22 104.98 3.67 105.35
							 3.45 106.18 C3.45 106.18 4.65 105.73 4.27 106.78 L0.6 106.63 Z" class="st7"/>
			</g>
			<g id="shape6223-41" v:mID="6223" v:groupContext="shape" transform="translate(13.8375,-10.8525)">
				<title>shape15</title>
				<path d="M0.9 106.78 C0.9 106.78 0 104.83 0.3 102.2 C0.3 102.2 1.57 104.15 2.85 103.18 C4.12 102.2 4.42 99.65 4.12
							 96.2 C4.12 96.2 5.02 98.53 5.62 98.9 C6.22 99.35 8.77 101.38 8.7 104.68 C8.7 104.68 9.75 104.68 9.75
							 102.05 C9.75 102.05 10.8 102.95 10.8 104.6 C10.8 104.6 11.32 102.73 12.97 103.03 C12.97 103.03 12.07
							 106.4 12.75 106.7 L0.9 106.78 Z" class="st5"/>
			</g>
			<g id="shape6224-43" v:mID="6224" v:groupContext="shape" transform="translate(16.6125,-10.815)">
				<title>shape16</title>
				<path d="M0.3 106.78 C0.3 106.78 0 105.95 0.68 105.65 C1.43 105.35 0.83 103.4 0.38 103.1 C0.38 103.1 1.05 102.73
							 1.73 103.78 C1.73 103.78 1.65 102.13 2.55 101.38 C2.55 101.38 3.08 100.85 2.1 98.83 C2.1 98.83 1.65
							 97.85 1.73 97.33 C1.73 97.33 2.63 99.58 3.6 99.8 C3.6 99.8 5.25 101.08 5.25 103.18 C5.25 103.18 5.33
							 106.4 6.45 104.83 C6.45 104.83 6.45 105.8 6.98 104.98 C7.43 104.15 7.35 103.33 7.35 103.33 C7.35 103.33
							 7.88 104.68 7.35 105.43 C7.35 105.43 8.03 105.58 8.33 104.75 C8.55 103.93 9.9 103.55 9.9 103.55 C9.9
							 103.55 8.48 104.98 8.55 105.43 C8.63 105.95 8.63 106.63 8.55 106.63 L0.3 106.78 Z" class="st6"/>
			</g>
			<g id="shape6225-45" v:mID="6225" v:groupContext="shape" transform="translate(18.1575,-10.77)">
				<title>shape17</title>
				<path d="M0.15 106.78 C0.15 106.78 0.98 105.43 0 104.9 C0 104.9 0.38 104.53 0.68 104.68 C0.68 104.68 0.9 103.85 1.28
							 103.4 C1.65 103.03 1.73 101.75 1.73 101.75 C1.73 101.75 2.03 103.1 1.95 104 C1.88 104.83 2.33 105.43
							 2.63 105.43 C2.63 105.43 2.85 104 3.23 104.08 C3.23 104.08 3.3 105.2 3 105.88 C3 105.88 3.38 105.2 4.13
							 105.95 C4.13 105.95 3.53 106.18 3.53 106.7 L0.15 106.78 Z" class="st7"/>
			</g>
			<g id="shape6226-47" v:mID="6226" v:groupContext="shape" transform="translate(81.825,-10.77) scale(-1,1)">
				<title>shape18</title>
				<path d="M0.9 106.78 C0.9 106.78 0 104.83 0.3 102.2 C0.3 102.2 1.57 104.15 2.85 103.18 C4.12 102.2 4.42 99.65 4.12
							 96.2 C4.12 96.2 5.02 98.53 5.62 98.9 C6.22 99.35 8.77 101.38 8.7 104.68 C8.7 104.68 9.75 104.68 9.75
							 102.05 C9.75 102.05 10.8 102.95 10.8 104.6 C10.8 104.6 11.32 102.73 12.97 103.03 C12.97 103.03 12.07
							 106.4 12.75 106.7 L0.9 106.78 Z" class="st5"/>
			</g>
			<g id="shape6227-49" v:mID="6227" v:groupContext="shape" transform="translate(79.05,-10.77) scale(-1,1)">
				<title>shape19</title>
				<path d="M0.3 106.78 C0.3 106.78 0 105.95 0.68 105.65 C1.43 105.35 0.83 103.4 0.38 103.1 C0.38 103.1 1.05 102.73
							 1.73 103.78 C1.73 103.78 1.65 102.13 2.55 101.38 C2.55 101.38 3.08 100.85 2.1 98.83 C2.1 98.83 1.65
							 97.85 1.73 97.33 C1.73 97.33 2.63 99.58 3.6 99.8 C3.6 99.8 5.25 101.08 5.25 103.18 C5.25 103.18 5.33
							 106.4 6.45 104.83 C6.45 104.83 6.45 105.8 6.98 104.98 C7.43 104.15 7.35 103.33 7.35 103.33 C7.35 103.33
							 7.88 104.68 7.35 105.43 C7.35 105.43 8.03 105.58 8.33 104.75 C8.55 103.93 9.9 103.55 9.9 103.55 C9.9
							 103.55 8.48 104.98 8.55 105.43 C8.63 105.95 8.63 106.63 8.55 106.63 L0.3 106.78 Z" class="st6"/>
			</g>
			<g id="shape6228-51" v:mID="6228" v:groupContext="shape" transform="translate(77.475,-10.695) scale(-1,1)">
				<title>shape20</title>
				<path d="M0.15 106.78 C0.15 106.78 0.98 105.43 0 104.9 C0 104.9 0.38 104.53 0.68 104.68 C0.68 104.68 0.9 103.85 1.28
							 103.4 C1.65 103.03 1.73 101.75 1.73 101.75 C1.73 101.75 2.03 103.1 1.95 104 C1.88 104.83 2.33 105.43
							 2.63 105.43 C2.63 105.43 2.85 104 3.23 104.08 C3.23 104.08 3.3 105.2 3 105.88 C3 105.88 3.38 105.2 4.13
							 105.95 C4.13 105.95 3.53 106.18 3.53 106.7 L0.15 106.78 Z" class="st7"/>
			</g>
		</g>
	</g>
</svg>
