<?xml version="1.0" encoding="UTF-8" standalone="no"?>
<!DOCTYPE svg PUBLIC "-//W3C//DTD SVG 1.1//EN" "http://www.w3.org/Graphics/SVG/1.1/DTD/svg11.dtd">
<!-- 由 Microsoft Visio, SVG Export 生成 罐27.svg 页-1 -->
<svg xmlns="http://www.w3.org/2000/svg" xmlns:xlink="http://www.w3.org/1999/xlink" xmlns:ev="http://www.w3.org/2001/xml-events"
		xmlns:v="http://schemas.microsoft.com/visio/2003/SVGExtensions/" width="0.890625in" height="1.22271in"
		viewBox="0 0 64.125 88.035" xml:space="preserve" color-interpolation-filters="sRGB" class="st18">
	<v:documentProperties v:langID="2052" v:metric="true" v:viewMarkup="false"/>

	<style type="text/css">
	<![CDATA[
		.st1 {fill:url(#grad0-5);stroke:none;stroke-linecap:butt;stroke-width:0.75}
		.st2 {fill:url(#grad0-9);stroke:none;stroke-linecap:butt;stroke-width:0.75}
		.st3 {fill:url(#grad0-16);stroke:none;stroke-linecap:butt;stroke-width:0.75}
		.st4 {fill:#195a6d;stroke:none;stroke-linecap:butt;stroke-width:0.75}
		.st5 {fill:#577373;stroke:none;stroke-linecap:butt;stroke-width:0.75}
		.st6 {fill:#ffffff;fill-opacity:0.23;stroke:none;stroke-linecap:butt;stroke-width:0.75}
		.st7 {fill:#000000;fill-opacity:0.13;stroke:none;stroke-linecap:butt;stroke-width:0.75}
		.st8 {fill:url(#grad3-39);stroke:#20738a;stroke-linecap:butt;stroke-width:0.1875}
		.st9 {fill:#2a8ba7;stroke:none;stroke-linecap:butt;stroke-width:0.75}
		.st10 {fill:#298ba7;stroke:none;stroke-linecap:butt;stroke-width:0.75}
		.st11 {fill:#3e3938;stroke:#000000;stroke-linecap:butt;stroke-width:0.75}
		.st12 {fill:url(#grad0-56);stroke:none;stroke-linecap:butt;stroke-width:0.75}
		.st13 {fill:#dcdcdd;stroke:none;stroke-linecap:butt;stroke-width:0.75}
		.st14 {fill:url(#grad0-84);stroke:none;stroke-linecap:butt;stroke-width:0.75}
		.st15 {fill:url(#grad0-88);stroke:none;stroke-linecap:butt;stroke-width:0.75}
		.st16 {fill:url(#grad0-92);stroke:none;stroke-linecap:butt;stroke-width:0.75}
		.st17 {fill:url(#grad0-96);stroke:none;stroke-linecap:butt;stroke-width:0.75}
		.st18 {fill:none;fill-rule:evenodd;font-size:12px;overflow:visible;stroke-linecap:square;stroke-miterlimit:3}
	]]>
	</style>

	<defs id="Patterns_And_Gradients">
		<linearGradient id="grad0-5" x1="0" y1="0" x2="1" y2="0" gradientTransform="rotate(-180 0.5 0.5)">
			<stop offset="0" stop-color="#1a6d83" stop-opacity="1"/>
			<stop offset="0.09" stop-color="#1a6f85" stop-opacity="1"/>
			<stop offset="0.36" stop-color="#85adbe" stop-opacity="1"/>
			<stop offset="0.56" stop-color="#1e7b94" stop-opacity="1"/>
			<stop offset="0.83" stop-color="#166277" stop-opacity="1"/>
			<stop offset="1" stop-color="#0d4454" stop-opacity="1"/>
		</linearGradient>
		<linearGradient id="grad0-9" x1="0" y1="0" x2="1" y2="0" gradientTransform="rotate(-180 0.5 0.5)">
			<stop offset="0" stop-color="#1e6c83" stop-opacity="1"/>
			<stop offset="0.03" stop-color="#82b5ca" stop-opacity="1"/>
			<stop offset="0.08" stop-color="#2a8eab" stop-opacity="1"/>
			<stop offset="0.64" stop-color="#2a8ca8" stop-opacity="1"/>
			<stop offset="0.95" stop-color="#2889a4" stop-opacity="1"/>
			<stop offset="1" stop-color="#1b6479" stop-opacity="1"/>
		</linearGradient>
		<linearGradient id="grad0-16" x1="0" y1="0" x2="1" y2="0" gradientTransform="rotate(-180 0.5 0.5)">
			<stop offset="0" stop-color="#2b2827" stop-opacity="1"/>
			<stop offset="0.15" stop-color="#5b5858" stop-opacity="1"/>
			<stop offset="0.32" stop-color="#b8b7b7" stop-opacity="1"/>
			<stop offset="0.56" stop-color="#353130" stop-opacity="1"/>
			<stop offset="0.75" stop-color="#2e2a29" stop-opacity="1"/>
			<stop offset="0.8" stop-color="#2b2726" stop-opacity="1"/>
			<stop offset="0.92" stop-color="#282424" stop-opacity="1"/>
			<stop offset="1" stop-color="#2f2b2b" stop-opacity="1"/>
		</linearGradient>
		<radialGradient id="grad3-39" cx="0.5" cy="0.5" r="0.73">
			<stop offset="0" stop-color="#145061" stop-opacity="1"/>
			<stop offset="0.85" stop-color="#1f6e84" stop-opacity="1"/>
			<stop offset="0.92" stop-color="#207187" stop-opacity="1"/>
		</radialGradient>
		<linearGradient id="grad0-56" x1="0" y1="0" x2="1" y2="0" gradientTransform="rotate(90 0.5 0.5)">
			<stop offset="0" stop-color="#afafb0" stop-opacity="1"/>
			<stop offset="0.09" stop-color="#b2b2b3" stop-opacity="1"/>
			<stop offset="0.36" stop-color="#e4e4e5" stop-opacity="1"/>
			<stop offset="0.56" stop-color="#c5c5c6" stop-opacity="1"/>
			<stop offset="0.83" stop-color="#9e9e9f" stop-opacity="1"/>
			<stop offset="1" stop-color="#717171" stop-opacity="1"/>
		</linearGradient>
		<linearGradient id="grad0-84" x1="0" y1="0" x2="1" y2="0" gradientTransform="rotate(-180 0.5 0.5)">
			<stop offset="0" stop-color="#909191" stop-opacity="1"/>
			<stop offset="0.03" stop-color="#d8d9d9" stop-opacity="1"/>
			<stop offset="0.08" stop-color="#bdbebe" stop-opacity="1"/>
			<stop offset="0.64" stop-color="#bababa" stop-opacity="1"/>
			<stop offset="0.95" stop-color="#b5b6b6" stop-opacity="1"/>
			<stop offset="1" stop-color="#868787" stop-opacity="1"/>
		</linearGradient>
		<linearGradient id="grad0-88" x1="0" y1="0" x2="1" y2="0" gradientTransform="rotate(-180 0.5 0.5)">
			<stop offset="0" stop-color="#ab642d" stop-opacity="1"/>
			<stop offset="0.03" stop-color="#f5ad88" stop-opacity="1"/>
			<stop offset="0.08" stop-color="#df833d" stop-opacity="1"/>
			<stop offset="0.64" stop-color="#db813c" stop-opacity="1"/>
			<stop offset="0.95" stop-color="#d67e3a" stop-opacity="1"/>
			<stop offset="1" stop-color="#9f5c29" stop-opacity="1"/>
		</linearGradient>
		<linearGradient id="grad0-92" x1="0" y1="0" x2="1" y2="0" gradientTransform="rotate(-180 0.5 0.5)">
			<stop offset="0" stop-color="#3d3b3b" stop-opacity="1"/>
			<stop offset="0.03" stop-color="#908f8f" stop-opacity="1"/>
			<stop offset="0.08" stop-color="#514f4f" stop-opacity="1"/>
			<stop offset="0.64" stop-color="#504e4e" stop-opacity="1"/>
			<stop offset="0.95" stop-color="#4e4c4c" stop-opacity="1"/>
			<stop offset="1" stop-color="#383636" stop-opacity="1"/>
		</linearGradient>
		<linearGradient id="grad0-96" x1="0" y1="0" x2="1" y2="0" gradientTransform="rotate(-180 0.5 0.5)">
			<stop offset="0" stop-color="#9b5928" stop-opacity="1"/>
			<stop offset="0.03" stop-color="#e4a585" stop-opacity="1"/>
			<stop offset="0.08" stop-color="#cb7636" stop-opacity="1"/>
			<stop offset="0.64" stop-color="#c77435" stop-opacity="1"/>
			<stop offset="0.95" stop-color="#c37234" stop-opacity="1"/>
			<stop offset="1" stop-color="#905324" stop-opacity="1"/>
		</linearGradient>
	</defs>
	<g v:mID="0" v:index="1" v:groupContext="foregroundPage">
		<title>页-1</title>
		<v:pageProperties v:drawingScale="0.0393701" v:pageScale="0.0393701" v:drawingUnits="24" v:shadowOffsetX="8.50394"
				v:shadowOffsetY="-8.50394"/>
		<g id="group5904-1" transform="translate(0.75,-0.75)" v:mID="5904" v:groupContext="group">
			<title>包装火管锅炉</title>
			<g id="shape5905-2" v:mID="5905" v:groupContext="shape" transform="translate(1.665,-56.76)">
				<title>shape1</title>
				<path d="M0 88.03 C0 71.61 13.28 58.26 29.63 58.26 C46.05 58.26 59.33 71.61 59.33 88.03 L0 88.03 Z" class="st1"/>
			</g>
			<g id="shape5906-6" v:mID="5906" v:groupContext="shape" transform="translate(1.665,-4.32)">
				<title>shape2</title>
				<path d="M0 36.51 C0 20.08 13.28 6.74 29.63 6.74 C46.05 6.74 59.33 20.08 59.33 36.51 L59.33 88.03 L0 88.03 L0 36.51
							 Z" class="st2"/>
			</g>
			<g id="shape5907-10" v:mID="5907" v:groupContext="shape" transform="translate(1.665,-4.3275)">
				<title>shape3</title>
				<path d="M0 36.36 L59.33 36.36 L59.33 88.03 L0 88.03 L0 36.36 Z" class="st2"/>
			</g>
			<g id="shape5908-13" v:mID="5908" v:groupContext="shape">
				<title>shape5</title>
				<path d="M0 83.68 L62.63 83.68 L62.63 88.03 L0 88.03 L0 83.68 Z" class="st3"/>
			</g>
			<g id="shape5909-17" v:mID="5909" v:groupContext="shape" transform="translate(9.435,-44.4525)">
				<title>shape6</title>
				<path d="M0.75 63.96 L44.1 63.96 C44.55 63.96 44.93 64.33 44.93 64.71 L44.93 87.28 C44.93 87.66 44.55 88.03 44.1
							 88.03 L0.75 88.03 C0.38 88.03 0 87.66 0 87.28 L0 64.71 C0 64.33 0.38 63.96 0.75 63.96 Z" class="st4"/>
			</g>
			<g id="group5910-19" transform="translate(46.575,-68.325)" v:mID="5910" v:groupContext="group">
				<title>工作表.5910</title>
				<g id="shape5911-20" v:mID="5911" v:groupContext="shape" transform="translate(2.3475,-0.0375)">
					<title>shape7</title>
					<path d="M0.23 77.61 C0.68 77.61 0.9 79.48 0.68 82.78 C0.53 86.16 0.68 88.03 0.68 88.03 C0.23 88.03 0 85.93 0.23
								 82.78 C0.45 79.71 0.23 77.61 0.23 77.61 Z" class="st5"/>
				</g>
				<g id="shape5912-22" v:mID="5912" v:groupContext="shape" transform="translate(2.7375,1.42109E-13)">
					<title>shape8</title>
					<path d="M0.15 77.68 C0.3 77.68 0.45 79.71 0.3 82.86 C0.15 86.23 0.3 88.03 0.3 88.03 C0.15 88.03 0 85.93 0.15
								 82.86 C0.3 80.16 0.15 77.68 0.15 77.68 Z" class="st6"/>
				</g>
				<g id="shape5913-24" v:mID="5913" v:groupContext="shape" transform="translate(2.325,1.42109E-13)">
					<title>shape9</title>
					<path d="M0.3 77.68 C0.45 77.68 0.6 79.71 0.37 82.86 C0.22 86.23 0.45 88.03 0.45 88.03 C0.22 88.03 0 85.11 0.22
								 82.86 C0.45 80.61 0.3 77.68 0.3 77.68 Z" class="st7"/>
				</g>
				<g id="shape5914-26" v:mID="5914" v:groupContext="shape" transform="translate(-3.4972E-15,-10.29)">
					<title>shape10</title>
					<path d="M0 87.43 C0 87.43 0.98 87.58 1.5 87.43 C2.03 87.28 2.7 87.36 2.85 87.43 C3 87.51 3.08 87.88 3.08 87.88
								 C3.08 87.88 2.25 87.81 1.5 87.88 C0.75 88.03 0 87.88 0 87.43 Z" class="st5"/>
				</g>
				<g id="shape5915-28" v:mID="5915" v:groupContext="shape" transform="translate(6.4948E-15,-10.1775)">
					<title>shape11</title>
					<path d="M0 87.66 C0 87.66 0.98 87.73 1.5 87.66 C2.48 87.51 2.78 87.58 2.78 87.88 C2.85 88.03 2.63 87.88 2.63
								 87.88 C2.63 87.88 2.7 87.58 1.5 87.81 C0.75 87.88 0 87.81 0 87.66 Z" class="st7"/>
				</g>
				<g id="shape5916-30" v:mID="5916" v:groupContext="shape" transform="translate(0,-10.29)">
					<title>shape12</title>
					<path d="M0 87.43 C0 87.43 0.98 87.51 1.5 87.43 C2.48 87.36 3.23 87.21 3.08 87.96 C3.08 87.96 2.93 88.03 2.93
								 88.03 C2.93 88.03 3 87.21 1.65 87.58 C0.9 87.73 0 87.51 0 87.43 Z" class="st6"/>
				</g>
			</g>
			<g id="shape5917-32" v:mID="5917" v:groupContext="shape" transform="translate(9.84,-44.955)">
				<title>shape13</title>
				<path d="M0.75 64.93 L43.35 64.93 C43.73 64.93 44.1 65.23 44.1 65.68 L44.1 87.28 C44.1 87.73 43.73 88.03 43.35 88.03
							 L0.75 88.03 C0.38 88.03 0 87.73 0 87.28 L0 65.68 C0 65.23 0.38 64.93 0.75 64.93 Z" class="st2"/>
			</g>
			<g id="group5918-35" transform="translate(19.9575,-8.7975)" v:mID="5918" v:groupContext="group">
				<title>工作表.5918</title>
				<g id="shape5919-36" v:mID="5919" v:groupContext="shape" transform="translate(6.39488E-14,-4.5075)">
					<title>shape14</title>
					<path d="M0 76.78 C0 70.63 5.03 65.61 11.18 65.61 C17.33 65.61 22.28 70.63 22.28 76.78 C22.28 83.01 17.33 88.03
								 11.18 88.03 C5.03 88.03 0 83.01 0 76.78 Z" class="st8"/>
				</g>
				<g id="shape5920-40" v:mID="5920" v:groupContext="shape" transform="translate(1.3425,-5.8575)">
					<title>shape15</title>
					<path d="M0 78.13 C0 72.73 4.43 68.31 9.83 68.31 C15.23 68.31 19.58 72.73 19.58 78.13 C19.58 83.61 15.23 88.03
								 9.83 88.03 C4.43 88.03 0 83.61 0 78.13 Z" class="st9"/>
				</g>
				<g id="shape5921-42" v:mID="5921" v:groupContext="shape" transform="translate(2.0475,-6.5775)">
					<title>shape16</title>
					<path d="M0 78.88 C0 73.86 4.05 69.73 9.08 69.73 C14.1 69.73 18.23 73.86 18.23 78.88 C18.23 83.91 14.1 88.03
								 9.08 88.03 C4.05 88.03 0 83.91 0 78.88 Z" class="st8"/>
				</g>
				<g id="shape5922-45" v:mID="5922" v:groupContext="shape" transform="translate(2.7675,-7.35)">
					<title>shape17</title>
					<path d="M0 79.63 C0 74.98 3.75 71.23 8.4 71.23 C12.98 71.23 16.73 74.98 16.73 79.63 C16.73 84.28 12.98 88.03
								 8.4 88.03 C3.75 88.03 0 84.28 0 79.63 Z" class="st10"/>
				</g>
				<g id="shape5923-47" v:mID="5923" v:groupContext="shape" transform="translate(4.8975,-9.48)">
					<title>shape18</title>
					<path d="M1.12 75.51 L11.4 75.51 C12 75.51 12.52 76.03 12.52 76.63 L12.52 86.91 C12.52 87.51 12 88.03 11.4 88.03
								 L1.12 88.03 C0.52 88.03 0 87.51 0 86.91 L0 76.63 C0 76.03 0.52 75.51 1.12 75.51 Z" class="st8"/>
				</g>
				<g id="shape5924-50" v:mID="5924" v:groupContext="shape" transform="translate(5.7075,-10.32)">
					<title>shape19</title>
					<path d="M0.98 77.16 L9.9 77.16 C10.43 77.16 10.88 77.61 10.88 78.13 L10.88 87.06 C10.88 87.66 10.43 88.03 9.9
								 88.03 L0.98 88.03 C0.45 88.03 0 87.66 0 87.06 L0 78.13 C0 77.61 0.45 77.16 0.98 77.16 Z"
							class="st11"/>
				</g>
				<g id="group5925-52" transform="translate(14.865,-5.22)" v:mID="5925" v:groupContext="group">
					<title>工作表.5925</title>
					<g id="shape5926-53" v:mID="5926" v:groupContext="shape" transform="translate(0.9975,-0.3375)">
						<title>shape20</title>
						<path d="M0 78.66 L12.9 78.66 C12.9 78.66 13.88 78.96 13.88 83.46 C13.88 88.03 12.9 87.96 12.9 87.96 L0 87.96
									 L0 78.66 Z" class="st12"/>
					</g>
					<g id="shape5927-57" v:mID="5927" v:groupContext="shape">
						<title>shape21</title>
						<path d="M0.53 77.91 C0.83 77.91 1.05 78.21 1.05 78.66 L1.05 87.28 C1.05 87.73 0.83 88.03 0.53 88.03 C0.23
									 88.03 0 87.73 0 87.28 L0 78.66 C0 78.21 0.23 77.91 0.53 77.91 Z" class="st12"/>
					</g>
					<g id="group5928-60" transform="translate(2.265,-1.38)" v:mID="5928" v:groupContext="group">
						<title>工作表.5928</title>
						<g id="shape5929-61" v:mID="5929" v:groupContext="shape" transform="translate(-2.59792E-14,-5.3775)">
							<title>shape22</title>
							<path d="M0.07 87.43 L7.57 87.43 C7.65 87.43 7.65 87.51 7.65 87.58 C7.65 87.96 7.65 88.03 7.57 88.03
										 L0.07 88.03 C0 88.03 0 87.96 0 87.81 C0 87.51 0 87.43 0.07 87.43 Z" class="st12"/>
						</g>
						<g id="shape5930-64" v:mID="5930" v:groupContext="shape" transform="translate(-2.59792E-14,-6.72)">
							<title>shape23</title>
							<path d="M0.07 87.43 L7.57 87.43 C7.65 87.43 7.65 87.51 7.65 87.58 C7.65 87.96 7.65 88.03 7.57 88.03
										 L0.07 88.03 C0 88.03 0 87.96 0 87.81 C0 87.51 0 87.43 0.07 87.43 Z" class="st12"/>
						</g>
						<g id="shape5931-67" v:mID="5931" v:groupContext="shape" transform="translate(-2.59792E-14,-4.035)">
							<title>shape24</title>
							<path d="M0.07 87.43 L7.57 87.43 C7.65 87.43 7.65 87.51 7.65 87.58 C7.65 87.96 7.65 88.03 7.57 88.03
										 L0.07 88.03 C0 88.03 0 87.96 0 87.81 C0 87.51 0 87.43 0.07 87.43 Z" class="st12"/>
						</g>
						<g id="shape5932-70" v:mID="5932" v:groupContext="shape" transform="translate(-2.59792E-14,-2.685)">
							<title>shape25</title>
							<path d="M0.07 87.43 L7.57 87.43 C7.65 87.43 7.65 87.51 7.65 87.58 C7.65 87.96 7.65 88.03 7.57 88.03
										 L0.07 88.03 C0 88.03 0 87.96 0 87.81 C0 87.51 0 87.43 0.07 87.43 Z" class="st12"/>
						</g>
						<g id="shape5933-73" v:mID="5933" v:groupContext="shape" transform="translate(-2.59792E-14,-1.3425)">
							<title>shape26</title>
							<path d="M0.07 87.43 L7.57 87.43 C7.65 87.43 7.65 87.51 7.65 87.58 C7.65 87.96 7.65 88.03 7.57 88.03
										 L0.07 88.03 C0 88.03 0 87.96 0 87.81 C0 87.51 0 87.43 0.07 87.43 Z" class="st12"/>
						</g>
						<g id="shape5934-76" v:mID="5934" v:groupContext="shape">
							<title>shape27</title>
							<path d="M0.07 87.43 L7.57 87.43 C7.65 87.43 7.65 87.51 7.65 87.58 C7.65 87.96 7.65 88.03 7.57 88.03
										 L0.07 88.03 C0 88.03 0 87.96 0 87.81 C0 87.51 0 87.43 0.07 87.43 Z" class="st12"/>
						</g>
					</g>
				</g>
				<g id="shape5935-79" v:mID="5935" v:groupContext="shape" transform="translate(6.225,-10.7775)">
					<title>shape28</title>
					<path d="M0.9 78.13 L9 78.13 C9.45 78.13 9.83 78.51 9.83 79.03 L9.83 87.13 C9.83 87.58 9.45 88.03 9 88.03 L0.9
								 88.03 C0.38 88.03 0 87.58 0 87.13 L0 79.03 C0 78.51 0.38 78.13 0.9 78.13 Z" class="st13"/>
				</g>
				<g id="shape5936-81" v:mID="5936" v:groupContext="shape" transform="translate(6.2175,-17.955)">
					<title>shape29</title>
					<path d="M0 86.38 L9.9 86.38 L9.9 88.03 L0 88.03 L0 86.38 Z" class="st14"/>
				</g>
				<g id="shape5937-85" v:mID="5937" v:groupContext="shape" transform="translate(4.14,-4.02)">
					<title>shape30</title>
					<path d="M1.28 74.01 L12.75 74.01 C13.43 74.01 14.03 74.53 14.03 75.28 L14.03 86.83 C14.03 87.51 13.43 88.03
								 12.75 88.03 L1.28 88.03 C0.53 88.03 0 87.51 0 86.83 L0 75.28 C0 74.53 0.53 74.01 1.28 74.01 Z"
							class="st15"/>
				</g>
				<g id="shape5938-89" v:mID="5938" v:groupContext="shape" transform="translate(5.2125,0)">
					<title>shape31</title>
					<path d="M11.85 84.06 L11.85 87.66 C11.85 87.81 11.7 88.03 11.48 88.03 L0.38 88.03 C0.15 88.03 0 87.81 0 87.66
								 L0 84.06 L11.85 84.06 Z" class="st16"/>
				</g>
				<g id="shape5939-93" v:mID="5939" v:groupContext="shape" transform="translate(4.11,-3.99)">
					<title>shape32</title>
					<path d="M14.02 83.68 L14.1 86.76 C14.1 87.43 13.5 88.03 12.82 88.03 L1.27 88.03 C0.6 88.03 0.07 87.43 0.07 86.76
								 L0 83.68 L14.02 83.68 Z" class="st17"/>
				</g>
			</g>
			<g id="group5940-97" transform="translate(16.0425,-73.1925)" v:mID="5940" v:groupContext="group">
				<title>工作表.5940</title>
				<g id="shape5941-98" v:mID="5941" v:groupContext="shape">
					<title>shape33</title>
					<path d="M0.22 80.98 L12.97 80.98 C13.12 80.98 13.2 81.06 13.2 81.21 L13.2 87.81 C13.2 87.96 13.12 88.03 12.97
								 88.03 L0.22 88.03 C0.07 88.03 0 87.96 0 87.81 L0 81.21 C0 81.06 0.07 80.98 0.22 80.98 Z"
							class="st4"/>
				</g>
				<g id="shape5942-100" v:mID="5942" v:groupContext="shape" transform="translate(0.12,-0.0825)">
					<title>shape34</title>
					<path d="M0.22 81.21 L12.75 81.21 C12.9 81.21 12.97 81.28 12.97 81.43 L12.97 87.81 C12.97 87.88 12.9 88.03 12.75
								 88.03 L0.22 88.03 C0.07 88.03 0 87.88 0 87.81 L0 81.43 C0 81.28 0.07 81.21 0.22 81.21 Z"
							class="st2"/>
				</g>
			</g>
			<g id="group5943-103" transform="translate(33.45,-73.1925)" v:mID="5943" v:groupContext="group">
				<title>工作表.5943</title>
				<g id="shape5944-104" v:mID="5944" v:groupContext="shape">
					<title>shape35</title>
					<path d="M0.22 80.98 L12.97 80.98 C13.12 80.98 13.2 81.06 13.2 81.21 L13.2 87.81 C13.2 87.96 13.12 88.03 12.97
								 88.03 L0.22 88.03 C0.07 88.03 0 87.96 0 87.81 L0 81.21 C0 81.06 0.07 80.98 0.22 80.98 Z"
							class="st4"/>
				</g>
				<g id="shape5945-106" v:mID="5945" v:groupContext="shape" transform="translate(0.12,-0.0825)">
					<title>shape36</title>
					<path d="M0.22 81.21 L12.75 81.21 C12.9 81.21 12.97 81.28 12.97 81.43 L12.97 87.81 C12.97 87.88 12.9 88.03 12.75
								 88.03 L0.22 88.03 C0.07 88.03 0 87.88 0 87.81 L0 81.43 C0 81.28 0.07 81.21 0.22 81.21 Z"
							class="st2"/>
				</g>
			</g>
		</g>
	</g>
</svg>
