<?xml version="1.0" encoding="UTF-8" standalone="no"?>
<!DOCTYPE svg PUBLIC "-//W3C//DTD SVG 1.1//EN" "http://www.w3.org/Graphics/SVG/1.1/DTD/svg11.dtd">
<!-- 由 Microsoft Visio, SVG Export 生成 罐3.svg 页-1 -->
<svg xmlns="http://www.w3.org/2000/svg" xmlns:xlink="http://www.w3.org/1999/xlink" xmlns:ev="http://www.w3.org/2001/xml-events"
		xmlns:v="http://schemas.microsoft.com/visio/2003/SVGExtensions/" width="1.09333in" height="1.83302in"
		viewBox="0 0 78.72 131.977" xml:space="preserve" color-interpolation-filters="sRGB" class="st6">
	<v:documentProperties v:langID="2052" v:metric="true" v:viewMarkup="false"/>

	<style type="text/css">
	<![CDATA[
		.st1 {fill:url(#grad0-5);stroke:none;stroke-linecap:butt;stroke-width:0.75}
		.st2 {fill:url(#grad0-12);stroke:none;stroke-linecap:butt;stroke-width:0.75}
		.st3 {fill:url(#grad0-22);stroke:none;stroke-linecap:butt;stroke-width:0.75}
		.st4 {fill:url(#grad0-38);stroke:none;stroke-linecap:butt;stroke-width:0.75}
		.st5 {fill:url(#grad0-45);stroke:none;stroke-linecap:butt;stroke-width:0.75}
		.st6 {fill:none;fill-rule:evenodd;font-size:12px;overflow:visible;stroke-linecap:square;stroke-miterlimit:3}
	]]>
	</style>

	<defs id="Patterns_And_Gradients">
		<linearGradient id="grad0-5" x1="0" y1="0" x2="1" y2="0" gradientTransform="rotate(-180 0.5 0.5)">
			<stop offset="0" stop-color="#718696" stop-opacity="1"/>
			<stop offset="0.15" stop-color="#a2bbcf" stop-opacity="1"/>
			<stop offset="0.25" stop-color="#d0dbe4" stop-opacity="1"/>
			<stop offset="0.52" stop-color="#869fb1" stop-opacity="1"/>
			<stop offset="0.69" stop-color="#778d9e" stop-opacity="1"/>
			<stop offset="0.8" stop-color="#708595" stop-opacity="1"/>
			<stop offset="0.92" stop-color="#697d8c" stop-opacity="1"/>
			<stop offset="1" stop-color="#7a90a1" stop-opacity="1"/>
		</linearGradient>
		<linearGradient id="grad0-12" x1="0" y1="0" x2="1" y2="0" gradientTransform="rotate(-180 0.5 0.5)">
			<stop offset="0" stop-color="#5d758a" stop-opacity="1"/>
			<stop offset="0.15" stop-color="#8ca8c0" stop-opacity="1"/>
			<stop offset="0.25" stop-color="#c7d2dd" stop-opacity="1"/>
			<stop offset="0.52" stop-color="#6f8ba3" stop-opacity="1"/>
			<stop offset="0.69" stop-color="#627c91" stop-opacity="1"/>
			<stop offset="0.8" stop-color="#5c7489" stop-opacity="1"/>
			<stop offset="0.92" stop-color="#576e81" stop-opacity="1"/>
			<stop offset="1" stop-color="#657f94" stop-opacity="1"/>
		</linearGradient>
		<linearGradient id="grad0-22" x1="0" y1="0" x2="1" y2="0" gradientTransform="rotate(-180 0.5 0.5)">
			<stop offset="0" stop-color="#4c6a82" stop-opacity="1"/>
			<stop offset="0.15" stop-color="#799bb7" stop-opacity="1"/>
			<stop offset="0.25" stop-color="#c0ccd9" stop-opacity="1"/>
			<stop offset="0.52" stop-color="#5b7e9a" stop-opacity="1"/>
			<stop offset="0.69" stop-color="#507089" stop-opacity="1"/>
			<stop offset="0.8" stop-color="#4b6981" stop-opacity="1"/>
			<stop offset="0.92" stop-color="#47637a" stop-opacity="1"/>
			<stop offset="1" stop-color="#52738c" stop-opacity="1"/>
		</linearGradient>
		<linearGradient id="grad0-38" x1="0" y1="0" x2="1" y2="0" gradientTransform="rotate(90 0.5 0.5)">
			<stop offset="0" stop-color="#718696" stop-opacity="1"/>
			<stop offset="0.15" stop-color="#a2bbcf" stop-opacity="1"/>
			<stop offset="0.25" stop-color="#d0dbe4" stop-opacity="1"/>
			<stop offset="0.52" stop-color="#869fb1" stop-opacity="1"/>
			<stop offset="0.69" stop-color="#778d9e" stop-opacity="1"/>
			<stop offset="0.8" stop-color="#708595" stop-opacity="1"/>
			<stop offset="0.92" stop-color="#697d8c" stop-opacity="1"/>
			<stop offset="1" stop-color="#7a90a1" stop-opacity="1"/>
		</linearGradient>
		<linearGradient id="grad0-45" x1="0" y1="0" x2="1" y2="0" gradientTransform="rotate(90 0.5 0.5)">
			<stop offset="0" stop-color="#567286" stop-opacity="1"/>
			<stop offset="0.15" stop-color="#85a3bb" stop-opacity="1"/>
			<stop offset="0.25" stop-color="#c4d0db" stop-opacity="1"/>
			<stop offset="0.52" stop-color="#67879f" stop-opacity="1"/>
			<stop offset="0.69" stop-color="#5b788d" stop-opacity="1"/>
			<stop offset="0.8" stop-color="#567185" stop-opacity="1"/>
			<stop offset="0.92" stop-color="#506a7d" stop-opacity="1"/>
			<stop offset="1" stop-color="#5d7b90" stop-opacity="1"/>
		</linearGradient>
	</defs>
	<g v:mID="0" v:index="1" v:groupContext="foregroundPage">
		<title>页-1</title>
		<v:pageProperties v:drawingScale="0.0393701" v:pageScale="0.0393701" v:drawingUnits="24" v:shadowOffsetX="8.50394"
				v:shadowOffsetY="-8.50394"/>
		<g id="group4847-1" transform="translate(0.75,-0.75)" v:mID="4847" v:groupContext="group">
			<title>锅炉5</title>
			<g id="shape4848-2" v:mID="4848" v:groupContext="shape" transform="translate(64.425,242.767) scale(1,-1)">
				<title>shape1</title>
				<path d="M1.12 122.75 C1.95 122.75 2.47 123.28 2.47 123.88 L2.47 131.98 L0 131.98 L0 123.88 C0 123.28 0.52 122.75
							 1.12 122.75 Z" class="st1"/>
			</g>
			<g id="shape4849-6" v:mID="4849" v:groupContext="shape" transform="translate(64.4025,-121.252)">
				<title>shape2</title>
				<path d="M1.12 122.75 C1.95 122.75 2.47 123.28 2.47 123.88 L2.47 131.98 L0 131.98 L0 123.88 C0 123.28 0.52 122.75
							 1.12 122.75 Z" class="st1"/>
			</g>
			<g id="shape4850-9" v:mID="4850" v:groupContext="shape" transform="translate(58.8,-22.4775)">
				<title>shape3</title>
				<path d="M0 128.75 L14.17 128.75 L14.17 131.98 L0 131.98 L0 128.75 Z" class="st2"/>
			</g>
			<g id="shape4851-13" v:mID="4851" v:groupContext="shape" transform="translate(55.65,-20.625)">
				<title>shape4</title>
				<path d="M1.12 129.65 L18.22 129.65 C18.9 129.65 19.42 130.18 19.42 130.78 C19.42 131.45 18.9 131.98 18.22 131.98
							 L1.12 131.98 C0.52 131.98 0 131.45 0 130.78 C0 130.18 0.52 129.65 1.12 129.65 Z" class="st1"/>
			</g>
			<g id="shape4852-16" v:mID="4852" v:groupContext="shape" transform="translate(8.5425,-14.7)">
				<title>shape5</title>
				<path d="M0 30.65 L44.1 30.65 L44.1 131.98 L0 131.98 L0 30.65 Z" class="st1"/>
			</g>
			<g id="shape4853-19" v:mID="4853" v:groupContext="shape" transform="translate(8.5425,5.68434E-14)">
				<title>shape6</title>
				<path d="M0 116.9 L44.1 116.9 L44.1 131.98 L0 131.98 L0 116.9 Z" class="st3"/>
			</g>
			<g id="shape4854-23" v:mID="4854" v:groupContext="shape" transform="translate(8.5425,-115.987)">
				<title>shape7</title>
				<path d="M6 123.58 C10.95 120.8 16.2 119.53 22.05 119.6 C28.35 119.68 34.87 121.25 39 124.18 C42.9 126.95 44.1 131.98
							 44.1 131.98 L0 131.98 C0 131.98 0.15 126.8 6 123.58 Z" class="st1"/>
			</g>
			<g id="shape4855-26" v:mID="4855" v:groupContext="shape" transform="translate(59.6475,-44.25)">
				<title>shape8</title>
				<path d="M0 56.6 L12.45 56.6 L12.45 131.98 L0 131.98 L0 56.6 Z" class="st1"/>
			</g>
			<g id="shape4856-29" v:mID="4856" v:groupContext="shape" transform="translate(55.545,-25.185)">
				<title>shape9</title>
				<path d="M0 112.78 L21.67 112.78 L21.67 131.98 L0 131.98 L0 112.78 Z" class="st1"/>
			</g>
			<g id="shape4857-32" v:mID="4857" v:groupContext="shape" transform="translate(58.29,-119.272)">
				<title>shape10</title>
				<path d="M1.2 129.58 L14.03 129.58 C14.63 129.58 15.23 130.1 15.23 130.78 C15.23 131.45 14.63 131.98 14.03 131.98
							 L1.2 131.98 C0.53 131.98 0 131.45 0 130.78 C0 130.1 0.53 129.58 1.2 129.58 Z" class="st2"/>
			</g>
			<g id="shape4858-35" v:mID="4858" v:groupContext="shape" transform="translate(50.865,-103.2)">
				<title>shape11</title>
				<path d="M0 120.73 L3.83 120.73 L3.83 131.98 L0 131.98 L0 120.73 Z" class="st4"/>
			</g>
			<g id="shape4859-39" v:mID="4859" v:groupContext="shape" transform="translate(54.69,-103.118)">
				<title>shape12</title>
				<path d="M0 120.58 L6.82 120.58 L6.82 131.98 L0 131.98 L0 120.58 Z" class="st4"/>
			</g>
			<g id="shape4860-42" v:mID="4860" v:groupContext="shape" transform="translate(53.475,-102.202)">
				<title>shape13</title>
				<path d="M0.6 118.7 C0.98 118.7 1.2 119 1.2 119.3 L1.2 131.38 C1.2 131.75 0.98 131.98 0.6 131.98 C0.3 131.98 0 131.75
							 0 131.38 L0 119.3 C0 119 0.3 118.7 0.6 118.7 Z" class="st5"/>
			</g>
			<g id="shape4861-46" v:mID="4861" v:groupContext="shape" transform="translate(55.0425,-102.202)">
				<title>shape14</title>
				<path d="M0.6 118.7 C0.98 118.7 1.2 119 1.2 119.3 L1.2 131.38 C1.2 131.75 0.98 131.98 0.6 131.98 C0.3 131.98 0 131.75
							 0 131.38 L0 119.3 C0 119 0.3 118.7 0.6 118.7 Z" class="st5"/>
			</g>
			<g id="shape4862-49" v:mID="4862" v:groupContext="shape" transform="translate(8.5425,-47.5425)">
				<title>shape15</title>
				<path d="M0 129.65 L44.1 129.65 L44.1 131.98 L0 131.98 L0 129.65 Z" class="st2"/>
			</g>
			<g id="shape4863-52" v:mID="4863" v:groupContext="shape" transform="translate(23.475,-18.135)">
				<title>shape16</title>
				<path d="M0 124.55 C0 120.5 3.3 117.2 7.35 117.2 C11.4 117.2 14.77 120.5 14.77 124.55 C14.77 128.68 11.4 131.98 7.35
							 131.98 C3.3 131.98 0 128.68 0 124.55 Z" class="st1"/>
			</g>
			<g id="shape4864-55" v:mID="4864" v:groupContext="shape" transform="translate(21.6,-26.565)">
				<title>shape17</title>
				<path d="M0 129.65 L5.47 129.65 L5.47 131.98 L0 131.98 L0 129.65 Z" class="st1"/>
			</g>
			<g id="shape4865-58" v:mID="4865" v:groupContext="shape" transform="translate(21.6,-21.2775)">
				<title>shape18</title>
				<path d="M0 129.65 L5.47 129.65 L5.47 131.98 L0 131.98 L0 129.65 Z" class="st1"/>
			</g>
			<g id="shape4866-61" v:mID="4866" v:groupContext="shape" transform="translate(30.0825,-24.51)">
				<title>shape19</title>
				<path d="M0 129.95 L12.6 129.95 L12.6 131.98 L0 131.98 L0 129.95 Z" class="st4"/>
			</g>
			<g id="shape4867-64" v:mID="4867" v:groupContext="shape" transform="translate(39.7875,-22.9425)">
				<title>shape20</title>
				<path d="M0 126.88 L1.65 126.88 L1.65 131.98 L0 131.98 L0 126.88 Z" class="st4"/>
			</g>
			<g id="shape4868-67" v:mID="4868" v:groupContext="shape" transform="translate(-3.94684E-14,-42.2925)">
				<title>shape21</title>
				<path d="M8.4 128 L0 128 L0 131.98 L8.4 131.98 L8.4 128 Z" class="st4"/>
			</g>
			<g id="shape4869-70" v:mID="4869" v:groupContext="shape" transform="translate(52.6425,-32.7)">
				<title>shape22</title>
				<path d="M0 126.8 L2.92 126.8 L2.92 131.98 L0 131.98 L0 126.8 Z" class="st4"/>
			</g>
			<g id="shape4870-73" v:mID="4870" v:groupContext="shape" transform="translate(8.5425,-115.41)">
				<title>shape23</title>
				<path d="M0 130.85 L44.1 130.85 L44.1 131.98 L0 131.98 L0 130.85 Z" class="st2"/>
			</g>
		</g>
	</g>
</svg>
