<?xml version="1.0" encoding="UTF-8" standalone="no"?>
<!DOCTYPE svg PUBLIC "-//W3C//DTD SVG 1.1//EN" "http://www.w3.org/Graphics/SVG/1.1/DTD/svg11.dtd">
<!-- 由 Microsoft Visio, SVG Export 生成 罐6.svg 页-1 -->
<svg xmlns="http://www.w3.org/2000/svg" xmlns:xlink="http://www.w3.org/1999/xlink" xmlns:ev="http://www.w3.org/2001/xml-events"
		xmlns:v="http://schemas.microsoft.com/visio/2003/SVGExtensions/" width="1.2501in" height="1.60448in"
		viewBox="0 0 90.0075 115.523" xml:space="preserve" color-interpolation-filters="sRGB" class="st23">
	<v:documentProperties v:langID="2052" v:metric="true" v:viewMarkup="false"/>

	<style type="text/css">
	<![CDATA[
		.st1 {fill:url(#grad0-5);stroke:none;stroke-linecap:butt;stroke-width:0.75}
		.st2 {fill:#368688;stroke:none;stroke-linecap:butt;stroke-width:0.75}
		.st3 {fill:#50bec1;stroke:none;stroke-linecap:butt;stroke-width:0.75}
		.st4 {fill:#dcdcdd;stroke:#384e64;stroke-linecap:butt;stroke-width:0.75}
		.st5 {fill:#e35020;stroke:none;stroke-linecap:butt;stroke-width:0.753069}
		.st6 {fill:#4b6884;stroke:none;stroke-linecap:butt;stroke-width:0.75}
		.st7 {fill:#7d040f;stroke:none;stroke-linecap:butt;stroke-width:0.75}
		.st8 {fill:url(#grad0-45);stroke:#ffffff;stroke-linecap:butt;stroke-width:0.75}
		.st9 {fill:#276f71;stroke:none;stroke-linecap:butt;stroke-width:0.75}
		.st10 {fill:url(#grad0-52);stroke:#ffffff;stroke-linecap:butt;stroke-width:0.75}
		.st11 {fill:#000000;stroke:none;stroke-linecap:butt;stroke-width:0.75}
		.st12 {fill:url(#grad0-78);stroke:#ffffff;stroke-linecap:butt;stroke-width:0.75}
		.st13 {fill:url(#grad0-85);stroke:#ffffff;stroke-linecap:butt;stroke-width:0.75}
		.st14 {fill:#d1ebeb;stroke:#368688;stroke-linecap:butt;stroke-width:0.75}
		.st15 {fill:url(#grad0-132);stroke:none;stroke-linecap:butt;stroke-width:0.75}
		.st16 {fill:url(#grad0-146);stroke:none;stroke-linecap:butt;stroke-width:0.75}
		.st17 {fill:#ffffff;stroke:none;stroke-linecap:butt;stroke-width:0.75}
		.st18 {fill:#888889;stroke:none;stroke-linecap:butt;stroke-width:0.75}
		.st19 {fill:url(#grad0-174);stroke:none;stroke-linecap:butt;stroke-width:0.75}
		.st20 {fill:#ffffff;fill-opacity:0.2;stroke:none;stroke-linecap:butt;stroke-width:0.75}
		.st21 {fill:#242020;stroke:#3e3938;stroke-linecap:butt;stroke-width:0.75}
		.st22 {fill:#ffffff;fill-opacity:0.17;stroke:none;stroke-linecap:butt;stroke-width:0.75}
		.st23 {fill:none;fill-rule:evenodd;font-size:12px;overflow:visible;stroke-linecap:square;stroke-miterlimit:3}
	]]>
	</style>

	<defs id="Patterns_And_Gradients">
		<linearGradient id="grad0-5" x1="0" y1="0" x2="1" y2="0" gradientTransform="rotate(-180 0.5 0.5)">
			<stop offset="0" stop-color="#368688" stop-opacity="1"/>
			<stop offset="0.03" stop-color="#8ccdcf" stop-opacity="1"/>
			<stop offset="0.08" stop-color="#49afb2" stop-opacity="1"/>
			<stop offset="0.64" stop-color="#48acaf" stop-opacity="1"/>
			<stop offset="0.95" stop-color="#46a8ab" stop-opacity="1"/>
			<stop offset="1" stop-color="#317c7e" stop-opacity="1"/>
		</linearGradient>
		<linearGradient id="grad0-45" x1="0" y1="0" x2="1" y2="0" gradientTransform="rotate(63.434948822922 0.5 0.5)">
			<stop offset="0" stop-color="#9f5153" stop-opacity="1"/>
			<stop offset="1" stop-color="#7b030d" stop-opacity="1"/>
		</linearGradient>
		<linearGradient id="grad0-52" x1="0" y1="0" x2="1" y2="0" gradientTransform="rotate(63.434948822922 0.5 0.5)">
			<stop offset="0" stop-color="#91cfd1" stop-opacity="1"/>
			<stop offset="1" stop-color="#49aeb1" stop-opacity="1"/>
		</linearGradient>
		<linearGradient id="grad0-78" x1="0" y1="0" x2="1" y2="0" gradientTransform="rotate(63.434948822922 0.5 0.5)">
			<stop offset="0" stop-color="#505050" stop-opacity="1"/>
			<stop offset="1" stop-color="#000000" stop-opacity="1"/>
		</linearGradient>
		<linearGradient id="grad0-85" x1="0" y1="0" x2="1" y2="0" gradientTransform="rotate(63.434948822922 0.5 0.5)">
			<stop offset="0" stop-color="#818181" stop-opacity="1"/>
			<stop offset="1" stop-color="#000000" stop-opacity="1"/>
		</linearGradient>
		<linearGradient id="grad0-132" x1="0" y1="0" x2="1" y2="0" gradientTransform="rotate(-180 0.5 0.5)">
			<stop offset="0" stop-color="#398c8e" stop-opacity="1"/>
			<stop offset="0.15" stop-color="#67c3c5" stop-opacity="1"/>
			<stop offset="0.25" stop-color="#bbdee0" stop-opacity="1"/>
			<stop offset="0.52" stop-color="#45a6a9" stop-opacity="1"/>
			<stop offset="0.69" stop-color="#3c9396" stop-opacity="1"/>
			<stop offset="0.8" stop-color="#388b8d" stop-opacity="1"/>
			<stop offset="0.92" stop-color="#358385" stop-opacity="1"/>
			<stop offset="1" stop-color="#3e9799" stop-opacity="1"/>
		</linearGradient>
		<linearGradient id="grad0-146" x1="0" y1="0" x2="1" y2="0" gradientTransform="rotate(90 0.5 0.5)">
			<stop offset="0" stop-color="#398c8e" stop-opacity="1"/>
			<stop offset="0.15" stop-color="#67c3c5" stop-opacity="1"/>
			<stop offset="0.25" stop-color="#bbdee0" stop-opacity="1"/>
			<stop offset="0.52" stop-color="#45a6a9" stop-opacity="1"/>
			<stop offset="0.69" stop-color="#3c9396" stop-opacity="1"/>
			<stop offset="0.8" stop-color="#388b8d" stop-opacity="1"/>
			<stop offset="0.92" stop-color="#358385" stop-opacity="1"/>
			<stop offset="1" stop-color="#3e9799" stop-opacity="1"/>
		</linearGradient>
		<linearGradient id="grad0-174" x1="0" y1="0" x2="1" y2="0" gradientTransform="rotate(-180 0.5 0.5)">
			<stop offset="0" stop-color="#161616" stop-opacity="1"/>
			<stop offset="0.15" stop-color="#464646" stop-opacity="1"/>
			<stop offset="0.25" stop-color="#474747" stop-opacity="1"/>
			<stop offset="0.63" stop-color="#000000" stop-opacity="1"/>
		</linearGradient>
	</defs>
	<g v:mID="0" v:index="1" v:groupContext="foregroundPage">
		<title>页-1</title>
		<v:pageProperties v:drawingScale="0.0393701" v:pageScale="0.0393701" v:drawingUnits="24" v:shadowOffsetX="8.50394"
				v:shadowOffsetY="-8.50394"/>
		<g id="group5334-1" transform="translate(0.75,-0.75)" v:mID="5334" v:groupContext="group">
			<title>蒸汽锅炉</title>
			<g id="shape5335-2" v:mID="5335" v:groupContext="shape" transform="translate(-1.9984E-13,-75.6)">
				<title>shape1</title>
				<path d="M0 88.97 L79.35 88.97 L79.35 115.52 L0 115.52 L0 88.97 Z" class="st1"/>
			</g>
			<g id="shape5336-6" v:mID="5336" v:groupContext="shape" transform="translate(4.2525,-78.5775)">
				<title>shape2</title>
				<path d="M0 94.9 L70.8 94.9 L70.8 115.52 L0 115.52 L0 94.9 Z" class="st2"/>
			</g>
			<g id="shape5337-8" v:mID="5337" v:groupContext="shape">
				<title>shape3</title>
				<path d="M0 108.47 L79.35 108.47 L79.35 115.52 L0 115.52 L0 108.47 Z" class="st1"/>
			</g>
			<g id="group5338-11" transform="translate(3.67706E-13,-6.9825)" v:mID="5338" v:groupContext="group">
				<title>工作表.5338</title>
				<g id="shape5339-12" v:mID="5339" v:groupContext="shape">
					<title>shape4</title>
					<path d="M0 46.9 L39.67 46.9 L39.67 115.52 L0 115.52 L0 46.9 Z" class="st1"/>
				</g>
				<g id="shape5340-15" v:mID="5340" v:groupContext="shape" transform="translate(39.66,-9.9476E-14)">
					<title>shape5</title>
					<path d="M0 46.9 L39.67 46.9 L39.67 115.52 L0 115.52 L0 46.9 Z" class="st1"/>
				</g>
			</g>
			<g id="shape5341-18" v:mID="5341" v:groupContext="shape" transform="translate(4.7325,-79.14)">
				<title>shape6</title>
				<path d="M0 96.02 L69.83 96.02 L69.83 115.52 L0 115.52 L0 96.02 Z" class="st3"/>
			</g>
			<g id="group5342-20" transform="translate(6.315,-84.825)" v:mID="5342" v:groupContext="group">
				<title>工作表.5342</title>
				<g id="shape5343-21" v:mID="5343" v:groupContext="shape">
					<title>shape7</title>
					<path d="M0 111.62 C0 109.45 1.8 107.65 3.98 107.65 C6.15 107.65 7.95 109.45 7.95 111.62 C7.95 113.8 6.15 115.52
								 3.98 115.52 C1.8 115.52 0 113.8 0 111.62 Z" class="st2"/>
				</g>
				<g id="shape5344-23" v:mID="5344" v:groupContext="shape" transform="translate(0.5475,-0.5025)">
					<title>shape8</title>
					<path d="M0 112.07 C0 110.2 1.5 108.7 3.38 108.7 C5.33 108.7 6.83 110.2 6.83 112.07 C6.83 113.95 5.33 115.52
								 3.38 115.52 C1.5 115.52 0 113.95 0 112.07 Z" class="st4"/>
				</g>
				<g id="shape5345-25" v:mID="5345" v:groupContext="shape" transform="translate(-75.3537,191.326) rotate(-135)">
					<title>shape9</title>
					<path d="M0.6 110.7 C0.6 110.7 0.53 115.52 0.3 115.52 C0 115.52 0 110.7 0.6 110.7 Z" class="st5"/>
				</g>
				<g id="shape5346-27" v:mID="5346" v:groupContext="shape" transform="translate(3.4125,-3.345)">
					<title>shape10</title>
					<path d="M0 114.92 C0 114.62 0.22 114.4 0.52 114.4 C0.82 114.4 1.12 114.62 1.12 114.92 C1.12 115.22 0.82 115.52
								 0.52 115.52 C0.22 115.52 0 115.22 0 114.92 Z" class="st6"/>
				</g>
			</g>
			<g id="group5347-29" transform="translate(16.44,-84.825)" v:mID="5347" v:groupContext="group">
				<title>工作表.5347</title>
				<g id="shape5348-30" v:mID="5348" v:groupContext="shape">
					<title>shape11</title>
					<path d="M0 111.62 C0 109.45 1.8 107.65 3.98 107.65 C6.15 107.65 7.95 109.45 7.95 111.62 C7.95 113.8 6.15 115.52
								 3.98 115.52 C1.8 115.52 0 113.8 0 111.62 Z" class="st2"/>
				</g>
				<g id="shape5349-32" v:mID="5349" v:groupContext="shape" transform="translate(0.5475,-0.5025)">
					<title>shape12</title>
					<path d="M0 112.07 C0 110.2 1.5 108.7 3.38 108.7 C5.33 108.7 6.83 110.2 6.83 112.07 C6.83 113.95 5.33 115.52
								 3.38 115.52 C1.5 115.52 0 113.95 0 112.07 Z" class="st4"/>
				</g>
				<g id="shape5350-34" v:mID="5350" v:groupContext="shape" transform="translate(-75.3537,191.326) rotate(-135)">
					<title>shape13</title>
					<path d="M0.6 110.7 C0.6 110.7 0.53 115.52 0.3 115.52 C0 115.52 0 110.7 0.6 110.7 Z" class="st5"/>
				</g>
				<g id="shape5351-36" v:mID="5351" v:groupContext="shape" transform="translate(3.4125,-3.345)">
					<title>shape14</title>
					<path d="M0 114.92 C0 114.62 0.22 114.4 0.52 114.4 C0.82 114.4 1.12 114.62 1.12 114.92 C1.12 115.22 0.82 115.52
								 0.52 115.52 C0.22 115.52 0 115.22 0 114.92 Z" class="st6"/>
				</g>
			</g>
			<g id="group5352-38" transform="translate(159.825,20.925) rotate(90)" v:mID="5352" v:groupContext="group">
				<title>工作表.5352</title>
				<g id="group5353-39" transform="translate(1.44884E-14,-16.8375)" v:mID="5353" v:groupContext="group">
					<title>工作表.5353</title>
					<g id="shape5354-40" v:mID="5354" v:groupContext="shape">
						<title>shape15</title>
						<path d="M0 113.8 C0 112.9 0.75 112.15 1.65 112.15 C2.63 112.15 3.38 112.9 3.38 113.8 C3.38 114.77 2.63 115.52
									 1.65 115.52 C0.75 115.52 0 114.77 0 113.8 Z" class="st7"/>
					</g>
					<g id="shape5355-42" v:mID="5355" v:groupContext="shape" transform="translate(0.3075,-0.2925)">
						<title>shape16</title>
						<path d="M0 114.1 C0 113.35 0.6 112.75 1.35 112.75 C2.1 112.75 2.78 113.35 2.78 114.1 C2.78 114.85 2.1 115.52
									 1.35 115.52 C0.6 115.52 0 114.85 0 114.1 Z" class="st8"/>
					</g>
				</g>
				<g id="group5356-46" transform="translate(1.44884E-14,-11.22)" v:mID="5356" v:groupContext="group">
					<title>工作表.5356</title>
					<g id="shape5357-47" v:mID="5357" v:groupContext="shape">
						<title>shape17</title>
						<path d="M0 113.8 C0 112.9 0.75 112.15 1.65 112.15 C2.63 112.15 3.38 112.9 3.38 113.8 C3.38 114.77 2.63 115.52
									 1.65 115.52 C0.75 115.52 0 114.77 0 113.8 Z" class="st9"/>
					</g>
					<g id="shape5358-49" v:mID="5358" v:groupContext="shape" transform="translate(0.3075,-0.2925)">
						<title>shape18</title>
						<path d="M0 114.1 C0 113.35 0.6 112.75 1.35 112.75 C2.1 112.75 2.78 113.35 2.78 114.1 C2.78 114.85 2.1 115.52
									 1.35 115.52 C0.6 115.52 0 114.85 0 114.1 Z" class="st10"/>
					</g>
				</g>
				<g id="group5359-53" transform="translate(1.44884E-14,-22.455)" v:mID="5359" v:groupContext="group">
					<title>工作表.5359</title>
					<g id="shape5360-54" v:mID="5360" v:groupContext="shape">
						<title>shape19</title>
						<path d="M0 113.8 C0 112.9 0.75 112.15 1.65 112.15 C2.63 112.15 3.38 112.9 3.38 113.8 C3.38 114.77 2.63 115.52
									 1.65 115.52 C0.75 115.52 0 114.77 0 113.8 Z" class="st7"/>
					</g>
					<g id="shape5361-56" v:mID="5361" v:groupContext="shape" transform="translate(0.3075,-0.2925)">
						<title>shape20</title>
						<path d="M0 114.1 C0 113.35 0.6 112.75 1.35 112.75 C2.1 112.75 2.78 113.35 2.78 114.1 C2.78 114.85 2.1 115.52
									 1.35 115.52 C0.6 115.52 0 114.85 0 114.1 Z" class="st8"/>
					</g>
				</g>
				<g id="group5362-59" transform="translate(1.44884E-14,-5.6175)" v:mID="5362" v:groupContext="group">
					<title>工作表.5362</title>
					<g id="shape5363-60" v:mID="5363" v:groupContext="shape">
						<title>shape21</title>
						<path d="M0 113.8 C0 112.9 0.75 112.15 1.65 112.15 C2.63 112.15 3.38 112.9 3.38 113.8 C3.38 114.77 2.63 115.52
									 1.65 115.52 C0.75 115.52 0 114.77 0 113.8 Z" class="st9"/>
					</g>
					<g id="shape5364-62" v:mID="5364" v:groupContext="shape" transform="translate(0.3075,-0.2925)">
						<title>shape22</title>
						<path d="M0 114.1 C0 113.35 0.6 112.75 1.35 112.75 C2.1 112.75 2.78 113.35 2.78 114.1 C2.78 114.85 2.1 115.52
									 1.35 115.52 C0.6 115.52 0 114.85 0 114.1 Z" class="st10"/>
					</g>
				</g>
				<g id="group5365-65" v:mID="5365" v:groupContext="group">
					<title>工作表.5365</title>
					<g id="shape5366-66" v:mID="5366" v:groupContext="shape">
						<title>shape23</title>
						<path d="M0 113.8 C0 112.9 0.75 112.15 1.65 112.15 C2.63 112.15 3.38 112.9 3.38 113.8 C3.38 114.77 2.63 115.52
									 1.65 115.52 C0.75 115.52 0 114.77 0 113.8 Z" class="st7"/>
					</g>
					<g id="shape5367-68" v:mID="5367" v:groupContext="shape" transform="translate(0.3075,-0.2925)">
						<title>shape24</title>
						<path d="M0 114.1 C0 113.35 0.6 112.75 1.35 112.75 C2.1 112.75 2.78 113.35 2.78 114.1 C2.78 114.85 2.1 115.52
									 1.35 115.52 C0.6 115.52 0 114.85 0 114.1 Z" class="st8"/>
					</g>
				</g>
			</g>
			<g id="group5368-71" transform="translate(159.6,30.15) rotate(90)" v:mID="5368" v:groupContext="group">
				<title>工作表.5368</title>
				<g id="group5369-72" transform="translate(1.44884E-14,-16.8375)" v:mID="5369" v:groupContext="group">
					<title>工作表.5369</title>
					<g id="shape5370-73" v:mID="5370" v:groupContext="shape">
						<title>shape25</title>
						<path d="M0 113.8 C0 112.9 0.75 112.15 1.65 112.15 C2.63 112.15 3.38 112.9 3.38 113.8 C3.38 114.77 2.63 115.52
									 1.65 115.52 C0.75 115.52 0 114.77 0 113.8 Z" class="st11"/>
					</g>
					<g id="shape5371-75" v:mID="5371" v:groupContext="shape" transform="translate(0.3075,-0.2925)">
						<title>shape26</title>
						<path d="M0 114.1 C0 113.35 0.6 112.75 1.35 112.75 C2.1 112.75 2.78 113.35 2.78 114.1 C2.78 114.85 2.1 115.52
									 1.35 115.52 C0.6 115.52 0 114.85 0 114.1 Z" class="st12"/>
					</g>
				</g>
				<g id="group5372-79" transform="translate(1.44884E-14,-11.22)" v:mID="5372" v:groupContext="group">
					<title>工作表.5372</title>
					<g id="shape5373-80" v:mID="5373" v:groupContext="shape">
						<title>shape27</title>
						<path d="M0 113.8 C0 112.9 0.75 112.15 1.65 112.15 C2.63 112.15 3.38 112.9 3.38 113.8 C3.38 114.77 2.63 115.52
									 1.65 115.52 C0.75 115.52 0 114.77 0 113.8 Z" class="st11"/>
					</g>
					<g id="shape5374-82" v:mID="5374" v:groupContext="shape" transform="translate(0.3075,-0.2925)">
						<title>shape28</title>
						<path d="M0 114.1 C0 113.35 0.6 112.75 1.35 112.75 C2.1 112.75 2.78 113.35 2.78 114.1 C2.78 114.85 2.1 115.52
									 1.35 115.52 C0.6 115.52 0 114.85 0 114.1 Z" class="st13"/>
					</g>
				</g>
				<g id="group5375-86" transform="translate(1.44884E-14,-22.455)" v:mID="5375" v:groupContext="group">
					<title>工作表.5375</title>
					<g id="shape5376-87" v:mID="5376" v:groupContext="shape">
						<title>shape29</title>
						<path d="M0 113.8 C0 112.9 0.75 112.15 1.65 112.15 C2.63 112.15 3.38 112.9 3.38 113.8 C3.38 114.77 2.63 115.52
									 1.65 115.52 C0.75 115.52 0 114.77 0 113.8 Z" class="st11"/>
					</g>
					<g id="shape5377-89" v:mID="5377" v:groupContext="shape" transform="translate(0.3075,-0.2925)">
						<title>shape30</title>
						<path d="M0 114.1 C0 113.35 0.6 112.75 1.35 112.75 C2.1 112.75 2.78 113.35 2.78 114.1 C2.78 114.85 2.1 115.52
									 1.35 115.52 C0.6 115.52 0 114.85 0 114.1 Z" class="st12"/>
					</g>
				</g>
				<g id="group5378-92" transform="translate(1.44884E-14,-5.6175)" v:mID="5378" v:groupContext="group">
					<title>工作表.5378</title>
					<g id="shape5379-93" v:mID="5379" v:groupContext="shape">
						<title>shape31</title>
						<path d="M0 113.8 C0 112.9 0.75 112.15 1.65 112.15 C2.63 112.15 3.38 112.9 3.38 113.8 C3.38 114.77 2.63 115.52
									 1.65 115.52 C0.75 115.52 0 114.77 0 113.8 Z" class="st11"/>
					</g>
					<g id="shape5380-95" v:mID="5380" v:groupContext="shape" transform="translate(0.3075,-0.2925)">
						<title>shape32</title>
						<path d="M0 114.1 C0 113.35 0.6 112.75 1.35 112.75 C2.1 112.75 2.78 113.35 2.78 114.1 C2.78 114.85 2.1 115.52
									 1.35 115.52 C0.6 115.52 0 114.85 0 114.1 Z" class="st13"/>
					</g>
				</g>
				<g id="group5381-98" v:mID="5381" v:groupContext="group">
					<title>工作表.5381</title>
					<g id="shape5382-99" v:mID="5382" v:groupContext="shape">
						<title>shape33</title>
						<path d="M0 113.8 C0 112.9 0.75 112.15 1.65 112.15 C2.63 112.15 3.38 112.9 3.38 113.8 C3.38 114.77 2.63 115.52
									 1.65 115.52 C0.75 115.52 0 114.77 0 113.8 Z" class="st11"/>
					</g>
					<g id="shape5383-101" v:mID="5383" v:groupContext="shape" transform="translate(0.3075,-0.2925)">
						<title>shape34</title>
						<path d="M0 114.1 C0 113.35 0.6 112.75 1.35 112.75 C2.1 112.75 2.78 113.35 2.78 114.1 C2.78 114.85 2.1 115.52
									 1.35 115.52 C0.6 115.52 0 114.85 0 114.1 Z" class="st12"/>
					</g>
				</g>
			</g>
			<g id="group5384-104" transform="translate(26.0625,-90.9225)" v:mID="5384" v:groupContext="group">
				<title>工作表.5384</title>
				<g id="shape5385-105" v:mID="5385" v:groupContext="shape" transform="translate(1.72362E-14,-0.015)">
					<title>shape35</title>
					<path d="M0 111.55 L3.98 111.55 L3.98 115.52 L0 115.52 L0 111.55 Z" class="st14"/>
				</g>
				<g id="shape5386-107" v:mID="5386" v:groupContext="shape" transform="translate(1.965,1.42109E-14)">
					<title>shape36</title>
					<path d="M2.03 115.52 L2.03 113.5 L0 115.52 L2.03 115.52 Z" class="st11"/>
				</g>
			</g>
			<g id="group5387-109" transform="translate(32.3025,-90.9225)" v:mID="5387" v:groupContext="group">
				<title>工作表.5387</title>
				<g id="shape5388-110" v:mID="5388" v:groupContext="shape" transform="translate(1.72362E-14,-0.015)">
					<title>shape37</title>
					<path d="M0 111.55 L3.98 111.55 L3.98 115.52 L0 115.52 L0 111.55 Z" class="st14"/>
				</g>
				<g id="shape5389-112" v:mID="5389" v:groupContext="shape" transform="translate(1.965,1.42109E-14)">
					<title>shape38</title>
					<path d="M2.03 115.52 L2.03 113.5 L0 115.52 L2.03 115.52 Z" class="st11"/>
				</g>
			</g>
			<g id="group5390-114" transform="translate(38.55,-90.9225)" v:mID="5390" v:groupContext="group">
				<title>工作表.5390</title>
				<g id="shape5391-115" v:mID="5391" v:groupContext="shape" transform="translate(1.72362E-14,-0.015)">
					<title>shape39</title>
					<path d="M0 111.55 L3.98 111.55 L3.98 115.52 L0 115.52 L0 111.55 Z" class="st14"/>
				</g>
				<g id="shape5392-117" v:mID="5392" v:groupContext="shape" transform="translate(1.965,1.42109E-14)">
					<title>shape40</title>
					<path d="M2.03 115.52 L2.03 113.5 L0 115.52 L2.03 115.52 Z" class="st11"/>
				</g>
			</g>
			<g id="group5393-119" transform="translate(26.0625,-81.6975)" v:mID="5393" v:groupContext="group">
				<title>工作表.5393</title>
				<g id="shape5394-120" v:mID="5394" v:groupContext="shape" transform="translate(1.72362E-14,-0.015)">
					<title>shape41</title>
					<path d="M0 111.55 L3.98 111.55 L3.98 115.52 L0 115.52 L0 111.55 Z" class="st14"/>
				</g>
				<g id="shape5395-122" v:mID="5395" v:groupContext="shape" transform="translate(1.965,1.42109E-14)">
					<title>shape42</title>
					<path d="M2.03 115.52 L2.03 113.5 L0 115.52 L2.03 115.52 Z" class="st11"/>
				</g>
			</g>
			<g id="group5396-124" transform="translate(38.55,-81.6975)" v:mID="5396" v:groupContext="group">
				<title>工作表.5396</title>
				<g id="shape5397-125" v:mID="5397" v:groupContext="shape" transform="translate(1.72362E-14,-0.015)">
					<title>shape43</title>
					<path d="M0 111.55 L3.98 111.55 L3.98 115.52 L0 115.52 L0 111.55 Z" class="st14"/>
				</g>
				<g id="shape5398-127" v:mID="5398" v:groupContext="shape" transform="translate(1.965,1.42109E-14)">
					<title>shape44</title>
					<path d="M2.03 115.52 L2.03 113.5 L0 115.52 L2.03 115.52 Z" class="st11"/>
				</g>
			</g>
			<g id="shape5399-129" v:mID="5399" v:groupContext="shape" transform="translate(11.475,-102.195)">
				<title>shape45</title>
				<path d="M0 115.52 L10.13 115.52 L10.13 113.12 L0 113.12 L0 115.52 Z" class="st15"/>
			</g>
			<g id="shape5400-133" v:mID="5400" v:groupContext="shape" transform="translate(12.765,-104.61)">
				<title>shape46</title>
				<path d="M0 115.52 L7.58 115.52 L7.58 113.95 L0 113.95 L0 115.52 Z" class="st15"/>
			</g>
			<g id="shape5401-136" v:mID="5401" v:groupContext="shape" transform="translate(11.475,-106.163)">
				<title>shape47</title>
				<path d="M0 115.52 L10.13 115.52 L10.13 113.12 L0 113.12 L0 115.52 Z" class="st15"/>
			</g>
			<g id="shape5402-139" v:mID="5402" v:groupContext="shape" transform="translate(12.0375,-108.548)">
				<title>shape48</title>
				<path d="M0 115.52 L9 115.52 L9 110.05 L0 110.05 L0 115.52 Z" class="st15"/>
			</g>
			<g id="group5403-142" transform="translate(79.275,-69.2925)" v:mID="5403" v:groupContext="group">
				<title>工作表.5403</title>
				<g id="shape5404-143" v:mID="5404" v:groupContext="shape" transform="translate(0,-1.305)">
					<title>shape49</title>
					<path d="M0 114.47 L3.6 114.47 L3.6 115.52 L0 115.52 L0 114.47 Z" class="st16"/>
				</g>
				<g id="shape5405-147" v:mID="5405" v:groupContext="shape">
					<title>shape50</title>
					<path d="M0 111.85 L1.2 111.85 L1.2 115.52 L0 115.52 L0 111.85 Z" class="st16"/>
				</g>
			</g>
			<g id="group5406-150" transform="translate(79.275,-45.96)" v:mID="5406" v:groupContext="group">
				<title>工作表.5406</title>
				<g id="shape5407-151" v:mID="5407" v:groupContext="shape" transform="translate(0,-1.305)">
					<title>shape51</title>
					<path d="M0 114.47 L3.6 114.47 L3.6 115.52 L0 115.52 L0 114.47 Z" class="st16"/>
				</g>
				<g id="shape5408-154" v:mID="5408" v:groupContext="shape">
					<title>shape52</title>
					<path d="M0 111.85 L1.2 111.85 L1.2 115.52 L0 115.52 L0 111.85 Z" class="st16"/>
				</g>
			</g>
			<g id="shape5409-157" v:mID="5409" v:groupContext="shape" transform="translate(82.1325,-41.7825)">
				<title>shape53</title>
				<path d="M6.37 76.67 L6.37 112.75 C6.37 114.25 5.1 115.52 3.6 115.52 L2.77 115.52 C1.27 115.52 0 114.25 0 112.75
							 L0 76.67 C0 75.17 6.37 75.17 6.37 76.67 Z" class="st15"/>
			</g>
			<g id="shape5410-160" v:mID="5410" v:groupContext="shape" transform="translate(84.015,-45.96)">
				<title>shape55</title>
				<path d="M1.28 88.75 C2.03 88.75 2.55 89.35 2.55 90.02 L2.55 114.25 C2.55 115 2.03 115.52 1.28 115.52 C0.6 115.52
							 0 115 0 114.25 L0 90.02 C0 89.35 0.6 88.75 1.28 88.75 Z" class="st17"/>
			</g>
			<g id="shape5411-162" v:mID="5411" v:groupContext="shape" transform="translate(84.615,-38.43)">
				<title>shape56</title>
				<path d="M0 112.15 L1.43 112.15 L1.43 115.52 L0 115.52 L0 112.15 Z" class="st15"/>
			</g>
			<g id="shape5412-165" v:mID="5412" v:groupContext="shape" transform="translate(85.0725,-45.975)">
				<title>shape57</title>
				<path d="M0 88.82 L0.45 115.52 L0 88.82 Z" class="st18"/>
			</g>
			<g id="shape5413-167" v:mID="5413" v:groupContext="shape" transform="translate(84.3825,-37.9575)">
				<title>shape58</title>
				<path d="M0 113.95 L1.88 113.95 L1.88 115.52 L0 115.52 L0 113.95 Z" class="st15"/>
			</g>
			<g id="group5414-170" transform="translate(83.79,-70.425)" v:mID="5414" v:groupContext="group">
				<title>工作表.5414</title>
				<g id="shape5415-171" v:mID="5415" v:groupContext="shape">
					<title>shape59</title>
					<path d="M2.25 112.75 C2.4 112.82 2.33 113.12 2.55 113.5 C2.7 113.8 3.08 113.87 3.08 114.1 C3.08 114.25 2.7 114.4
								 2.55 114.62 C2.4 114.92 2.48 115.3 2.25 115.37 C2.1 115.52 1.88 115.3 1.5 115.3 C1.13 115.3 0.9
								 115.45 0.75 115.37 C0.6 115.3 0.68 115 0.45 114.7 C0.3 114.4 0 114.25 0 114.1 C0 113.87 0.3 113.8
								 0.45 113.42 C0.68 113.12 0.68 112.82 0.75 112.75 C0.9 112.67 1.13 112.9 1.5 112.9 C1.95 112.9 2.18
								 112.67 2.25 112.75 Z" class="st19"/>
				</g>
				<g id="shape5416-175" v:mID="5416" v:groupContext="shape" transform="translate(0.0825,-0.075)">
					<title>shape60</title>
					<path d="M2.18 112.9 C2.25 112.97 2.25 113.27 2.4 113.57 C2.55 113.87 2.85 114.02 2.85 114.17 C2.85 114.32 2.55
								 114.4 2.4 114.7 C2.25 115 2.33 115.3 2.18 115.37 C2.03 115.52 1.8 115.3 1.43 115.3 C1.05 115.3 0.83
								 115.45 0.75 115.37 C0.6 115.3 0.68 115.07 0.45 114.7 C0.3 114.4 0 114.32 0 114.17 C0 113.95 0.3
								 113.87 0.45 113.57 C0.68 113.27 0.6 112.97 0.75 112.9 C0.83 112.9 1.05 113.05 1.43 113.05 C1.88
								 113.05 2.03 112.82 2.18 112.9 Z" class="st20"/>
				</g>
				<g id="shape5417-177" v:mID="5417" v:groupContext="shape" transform="translate(0.585,-0.495)">
					<title>shape61</title>
					<path d="M0 114.55 C0 114.1 0.45 113.65 0.9 113.65 C1.43 113.65 1.88 114.1 1.88 114.55 C1.88 115.07 1.43 115.52
								 0.9 115.52 C0.45 115.52 0 115.07 0 114.55 Z" class="st21"/>
				</g>
				<g id="shape5418-179" v:mID="5418" v:groupContext="shape" transform="translate(1.0425,-0.6)">
					<title>shape62</title>
					<path d="M0.52 114.77 C0.52 114.32 0 113.87 0.45 113.87 C0.9 113.87 1.27 114.25 1.27 114.7 C1.27 115.15 0.9 115.52
								 0.45 115.52 C0 115.52 0.52 115.22 0.52 114.77 Z" class="st22"/>
				</g>
			</g>
			<g id="group5419-181" transform="translate(84.0225,-45.015)" v:mID="5419" v:groupContext="group">
				<title>工作表.5419</title>
				<g id="shape5420-182" v:mID="5420" v:groupContext="shape">
					<title>shape63</title>
					<path d="M2.25 112.75 C2.4 112.82 2.33 113.12 2.55 113.5 C2.7 113.8 3.08 113.87 3.08 114.1 C3.08 114.25 2.7 114.4
								 2.55 114.62 C2.4 114.92 2.48 115.3 2.25 115.37 C2.1 115.52 1.88 115.3 1.5 115.3 C1.13 115.3 0.9
								 115.45 0.75 115.37 C0.6 115.3 0.68 115 0.45 114.7 C0.3 114.4 0 114.25 0 114.1 C0 113.87 0.3 113.8
								 0.45 113.42 C0.68 113.12 0.68 112.82 0.75 112.75 C0.9 112.67 1.13 112.9 1.5 112.9 C1.95 112.9 2.18
								 112.67 2.25 112.75 Z" class="st19"/>
				</g>
				<g id="shape5421-185" v:mID="5421" v:groupContext="shape" transform="translate(0.0825,-0.075)">
					<title>shape64</title>
					<path d="M2.18 112.9 C2.25 112.97 2.25 113.27 2.4 113.57 C2.55 113.87 2.85 114.02 2.85 114.17 C2.85 114.32 2.55
								 114.4 2.4 114.7 C2.25 115 2.33 115.3 2.18 115.37 C2.03 115.52 1.8 115.3 1.43 115.3 C1.05 115.3 0.83
								 115.45 0.75 115.37 C0.6 115.3 0.68 115.07 0.45 114.7 C0.3 114.4 0 114.32 0 114.17 C0 113.95 0.3
								 113.87 0.45 113.57 C0.68 113.27 0.6 112.97 0.75 112.9 C0.83 112.9 1.05 113.05 1.43 113.05 C1.88
								 113.05 2.03 112.82 2.18 112.9 Z" class="st20"/>
				</g>
				<g id="shape5422-187" v:mID="5422" v:groupContext="shape" transform="translate(0.585,-0.495)">
					<title>shape65</title>
					<path d="M0 114.55 C0 114.1 0.45 113.65 0.9 113.65 C1.43 113.65 1.88 114.1 1.88 114.55 C1.88 115.07 1.43 115.52
								 0.9 115.52 C0.45 115.52 0 115.07 0 114.55 Z" class="st21"/>
				</g>
				<g id="shape5423-189" v:mID="5423" v:groupContext="shape" transform="translate(1.0425,-0.6)">
					<title>shape66</title>
					<path d="M0.52 114.77 C0.52 114.32 0 113.87 0.45 113.87 C0.9 113.87 1.27 114.25 1.27 114.7 C1.27 115.15 0.9 115.52
								 0.45 115.52 C0 115.52 0.52 115.22 0.52 114.77 Z" class="st22"/>
				</g>
			</g>
		</g>
	</g>
</svg>
