<?xml version="1.0" encoding="UTF-8" standalone="no"?>
<!DOCTYPE svg PUBLIC "-//W3C//DTD SVG 1.1//EN" "http://www.w3.org/Graphics/SVG/1.1/DTD/svg11.dtd">
<!-- 由 Microsoft Visio, SVG Export 生成 罐39.svg 页-1 -->
<svg xmlns="http://www.w3.org/2000/svg" xmlns:xlink="http://www.w3.org/1999/xlink" xmlns:ev="http://www.w3.org/2001/xml-events"
		xmlns:v="http://schemas.microsoft.com/visio/2003/SVGExtensions/" width="2.47896in" height="1.09146in"
		viewBox="0 0 178.485 78.585" xml:space="preserve" color-interpolation-filters="sRGB" class="st6">
	<v:documentProperties v:langID="2052" v:metric="true" v:viewMarkup="false"/>

	<style type="text/css">
	<![CDATA[
		.st1 {fill:url(#grad0-5);stroke:none;stroke-linecap:butt;stroke-width:0.75}
		.st2 {fill:url(#grad0-15);stroke:none;stroke-linecap:butt;stroke-width:0.75}
		.st3 {fill:url(#grad0-25);stroke:none;stroke-linecap:butt;stroke-width:0.75}
		.st4 {fill:url(#grad0-35);stroke:none;stroke-linecap:butt;stroke-width:0.75}
		.st5 {fill:url(#grad0-54);stroke:none;stroke-linecap:butt;stroke-width:0.75}
		.st6 {fill:none;fill-rule:evenodd;font-size:12px;overflow:visible;stroke-linecap:square;stroke-miterlimit:3}
	]]>
	</style>

	<defs id="Patterns_And_Gradients">
		<linearGradient id="grad0-5" x1="0" y1="0" x2="1" y2="0" gradientTransform="rotate(-90 0.5 0.5)">
			<stop offset="0" stop-color="#a9b1aa" stop-opacity="1"/>
			<stop offset="0.22" stop-color="#bec7c0" stop-opacity="1"/>
			<stop offset="0.57" stop-color="#e4e9e5" stop-opacity="1"/>
			<stop offset="0.84" stop-color="#d6ddd7" stop-opacity="1"/>
			<stop offset="1" stop-color="#b7c0b9" stop-opacity="1"/>
		</linearGradient>
		<linearGradient id="grad0-15" x1="0" y1="0" x2="1" y2="0" gradientTransform="rotate(0 0.5 0.5)">
			<stop offset="0" stop-color="#a9b1aa" stop-opacity="1"/>
			<stop offset="0.22" stop-color="#bec7c0" stop-opacity="1"/>
			<stop offset="0.57" stop-color="#e4e9e5" stop-opacity="1"/>
			<stop offset="0.84" stop-color="#d6ddd7" stop-opacity="1"/>
			<stop offset="1" stop-color="#b7c0b9" stop-opacity="1"/>
		</linearGradient>
		<linearGradient id="grad0-25" x1="0" y1="0" x2="1" y2="0" gradientTransform="rotate(-90 0.5 0.5)">
			<stop offset="0" stop-color="#87928a" stop-opacity="1"/>
			<stop offset="0.22" stop-color="#98a49c" stop-opacity="1"/>
			<stop offset="0.57" stop-color="#d3d8d4" stop-opacity="1"/>
			<stop offset="0.84" stop-color="#bac3bc" stop-opacity="1"/>
			<stop offset="1" stop-color="#929e96" stop-opacity="1"/>
		</linearGradient>
		<linearGradient id="grad0-35" x1="0" y1="0" x2="1" y2="0" gradientTransform="rotate(-180 0.5 0.5)">
			<stop offset="0" stop-color="#8e9690" stop-opacity="1"/>
			<stop offset="0.03" stop-color="#d6ddd7" stop-opacity="1"/>
			<stop offset="0.08" stop-color="#bac3bc" stop-opacity="1"/>
			<stop offset="0.64" stop-color="#b7c0b9" stop-opacity="1"/>
			<stop offset="0.95" stop-color="#b3bcb4" stop-opacity="1"/>
			<stop offset="1" stop-color="#848b85" stop-opacity="1"/>
		</linearGradient>
		<linearGradient id="grad0-54" x1="0" y1="0" x2="1" y2="0" gradientTransform="rotate(90 0.5 0.5)">
			<stop offset="0" stop-color="#8e9690" stop-opacity="1"/>
			<stop offset="0.03" stop-color="#d6ddd7" stop-opacity="1"/>
			<stop offset="0.08" stop-color="#bac3bc" stop-opacity="1"/>
			<stop offset="0.64" stop-color="#b7c0b9" stop-opacity="1"/>
			<stop offset="0.95" stop-color="#b3bcb4" stop-opacity="1"/>
			<stop offset="1" stop-color="#848b85" stop-opacity="1"/>
		</linearGradient>
	</defs>
	<g v:mID="0" v:index="1" v:groupContext="foregroundPage">
		<title>页-1</title>
		<v:pageProperties v:drawingScale="0.0393701" v:pageScale="0.0393701" v:drawingUnits="24" v:shadowOffsetX="8.50394"
				v:shadowOffsetY="-8.50394"/>
		<g id="group6347-1" transform="translate(0.75,-0.75)" v:mID="6347" v:groupContext="group">
			<title>换热器3</title>
			<g id="shape6348-2" v:mID="6348" v:groupContext="shape" transform="translate(55.755,-21.27)">
				<title>shape1</title>
				<path d="M0 22.78 L109.5 22.78 L109.5 78.58 L0 78.58 L0 22.78 Z" class="st1"/>
			</g>
			<g id="shape6349-6" v:mID="6349" v:groupContext="shape" transform="translate(32.8575,-21.27)">
				<title>shape2</title>
				<path d="M0 31.93 L23.25 22.78 L23.25 78.58 L0 69.51 L0 31.93 Z" class="st1"/>
			</g>
			<g id="shape6350-9" v:mID="6350" v:groupContext="shape" transform="translate(164.91,-21.27)">
				<title>shape3</title>
				<path d="M0 22.78 L12.08 51.06 L0 78.58 L0 22.78 Z" class="st1"/>
			</g>
			<g id="shape6351-12" v:mID="6351" v:groupContext="shape" transform="translate(163.748,-21.06)">
				<title>shape4</title>
				<path d="M0 22.56 L1.73 22.56 L1.73 78.58 L0 78.58 L0 22.56 Z" class="st2"/>
			</g>
			<g id="shape6352-16" v:mID="6352" v:groupContext="shape" transform="translate(-2.09832E-14,-39.675)">
				<title>shape5</title>
				<path d="M0 59.61 L9.6 59.61 L9.6 78.58 L0 78.58 L0 59.61 Z" class="st1"/>
			</g>
			<g id="shape6353-19" v:mID="6353" v:groupContext="shape" transform="translate(9.5625,-30.36)">
				<title>shape6</title>
				<path d="M0 41.01 L23.25 41.01 L23.25 78.58 L0 78.58 L0 41.01 Z" class="st1"/>
			</g>
			<g id="shape6354-22" v:mID="6354" v:groupContext="shape" transform="translate(91.9875,-21.27)">
				<title>shape7</title>
				<path d="M0 22.78 L1.58 22.78 L1.58 78.58 L0 78.58 L0 22.78 Z" class="st3"/>
			</g>
			<g id="shape6355-26" v:mID="6355" v:groupContext="shape" transform="translate(127.867,-21.27)">
				<title>shape8</title>
				<path d="M0 22.78 L1.58 22.78 L1.58 78.58 L0 78.58 L0 22.78 Z" class="st3"/>
			</g>
			<g id="shape6356-29" v:mID="6356" v:groupContext="shape" transform="translate(56.1075,-21.27)">
				<title>shape9</title>
				<path d="M0 22.78 L1.58 22.78 L1.58 78.58 L0 78.58 L0 22.78 Z" class="st3"/>
			</g>
			<g id="shape6357-32" v:mID="6357" v:groupContext="shape" transform="translate(69.7425,-15.255)">
				<title>shape10</title>
				<path d="M0 62.23 L10.88 62.23 L10.88 78.58 L0 78.58 L0 62.23 Z" class="st4"/>
			</g>
			<g id="shape6358-36" v:mID="6358" v:groupContext="shape" transform="translate(67.1625,-11.6925)">
				<title>shape11</title>
				<path d="M0 74.61 L16.05 74.61 L16.05 78.58 L0 78.58 L0 74.61 Z" class="st4"/>
			</g>
			<g id="shape6359-39" v:mID="6359" v:groupContext="shape" transform="translate(106.012,-15.255)">
				<title>shape12</title>
				<path d="M0 62.23 L10.88 62.23 L10.88 78.58 L0 78.58 L0 62.23 Z" class="st4"/>
			</g>
			<g id="shape6360-42" v:mID="6360" v:groupContext="shape" transform="translate(103.433,-11.6925)">
				<title>shape13</title>
				<path d="M0 74.61 L16.05 74.61 L16.05 78.58 L0 78.58 L0 74.61 Z" class="st4"/>
			</g>
			<g id="shape6361-45" v:mID="6361" v:groupContext="shape" transform="translate(141.81,-15.255)">
				<title>shape14</title>
				<path d="M0 62.23 L10.88 62.23 L10.88 78.58 L0 78.58 L0 62.23 Z" class="st4"/>
			</g>
			<g id="shape6362-48" v:mID="6362" v:groupContext="shape" transform="translate(139.223,-11.6925)">
				<title>shape15</title>
				<path d="M0 74.61 L16.05 74.61 L16.05 78.58 L0 78.58 L0 74.61 Z" class="st4"/>
			</g>
			<g id="shape6363-51" v:mID="6363" v:groupContext="shape" transform="translate(57.0375,-4.26326E-14)">
				<title>shape16</title>
				<path d="M0 66.36 L110.02 66.36 L110.02 78.58 L0 78.58 L0 66.36 Z" class="st5"/>
			</g>
		</g>
	</g>
</svg>
