<?xml version="1.0" encoding="UTF-8" standalone="no"?>
<!DOCTYPE svg PUBLIC "-//W3C//DTD SVG 1.1//EN" "http://www.w3.org/Graphics/SVG/1.1/DTD/svg11.dtd">
<!-- 由 Microsoft Visio, SVG Export 生成 罐2.svg 页-1 -->
<svg xmlns="http://www.w3.org/2000/svg" xmlns:xlink="http://www.w3.org/1999/xlink" xmlns:ev="http://www.w3.org/2001/xml-events"
		xmlns:v="http://schemas.microsoft.com/visio/2003/SVGExtensions/" width="1.03646in" height="1.78229in"
		viewBox="0 0 74.625 128.325" xml:space="preserve" color-interpolation-filters="sRGB" class="st21">
	<v:documentProperties v:langID="2052" v:metric="true" v:viewMarkup="false"/>

	<style type="text/css">
	<![CDATA[
		.st1 {fill:url(#grad0-6);stroke:none;stroke-linecap:butt;stroke-width:0.75}
		.st2 {fill:url(#grad0-10);stroke:none;stroke-linecap:butt;stroke-width:0.75}
		.st3 {fill:#cdd8d8;stroke:#97adad;stroke-linecap:butt;stroke-width:0.75}
		.st4 {fill:url(#grad0-26);stroke:#ffffff;stroke-linecap:butt;stroke-width:0.75}
		.st5 {fill:#577373;stroke:none;stroke-linecap:butt;stroke-width:0.75}
		.st6 {fill:#ffffff;fill-opacity:0.23;stroke:none;stroke-linecap:butt;stroke-width:0.75}
		.st7 {fill:#000000;fill-opacity:0.13;stroke:none;stroke-linecap:butt;stroke-width:0.75}
		.st8 {fill:#7e9393;stroke:none;stroke-linecap:butt;stroke-width:0.75}
		.st9 {fill:#dbe9ec;stroke:none;stroke-linecap:butt;stroke-width:0.75}
		.st10 {fill:#f9ca31;stroke:#000000;stroke-linecap:butt;stroke-width:0.75}
		.st11 {fill:#000000;stroke:#000000;stroke-linecap:butt;stroke-width:0.75}
		.st12 {fill:#7d040f;stroke:none;stroke-linecap:butt;stroke-width:0.75}
		.st13 {fill:url(#grad0-140);stroke:#ffffff;stroke-linecap:butt;stroke-width:0.75}
		.st14 {fill:#697e85;stroke:none;stroke-linecap:butt;stroke-width:0.75}
		.st15 {fill:#8ba6af;stroke:none;stroke-linecap:butt;stroke-width:0.75}
		.st16 {fill:#276f71;stroke:none;stroke-linecap:butt;stroke-width:0.75}
		.st17 {fill:url(#grad0-152);stroke:#ffffff;stroke-linecap:butt;stroke-width:0.75}
		.st18 {fill:#3e3938;stroke:none;stroke-linecap:butt;stroke-width:0.75}
		.st19 {fill:url(#grad0-159);stroke:#ffffff;stroke-linecap:butt;stroke-width:0.75}
		.st20 {fill:url(#grad0-204);stroke:#ffffff;stroke-linecap:butt;stroke-width:0.75}
		.st21 {fill:none;fill-rule:evenodd;font-size:12px;overflow:visible;stroke-linecap:square;stroke-miterlimit:3}
	]]>
	</style>

	<defs id="Patterns_And_Gradients">
		<linearGradient id="grad0-6" x1="0" y1="0" x2="1" y2="0" gradientTransform="rotate(-180 0.5 0.5)">
			<stop offset="0" stop-color="#93a0a0" stop-opacity="1"/>
			<stop offset="0.15" stop-color="#cbdbdb" stop-opacity="1"/>
			<stop offset="0.25" stop-color="#e2ebeb" stop-opacity="1"/>
			<stop offset="0.52" stop-color="#aebdbd" stop-opacity="1"/>
			<stop offset="0.69" stop-color="#9ba8a8" stop-opacity="1"/>
			<stop offset="0.8" stop-color="#929e9e" stop-opacity="1"/>
			<stop offset="0.92" stop-color="#899595" stop-opacity="1"/>
			<stop offset="1" stop-color="#9eacac" stop-opacity="1"/>
		</linearGradient>
		<linearGradient id="grad0-10" x1="0" y1="0" x2="1" y2="0" gradientTransform="rotate(-180 0.5 0.5)">
			<stop offset="0" stop-color="#577373" stop-opacity="1"/>
			<stop offset="0.15" stop-color="#86a5a5" stop-opacity="1"/>
			<stop offset="0.25" stop-color="#c4d1d1" stop-opacity="1"/>
			<stop offset="0.52" stop-color="#688989" stop-opacity="1"/>
			<stop offset="0.69" stop-color="#5c7979" stop-opacity="1"/>
			<stop offset="0.8" stop-color="#567272" stop-opacity="1"/>
			<stop offset="0.92" stop-color="#516b6b" stop-opacity="1"/>
			<stop offset="1" stop-color="#5e7c7c" stop-opacity="1"/>
		</linearGradient>
		<linearGradient id="grad0-26" x1="0" y1="0" x2="1" y2="0" gradientTransform="rotate(63.434948822922 0.5 0.5)">
			<stop offset="0" stop-color="#818181" stop-opacity="1"/>
			<stop offset="1" stop-color="#000000" stop-opacity="1"/>
		</linearGradient>
		<linearGradient id="grad0-140" x1="0" y1="0" x2="1" y2="0" gradientTransform="rotate(63.434948822922 0.5 0.5)">
			<stop offset="0" stop-color="#9f5153" stop-opacity="1"/>
			<stop offset="1" stop-color="#7b030d" stop-opacity="1"/>
		</linearGradient>
		<linearGradient id="grad0-152" x1="0" y1="0" x2="1" y2="0" gradientTransform="rotate(56.30993247402 0.5 0.5)">
			<stop offset="0" stop-color="#91cfd1" stop-opacity="1"/>
			<stop offset="1" stop-color="#49aeb1" stop-opacity="1"/>
		</linearGradient>
		<linearGradient id="grad0-159" x1="0" y1="0" x2="1" y2="0" gradientTransform="rotate(56.30993247402 0.5 0.5)">
			<stop offset="0" stop-color="#949494" stop-opacity="1"/>
			<stop offset="1" stop-color="#514f4f" stop-opacity="1"/>
		</linearGradient>
		<linearGradient id="grad0-204" x1="0" y1="0" x2="1" y2="0" gradientTransform="rotate(63.434948822922 0.5 0.5)">
			<stop offset="0" stop-color="#91cfd1" stop-opacity="1"/>
			<stop offset="1" stop-color="#49aeb1" stop-opacity="1"/>
		</linearGradient>
	</defs>
	<g v:mID="0" v:index="1" v:groupContext="foregroundPage">
		<title>页-1</title>
		<v:pageProperties v:drawingScale="0.0393701" v:pageScale="0.0393701" v:drawingUnits="24" v:shadowOffsetX="8.50394"
				v:shadowOffsetY="-8.50394"/>
		<g id="group4743-1" transform="translate(0.75,-0.75)" v:mID="4743" v:groupContext="group">
			<title>锅炉4</title>
			<g id="group4744-2" v:mID="4744" v:groupContext="group">
				<title>工作表.4744</title>
				<g id="shape4745-3" v:mID="4745" v:groupContext="shape">
					<title>shape1</title>
					<path d="M0 1.5 L73.12 1.5 L73.12 128.32 L0 128.32 L0 1.5 Z" class="st1"/>
				</g>
				<g id="shape4746-7" v:mID="4746" v:groupContext="shape" transform="translate(-8.79297E-14,-123.375)">
					<title>shape2</title>
					<path d="M0 124.87 L73.12 124.87 L73.12 128.32 L0 128.32 L0 124.87 Z" class="st2"/>
				</g>
				<g id="shape4747-11" v:mID="4747" v:groupContext="shape">
					<title>shape3</title>
					<path d="M0 124.87 L73.12 124.87 L73.12 128.32 L0 128.32 L0 124.87 Z" class="st2"/>
				</g>
				<g id="shape4748-14" v:mID="4748" v:groupContext="shape" transform="translate(-8.79297E-14,-77.535)">
					<title>shape4</title>
					<path d="M0 127.27 L73.12 127.27 L73.12 128.32 L0 128.32 L0 127.27 Z" class="st2"/>
				</g>
				<g id="shape4749-17" v:mID="4749" v:groupContext="shape" transform="translate(-8.79297E-14,-51.54)">
					<title>shape5</title>
					<path d="M0 127.27 L73.12 127.27 L73.12 128.32 L0 128.32 L0 127.27 Z" class="st2"/>
				</g>
			</g>
			<g id="group4750-20" transform="translate(34.5225,-111.615)" v:mID="4750" v:groupContext="group">
				<title>工作表.4750</title>
				<g id="shape4751-21" v:mID="4751" v:groupContext="shape">
					<title>shape6</title>
					<path d="M0 125.47 C0 123.9 1.27 122.62 2.85 122.62 C4.42 122.62 5.7 123.9 5.7 125.47 C5.7 127.05 4.42 128.32
								 2.85 128.32 C1.27 128.32 0 127.05 0 125.47 Z" class="st3"/>
				</g>
				<g id="shape4752-23" v:mID="4752" v:groupContext="shape" transform="translate(1.59,-1.56)">
					<title>shape7</title>
					<path d="M0 127.05 C0 126.3 0.52 125.77 1.27 125.77 C1.95 125.77 2.55 126.3 2.55 127.05 C2.55 127.72 1.95 128.32
								 1.27 128.32 C0.52 128.32 0 127.72 0 127.05 Z" class="st4"/>
				</g>
			</g>
			<g id="group4753-27" transform="translate(36.9375,-85.8)" v:mID="4753" v:groupContext="group">
				<title>工作表.4753</title>
				<g id="shape4754-28" v:mID="4754" v:groupContext="shape" transform="translate(6.405,-0.0075)">
					<title>shape8</title>
					<path d="M0.6 100.12 L1.88 100.12 C1.88 100.12 2.33 105.15 1.88 114.15 C1.43 123.15 1.88 128.32 1.88 128.32 L0.6
								 128.32 C0.6 128.32 0 122.55 0.6 114.15 C1.28 105.82 0.6 100.12 0.6 100.12 Z" class="st5"/>
				</g>
				<g id="shape4755-30" v:mID="4755" v:groupContext="shape" transform="translate(7.3425,2.84217E-13)">
					<title>shape9</title>
					<path d="M0.53 100.42 C0.98 100.42 1.35 105.82 0.98 114.52 C0.53 123.45 0.98 128.32 0.98 128.32 C0.53 128.32
								 0 122.77 0.53 114.52 C0.9 107.1 0.53 100.42 0.53 100.42 Z" class="st6"/>
				</g>
				<g id="shape4756-32" v:mID="4756" v:groupContext="shape" transform="translate(6.3525,2.84217E-13)">
					<title>shape10</title>
					<path d="M0.75 100.42 C1.28 100.42 1.5 105.82 1.05 114.52 C0.6 123.45 1.13 128.32 1.13 128.32 C0.68 128.32 0
								 120.52 0.6 114.52 C1.2 108.37 0.75 100.42 0.75 100.42 Z" class="st7"/>
				</g>
				<g id="shape4757-34" v:mID="4757" v:groupContext="shape" transform="translate(1.48881E-13,-27.6975)">
					<title>shape11</title>
					<path d="M0 126.67 C0 126.67 2.55 127.05 4.05 126.67 C5.55 126.3 7.28 126.52 7.73 126.67 C8.18 126.82 8.33 127.95
								 8.33 127.95 C8.33 127.95 6.15 127.57 4.13 127.95 C2.1 128.32 0 127.95 0 127.95 L0 126.67 Z"
							class="st5"/>
				</g>
				<g id="shape4758-36" v:mID="4758" v:groupContext="shape" transform="translate(1.6287E-13,-27.4575)">
					<title>shape12</title>
					<path d="M0 127.35 C0 127.35 2.55 127.57 4.05 127.35 C6.68 126.97 7.5 127.05 7.58 127.87 C7.65 128.32 7.13 128.02
								 7.13 128.02 C7.13 128.02 7.43 127.2 4.13 127.72 C2.1 128.02 0 127.72 0 127.35 Z" class="st7"/>
				</g>
				<g id="shape4759-38" v:mID="4759" v:groupContext="shape" transform="translate(1.51879E-13,-27.765)">
					<title>shape13</title>
					<path d="M0 126.75 C0 126.75 2.55 126.9 4.05 126.75 C6.75 126.45 8.7 126.15 8.33 128.17 C8.33 128.17 7.88 128.32
								 7.88 128.32 C7.88 128.32 8.25 126.15 4.43 127.05 C2.48 127.57 0 127.05 0 126.75 Z" class="st6"/>
				</g>
			</g>
			<g id="group4760-40" transform="translate(21.585,-3.7425)" v:mID="4760" v:groupContext="group">
				<title>工作表.4760</title>
				<g id="shape4761-41" v:mID="4761" v:groupContext="shape">
					<title>shape14</title>
					<path d="M0 85.57 L29.92 85.57 L29.92 128.32 L0 128.32 L0 85.57 Z" class="st8"/>
				</g>
				<g id="shape4762-43" v:mID="4762" v:groupContext="shape" transform="translate(0.36,-0.0075)">
					<title>shape15</title>
					<path d="M0 85.95 L29.25 85.95 L29.25 128.32 L0 128.32 L0 85.95 Z" class="st9"/>
				</g>
				<g id="shape4763-45" v:mID="4763" v:groupContext="shape" transform="translate(0,-58.5225)">
					<title>shape16</title>
					<path d="M0 97.95 L29.92 97.95 L29.92 128.32 L0 128.32 L0 97.95 Z" class="st8"/>
				</g>
				<g id="shape4764-47" v:mID="4764" v:groupContext="shape" transform="translate(0.36,-58.8825)">
					<title>shape17</title>
					<path d="M0 98.85 L29.25 98.85 L29.25 128.32 L0 128.32 L0 98.85 Z" class="st9"/>
				</g>
				<g id="group4765-49" transform="translate(0.435,-44.235)" v:mID="4765" v:groupContext="group">
					<title>工作表.4765</title>
					<g id="shape4766-50" v:mID="4766" v:groupContext="shape" transform="translate(0.0525,2.84217E-14)">
						<title>shape18</title>
						<path d="M0.6 115.5 L1.88 115.5 C1.88 115.5 2.33 117.82 1.88 121.87 C1.43 125.92 1.88 128.32 1.88 128.32
									 L0.6 128.32 C0.6 128.32 0 125.7 0.6 121.87 C1.28 118.05 0.6 115.5 0.6 115.5 Z" class="st5"/>
					</g>
					<g id="shape4767-52" v:mID="4767" v:groupContext="shape" transform="translate(0.99,-0.0075)">
						<title>shape19</title>
						<path d="M0.53 115.65 C0.98 115.65 1.35 118.12 0.98 122.02 C0.53 126.07 0.98 128.32 0.98 128.32 C0.53 128.32
									 0 125.85 0.53 122.02 C0.9 118.65 0.53 115.65 0.53 115.65 Z" class="st6"/>
					</g>
					<g id="shape4768-54" v:mID="4768" v:groupContext="shape" transform="translate(-6.245E-16,-0.0075)">
						<title>shape20</title>
						<path d="M0.75 115.65 C1.27 115.65 1.5 118.12 1.05 122.02 C0.6 126.07 1.12 128.32 1.12 128.32 C0.67 128.32
									 0 124.8 0.6 122.02 C1.2 119.25 0.75 115.65 0.75 115.65 Z" class="st7"/>
					</g>
				</g>
				<g id="group4769-56" transform="translate(5.73,-44.235)" v:mID="4769" v:groupContext="group">
					<title>工作表.4769</title>
					<g id="shape4770-57" v:mID="4770" v:groupContext="shape" transform="translate(0.0525,2.84217E-14)">
						<title>shape21</title>
						<path d="M0.6 115.5 L1.88 115.5 C1.88 115.5 2.33 117.82 1.88 121.87 C1.43 125.92 1.88 128.32 1.88 128.32
									 L0.6 128.32 C0.6 128.32 0 125.7 0.6 121.87 C1.28 118.05 0.6 115.5 0.6 115.5 Z" class="st5"/>
					</g>
					<g id="shape4771-59" v:mID="4771" v:groupContext="shape" transform="translate(0.99,-0.0075)">
						<title>shape22</title>
						<path d="M0.53 115.65 C0.98 115.65 1.35 118.12 0.98 122.02 C0.53 126.07 0.98 128.32 0.98 128.32 C0.53 128.32
									 0 125.85 0.53 122.02 C0.9 118.65 0.53 115.65 0.53 115.65 Z" class="st6"/>
					</g>
					<g id="shape4772-61" v:mID="4772" v:groupContext="shape" transform="translate(-6.245E-16,-0.0075)">
						<title>shape23</title>
						<path d="M0.75 115.65 C1.27 115.65 1.5 118.12 1.05 122.02 C0.6 126.07 1.12 128.32 1.12 128.32 C0.67 128.32
									 0 124.8 0.6 122.02 C1.2 119.25 0.75 115.65 0.75 115.65 Z" class="st7"/>
					</g>
				</g>
				<g id="group4773-63" transform="translate(10.905,-44.235)" v:mID="4773" v:groupContext="group">
					<title>工作表.4773</title>
					<g id="shape4774-64" v:mID="4774" v:groupContext="shape" transform="translate(0.0525,2.84217E-14)">
						<title>shape24</title>
						<path d="M0.6 115.5 L1.88 115.5 C1.88 115.5 2.33 117.82 1.88 121.87 C1.43 125.92 1.88 128.32 1.88 128.32
									 L0.6 128.32 C0.6 128.32 0 125.7 0.6 121.87 C1.28 118.05 0.6 115.5 0.6 115.5 Z" class="st5"/>
					</g>
					<g id="shape4775-66" v:mID="4775" v:groupContext="shape" transform="translate(0.99,-0.0075)">
						<title>shape25</title>
						<path d="M0.53 115.65 C0.98 115.65 1.35 118.12 0.98 122.02 C0.53 126.07 0.98 128.32 0.98 128.32 C0.53 128.32
									 0 125.85 0.53 122.02 C0.9 118.65 0.53 115.65 0.53 115.65 Z" class="st6"/>
					</g>
					<g id="shape4776-68" v:mID="4776" v:groupContext="shape" transform="translate(-6.245E-16,-0.0075)">
						<title>shape26</title>
						<path d="M0.75 115.65 C1.27 115.65 1.5 118.12 1.05 122.02 C0.6 126.07 1.12 128.32 1.12 128.32 C0.67 128.32
									 0 124.8 0.6 122.02 C1.2 119.25 0.75 115.65 0.75 115.65 Z" class="st7"/>
					</g>
				</g>
				<g id="group4777-70" transform="translate(16.32,-44.235)" v:mID="4777" v:groupContext="group">
					<title>工作表.4777</title>
					<g id="shape4778-71" v:mID="4778" v:groupContext="shape" transform="translate(0.0525,2.84217E-14)">
						<title>shape27</title>
						<path d="M0.6 115.5 L1.88 115.5 C1.88 115.5 2.33 117.82 1.88 121.87 C1.43 125.92 1.88 128.32 1.88 128.32
									 L0.6 128.32 C0.6 128.32 0 125.7 0.6 121.87 C1.28 118.05 0.6 115.5 0.6 115.5 Z" class="st5"/>
					</g>
					<g id="shape4779-73" v:mID="4779" v:groupContext="shape" transform="translate(0.99,-0.0075)">
						<title>shape28</title>
						<path d="M0.53 115.65 C0.98 115.65 1.35 118.12 0.98 122.02 C0.53 126.07 0.98 128.32 0.98 128.32 C0.53 128.32
									 0 125.85 0.53 122.02 C0.9 118.65 0.53 115.65 0.53 115.65 Z" class="st6"/>
					</g>
					<g id="shape4780-75" v:mID="4780" v:groupContext="shape" transform="translate(-6.245E-16,-0.0075)">
						<title>shape29</title>
						<path d="M0.75 115.65 C1.27 115.65 1.5 118.12 1.05 122.02 C0.6 126.07 1.12 128.32 1.12 128.32 C0.67 128.32
									 0 124.8 0.6 122.02 C1.2 119.25 0.75 115.65 0.75 115.65 Z" class="st7"/>
					</g>
				</g>
				<g id="group4781-77" transform="translate(21.5475,-44.235)" v:mID="4781" v:groupContext="group">
					<title>工作表.4781</title>
					<g id="shape4782-78" v:mID="4782" v:groupContext="shape" transform="translate(0.0525,2.84217E-14)">
						<title>shape30</title>
						<path d="M0.6 115.5 L1.88 115.5 C1.88 115.5 2.33 117.82 1.88 121.87 C1.43 125.92 1.88 128.32 1.88 128.32
									 L0.6 128.32 C0.6 128.32 0 125.7 0.6 121.87 C1.28 118.05 0.6 115.5 0.6 115.5 Z" class="st5"/>
					</g>
					<g id="shape4783-80" v:mID="4783" v:groupContext="shape" transform="translate(0.99,-0.0075)">
						<title>shape31</title>
						<path d="M0.53 115.65 C0.98 115.65 1.35 118.12 0.98 122.02 C0.53 126.07 0.98 128.32 0.98 128.32 C0.53 128.32
									 0 125.85 0.53 122.02 C0.9 118.65 0.53 115.65 0.53 115.65 Z" class="st6"/>
					</g>
					<g id="shape4784-82" v:mID="4784" v:groupContext="shape" transform="translate(-6.245E-16,-0.0075)">
						<title>shape32</title>
						<path d="M0.75 115.65 C1.27 115.65 1.5 118.12 1.05 122.02 C0.6 126.07 1.12 128.32 1.12 128.32 C0.67 128.32
									 0 124.8 0.6 122.02 C1.2 119.25 0.75 115.65 0.75 115.65 Z" class="st7"/>
					</g>
				</g>
				<g id="group4785-84" transform="translate(26.91,-44.235)" v:mID="4785" v:groupContext="group">
					<title>工作表.4785</title>
					<g id="shape4786-85" v:mID="4786" v:groupContext="shape" transform="translate(0.0525,2.84217E-14)">
						<title>shape33</title>
						<path d="M0.6 115.5 L1.88 115.5 C1.88 115.5 2.33 117.82 1.88 121.87 C1.43 125.92 1.88 128.32 1.88 128.32
									 L0.6 128.32 C0.6 128.32 0 125.7 0.6 121.87 C1.28 118.05 0.6 115.5 0.6 115.5 Z" class="st5"/>
					</g>
					<g id="shape4787-87" v:mID="4787" v:groupContext="shape" transform="translate(0.99,-0.0075)">
						<title>shape34</title>
						<path d="M0.53 115.65 C0.98 115.65 1.35 118.12 0.98 122.02 C0.53 126.07 0.98 128.32 0.98 128.32 C0.53 128.32
									 0 125.85 0.53 122.02 C0.9 118.65 0.53 115.65 0.53 115.65 Z" class="st6"/>
					</g>
					<g id="shape4788-89" v:mID="4788" v:groupContext="shape" transform="translate(-6.245E-16,-0.0075)">
						<title>shape35</title>
						<path d="M0.75 115.65 C1.27 115.65 1.5 118.12 1.05 122.02 C0.6 126.07 1.12 128.32 1.12 128.32 C0.67 128.32
									 0 124.8 0.6 122.02 C1.2 119.25 0.75 115.65 0.75 115.65 Z" class="st7"/>
					</g>
				</g>
				<g id="group4789-91" transform="translate(0.9,-56.9175)" v:mID="4789" v:groupContext="group">
					<title>工作表.4789</title>
					<g id="shape4790-92" v:mID="4790" v:groupContext="shape">
						<title>shape36</title>
						<path d="M0 126.75 L1.65 126.75 L1.65 128.32 L0 128.32 L0 126.75 Z" class="st2"/>
					</g>
					<g id="shape4791-95" v:mID="4791" v:groupContext="shape" transform="translate(5.295,2.84217E-14)">
						<title>shape37</title>
						<path d="M0 126.75 L1.65 126.75 L1.65 128.32 L0 128.32 L0 126.75 Z" class="st2"/>
					</g>
					<g id="shape4792-98" v:mID="4792" v:groupContext="shape" transform="translate(10.5975,2.84217E-14)">
						<title>shape38</title>
						<path d="M0 126.75 L1.65 126.75 L1.65 128.32 L0 128.32 L0 126.75 Z" class="st2"/>
					</g>
					<g id="shape4793-101" v:mID="4793" v:groupContext="shape" transform="translate(15.8925,2.84217E-14)">
						<title>shape39</title>
						<path d="M0 126.75 L1.65 126.75 L1.65 128.32 L0 128.32 L0 126.75 Z" class="st2"/>
					</g>
					<g id="shape4794-104" v:mID="4794" v:groupContext="shape" transform="translate(26.49,2.84217E-14)">
						<title>shape40</title>
						<path d="M0 126.75 L1.65 126.75 L1.65 128.32 L0 128.32 L0 126.75 Z" class="st2"/>
					</g>
					<g id="shape4795-107" v:mID="4795" v:groupContext="shape" transform="translate(21.195,2.84217E-14)">
						<title>shape41</title>
						<path d="M0 126.75 L1.65 126.75 L1.65 128.32 L0 128.32 L0 126.75 Z" class="st2"/>
					</g>
				</g>
				<g id="group4796-110" transform="translate(0.9,-42.7425)" v:mID="4796" v:groupContext="group">
					<title>工作表.4796</title>
					<g id="shape4797-111" v:mID="4797" v:groupContext="shape">
						<title>shape42</title>
						<path d="M0 126.75 L1.65 126.75 L1.65 128.32 L0 128.32 L0 126.75 Z" class="st2"/>
					</g>
					<g id="shape4798-114" v:mID="4798" v:groupContext="shape" transform="translate(5.295,2.84217E-14)">
						<title>shape43</title>
						<path d="M0 126.75 L1.65 126.75 L1.65 128.32 L0 128.32 L0 126.75 Z" class="st2"/>
					</g>
					<g id="shape4799-117" v:mID="4799" v:groupContext="shape" transform="translate(10.5975,2.84217E-14)">
						<title>shape44</title>
						<path d="M0 126.75 L1.65 126.75 L1.65 128.32 L0 128.32 L0 126.75 Z" class="st2"/>
					</g>
					<g id="shape4800-120" v:mID="4800" v:groupContext="shape" transform="translate(15.8925,2.84217E-14)">
						<title>shape45</title>
						<path d="M0 126.75 L1.65 126.75 L1.65 128.32 L0 128.32 L0 126.75 Z" class="st2"/>
					</g>
					<g id="shape4801-123" v:mID="4801" v:groupContext="shape" transform="translate(26.49,2.84217E-14)">
						<title>shape46</title>
						<path d="M0 126.75 L1.65 126.75 L1.65 128.32 L0 128.32 L0 126.75 Z" class="st2"/>
					</g>
					<g id="shape4802-126" v:mID="4802" v:groupContext="shape" transform="translate(21.195,2.84217E-14)">
						<title>shape47</title>
						<path d="M0 126.75 L1.65 126.75 L1.65 128.32 L0 128.32 L0 126.75 Z" class="st2"/>
					</g>
				</g>
				<g id="group4803-129" transform="translate(10.0125,-23.0175)" v:mID="4803" v:groupContext="group">
					<title>工作表.4803</title>
					<g id="shape4804-130" v:mID="4804" v:groupContext="shape" transform="translate(9.9,248.1) rotate(180)">
						<title>shape48</title>
						<path d="M9.9 119.77 L4.95 128.32 L0 119.77 L9.9 119.77 Z" class="st10"/>
					</g>
					<g id="shape4805-132" v:mID="4805" v:groupContext="shape" transform="translate(3.6525,-0.7575)">
						<title>shape49</title>
						<path d="M1.5 122.92 C1.5 122.92 0 125.62 0.07 125.55 C0.15 125.47 1.58 126.22 1.58 126.22 L0.9 128.32 L2.55
									 125.92 L1.05 125.1 L1.5 122.92 Z" class="st11"/>
					</g>
				</g>
				<g id="group4806-134" transform="translate(2.82,-63.9975)" v:mID="4806" v:groupContext="group">
					<title>工作表.4806</title>
					<g id="shape4807-135" v:mID="4807" v:groupContext="shape">
						<title>shape50</title>
						<path d="M0 126.6 C0 125.62 0.75 124.87 1.73 124.87 C2.7 124.87 3.45 125.62 3.45 126.6 C3.45 127.57 2.7 128.32
									 1.73 128.32 C0.75 128.32 0 127.57 0 126.6 Z" class="st12"/>
					</g>
					<g id="shape4808-137" v:mID="4808" v:groupContext="shape" transform="translate(0.3225,-0.2775)">
						<title>shape51</title>
						<path d="M0 126.9 C0 126.07 0.6 125.47 1.43 125.47 C2.18 125.47 2.85 126.07 2.85 126.9 C2.85 127.65 2.18
									 128.32 1.43 128.32 C0.6 128.32 0 127.65 0 126.9 Z" class="st13"/>
					</g>
				</g>
				<g id="shape4809-141" v:mID="4809" v:groupContext="shape" transform="translate(21.075,-71.7825)">
					<title>shape52</title>
					<path d="M0 116.32 L6.9 116.32 L6.9 128.32 L0 128.32 L0 116.32 Z" class="st14"/>
				</g>
				<g id="shape4810-143" v:mID="4810" v:groupContext="shape" transform="translate(21.6825,-72.255)">
					<title>shape53</title>
					<path d="M0 117.3 L5.7 117.3 L5.7 128.32 L0 128.32 L0 117.3 Z" class="st15"/>
				</g>
				<g id="group4811-145" transform="translate(2.9775,-71.16)" v:mID="4811" v:groupContext="group">
					<title>工作表.4811</title>
					<g id="group4812-146" v:mID="4812" v:groupContext="group">
						<title>工作表.4812</title>
						<g id="shape4813-147" v:mID="4813" v:groupContext="shape">
							<title>shape54</title>
							<path d="M0 127.12 C0 126.37 0.52 125.85 1.27 125.85 C1.95 125.85 2.47 126.37 2.47 127.12 C2.47 127.8
										 1.95 128.32 1.27 128.32 C0.52 128.32 0 127.8 0 127.12 Z" class="st16"/>
						</g>
						<g id="shape4814-149" v:mID="4814" v:groupContext="shape" transform="translate(0.2325,-0.2175)">
							<title>shape55</title>
							<path d="M0 127.35 C0 126.75 0.45 126.3 1.05 126.3 C1.57 126.3 2.02 126.75 2.02 127.35 C2.02 127.87 1.57
										 128.32 1.05 128.32 C0.45 128.32 0 127.87 0 127.35 Z" class="st17"/>
						</g>
					</g>
					<g id="group4815-153" transform="translate(4.395,-0.0075)" v:mID="4815" v:groupContext="group">
						<title>工作表.4815</title>
						<g id="shape4816-154" v:mID="4816" v:groupContext="shape">
							<title>shape56</title>
							<path d="M0 127.12 C0 126.37 0.52 125.85 1.27 125.85 C1.95 125.85 2.47 126.37 2.47 127.12 C2.47 127.8
										 1.95 128.32 1.27 128.32 C0.52 128.32 0 127.8 0 127.12 Z" class="st18"/>
						</g>
						<g id="shape4817-156" v:mID="4817" v:groupContext="shape" transform="translate(0.2325,-0.2175)">
							<title>shape57</title>
							<path d="M0 127.35 C0 126.75 0.45 126.3 1.05 126.3 C1.57 126.3 2.02 126.75 2.02 127.35 C2.02 127.87 1.57
										 128.32 1.05 128.32 C0.45 128.32 0 127.87 0 127.35 Z" class="st19"/>
						</g>
					</g>
					<g id="group4818-160" transform="translate(8.8275,0)" v:mID="4818" v:groupContext="group">
						<title>工作表.4818</title>
						<g id="shape4819-161" v:mID="4819" v:groupContext="shape">
							<title>shape58</title>
							<path d="M0 127.12 C0 126.37 0.52 125.85 1.27 125.85 C1.95 125.85 2.47 126.37 2.47 127.12 C2.47 127.8
										 1.95 128.32 1.27 128.32 C0.52 128.32 0 127.8 0 127.12 Z" class="st16"/>
						</g>
						<g id="shape4820-163" v:mID="4820" v:groupContext="shape" transform="translate(0.2325,-0.2175)">
							<title>shape59</title>
							<path d="M0 127.35 C0 126.75 0.45 126.3 1.05 126.3 C1.57 126.3 2.02 126.75 2.02 127.35 C2.02 127.87 1.57
										 128.32 1.05 128.32 C0.45 128.32 0 127.87 0 127.35 Z" class="st17"/>
						</g>
					</g>
					<g id="group4821-166" transform="translate(13.1925,-0.0075)" v:mID="4821" v:groupContext="group">
						<title>工作表.4821</title>
						<g id="shape4822-167" v:mID="4822" v:groupContext="shape">
							<title>shape60</title>
							<path d="M0 127.12 C0 126.37 0.52 125.85 1.27 125.85 C1.95 125.85 2.47 126.37 2.47 127.12 C2.47 127.8
										 1.95 128.32 1.27 128.32 C0.52 128.32 0 127.8 0 127.12 Z" class="st18"/>
						</g>
						<g id="shape4823-169" v:mID="4823" v:groupContext="shape" transform="translate(0.2325,-0.2175)">
							<title>shape61</title>
							<path d="M0 127.35 C0 126.75 0.45 126.3 1.05 126.3 C1.57 126.3 2.02 126.75 2.02 127.35 C2.02 127.87 1.57
										 128.32 1.05 128.32 C0.45 128.32 0 127.87 0 127.35 Z" class="st19"/>
						</g>
					</g>
				</g>
				<g id="group4824-172" transform="translate(2.9775,-76.005)" v:mID="4824" v:groupContext="group">
					<title>工作表.4824</title>
					<g id="group4825-173" transform="translate(4.395,2.84217E-14)" v:mID="4825" v:groupContext="group">
						<title>工作表.4825</title>
						<g id="shape4826-174" v:mID="4826" v:groupContext="shape">
							<title>shape62</title>
							<path d="M0 127.12 C0 126.37 0.52 125.85 1.27 125.85 C1.95 125.85 2.47 126.37 2.47 127.12 C2.47 127.8
										 1.95 128.32 1.27 128.32 C0.52 128.32 0 127.8 0 127.12 Z" class="st18"/>
						</g>
						<g id="shape4827-176" v:mID="4827" v:groupContext="shape" transform="translate(0.2325,-0.2175)">
							<title>shape63</title>
							<path d="M0 127.35 C0 126.75 0.45 126.3 1.05 126.3 C1.57 126.3 2.02 126.75 2.02 127.35 C2.02 127.87 1.57
										 128.32 1.05 128.32 C0.45 128.32 0 127.87 0 127.35 Z" class="st19"/>
						</g>
					</g>
					<g id="group4828-179" transform="translate(8.7975,2.84217E-14)" v:mID="4828" v:groupContext="group">
						<title>工作表.4828</title>
						<g id="shape4829-180" v:mID="4829" v:groupContext="shape">
							<title>shape64</title>
							<path d="M0 127.12 C0 126.37 0.52 125.85 1.27 125.85 C1.95 125.85 2.47 126.37 2.47 127.12 C2.47 127.8
										 1.95 128.32 1.27 128.32 C0.52 128.32 0 127.8 0 127.12 Z" class="st18"/>
						</g>
						<g id="shape4830-182" v:mID="4830" v:groupContext="shape" transform="translate(0.2325,-0.2175)">
							<title>shape65</title>
							<path d="M0 127.35 C0 126.75 0.45 126.3 1.05 126.3 C1.57 126.3 2.02 126.75 2.02 127.35 C2.02 127.87 1.57
										 128.32 1.05 128.32 C0.45 128.32 0 127.87 0 127.35 Z" class="st19"/>
						</g>
					</g>
					<g id="group4831-185" transform="translate(13.1925,2.84217E-14)" v:mID="4831" v:groupContext="group">
						<title>工作表.4831</title>
						<g id="shape4832-186" v:mID="4832" v:groupContext="shape">
							<title>shape66</title>
							<path d="M0 127.12 C0 126.37 0.52 125.85 1.27 125.85 C1.95 125.85 2.47 126.37 2.47 127.12 C2.47 127.8
										 1.95 128.32 1.27 128.32 C0.52 128.32 0 127.8 0 127.12 Z" class="st18"/>
						</g>
						<g id="shape4833-188" v:mID="4833" v:groupContext="shape" transform="translate(0.2325,-0.2175)">
							<title>shape67</title>
							<path d="M0 127.35 C0 126.75 0.45 126.3 1.05 126.3 C1.57 126.3 2.02 126.75 2.02 127.35 C2.02 127.87 1.57
										 128.32 1.05 128.32 C0.45 128.32 0 127.87 0 127.35 Z" class="st19"/>
						</g>
					</g>
					<g id="group4834-191" v:mID="4834" v:groupContext="group">
						<title>工作表.4834</title>
						<g id="shape4835-192" v:mID="4835" v:groupContext="shape">
							<title>shape68</title>
							<path d="M0 127.12 C0 126.37 0.52 125.85 1.27 125.85 C1.95 125.85 2.47 126.37 2.47 127.12 C2.47 127.8
										 1.95 128.32 1.27 128.32 C0.52 128.32 0 127.8 0 127.12 Z" class="st18"/>
						</g>
						<g id="shape4836-194" v:mID="4836" v:groupContext="shape" transform="translate(0.2325,-0.2175)">
							<title>shape69</title>
							<path d="M0 127.35 C0 126.75 0.45 126.3 1.05 126.3 C1.57 126.3 2.02 126.75 2.02 127.35 C2.02 127.87 1.57
										 128.32 1.05 128.32 C0.45 128.32 0 127.87 0 127.35 Z" class="st19"/>
						</g>
					</g>
				</g>
				<g id="group4837-197" transform="translate(2.49,-80.82)" v:mID="4837" v:groupContext="group">
					<title>工作表.4837</title>
					<g id="group4838-198" v:mID="4838" v:groupContext="group">
						<title>工作表.4838</title>
						<g id="shape4839-199" v:mID="4839" v:groupContext="shape">
							<title>shape70</title>
							<path d="M0 126.6 C0 125.62 0.75 124.87 1.73 124.87 C2.7 124.87 3.45 125.62 3.45 126.6 C3.45 127.57 2.7
										 128.32 1.73 128.32 C0.75 128.32 0 127.57 0 126.6 Z" class="st16"/>
						</g>
						<g id="shape4840-201" v:mID="4840" v:groupContext="shape" transform="translate(0.3225,-0.2775)">
							<title>shape71</title>
							<path d="M0 126.9 C0 126.07 0.6 125.47 1.43 125.47 C2.18 125.47 2.85 126.07 2.85 126.9 C2.85 127.65 2.18
										 128.32 1.43 128.32 C0.6 128.32 0 127.65 0 126.9 Z" class="st20"/>
						</g>
					</g>
					<g id="group4841-205" transform="translate(6.6,2.84217E-14)" v:mID="4841" v:groupContext="group">
						<title>工作表.4841</title>
						<g id="shape4842-206" v:mID="4842" v:groupContext="shape">
							<title>shape72</title>
							<path d="M0 126.6 C0 125.62 0.75 124.87 1.73 124.87 C2.7 124.87 3.45 125.62 3.45 126.6 C3.45 127.57 2.7
										 128.32 1.73 128.32 C0.75 128.32 0 127.57 0 126.6 Z" class="st16"/>
						</g>
						<g id="shape4843-208" v:mID="4843" v:groupContext="shape" transform="translate(0.3225,-0.2775)">
							<title>shape73</title>
							<path d="M0 126.9 C0 126.07 0.6 125.47 1.43 125.47 C2.18 125.47 2.85 126.07 2.85 126.9 C2.85 127.65 2.18
										 128.32 1.43 128.32 C0.6 128.32 0 127.65 0 126.9 Z" class="st20"/>
						</g>
					</g>
					<g id="group4844-211" transform="translate(13.2,2.84217E-14)" v:mID="4844" v:groupContext="group">
						<title>工作表.4844</title>
						<g id="shape4845-212" v:mID="4845" v:groupContext="shape">
							<title>shape74</title>
							<path d="M0 126.6 C0 125.62 0.75 124.87 1.73 124.87 C2.7 124.87 3.45 125.62 3.45 126.6 C3.45 127.57 2.7
										 128.32 1.73 128.32 C0.75 128.32 0 127.57 0 126.6 Z" class="st16"/>
						</g>
						<g id="shape4846-214" v:mID="4846" v:groupContext="shape" transform="translate(0.3225,-0.2775)">
							<title>shape75</title>
							<path d="M0 126.9 C0 126.07 0.6 125.47 1.43 125.47 C2.18 125.47 2.85 126.07 2.85 126.9 C2.85 127.65 2.18
										 128.32 1.43 128.32 C0.6 128.32 0 127.65 0 126.9 Z" class="st20"/>
						</g>
					</g>
				</g>
			</g>
		</g>
	</g>
</svg>
