<?xml version="1.0" encoding="UTF-8" standalone="no"?>
<!DOCTYPE svg PUBLIC "-//W3C//DTD SVG 1.1//EN" "http://www.w3.org/Graphics/SVG/1.1/DTD/svg11.dtd">
<!-- 由 Microsoft Visio, SVG Export 生成 罐37.svg 页-1 -->
<svg xmlns="http://www.w3.org/2000/svg" xmlns:xlink="http://www.w3.org/1999/xlink" xmlns:ev="http://www.w3.org/2001/xml-events"
		xmlns:v="http://schemas.microsoft.com/visio/2003/SVGExtensions/" width="1.94812in" height="2.24042in"
		viewBox="0 0 140.265 161.31" xml:space="preserve" color-interpolation-filters="sRGB" class="st4">
	<v:documentProperties v:langID="2052" v:metric="true" v:viewMarkup="false"/>

	<style type="text/css">
	<![CDATA[
		.st1 {fill:#cfd4db;stroke:none;stroke-linecap:butt;stroke-width:0.75}
		.st2 {fill:#b2b9c4;stroke:none;stroke-linecap:butt;stroke-width:0.75}
		.st3 {fill:#e9ecef;stroke:none;stroke-linecap:butt;stroke-width:0.75}
		.st4 {fill:none;fill-rule:evenodd;font-size:12px;overflow:visible;stroke-linecap:square;stroke-miterlimit:3}
	]]>
	</style>

	<g v:mID="0" v:index="1" v:groupContext="foregroundPage">
		<title>页-1</title>
		<v:pageProperties v:drawingScale="0.0393701" v:pageScale="0.0393701" v:drawingUnits="24" v:shadowOffsetX="8.50394"
				v:shadowOffsetY="-8.50394"/>
		<g id="group6326-1" transform="translate(0.75,-0.75)" v:mID="6326" v:groupContext="group">
			<title>换热器2</title>
			<g id="group6327-2" v:mID="6327" v:groupContext="group">
				<title>工作表.6327</title>
				<g id="shape6328-3" v:mID="6328" v:groupContext="shape">
					<title>shape1</title>
					<path d="M0 21.28 L13.72 21.28 L13.72 161.31 L0 161.31 L0 21.28 Z" class="st1"/>
				</g>
				<g id="shape6329-5" v:mID="6329" v:groupContext="shape" transform="translate(13.695,-0.06)">
					<title>shape2</title>
					<path d="M0 21.36 L14.4 1.56 L14.4 141.58 L0 161.31 L0 21.36 Z" class="st2"/>
				</g>
				<g id="shape6330-7" v:mID="6330" v:groupContext="shape" transform="translate(-2.09832E-13,-139.755)">
					<title>shape3</title>
					<path d="M14.4 141.66 L28.05 141.66 L13.72 161.31 L0 161.31 L14.4 141.66 Z" class="st3"/>
				</g>
			</g>
			<g id="group6331-9" transform="translate(27.6675,-3.41061E-13)" v:mID="6331" v:groupContext="group">
				<title>工作表.6331</title>
				<g id="shape6332-10" v:mID="6332" v:groupContext="shape">
					<title>shape4</title>
					<path d="M0 21.28 L13.72 21.28 L13.72 161.31 L0 161.31 L0 21.28 Z" class="st1"/>
				</g>
				<g id="shape6333-12" v:mID="6333" v:groupContext="shape" transform="translate(13.695,-0.06)">
					<title>shape5</title>
					<path d="M0 21.36 L14.4 1.56 L14.4 141.58 L0 161.31 L0 21.36 Z" class="st2"/>
				</g>
				<g id="shape6334-14" v:mID="6334" v:groupContext="shape" transform="translate(-2.09832E-13,-139.755)">
					<title>shape6</title>
					<path d="M14.4 141.66 L28.05 141.66 L13.72 161.31 L0 161.31 L14.4 141.66 Z" class="st3"/>
				</g>
			</g>
			<g id="group6335-16" transform="translate(55.335,-3.41061E-13)" v:mID="6335" v:groupContext="group">
				<title>工作表.6335</title>
				<g id="shape6336-17" v:mID="6336" v:groupContext="shape">
					<title>shape7</title>
					<path d="M0 21.28 L13.72 21.28 L13.72 161.31 L0 161.31 L0 21.28 Z" class="st1"/>
				</g>
				<g id="shape6337-19" v:mID="6337" v:groupContext="shape" transform="translate(13.695,-0.06)">
					<title>shape8</title>
					<path d="M0 21.36 L14.4 1.56 L14.4 141.58 L0 161.31 L0 21.36 Z" class="st2"/>
				</g>
				<g id="shape6338-21" v:mID="6338" v:groupContext="shape" transform="translate(-2.09832E-13,-139.755)">
					<title>shape9</title>
					<path d="M14.4 141.66 L28.05 141.66 L13.72 161.31 L0 161.31 L14.4 141.66 Z" class="st3"/>
				</g>
			</g>
			<g id="group6339-23" transform="translate(83.0025,-3.41061E-13)" v:mID="6339" v:groupContext="group">
				<title>工作表.6339</title>
				<g id="shape6340-24" v:mID="6340" v:groupContext="shape">
					<title>shape10</title>
					<path d="M0 21.28 L13.72 21.28 L13.72 161.31 L0 161.31 L0 21.28 Z" class="st1"/>
				</g>
				<g id="shape6341-26" v:mID="6341" v:groupContext="shape" transform="translate(13.695,-0.06)">
					<title>shape11</title>
					<path d="M0 21.36 L14.4 1.56 L14.4 141.58 L0 161.31 L0 21.36 Z" class="st2"/>
				</g>
				<g id="shape6342-28" v:mID="6342" v:groupContext="shape" transform="translate(-2.09832E-13,-139.755)">
					<title>shape12</title>
					<path d="M14.4 141.66 L28.05 141.66 L13.72 161.31 L0 161.31 L14.4 141.66 Z" class="st3"/>
				</g>
			</g>
			<g id="group6343-30" transform="translate(110.67,-3.41061E-13)" v:mID="6343" v:groupContext="group">
				<title>工作表.6343</title>
				<g id="shape6344-31" v:mID="6344" v:groupContext="shape">
					<title>shape13</title>
					<path d="M0 21.28 L13.72 21.28 L13.72 161.31 L0 161.31 L0 21.28 Z" class="st1"/>
				</g>
				<g id="shape6345-33" v:mID="6345" v:groupContext="shape" transform="translate(13.695,-0.06)">
					<title>shape14</title>
					<path d="M0 21.36 L14.4 1.56 L14.4 141.58 L0 161.31 L0 21.36 Z" class="st2"/>
				</g>
				<g id="shape6346-35" v:mID="6346" v:groupContext="shape" transform="translate(-2.09832E-13,-139.755)">
					<title>shape15</title>
					<path d="M14.4 141.66 L28.05 141.66 L13.72 161.31 L0 161.31 L14.4 141.66 Z" class="st3"/>
				</g>
			</g>
		</g>
	</g>
</svg>
