<?xml version="1.0" encoding="UTF-8" standalone="no"?>
<!DOCTYPE svg PUBLIC "-//W3C//DTD SVG 1.1//EN" "http://www.w3.org/Graphics/SVG/1.1/DTD/svg11.dtd">
<!-- 由 Microsoft Visio, SVG Export 生成 罐.18svg.svg 页-1 -->
<svg xmlns="http://www.w3.org/2000/svg" xmlns:xlink="http://www.w3.org/1999/xlink" xmlns:ev="http://www.w3.org/2001/xml-events"
		xmlns:v="http://schemas.microsoft.com/visio/2003/SVGExtensions/" width="1.08854in" height="1.18021in"
		viewBox="0 0 78.375 84.975" xml:space="preserve" color-interpolation-filters="sRGB" class="st10">
	<v:documentProperties v:langID="2052" v:metric="true" v:viewMarkup="false"/>

	<style type="text/css">
	<![CDATA[
		.st1 {fill:url(#grad0-5);stroke:none;stroke-linecap:butt;stroke-width:0.75}
		.st2 {fill:url(#grad0-9);stroke:none;stroke-linecap:butt;stroke-width:0.75}
		.st3 {fill:url(#grad0-16);stroke:none;stroke-linecap:butt;stroke-width:0.75}
		.st4 {fill:url(#grad0-29);stroke:none;stroke-linecap:butt;stroke-width:0.75}
		.st5 {fill:#fe5c1c;stroke:none;stroke-linecap:butt;stroke-width:0.75}
		.st6 {fill:#fd991f;stroke:none;stroke-linecap:butt;stroke-width:0.75}
		.st7 {fill:#fcd732;stroke:none;stroke-linecap:butt;stroke-width:0.75}
		.st8 {fill:#fcffa4;stroke:none;stroke-linecap:butt;stroke-width:0.75}
		.st9 {fill:url(#grad0-57);stroke:none;stroke-linecap:butt;stroke-width:0.75}
		.st10 {fill:none;fill-rule:evenodd;font-size:12px;overflow:visible;stroke-linecap:square;stroke-miterlimit:3}
	]]>
	</style>

	<defs id="Patterns_And_Gradients">
		<linearGradient id="grad0-5" x1="0" y1="0" x2="1" y2="0" gradientTransform="rotate(-180 0.5 0.5)">
			<stop offset="0" stop-color="#b8b8b8" stop-opacity="1"/>
			<stop offset="0.15" stop-color="#f8f8f8" stop-opacity="1"/>
			<stop offset="0.25" stop-color="#fbfbfb" stop-opacity="1"/>
			<stop offset="0.52" stop-color="#d9d9d9" stop-opacity="1"/>
			<stop offset="0.69" stop-color="#c1c1c1" stop-opacity="1"/>
			<stop offset="0.8" stop-color="#b6b6b6" stop-opacity="1"/>
			<stop offset="0.92" stop-color="#acacac" stop-opacity="1"/>
			<stop offset="1" stop-color="#c6c6c6" stop-opacity="1"/>
		</linearGradient>
		<linearGradient id="grad0-9" x1="0" y1="0" x2="1" y2="0" gradientTransform="rotate(107.97400320381 0.5 0.5)">
			<stop offset="0" stop-color="#999999" stop-opacity="1"/>
			<stop offset="0.29" stop-color="#f8f8f8" stop-opacity="1"/>
		</linearGradient>
		<linearGradient id="grad0-16" x1="0" y1="0" x2="1" y2="0" gradientTransform="rotate(-180 0.5 0.5)">
			<stop offset="0" stop-color="#979797" stop-opacity="1"/>
			<stop offset="0.15" stop-color="#d0d0d0" stop-opacity="1"/>
			<stop offset="0.25" stop-color="#e5e5e5" stop-opacity="1"/>
			<stop offset="0.52" stop-color="#b3b3b3" stop-opacity="1"/>
			<stop offset="0.69" stop-color="#9f9f9f" stop-opacity="1"/>
			<stop offset="0.8" stop-color="#969696" stop-opacity="1"/>
			<stop offset="0.92" stop-color="#8e8e8e" stop-opacity="1"/>
			<stop offset="1" stop-color="#a3a3a3" stop-opacity="1"/>
		</linearGradient>
		<linearGradient id="grad0-29" x1="0" y1="0" x2="1" y2="0" gradientTransform="rotate(0 0.5 0.5)">
			<stop offset="0" stop-color="#787878" stop-opacity="1"/>
			<stop offset="0.24" stop-color="#ababab" stop-opacity="1"/>
			<stop offset="0.57" stop-color="#8f8f8f" stop-opacity="1"/>
			<stop offset="0.74" stop-color="#7f7f7f" stop-opacity="1"/>
			<stop offset="0.86" stop-color="#777777" stop-opacity="1"/>
		</linearGradient>
		<linearGradient id="grad0-57" x1="0" y1="0" x2="1" y2="0" gradientTransform="rotate(90 0.5 0.5)">
			<stop offset="0" stop-color="#adadad" stop-opacity="1"/>
			<stop offset="0.15" stop-color="#ebebeb" stop-opacity="1"/>
			<stop offset="0.25" stop-color="#f4f4f4" stop-opacity="1"/>
			<stop offset="0.52" stop-color="#cdcdcd" stop-opacity="1"/>
			<stop offset="0.69" stop-color="#b6b6b6" stop-opacity="1"/>
			<stop offset="0.8" stop-color="#acacac" stop-opacity="1"/>
			<stop offset="0.92" stop-color="#a2a2a2" stop-opacity="1"/>
			<stop offset="1" stop-color="#bababa" stop-opacity="1"/>
		</linearGradient>
	</defs>
	<g v:mID="0" v:index="1" v:groupContext="foregroundPage">
		<title>页-1</title>
		<v:pageProperties v:drawingScale="0.0393701" v:pageScale="0.0393701" v:drawingUnits="24" v:shadowOffsetX="8.50394"
				v:shadowOffsetY="-8.50394"/>
		<g id="group5231-1" transform="translate(0.75,-0.75)" v:mID="5231" v:groupContext="group">
			<title>锅炉15</title>
			<g id="shape5232-2" v:mID="5232" v:groupContext="shape" transform="translate(15.5325,-59.7375)">
				<title>shape1</title>
				<path d="M0 63.08 L45.83 63.08 L45.83 84.98 L0 84.98 L0 63.08 Z" class="st1"/>
			</g>
			<g id="shape5233-6" v:mID="5233" v:groupContext="shape" transform="translate(1.7925,-46.215)">
				<title>shape2</title>
				<path d="M13.73 71.48 L59.55 71.48 L73.28 84.98 L0 84.98 L13.73 71.48 Z" class="st2"/>
			</g>
			<g id="shape5234-10" v:mID="5234" v:groupContext="shape" transform="translate(1.7925,-2.445)">
				<title>shape3</title>
				<path d="M0 41.25 L73.28 41.25 L73.28 84.98 L0 84.98 L0 41.25 Z" class="st1"/>
			</g>
			<g id="shape5235-13" v:mID="5235" v:groupContext="shape" transform="translate(15.5325,-80.7825)">
				<title>shape4</title>
				<path d="M0 84.08 L45.83 84.08 L45.83 84.98 L0 84.98 L0 84.08 Z" class="st3"/>
			</g>
			<g id="shape5236-17" v:mID="5236" v:groupContext="shape" transform="translate(14.8425,-81.6)">
				<title>shape5</title>
				<path d="M0.6 83.1 L46.65 83.1 C46.95 83.1 47.18 83.4 47.18 83.7 C47.18 84.68 46.95 84.98 46.65 84.98 L0.6 84.98
							 C0.23 84.98 0 84.68 0 84.38 C0 83.4 0.23 83.1 0.6 83.1 Z" class="st1"/>
			</g>
			<g id="shape5237-20" v:mID="5237" v:groupContext="shape" transform="translate(1.7925,-2.445)">
				<title>shape6</title>
				<path d="M0 83.33 L73.28 83.33 L73.28 84.98 L0 84.98 L0 83.33 Z" class="st3"/>
			</g>
			<g id="shape5238-23" v:mID="5238" v:groupContext="shape" transform="translate(0.7425,-1.42109E-14)">
				<title>shape7</title>
				<path d="M0.6 82.5 L74.78 82.5 C75.15 82.5 75.37 82.8 75.37 83.1 L75.37 84.38 C75.37 84.68 75.15 84.98 74.78 84.98
							 L0.6 84.98 C0.22 84.98 0 84.68 0 84.38 L0 83.1 C0 82.8 0.22 82.5 0.6 82.5 Z" class="st1"/>
			</g>
			<g id="shape5239-26" v:mID="5239" v:groupContext="shape" transform="translate(6.09,-8.4975)">
				<title>shape8</title>
				<path d="M0 50.55 L64.73 50.55 L64.73 84.98 L0 84.98 L0 50.55 Z" class="st4"/>
			</g>
			<g id="shape5240-30" v:mID="5240" v:groupContext="shape" transform="translate(6.18,-8.64)">
				<title>shape9</title>
				<path d="M0 84.98 C0 84.98 0 83.33 1.5 83.25 C1.5 83.25 1.12 83.7 1.12 84 C1.12 84.23 2.47 81.98 2.47 81.98 C2.47
							 81.98 1.57 83.48 2.77 84 C2.77 84 5.25 84.83 4.95 80.93 C4.65 77.03 5.25 76.35 5.25 76.35 C5.25 76.35
							 4.87 81.68 7.42 80.93 C7.42 80.93 8.92 80.63 8.55 75.9 C8.55 75.9 8.55 73.58 7.42 74.55 C7.42 74.55
							 6.9 72.68 7.95 72.98 C7.95 72.98 9.52 73.2 9.3 76.95 C9.3 76.95 9.52 78.45 9.9 76.58 C9.9 76.58 11.02
							 81.3 13.2 80.63 C13.2 80.63 14.1 80.63 14.32 77.63 C14.32 77.63 15.15 78.9 14.7 81.15 C14.7 81.15 15.82
							 80.85 16.05 81 C16.05 81 15.6 83.55 16.95 84 C18.3 84.38 20.4 83.55 20.77 81.83 C21.15 80.1 20.85 76.73
							 19.72 74.33 C19.72 74.33 21.6 78.23 22.65 78.75 C22.65 78.75 23.17 76.2 21.22 71.93 C21.22 71.93 23.02
							 74.93 21.9 72.15 C21.9 72.15 23.4 72.53 23.77 74.03 C24.15 75.53 24.67 76.05 24.67 76.05 C24.67 76.05
							 24.75 74.63 25.2 74.7 C25.2 74.7 25.12 78.08 26.47 79.65 C26.47 79.65 27.07 80.85 27.75 75.75 C27.75
							 75.75 27.67 73.73 27 71.93 C26.32 70.13 27.07 70.2 27 67.88 C27 67.88 27.07 67.35 27.67 68.03 C27.67
							 68.03 27.37 65.63 29.02 64.05 C29.02 64.05 28.27 64.95 28.42 66.53 C28.5 68.03 27.75 70.43 27.75 70.43
							 C27.75 70.43 27.07 74.03 29.47 74.48 C29.47 74.48 30.9 74.33 31.5 69.08 C31.5 69.08 31.8 66.08 31.8
							 65.48 C31.8 65.48 31.72 65.55 31.5 66.08 C31.35 66.68 31.05 65.55 31.35 64.65 C31.5 63.75 32.4 62.93
							 30.6 63.23 C30.6 63.23 31.35 62.78 30.82 61.58 C30.22 60.38 27.6 57.15 31.27 55.13 C31.27 55.13 31.95
							 54.68 30.9 55.95 C29.77 57.15 30.37 58.35 30.37 58.35 C30.37 58.35 30.82 57.53 31.5 57.38 C31.5 57.38
							 28.95 58.8 32.4 61.43 C32.4 61.43 32.25 60 33.67 60.23 C33.67 60.23 31.87 61.73 33.52 63.75 C33.52 63.75
							 34.27 63.9 33.6 66.45 C33.6 66.45 33.22 68.25 33.67 69.15 C34.12 68.63 35.1 70.05 35.1 72 C35.1 74.03
							 35.25 75.15 36.37 73.95 C36.37 73.95 37.57 72.45 36.82 69.38 C36.82 69.38 36.07 67.5 36.37 65.7 C36.37
							 65.7 36.22 64.8 35.77 64.2 C35.77 64.2 37.35 65.33 37.05 68.1 C37.05 68.1 37.65 67.43 37.8 67.88 C37.8
							 67.88 37.42 68.55 37.8 69.75 C38.25 70.88 37.35 73.65 37.2 74.63 C36.97 75.68 36.82 78.53 38.25 79.73
							 C38.25 79.73 39.45 78.3 39.6 74.7 C39.6 74.7 40.27 74.7 40.12 76.05 C40.12 76.05 40.8 75.38 41.17 73.88
							 C41.47 72.38 42.82 72 42.82 72 C42.82 72 41.92 73.88 42.82 73.2 C42.82 73.2 43.27 72.83 43.8 71.78 C43.8
							 71.78 41.4 76.05 42.15 78.83 C42.15 78.83 42.22 79.73 45.07 74.25 C45.07 74.25 43.27 77.85 44.1 81.98
							 C44.1 81.98 44.77 84.08 47.02 84.08 C49.27 84 48.75 81 48.75 81 C48.75 81 49.87 80.85 50.1 81.15 C50.32
							 81.45 49.27 79.8 50.62 77.63 C50.62 77.63 50.32 81.98 52.95 80.25 C52.95 80.25 54.07 79.35 54.9 76.28
							 C54.9 76.28 54.75 77.7 55.27 77.4 C55.27 77.4 55.5 77.25 55.5 76.13 C55.5 75 55.72 72.83 57.3 73.05
							 C57.3 72.98 57.9 74.18 57.3 74.55 C57.3 74.55 56.77 73.2 56.32 74.85 C56.32 74.85 55.42 80.18 57.6 80.93
							 C57.6 80.93 59.62 81.6 59.55 76.5 C59.55 76.5 60.07 77.4 59.77 81 C59.77 81 59.55 84.45 61.8 84.15 C61.8
							 84.15 62.92 84.08 62.62 82.5 C62.62 82.5 63.07 83.78 63.45 83.85 C63.82 84 63.3 83.33 63.3 83.33 C63.3
							 83.33 64.2 82.95 64.5 84.3 C64.5 84.3 64.5 84.83 64.42 84.98 L0 84.98 Z" class="st5"/>
			</g>
			<g id="shape5241-32" v:mID="5241" v:groupContext="shape" transform="translate(27.0075,-8.6625)">
				<title>shape10</title>
				<path d="M1.2 84.98 C1.2 84.98 0.15 83.85 0.07 82.58 C0 81.38 1.27 79.2 1.27 79.2 C1.27 79.2 0.97 83.1 3.07 82.28
							 C3.07 82.28 4.57 81.53 3.07 79.65 C3.07 79.65 2.55 79.13 2.02 79.13 C2.02 79.13 2.85 77.78 4.72 79.13
							 C4.72 79.13 6 80.33 6.15 80.48 C6.15 80.48 6.6 75.68 9.22 75.08 C9.22 75.08 8.1 76.8 8.25 77.4 C8.47
							 78 9.67 77.4 9.82 76.05 C9.9 74.7 9.67 73.88 9.67 73.88 C9.67 73.88 10.05 74.4 10.05 74.55 C10.05 74.78
							 10.95 75.23 11.17 69.45 C11.17 69.45 11.62 70.2 11.62 70.8 C11.62 70.8 12 67.5 11.62 65.93 C11.62 65.93
							 13.65 71.7 11.4 75.83 C11.4 75.83 12.37 74.78 12.82 75.3 C12.82 75.3 11.47 76.5 12.6 79.73 C12.6 79.73
							 12.97 76.95 13.27 76.65 C13.57 76.35 13.57 77.85 14.7 77.1 C14.7 77.1 15.07 76.5 13.72 75.08 C13.72
							 75.08 16.05 75.6 16.87 80.4 C16.87 80.4 18.75 78 20.92 78.98 C20.92 78.98 18.82 80.03 19.8 81.98 C19.8
							 81.98 20.92 83.18 21.6 81.23 C21.6 81.23 21.82 80.25 21.82 79.43 C21.82 79.43 23.25 81.45 22.65 83.33
							 C22.65 83.33 22.05 84.83 21.67 84.98 L1.2 84.98 Z" class="st6"/>
			</g>
			<g id="shape5242-34" v:mID="5242" v:groupContext="shape" transform="translate(27.87,-8.6625)">
				<title>shape11</title>
				<path d="M1.43 84.98 C1.43 84.98 1.65 84.38 0.83 83.4 C0 82.5 0.3 81.53 0.3 81.53 C0.3 81.53 0.68 82.73 1.65 82.73
							 C2.55 82.73 2.85 83.18 2.85 83.18 C2.85 83.18 3.08 82.13 3.38 81.83 C3.68 81.53 3.38 83.48 4.43 83.55
							 C4.43 83.55 4.5 83.4 4.13 82.8 C3.68 82.2 4.43 81.53 4.43 81.53 C4.43 81.53 7.13 81.9 6.38 77.78 C6.38
							 77.78 7.5 78.53 8.1 78.53 C8.63 78.45 9.38 79.43 9.38 80.33 C9.38 80.33 10.73 80.03 10.28 77.4 C10.28
							 77.4 10.35 75.9 11.55 76.13 C11.55 76.13 10.43 77.63 11.33 79.88 C11.78 80.48 11.78 78.83 13.28 78.53
							 C14.78 78.23 14.93 77.55 14.93 77.55 C14.93 77.55 14.25 79.73 14.78 80.63 C15.3 81.53 16.35 81.75 16.8
							 81.68 C17.25 81.6 17.25 82.58 17.1 82.95 C17.03 83.25 16.88 84.23 17.55 83.33 C18.15 82.35 17.7 81.38
							 18.15 82.8 C18.15 82.8 18.3 83.55 18.53 82.8 C18.53 82.8 18.98 82.13 20.03 82.73 C20.03 82.73 20.7 83.03
							 20.85 82.13 C20.85 82.13 21.23 82.95 20.1 83.85 C20.1 83.85 19.73 84.38 19.8 84.98 L1.43 84.98 Z"
						class="st7"/>
			</g>
			<g id="shape5243-36" v:mID="5243" v:groupContext="shape" transform="translate(32.25,-8.685)">
				<title>shape12</title>
				<path d="M0.9 84.98 C0.9 84.98 0.9 84 0.45 84 C0 84 0.75 83.7 1.13 84.08 C1.58 84.53 1.13 83.63 0.98 83.25 C0.83
							 82.88 0.9 82.13 1.5 82.13 C2.1 82.13 2.78 82.2 2.4 79.05 C2.4 79.05 3 79.8 3.53 79.8 C4.05 79.8 4.5
							 81 4.43 81.3 C4.35 81.53 5.55 81.15 5.7 79.73 C5.85 78.3 6.23 76.88 6.75 76.43 C7.28 76.05 6.38 76.73
							 6.38 78.68 C6.38 80.7 7.05 81.6 7.95 81.23 C7.95 81.23 8.1 79.95 8.85 79.65 C9.68 79.43 10.05 79.2 10.05
							 79.05 C10.05 78.9 9 82.2 11.25 82.2 C11.25 82.2 11.78 82.95 11.25 84 C10.65 84.98 11.63 83.55 12.08
							 83.85 C12.08 83.85 11.78 83.85 11.55 84.3 C11.25 84.75 11.4 84.98 11.4 84.98 L0.9 84.98 Z" class="st8"/>
			</g>
			<g id="shape5244-38" v:mID="5244" v:groupContext="shape" transform="translate(44.0325,-8.595)">
				<title>shape13</title>
				<path d="M3.23 84.9 C3.23 84.9 2.63 83.48 3.6 82.88 C3.6 82.88 2.63 82.2 2.4 84.08 C2.4 84.08 1.95 84.68 1.65 82.05
							 C1.65 82.05 1.88 84.15 1.43 84.38 C1.05 84.6 0.75 84 1.2 83.55 C1.2 83.55 0.45 83.1 0.83 84.38 C0.83
							 84.38 0.83 83.63 0 84.98 L3.23 84.9 Z" class="st8"/>
			</g>
			<g id="shape5245-40" v:mID="5245" v:groupContext="shape" transform="translate(29.295,-8.5275)">
				<title>shape14</title>
				<path d="M0.45 84.83 C0.45 84.83 1.12 83.03 0 82.95 C0 82.95 1.35 81.83 1.2 83.85 C1.2 83.85 1.65 84.08 2.02 82.35
							 C2.02 82.35 2.25 83.03 1.95 83.93 C1.57 84.83 2.47 84.6 2.55 83.55 C2.55 83.55 2.92 83.78 2.7 84.45
							 C2.7 84.45 3.67 84.08 3.37 84.98 L0.45 84.83 Z" class="st8"/>
			</g>
			<g id="shape5246-42" v:mID="5246" v:groupContext="shape" transform="translate(11.625,-8.6175)">
				<title>shape15</title>
				<path d="M0.75 84.98 C0.75 84.98 0 83.4 0.3 81.38 C0.3 81.38 1.28 82.88 2.33 82.13 C3.3 81.38 3.53 79.35 3.3 76.58
							 C3.3 76.58 4.05 78.38 4.5 78.75 C4.95 79.05 6.98 80.7 6.9 83.25 C6.9 83.25 7.73 83.33 7.73 81.23 C7.73
							 81.23 8.55 81.9 8.55 83.18 C8.55 83.18 9 81.75 10.28 81.98 C10.28 81.98 9.6 84.6 10.13 84.9 L0.75 84.98
							 Z" class="st6"/>
			</g>
			<g id="shape5247-44" v:mID="5247" v:groupContext="shape" transform="translate(13.815,-8.595)">
				<title>shape16</title>
				<path d="M0.3 84.98 C0.3 84.98 0 84.3 0.6 84.08 C1.2 83.85 0.67 82.28 0.3 82.05 C0.3 82.05 0.9 81.75 1.42 82.58 C1.42
							 82.58 1.35 81.3 2.02 80.63 C2.02 80.63 2.47 80.25 1.72 78.68 C1.72 78.68 1.35 77.85 1.35 77.48 C1.35
							 77.48 2.1 79.2 2.85 79.43 C2.85 79.43 4.2 80.48 4.2 82.13 C4.2 82.13 4.2 84.68 5.1 83.4 C5.1 83.4 5.17
							 84.15 5.55 83.55 C5.92 82.88 5.85 82.2 5.85 82.2 C5.85 82.2 6.3 83.33 5.85 83.93 C5.85 83.93 6.37 84
							 6.6 83.4 C6.82 82.73 7.87 82.43 7.87 82.43 C7.87 82.43 6.67 83.55 6.75 83.93 C6.82 84.3 6.82 84.83 6.75
							 84.83 L0.3 84.98 Z" class="st7"/>
			</g>
			<g id="shape5248-46" v:mID="5248" v:groupContext="shape" transform="translate(15.0825,-8.58)">
				<title>shape17</title>
				<path d="M0.15 84.98 C0.15 84.98 0.75 83.93 0 83.48 C0 83.48 0.3 83.18 0.53 83.33 C0.53 83.33 0.68 82.65 0.98 82.35
							 C1.28 81.98 1.35 81 1.35 81 C1.35 81 1.58 82.05 1.58 82.73 C1.5 83.4 1.8 83.93 2.1 83.93 C2.1 83.93
							 2.25 82.8 2.55 82.88 C2.55 82.88 2.63 83.78 2.33 84.23 C2.33 84.23 2.7 83.78 3.3 84.3 C3.3 84.3 2.78
							 84.53 2.78 84.9 L0.15 84.98 Z" class="st8"/>
			</g>
			<g id="shape5249-48" v:mID="5249" v:groupContext="shape" transform="translate(65.325,-8.5425) scale(-1,1)">
				<title>shape18</title>
				<path d="M0.75 84.98 C0.75 84.98 0 83.4 0.3 81.38 C0.3 81.38 1.28 82.88 2.33 82.13 C3.3 81.38 3.53 79.35 3.3 76.58
							 C3.3 76.58 4.05 78.38 4.5 78.75 C4.95 79.05 6.98 80.7 6.9 83.25 C6.9 83.25 7.73 83.33 7.73 81.23 C7.73
							 81.23 8.55 81.9 8.55 83.18 C8.55 83.18 9 81.75 10.28 81.98 C10.28 81.98 9.6 84.6 10.13 84.9 L0.75 84.98
							 Z" class="st6"/>
			</g>
			<g id="shape5250-50" v:mID="5250" v:groupContext="shape" transform="translate(63.075,-8.5425) scale(-1,1)">
				<title>shape19</title>
				<path d="M0.3 84.98 C0.3 84.98 0 84.3 0.6 84.08 C1.2 83.85 0.67 82.28 0.3 82.05 C0.3 82.05 0.9 81.75 1.42 82.58 C1.42
							 82.58 1.35 81.3 2.02 80.63 C2.02 80.63 2.47 80.25 1.72 78.68 C1.72 78.68 1.35 77.85 1.35 77.48 C1.35
							 77.48 2.1 79.2 2.85 79.43 C2.85 79.43 4.2 80.48 4.2 82.13 C4.2 82.13 4.2 84.68 5.1 83.4 C5.1 83.4 5.17
							 84.15 5.55 83.55 C5.92 82.88 5.85 82.2 5.85 82.2 C5.85 82.2 6.3 83.33 5.85 83.93 C5.85 83.93 6.37 84
							 6.6 83.4 C6.82 82.73 7.87 82.43 7.87 82.43 C7.87 82.43 6.67 83.55 6.75 83.93 C6.82 84.3 6.82 84.83 6.75
							 84.83 L0.3 84.98 Z" class="st7"/>
			</g>
			<g id="shape5251-52" v:mID="5251" v:groupContext="shape" transform="translate(61.875,-8.5425) scale(-1,1)">
				<title>shape20</title>
				<path d="M0.15 84.98 C0.15 84.98 0.75 83.93 0 83.48 C0 83.48 0.3 83.18 0.53 83.33 C0.53 83.33 0.68 82.65 0.98 82.35
							 C1.28 81.98 1.35 81 1.35 81 C1.35 81 1.58 82.05 1.58 82.73 C1.5 83.4 1.8 83.93 2.1 83.93 C2.1 83.93
							 2.25 82.8 2.55 82.88 C2.55 82.88 2.63 83.78 2.33 84.23 C2.33 84.23 2.7 83.78 3.3 84.3 C3.3 84.3 2.78
							 84.53 2.78 84.9 L0.15 84.98 Z" class="st8"/>
			</g>
			<g id="shape5252-54" v:mID="5252" v:groupContext="shape" transform="translate(7.19425E-14,-15.45)">
				<title>shape21</title>
				<path d="M0 80.85 L76.88 80.85 L76.88 84.98 L0 84.98 L0 80.85 Z" class="st9"/>
			</g>
		</g>
	</g>
</svg>
