<?xml version="1.0" encoding="UTF-8" standalone="no"?>
<!DOCTYPE svg PUBLIC "-//W3C//DTD SVG 1.1//EN" "http://www.w3.org/Graphics/SVG/1.1/DTD/svg11.dtd">
<!-- 由 Microsoft Visio, SVG Export 生成 罐12.svg 页-1 -->
<svg xmlns="http://www.w3.org/2000/svg" xmlns:xlink="http://www.w3.org/1999/xlink" xmlns:ev="http://www.w3.org/2001/xml-events"
		xmlns:v="http://schemas.microsoft.com/visio/2003/SVGExtensions/" width="0.796354in" height="1.45125in"
		viewBox="0 0 57.3375 104.49" xml:space="preserve" color-interpolation-filters="sRGB" class="st12">
	<v:documentProperties v:langID="2052" v:metric="true" v:viewMarkup="false"/>

	<style type="text/css">
	<![CDATA[
		.st1 {fill:url(#grad0-5);stroke:none;stroke-linecap:butt;stroke-width:0.75}
		.st2 {fill:url(#grad0-9);stroke:none;stroke-linecap:butt;stroke-width:0.75}
		.st3 {fill:url(#grad0-37);stroke:none;stroke-linecap:butt;stroke-width:0.75}
		.st4 {fill:url(#grad3-54);stroke:#9e9ca9;stroke-linecap:butt;stroke-width:0.1875}
		.st5 {fill:url(#grad0-61);stroke:none;stroke-linecap:butt;stroke-width:0.75}
		.st6 {fill:#717179;fill-opacity:0.51;stroke:none;stroke-linecap:butt;stroke-width:0.75}
		.st7 {fill:url(#grad0-67);stroke:none;stroke-linecap:butt;stroke-width:0.75}
		.st8 {fill:url(#grad0-71);stroke:none;stroke-linecap:butt;stroke-width:0.75}
		.st9 {fill:#7f7f88;stroke:none;stroke-linecap:butt;stroke-width:0.75}
		.st10 {fill:#9594a0;stroke:none;stroke-linecap:butt;stroke-width:0.75}
		.st11 {fill:#4b4a52;stroke:none;stroke-linecap:butt;stroke-width:0.75}
		.st12 {fill:none;fill-rule:evenodd;font-size:12px;overflow:visible;stroke-linecap:square;stroke-miterlimit:3}
	]]>
	</style>

	<defs id="Patterns_And_Gradients">
		<linearGradient id="grad0-5" x1="0" y1="0" x2="1" y2="0" gradientTransform="rotate(-180 0.5 0.5)">
			<stop offset="0" stop-color="#82818c" stop-opacity="1"/>
			<stop offset="0.15" stop-color="#b7b5c3" stop-opacity="1"/>
			<stop offset="0.25" stop-color="#d9d8de" stop-opacity="1"/>
			<stop offset="0.52" stop-color="#9a99a6" stop-opacity="1"/>
			<stop offset="0.69" stop-color="#898893" stop-opacity="1"/>
			<stop offset="0.8" stop-color="#81808b" stop-opacity="1"/>
			<stop offset="0.92" stop-color="#7a7883" stop-opacity="1"/>
			<stop offset="1" stop-color="#8c8b97" stop-opacity="1"/>
		</linearGradient>
		<linearGradient id="grad0-9" x1="0" y1="0" x2="1" y2="0" gradientTransform="rotate(-180 0.5 0.5)">
			<stop offset="0" stop-color="#6c6c74" stop-opacity="1"/>
			<stop offset="0.15" stop-color="#9d9ca6" stop-opacity="1"/>
			<stop offset="0.25" stop-color="#cdcdd1" stop-opacity="1"/>
			<stop offset="0.52" stop-color="#81808a" stop-opacity="1"/>
			<stop offset="0.69" stop-color="#72717a" stop-opacity="1"/>
			<stop offset="0.8" stop-color="#6b6b73" stop-opacity="1"/>
			<stop offset="0.92" stop-color="#65646c" stop-opacity="1"/>
			<stop offset="1" stop-color="#75747d" stop-opacity="1"/>
		</linearGradient>
		<linearGradient id="grad0-37" x1="0" y1="0" x2="1" y2="0" gradientTransform="rotate(-180 0.5 0.5)">
			<stop offset="0" stop-color="#7d7b85" stop-opacity="1"/>
			<stop offset="0.15" stop-color="#b1afbb" stop-opacity="1"/>
			<stop offset="0.25" stop-color="#d6d5da" stop-opacity="1"/>
			<stop offset="0.52" stop-color="#94939e" stop-opacity="1"/>
			<stop offset="0.69" stop-color="#84828c" stop-opacity="1"/>
			<stop offset="0.8" stop-color="#7c7a84" stop-opacity="1"/>
			<stop offset="0.92" stop-color="#75737d" stop-opacity="1"/>
			<stop offset="1" stop-color="#878590" stop-opacity="1"/>
		</linearGradient>
		<radialGradient id="grad3-54" cx="0.5" cy="0.5" r="0.73">
			<stop offset="0" stop-color="#9b9aa4" stop-opacity="1"/>
			<stop offset="0.91" stop-color="#9b9aa4" stop-opacity="1"/>
		</radialGradient>
		<linearGradient id="grad0-61" x1="0" y1="0" x2="1" y2="0" gradientTransform="rotate(0 0.5 0.5)">
			<stop offset="0" stop-color="#54545a" stop-opacity="1"/>
			<stop offset="0.66" stop-color="#c5c5c8" stop-opacity="1"/>
			<stop offset="1" stop-color="#515157" stop-opacity="1"/>
		</linearGradient>
		<linearGradient id="grad0-67" x1="0" y1="0" x2="1" y2="0" gradientTransform="rotate(90 0.5 0.5)">
			<stop offset="0" stop-color="#b2b0be" stop-opacity="1"/>
			<stop offset="0.41" stop-color="#d0cfd7" stop-opacity="1"/>
			<stop offset="1" stop-color="#afadba" stop-opacity="1"/>
		</linearGradient>
		<linearGradient id="grad0-71" x1="0" y1="0" x2="1" y2="0" gradientTransform="rotate(90 0.5 0.5)">
			<stop offset="0" stop-color="#a4a2ae" stop-opacity="1"/>
			<stop offset="0.41" stop-color="#c7c6cd" stop-opacity="1"/>
			<stop offset="1" stop-color="#a09fab" stop-opacity="1"/>
		</linearGradient>
	</defs>
	<g v:mID="0" v:index="1" v:groupContext="foregroundPage">
		<title>页-1</title>
		<v:pageProperties v:drawingScale="0.0393701" v:pageScale="0.0393701" v:drawingUnits="24" v:shadowOffsetX="8.50394"
				v:shadowOffsetY="-8.50394"/>
		<g id="group4673-1" transform="translate(0.75,-0.75)" v:mID="4673" v:groupContext="group">
			<title>锅炉2</title>
			<g id="shape4674-2" v:mID="4674" v:groupContext="shape" transform="translate(1.9984E-14,-0.015)">
				<title>shape1</title>
				<path d="M0 27.09 L47.55 27.09 L47.55 104.49 L0 104.49 L0 27.09 Z" class="st1"/>
			</g>
			<g id="shape4675-6" v:mID="4675" v:groupContext="shape" transform="translate(1.9984E-14,-75.315)">
				<title>shape2</title>
				<path d="M0 102.39 L47.55 102.39 L47.55 104.49 L0 104.49 L0 102.39 Z" class="st2"/>
			</g>
			<g id="shape4676-10" v:mID="4676" v:groupContext="shape">
				<title>shape3</title>
				<path d="M0 102.39 L47.55 102.39 L47.55 104.49 L0 104.49 L0 102.39 Z" class="st2"/>
			</g>
			<g id="shape4677-13" v:mID="4677" v:groupContext="shape" transform="translate(39.2775,-77.43)">
				<title>shape4</title>
				<path d="M0 104.49 L3.15 104.49 L3.15 94.51 L0 94.51 L0 104.49 Z" class="st1"/>
			</g>
			<g id="shape4678-16" v:mID="4678" v:groupContext="shape" transform="translate(6.1875,-77.355)">
				<title>shape5</title>
				<path d="M0 101.86 L3.97 101.86 L3.97 104.49 L0 104.49 L0 101.86 Z" class="st1"/>
			</g>
			<g id="shape4679-19" v:mID="4679" v:groupContext="shape" transform="translate(5.49,-79.785)">
				<title>shape6</title>
				<path d="M0 101.86 L5.63 101.86 L5.63 104.49 L0 104.49 L0 101.86 Z" class="st1"/>
			</g>
			<g id="shape4680-22" v:mID="4680" v:groupContext="shape" transform="translate(5.835,-85.1025)">
				<title>shape7</title>
				<path d="M0 100.06 L4.72 100.06 L4.72 104.49 L0 104.49 L0 100.06 Z" class="st1"/>
			</g>
			<g id="shape4681-25" v:mID="4681" v:groupContext="shape" transform="translate(7.14,-89.52)">
				<title>shape8</title>
				<path d="M0 100.06 L2.1 100.06 L2.1 104.49 L0 104.49 L0 100.06 Z" class="st1"/>
			</g>
			<g id="shape4682-28" v:mID="4682" v:groupContext="shape" transform="translate(5.355,-82.455)">
				<title>shape9</title>
				<path d="M0 101.86 L5.63 101.86 L5.63 104.49 L0 104.49 L0 101.86 Z" class="st1"/>
			</g>
			<g id="shape4683-31" v:mID="4683" v:groupContext="shape" transform="translate(48.51,-28.4475)">
				<title>shape10</title>
				<path d="M0 104.49 L5.48 104.49 L5.48 102.46 L0 102.46 L0 104.49 Z" class="st1"/>
			</g>
			<g id="shape4684-34" v:mID="4684" v:groupContext="shape" transform="translate(46.6125,-30.1875)">
				<title>shape11</title>
				<path d="M2.17 90.99 L7.05 90.99 C8.25 90.99 9.22 91.96 9.22 93.16 L9.22 102.24 C9.22 103.51 8.25 104.49 7.05 104.49
							 L2.17 104.49 C0.97 104.49 0 103.51 0 102.24 L0 93.16 C0 91.96 0.97 90.99 2.17 90.99 Z" class="st3"/>
			</g>
			<g id="shape4685-38" v:mID="4685" v:groupContext="shape" transform="translate(47.0775,-4.32)">
				<title>shape12</title>
				<path d="M0 80.19 L8.32 80.19 L8.32 104.49 L0 104.49 L0 80.19 Z" class="st3"/>
			</g>
			<g id="shape4686-41" v:mID="4686" v:groupContext="shape" transform="translate(49.68,-43.68)">
				<title>shape13</title>
				<path d="M0 104.49 L3.15 104.49 L3.15 58.59 L0 58.59 L0 104.49 Z" class="st1"/>
			</g>
			<g id="shape4687-44" v:mID="4687" v:groupContext="shape" transform="translate(-51.615,17.8875) rotate(-90)">
				<title>shape14</title>
				<path d="M0 104.49 L3.15 104.49 L3.15 90.91 L0 90.91 L0 104.49 Z" class="st1"/>
			</g>
			<g id="group4688-47" transform="translate(15.525,-77.2425)" v:mID="4688" v:groupContext="group">
				<title>工作表.4688</title>
				<g id="shape4689-48" v:mID="4689" v:groupContext="shape" transform="translate(0.36,-1.2375)">
					<title>shape15</title>
					<path d="M0 90.16 L8.93 90.16 L8.93 104.49 L0 104.49 L0 90.16 Z" class="st1"/>
				</g>
				<g id="shape4690-51" v:mID="4690" v:groupContext="shape" transform="translate(0.36,-4.785)">
					<title>shape16</title>
					<path d="M0 93.69 C0 87.76 4.73 82.96 10.58 82.96 C16.43 82.96 21.15 87.76 21.15 93.69 C21.15 99.61 16.43 104.49
								 10.58 104.49 C4.73 104.49 0 99.61 0 93.69 Z" class="st4"/>
				</g>
				<g id="shape4691-55" v:mID="4691" v:groupContext="shape">
					<title>shape17</title>
					<path d="M0.3 103.21 L9.45 103.21 C9.6 103.21 9.75 103.51 9.75 103.81 C9.75 104.19 9.6 104.49 9.45 104.49 L0.3
								 104.49 C0.15 104.49 0 104.19 0 103.81 C0 103.51 0.15 103.21 0.3 103.21 Z" class="st1"/>
				</g>
				<g id="shape4692-58" v:mID="4692" v:groupContext="shape" transform="translate(0.0375,-0.9)">
					<title>shape18</title>
					<path d="M9.68 104.11 C9.68 104.34 9.53 104.49 9.38 104.49 L0.3 104.49 C0.15 104.49 0 104.34 0 104.11 C0 104.11
								 9.68 104.11 9.68 104.11 Z" class="st5"/>
				</g>
				<g id="shape4693-62" v:mID="4693" v:groupContext="shape" transform="translate(5.925,185.895) scale(1,-1)">
					<title>shape19</title>
					<path d="M0 96.91 C0 92.79 3.3 89.41 7.43 89.41 L12.68 89.41 L12.68 104.49 L7.43 104.49 C3.3 104.49 0 101.11
								 0 96.91 Z" class="st6"/>
				</g>
				<g id="shape4694-64" v:mID="4694" v:groupContext="shape" transform="translate(6.45,185.895) scale(1,-1)">
					<title>shape20</title>
					<path d="M0 97.14 C0 93.01 3.23 89.71 7.28 89.71 L13.95 89.71 L13.95 104.49 L7.28 104.49 C3.23 104.49 0 101.19
								 0 97.14 Z" class="st7"/>
				</g>
				<g id="shape4695-68" v:mID="4695" v:groupContext="shape" transform="translate(6.45,185.895) scale(1,-1)">
					<title>shape21</title>
					<path d="M0 97.14 C0 93.01 3.23 89.71 7.28 89.71 L7.28 104.49 C3.23 104.49 0 101.19 0 97.14 Z" class="st8"/>
				</g>
				<g id="shape4696-72" v:mID="4696" v:groupContext="shape" transform="translate(12.225,-13.41) scale(-1,1)">
					<title>shape22</title>
					<path d="M0 102.31 C0 101.11 0.97 100.14 2.17 100.14 C3.37 100.14 4.35 101.11 4.35 102.31 C4.35 103.51 3.37 104.49
								 2.17 104.49 C0.97 104.49 0 103.51 0 102.31 Z" class="st9"/>
				</g>
				<g id="shape4697-74" v:mID="4697" v:groupContext="shape" transform="translate(12.6,-13.41) scale(-1,1)">
					<title>shape23</title>
					<path d="M0 102.31 C0 101.11 0.97 100.14 2.17 100.14 C3.37 100.14 4.35 101.11 4.35 102.31 C4.35 103.51 3.37 104.49
								 2.17 104.49 C0.97 104.49 0 103.51 0 102.31 Z" class="st10"/>
				</g>
				<g id="shape4698-76" v:mID="4698" v:groupContext="shape" transform="translate(12.075,-13.86) scale(-1,1)">
					<title>shape24</title>
					<path d="M0 102.76 C0 101.86 0.75 101.11 1.65 101.11 C2.55 101.11 3.3 101.86 3.3 102.76 C3.3 103.74 2.55 104.49
								 1.65 104.49 C0.75 104.49 0 103.74 0 102.76 Z" class="st11"/>
				</g>
			</g>
		</g>
	</g>
</svg>
