<?xml version="1.0" encoding="UTF-8" standalone="no"?>
<!DOCTYPE svg PUBLIC "-//W3C//DTD SVG 1.1//EN" "http://www.w3.org/Graphics/SVG/1.1/DTD/svg11.dtd">
<!-- 由 Microsoft Visio, SVG Export 生成 罐21.svg 页-1 -->
<svg xmlns="http://www.w3.org/2000/svg" xmlns:xlink="http://www.w3.org/1999/xlink" xmlns:ev="http://www.w3.org/2001/xml-events"
		xmlns:v="http://schemas.microsoft.com/visio/2003/SVGExtensions/" width="1.10937in" height="1.83542in"
		viewBox="0 0 79.875 132.15" xml:space="preserve" color-interpolation-filters="sRGB" class="st26">
	<v:documentProperties v:langID="2052" v:metric="true" v:viewMarkup="false"/>

	<style type="text/css">
	<![CDATA[
		.st1 {fill:url(#grad0-5);stroke:none;stroke-linecap:butt;stroke-width:0.75}
		.st2 {fill:url(#grad0-9);stroke:none;stroke-linecap:butt;stroke-width:0.75}
		.st3 {fill:url(#grad0-22);stroke:none;stroke-linecap:butt;stroke-width:0.75}
		.st4 {fill:url(#grad3-29);stroke:#a9a9a9;stroke-linecap:butt;stroke-width:0.1875}
		.st5 {fill:#e4e4e3;stroke:none;stroke-linecap:butt;stroke-width:0.75}
		.st6 {fill:url(#grad3-40);stroke:#a9a9a9;stroke-linecap:butt;stroke-width:0.1875}
		.st7 {fill:#3e3938;stroke:#000000;stroke-linecap:butt;stroke-width:0.75}
		.st8 {fill:#f5f5f5;stroke:none;stroke-linecap:butt;stroke-width:0.75}
		.st9 {fill:url(#grad0-48);stroke:none;stroke-linecap:butt;stroke-width:0.75}
		.st10 {fill:url(#grad0-52);stroke:none;stroke-linecap:butt;stroke-width:0.75}
		.st11 {fill:#000000;stroke:#000000;stroke-linecap:butt;stroke-width:0.75}
		.st12 {fill:#595757;stroke:none;stroke-linecap:butt;stroke-width:0.75}
		.st13 {fill:url(#grad0-64);stroke:none;stroke-linecap:butt;stroke-width:0.75}
		.st14 {fill:url(#grad0-68);stroke:none;stroke-linecap:butt;stroke-width:0.75}
		.st15 {fill:#577373;stroke:none;stroke-linecap:butt;stroke-width:0.75}
		.st16 {fill:#ffffff;fill-opacity:0.23;stroke:none;stroke-linecap:butt;stroke-width:0.75}
		.st17 {fill:#000000;fill-opacity:0.13;stroke:none;stroke-linecap:butt;stroke-width:0.75}
		.st18 {fill:url(#grad0-82);stroke:none;stroke-linecap:butt;stroke-width:0.75}
		.st19 {fill:#276f71;stroke:none;stroke-linecap:butt;stroke-width:0.75}
		.st20 {fill:url(#grad0-106);stroke:#ffffff;stroke-linecap:butt;stroke-width:0.75}
		.st21 {fill:#7d040f;stroke:none;stroke-linecap:butt;stroke-width:0.75}
		.st22 {fill:url(#grad0-113);stroke:#ffffff;stroke-linecap:butt;stroke-width:0.75}
		.st23 {fill:#fed372;stroke:none;stroke-linecap:butt;stroke-width:0.75}
		.st24 {fill:url(#grad0-120);stroke:#ffffff;stroke-linecap:butt;stroke-width:0.75}
		.st25 {fill:#ffffff;fill-opacity:0.059;stroke:none;stroke-linecap:butt;stroke-width:0.75}
		.st26 {fill:none;fill-rule:evenodd;font-size:12px;overflow:visible;stroke-linecap:square;stroke-miterlimit:3}
	]]>
	</style>

	<defs id="Patterns_And_Gradients">
		<linearGradient id="grad0-5" x1="0" y1="0" x2="1" y2="0" gradientTransform="rotate(-180 0.5 0.5)">
			<stop offset="0" stop-color="#aeaead" stop-opacity="1"/>
			<stop offset="0.03" stop-color="#f8f8f7" stop-opacity="1"/>
			<stop offset="0.08" stop-color="#e3e3e2" stop-opacity="1"/>
			<stop offset="0.64" stop-color="#dfdfde" stop-opacity="1"/>
			<stop offset="0.95" stop-color="#dadad9" stop-opacity="1"/>
			<stop offset="1" stop-color="#a2a2a1" stop-opacity="1"/>
		</linearGradient>
		<linearGradient id="grad0-9" x1="0" y1="0" x2="1" y2="0" gradientTransform="rotate(-180 0.5 0.5)">
			<stop offset="0" stop-color="#90908f" stop-opacity="1"/>
			<stop offset="0.03" stop-color="#d7d7d7" stop-opacity="1"/>
			<stop offset="0.08" stop-color="#bcbcbb" stop-opacity="1"/>
			<stop offset="0.64" stop-color="#b9b9b8" stop-opacity="1"/>
			<stop offset="0.95" stop-color="#b4b4b4" stop-opacity="1"/>
			<stop offset="1" stop-color="#858585" stop-opacity="1"/>
		</linearGradient>
		<linearGradient id="grad0-22" x1="0" y1="0" x2="1" y2="0" gradientTransform="rotate(-180 0.5 0.5)">
			<stop offset="0" stop-color="#afafaf" stop-opacity="1"/>
			<stop offset="0.15" stop-color="#ededed" stop-opacity="1"/>
			<stop offset="0.25" stop-color="#f5f5f5" stop-opacity="1"/>
			<stop offset="0.52" stop-color="#cfcfcf" stop-opacity="1"/>
			<stop offset="0.69" stop-color="#b8b8b8" stop-opacity="1"/>
			<stop offset="0.8" stop-color="#adadad" stop-opacity="1"/>
			<stop offset="0.92" stop-color="#a4a4a4" stop-opacity="1"/>
			<stop offset="1" stop-color="#bcbcbc" stop-opacity="1"/>
		</linearGradient>
		<radialGradient id="grad3-29" cx="0.5" cy="0.5" r="0.73">
			<stop offset="0" stop-color="#858585" stop-opacity="1"/>
			<stop offset="0.85" stop-color="#b4b4b4" stop-opacity="1"/>
			<stop offset="0.92" stop-color="#b9b9b8" stop-opacity="1"/>
		</radialGradient>
		<radialGradient id="grad3-40" cx="0.5" cy="0.5" r="0.73">
			<stop offset="0" stop-color="#9e9e9e" stop-opacity="1"/>
			<stop offset="0.85" stop-color="#d5d5d5" stop-opacity="1"/>
			<stop offset="0.92" stop-color="#dadada" stop-opacity="1"/>
		</radialGradient>
		<linearGradient id="grad0-48" x1="0" y1="0" x2="1" y2="0" gradientTransform="rotate(-180 0.5 0.5)">
			<stop offset="0" stop-color="#a8a8a8" stop-opacity="1"/>
			<stop offset="0.03" stop-color="#f2f2f2" stop-opacity="1"/>
			<stop offset="0.08" stop-color="#dbdbdb" stop-opacity="1"/>
			<stop offset="0.64" stop-color="#d8d8d8" stop-opacity="1"/>
			<stop offset="0.95" stop-color="#d3d3d3" stop-opacity="1"/>
			<stop offset="1" stop-color="#9c9c9c" stop-opacity="1"/>
		</linearGradient>
		<linearGradient id="grad0-52" x1="0" y1="0" x2="1" y2="0" gradientTransform="rotate(-180 0.5 0.5)">
			<stop offset="0" stop-color="#7e7f7f" stop-opacity="1"/>
			<stop offset="0.03" stop-color="#c6c7c7" stop-opacity="1"/>
			<stop offset="0.08" stop-color="#a6a6a6" stop-opacity="1"/>
			<stop offset="0.64" stop-color="#a3a4a4" stop-opacity="1"/>
			<stop offset="0.95" stop-color="#9fa0a0" stop-opacity="1"/>
			<stop offset="1" stop-color="#757676" stop-opacity="1"/>
		</linearGradient>
		<linearGradient id="grad0-64" x1="0" y1="0" x2="1" y2="0" gradientTransform="rotate(-180 0.5 0.5)">
			<stop offset="0" stop-color="#4e4d4d" stop-opacity="1"/>
			<stop offset="0.03" stop-color="#9c9b9b" stop-opacity="1"/>
			<stop offset="0.08" stop-color="#686767" stop-opacity="1"/>
			<stop offset="0.64" stop-color="#666565" stop-opacity="1"/>
			<stop offset="0.95" stop-color="#636262" stop-opacity="1"/>
			<stop offset="1" stop-color="#484747" stop-opacity="1"/>
		</linearGradient>
		<linearGradient id="grad0-68" x1="0" y1="0" x2="1" y2="0" gradientTransform="rotate(-180 0.5 0.5)">
			<stop offset="0" stop-color="#909191" stop-opacity="1"/>
			<stop offset="0.03" stop-color="#d8d9d9" stop-opacity="1"/>
			<stop offset="0.08" stop-color="#bdbebe" stop-opacity="1"/>
			<stop offset="0.64" stop-color="#bababa" stop-opacity="1"/>
			<stop offset="0.95" stop-color="#b5b6b6" stop-opacity="1"/>
			<stop offset="1" stop-color="#868787" stop-opacity="1"/>
		</linearGradient>
		<linearGradient id="grad0-82" x1="0" y1="0" x2="1" y2="0" gradientTransform="rotate(-180 0.5 0.5)">
			<stop offset="0" stop-color="#577373" stop-opacity="1"/>
			<stop offset="0.15" stop-color="#86a5a5" stop-opacity="1"/>
			<stop offset="0.25" stop-color="#c4d1d1" stop-opacity="1"/>
			<stop offset="0.52" stop-color="#688989" stop-opacity="1"/>
			<stop offset="0.69" stop-color="#5c7979" stop-opacity="1"/>
			<stop offset="0.8" stop-color="#567272" stop-opacity="1"/>
			<stop offset="0.92" stop-color="#516b6b" stop-opacity="1"/>
			<stop offset="1" stop-color="#5e7c7c" stop-opacity="1"/>
		</linearGradient>
		<linearGradient id="grad0-106" x1="0" y1="0" x2="1" y2="0" gradientTransform="rotate(58.489892137018 0.5 0.5)">
			<stop offset="0" stop-color="#91cfd1" stop-opacity="1"/>
			<stop offset="1" stop-color="#49aeb1" stop-opacity="1"/>
		</linearGradient>
		<linearGradient id="grad0-113" x1="0" y1="0" x2="1" y2="0" gradientTransform="rotate(58.489892137018 0.5 0.5)">
			<stop offset="0" stop-color="#9f5153" stop-opacity="1"/>
			<stop offset="1" stop-color="#7b030d" stop-opacity="1"/>
		</linearGradient>
		<linearGradient id="grad0-120" x1="0" y1="0" x2="1" y2="0" gradientTransform="rotate(58.489892137018 0.5 0.5)">
			<stop offset="0" stop-color="#fedea0" stop-opacity="1"/>
			<stop offset="1" stop-color="#e9c168" stop-opacity="1"/>
		</linearGradient>
	</defs>
	<g v:mID="0" v:index="1" v:groupContext="foregroundPage">
		<title>页-1</title>
		<v:pageProperties v:drawingScale="0.0393701" v:pageScale="0.0393701" v:drawingUnits="24" v:shadowOffsetX="8.50394"
				v:shadowOffsetY="-8.50394"/>
		<g id="group5504-1" transform="translate(0.75,-0.75)" v:mID="5504" v:groupContext="group">
			<title>锅炉符号</title>
			<g id="shape5505-2" v:mID="5505" v:groupContext="shape">
				<title>shape1</title>
				<path d="M0 12 L78.37 12 L78.37 132.15 L0 132.15 L0 12 Z" class="st1"/>
			</g>
			<g id="shape5506-6" v:mID="5506" v:groupContext="shape" transform="translate(-9.59233E-14,-116.1)">
				<title>shape2</title>
				<path d="M0 128.1 L78.37 128.1 L78.37 132.15 L0 132.15 L0 128.1 Z" class="st2"/>
			</g>
			<g id="shape5507-10" v:mID="5507" v:groupContext="shape" transform="translate(-9.59233E-14,-82.815)">
				<title>shape3</title>
				<path d="M0 131.17 L78.37 131.17 L78.37 132.15 L0 132.15 L0 131.17 Z" class="st2"/>
			</g>
			<g id="shape5508-13" v:mID="5508" v:groupContext="shape" transform="translate(-9.59233E-14,-48.105)">
				<title>shape4</title>
				<path d="M0 131.17 L78.37 131.17 L78.37 132.15 L0 132.15 L0 131.17 Z" class="st2"/>
			</g>
			<g id="shape5509-16" v:mID="5509" v:groupContext="shape" transform="translate(-9.59233E-14,-13.6575)">
				<title>shape5</title>
				<path d="M0 131.17 L78.37 131.17 L78.37 132.15 L0 132.15 L0 131.17 Z" class="st2"/>
			</g>
			<g id="shape5510-19" v:mID="5510" v:groupContext="shape" transform="translate(45.5625,-120.03)">
				<title>shape6</title>
				<path d="M0 132.15 L19.35 132.15 L19.35 126.37 L0 126.37 L0 132.15 Z" class="st3"/>
			</g>
			<g id="shape5511-23" v:mID="5511" v:groupContext="shape" transform="translate(42.72,-125.775)">
				<title>shape7</title>
				<path d="M1.57 127.27 L23.47 127.27 C24.3 127.27 25.05 128.02 25.05 128.92 L25.05 130.5 C25.05 131.4 24.3 132.15
							 23.47 132.15 L1.57 132.15 C0.75 132.15 0 131.4 0 130.5 L0 128.92 C0 128.02 0.75 127.27 1.57 127.27 Z"
						class="st3"/>
			</g>
			<g id="shape5512-26" v:mID="5512" v:groupContext="shape" transform="translate(23.835,-16.095)">
				<title>shape8</title>
				<path d="M0 116.62 C0 108.07 6.9 101.1 15.37 101.1 C23.85 101.1 30.67 108.07 30.67 116.62 C30.67 125.17 23.85 132.15
							 15.37 132.15 C6.9 132.15 0 125.17 0 116.62 Z" class="st4"/>
			</g>
			<g id="shape5513-30" v:mID="5513" v:groupContext="shape" transform="translate(25.6875,-17.97)">
				<title>shape9</title>
				<path d="M0 118.5 C0 110.92 6.07 104.85 13.5 104.85 C20.92 104.85 27 110.92 27 118.5 C27 126 20.92 132.15 13.5 132.15
							 C6.07 132.15 0 126 0 118.5 Z" class="st5"/>
			</g>
			<g id="shape5514-32" v:mID="5514" v:groupContext="shape" transform="translate(26.655,-18.9375)">
				<title>shape10</title>
				<path d="M0 119.47 C0 112.5 5.62 106.8 12.52 106.8 C19.42 106.8 25.05 112.5 25.05 119.47 C25.05 126.45 19.42 132.15
							 12.52 132.15 C5.62 132.15 0 126.45 0 119.47 Z" class="st4"/>
			</g>
			<g id="shape5515-35" v:mID="5515" v:groupContext="shape" transform="translate(27.6525,-19.9575)">
				<title>shape11</title>
				<path d="M0 120.45 C0 114.07 5.17 108.82 11.55 108.82 C17.92 108.82 23.1 114.07 23.1 120.45 C23.1 126.9 17.92 132.15
							 11.55 132.15 C5.17 132.15 0 126.9 0 120.45 Z" class="st5"/>
			</g>
			<g id="shape5516-37" v:mID="5516" v:groupContext="shape" transform="translate(30.585,-22.9125)">
				<title>shape12</title>
				<path d="M1.5 114.75 L15.67 114.75 C16.5 114.75 17.17 115.42 17.17 116.32 L17.17 130.57 C17.17 131.4 16.5 132.15
							 15.67 132.15 L1.5 132.15 C0.67 132.15 0 131.4 0 130.57 L0 116.32 C0 115.42 0.67 114.75 1.5 114.75 Z"
						class="st6"/>
			</g>
			<g id="shape5517-41" v:mID="5517" v:groupContext="shape" transform="translate(31.7025,-24.03)">
				<title>shape13</title>
				<path d="M1.35 117 L13.65 117 C14.4 117 15 117.6 15 118.35 L15 130.8 C15 131.47 14.4 132.15 13.65 132.15 L1.35 132.15
							 C0.6 132.15 0 131.47 0 130.8 L0 118.35 C0 117.6 0.6 117 1.35 117 Z" class="st7"/>
			</g>
			<g id="shape5518-43" v:mID="5518" v:groupContext="shape" transform="translate(32.4075,-24.7425)">
				<title>shape14</title>
				<path d="M1.2 118.42 L12.37 118.42 C13.05 118.42 13.57 118.95 13.57 119.62 L13.57 130.87 C13.57 131.55 13.05 132.15
							 12.37 132.15 L1.2 132.15 C0.52 132.15 0 131.55 0 130.87 L0 119.62 C0 118.95 0.52 118.42 1.2 118.42 Z"
						class="st8"/>
			</g>
			<g id="shape5519-45" v:mID="5519" v:groupContext="shape" transform="translate(32.4,-34.665)">
				<title>shape15</title>
				<path d="M0 129.82 L13.57 129.82 L13.57 132.15 L0 132.15 L0 129.82 Z" class="st9"/>
			</g>
			<g id="shape5520-49" v:mID="5520" v:groupContext="shape" transform="translate(29.5425,-15.33)">
				<title>shape16</title>
				<path d="M1.73 112.65 L17.55 112.65 C18.53 112.65 19.28 113.4 19.28 114.38 L19.28 130.35 C19.28 131.32 18.53 132.15
							 17.55 132.15 L1.73 132.15 C0.75 132.15 0 131.32 0 130.35 L0 114.38 C0 113.4 0.75 112.65 1.73 112.65
							 Z" class="st10"/>
			</g>
			<g id="shape5521-53" v:mID="5521" v:groupContext="shape" transform="translate(34.59,-26.7075)">
				<title>shape17</title>
				<path d="M0 129.6 C0 128.17 0.45 127.05 0.9 127.05 C1.43 127.05 1.88 128.17 1.88 129.6 C1.88 131.02 1.43 132.15 0.9
							 132.15 C0.45 132.15 0 131.02 0 129.6 Z" class="st11"/>
			</g>
			<g id="shape5522-55" v:mID="5522" v:groupContext="shape" transform="translate(42.3225,-26.7075)">
				<title>shape18</title>
				<path d="M0 129.6 C0 128.17 0.45 127.05 0.9 127.05 C1.43 127.05 1.88 128.17 1.88 129.6 C1.88 131.02 1.43 132.15 0.9
							 132.15 C0.45 132.15 0 131.02 0 129.6 Z" class="st11"/>
			</g>
			<g id="shape5523-57" v:mID="5523" v:groupContext="shape" transform="translate(34.725,-27.0825)">
				<title>shape19</title>
				<path d="M0 129.97 C0 128.77 0.37 127.8 0.82 127.8 C1.2 127.8 1.57 128.77 1.57 129.97 C1.57 131.17 1.2 132.15 0.82
							 132.15 C0.37 132.15 0 131.17 0 129.97 Z" class="st12"/>
			</g>
			<g id="shape5524-59" v:mID="5524" v:groupContext="shape" transform="translate(42.4575,-27.0825)">
				<title>shape20</title>
				<path d="M0 129.97 C0 128.77 0.37 127.8 0.82 127.8 C1.2 127.8 1.57 128.77 1.57 129.97 C1.57 131.17 1.2 132.15 0.82
							 132.15 C0.37 132.15 0 131.17 0 129.97 Z" class="st12"/>
			</g>
			<g id="shape5525-61" v:mID="5525" v:groupContext="shape" transform="translate(31.02,-9.855)">
				<title>shape21</title>
				<path d="M16.35 126.67 L16.35 131.62 C16.35 131.92 16.13 132.15 15.83 132.15 L0.53 132.15 C0.23 132.15 0 131.92 0
							 131.62 L0 126.67 L16.35 126.67 Z" class="st13"/>
			</g>
			<g id="shape5526-65" v:mID="5526" v:groupContext="shape" transform="translate(29.4975,-15.3675)">
				<title>shape22</title>
				<path d="M19.35 126.15 L19.35 130.42 C19.35 131.4 18.6 132.15 17.62 132.15 L1.8 132.15 C0.82 132.15 0.07 131.4 0.07
							 130.42 L0 126.15 L19.35 126.15 Z" class="st14"/>
			</g>
			<g id="shape5527-69" v:mID="5527" v:groupContext="shape" transform="translate(41.34,-35.4825)">
				<title>shape23</title>
				<path d="M0 131.85 C0 131.7 0.6 131.55 1.27 131.55 C2.02 131.55 2.62 131.7 2.62 131.85 C2.62 132 2.02 132.15 1.27
							 132.15 C0.6 132.15 0 132 0 131.85 Z" class="st11"/>
			</g>
			<g id="group5528-71" transform="translate(41.3175,-35.6925)" v:mID="5528" v:groupContext="group">
				<title>工作表.5528</title>
				<g id="group5529-72" transform="translate(-2.2482E-14,-2.685)" v:mID="5529" v:groupContext="group">
					<title>工作表.5529</title>
					<g id="shape5530-73" v:mID="5530" v:groupContext="shape" transform="translate(0.06,-2.55795E-13)">
						<title>shape24</title>
						<path d="M0.67 108.67 L1.95 108.67 C1.95 108.67 2.47 112.87 1.95 120.37 C1.5 127.8 1.95 132.15 1.95 132.15
									 L0.67 132.15 C0.67 132.15 0 127.27 0.67 120.37 C1.27 113.4 0.67 108.67 0.67 108.67 Z"
								class="st15"/>
					</g>
					<g id="shape5531-75" v:mID="5531" v:groupContext="shape" transform="translate(1.035,-0.045)">
						<title>shape25</title>
						<path d="M0.52 108.97 C0.97 108.97 1.42 113.47 0.97 120.67 C0.52 128.1 0.97 132.15 0.97 132.15 C0.52 132.15
									 0 127.57 0.52 120.67 C0.9 114.52 0.52 108.97 0.52 108.97 Z" class="st16"/>
					</g>
					<g id="shape5532-77" v:mID="5532" v:groupContext="shape" transform="translate(-2.51049E-14,-0.045)">
						<title>shape26</title>
						<path d="M0.82 108.97 C1.27 108.97 1.57 113.47 1.12 120.67 C0.6 128.1 1.12 132.15 1.12 132.15 C0.67 132.15
									 0 125.62 0.6 120.67 C1.27 115.57 0.82 108.97 0.82 108.97 Z" class="st17"/>
					</g>
				</g>
				<g id="shape5533-79" v:mID="5533" v:groupContext="shape" transform="translate(0.4875,-25.9275)">
					<title>shape27</title>
					<path d="M0 129.3 L1.72 129.3 L1.72 132.15 L0 132.15 L0 129.3 Z" class="st18"/>
				</g>
				<g id="shape5534-83" v:mID="5534" v:groupContext="shape" transform="translate(0.4875,-2.84217E-14)">
					<title>shape28</title>
					<path d="M0 129.3 L1.72 129.3 L1.72 132.15 L0 132.15 L0 129.3 Z" class="st18"/>
				</g>
			</g>
			<g id="shape5535-86" v:mID="5535" v:groupContext="shape" transform="translate(26.5275,-64.4325)">
				<title>shape29</title>
				<path d="M0 98.25 L25.35 98.25 L25.35 132.15 L0 132.15 L0 98.25 Z" class="st1"/>
			</g>
			<g id="shape5536-89" v:mID="5536" v:groupContext="shape" transform="translate(26.5275,-95.3325)">
				<title>shape30</title>
				<path d="M0 129.15 L25.35 129.15 L25.35 132.15 L0 132.15 L0 129.15 Z" class="st2"/>
			</g>
			<g id="shape5537-92" v:mID="5537" v:groupContext="shape" transform="translate(26.5275,-64.41)">
				<title>shape31</title>
				<path d="M0 129.15 L25.35 129.15 L25.35 132.15 L0 132.15 L0 129.15 Z" class="st2"/>
			</g>
			<g id="shape5538-95" v:mID="5538" v:groupContext="shape" transform="translate(31.7775,-83.7525)">
				<title>shape32</title>
				<path d="M1.88 123.22 L12.9 123.22 C13.95 123.22 14.85 124.05 14.85 125.1 L14.85 130.2 C14.85 131.25 13.95 132.15
							 12.9 132.15 L1.88 132.15 C0.83 132.15 0 131.25 0 130.2 L0 125.1 C0 124.05 0.83 123.22 1.88 123.22 Z"
						class="st11"/>
			</g>
			<g id="shape5539-97" v:mID="5539" v:groupContext="shape" transform="translate(32.2425,-84.165)">
				<title>shape33</title>
				<path d="M1.73 124.05 L12.15 124.05 C13.13 124.05 13.88 124.8 13.88 125.77 L13.88 130.42 C13.88 131.32 13.13 132.15
							 12.15 132.15 L1.73 132.15 C0.75 132.15 0 131.32 0 130.42 L0 125.77 C0 124.8 0.75 124.05 1.73 124.05
							 Z" class="st7"/>
			</g>
			<g id="group5540-99" transform="translate(28.425,-69.3225)" v:mID="5540" v:groupContext="group">
				<title>工作表.5540</title>
				<g id="group5541-100" transform="translate(6.555,-6.8175)" v:mID="5541" v:groupContext="group">
					<title>工作表.5541</title>
					<g id="shape5542-101" v:mID="5542" v:groupContext="shape">
						<title>shape34</title>
						<path d="M0 130.05 C0 128.85 0.98 127.87 2.1 127.87 C3.3 127.87 4.2 128.85 4.2 130.05 C4.2 131.17 3.3 132.15
									 2.1 132.15 C0.98 132.15 0 131.17 0 130.05 Z" class="st19"/>
					</g>
					<g id="shape5543-103" v:mID="5543" v:groupContext="shape" transform="translate(0.39,-0.3525)">
						<title>shape35</title>
						<path d="M0 130.35 C0 129.37 0.75 128.62 1.73 128.62 C2.7 128.62 3.45 129.37 3.45 130.35 C3.45 131.32 2.7
									 132.15 1.73 132.15 C0.75 132.15 0 131.32 0 130.35 Z" class="st20"/>
					</g>
				</g>
				<g id="group5544-107" transform="translate(0.0075,-6.8175)" v:mID="5544" v:groupContext="group">
					<title>工作表.5544</title>
					<g id="shape5545-108" v:mID="5545" v:groupContext="shape">
						<title>shape36</title>
						<path d="M0 130.05 C0 128.85 0.98 127.87 2.1 127.87 C3.3 127.87 4.2 128.85 4.2 130.05 C4.2 131.17 3.3 132.15
									 2.1 132.15 C0.98 132.15 0 131.17 0 130.05 Z" class="st21"/>
					</g>
					<g id="shape5546-110" v:mID="5546" v:groupContext="shape" transform="translate(0.39,-0.3525)">
						<title>shape37</title>
						<path d="M0 130.35 C0 129.37 0.75 128.62 1.73 128.62 C2.7 128.62 3.45 129.37 3.45 130.35 C3.45 131.32 2.7
									 132.15 1.73 132.15 C0.75 132.15 0 131.32 0 130.35 Z" class="st22"/>
					</g>
				</g>
				<g id="group5547-114" transform="translate(13.11,-6.8175)" v:mID="5547" v:groupContext="group">
					<title>工作表.5547</title>
					<g id="shape5548-115" v:mID="5548" v:groupContext="shape">
						<title>shape38</title>
						<path d="M0 130.05 C0 128.85 0.98 127.87 2.1 127.87 C3.3 127.87 4.2 128.85 4.2 130.05 C4.2 131.17 3.3 132.15
									 2.1 132.15 C0.98 132.15 0 131.17 0 130.05 Z" class="st23"/>
					</g>
					<g id="shape5549-117" v:mID="5549" v:groupContext="shape" transform="translate(0.39,-0.3525)">
						<title>shape39</title>
						<path d="M0 130.35 C0 129.37 0.75 128.62 1.73 128.62 C2.7 128.62 3.45 129.37 3.45 130.35 C3.45 131.32 2.7
									 132.15 1.73 132.15 C0.75 132.15 0 131.32 0 130.35 Z" class="st24"/>
					</g>
				</g>
				<g id="group5550-121" transform="translate(6.555,-2.84217E-14)" v:mID="5550" v:groupContext="group">
					<title>工作表.5550</title>
					<g id="shape5551-122" v:mID="5551" v:groupContext="shape">
						<title>shape40</title>
						<path d="M0 130.05 C0 128.85 0.98 127.87 2.1 127.87 C3.3 127.87 4.2 128.85 4.2 130.05 C4.2 131.17 3.3 132.15
									 2.1 132.15 C0.98 132.15 0 131.17 0 130.05 Z" class="st19"/>
					</g>
					<g id="shape5552-124" v:mID="5552" v:groupContext="shape" transform="translate(0.39,-0.3525)">
						<title>shape41</title>
						<path d="M0 130.35 C0 129.37 0.75 128.62 1.73 128.62 C2.7 128.62 3.45 129.37 3.45 130.35 C3.45 131.32 2.7
									 132.15 1.73 132.15 C0.75 132.15 0 131.32 0 130.35 Z" class="st20"/>
					</g>
				</g>
				<g id="group5553-127" v:mID="5553" v:groupContext="group">
					<title>工作表.5553</title>
					<g id="shape5554-128" v:mID="5554" v:groupContext="shape">
						<title>shape42</title>
						<path d="M0 130.05 C0 128.85 0.98 127.87 2.1 127.87 C3.3 127.87 4.2 128.85 4.2 130.05 C4.2 131.17 3.3 132.15
									 2.1 132.15 C0.98 132.15 0 131.17 0 130.05 Z" class="st21"/>
					</g>
					<g id="shape5555-130" v:mID="5555" v:groupContext="shape" transform="translate(0.39,-0.3525)">
						<title>shape43</title>
						<path d="M0 130.35 C0 129.37 0.75 128.62 1.73 128.62 C2.7 128.62 3.45 129.37 3.45 130.35 C3.45 131.32 2.7
									 132.15 1.73 132.15 C0.75 132.15 0 131.32 0 130.35 Z" class="st22"/>
					</g>
				</g>
				<g id="group5556-133" transform="translate(13.1025,-2.84217E-14)" v:mID="5556" v:groupContext="group">
					<title>工作表.5556</title>
					<g id="shape5557-134" v:mID="5557" v:groupContext="shape">
						<title>shape44</title>
						<path d="M0 130.05 C0 128.85 0.98 127.87 2.1 127.87 C3.3 127.87 4.2 128.85 4.2 130.05 C4.2 131.17 3.3 132.15
									 2.1 132.15 C0.98 132.15 0 131.17 0 130.05 Z" class="st23"/>
					</g>
					<g id="shape5558-136" v:mID="5558" v:groupContext="shape" transform="translate(0.39,-0.3525)">
						<title>shape45</title>
						<path d="M0 130.35 C0 129.37 0.75 128.62 1.73 128.62 C2.7 128.62 3.45 129.37 3.45 130.35 C3.45 131.32 2.7
									 132.15 1.73 132.15 C0.75 132.15 0 131.32 0 130.35 Z" class="st24"/>
					</g>
				</g>
			</g>
			<g id="shape5559-139" v:mID="5559" v:groupContext="shape" transform="translate(31.7925,-83.6025)">
				<title>shape46</title>
				<path d="M1.88 123.07 L12.9 123.07 L3.38 132.15 L1.88 132 C0.83 132 0 131.1 0 130.05 L0 124.95 C0 123.9 0.83 123.07
							 1.88 123.07 Z" class="st25"/>
			</g>
		</g>
	</g>
</svg>
