<?xml version="1.0" encoding="UTF-8" standalone="no"?>
<!DOCTYPE svg PUBLIC "-//W3C//DTD SVG 1.1//EN" "http://www.w3.org/Graphics/SVG/1.1/DTD/svg11.dtd">
<!-- 由 Microsoft Visio, SVG Export 生成 罐13.svg 页-1 -->
<svg xmlns="http://www.w3.org/2000/svg" xmlns:xlink="http://www.w3.org/1999/xlink" xmlns:ev="http://www.w3.org/2001/xml-events"
		xmlns:v="http://schemas.microsoft.com/visio/2003/SVGExtensions/" width="0.520833in" height="1.50667in"
		viewBox="0 0 37.5 108.48" xml:space="preserve" color-interpolation-filters="sRGB" class="st3">
	<v:documentProperties v:langID="2052" v:metric="true" v:viewMarkup="false"/>

	<style type="text/css">
	<![CDATA[
		.st1 {fill:url(#grad0-5);stroke:none;stroke-linecap:butt;stroke-width:0.75}
		.st2 {fill:url(#grad0-18);stroke:none;stroke-linecap:butt;stroke-width:0.75}
		.st3 {fill:none;fill-rule:evenodd;font-size:12px;overflow:visible;stroke-linecap:square;stroke-miterlimit:3}
	]]>
	</style>

	<defs id="Patterns_And_Gradients">
		<linearGradient id="grad0-5" x1="0" y1="0" x2="1" y2="0" gradientTransform="rotate(-180 0.5 0.5)">
			<stop offset="0" stop-color="#97aa93" stop-opacity="1"/>
			<stop offset="0.15" stop-color="#d0e8cb" stop-opacity="1"/>
			<stop offset="0.25" stop-color="#e5f2e2" stop-opacity="1"/>
			<stop offset="0.52" stop-color="#b3c9ae" stop-opacity="1"/>
			<stop offset="0.69" stop-color="#9fb39b" stop-opacity="1"/>
			<stop offset="0.8" stop-color="#96a992" stop-opacity="1"/>
			<stop offset="0.92" stop-color="#8e9f89" stop-opacity="1"/>
			<stop offset="1" stop-color="#a3b79e" stop-opacity="1"/>
		</linearGradient>
		<linearGradient id="grad0-18" x1="0" y1="0" x2="1" y2="0" gradientTransform="rotate(113.22826206952 0.5 0.5)">
			<stop offset="0" stop-color="#7e8e7a" stop-opacity="1"/>
			<stop offset="0.29" stop-color="#d0e8cb" stop-opacity="1"/>
		</linearGradient>
	</defs>
	<g v:mID="0" v:index="1" v:groupContext="foregroundPage">
		<title>页-1</title>
		<v:pageProperties v:drawingScale="0.0393701" v:pageScale="0.0393701" v:drawingUnits="24" v:shadowOffsetX="8.50394"
				v:shadowOffsetY="-8.50394"/>
		<g id="group5185-1" transform="translate(0.75,-0.75)" v:mID="5185" v:groupContext="group">
			<title>锅炉13</title>
			<g id="shape5186-2" v:mID="5186" v:groupContext="shape" transform="translate(1.4325,0)">
				<title>shape1</title>
				<path d="M0 95.88 L6.23 95.88 L6.23 108.48 L0 108.48 L0 95.88 Z" class="st1"/>
			</g>
			<g id="shape5187-6" v:mID="5187" v:groupContext="shape" transform="translate(28.4025,-0.0525)">
				<title>shape2</title>
				<path d="M0 95.88 L6.23 95.88 L6.23 108.48 L0 108.48 L0 95.88 Z" class="st1"/>
			</g>
			<g id="shape5188-9" v:mID="5188" v:groupContext="shape" transform="translate(13.7325,-72.48)">
				<title>shape3</title>
				<path d="M0 73.98 L8.55 73.98 L8.55 108.48 L0 108.48 L0 73.98 Z" class="st1"/>
			</g>
			<g id="shape5189-12" v:mID="5189" v:groupContext="shape" transform="translate(7.065,-56.6925)">
				<title>shape4</title>
				<path d="M0 93.85 L21.9 93.85 L21.9 108.48 L0 108.48 L0 93.85 Z" class="st1"/>
			</g>
			<g id="shape5190-15" v:mID="5190" v:groupContext="shape" transform="translate(0.51,-47.7225)">
				<title>shape5</title>
				<path d="M6.53 99.48 L28.43 99.48 L34.95 108.48 L0 108.48 L6.53 99.48 Z" class="st2"/>
			</g>
			<g id="shape5191-19" v:mID="5191" v:groupContext="shape" transform="translate(0.51,-14.2425)">
				<title>shape6</title>
				<path d="M0 75.03 L34.95 75.03 L34.95 108.48 L0 108.48 L0 75.03 Z" class="st1"/>
			</g>
			<g id="shape5192-22" v:mID="5192" v:groupContext="shape" transform="translate(6.735,-71.34)">
				<title>shape8</title>
				<path d="M0.3 107.28 L22.28 107.28 C22.43 107.28 22.5 107.43 22.5 107.65 C22.5 108.33 22.43 108.48 22.28 108.48 L0.3
							 108.48 C0.15 108.48 0 108.33 0 108.1 C0 107.43 0.15 107.28 0.3 107.28 Z" class="st1"/>
			</g>
			<g id="shape5193-25" v:mID="5193" v:groupContext="shape" transform="translate(0.51,-13.92)">
				<title>shape9</title>
				<path d="M0 107.43 L34.95 107.43 L34.95 108.48 L0 108.48 L0 107.43 Z" class="st1"/>
			</g>
			<g id="shape5194-28" v:mID="5194" v:groupContext="shape" transform="translate(1.15907E-13,-12.24)">
				<title>shape10</title>
				<path d="M0.3 106.83 L35.7 106.83 C35.85 106.83 36 106.98 36 107.2 L36 108.1 C36 108.25 35.85 108.48 35.7 108.48
							 L0.3 108.48 C0.15 108.48 0 108.25 0 108.1 L0 107.2 C0 106.98 0.15 106.83 0.3 106.83 Z" class="st1"/>
			</g>
		</g>
	</g>
</svg>
