<?xml version="1.0" encoding="UTF-8" standalone="no"?>
<!DOCTYPE svg PUBLIC "-//W3C//DTD SVG 1.1//EN" "http://www.w3.org/Graphics/SVG/1.1/DTD/svg11.dtd">
<!-- 由 Microsoft Visio, SVG Export 生成 罐5.svg 页-1 -->
<svg xmlns="http://www.w3.org/2000/svg" xmlns:xlink="http://www.w3.org/1999/xlink" xmlns:ev="http://www.w3.org/2001/xml-events"
		xmlns:v="http://schemas.microsoft.com/visio/2003/SVGExtensions/" width="1.67094in" height="1.02563in"
		viewBox="0 0 120.308 73.845" xml:space="preserve" color-interpolation-filters="sRGB" class="st18">
	<v:documentProperties v:langID="2052" v:metric="true" v:viewMarkup="false"/>

	<style type="text/css">
	<![CDATA[
		.st1 {fill:url(#grad0-6);stroke:none;stroke-linecap:butt;stroke-width:0.75}
		.st2 {fill:url(#grad0-10);stroke:none;stroke-linecap:butt;stroke-width:0.75}
		.st3 {fill:url(#grad0-14);stroke:none;stroke-linecap:butt;stroke-width:0.75}
		.st4 {fill:url(#grad3-18);stroke:#d4d6db;stroke-linecap:butt;stroke-width:0.1875}
		.st5 {fill:url(#grad0-25);stroke:none;stroke-linecap:butt;stroke-width:0.75}
		.st6 {fill:url(#grad0-29);stroke:none;stroke-linecap:butt;stroke-width:0.75}
		.st7 {fill:url(#grad0-39);stroke:none;stroke-linecap:butt;stroke-width:0.75}
		.st8 {fill:#b89054;stroke:none;stroke-linecap:butt;stroke-width:0.75}
		.st9 {fill:url(#grad0-57);stroke:none;stroke-linecap:butt;stroke-width:0.75}
		.st10 {fill:url(#grad0-61);stroke:none;stroke-linecap:butt;stroke-width:0.75}
		.st11 {fill:url(#grad0-69);stroke:none;stroke-linecap:butt;stroke-width:0.75}
		.st12 {fill:#cfb48b;stroke:none;stroke-linecap:butt;stroke-width:0.75}
		.st13 {fill:url(#grad0-90);stroke:none;stroke-linecap:butt;stroke-width:0.75}
		.st14 {fill:#fe5c1c;stroke:none;stroke-linecap:butt;stroke-width:0.75}
		.st15 {fill:#fd991f;stroke:none;stroke-linecap:butt;stroke-width:0.75}
		.st16 {fill:#fcd732;stroke:none;stroke-linecap:butt;stroke-width:0.75}
		.st17 {fill:#fcffa4;stroke:none;stroke-linecap:butt;stroke-width:0.75}
		.st18 {fill:none;fill-rule:evenodd;font-size:12px;overflow:visible;stroke-linecap:square;stroke-miterlimit:3}
	]]>
	</style>

	<defs id="Patterns_And_Gradients">
		<linearGradient id="grad0-6" x1="0" y1="0" x2="1" y2="0" gradientTransform="rotate(-180 0.5 0.5)">
			<stop offset="0" stop-color="#7b684c" stop-opacity="1"/>
			<stop offset="0.09" stop-color="#c3b19a" stop-opacity="1"/>
			<stop offset="0.16" stop-color="#a18965" stop-opacity="1"/>
			<stop offset="0.64" stop-color="#9e8763" stop-opacity="1"/>
			<stop offset="0.92" stop-color="#9b8361" stop-opacity="1"/>
			<stop offset="1" stop-color="#726046" stop-opacity="1"/>
		</linearGradient>
		<linearGradient id="grad0-10" x1="0" y1="0" x2="1" y2="0" gradientTransform="rotate(90 0.5 0.5)">
			<stop offset="0" stop-color="#7b684c" stop-opacity="1"/>
			<stop offset="0.09" stop-color="#c3b19a" stop-opacity="1"/>
			<stop offset="0.16" stop-color="#a18965" stop-opacity="1"/>
			<stop offset="0.64" stop-color="#9e8763" stop-opacity="1"/>
			<stop offset="0.92" stop-color="#9b8361" stop-opacity="1"/>
			<stop offset="1" stop-color="#726046" stop-opacity="1"/>
		</linearGradient>
		<linearGradient id="grad0-14" x1="0" y1="0" x2="1" y2="0" gradientTransform="rotate(-180 0.5 0.5)">
			<stop offset="0" stop-color="#9c8561" stop-opacity="1"/>
			<stop offset="0.15" stop-color="#d6ba90" stop-opacity="1"/>
			<stop offset="0.25" stop-color="#e8dac8" stop-opacity="1"/>
			<stop offset="0.52" stop-color="#b89d74" stop-opacity="1"/>
			<stop offset="0.69" stop-color="#a48b66" stop-opacity="1"/>
			<stop offset="0.8" stop-color="#9b8360" stop-opacity="1"/>
			<stop offset="0.92" stop-color="#927c5a" stop-opacity="1"/>
			<stop offset="1" stop-color="#a88f69" stop-opacity="1"/>
		</linearGradient>
		<radialGradient id="grad3-18" cx="0.5" cy="0.5" r="0.73">
			<stop offset="0" stop-color="#c1aa87" stop-opacity="1"/>
			<stop offset="0.91" stop-color="#c1aa87" stop-opacity="1"/>
		</radialGradient>
		<linearGradient id="grad0-25" x1="0" y1="0" x2="1" y2="0" gradientTransform="rotate(0 0.5 0.5)">
			<stop offset="0" stop-color="#86693d" stop-opacity="1"/>
			<stop offset="0.66" stop-color="#e1cfbd" stop-opacity="1"/>
			<stop offset="1" stop-color="#82653b" stop-opacity="1"/>
		</linearGradient>
		<linearGradient id="grad0-29" x1="0" y1="0" x2="1" y2="0" gradientTransform="rotate(-180 0.5 0.5)">
			<stop offset="0" stop-color="#968364" stop-opacity="1"/>
			<stop offset="0.09" stop-color="#decaae" stop-opacity="1"/>
			<stop offset="0.16" stop-color="#c4ab84" stop-opacity="1"/>
			<stop offset="0.64" stop-color="#c1a882" stop-opacity="1"/>
			<stop offset="0.92" stop-color="#bca47f" stop-opacity="1"/>
			<stop offset="1" stop-color="#8b795d" stop-opacity="1"/>
		</linearGradient>
		<linearGradient id="grad0-39" x1="0" y1="0" x2="1" y2="0" gradientTransform="rotate(90 0.5 0.5)">
			<stop offset="0" stop-color="#9c8561" stop-opacity="1"/>
			<stop offset="0.15" stop-color="#d6ba90" stop-opacity="1"/>
			<stop offset="0.25" stop-color="#e8dac8" stop-opacity="1"/>
			<stop offset="0.52" stop-color="#b89d74" stop-opacity="1"/>
			<stop offset="0.69" stop-color="#a48b66" stop-opacity="1"/>
			<stop offset="0.8" stop-color="#9b8360" stop-opacity="1"/>
			<stop offset="0.92" stop-color="#927c5a" stop-opacity="1"/>
			<stop offset="1" stop-color="#a88f69" stop-opacity="1"/>
		</linearGradient>
		<linearGradient id="grad0-57" x1="0" y1="0" x2="1" y2="0" gradientTransform="rotate(90 0.5 0.5)">
			<stop offset="0" stop-color="#7e7f7f" stop-opacity="1"/>
			<stop offset="0.09" stop-color="#c6c7c7" stop-opacity="1"/>
			<stop offset="0.16" stop-color="#a6a6a6" stop-opacity="1"/>
			<stop offset="0.64" stop-color="#a3a4a4" stop-opacity="1"/>
			<stop offset="0.92" stop-color="#9fa0a0" stop-opacity="1"/>
			<stop offset="1" stop-color="#757676" stop-opacity="1"/>
		</linearGradient>
		<linearGradient id="grad0-61" x1="0" y1="0" x2="1" y2="0" gradientTransform="rotate(-180 0.5 0.5)">
			<stop offset="0" stop-color="#979898" stop-opacity="1"/>
			<stop offset="0.15" stop-color="#d0d1d1" stop-opacity="1"/>
			<stop offset="0.25" stop-color="#e5e6e6" stop-opacity="1"/>
			<stop offset="0.52" stop-color="#b3b4b4" stop-opacity="1"/>
			<stop offset="0.69" stop-color="#9fa0a0" stop-opacity="1"/>
			<stop offset="0.8" stop-color="#969797" stop-opacity="1"/>
			<stop offset="0.92" stop-color="#8e8e8e" stop-opacity="1"/>
			<stop offset="1" stop-color="#a3a4a4" stop-opacity="1"/>
		</linearGradient>
		<linearGradient id="grad0-69" x1="0" y1="0" x2="1" y2="0" gradientTransform="rotate(-180 0.5 0.5)">
			<stop offset="0" stop-color="#7e7f7f" stop-opacity="1"/>
			<stop offset="0.09" stop-color="#c6c7c7" stop-opacity="1"/>
			<stop offset="0.16" stop-color="#a6a6a6" stop-opacity="1"/>
			<stop offset="0.64" stop-color="#a3a4a4" stop-opacity="1"/>
			<stop offset="0.92" stop-color="#9fa0a0" stop-opacity="1"/>
			<stop offset="1" stop-color="#757676" stop-opacity="1"/>
		</linearGradient>
		<linearGradient id="grad0-90" x1="0" y1="0" x2="1" y2="0" gradientTransform="rotate(90 0.5 0.5)">
			<stop offset="0" stop-color="#979898" stop-opacity="1"/>
			<stop offset="0.15" stop-color="#d0d1d1" stop-opacity="1"/>
			<stop offset="0.25" stop-color="#e5e6e6" stop-opacity="1"/>
			<stop offset="0.52" stop-color="#b3b4b4" stop-opacity="1"/>
			<stop offset="0.69" stop-color="#9fa0a0" stop-opacity="1"/>
			<stop offset="0.8" stop-color="#969797" stop-opacity="1"/>
			<stop offset="0.92" stop-color="#8e8e8e" stop-opacity="1"/>
			<stop offset="1" stop-color="#a3a4a4" stop-opacity="1"/>
		</linearGradient>
	</defs>
	<g v:mID="0" v:index="1" v:groupContext="foregroundPage">
		<title>页-1</title>
		<v:pageProperties v:drawingScale="0.0393701" v:pageScale="0.0393701" v:drawingUnits="24" v:shadowOffsetX="8.50394"
				v:shadowOffsetY="-8.50394"/>
		<g id="group4871-1" transform="translate(0.1875,-0.75)" v:mID="4871" v:groupContext="group">
			<title>锅炉6</title>
			<g id="group4872-2" transform="translate(49.8375,-61.0275)" v:mID="4872" v:groupContext="group">
				<title>工作表.4872</title>
				<g id="shape4873-3" v:mID="4873" v:groupContext="shape" transform="translate(1.155,-2.84217E-14)">
					<title>shape1</title>
					<path d="M0 73.85 L9.67 73.85 L9.67 63.57 L0 63.57 L0 73.85 Z" class="st1"/>
				</g>
				<g id="shape4874-7" v:mID="4874" v:groupContext="shape" transform="translate(-1.61871E-13,-10.1175)">
					<title>shape2</title>
					<path d="M0 73.85 L12 73.85 L12 72.65 L0 72.65 L0 73.85 Z" class="st2"/>
				</g>
			</g>
			<g id="shape4875-11" v:mID="4875" v:groupContext="shape" transform="translate(83.745,47.475) rotate(90) scale(-1,1)">
				<title>shape3</title>
				<path d="M0 60.65 L8.4 60.65 L8.4 73.85 L0 73.85 L0 60.65 Z" class="st3"/>
			</g>
			<g id="shape4876-15" v:mID="4876" v:groupContext="shape" transform="translate(73.845,59.025) rotate(90) scale(-1,1)">
				<title>shape4</title>
				<path d="M0 63.87 C0 58.4 4.5 53.97 9.97 53.97 C15.52 53.97 19.95 58.4 19.95 63.87 C19.95 69.35 15.52 73.85 9.97
							 73.85 C4.5 73.85 0 69.35 0 63.87 Z" class="st4"/>
			</g>
			<g id="shape4877-19" v:mID="4877" v:groupContext="shape" transform="translate(96.945,47.925) rotate(90) scale(-1,1)">
				<title>shape5</title>
				<path d="M0.3 72.65 L8.92 72.65 C9.07 72.65 9.22 72.87 9.22 73.25 C9.22 73.55 9.07 73.85 8.92 73.85 L0.3 73.85 C0.15
							 73.85 0 73.55 0 73.25 C0 72.87 0.15 72.65 0.3 72.65 Z" class="st3"/>
			</g>
			<g id="shape4878-22" v:mID="4878" v:groupContext="shape" transform="translate(96.945,47.85) rotate(90) scale(-1,1)">
				<title>shape6</title>
				<path d="M9.15 73.47 C9.08 73.7 9 73.85 8.85 73.85 L0.3 73.85 C0.15 73.85 0 73.7 0 73.47 C0 73.47 9.15 73.47 9.15
							 73.47 Z" class="st5"/>
			</g>
			<g id="shape4879-26" v:mID="4879" v:groupContext="shape" transform="translate(16.725,116.07) rotate(180)">
				<title>shape7</title>
				<path d="M0 66.95 C0 63.2 3.08 60.12 6.83 60.12 C10.58 60.12 13.65 63.2 13.65 66.95 C13.65 70.77 10.58 73.85 6.83
							 73.85 C3.08 73.85 0 70.77 0 66.95 Z" class="st6"/>
			</g>
			<g id="shape4880-30" v:mID="4880" v:groupContext="shape" transform="translate(3.2475,-11.0475)">
				<title>shape8</title>
				<path d="M0 61.1 L13.43 61.1 L13.43 73.85 L0 73.85 L0 61.1 Z" class="st6"/>
			</g>
			<g id="shape4881-33" v:mID="4881" v:groupContext="shape" transform="translate(3.2475,-11.055)">
				<title>shape9</title>
				<path d="M0 70.92 L13.43 70.92 L13.43 73.85 L0 73.85 L0 70.92 Z" class="st1"/>
			</g>
			<g id="shape4882-36" v:mID="4882" v:groupContext="shape" transform="translate(25.44,-14.55)">
				<title>shape10</title>
				<path d="M0 27.35 L92.18 27.35 L92.18 73.85 L0 73.85 L0 27.35 Z" class="st7"/>
			</g>
			<g id="shape4883-40" v:mID="4883" v:groupContext="shape" transform="translate(60.5925,-61.05)">
				<title>shape11</title>
				<path d="M0 73.85 L39.3 73.85 L39.3 66.12 L0 66.12 L0 73.85 Z" class="st2"/>
			</g>
			<g id="shape4884-43" v:mID="4884" v:groupContext="shape" transform="translate(23.67,-13.7925)">
				<title>shape12</title>
				<path d="M0.9 25.85 C1.35 25.85 1.8 26.22 1.8 26.75 L1.8 72.95 C1.8 73.47 1.35 73.85 0.9 73.85 C0.37 73.85 0 73.47
							 0 72.95 L0 26.75 C0 26.22 0.37 25.85 0.9 25.85 Z" class="st7"/>
			</g>
			<g id="shape4885-46" v:mID="4885" v:groupContext="shape" transform="translate(117.57,-13.7925)">
				<title>shape13</title>
				<path d="M0.9 25.85 C1.35 25.85 1.8 26.22 1.8 26.75 L1.8 72.95 C1.8 73.47 1.35 73.85 0.9 73.85 C0.37 73.85 0 73.47
							 0 72.95 L0 26.75 C0 26.22 0.37 25.85 0.9 25.85 Z" class="st7"/>
			</g>
			<g id="shape4886-49" v:mID="4886" v:groupContext="shape" transform="translate(24.1125,1.42109E-14)">
				<title>shape14</title>
				<path d="M0 68.82 L79.5 68.82 L79.5 73.85 L0 73.85 L0 68.82 Z" class="st2"/>
			</g>
			<g id="shape4887-52" v:mID="4887" v:groupContext="shape" transform="translate(25.5075,-18.21)">
				<title>shape15</title>
				<path d="M0 48.5 L77.1 48.5 L77.1 73.85 L0 73.85 L0 48.5 Z" class="st8"/>
			</g>
			<g id="shape4888-54" v:mID="4888" v:groupContext="shape" transform="translate(44.5275,-58.8)">
				<title>shape16</title>
				<path d="M0 71.6 L38.03 71.6 L38.03 73.85 L0 73.85 L0 71.6 Z" class="st9"/>
			</g>
			<g id="shape4889-58" v:mID="4889" v:groupContext="shape" transform="translate(57.015,-43.65)">
				<title>shape17</title>
				<path d="M0 56.45 L1.65 56.45 L1.65 73.85 L0 73.85 L0 56.45 Z" class="st10"/>
			</g>
			<g id="shape4890-62" v:mID="4890" v:groupContext="shape" transform="translate(68.46,-43.65)">
				<title>shape18</title>
				<path d="M0 56.45 L1.65 56.45 L1.65 73.85 L0 73.85 L0 56.45 Z" class="st10"/>
			</g>
			<g id="group4891-65" transform="translate(56.64,-58.545)" v:mID="4891" v:groupContext="group">
				<title>工作表.4891</title>
				<g id="shape4892-66" v:mID="4892" v:groupContext="shape">
					<title>shape19</title>
					<path d="M0 71.3 L2.4 71.3 L2.4 73.85 L0 73.85 L0 71.3 Z" class="st11"/>
				</g>
				<g id="shape4893-70" v:mID="4893" v:groupContext="shape" transform="translate(11.445,-1.42109E-14)">
					<title>shape20</title>
					<path d="M0 71.3 L2.4 71.3 L2.4 73.85 L0 73.85 L0 71.3 Z" class="st11"/>
				</g>
			</g>
			<g id="shape4894-73" v:mID="4894" v:groupContext="shape" transform="translate(-5.145,20.25) rotate(-90)">
				<title>shape21</title>
				<path d="M0 63.65 L1.65 63.65 L1.65 73.85 L0 73.85 L0 63.65 Z" class="st10"/>
			</g>
			<g id="shape4895-76" v:mID="4895" v:groupContext="shape" transform="translate(25.5075,-20.535)">
				<title>shape22</title>
				<path d="M0 50.82 L74.85 50.82 L74.85 73.85 L0 73.85 L0 50.82 Z" class="st12"/>
			</g>
			<g id="shape4896-78" v:mID="4896" v:groupContext="shape" transform="translate(34.455,-4.89)">
				<title>shape23</title>
				<path d="M0 73.85 L4.87 73.85 L4.87 59.07 L0 59.07 L0 73.85 Z" class="st1"/>
			</g>
			<g id="shape4897-81" v:mID="4897" v:groupContext="shape" transform="translate(88.6575,-4.89)">
				<title>shape24</title>
				<path d="M0 73.85 L4.87 73.85 L4.87 59.07 L0 59.07 L0 73.85 Z" class="st1"/>
			</g>
			<g id="shape4898-84" v:mID="4898" v:groupContext="shape" transform="translate(-5.145,26.775) rotate(-90)">
				<title>shape25</title>
				<path d="M0 63.65 L1.65 63.65 L1.65 73.85 L0 73.85 L0 63.65 Z" class="st10"/>
			</g>
			<g id="shape4899-87" v:mID="4899" v:groupContext="shape" transform="translate(25.44,-27.6)">
				<title>shape26</title>
				<path d="M0 68.3 L3.3 68.3 L3.3 73.85 L0 73.85 L0 68.3 Z" class="st13"/>
			</g>
			<g id="shape4900-91" v:mID="4900" v:groupContext="shape" transform="translate(28.755,-19.335)">
				<title>shape27</title>
				<path d="M0 60.27 C0 60.27 11.1 53.75 14.25 55.1 C17.4 56.52 22.87 56 22.87 56 C22.87 56 38.17 53.45 36 55.17 C33.82
							 56.97 49.95 53.52 47.55 55.32 C45.22 57.12 56.25 53.52 63.37 56.75 C67.05 58.1 56.4 56 70.42 59.75 C73.2
							 60.5 66.6 61.4 70.42 62.67 C71.7 65.15 56.02 64.77 61.95 66.87 C65.85 68.22 49.8 67.92 46.27 67.55 C40.35
							 66.95 44.62 68.22 44.62 68.22 C44.62 68.22 40.5 72.57 27.6 68.82 C27.6 68.82 30.3 70.55 27 70.55 C23.62
							 70.55 19.42 70.77 13.95 69.42 C8.47 68.07 19.5 73.85 0 65.37 L0 60.27 Z" class="st14"/>
			</g>
			<g id="shape4901-93" v:mID="4901" v:groupContext="shape" transform="translate(28.755,-21.9)">
				<title>shape28</title>
				<path d="M0 62.82 C0 62.82 9.68 57.12 12.45 58.4 C15.15 59.6 19.73 59.37 19.73 59.37 C19.73 59.37 33 57.12 31.13
							 58.7 C29.25 60.27 37.88 59.3 37.88 59.3 C37.88 59.3 58.35 57.72 55.5 59.6 C52.8 61.4 69.98 61.47 61.65
							 63.57 C59.85 63.72 68.33 64.85 61.8 65.9 C57.6 66.57 55.13 66.42 58.43 68.45 C60.15 69.5 42.83 69.95
							 37.73 69.27 C32.55 68.6 37.2 70.47 37.2 70.47 C37.2 70.47 35.1 73.85 23.78 70.55 C23.78 70.55 26.18
							 72.12 23.25 72.12 C20.4 72.12 16.58 71.97 11.78 70.77 C6.98 69.57 5.85 70.55 0 67.32 L0 62.82 Z"
						class="st15"/>
			</g>
			<g id="shape4902-95" v:mID="4902" v:groupContext="shape" transform="translate(28.755,-23.7225)">
				<title>shape29</title>
				<path d="M0 65.15 C0 65.15 8.47 60.65 10.87 61.62 C13.27 62.6 17.25 62.45 17.25 62.45 C17.25 62.45 28.87 60.65 27.22
							 61.92 C25.57 63.12 33.07 62.37 33.07 62.37 C33.07 62.37 51 61.1 48.52 62.6 C45.45 64.47 57.22 63.57
							 53.25 65 C47.4 65.45 54.9 66.5 53.32 67.17 C50.77 68.22 47.1 67.77 48.67 68.22 C53.1 69.57 38.92 70.62
							 34.42 70.1 C30 69.5 33.97 71 33.97 71 C33.97 71 30.67 73.85 20.77 71.22 C20.77 71.22 22.87 72.5 20.32
							 72.5 C17.77 72.5 14.47 72.35 10.27 71.37 C6.07 70.47 5.1 71.22 0 68.67 L0 65.15 Z" class="st16"/>
			</g>
			<g id="shape4903-97" v:mID="4903" v:groupContext="shape" transform="translate(28.755,-25.32)">
				<title>shape30</title>
				<path d="M0 67.17 C0 67.17 7.57 63.72 9.67 64.47 C11.85 65.15 15.3 65.07 15.3 65.07 C15.3 65.07 25.72 63.72 24.22
							 64.62 C22.8 65.6 29.47 65 29.47 65 C29.47 65 40.65 64.47 43.2 65.22 C45.75 65.97 49.27 67.17 47.92 67.4
							 C43.05 68 49.8 68.37 49.05 68.97 C48.3 69.57 47.32 70.7 43.2 70.55 C33.15 70.1 34.65 71.37 30.67 71
							 C26.7 70.55 30.3 71.67 30.3 71.67 C30.3 71.67 27.3 73.85 18.52 71.9 C18.52 71.9 20.4 72.8 18.15 72.8
							 C15.9 72.8 12.9 72.72 9.15 71.97 C5.4 71.22 4.57 71.9 0 69.87 L0 67.17 Z" class="st17"/>
			</g>
		</g>
	</g>
</svg>
