<?xml version="1.0" encoding="UTF-8" standalone="no"?>
<!DOCTYPE svg PUBLIC "-//W3C//DTD SVG 1.1//EN" "http://www.w3.org/Graphics/SVG/1.1/DTD/svg11.dtd">
<!-- 由 Microsoft Visio, SVG Export 生成 罐15.svg 页-1 -->
<svg xmlns="http://www.w3.org/2000/svg" xmlns:xlink="http://www.w3.org/1999/xlink" xmlns:ev="http://www.w3.org/2001/xml-events"
		xmlns:v="http://schemas.microsoft.com/visio/2003/SVGExtensions/" width="1.36115in" height="0.885625in"
		viewBox="0 0 98.0025 63.765" xml:space="preserve" color-interpolation-filters="sRGB" class="st26">
	<v:documentProperties v:langID="2052" v:metric="true" v:viewMarkup="false"/>

	<style type="text/css">
	<![CDATA[
		.st1 {fill:url(#grad0-5);stroke:none;stroke-linecap:butt;stroke-width:0.75}
		.st2 {fill:url(#grad0-15);stroke:none;stroke-linecap:butt;stroke-width:0.75}
		.st3 {fill:url(#grad0-20);stroke:#3a6890;stroke-linecap:butt;stroke-width:0.1875}
		.st4 {fill:url(#grad0-24);stroke:#3a6890;stroke-linecap:butt;stroke-width:0.1875}
		.st5 {fill:url(#grad0-50);stroke:none;stroke-linecap:butt;stroke-width:0.75}
		.st6 {fill:#33618a;stroke:none;stroke-linecap:butt;stroke-width:0.75}
		.st7 {fill:#7ca0c7;stroke:none;stroke-linecap:butt;stroke-width:0.75}
		.st8 {fill:#618cbd;stroke:none;stroke-linecap:butt;stroke-width:0.75}
		.st9 {fill:url(#grad0-63);stroke:none;stroke-linecap:butt;stroke-width:0.75}
		.st10 {fill:#5792c4;stroke:none;stroke-linecap:butt;stroke-width:0.75}
		.st11 {fill:#3f77a8;stroke:none;stroke-linecap:butt;stroke-width:0.75}
		.st12 {fill:url(#grad0-87);stroke:none;stroke-linecap:butt;stroke-width:0.75}
		.st13 {fill:url(#grad0-119);stroke:none;stroke-linecap:butt;stroke-width:0.75}
		.st14 {fill:url(#grad0-129);stroke:none;stroke-linecap:butt;stroke-width:0.75}
		.st15 {fill:url(#grad3-137);stroke:#5f89b9;stroke-linecap:butt;stroke-width:0.1875}
		.st16 {fill:#c6d5e8;stroke:#384e64;stroke-linecap:butt;stroke-width:0.75}
		.st17 {fill:#e35020;stroke:none;stroke-linecap:butt;stroke-width:0.752583}
		.st18 {fill:#4b6884;stroke:none;stroke-linecap:butt;stroke-width:0.75}
		.st19 {fill:none}
		.st20 {stroke:#000000;stroke-linecap:butt;stroke-width:0.75}
		.st21 {stroke:#000000;stroke-linecap:butt;stroke-width:0.753069}
		.st22 {fill:none;stroke:#3f77a8;stroke-linecap:butt;stroke-width:0.75}
		.st23 {fill:#ffffff;fill-opacity:0.38;stroke:none;stroke-linecap:butt;stroke-width:0.75}
		.st24 {fill:url(#grad0-166);stroke:none;stroke-linecap:butt;stroke-width:0.75}
		.st25 {fill:url(#grad0-170);stroke:none;stroke-linecap:butt;stroke-width:0.75}
		.st26 {fill:none;fill-rule:evenodd;font-size:12px;overflow:visible;stroke-linecap:square;stroke-miterlimit:3}
	]]>
	</style>

	<defs id="Patterns_And_Gradients">
		<linearGradient id="grad0-5" x1="0" y1="0" x2="1" y2="0" gradientTransform="rotate(-180 0.5 0.5)">
			<stop offset="0" stop-color="#618cbd" stop-opacity="1"/>
			<stop offset="0.03" stop-color="#97b2d6" stop-opacity="1"/>
			<stop offset="0.08" stop-color="#5f8aba" stop-opacity="1"/>
			<stop offset="0.64" stop-color="#5e87b7" stop-opacity="1"/>
			<stop offset="0.95" stop-color="#5b84b3" stop-opacity="1"/>
			<stop offset="1" stop-color="#426184" stop-opacity="1"/>
		</linearGradient>
		<linearGradient id="grad0-15" x1="0" y1="0" x2="1" y2="0" gradientTransform="rotate(90 0.5 0.5)">
			<stop offset="0" stop-color="#618cbd" stop-opacity="1"/>
			<stop offset="0.03" stop-color="#dfe5ef" stop-opacity="1"/>
			<stop offset="0.08" stop-color="#5f8aba" stop-opacity="1"/>
			<stop offset="0.64" stop-color="#5e87b7" stop-opacity="1"/>
			<stop offset="0.95" stop-color="#5b84b3" stop-opacity="1"/>
			<stop offset="1" stop-color="#426184" stop-opacity="1"/>
		</linearGradient>
		<linearGradient id="grad0-20" x1="0" y1="0" x2="1" y2="0" gradientTransform="rotate(-135 0.5 0.5)">
			<stop offset="0" stop-color="#446387" stop-opacity="1"/>
			<stop offset="0.15" stop-color="#7192bc" stop-opacity="1"/>
			<stop offset="0.25" stop-color="#bdc9db" stop-opacity="1"/>
			<stop offset="0.52" stop-color="#5175a0" stop-opacity="1"/>
			<stop offset="0.69" stop-color="#47688e" stop-opacity="1"/>
			<stop offset="0.8" stop-color="#436286" stop-opacity="1"/>
			<stop offset="0.92" stop-color="#3f5c7e" stop-opacity="1"/>
			<stop offset="1" stop-color="#496a91" stop-opacity="1"/>
		</linearGradient>
		<linearGradient id="grad0-24" x1="0" y1="0" x2="1" y2="0" gradientTransform="rotate(-135 0.5 0.5)">
			<stop offset="0" stop-color="#446387" stop-opacity="1"/>
			<stop offset="0.15" stop-color="#7192bc" stop-opacity="1"/>
			<stop offset="0.25" stop-color="#bdc9db" stop-opacity="1"/>
			<stop offset="0.52" stop-color="#5175a0" stop-opacity="1"/>
			<stop offset="0.69" stop-color="#47688e" stop-opacity="1"/>
			<stop offset="0.8" stop-color="#436286" stop-opacity="1"/>
			<stop offset="0.92" stop-color="#3f5c7e" stop-opacity="1"/>
			<stop offset="1" stop-color="#496a91" stop-opacity="1"/>
		</linearGradient>
		<linearGradient id="grad0-50" x1="0" y1="0" x2="1" y2="0" gradientTransform="rotate(90 0.5 0.5)">
			<stop offset="0" stop-color="#403e3e" stop-opacity="1"/>
			<stop offset="0.15" stop-color="#6d6c6c" stop-opacity="1"/>
			<stop offset="0.25" stop-color="#bcbcbc" stop-opacity="1"/>
			<stop offset="0.52" stop-color="#4d4b4b" stop-opacity="1"/>
			<stop offset="0.69" stop-color="#434242" stop-opacity="1"/>
			<stop offset="0.8" stop-color="#3f3e3e" stop-opacity="1"/>
			<stop offset="0.92" stop-color="#3b3a3a" stop-opacity="1"/>
			<stop offset="1" stop-color="#454444" stop-opacity="1"/>
		</linearGradient>
		<linearGradient id="grad0-63" x1="0" y1="0" x2="1" y2="0" gradientTransform="rotate(90 0.5 0.5)">
			<stop offset="0" stop-color="#3c72a2" stop-opacity="1"/>
			<stop offset="0.09" stop-color="#869fbe" stop-opacity="1"/>
			<stop offset="0.16" stop-color="#396d9a" stop-opacity="1"/>
			<stop offset="0.79" stop-color="#386b98" stop-opacity="1"/>
			<stop offset="1" stop-color="#4f7eab" stop-opacity="1"/>
		</linearGradient>
		<linearGradient id="grad0-87" x1="0" y1="0" x2="1" y2="0" gradientTransform="rotate(90 0.5 0.5)">
			<stop offset="0" stop-color="#618cbd" stop-opacity="1"/>
			<stop offset="0.03" stop-color="#97b2d6" stop-opacity="1"/>
			<stop offset="0.08" stop-color="#5f8aba" stop-opacity="1"/>
			<stop offset="0.64" stop-color="#5e87b7" stop-opacity="1"/>
			<stop offset="0.95" stop-color="#5b84b3" stop-opacity="1"/>
			<stop offset="1" stop-color="#426184" stop-opacity="1"/>
		</linearGradient>
		<linearGradient id="grad0-119" x1="0" y1="0" x2="1" y2="0" gradientTransform="rotate(90 0.5 0.5)">
			<stop offset="0" stop-color="#477fae" stop-opacity="1"/>
			<stop offset="0.03" stop-color="#8ba9ca" stop-opacity="1"/>
			<stop offset="0.08" stop-color="#467dab" stop-opacity="1"/>
			<stop offset="0.64" stop-color="#457ba8" stop-opacity="1"/>
			<stop offset="0.95" stop-color="#4378a4" stop-opacity="1"/>
			<stop offset="1" stop-color="#2f5779" stop-opacity="1"/>
		</linearGradient>
		<linearGradient id="grad0-129" x1="0" y1="0" x2="1" y2="0" gradientTransform="rotate(-180 0.5 0.5)">
			<stop offset="0" stop-color="#6187b3" stop-opacity="1"/>
			<stop offset="0.03" stop-color="#97afcf" stop-opacity="1"/>
			<stop offset="0.08" stop-color="#5f85b1" stop-opacity="1"/>
			<stop offset="0.64" stop-color="#5e83ae" stop-opacity="1"/>
			<stop offset="0.95" stop-color="#5b80aa" stop-opacity="1"/>
			<stop offset="1" stop-color="#425d7d" stop-opacity="1"/>
		</linearGradient>
		<radialGradient id="grad3-137" cx="0.5" cy="0.5" r="0.73">
			<stop offset="0" stop-color="#76a2c9" stop-opacity="1"/>
			<stop offset="0.91" stop-color="#76a2c9" stop-opacity="1"/>
		</radialGradient>
		<linearGradient id="grad0-166" x1="0" y1="0" x2="1" y2="0" gradientTransform="rotate(90 0.5 0.5)">
			<stop offset="0" stop-color="#2b2827" stop-opacity="1"/>
			<stop offset="0.15" stop-color="#5b5858" stop-opacity="1"/>
			<stop offset="0.25" stop-color="#b8b7b7" stop-opacity="1"/>
			<stop offset="0.52" stop-color="#353130" stop-opacity="1"/>
			<stop offset="0.69" stop-color="#2e2a29" stop-opacity="1"/>
			<stop offset="0.8" stop-color="#2b2726" stop-opacity="1"/>
			<stop offset="0.92" stop-color="#282424" stop-opacity="1"/>
			<stop offset="1" stop-color="#2f2b2b" stop-opacity="1"/>
		</linearGradient>
		<linearGradient id="grad0-170" x1="0" y1="0" x2="1" y2="0" gradientTransform="rotate(-180 0.5 0.5)">
			<stop offset="0" stop-color="#55799c" stop-opacity="1"/>
			<stop offset="0.15" stop-color="#83acd6" stop-opacity="1"/>
			<stop offset="0.25" stop-color="#c3d4e8" stop-opacity="1"/>
			<stop offset="0.52" stop-color="#6690b8" stop-opacity="1"/>
			<stop offset="0.69" stop-color="#5a80a4" stop-opacity="1"/>
			<stop offset="0.8" stop-color="#54789b" stop-opacity="1"/>
			<stop offset="0.92" stop-color="#4f7192" stop-opacity="1"/>
			<stop offset="1" stop-color="#5c83a8" stop-opacity="1"/>
		</linearGradient>
	</defs>
	<g v:mID="0" v:index="1" v:groupContext="foregroundPage">
		<title>页-1</title>
		<v:pageProperties v:drawingScale="0.0393701" v:pageScale="0.0393701" v:drawingUnits="24" v:shadowOffsetX="8.50394"
				v:shadowOffsetY="-8.50394"/>
		<g id="group5043-1" transform="translate(0.75,-0.75)" v:mID="5043" v:groupContext="group">
			<title>锅炉10</title>
			<g id="shape5044-2" v:mID="5044" v:groupContext="shape" transform="translate(78.4575,-1.26)">
				<title>shape1</title>
				<path d="M0 63.77 L0 62.72 L7.8 62.72 L7.8 63.77 L17.62 63.77 L17.62 57.77 L12.3 52.52 L0 52.52 L0 63.77 Z"
						class="st1"/>
			</g>
			<g id="shape5045-6" v:mID="5045" v:groupContext="shape" transform="translate(78.4575,-12.39)">
				<title>shape2</title>
				<path d="M0 63.77 L12.3 63.77 L15.75 48.99 L0 48.99 L0 63.77 Z" class="st1"/>
			</g>
			<g id="shape5046-9" v:mID="5046" v:groupContext="shape" transform="translate(77.58,-27.1125)">
				<title>shape3</title>
				<path d="M0.22 62.57 L17.02 62.57 C17.17 62.57 17.25 62.64 17.25 62.79 C17.25 63.62 17.17 63.77 17.02 63.77 L0.22
							 63.77 C0.07 63.77 0 63.62 0 63.47 C0 62.64 0.07 62.57 0.22 62.57 Z" class="st1"/>
			</g>
			<g id="shape5047-12" v:mID="5047" v:groupContext="shape" transform="translate(80.37,-3.4725)">
				<title>shape4</title>
				<path d="M0.23 59.27 L12.83 59.27 C12.98 59.27 13.05 59.34 13.05 59.49 L13.05 63.54 C13.05 63.69 12.98 63.77 12.83
							 63.77 L0.23 63.77 C0.08 63.77 0 63.69 0 63.54 L0 59.49 C0 59.34 0.08 59.27 0.23 59.27 Z" class="st2"/>
			</g>
			<g id="group5048-16" transform="translate(80.925,-3.8625)" v:mID="5048" v:groupContext="group">
				<title>工作表.5048</title>
				<g id="shape5049-17" v:mID="5049" v:groupContext="shape" transform="translate(11.0775,0)">
					<title>shape5</title>
					<path d="M0 63.32 C0 63.09 0.22 62.87 0.45 62.87 C0.67 62.87 0.9 63.09 0.9 63.32 C0.9 63.54 0.67 63.77 0.45 63.77
								 C0.22 63.77 0 63.54 0 63.32 Z" class="st3"/>
				</g>
				<g id="shape5050-21" v:mID="5050" v:groupContext="shape" transform="translate(7.3875,0)">
					<title>shape6</title>
					<path d="M0 63.32 C0 63.09 0.22 62.87 0.45 62.87 C0.67 62.87 0.9 63.09 0.9 63.32 C0.9 63.54 0.67 63.77 0.45 63.77
								 C0.22 63.77 0 63.54 0 63.32 Z" class="st4"/>
				</g>
				<g id="shape5051-25" v:mID="5051" v:groupContext="shape" transform="translate(3.69,0)">
					<title>shape7</title>
					<path d="M0 63.32 C0 63.09 0.22 62.87 0.45 62.87 C0.67 62.87 0.9 63.09 0.9 63.32 C0.9 63.54 0.67 63.77 0.45 63.77
								 C0.22 63.77 0 63.54 0 63.32 Z" class="st4"/>
				</g>
				<g id="shape5052-28" v:mID="5052" v:groupContext="shape">
					<title>shape8</title>
					<path d="M0 63.32 C0 63.09 0.22 62.87 0.45 62.87 C0.67 62.87 0.9 63.09 0.9 63.32 C0.9 63.54 0.67 63.77 0.45 63.77
								 C0.22 63.77 0 63.54 0 63.32 Z" class="st4"/>
				</g>
			</g>
			<g id="group5053-31" transform="translate(80.925,-6.42)" v:mID="5053" v:groupContext="group">
				<title>工作表.5053</title>
				<g id="shape5054-32" v:mID="5054" v:groupContext="shape" transform="translate(11.0775,0)">
					<title>shape9</title>
					<path d="M0 63.32 C0 63.09 0.22 62.87 0.45 62.87 C0.67 62.87 0.9 63.09 0.9 63.32 C0.9 63.54 0.67 63.77 0.45 63.77
								 C0.22 63.77 0 63.54 0 63.32 Z" class="st3"/>
				</g>
				<g id="shape5055-35" v:mID="5055" v:groupContext="shape" transform="translate(7.3875,0)">
					<title>shape10</title>
					<path d="M0 63.32 C0 63.09 0.22 62.87 0.45 62.87 C0.67 62.87 0.9 63.09 0.9 63.32 C0.9 63.54 0.67 63.77 0.45 63.77
								 C0.22 63.77 0 63.54 0 63.32 Z" class="st4"/>
				</g>
				<g id="shape5056-38" v:mID="5056" v:groupContext="shape" transform="translate(3.69,0)">
					<title>shape11</title>
					<path d="M0 63.32 C0 63.09 0.22 62.87 0.45 62.87 C0.67 62.87 0.9 63.09 0.9 63.32 C0.9 63.54 0.67 63.77 0.45 63.77
								 C0.22 63.77 0 63.54 0 63.32 Z" class="st4"/>
				</g>
				<g id="shape5057-41" v:mID="5057" v:groupContext="shape">
					<title>shape12</title>
					<path d="M0 63.32 C0 63.09 0.22 62.87 0.45 62.87 C0.67 62.87 0.9 63.09 0.9 63.32 C0.9 63.54 0.67 63.77 0.45 63.77
								 C0.22 63.77 0 63.54 0 63.32 Z" class="st4"/>
				</g>
			</g>
			<g id="shape5058-44" v:mID="5058" v:groupContext="shape" transform="translate(85.8525,-0.195)">
				<title>shape16</title>
				<path d="M0.23 62.72 L10.43 62.72 C10.58 62.72 10.65 62.79 10.65 62.94 C10.65 63.62 10.58 63.77 10.43 63.77 L0.23
							 63.77 C0.08 63.77 0 63.62 0 63.47 C0 62.79 0.08 62.72 0.23 62.72 Z" class="st1"/>
			</g>
			<g id="shape5059-47" v:mID="5059" v:groupContext="shape" transform="translate(72.2925,-22.9575)">
				<title>shape17</title>
				<path d="M0 62.72 L9 62.72 L9 63.77 L0 63.77 L0 62.72 Z" class="st5"/>
			</g>
			<g id="shape5060-51" v:mID="5060" v:groupContext="shape" transform="translate(67.7475,-42.0675)">
				<title>shape18</title>
				<path d="M0 51.92 L11.62 51.92 L11.62 63.77 L0 63.77 L0 51.92 Z" class="st1"/>
			</g>
			<g id="shape5061-54" v:mID="5061" v:groupContext="shape" transform="translate(67.7475,-42.0975)">
				<title>shape19</title>
				<path d="M0 56.49 L10.35 56.49 L10.35 63.77 L0 63.77 L0 56.49 Z" class="st6"/>
			</g>
			<g id="shape5062-56" v:mID="5062" v:groupContext="shape" transform="translate(67.7475,-45.27)">
				<title>shape20</title>
				<path d="M0 59.94 L10.05 59.94 L10.05 63.77 L0 63.77 L0 59.94 Z" class="st7"/>
			</g>
			<g id="shape5063-58" v:mID="5063" v:groupContext="shape" transform="translate(67.7475,-35.0175)">
				<title>shape21</title>
				<path d="M0 53.27 L10.05 53.27 L10.05 63.77 L0 63.77 L0 53.27 Z" class="st8"/>
			</g>
			<g id="shape5064-60" v:mID="5064" v:groupContext="shape" transform="translate(68.0475,-35.3025)">
				<title>shape23</title>
				<path d="M0.9 62.72 L0 62.72 L0 63.77 L0.9 63.77 L0.9 62.72 Z" class="st9"/>
			</g>
			<g id="shape5065-64" v:mID="5065" v:groupContext="shape" transform="translate(68.0475,-44.175)">
				<title>shape24</title>
				<path d="M0.9 62.72 L0 62.72 L0 63.77 L0.9 63.77 L0.9 62.72 Z" class="st9"/>
			</g>
			<g id="shape5066-67" v:mID="5066" v:groupContext="shape" transform="translate(68.0475,-39.6675)">
				<title>shape25</title>
				<path d="M0.9 62.72 L0 62.72 L0 63.77 L0.9 63.77 L0.9 62.72 Z" class="st9"/>
			</g>
			<g id="shape5067-70" v:mID="5067" v:groupContext="shape" transform="translate(76.515,-44.175)">
				<title>shape26</title>
				<path d="M0.9 62.72 L0 62.72 L0 63.77 L0.9 63.77 L0.9 62.72 Z" class="st9"/>
			</g>
			<g id="shape5068-73" v:mID="5068" v:groupContext="shape" transform="translate(76.515,-39.6675)">
				<title>shape27</title>
				<path d="M0.9 62.72 L0 62.72 L0 63.77 L0.9 63.77 L0.9 62.72 Z" class="st9"/>
			</g>
			<g id="shape5069-76" v:mID="5069" v:groupContext="shape" transform="translate(76.515,-35.3025)">
				<title>shape28</title>
				<path d="M0.9 62.72 L0 62.72 L0 63.77 L0.9 63.77 L0.9 62.72 Z" class="st9"/>
			</g>
			<g id="shape5070-79" v:mID="5070" v:groupContext="shape" transform="translate(3.35731E-13,-4.9575)">
				<title>shape29</title>
				<path d="M0 21.54 L67.72 21.54 L67.72 63.77 L0 63.77 L0 21.54 Z" class="st10"/>
			</g>
			<g id="shape5071-81" v:mID="5071" v:groupContext="shape" transform="translate(1.665,-6.0375)">
				<title>shape30</title>
				<path d="M0 23.41 L64.5 23.41 L64.5 63.77 L0 63.77 L0 23.41 Z" class="st11"/>
			</g>
			<g id="group5072-83" transform="translate(2.7375,-26.82)" v:mID="5072" v:groupContext="group">
				<title>工作表.5072</title>
				<g id="shape5073-84" v:mID="5073" v:groupContext="shape">
					<title>shape31</title>
					<path d="M0 45.02 L14.85 45.02 L14.85 63.77 L0 63.77 L0 45.02 Z" class="st12"/>
				</g>
				<g id="shape5074-88" v:mID="5074" v:groupContext="shape" transform="translate(15.8625,-7.10543E-15)">
					<title>shape32</title>
					<path d="M0 45.02 L14.85 45.02 L14.85 63.77 L0 63.77 L0 45.02 Z" class="st12"/>
				</g>
				<g id="shape5075-91" v:mID="5075" v:groupContext="shape" transform="translate(31.7325,-7.10543E-15)">
					<title>shape33</title>
					<path d="M0 45.02 L14.85 45.02 L14.85 63.77 L0 63.77 L0 45.02 Z" class="st12"/>
				</g>
				<g id="shape5076-94" v:mID="5076" v:groupContext="shape" transform="translate(47.595,-7.10543E-15)">
					<title>shape34</title>
					<path d="M0 45.02 L14.85 45.02 L14.85 63.77 L0 63.77 L0 45.02 Z" class="st12"/>
				</g>
			</g>
			<g id="group5077-97" transform="translate(2.7375,-7.02)" v:mID="5077" v:groupContext="group">
				<title>工作表.5077</title>
				<g id="shape5078-98" v:mID="5078" v:groupContext="shape">
					<title>shape35</title>
					<path d="M0 45.02 L14.85 45.02 L14.85 63.77 L0 63.77 L0 45.02 Z" class="st12"/>
				</g>
				<g id="shape5079-101" v:mID="5079" v:groupContext="shape" transform="translate(15.8625,-7.10543E-15)">
					<title>shape36</title>
					<path d="M0 45.02 L14.85 45.02 L14.85 63.77 L0 63.77 L0 45.02 Z" class="st12"/>
				</g>
				<g id="shape5080-104" v:mID="5080" v:groupContext="shape" transform="translate(31.7325,-7.10543E-15)">
					<title>shape37</title>
					<path d="M0 45.02 L14.85 45.02 L14.85 63.77 L0 63.77 L0 45.02 Z" class="st12"/>
				</g>
				<g id="shape5081-107" v:mID="5081" v:groupContext="shape" transform="translate(47.595,-7.10543E-15)">
					<title>shape38</title>
					<path d="M0 45.02 L14.85 45.02 L14.85 63.77 L0 63.77 L0 45.02 Z" class="st12"/>
				</g>
			</g>
			<g id="shape5082-110" v:mID="5082" v:groupContext="shape" transform="translate(3.35731E-13,-47.1975)">
				<title>shape39</title>
				<path d="M0 53.72 L67.72 53.72 L67.72 63.77 L0 63.77 L0 53.72 Z" class="st12"/>
			</g>
			<g id="shape5083-113" v:mID="5083" v:groupContext="shape" transform="translate(67.7475,-1.13687E-13)">
				<title>shape40</title>
				<path d="M0 36.92 L10.72 42.47 L10.72 63.77 L0 63.77 L0 36.92 Z" class="st1"/>
			</g>
			<g id="shape5084-116" v:mID="5084" v:groupContext="shape" transform="translate(3.35731E-13,-4.0725)">
				<title>shape41</title>
				<path d="M0 62.64 L67.72 62.64 L67.72 63.77 L0 63.77 L0 62.64 Z" class="st13"/>
			</g>
			<g id="shape5085-120" v:mID="5085" v:groupContext="shape" transform="translate(3.35731E-13,-0.015)">
				<title>shape42</title>
				<path d="M0 59.64 L67.72 59.64 L67.72 63.77 L0 63.77 L0 59.64 Z" class="st12"/>
			</g>
			<g id="shape5086-123" v:mID="5086" v:groupContext="shape" transform="translate(67.7475,-8.6175)">
				<title>shape43</title>
				<path d="M0 54.24 L2.25 54.24 L2.25 63.77 L0 63.77 L0 54.24 Z" class="st5"/>
			</g>
			<g id="shape5087-126" v:mID="5087" v:groupContext="shape" transform="translate(66.9225,-4.9575)">
				<title>shape49</title>
				<path d="M0 21.54 L0.83 21.54 L0.83 63.77 L0 63.77 L0 21.54 Z" class="st14"/>
			</g>
			<g id="shape5088-130" v:mID="5088" v:groupContext="shape" transform="translate(-3.93435E-15,-4.9575)">
				<title>shape50</title>
				<path d="M0 21.54 L0.83 21.54 L0.83 63.77 L0 63.77 L0 21.54 Z" class="st14"/>
			</g>
			<g id="group5089-133" transform="translate(51.765,-47.955)" v:mID="5089" v:groupContext="group">
				<title>工作表.5089</title>
				<g id="shape5090-134" v:mID="5090" v:groupContext="shape">
					<title>shape51</title>
					<path d="M0 59.49 C0 57.17 1.95 55.22 4.28 55.22 C6.68 55.22 8.63 57.17 8.63 59.49 C8.63 61.89 6.68 63.77 4.28
								 63.77 C1.95 63.77 0 61.89 0 59.49 Z" class="st15"/>
				</g>
				<g id="shape5091-138" v:mID="5091" v:groupContext="shape" transform="translate(0.78,-0.7275)">
					<title>shape52</title>
					<path d="M0 60.24 C0 58.29 1.58 56.72 3.53 56.72 C5.48 56.72 7.05 58.29 7.05 60.24 C7.05 62.19 5.48 63.77 3.53
								 63.77 C1.58 63.77 0 62.19 0 60.24 Z" class="st16"/>
				</g>
				<g id="shape5092-140" v:mID="5092" v:groupContext="shape" transform="translate(-25.6981,112.269) rotate(-150.113)">
					<title>shape53</title>
					<path d="M0.6 58.8 C0.6 58.8 0.6 63.77 0.3 63.77 C0.08 63.77 0 58.8 0.6 58.8 Z" class="st17"/>
				</g>
				<g id="shape5093-142" v:mID="5093" v:groupContext="shape" transform="translate(3.735,-3.6975)">
					<title>shape54</title>
					<path d="M0 63.17 C0 62.87 0.23 62.64 0.6 62.64 C0.9 62.64 1.13 62.87 1.13 63.17 C1.13 63.54 0.9 63.77 0.6 63.77
								 C0.23 63.77 0 63.54 0 63.17 Z" class="st18"/>
				</g>
				<g id="shape5094-144" v:mID="5094" v:groupContext="shape" transform="translate(4.2075,-6.4575)">
					<title>shape55</title>
					<path d="M0 63.02 L0 63.77 L0 63.02 Z" class="st19"/>
					<path d="M0 63.02 L0 63.77" class="st20"/>
				</g>
				<g id="shape5095-147" v:mID="5095" v:groupContext="shape" transform="translate(-61.44,59.415) rotate(-90)">
					<title>shape56</title>
					<path d="M0 63.02 L0 63.77 L0 63.02 Z" class="st19"/>
					<path d="M0 63.02 L0 63.77" class="st20"/>
				</g>
				<g id="shape5096-150" v:mID="5096" v:groupContext="shape" transform="translate(-56.565,59.415) rotate(-90)">
					<title>shape57</title>
					<path d="M0 63.02 L0 63.77 L0 63.02 Z" class="st19"/>
					<path d="M0 63.02 L0 63.77" class="st20"/>
				</g>
				<g id="shape5097-153" v:mID="5097" v:groupContext="shape" transform="translate(-42.2312,12.9088) rotate(-45)">
					<title>shape58</title>
					<path d="M0 63.01 L0 63.77 L0 63.01 Z" class="st19"/>
					<path d="M0 63.01 L0 63.77" class="st21"/>
				</g>
				<g id="shape5098-156" v:mID="5098" v:groupContext="shape" transform="translate(50.8562,12.9088) rotate(45)">
					<title>shape59</title>
					<path d="M0 63.01 L0 63.77 L0 63.01 Z" class="st19"/>
					<path d="M0 63.01 L0 63.77" class="st21"/>
				</g>
				<g id="shape5099-159" v:mID="5099" v:groupContext="shape" transform="translate(2.7075,-1.53)">
					<title>shape60</title>
					<path d="M0.3 63.09 L3 63.09 C3.15 63.09 3.3 63.24 3.3 63.39 C3.3 63.62 3.15 63.77 3 63.77 L0.3 63.77 C0.15 63.77
								 0 63.62 0 63.47 C0 63.24 0.15 63.09 0.3 63.09 Z" class="st22"/>
				</g>
				<g id="shape5100-161" v:mID="5100" v:groupContext="shape" transform="translate(2.37,-0.7275)">
					<title>shape61</title>
					<path d="M2.55 60.32 C2.55 58.37 0 56.72 1.95 56.72 C3.9 56.72 5.48 58.29 5.48 60.24 C5.48 62.19 3.9 63.77 1.95
								 63.77 C0 63.77 2.55 62.19 2.55 60.32 Z" class="st23"/>
				</g>
			</g>
			<g id="shape5101-163" v:mID="5101" v:groupContext="shape" transform="translate(80.9175,-21.3)">
				<title>shape62</title>
				<path d="M0 59.42 L1.42 59.42 L1.42 63.77 L0 63.77 L0 59.42 Z" class="st24"/>
			</g>
			<g id="shape5102-167" v:mID="5102" v:groupContext="shape" transform="translate(8.88,-57.2325)">
				<title>shape67</title>
				<path d="M0 63.77 L7.57 63.77 L7.57 60.17 L0 60.17 L0 63.77 Z" class="st25"/>
			</g>
			<g id="shape5103-171" v:mID="5103" v:groupContext="shape" transform="translate(7.14,-60.69)">
				<title>shape68</title>
				<path d="M0.38 62.19 L10.65 62.19 C10.88 62.19 11.03 62.34 11.03 62.57 L11.03 63.39 C11.03 63.54 10.88 63.77 10.65
							 63.77 L0.38 63.77 C0.15 63.77 0 63.54 0 63.39 L0 62.57 C0 62.34 0.15 62.19 0.38 62.19 Z" class="st25"/>
			</g>
			<g id="shape5104-174" v:mID="5104" v:groupContext="shape" transform="translate(25.575,-57.2775)">
				<title>shape69</title>
				<path d="M0 63.77 L7.57 63.77 L7.57 61.97 L0 61.97 L0 63.77 Z" class="st25"/>
			</g>
			<g id="shape5105-177" v:mID="5105" v:groupContext="shape" transform="translate(23.835,-59.0175)">
				<title>shape70</title>
				<path d="M0.38 62.19 L10.65 62.19 C10.88 62.19 11.03 62.34 11.03 62.57 L11.03 63.39 C11.03 63.54 10.88 63.77 10.65
							 63.77 L0.38 63.77 C0.15 63.77 0 63.54 0 63.39 L0 62.57 C0 62.34 0.15 62.19 0.38 62.19 Z" class="st25"/>
			</g>
		</g>
	</g>
</svg>
