<?xml version="1.0" encoding="UTF-8" standalone="no"?>
<!DOCTYPE svg PUBLIC "-//W3C//DTD SVG 1.1//EN" "http://www.w3.org/Graphics/SVG/1.1/DTD/svg11.dtd">
<!-- 由 Microsoft Visio, SVG Export 生成 罐33.svg 页-1 -->
<svg xmlns="http://www.w3.org/2000/svg" xmlns:xlink="http://www.w3.org/1999/xlink" xmlns:ev="http://www.w3.org/2001/xml-events"
		xmlns:v="http://schemas.microsoft.com/visio/2003/SVGExtensions/" width="0.5625in" height="1.72573in"
		viewBox="0 0 40.5 124.252" xml:space="preserve" color-interpolation-filters="sRGB" class="st8">
	<v:documentProperties v:langID="2052" v:metric="true" v:viewMarkup="false"/>

	<style type="text/css">
	<![CDATA[
		.st1 {fill:url(#grad0-5);stroke:none;stroke-linecap:butt;stroke-width:0.75}
		.st2 {fill:url(#grad0-12);stroke:none;stroke-linecap:butt;stroke-width:0.75}
		.st3 {fill:url(#grad0-16);stroke:none;stroke-linecap:butt;stroke-width:0.75}
		.st4 {fill:url(#grad0-36);stroke:none;stroke-linecap:butt;stroke-width:0.75}
		.st5 {fill:url(#grad0-40);stroke:none;stroke-linecap:butt;stroke-width:0.75}
		.st6 {fill:#640109;stroke:none;stroke-linecap:butt;stroke-width:0.75}
		.st7 {fill:url(#grad0-46);stroke:none;stroke-linecap:butt;stroke-width:0.75}
		.st8 {fill:none;fill-rule:evenodd;font-size:12px;overflow:visible;stroke-linecap:square;stroke-miterlimit:3}
	]]>
	</style>

	<defs id="Patterns_And_Gradients">
		<linearGradient id="grad0-5" x1="0" y1="0" x2="1" y2="0" gradientTransform="rotate(-180 0.5 0.5)">
			<stop offset="0" stop-color="#75a0b1" stop-opacity="1"/>
			<stop offset="0.15" stop-color="#a8dbf0" stop-opacity="1"/>
			<stop offset="0.25" stop-color="#d2ebf6" stop-opacity="1"/>
			<stop offset="0.52" stop-color="#8bbdd1" stop-opacity="1"/>
			<stop offset="0.69" stop-color="#7ca8ba" stop-opacity="1"/>
			<stop offset="0.8" stop-color="#749eb0" stop-opacity="1"/>
			<stop offset="0.92" stop-color="#6e95a6" stop-opacity="1"/>
			<stop offset="1" stop-color="#7facbe" stop-opacity="1"/>
		</linearGradient>
		<linearGradient id="grad0-12" x1="0" y1="0" x2="1" y2="0" gradientTransform="rotate(-180 0.5 0.5)">
			<stop offset="0" stop-color="#5d96ad" stop-opacity="1"/>
			<stop offset="0.15" stop-color="#8ccfea" stop-opacity="1"/>
			<stop offset="0.25" stop-color="#c7e4f3" stop-opacity="1"/>
			<stop offset="0.52" stop-color="#6fb1cc" stop-opacity="1"/>
			<stop offset="0.69" stop-color="#629eb5" stop-opacity="1"/>
			<stop offset="0.8" stop-color="#5c95ab" stop-opacity="1"/>
			<stop offset="0.92" stop-color="#578ca1" stop-opacity="1"/>
			<stop offset="1" stop-color="#65a1ba" stop-opacity="1"/>
		</linearGradient>
		<linearGradient id="grad0-16" x1="0" y1="0" x2="1" y2="0" gradientTransform="rotate(-180 0.5 0.5)">
			<stop offset="0" stop-color="#7098a9" stop-opacity="1"/>
			<stop offset="0.01" stop-color="#b8e1f2" stop-opacity="1"/>
			<stop offset="0.05" stop-color="#93c7dc" stop-opacity="1"/>
			<stop offset="0.9" stop-color="#91c4d9" stop-opacity="1"/>
			<stop offset="0.95" stop-color="#8dbfd4" stop-opacity="1"/>
			<stop offset="1" stop-color="#688d9d" stop-opacity="1"/>
		</linearGradient>
		<linearGradient id="grad0-36" x1="0" y1="0" x2="1" y2="0" gradientTransform="rotate(90 0.5 0.5)">
			<stop offset="0" stop-color="#75a0b1" stop-opacity="1"/>
			<stop offset="0.15" stop-color="#a8dbf0" stop-opacity="1"/>
			<stop offset="0.25" stop-color="#d2ebf6" stop-opacity="1"/>
			<stop offset="0.52" stop-color="#8bbdd1" stop-opacity="1"/>
			<stop offset="0.69" stop-color="#7ca8ba" stop-opacity="1"/>
			<stop offset="0.8" stop-color="#749eb0" stop-opacity="1"/>
			<stop offset="0.92" stop-color="#6e95a6" stop-opacity="1"/>
			<stop offset="1" stop-color="#7facbe" stop-opacity="1"/>
		</linearGradient>
		<linearGradient id="grad0-40" x1="0" y1="0" x2="1" y2="0" gradientTransform="rotate(90 0.5 0.5)">
			<stop offset="0" stop-color="#5290aa" stop-opacity="1"/>
			<stop offset="0.15" stop-color="#80c7e7" stop-opacity="1"/>
			<stop offset="0.25" stop-color="#c2e1f1" stop-opacity="1"/>
			<stop offset="0.52" stop-color="#62aac8" stop-opacity="1"/>
			<stop offset="0.69" stop-color="#5697b2" stop-opacity="1"/>
			<stop offset="0.8" stop-color="#518fa8" stop-opacity="1"/>
			<stop offset="0.92" stop-color="#4c869f" stop-opacity="1"/>
			<stop offset="1" stop-color="#599bb6" stop-opacity="1"/>
		</linearGradient>
		<linearGradient id="grad0-46" x1="0" y1="0" x2="1" y2="0" gradientTransform="rotate(-90 0.5 0.5)">
			<stop offset="0" stop-color="#ea707b" stop-opacity="1"/>
			<stop offset="0.52" stop-color="#cb4857" stop-opacity="1"/>
			<stop offset="0.69" stop-color="#b5404c" stop-opacity="1"/>
			<stop offset="0.8" stop-color="#aa3b47" stop-opacity="1"/>
			<stop offset="0.92" stop-color="#a13843" stop-opacity="1"/>
			<stop offset="1" stop-color="#b9414e" stop-opacity="1"/>
		</linearGradient>
	</defs>
	<g v:mID="0" v:index="1" v:groupContext="foregroundPage">
		<title>页-1</title>
		<v:pageProperties v:drawingScale="0.0393701" v:pageScale="0.0393701" v:drawingUnits="24" v:shadowOffsetX="8.50394"
				v:shadowOffsetY="-8.50394"/>
		<g id="group5598-1" transform="translate(0.75,-0.75)" v:mID="5598" v:groupContext="group">
			<title>加热炉</title>
			<g id="shape5599-2" v:mID="5599" v:groupContext="shape" transform="translate(8.0475,-21.03)">
				<title>shape1</title>
				<path d="M0 31.63 L26.4 31.63 L26.4 124.25 L0 124.25 L0 31.63 Z" class="st1"/>
			</g>
			<g id="shape5600-6" v:mID="5600" v:groupContext="shape" transform="translate(8.0475,-114.502)">
				<title>shape2</title>
				<path d="M0 124.25 C0 119.68 5.85 116 13.12 116 C20.4 116 26.32 119.68 26.32 124.25 C26.32 124.25 0 124.25 0 124.25
							 Z" class="st1"/>
			</g>
			<g id="shape5601-9" v:mID="5601" v:groupContext="shape" transform="translate(7.6275,-113.677)">
				<title>shape3</title>
				<path d="M0.3 122.9 L26.92 122.9 C27.15 122.9 27.22 123.05 27.22 123.2 C27.22 124.1 27.15 124.25 26.92 124.25 L0.3
							 124.25 C0.15 124.25 0 124.1 0 123.95 C0 123.05 0.15 122.9 0.3 122.9 Z" class="st2"/>
			</g>
			<g id="shape5602-13" v:mID="5602" v:groupContext="shape" transform="translate(-2.94764E-14,-23.5725)">
				<title>shape4</title>
				<path d="M0 116 L8.17 116 L8.17 124.25 L0 124.25 L0 116 Z" class="st3"/>
			</g>
			<g id="shape5603-17" v:mID="5603" v:groupContext="shape" transform="translate(8.0475,-9.585)">
				<title>shape5</title>
				<path d="M0 113.75 L26.4 113.75 L14.7 124.25 L11.7 124.25 L0 113.75 Z" class="st1"/>
			</g>
			<g id="shape5604-20" v:mID="5604" v:groupContext="shape" transform="translate(10.125,0)">
				<title>shape6</title>
				<path d="M0 124.25 L22.27 124.25 L22.27 122.08 L0 122.08 L0 124.25 Z" class="st3"/>
			</g>
			<g id="shape5605-23" v:mID="5605" v:groupContext="shape" transform="translate(8.0475,0)">
				<title>shape7</title>
				<path d="M0 104 L2.32 104 L2.32 124.25 L0 124.25 L0 104 Z" class="st3"/>
			</g>
			<g id="shape5606-26" v:mID="5606" v:groupContext="shape" transform="translate(32.145,0)">
				<title>shape8</title>
				<path d="M0 104 L2.32 104 L2.32 124.25 L0 124.25 L0 104 Z" class="st3"/>
			</g>
			<g id="shape5607-29" v:mID="5607" v:groupContext="shape" transform="translate(7.6275,-20.1)">
				<title>shape9</title>
				<path d="M0.3 122.9 L26.92 122.9 C27.15 122.9 27.22 123.05 27.22 123.2 C27.22 124.1 27.15 124.25 26.92 124.25 L0.3
							 124.25 C0.15 124.25 0 124.1 0 123.95 C0 123.05 0.15 122.9 0.3 122.9 Z" class="st2"/>
			</g>
			<g id="group5608-32" transform="translate(34.32,-106.245)" v:mID="5608" v:groupContext="group">
				<title>工作表.5608</title>
				<g id="shape5609-33" v:mID="5609" v:groupContext="shape" transform="translate(4.35,-0.3) scale(-1,1)">
					<title>shape10</title>
					<path d="M0 120.35 L4.35 120.35 L4.35 124.25 L0 124.25 L0 120.35 Z" class="st4"/>
				</g>
				<g id="shape5610-37" v:mID="5610" v:groupContext="shape" transform="translate(4.68,1.42109E-14) scale(-1,1)">
					<title>shape11</title>
					<path d="M0.3 119.75 C0.75 119.75 0.9 119.9 0.9 120.05 L0.9 123.95 C0.9 124.1 0.75 124.25 0.52 124.25 C0.15 124.25
								 0 124.1 0 123.95 L0 120.05 C0 119.9 0.15 119.75 0.3 119.75 Z" class="st5"/>
				</g>
			</g>
			<g id="shape5611-41" v:mID="5611" v:groupContext="shape" transform="translate(12.75,-26.175)">
				<title>shape12</title>
				<path d="M5.25 89.9 C5.25 89.9 8.33 91.63 10.65 90.28 C13.65 88.55 16.65 91.85 14.85 94.78 C13.05 97.7 14.17 99.13
							 14.85 100.63 C15.45 102.05 16.12 102.28 13.8 106.55 C13.8 106.55 13.27 108.65 14.47 109.48 C15.6 110.3
							 15.9 113.38 13.8 114.5 C13.8 114.5 13.05 116.15 14.47 117.28 C15.9 118.33 16.05 122.75 12 123.13 C12
							 123.13 10.57 123.13 9.75 122.38 C9.75 122.38 8.62 121.25 7.2 122.38 C7.2 122.38 4.88 124.25 2.47 122
							 C0.07 119.75 3.3 116.75 3.3 116.75 C3.3 116.75 4.35 115.7 3.3 114.73 C2.17 113.68 0.3 111.2 2.85 108.35
							 C2.85 108.35 4.42 106.93 2.85 104.83 C1.35 102.8 1.72 100.63 2.85 98.53 C2.85 98.53 4.05 97.33 2.85
							 95.98 C1.72 94.63 0 90.95 5.25 89.9 Z" class="st6"/>
			</g>
			<g id="shape5612-43" v:mID="5612" v:groupContext="shape" transform="translate(13.5375,-26.73)">
				<title>shape13</title>
				<path d="M4.72 91.03 C4.72 91.03 7.57 92.68 9.67 91.4 C12.37 89.68 15.15 92.9 13.5 95.75 C11.85 98.53 12.9 99.95
							 13.5 101.38 C14.1 102.8 14.62 103.03 12.52 107.15 C12.52 107.15 12.07 109.1 13.12 109.93 C14.17 110.75
							 14.4 113.75 12.52 114.8 C12.52 114.8 11.85 116.45 13.12 117.5 C14.4 118.55 14.62 122.83 10.87 123.13
							 C10.87 123.13 9.6 123.13 8.85 122.45 C8.85 122.45 7.8 121.33 6.52 122.45 C6.52 122.45 4.42 124.25 2.25
							 122.08 C0.07 119.9 3 116.98 3 116.98 C3 116.98 3.97 116 3 115.03 C1.95 113.98 0.22 111.58 2.62 108.88
							 C2.62 108.88 4.05 107.45 2.62 105.5 C1.2 103.48 1.57 101.38 2.62 99.35 C2.62 99.35 3.67 98.23 2.62 96.88
							 C1.57 95.6 0 92 4.72 91.03 Z" class="st7"/>
			</g>
		</g>
	</g>
</svg>
