<?xml version="1.0" encoding="UTF-8" standalone="no"?>
<!DOCTYPE svg PUBLIC "-//W3C//DTD SVG 1.1//EN" "http://www.w3.org/Graphics/SVG/1.1/DTD/svg11.dtd">
<!-- 由 Microsoft Visio, SVG Export 生成 罐8.svg 页-1 -->
<svg xmlns="http://www.w3.org/2000/svg" xmlns:xlink="http://www.w3.org/1999/xlink" xmlns:ev="http://www.w3.org/2001/xml-events"
		xmlns:v="http://schemas.microsoft.com/visio/2003/SVGExtensions/" width="1.71094in" height="1.00385in"
		viewBox="0 0 123.188 72.2775" xml:space="preserve" color-interpolation-filters="sRGB" class="st13">
	<v:documentProperties v:langID="2052" v:metric="true" v:viewMarkup="false"/>

	<style type="text/css">
	<![CDATA[
		.st1 {fill:url(#grad0-6);stroke:none;stroke-linecap:butt;stroke-width:0.75}
		.st2 {fill:url(#grad3-10);stroke:#d4d6db;stroke-linecap:butt;stroke-width:0.1875}
		.st3 {fill:url(#grad0-14);stroke:none;stroke-linecap:butt;stroke-width:0.75}
		.st4 {fill:url(#grad0-18);stroke:none;stroke-linecap:butt;stroke-width:0.75}
		.st5 {fill:url(#grad0-22);stroke:none;stroke-linecap:butt;stroke-width:0.75}
		.st6 {fill:url(#grad0-44);stroke:none;stroke-linecap:butt;stroke-width:0.75}
		.st7 {fill:url(#grad0-57);stroke:none;stroke-linecap:butt;stroke-width:0.75}
		.st8 {fill:url(#grad0-61);stroke:none;stroke-linecap:butt;stroke-width:0.75}
		.st9 {fill:url(#grad0-65);stroke:none;stroke-linecap:butt;stroke-width:0.75}
		.st10 {fill:url(#grad0-69);stroke:none;stroke-linecap:butt;stroke-width:0.75}
		.st11 {fill:url(#grad0-73);stroke:none;stroke-linecap:butt;stroke-width:0.75}
		.st12 {fill:url(#grad0-77);stroke:none;stroke-linecap:butt;stroke-width:0.75}
		.st13 {fill:none;fill-rule:evenodd;font-size:12px;overflow:visible;stroke-linecap:square;stroke-miterlimit:3}
	]]>
	</style>

	<defs id="Patterns_And_Gradients">
		<linearGradient id="grad0-6" x1="0" y1="0" x2="1" y2="0" gradientTransform="rotate(-180 0.5 0.5)">
			<stop offset="0" stop-color="#a6a6a5" stop-opacity="1"/>
			<stop offset="0.15" stop-color="#e2e2e1" stop-opacity="1"/>
			<stop offset="0.25" stop-color="#efefee" stop-opacity="1"/>
			<stop offset="0.52" stop-color="#c4c4c3" stop-opacity="1"/>
			<stop offset="0.69" stop-color="#aeaeae" stop-opacity="1"/>
			<stop offset="0.8" stop-color="#a4a4a4" stop-opacity="1"/>
			<stop offset="0.92" stop-color="#9b9b9a" stop-opacity="1"/>
			<stop offset="1" stop-color="#b2b2b2" stop-opacity="1"/>
		</linearGradient>
		<radialGradient id="grad3-10" cx="0.5" cy="0.5" r="0.73">
			<stop offset="0" stop-color="#cdcdcc" stop-opacity="1"/>
			<stop offset="0.91" stop-color="#cdcdcc" stop-opacity="1"/>
		</radialGradient>
		<linearGradient id="grad0-14" x1="0" y1="0" x2="1" y2="0" gradientTransform="rotate(-180 0.5 0.5)">
			<stop offset="0.16" stop-color="#a0a0a0" stop-opacity="1"/>
			<stop offset="0.64" stop-color="#9d9d9d" stop-opacity="1"/>
			<stop offset="0.92" stop-color="#9a9a9a" stop-opacity="1"/>
		</linearGradient>
		<linearGradient id="grad0-18" x1="0" y1="0" x2="1" y2="0" gradientTransform="rotate(-49.958450919485 0.5 0.5)">
			<stop offset="0" stop-color="#d8d8d8" stop-opacity="1"/>
			<stop offset="0.18" stop-color="#e9e9e9" stop-opacity="1"/>
			<stop offset="0.72" stop-color="#bababa" stop-opacity="1"/>
			<stop offset="1" stop-color="#a6a6a6" stop-opacity="1"/>
		</linearGradient>
		<linearGradient id="grad0-22" x1="0" y1="0" x2="1" y2="0" gradientTransform="rotate(90 0.5 0.5)">
			<stop offset="0" stop-color="#a6a6a5" stop-opacity="1"/>
			<stop offset="0.15" stop-color="#e2e2e1" stop-opacity="1"/>
			<stop offset="0.25" stop-color="#efefee" stop-opacity="1"/>
			<stop offset="0.52" stop-color="#c4c4c3" stop-opacity="1"/>
			<stop offset="0.69" stop-color="#aeaeae" stop-opacity="1"/>
			<stop offset="0.8" stop-color="#a4a4a4" stop-opacity="1"/>
			<stop offset="0.92" stop-color="#9b9b9a" stop-opacity="1"/>
			<stop offset="1" stop-color="#b2b2b2" stop-opacity="1"/>
		</linearGradient>
		<linearGradient id="grad0-44" x1="0" y1="0" x2="1" y2="0" gradientTransform="rotate(-180 0.5 0.5)">
			<stop offset="0" stop-color="#aeaead" stop-opacity="1"/>
			<stop offset="0.03" stop-color="#f8f8f7" stop-opacity="1"/>
			<stop offset="0.08" stop-color="#e3e3e2" stop-opacity="1"/>
			<stop offset="0.64" stop-color="#dfdfde" stop-opacity="1"/>
			<stop offset="0.95" stop-color="#dadad9" stop-opacity="1"/>
			<stop offset="1" stop-color="#a2a2a1" stop-opacity="1"/>
		</linearGradient>
		<linearGradient id="grad0-57" x1="0" y1="0" x2="1" y2="0" gradientTransform="rotate(-180 0.5 0.5)">
			<stop offset="0" stop-color="#a6a6a5" stop-opacity="1"/>
			<stop offset="0.15" stop-color="#e2e2e1" stop-opacity="1"/>
			<stop offset="0.25" stop-color="#efefee" stop-opacity="1"/>
			<stop offset="0.52" stop-color="#c4c4c3" stop-opacity="1"/>
			<stop offset="0.69" stop-color="#aeaeae" stop-opacity="1"/>
			<stop offset="0.8" stop-color="#a4a4a4" stop-opacity="1"/>
			<stop offset="1" stop-color="#b2b2b2" stop-opacity="1"/>
		</linearGradient>
		<linearGradient id="grad0-61" x1="0" y1="0" x2="1" y2="0" gradientTransform="rotate(-180 0.5 0.5)">
			<stop offset="0" stop-color="#a8a8a7" stop-opacity="1"/>
			<stop offset="0.03" stop-color="#f1f1f0" stop-opacity="1"/>
			<stop offset="0.08" stop-color="#dadad9" stop-opacity="1"/>
			<stop offset="0.64" stop-color="#d7d7d6" stop-opacity="1"/>
			<stop offset="0.95" stop-color="#d2d2d1" stop-opacity="1"/>
			<stop offset="1" stop-color="#9c9c9b" stop-opacity="1"/>
		</linearGradient>
		<linearGradient id="grad0-65" x1="0" y1="0" x2="1" y2="0" gradientTransform="rotate(90 0.5 0.5)">
			<stop offset="0" stop-color="#5f5f5f" stop-opacity="1"/>
			<stop offset="0.07" stop-color="#a9a9aa" stop-opacity="1"/>
			<stop offset="0.08" stop-color="#7d7d7e" stop-opacity="1"/>
			<stop offset="0.64" stop-color="#7b7b7c" stop-opacity="1"/>
			<stop offset="0.85" stop-color="#787879" stop-opacity="1"/>
			<stop offset="1" stop-color="#575758" stop-opacity="1"/>
		</linearGradient>
		<linearGradient id="grad0-69" x1="0" y1="0" x2="1" y2="0" gradientTransform="rotate(90 0.5 0.5)">
			<stop offset="0.07" stop-color="#c6c7c7" stop-opacity="1"/>
			<stop offset="0.08" stop-color="#a6a6a6" stop-opacity="1"/>
			<stop offset="0.64" stop-color="#a3a4a4" stop-opacity="1"/>
			<stop offset="0.85" stop-color="#9fa0a0" stop-opacity="1"/>
		</linearGradient>
		<linearGradient id="grad0-73" x1="0" y1="0" x2="1" y2="0" gradientTransform="rotate(90 0.5 0.5)">
			<stop offset="0" stop-color="#898988" stop-opacity="1"/>
			<stop offset="0.03" stop-color="#d1d1d0" stop-opacity="1"/>
			<stop offset="0.08" stop-color="#b3b3b2" stop-opacity="1"/>
			<stop offset="0.64" stop-color="#b0b0b0" stop-opacity="1"/>
			<stop offset="0.95" stop-color="#acacac" stop-opacity="1"/>
			<stop offset="1" stop-color="#7f7f7e" stop-opacity="1"/>
		</linearGradient>
		<linearGradient id="grad0-77" x1="0" y1="0" x2="1" y2="0" gradientTransform="rotate(90 0.5 0.5)">
			<stop offset="0" stop-color="#aeaead" stop-opacity="1"/>
			<stop offset="0.03" stop-color="#f8f8f7" stop-opacity="1"/>
			<stop offset="0.08" stop-color="#e3e3e2" stop-opacity="1"/>
			<stop offset="0.64" stop-color="#dfdfde" stop-opacity="1"/>
			<stop offset="0.95" stop-color="#dadad9" stop-opacity="1"/>
			<stop offset="1" stop-color="#a2a2a1" stop-opacity="1"/>
		</linearGradient>
	</defs>
	<g v:mID="0" v:index="1" v:groupContext="foregroundPage">
		<title>页-1</title>
		<v:pageProperties v:drawingScale="0.0393701" v:pageScale="0.0393701" v:drawingUnits="24" v:shadowOffsetX="8.50394"
				v:shadowOffsetY="-8.50394"/>
		<g id="group4948-1" transform="translate(0.1875,-0.75)" v:mID="4948" v:groupContext="group">
			<title>锅炉9</title>
			<g id="group4949-2" transform="translate(3.59712E-14,-18.2475)" v:mID="4949" v:groupContext="group">
				<title>工作表.4949</title>
				<g id="shape4950-3" v:mID="4950" v:groupContext="shape"
						transform="translate(79.2525,64.1775) rotate(90) scale(-1,1)">
					<title>shape1</title>
					<path d="M0 62.98 L5.93 62.98 L5.93 72.28 L0 72.28 L0 62.98 Z" class="st1"/>
				</g>
				<g id="shape4951-7" v:mID="4951" v:groupContext="shape"
						transform="translate(72.2775,72.2775) rotate(90) scale(-1,1)">
					<title>shape2</title>
					<path d="M0 65.3 C0 61.48 3.15 58.33 7.05 58.33 C10.95 58.33 14.03 61.48 14.03 65.3 C14.03 69.2 10.95 72.28 7.05
								 72.28 C3.15 72.28 0 69.2 0 65.3 Z" class="st2"/>
				</g>
				<g id="shape4952-11" v:mID="4952" v:groupContext="shape" transform="translate(11.775,132.705) rotate(180)">
					<title>shape3</title>
					<path d="M0 67.4 C0 64.78 2.18 62.6 4.8 62.6 C7.43 62.6 9.6 64.78 9.6 67.4 C9.6 70.1 7.43 72.28 4.8 72.28 C2.18
								 72.28 0 70.1 0 67.4 Z" class="st3"/>
				</g>
				<g id="shape4953-15" v:mID="4953" v:groupContext="shape" transform="translate(11.475,133.08) rotate(180)">
					<title>shape4</title>
					<path d="M0 67.78 C0 65.3 2.03 63.28 4.5 63.28 C6.98 63.28 8.93 65.3 8.93 67.78 C8.93 70.25 6.98 72.28 4.5 72.28
								 C2.03 72.28 0 70.25 0 67.78 Z" class="st4"/>
				</g>
			</g>
			<g id="shape4954-19" v:mID="4954" v:groupContext="shape" transform="translate(19.575,-10.2975)">
				<title>shape5</title>
				<path d="M0 21.35 L99.82 21.35 L99.82 72.28 L0 72.28 L0 21.35 Z" class="st5"/>
			</g>
			<g id="shape4955-23" v:mID="4955" v:groupContext="shape" transform="translate(17.1525,-9.54)">
				<title>shape6</title>
				<path d="M1.2 19.85 C1.95 19.85 2.47 20.38 2.47 20.98 L2.47 71.08 C2.47 71.75 1.95 72.28 1.35 72.28 C0.52 72.28 0
							 71.75 0 71.08 L0 20.98 C0 20.38 0.52 19.85 1.2 19.85 Z" class="st5"/>
			</g>
			<g id="shape4956-26" v:mID="4956" v:groupContext="shape" transform="translate(119.393,-9.54)">
				<title>shape7</title>
				<path d="M1.2 19.85 C1.95 19.85 2.47 20.38 2.47 20.98 L2.47 71.08 C2.47 71.75 1.95 72.28 1.35 72.28 C0.52 72.28 0
							 71.75 0 71.08 L0 20.98 C0 20.38 0.52 19.85 1.2 19.85 Z" class="st5"/>
			</g>
			<g id="shape4957-29" v:mID="4957" v:groupContext="shape" transform="translate(33.795,-61.2)">
				<title>shape8</title>
				<path d="M0 65.83 L8.4 65.83 L8.4 72.28 L0 72.28 L0 65.83 Z" class="st1"/>
			</g>
			<g id="shape4958-32" v:mID="4958" v:groupContext="shape" transform="translate(50.6025,-61.1925)">
				<title>shape9</title>
				<path d="M0 67.03 L18.53 67.03 L18.53 72.28 L0 72.28 L0 67.03 Z" class="st1"/>
			</g>
			<g id="shape4959-35" v:mID="4959" v:groupContext="shape" transform="translate(73.365,-61.2075)">
				<title>shape10</title>
				<path d="M0 63.95 L8.4 63.95 L8.4 72.28 L0 72.28 L0 63.95 Z" class="st1"/>
			</g>
			<g id="shape4960-38" v:mID="4960" v:groupContext="shape" transform="translate(85.3725,-61.2075)">
				<title>shape11</title>
				<path d="M0 63.95 L8.4 63.95 L8.4 72.28 L0 72.28 L0 63.95 Z" class="st1"/>
			</g>
			<g id="shape4961-41" v:mID="4961" v:groupContext="shape" transform="translate(99.435,-61.1925)">
				<title>shape12</title>
				<path d="M0 67.03 L16.65 67.03 L16.65 72.28 L0 72.28 L0 67.03 Z" class="st6"/>
			</g>
			<g id="shape4962-45" v:mID="4962" v:groupContext="shape" transform="translate(49.59,-66.375)">
				<title>shape14</title>
				<path d="M0.52 70.93 L20.02 70.93 C20.32 70.93 20.55 71.15 20.55 71.45 C20.55 72.05 20.32 72.28 20.02 72.28 L0.52
							 72.28 C0.22 72.28 0 72.05 0 71.75 C0 71.15 0.22 70.93 0.52 70.93 Z" class="st1"/>
			</g>
			<g id="shape4963-48" v:mID="4963" v:groupContext="shape" transform="translate(32.715,-67.62)">
				<title>shape16</title>
				<path d="M0.68 70.93 L9.9 70.93 C10.2 70.93 10.58 71.23 10.58 71.6 C10.58 71.98 10.2 72.28 9.9 72.28 L0.68 72.28
							 C0.3 72.28 0 71.98 0 71.6 C0 71.23 0.3 70.93 0.68 70.93 Z" class="st1"/>
			</g>
			<g id="shape4964-51" v:mID="4964" v:groupContext="shape" transform="translate(84.2925,-69.4275)">
				<title>shape19</title>
				<path d="M0.68 70.93 L9.9 70.93 C10.2 70.93 10.58 71.23 10.58 71.6 C10.58 71.98 10.2 72.28 9.9 72.28 L0.68 72.28
							 C0.3 72.28 0 71.98 0 71.6 C0 71.23 0.3 70.93 0.68 70.93 Z" class="st1"/>
			</g>
			<g id="shape4965-54" v:mID="4965" v:groupContext="shape" transform="translate(72.2925,-69.4275)">
				<title>shape20</title>
				<path d="M0.68 70.93 L9.9 70.93 C10.2 70.93 10.58 71.23 10.58 71.6 C10.58 71.98 10.2 72.28 9.9 72.28 L0.68 72.28
							 C0.3 72.28 0 71.98 0 71.6 C0 71.23 0.3 70.93 0.68 70.93 Z" class="st7"/>
			</g>
			<g id="shape4966-58" v:mID="4966" v:groupContext="shape" transform="translate(98.085,-66.2025)">
				<title>shape22</title>
				<path d="M0.9 70.48 L18.45 70.48 C18.9 70.48 19.35 70.85 19.35 71.38 C19.35 71.83 18.9 72.28 18.45 72.28 L0.9 72.28
							 C0.38 72.28 0 71.83 0 71.38 C0 70.85 0.38 70.48 0.9 70.48 Z" class="st8"/>
			</g>
			<g id="shape4967-62" v:mID="4967" v:groupContext="shape" transform="translate(16.725,2.84217E-14)">
				<title>shape23</title>
				<path d="M5.18 61.1 L100.35 61.1 L105.53 72.28 L0 72.28 L5.18 61.1 Z" class="st9"/>
			</g>
			<g id="shape4968-66" v:mID="4968" v:groupContext="shape" transform="translate(21.8625,-11.19)">
				<title>shape24</title>
				<path d="M0 72.28 L95.25 72.28 L95.25 68.38 L0 68.38 L0 72.28 Z" class="st10"/>
			</g>
			<g id="shape4969-70" v:mID="4969" v:groupContext="shape" transform="translate(15.675,-16.1925)">
				<title>shape25</title>
				<path d="M1.5 33.88 L0 33.88 L0 72.28 L1.5 72.28 L1.5 33.88 Z" class="st11"/>
			</g>
			<g id="shape4970-74" v:mID="4970" v:groupContext="shape" transform="translate(9.0375,-39.2025)">
				<title>shape26</title>
				<path d="M6.6 60.43 L0 60.43 L0 72.28 L6.6 72.28 L6.6 60.43 Z" class="st12"/>
			</g>
			<g id="shape4971-78" v:mID="4971" v:groupContext="shape" transform="translate(9.0375,-39.2025)">
				<title>shape27</title>
				<path d="M0.53 60.43 L0 72.28 L0.53 60.43 Z" class="st11"/>
			</g>
			<g id="shape4972-81" v:mID="4972" v:groupContext="shape" transform="translate(8.1075,-38.73)">
				<title>shape28</title>
				<path d="M0.45 59.45 C0.75 59.45 0.9 59.68 0.9 59.9 L0.9 71.83 C0.9 72.05 0.75 72.28 0.45 72.28 C0.23 72.28 0 72.05
							 0 71.83 L0 59.9 C0 59.68 0.23 59.45 0.45 59.45 Z" class="st12"/>
			</g>
		</g>
	</g>
</svg>
