<?xml version="1.0" encoding="UTF-8" standalone="no"?>
<!DOCTYPE svg PUBLIC "-//W3C//DTD SVG 1.1//EN" "http://www.w3.org/Graphics/SVG/1.1/DTD/svg11.dtd">
<!-- 由 Microsoft Visio, SVG Export 生成 罐17.svg 页-1 -->
<svg xmlns="http://www.w3.org/2000/svg" xmlns:xlink="http://www.w3.org/1999/xlink" xmlns:ev="http://www.w3.org/2001/xml-events"
		xmlns:v="http://schemas.microsoft.com/visio/2003/SVGExtensions/" width="1.73438in" height="1.90813in"
		viewBox="0 0 124.875 137.385" xml:space="preserve" color-interpolation-filters="sRGB" class="st9">
	<v:documentProperties v:langID="2052" v:metric="true" v:viewMarkup="false"/>

	<style type="text/css">
	<![CDATA[
		.st1 {fill:url(#grad0-5);stroke:none;stroke-linecap:butt;stroke-width:0.75}
		.st2 {fill:url(#grad0-9);stroke:none;stroke-linecap:butt;stroke-width:0.75}
		.st3 {fill:url(#grad0-16);stroke:none;stroke-linecap:butt;stroke-width:0.75}
		.st4 {fill:url(#grad0-29);stroke:none;stroke-linecap:butt;stroke-width:0.75}
		.st5 {fill:#fe5c1c;stroke:none;stroke-linecap:butt;stroke-width:0.75}
		.st6 {fill:#fd991f;stroke:none;stroke-linecap:butt;stroke-width:0.75}
		.st7 {fill:#fcd732;stroke:none;stroke-linecap:butt;stroke-width:0.75}
		.st8 {fill:#fcffa4;stroke:none;stroke-linecap:butt;stroke-width:0.75}
		.st9 {fill:none;fill-rule:evenodd;font-size:12px;overflow:visible;stroke-linecap:square;stroke-miterlimit:3}
	]]>
	</style>

	<defs id="Patterns_And_Gradients">
		<linearGradient id="grad0-5" x1="0" y1="0" x2="1" y2="0" gradientTransform="rotate(-180 0.5 0.5)">
			<stop offset="0" stop-color="#b8b8b8" stop-opacity="1"/>
			<stop offset="0.15" stop-color="#f8f8f8" stop-opacity="1"/>
			<stop offset="0.25" stop-color="#fbfbfb" stop-opacity="1"/>
			<stop offset="0.52" stop-color="#d9d9d9" stop-opacity="1"/>
			<stop offset="0.69" stop-color="#c1c1c1" stop-opacity="1"/>
			<stop offset="0.8" stop-color="#b6b6b6" stop-opacity="1"/>
			<stop offset="0.92" stop-color="#acacac" stop-opacity="1"/>
			<stop offset="1" stop-color="#c6c6c6" stop-opacity="1"/>
		</linearGradient>
		<linearGradient id="grad0-9" x1="0" y1="0" x2="1" y2="0" gradientTransform="rotate(107.37266498681 0.5 0.5)">
			<stop offset="0" stop-color="#999999" stop-opacity="1"/>
			<stop offset="0.29" stop-color="#f8f8f8" stop-opacity="1"/>
		</linearGradient>
		<linearGradient id="grad0-16" x1="0" y1="0" x2="1" y2="0" gradientTransform="rotate(-180 0.5 0.5)">
			<stop offset="0" stop-color="#979797" stop-opacity="1"/>
			<stop offset="0.15" stop-color="#d0d0d0" stop-opacity="1"/>
			<stop offset="0.25" stop-color="#e5e5e5" stop-opacity="1"/>
			<stop offset="0.52" stop-color="#b3b3b3" stop-opacity="1"/>
			<stop offset="0.69" stop-color="#9f9f9f" stop-opacity="1"/>
			<stop offset="0.8" stop-color="#969696" stop-opacity="1"/>
			<stop offset="0.92" stop-color="#8e8e8e" stop-opacity="1"/>
			<stop offset="1" stop-color="#a3a3a3" stop-opacity="1"/>
		</linearGradient>
		<linearGradient id="grad0-29" x1="0" y1="0" x2="1" y2="0" gradientTransform="rotate(0 0.5 0.5)">
			<stop offset="0" stop-color="#787878" stop-opacity="1"/>
			<stop offset="0.24" stop-color="#ababab" stop-opacity="1"/>
			<stop offset="0.57" stop-color="#8f8f8f" stop-opacity="1"/>
			<stop offset="0.74" stop-color="#7f7f7f" stop-opacity="1"/>
			<stop offset="0.86" stop-color="#777777" stop-opacity="1"/>
		</linearGradient>
	</defs>
	<g v:mID="0" v:index="1" v:groupContext="foregroundPage">
		<title>页-1</title>
		<v:pageProperties v:drawingScale="0.0393701" v:pageScale="0.0393701" v:drawingUnits="24" v:shadowOffsetX="8.50394"
				v:shadowOffsetY="-8.50394"/>
		<g id="group5253-1" transform="translate(0.75,-0.75)" v:mID="5253" v:groupContext="group">
			<title>锅炉16</title>
			<g id="shape5254-2" v:mID="5254" v:groupContext="shape" transform="translate(24.195,-97.185)">
				<title>shape1</title>
				<path d="M0 101.69 L75 101.69 L75 137.39 L0 137.39 L0 101.69 Z" class="st1"/>
			</g>
			<g id="shape5255-6" v:mID="5255" v:groupContext="shape" transform="translate(1.695,-75.2925)">
				<title>shape2</title>
				<path d="M22.5 115.49 L97.5 115.49 L120 137.39 L0 137.39 L22.5 115.49 Z" class="st2"/>
			</g>
			<g id="shape5256-10" v:mID="5256" v:groupContext="shape" transform="translate(1.695,-3.9525)">
				<title>shape3</title>
				<path d="M0 66.21 L120 66.21 L120 137.39 L0 137.39 L0 66.21 Z" class="st1"/>
			</g>
			<g id="shape5257-13" v:mID="5257" v:groupContext="shape" transform="translate(24.195,-131.468)">
				<title>shape4</title>
				<path d="M0 135.89 L75 135.89 L75 137.39 L0 137.39 L0 135.89 Z" class="st3"/>
			</g>
			<g id="shape5258-17" v:mID="5258" v:groupContext="shape" transform="translate(23.055,-132.885)">
				<title>shape5</title>
				<path d="M0.98 134.39 L76.28 134.39 C76.8 134.39 77.25 134.84 77.25 135.36 L77.25 136.41 C77.25 136.94 76.8 137.39
							 76.28 137.39 L0.98 137.39 C0.45 137.39 0 136.94 0 136.41 L0 135.36 C0 134.84 0.45 134.39 0.98 134.39
							 Z" class="st1"/>
			</g>
			<g id="shape5259-20" v:mID="5259" v:groupContext="shape" transform="translate(1.695,-3.9825)">
				<title>shape6</title>
				<path d="M0 134.76 L120 134.76 L120 137.39 L0 137.39 L0 134.76 Z" class="st3"/>
			</g>
			<g id="shape5260-23" v:mID="5260" v:groupContext="shape">
				<title>shape7</title>
				<path d="M0.98 133.41 L122.4 133.41 C122.93 133.41 123.38 133.86 123.38 134.39 L123.38 136.49 C123.38 137.01 122.93
							 137.39 122.4 137.39 L0.97 137.39 C0.45 137.39 0 137.01 0 136.49 L0 134.39 C0 133.86 0.45 133.41 0.98
							 133.41 Z" class="st1"/>
			</g>
			<g id="shape5261-26" v:mID="5261" v:groupContext="shape" transform="translate(8.7375,-13.8225)">
				<title>shape8</title>
				<path d="M0 81.36 L105.9 81.36 L105.9 137.39 L0 137.39 L0 81.36 Z" class="st4"/>
			</g>
			<g id="shape5262-30" v:mID="5262" v:groupContext="shape" transform="translate(8.88,-13.995)">
				<title>shape9</title>
				<path d="M0 137.39 C0 137.39 0 134.69 2.4 134.54 C2.4 134.54 1.87 135.36 1.87 135.74 C1.87 136.11 4.05 132.51 4.05
							 132.51 C4.05 132.51 2.55 134.99 4.5 135.81 C4.5 135.81 8.55 137.16 8.1 130.79 C7.57 124.49 8.62 123.29
							 8.62 123.29 C8.62 123.29 8.02 131.99 12.15 130.79 C12.15 130.79 14.55 130.34 14.02 122.54 C14.02 122.54
							 13.95 118.79 12.15 120.36 C12.15 120.36 11.32 117.36 13.05 117.74 C13.05 117.74 15.6 118.19 15.3 124.34
							 C15.3 124.34 15.52 126.74 16.2 123.74 C16.2 123.74 18.07 131.31 21.67 130.34 C21.67 130.34 23.02 130.26
							 23.47 125.39 C23.47 125.39 24.82 127.49 24.07 131.09 C24.07 131.09 25.95 130.64 26.25 130.86 C26.25
							 130.86 25.57 135.14 27.67 135.74 C29.92 136.41 33.45 135.14 34.05 132.21 C34.65 129.36 34.12 123.89
							 32.25 119.99 C32.25 119.99 35.4 126.44 37.12 127.26 C37.12 127.26 37.95 122.99 34.72 116.16 C34.72 116.16
							 37.72 121.04 35.85 116.46 C35.85 116.46 38.32 117.14 38.92 119.54 C39.45 121.94 40.35 122.76 40.35 122.76
							 C40.35 122.76 40.57 120.51 41.17 120.66 C41.17 120.66 41.1 126.14 43.35 128.69 C43.35 128.69 44.32 130.64
							 45.45 122.39 C45.45 122.39 45.3 119.09 44.17 116.16 C43.05 113.24 44.4 113.31 44.17 109.49 C44.17 109.49
							 44.32 108.66 45.3 109.79 C45.3 109.79 44.85 105.89 47.47 103.34 C47.47 103.34 46.27 104.76 46.5 107.24
							 C46.72 109.79 45.37 113.69 45.37 113.69 C45.37 113.69 44.32 119.61 48.22 120.29 C48.22 120.29 50.55
							 119.99 51.52 111.44 C51.52 111.44 52.05 106.56 52.12 105.66 C52.12 105.66 51.9 105.74 51.6 106.64 C51.3
							 107.54 50.77 105.74 51.3 104.24 C51.6 102.81 53.02 101.46 50.17 101.91 C50.17 101.91 51.37 101.16 50.47
							 99.21 C49.5 97.26 45.15 92.01 51.15 88.71 C51.15 88.71 52.27 88.04 50.55 90.06 C48.75 92.09 49.8 93.96
							 49.8 93.96 C49.8 93.96 50.47 92.61 51.6 92.46 C51.6 92.46 47.4 94.79 53.02 98.99 C53.02 98.99 52.8 96.66
							 55.12 97.04 C55.12 97.04 52.2 99.51 54.82 102.74 C54.82 102.74 56.1 103.04 55.05 107.16 C55.05 107.16
							 54.37 110.16 55.12 111.59 L55.87 110.69 C55.87 110.69 57.52 113.01 57.52 116.31 C57.52 119.54 57.67
							 121.41 59.47 119.39 C59.47 119.39 61.57 116.99 60.22 111.96 C60.22 111.96 59.1 108.89 59.55 106.04 C59.55
							 106.04 59.32 104.46 58.5 103.56 C58.5 103.56 61.12 105.44 60.67 109.86 C60.67 109.86 61.65 108.81 61.95
							 109.49 C61.95 109.49 61.2 110.69 61.95 112.49 C62.55 114.36 61.12 118.86 60.82 120.51 C60.6 122.24 60.3
							 126.81 62.55 128.84 C62.55 128.84 64.65 126.44 64.8 120.59 C64.8 120.59 65.92 120.66 65.7 122.76 C65.7
							 122.76 66.82 121.71 67.35 119.24 C67.87 116.84 70.12 116.31 70.12 116.31 C70.12 116.31 68.55 119.24
							 70.12 118.19 C70.12 118.19 70.87 117.66 71.7 115.94 C71.7 115.94 67.8 122.76 69 127.34 C69 127.34 69.15
							 128.84 73.72 119.91 C73.72 119.91 70.8 125.76 72.15 132.44 C72.15 132.44 73.35 135.96 76.95 135.81 C80.62
							 135.74 79.8 130.86 79.8 130.86 C79.8 130.86 81.67 130.56 81.97 131.16 C82.35 131.69 80.7 128.99 82.8
							 125.46 C82.8 125.46 82.42 132.51 86.7 129.66 C86.7 129.66 88.57 128.24 89.85 123.21 C89.85 123.21 89.7
							 125.61 90.52 125.01 C90.52 125.01 90.82 124.79 90.82 122.99 C90.82 121.11 91.27 117.59 93.82 117.96
							 C93.82 117.81 94.87 119.76 93.75 120.36 C93.75 120.36 93 118.19 92.17 120.89 C92.17 120.89 90.75 129.59
							 94.35 130.86 C94.35 130.86 97.65 131.91 97.5 123.59 C97.5 123.59 98.32 125.01 97.87 130.94 C97.87 130.94
							 97.5 136.49 101.1 136.11 C101.1 136.11 102.97 135.89 102.52 133.34 C102.52 133.34 103.27 135.36 103.87
							 135.51 C104.47 135.74 103.57 134.61 103.57 134.61 C103.57 134.61 105.15 134.09 105.6 136.26 C105.6 136.26
							 105.6 137.16 105.45 137.39 L0 137.39 Z" class="st5"/>
			</g>
			<g id="shape5263-32" v:mID="5263" v:groupContext="shape" transform="translate(42.945,-14.0175)">
				<title>shape10</title>
				<path d="M1.95 137.39 C1.95 137.39 0.22 135.51 0.15 133.49 C0 131.46 2.02 128.01 2.02 128.01 C2.02 128.01 1.57 134.24
							 5.02 132.96 C5.02 132.96 7.5 131.76 5.02 128.69 C5.02 128.69 4.2 127.79 3.3 127.79 C3.3 127.79 4.72
							 125.61 7.72 127.79 C7.72 127.79 9.9 129.74 10.05 130.04 C10.05 130.04 10.8 122.24 15.15 121.19 C15.15
							 121.19 13.35 124.04 13.57 125.01 C13.87 125.99 15.9 125.01 16.05 122.84 C16.2 120.59 15.82 119.31 15.82
							 119.31 C15.82 119.31 16.5 120.14 16.5 120.44 C16.5 120.74 18 121.49 18.37 112.04 C18.37 112.04 19.12
							 113.31 19.12 114.29 C19.12 114.29 19.72 108.89 19.12 106.34 C19.12 106.34 22.42 115.71 18.75 122.39
							 C18.75 122.39 20.25 120.74 21 121.64 C21 121.64 18.82 123.59 20.62 128.84 C20.62 128.84 21.3 124.26
							 21.75 123.74 C22.27 123.29 22.27 125.76 24.07 124.49 C24.07 124.49 24.67 123.59 22.57 121.19 C22.57
							 121.19 26.32 122.16 27.67 129.96 C27.67 129.96 30.67 125.99 34.35 127.64 C34.35 127.64 30.82 129.29
							 32.47 132.44 C32.47 132.44 34.2 134.39 35.4 131.24 C35.4 131.24 35.7 129.66 35.7 128.31 C35.7 128.31
							 38.02 131.61 37.12 134.69 C37.12 134.69 36.07 137.16 35.55 137.31 L1.95 137.39 Z" class="st6"/>
			</g>
			<g id="shape5264-34" v:mID="5264" v:groupContext="shape" transform="translate(44.3775,-14.0625)">
				<title>shape11</title>
				<path d="M2.4 137.39 C2.4 137.39 2.62 136.41 1.27 134.91 C0 133.41 0.45 131.76 0.45 131.76 C0.45 131.76 1.05 133.71
							 2.62 133.71 C4.2 133.71 4.72 134.46 4.72 134.46 C4.72 134.46 5.1 132.74 5.55 132.29 C6.07 131.76 5.55
							 134.99 7.27 135.06 C7.27 135.06 7.42 134.91 6.75 133.86 C6.07 132.89 7.27 131.76 7.27 131.76 C7.27 131.76
							 11.7 132.36 10.42 125.69 C10.42 125.69 12.3 126.96 13.2 126.81 C14.17 126.74 15.37 128.39 15.37 129.89
							 C15.37 129.89 17.55 129.29 16.87 125.01 C16.87 125.01 16.95 122.61 18.9 122.99 C18.9 122.99 17.1 125.39
							 18.52 129.06 L19.27 130.04 C19.27 130.04 19.27 127.41 21.75 126.89 C24.22 126.36 24.45 125.31 24.45
							 125.31 C24.45 125.31 23.25 128.84 24.15 130.26 C24.97 131.76 26.85 132.06 27.52 131.99 C28.27 131.84
							 28.2 133.49 28.05 134.09 C27.82 134.61 27.67 136.19 28.72 134.69 C29.7 133.11 28.95 131.46 29.7 133.86
							 C29.7 133.86 30 135.06 30.37 133.86 C30.37 133.86 31.12 132.74 32.77 133.71 C32.77 133.71 33.9 134.24
							 34.12 132.81 C34.12 132.81 34.8 134.09 32.92 135.59 C32.92 135.59 32.32 136.41 32.47 137.39 L2.4 137.39
							 Z" class="st7"/>
			</g>
			<g id="shape5265-36" v:mID="5265" v:groupContext="shape" transform="translate(51.5325,-14.04)">
				<title>shape12</title>
				<path d="M1.5 137.31 C1.5 137.31 1.43 135.74 0.75 135.74 C0 135.74 1.2 135.21 1.87 135.89 C2.55 136.56 1.87 135.14
							 1.58 134.54 C1.35 133.94 1.5 132.66 2.47 132.66 C3.52 132.66 4.5 132.81 3.98 127.71 C3.98 127.71 5.03
							 128.91 5.85 128.91 C6.6 128.91 7.43 130.79 7.28 131.31 C7.13 131.76 9.08 131.09 9.38 128.76 C9.68 126.44
							 10.28 124.19 11.1 123.44 C11.92 122.76 10.42 123.89 10.42 127.11 C10.42 130.34 11.63 131.91 13.13 131.16
							 C13.13 131.16 13.35 129.14 14.55 128.69 C15.82 128.31 16.5 127.94 16.5 127.71 C16.5 127.49 14.78 132.81
							 18.53 132.81 C18.53 132.81 19.35 134.01 18.38 135.74 C17.48 137.39 19.05 134.99 19.8 135.44 C19.8 135.44
							 19.35 135.51 18.9 136.26 C18.53 136.94 18.67 137.39 18.67 137.39 L1.5 137.31 Z" class="st8"/>
			</g>
			<g id="shape5266-38" v:mID="5266" v:groupContext="shape" transform="translate(70.8225,-13.98)">
				<title>shape13</title>
				<path d="M5.33 137.31 C5.33 137.31 4.28 134.99 5.93 134.01 C5.93 134.01 4.35 132.96 3.98 136.04 C3.98 136.04 3.23
							 136.94 2.7 132.66 C2.7 132.66 3 136.04 2.33 136.41 C1.65 136.79 1.28 135.81 1.95 135.06 C1.95 135.06
							 0.75 134.39 1.35 136.49 C1.35 136.49 1.35 135.21 0 137.39 L5.33 137.31 Z" class="st8"/>
			</g>
			<g id="shape5267-40" v:mID="5267" v:groupContext="shape" transform="translate(46.7025,-13.8225)">
				<title>shape14</title>
				<path d="M0.75 137.16 C0.75 137.16 1.8 134.16 0 134.09 C0 134.09 2.25 132.29 1.95 135.59 C1.95 135.59 2.7 135.96
							 3.38 133.11 C3.38 133.11 3.75 134.24 3.15 135.66 C2.55 137.09 4.05 136.71 4.2 135.06 C4.2 135.06 4.73
							 135.51 4.43 136.56 C4.43 136.56 6 135.96 5.55 137.39 L0.75 137.16 Z" class="st8"/>
			</g>
			<g id="shape5268-42" v:mID="5268" v:groupContext="shape" transform="translate(17.8425,-14.01)">
				<title>shape15</title>
				<path d="M1.13 137.39 C1.13 137.39 0 134.91 0.38 131.46 C0.38 131.46 2.03 134.01 3.68 132.74 C5.33 131.46 5.7 128.24
							 5.33 123.74 C5.33 123.74 6.53 126.74 7.28 127.26 C8.03 127.79 11.33 130.41 11.25 134.69 C11.25 134.69
							 12.6 134.69 12.6 131.24 C12.6 131.24 13.95 132.44 13.95 134.54 C13.95 134.54 14.63 132.14 16.73 132.59
							 C16.73 132.59 15.6 136.86 16.43 137.31 L1.13 137.39 Z" class="st6"/>
			</g>
			<g id="shape5269-44" v:mID="5269" v:groupContext="shape" transform="translate(21.4275,-14.01)">
				<title>shape16</title>
				<path d="M0.38 137.39 C0.38 137.39 0 136.34 0.9 135.96 C1.88 135.59 1.05 133.11 0.45 132.66 C0.45 132.66 1.43 132.21
							 2.25 133.56 C2.25 133.56 2.18 131.46 3.3 130.41 C3.3 130.41 4.05 129.74 2.7 127.19 C2.7 127.19 2.1 125.91
							 2.18 125.24 C2.18 125.24 3.38 128.09 4.65 128.46 C4.65 128.46 6.75 130.04 6.75 132.74 C6.75 132.74 6.83
							 136.94 8.25 134.91 C8.25 134.91 8.4 136.19 9 135.06 C9.6 134.01 9.53 132.96 9.53 132.96 C9.53 132.96
							 10.2 134.69 9.53 135.74 C9.53 135.74 10.35 135.89 10.73 134.84 C11.1 133.79 12.83 133.26 12.83 133.26
							 C12.83 133.26 10.95 135.06 11.03 135.74 C11.1 136.41 11.18 137.24 11.03 137.24 L0.38 137.39 Z"
						class="st7"/>
			</g>
			<g id="shape5270-46" v:mID="5270" v:groupContext="shape" transform="translate(23.43,-13.935)">
				<title>shape17</title>
				<path d="M0.22 137.39 C0.22 137.39 1.27 135.74 0 134.99 C0 134.99 0.45 134.54 0.9 134.76 C0.9 134.76 1.12 133.64
							 1.65 133.11 C2.17 132.59 2.25 130.94 2.25 130.94 C2.25 130.94 2.62 132.66 2.55 133.79 C2.4 134.91 3
							 135.74 3.37 135.74 C3.37 135.74 3.67 133.86 4.2 133.94 C4.2 133.94 4.27 135.44 3.82 136.26 C3.82 136.26
							 4.42 135.44 5.32 136.34 C5.32 136.34 4.57 136.64 4.57 137.31 L0.23 137.39 Z" class="st8"/>
			</g>
			<g id="shape5271-48" v:mID="5271" v:groupContext="shape" transform="translate(105.525,-13.9125) scale(-1,1)">
				<title>shape18</title>
				<path d="M1.13 137.39 C1.13 137.39 0 134.91 0.38 131.46 C0.38 131.46 2.03 134.01 3.68 132.74 C5.33 131.46 5.7 128.24
							 5.33 123.74 C5.33 123.74 6.53 126.74 7.28 127.26 C8.03 127.79 11.33 130.41 11.25 134.69 C11.25 134.69
							 12.6 134.69 12.6 131.24 C12.6 131.24 13.95 132.44 13.95 134.54 C13.95 134.54 14.63 132.14 16.73 132.59
							 C16.73 132.59 15.6 136.86 16.43 137.31 L1.13 137.39 Z" class="st6"/>
			</g>
			<g id="shape5272-50" v:mID="5272" v:groupContext="shape" transform="translate(102,-13.9125) scale(-1,1)">
				<title>shape19</title>
				<path d="M0.37 137.39 C0.37 137.39 0 136.34 0.9 135.96 C1.87 135.59 1.05 133.11 0.45 132.66 C0.45 132.66 1.42 132.21
							 2.25 133.56 C2.25 133.56 2.17 131.46 3.3 130.41 C3.3 130.41 4.05 129.74 2.7 127.19 C2.7 127.19 2.1 125.91
							 2.17 125.24 C2.17 125.24 3.37 128.09 4.65 128.46 C4.65 128.46 6.75 130.04 6.75 132.74 C6.75 132.74 6.82
							 136.94 8.25 134.91 C8.25 134.91 8.4 136.19 9 135.06 C9.6 134.01 9.52 132.96 9.52 132.96 C9.52 132.96
							 10.2 134.69 9.52 135.74 C9.52 135.74 10.35 135.89 10.72 134.84 C11.1 133.79 12.82 133.26 12.82 133.26
							 C12.82 133.26 10.95 135.06 11.02 135.74 C11.1 136.41 11.17 137.24 11.02 137.24 L0.37 137.39 Z"
						class="st7"/>
			</g>
			<g id="shape5273-52" v:mID="5273" v:groupContext="shape" transform="translate(99.975,-13.8375) scale(-1,1)">
				<title>shape20</title>
				<path d="M0.22 137.39 C0.22 137.39 1.27 135.74 0 134.99 C0 134.99 0.45 134.54 0.9 134.76 C0.9 134.76 1.12 133.64
							 1.65 133.11 C2.17 132.59 2.25 130.94 2.25 130.94 C2.25 130.94 2.62 132.66 2.55 133.79 C2.4 134.91 3
							 135.74 3.37 135.74 C3.37 135.74 3.67 133.86 4.2 133.94 C4.2 133.94 4.27 135.44 3.82 136.26 C3.82 136.26
							 4.42 135.44 5.32 136.34 C5.32 136.34 4.57 136.64 4.57 137.31 L0.23 137.39 Z" class="st8"/>
			</g>
		</g>
	</g>
</svg>
