<?xml version="1.0" encoding="UTF-8" standalone="no"?>
<!DOCTYPE svg PUBLIC "-//W3C//DTD SVG 1.1//EN" "http://www.w3.org/Graphics/SVG/1.1/DTD/svg11.dtd">
<!-- 由 Microsoft Visio, SVG Export 生成 罐23.svg 页-1 -->
<svg xmlns="http://www.w3.org/2000/svg" xmlns:xlink="http://www.w3.org/1999/xlink" xmlns:ev="http://www.w3.org/2001/xml-events"
		xmlns:v="http://schemas.microsoft.com/visio/2003/SVGExtensions/" width="0.586979in" height="1.42125in"
		viewBox="0 0 42.2625 102.33" xml:space="preserve" color-interpolation-filters="sRGB" class="st18">
	<v:documentProperties v:langID="2052" v:metric="true" v:viewMarkup="false"/>

	<style type="text/css">
	<![CDATA[
		.st1 {fill:url(#grad0-6);stroke:none;stroke-linecap:butt;stroke-width:0.75}
		.st2 {fill:url(#grad0-16);stroke:none;stroke-linecap:butt;stroke-width:0.75}
		.st3 {fill:url(#grad0-20);stroke:none;stroke-linecap:butt;stroke-width:0.75}
		.st4 {fill:url(#grad0-24);stroke:none;stroke-linecap:butt;stroke-width:0.75}
		.st5 {fill:url(#grad0-28);stroke:none;stroke-linecap:butt;stroke-width:0.75}
		.st6 {fill:url(#grad3-84);stroke:#5f89b9;stroke-linecap:butt;stroke-width:0.1875}
		.st7 {fill:#c6d5e8;stroke:#384e64;stroke-linecap:butt;stroke-width:0.75}
		.st8 {fill:#e35020;stroke:none;stroke-linecap:butt;stroke-width:0.752583}
		.st9 {fill:#4b6884;stroke:none;stroke-linecap:butt;stroke-width:0.75}
		.st10 {fill:none;stroke:#3f77a8;stroke-linecap:butt;stroke-width:0.75}
		.st11 {fill:#ffffff;fill-opacity:0.38;stroke:none;stroke-linecap:butt;stroke-width:0.75}
		.st12 {fill:#768c9d;stroke:#7a91a3;stroke-linecap:butt;stroke-width:0.75}
		.st13 {fill:#3e3938;stroke:#000000;stroke-linecap:butt;stroke-width:0.75}
		.st14 {fill:#b8cfcf;stroke:#368688;stroke-linecap:butt;stroke-width:0.75}
		.st15 {fill:#000000;stroke:none;stroke-linecap:butt;stroke-width:0.75}
		.st16 {fill:#ffffff;fill-opacity:0.16;stroke:none;stroke-linecap:butt;stroke-width:0.75}
		.st17 {fill:url(#grad0-117);stroke:none;stroke-linecap:butt;stroke-width:0.75}
		.st18 {fill:none;fill-rule:evenodd;font-size:12px;overflow:visible;stroke-linecap:square;stroke-miterlimit:3}
	]]>
	</style>

	<defs id="Patterns_And_Gradients">
		<linearGradient id="grad0-6" x1="0" y1="0" x2="1" y2="0" gradientTransform="rotate(-180 0.5 0.5)">
			<stop offset="0" stop-color="#9db0b3" stop-opacity="1"/>
			<stop offset="0.15" stop-color="#d7eff2" stop-opacity="1"/>
			<stop offset="0.25" stop-color="#e9f6f7" stop-opacity="1"/>
			<stop offset="0.52" stop-color="#b9d0d3" stop-opacity="1"/>
			<stop offset="0.69" stop-color="#a5b9bc" stop-opacity="1"/>
			<stop offset="0.8" stop-color="#9bafb1" stop-opacity="1"/>
			<stop offset="0.92" stop-color="#93a5a7" stop-opacity="1"/>
			<stop offset="1" stop-color="#a9bec0" stop-opacity="1"/>
		</linearGradient>
		<linearGradient id="grad0-16" x1="0" y1="0" x2="1" y2="0" gradientTransform="rotate(-180 0.5 0.5)">
			<stop offset="0" stop-color="#4c6a82" stop-opacity="1"/>
			<stop offset="0.15" stop-color="#799bb7" stop-opacity="1"/>
			<stop offset="0.25" stop-color="#c0ccd9" stop-opacity="1"/>
			<stop offset="0.52" stop-color="#5b7e9a" stop-opacity="1"/>
			<stop offset="0.69" stop-color="#507089" stop-opacity="1"/>
			<stop offset="0.8" stop-color="#4b6981" stop-opacity="1"/>
			<stop offset="0.92" stop-color="#47637a" stop-opacity="1"/>
			<stop offset="1" stop-color="#52738c" stop-opacity="1"/>
		</linearGradient>
		<linearGradient id="grad0-20" x1="0" y1="0" x2="1" y2="0" gradientTransform="rotate(-180 0.5 0.5)">
			<stop offset="0" stop-color="#718696" stop-opacity="1"/>
			<stop offset="0.15" stop-color="#a2bbcf" stop-opacity="1"/>
			<stop offset="0.25" stop-color="#d0dbe4" stop-opacity="1"/>
			<stop offset="0.52" stop-color="#869fb1" stop-opacity="1"/>
			<stop offset="0.69" stop-color="#778d9e" stop-opacity="1"/>
			<stop offset="0.8" stop-color="#708595" stop-opacity="1"/>
			<stop offset="0.92" stop-color="#697d8c" stop-opacity="1"/>
			<stop offset="1" stop-color="#7a90a1" stop-opacity="1"/>
		</linearGradient>
		<linearGradient id="grad0-24" x1="0" y1="0" x2="1" y2="0" gradientTransform="rotate(90 0.5 0.5)">
			<stop offset="0" stop-color="#718696" stop-opacity="1"/>
			<stop offset="0.15" stop-color="#a2bbcf" stop-opacity="1"/>
			<stop offset="0.25" stop-color="#d0dbe4" stop-opacity="1"/>
			<stop offset="0.52" stop-color="#869fb1" stop-opacity="1"/>
			<stop offset="0.69" stop-color="#778d9e" stop-opacity="1"/>
			<stop offset="0.8" stop-color="#708595" stop-opacity="1"/>
			<stop offset="0.92" stop-color="#697d8c" stop-opacity="1"/>
			<stop offset="1" stop-color="#7a90a1" stop-opacity="1"/>
		</linearGradient>
		<linearGradient id="grad0-28" x1="0" y1="0" x2="1" y2="0" gradientTransform="rotate(-180 0.5 0.5)">
			<stop offset="0" stop-color="#5d758a" stop-opacity="1"/>
			<stop offset="0.15" stop-color="#8ca8c0" stop-opacity="1"/>
			<stop offset="0.25" stop-color="#c7d2dd" stop-opacity="1"/>
			<stop offset="0.52" stop-color="#6f8ba3" stop-opacity="1"/>
			<stop offset="0.69" stop-color="#627c91" stop-opacity="1"/>
			<stop offset="0.8" stop-color="#5c7489" stop-opacity="1"/>
			<stop offset="0.92" stop-color="#576e81" stop-opacity="1"/>
			<stop offset="1" stop-color="#657f94" stop-opacity="1"/>
		</linearGradient>
		<radialGradient id="grad3-84" cx="0.5" cy="0.5" r="0.73">
			<stop offset="0" stop-color="#76a2c9" stop-opacity="1"/>
			<stop offset="0.91" stop-color="#76a2c9" stop-opacity="1"/>
		</radialGradient>
		<linearGradient id="grad0-117" x1="0" y1="0" x2="1" y2="0" gradientTransform="rotate(-180 0.5 0.5)">
			<stop offset="0" stop-color="#3c5569" stop-opacity="1"/>
			<stop offset="0.15" stop-color="#6a839a" stop-opacity="1"/>
			<stop offset="0.25" stop-color="#bbc3cc" stop-opacity="1"/>
			<stop offset="0.52" stop-color="#48667d" stop-opacity="1"/>
			<stop offset="0.69" stop-color="#405a6f" stop-opacity="1"/>
			<stop offset="0.8" stop-color="#3b5468" stop-opacity="1"/>
			<stop offset="0.92" stop-color="#384f62" stop-opacity="1"/>
			<stop offset="1" stop-color="#415c72" stop-opacity="1"/>
		</linearGradient>
	</defs>
	<g v:mID="0" v:index="1" v:groupContext="foregroundPage">
		<title>页-1</title>
		<v:pageProperties v:drawingScale="0.0393701" v:pageScale="0.0393701" v:drawingUnits="24" v:shadowOffsetX="8.50394"
				v:shadowOffsetY="-8.50394"/>
		<g id="group5653-1" transform="translate(0.75,-0.75)" v:mID="5653" v:groupContext="group">
			<title>低排放锅炉</title>
			<g id="group5654-2" transform="translate(17.9175,-97.3575)" v:mID="5654" v:groupContext="group">
				<title>工作表.5654</title>
				<g id="shape5655-3" v:mID="5655" v:groupContext="shape" transform="translate(0.6975,1.42109E-14)">
					<title>shape1</title>
					<path d="M0 102.33 L3.3 102.33 L3.3 100.23 L0 100.23 L0 102.33 Z" class="st1"/>
				</g>
				<g id="shape5656-7" v:mID="5656" v:groupContext="shape" transform="translate(-1.16906E-13,-2.1225)">
					<title>shape2</title>
					<path d="M0.6 100.98 L4.05 100.98 C4.42 100.98 4.72 101.28 4.72 101.58 C4.72 102.11 4.42 102.33 4.05 102.33 L0.6
								 102.33 C0.3 102.33 0 102.11 0 101.73 C0 101.28 0.3 100.98 0.6 100.98 Z" class="st1"/>
				</g>
			</g>
			<g id="shape5657-10" v:mID="5657" v:groupContext="shape" transform="translate(2.7975,-9.1425)">
				<title>shape3</title>
				<path d="M0 23.51 L34.95 23.51 L34.95 102.33 L0 102.33 L0 23.51 Z" class="st1"/>
			</g>
			<g id="shape5658-13" v:mID="5658" v:groupContext="shape" transform="translate(2.7975,-1.3875)">
				<title>shape4</title>
				<path d="M0 94.31 L34.95 94.31 L34.95 102.33 L0 102.33 L0 94.31 Z" class="st2"/>
			</g>
			<g id="shape5659-17" v:mID="5659" v:groupContext="shape" transform="translate(2.7975,-87.975)">
				<title>shape5</title>
				<path d="M4.72 95.81 C8.62 93.63 12.9 92.66 17.47 92.73 C22.5 92.81 27.67 94.01 30.97 96.33 C34.05 98.43 34.95 102.33
							 34.95 102.33 L0 102.33 C0 102.33 0.15 98.36 4.72 95.81 Z" class="st3"/>
			</g>
			<g id="shape5660-21" v:mID="5660" v:groupContext="shape" transform="translate(0,-30.6075)">
				<title>shape7</title>
				<path d="M3 99.26 L0 99.26 L0 102.33 L3 102.33 L3 99.26 Z" class="st4"/>
			</g>
			<g id="shape5661-25" v:mID="5661" v:groupContext="shape" transform="translate(2.7975,-87.4725)">
				<title>shape8</title>
				<path d="M0 101.43 L34.95 101.43 L34.95 102.33 L0 102.33 L0 101.43 Z" class="st5"/>
			</g>
			<g id="shape5662-29" v:mID="5662" v:groupContext="shape" transform="translate(37.7625,-18.735)">
				<title>shape9</title>
				<path d="M0 99.48 L3 99.48 L3 102.33 L0 102.33 L0 99.48 Z" class="st4"/>
			</g>
			<g id="group5663-32" transform="translate(12.9,-10.98)" v:mID="5663" v:groupContext="group">
				<title>工作表.5663</title>
				<g id="shape5664-33" v:mID="5664" v:groupContext="shape" transform="translate(1.485,0)">
					<title>shape10</title>
					<path d="M0 97.61 C0 94.98 2.62 92.88 5.85 92.88 C9.07 92.88 11.7 94.98 11.7 97.61 C11.7 100.23 9.07 102.33 5.85
								 102.33 C2.62 102.33 0 100.23 0 97.61 Z" class="st3"/>
				</g>
				<g id="shape5665-36" v:mID="5665" v:groupContext="shape" transform="translate(-3.32234E-14,-5.37)">
					<title>shape11</title>
					<path d="M0 100.83 L4.35 100.83 L4.35 102.33 L0 102.33 L0 100.83 Z" class="st3"/>
				</g>
				<g id="shape5666-39" v:mID="5666" v:groupContext="shape" transform="translate(-3.32234E-14,-1.98)">
					<title>shape12</title>
					<path d="M0 100.83 L4.35 100.83 L4.35 102.33 L0 102.33 L0 100.83 Z" class="st3"/>
				</g>
				<g id="shape5667-42" v:mID="5667" v:groupContext="shape" transform="translate(12.915,-4.0125)">
					<title>shape13</title>
					<path d="M0 100.98 L3.75 100.98 L3.75 102.33 L0 102.33 L0 100.98 Z" class="st4"/>
				</g>
				<g id="shape5668-45" v:mID="5668" v:groupContext="shape" transform="translate(14.4225,-3.51)">
					<title>shape14</title>
					<path d="M0 99.93 L1.27 99.93 L1.27 102.33 L0 102.33 L0 99.93 Z" class="st4"/>
				</g>
			</g>
			<g id="group5669-48" transform="translate(12.9,-32.2275)" v:mID="5669" v:groupContext="group">
				<title>工作表.5669</title>
				<g id="shape5670-49" v:mID="5670" v:groupContext="shape" transform="translate(1.485,0)">
					<title>shape15</title>
					<path d="M0 97.61 C0 94.98 2.62 92.88 5.85 92.88 C9.07 92.88 11.7 94.98 11.7 97.61 C11.7 100.23 9.07 102.33 5.85
								 102.33 C2.62 102.33 0 100.23 0 97.61 Z" class="st3"/>
				</g>
				<g id="shape5671-52" v:mID="5671" v:groupContext="shape" transform="translate(-3.32234E-14,-5.37)">
					<title>shape16</title>
					<path d="M0 100.83 L4.35 100.83 L4.35 102.33 L0 102.33 L0 100.83 Z" class="st3"/>
				</g>
				<g id="shape5672-55" v:mID="5672" v:groupContext="shape" transform="translate(-3.32234E-14,-1.98)">
					<title>shape17</title>
					<path d="M0 100.83 L4.35 100.83 L4.35 102.33 L0 102.33 L0 100.83 Z" class="st3"/>
				</g>
				<g id="shape5673-58" v:mID="5673" v:groupContext="shape" transform="translate(12.915,-4.0125)">
					<title>shape18</title>
					<path d="M0 100.98 L3.75 100.98 L3.75 102.33 L0 102.33 L0 100.98 Z" class="st4"/>
				</g>
				<g id="shape5674-61" v:mID="5674" v:groupContext="shape" transform="translate(14.4225,-3.51)">
					<title>shape19</title>
					<path d="M0 99.93 L1.27 99.93 L1.27 102.33 L0 102.33 L0 99.93 Z" class="st4"/>
				</g>
			</g>
			<g id="group5675-64" transform="translate(12.9,-46.77)" v:mID="5675" v:groupContext="group">
				<title>工作表.5675</title>
				<g id="shape5676-65" v:mID="5676" v:groupContext="shape" transform="translate(1.485,0)">
					<title>shape20</title>
					<path d="M0 97.61 C0 94.98 2.62 92.88 5.85 92.88 C9.07 92.88 11.7 94.98 11.7 97.61 C11.7 100.23 9.07 102.33 5.85
								 102.33 C2.62 102.33 0 100.23 0 97.61 Z" class="st3"/>
				</g>
				<g id="shape5677-68" v:mID="5677" v:groupContext="shape" transform="translate(-3.32234E-14,-5.37)">
					<title>shape21</title>
					<path d="M0 100.83 L4.35 100.83 L4.35 102.33 L0 102.33 L0 100.83 Z" class="st3"/>
				</g>
				<g id="shape5678-71" v:mID="5678" v:groupContext="shape" transform="translate(-3.32234E-14,-1.98)">
					<title>shape22</title>
					<path d="M0 100.83 L4.35 100.83 L4.35 102.33 L0 102.33 L0 100.83 Z" class="st3"/>
				</g>
				<g id="shape5679-74" v:mID="5679" v:groupContext="shape" transform="translate(12.915,-4.0125)">
					<title>shape23</title>
					<path d="M0 100.98 L3.75 100.98 L3.75 102.33 L0 102.33 L0 100.98 Z" class="st4"/>
				</g>
				<g id="shape5680-77" v:mID="5680" v:groupContext="shape" transform="translate(14.4225,-3.51)">
					<title>shape24</title>
					<path d="M0 99.93 L1.27 99.93 L1.27 102.33 L0 102.33 L0 99.93 Z" class="st4"/>
				</g>
			</g>
			<g id="group5681-80" transform="translate(16.8975,-60.5925)" v:mID="5681" v:groupContext="group">
				<title>工作表.5681</title>
				<g id="shape5682-81" v:mID="5682" v:groupContext="shape">
					<title>shape25</title>
					<path d="M0 98.96 C0 97.16 1.5 95.66 3.37 95.66 C5.25 95.66 6.75 97.16 6.75 98.96 C6.75 100.83 5.25 102.33 3.37
								 102.33 C1.5 102.33 0 100.83 0 98.96 Z" class="st6"/>
				</g>
				<g id="shape5683-85" v:mID="5683" v:groupContext="shape" transform="translate(0.615,-0.6)">
					<title>shape26</title>
					<path d="M0 99.56 C0 98.06 1.27 96.86 2.77 96.86 C4.27 96.86 5.55 98.06 5.55 99.56 C5.55 101.13 4.27 102.33 2.77
								 102.33 C1.27 102.33 0 101.13 0 99.56 Z" class="st7"/>
				</g>
				<g id="shape5684-87" v:mID="5684" v:groupContext="shape" transform="translate(-46.1894,185.709) rotate(-150.113)">
					<title>shape27</title>
					<path d="M0.45 98.42 C0.45 98.42 0.45 102.33 0.23 102.33 C0 102.33 0 98.42 0.45 98.42 Z" class="st8"/>
				</g>
				<g id="shape5685-89" v:mID="5685" v:groupContext="shape" transform="translate(2.94,-2.88)">
					<title>shape28</title>
					<path d="M0 101.88 C0 101.66 0.22 101.43 0.45 101.43 C0.67 101.43 0.9 101.66 0.9 101.88 C0.9 102.11 0.67 102.33
								 0.45 102.33 C0.22 102.33 0 102.11 0 101.88 Z" class="st9"/>
				</g>
				<g id="shape5686-91" v:mID="5686" v:groupContext="shape" transform="translate(3.315,-5.6325)">
					<title>shape29</title>
				</g>
				<g id="shape5687-92" v:mID="5687" v:groupContext="shape" transform="translate(-101.13,98.88) rotate(-90)">
					<title>shape30</title>
				</g>
				<g id="shape5688-93" v:mID="5688" v:groupContext="shape" transform="translate(-97.23,98.88) rotate(-90)">
					<title>shape31</title>
				</g>
				<g id="shape5689-94" v:mID="5689" v:groupContext="shape" transform="translate(-70.4832,25.0218) rotate(-45)">
					<title>shape32</title>
				</g>
				<g id="shape5690-95" v:mID="5690" v:groupContext="shape" transform="translate(77.3082,25.0218) rotate(45)">
					<title>shape33</title>
				</g>
				<g id="shape5691-96" v:mID="5691" v:groupContext="shape" transform="translate(2.13,-1.215)">
					<title>shape34</title>
					<path d="M0.22 101.81 L2.32 101.81 C2.47 101.81 2.62 101.88 2.62 102.03 C2.62 102.18 2.47 102.33 2.32 102.33
								 L0.22 102.33 C0.07 102.33 0 102.18 0 102.11 C0 101.88 0.07 101.81 0.22 101.81 Z" class="st10"/>
				</g>
				<g id="shape5692-98" v:mID="5692" v:groupContext="shape" transform="translate(1.8375,-0.6)">
					<title>shape35</title>
					<path d="M2.02 99.63 C2.02 98.13 0 96.86 1.57 96.86 C3.07 96.86 4.35 98.06 4.35 99.56 C4.35 101.13 3.07 102.33
								 1.57 102.33 C0 102.33 2.02 101.13 2.02 99.63 Z" class="st11"/>
				</g>
			</g>
			<g id="shape5693-100" v:mID="5693" v:groupContext="shape" transform="translate(13.5,-75.675)">
				<title>shape36</title>
				<path d="M1.72 94.38 L11.85 94.38 C12.75 94.38 13.57 95.13 13.57 96.11 L13.57 100.61 C13.57 101.51 12.75 102.33 11.85
							 102.33 L1.72 102.33 C0.75 102.33 0 101.51 0 100.61 L0 96.11 C0 95.13 0.75 94.38 1.72 94.38 Z"
						class="st12"/>
			</g>
			<g id="shape5694-102" v:mID="5694" v:groupContext="shape" transform="translate(13.92,-76.0575)">
				<title>shape37</title>
				<path d="M1.58 95.13 L11.1 95.13 C12 95.13 12.68 95.81 12.68 96.71 L12.68 100.76 C12.68 101.66 12 102.33 11.1 102.33
							 L1.58 102.33 C0.68 102.33 0 101.66 0 100.76 L0 96.71 C0 95.81 0.68 95.13 1.58 95.13 Z" class="st13"/>
			</g>
			<g id="shape5695-104" v:mID="5695" v:groupContext="shape" transform="translate(21.93,-78.2025)">
				<title>shape38</title>
				<path d="M0 99.56 L2.85 99.56 L2.85 102.33 L0 102.33 L0 99.56 Z" class="st14"/>
			</g>
			<g id="shape5696-106" v:mID="5696" v:groupContext="shape" transform="translate(23.325,-78.1875)">
				<title>shape39</title>
				<path d="M1.42 102.33 L1.42 100.91 L0 102.33 L1.42 102.33 Z" class="st15"/>
			</g>
			<g id="shape5697-108" v:mID="5697" v:groupContext="shape" transform="translate(15.8025,-78.2025)">
				<title>shape40</title>
				<path d="M0 99.56 L2.85 99.56 L2.85 102.33 L0 102.33 L0 99.56 Z" class="st14"/>
			</g>
			<g id="shape5698-110" v:mID="5698" v:groupContext="shape" transform="translate(17.1975,-78.1875)">
				<title>shape41</title>
				<path d="M1.42 102.33 L1.42 100.91 L0 102.33 L1.42 102.33 Z" class="st15"/>
			</g>
			<g id="shape5699-112" v:mID="5699" v:groupContext="shape" transform="translate(13.515,-75.675)">
				<title>shape42</title>
				<path d="M1.57 94.38 L10.8 94.38 L8.25 102.33 L1.57 102.33 C0.67 102.33 0 101.51 0 100.61 L0 96.11 C0 95.13 0.67
							 94.38 1.57 94.38 Z" class="st16"/>
			</g>
			<g id="shape5700-114" v:mID="5700" v:groupContext="shape" transform="translate(2.7975,-1.3725)">
				<title>shape43</title>
				<path d="M0 101.06 L34.95 101.06 L34.95 102.33 L0 102.33 L0 101.06 Z" class="st17"/>
			</g>
			<g id="shape5701-118" v:mID="5701" v:groupContext="shape" transform="translate(2.37,0)">
				<title>shape44</title>
				<path d="M0.6 100.76 L35.62 100.76 C35.92 100.76 36.22 101.06 36.22 101.36 C36.22 102.03 35.92 102.33 35.62 102.33
							 L0.6 102.33 C0.3 102.33 0 102.03 0 101.66 C0 101.06 0.3 100.76 0.6 100.76 Z" class="st2"/>
			</g>
		</g>
	</g>
</svg>
