<?xml version="1.0" encoding="UTF-8" standalone="no"?>
<!DOCTYPE svg PUBLIC "-//W3C//DTD SVG 1.1//EN" "http://www.w3.org/Graphics/SVG/1.1/DTD/svg11.dtd">
<!-- 由 Microsoft Visio, SVG Export 生成 罐40.svg 页-1 -->
<svg xmlns="http://www.w3.org/2000/svg" xmlns:xlink="http://www.w3.org/1999/xlink" xmlns:ev="http://www.w3.org/2001/xml-events"
		xmlns:v="http://schemas.microsoft.com/visio/2003/SVGExtensions/" width="1.2225in" height="2.21563in"
		viewBox="0 0 88.02 159.525" xml:space="preserve" color-interpolation-filters="sRGB" class="st5">
	<v:documentProperties v:langID="2052" v:metric="true" v:viewMarkup="false"/>

	<style type="text/css">
	<![CDATA[
		.st1 {fill:url(#grad0-5);stroke:none;stroke-linecap:butt;stroke-width:0.75}
		.st2 {fill:url(#grad0-16);stroke:none;stroke-linecap:butt;stroke-width:0.75}
		.st3 {fill:url(#grad0-20);stroke:none;stroke-linecap:butt;stroke-width:0.75}
		.st4 {fill:url(#grad0-120);stroke:none;stroke-linecap:butt;stroke-width:0.75}
		.st5 {fill:none;fill-rule:evenodd;font-size:12px;overflow:visible;stroke-linecap:square;stroke-miterlimit:3}
	]]>
	</style>

	<defs id="Patterns_And_Gradients">
		<linearGradient id="grad0-5" x1="0" y1="0" x2="1" y2="0" gradientTransform="rotate(90 0.5 0.5)">
			<stop offset="0" stop-color="#b76c68" stop-opacity="1"/>
			<stop offset="0.15" stop-color="#f09995" stop-opacity="1"/>
			<stop offset="0.25" stop-color="#f6ccca" stop-opacity="1"/>
			<stop offset="0.44" stop-color="#d17c78" stop-opacity="1"/>
			<stop offset="0.6" stop-color="#ba6e6a" stop-opacity="1"/>
			<stop offset="0.8" stop-color="#9d5c59" stop-opacity="1"/>
			<stop offset="0.97" stop-color="#8f5451" stop-opacity="1"/>
		</linearGradient>
		<linearGradient id="grad0-16" x1="0" y1="0" x2="1" y2="0" gradientTransform="rotate(90 0.5 0.5)">
			<stop offset="0" stop-color="#b23e4b" stop-opacity="1"/>
			<stop offset="0.15" stop-color="#e96a76" stop-opacity="1"/>
			<stop offset="0.25" stop-color="#f3bbbf" stop-opacity="1"/>
			<stop offset="0.44" stop-color="#cb4857" stop-opacity="1"/>
			<stop offset="0.6" stop-color="#b5404c" stop-opacity="1"/>
			<stop offset="0.8" stop-color="#98343f" stop-opacity="1"/>
			<stop offset="0.97" stop-color="#8b2f39" stop-opacity="1"/>
			<stop offset="1" stop-color="#b9414e" stop-opacity="1"/>
		</linearGradient>
		<linearGradient id="grad0-20" x1="0" y1="0" x2="1" y2="0" gradientTransform="rotate(90 0.5 0.5)">
			<stop offset="0" stop-color="#b76c68" stop-opacity="1"/>
			<stop offset="0.15" stop-color="#f09995" stop-opacity="1"/>
			<stop offset="0.25" stop-color="#f6ccca" stop-opacity="1"/>
			<stop offset="0.44" stop-color="#d17c78" stop-opacity="1"/>
			<stop offset="0.6" stop-color="#ba6e6a" stop-opacity="1"/>
			<stop offset="0.8" stop-color="#9d5c59" stop-opacity="1"/>
			<stop offset="0.97" stop-color="#8f5451" stop-opacity="1"/>
			<stop offset="1" stop-color="#be716d" stop-opacity="1"/>
		</linearGradient>
		<linearGradient id="grad0-120" x1="0" y1="0" x2="1" y2="0" gradientTransform="rotate(-180 0.5 0.5)">
			<stop offset="0" stop-color="#b76c68" stop-opacity="1"/>
			<stop offset="0.15" stop-color="#f09995" stop-opacity="1"/>
			<stop offset="0.25" stop-color="#f6ccca" stop-opacity="1"/>
			<stop offset="0.44" stop-color="#d17c78" stop-opacity="1"/>
			<stop offset="0.6" stop-color="#ba6e6a" stop-opacity="1"/>
			<stop offset="0.8" stop-color="#9d5c59" stop-opacity="1"/>
			<stop offset="0.97" stop-color="#8f5451" stop-opacity="1"/>
		</linearGradient>
	</defs>
	<g v:mID="0" v:index="1" v:groupContext="foregroundPage">
		<title>页-1</title>
		<v:pageProperties v:drawingScale="0.0393701" v:pageScale="0.0393701" v:drawingUnits="24" v:shadowOffsetX="8.50394"
				v:shadowOffsetY="-8.50394"/>
		<g id="group6272-1" transform="translate(0.75,-0.75)" v:mID="6272" v:groupContext="group">
			<title>换热器1</title>
			<g id="shape6273-2" v:mID="6273" v:groupContext="shape" transform="translate(175.073,159.525) rotate(90) scale(-1,1)">
				<title>shape1</title>
				<path d="M0 132 C0 116.7 5.1 104.4 11.4 104.4 C11.4 105.15 11.1 159.38 11.4 159.53 C5.1 159.53 0 147.15 0 132 Z"
						class="st1"/>
			</g>
			<g id="shape6274-6" v:mID="6274" v:groupContext="shape" transform="translate(174.998,12.45) rotate(90)">
				<title>shape2</title>
				<path d="M0 104.18 L136.13 104.18 L136.13 159.53 L0 159.53 L0 104.18 Z" class="st1"/>
			</g>
			<g id="shape6275-9" v:mID="6275" v:groupContext="shape" transform="translate(174.848,1.5) rotate(90)">
				<title>shape3</title>
				<path d="M0 131.7 C0 116.48 5.1 104.1 11.48 104.1 C11.33 101.18 11.85 159.53 11.48 159.38 C5.1 159.38 0 146.93 0
							 131.7 Z" class="st1"/>
			</g>
			<g id="group6276-12" transform="translate(172.298,13.575) rotate(90)" v:mID="6276" v:groupContext="group">
				<title>工作表.6276</title>
				<g id="shape6277-13" v:mID="6277" v:groupContext="shape" transform="translate(1.7925,-5.68434E-14)">
					<title>shape4</title>
					<path d="M0.15 98.85 L3.6 98.85 C3.67 98.85 3.75 99.08 3.75 99.45 L3.75 158.85 C3.75 159.23 3.67 159.53 3.6 159.53
								 L0.15 159.53 C0.07 159.53 0 159.23 0 158.85 L0 99.45 C0 99.08 0.07 98.85 0.15 98.85 Z" class="st2"/>
				</g>
				<g id="shape6278-17" v:mID="6278" v:groupContext="shape" transform="translate(2.2275,-5.68434E-14)">
					<title>shape5</title>
					<path d="M0.15 98.85 L2.77 98.85 C2.85 98.85 2.92 99.08 2.92 99.45 L2.92 158.85 C2.92 159.23 2.85 159.53 2.77
								 159.53 L0.15 159.53 C0.07 159.53 0 159.23 0 158.85 L0 99.45 C0 99.08 0.07 98.85 0.15 98.85 Z"
							class="st3"/>
				</g>
				<g id="group6279-21" transform="translate(3.15997E-14,-1.08)" v:mID="6279" v:groupContext="group">
					<title>工作表.6279</title>
					<g id="shape6280-22" v:mID="6280" v:groupContext="shape" transform="translate(-5.7454E-15,-36.735)">
						<title>shape6</title>
						<path d="M0.15 156 L1.72 156 C1.8 156 1.87 156.15 1.87 156.3 L1.87 159.23 C1.87 159.38 1.8 159.53 1.72 159.53
									 L0.15 159.53 C0.07 159.53 0 159.38 0 159.23 L0 156.3 C0 156.15 0.07 156 0.15 156 Z"
								class="st3"/>
					</g>
					<g id="shape6281-25" v:mID="6281" v:groupContext="shape" transform="translate(-5.7454E-15,-27.525)">
						<title>shape7</title>
						<path d="M0.15 156 L1.72 156 C1.8 156 1.87 156.15 1.87 156.3 L1.87 159.23 C1.87 159.38 1.8 159.53 1.72 159.53
									 L0.15 159.53 C0.07 159.53 0 159.38 0 159.23 L0 156.3 C0 156.15 0.07 156 0.15 156 Z"
								class="st3"/>
					</g>
					<g id="shape6282-28" v:mID="6282" v:groupContext="shape" transform="translate(-5.7454E-15,-18.3675)">
						<title>shape8</title>
						<path d="M0.15 156 L1.72 156 C1.8 156 1.87 156.15 1.87 156.3 L1.87 159.23 C1.87 159.38 1.8 159.53 1.72 159.53
									 L0.15 159.53 C0.07 159.53 0 159.38 0 159.23 L0 156.3 C0 156.15 0.07 156 0.15 156 Z"
								class="st3"/>
					</g>
					<g id="shape6283-31" v:mID="6283" v:groupContext="shape" transform="translate(-5.7454E-15,-9.18)">
						<title>shape9</title>
						<path d="M0.15 156 L1.72 156 C1.8 156 1.87 156.15 1.87 156.3 L1.87 159.23 C1.87 159.38 1.8 159.53 1.72 159.53
									 L0.15 159.53 C0.07 159.53 0 159.38 0 159.23 L0 156.3 C0 156.15 0.07 156 0.15 156 Z"
								class="st3"/>
					</g>
					<g id="shape6284-34" v:mID="6284" v:groupContext="shape">
						<title>shape10</title>
						<path d="M0.15 156 L1.72 156 C1.8 156 1.87 156.15 1.87 156.3 L1.87 159.23 C1.87 159.38 1.8 159.53 1.72 159.53
									 L0.15 159.53 C0.07 159.53 0 159.38 0 159.23 L0 156.3 C0 156.15 0.07 156 0.15 156 Z"
								class="st3"/>
					</g>
					<g id="shape6285-37" v:mID="6285" v:groupContext="shape" transform="translate(-5.7454E-15,-45.9225)">
						<title>shape11</title>
						<path d="M0.15 156 L1.72 156 C1.8 156 1.87 156.15 1.87 156.3 L1.87 159.23 C1.87 159.38 1.8 159.53 1.72 159.53
									 L0.15 159.53 C0.07 159.53 0 159.38 0 159.23 L0 156.3 C0 156.15 0.07 156 0.15 156 Z"
								class="st3"/>
					</g>
					<g id="shape6286-40" v:mID="6286" v:groupContext="shape" transform="translate(-5.7454E-15,-55.11)">
						<title>shape12</title>
						<path d="M0.15 156 L1.72 156 C1.8 156 1.87 156.15 1.87 156.3 L1.87 159.23 C1.87 159.38 1.8 159.53 1.72 159.53
									 L0.15 159.53 C0.07 159.53 0 159.38 0 159.23 L0 156.3 C0 156.15 0.07 156 0.15 156 Z"
								class="st3"/>
					</g>
				</g>
				<g id="group6287-43" transform="translate(5.55,-1.08)" v:mID="6287" v:groupContext="group">
					<title>工作表.6287</title>
					<g id="shape6288-44" v:mID="6288" v:groupContext="shape" transform="translate(-5.7454E-15,-36.735)">
						<title>shape13</title>
						<path d="M0.15 156 L1.72 156 C1.8 156 1.87 156.15 1.87 156.3 L1.87 159.23 C1.87 159.38 1.8 159.53 1.72 159.53
									 L0.15 159.53 C0.07 159.53 0 159.38 0 159.23 L0 156.3 C0 156.15 0.07 156 0.15 156 Z"
								class="st3"/>
					</g>
					<g id="shape6289-47" v:mID="6289" v:groupContext="shape" transform="translate(-5.7454E-15,-27.525)">
						<title>shape14</title>
						<path d="M0.15 156 L1.72 156 C1.8 156 1.87 156.15 1.87 156.3 L1.87 159.23 C1.87 159.38 1.8 159.53 1.72 159.53
									 L0.15 159.53 C0.07 159.53 0 159.38 0 159.23 L0 156.3 C0 156.15 0.07 156 0.15 156 Z"
								class="st3"/>
					</g>
					<g id="shape6290-50" v:mID="6290" v:groupContext="shape" transform="translate(-5.7454E-15,-18.3675)">
						<title>shape15</title>
						<path d="M0.15 156 L1.72 156 C1.8 156 1.87 156.15 1.87 156.3 L1.87 159.23 C1.87 159.38 1.8 159.53 1.72 159.53
									 L0.15 159.53 C0.07 159.53 0 159.38 0 159.23 L0 156.3 C0 156.15 0.07 156 0.15 156 Z"
								class="st3"/>
					</g>
					<g id="shape6291-53" v:mID="6291" v:groupContext="shape" transform="translate(-5.7454E-15,-9.18)">
						<title>shape16</title>
						<path d="M0.15 156 L1.72 156 C1.8 156 1.87 156.15 1.87 156.3 L1.87 159.23 C1.87 159.38 1.8 159.53 1.72 159.53
									 L0.15 159.53 C0.07 159.53 0 159.38 0 159.23 L0 156.3 C0 156.15 0.07 156 0.15 156 Z"
								class="st3"/>
					</g>
					<g id="shape6292-56" v:mID="6292" v:groupContext="shape">
						<title>shape17</title>
						<path d="M0.15 156 L1.72 156 C1.8 156 1.87 156.15 1.87 156.3 L1.87 159.23 C1.87 159.38 1.8 159.53 1.72 159.53
									 L0.15 159.53 C0.07 159.53 0 159.38 0 159.23 L0 156.3 C0 156.15 0.07 156 0.15 156 Z"
								class="st3"/>
					</g>
					<g id="shape6293-59" v:mID="6293" v:groupContext="shape" transform="translate(-5.7454E-15,-45.9225)">
						<title>shape18</title>
						<path d="M0.15 156 L1.72 156 C1.8 156 1.87 156.15 1.87 156.3 L1.87 159.23 C1.87 159.38 1.8 159.53 1.72 159.53
									 L0.15 159.53 C0.07 159.53 0 159.38 0 159.23 L0 156.3 C0 156.15 0.07 156 0.15 156 Z"
								class="st3"/>
					</g>
					<g id="shape6294-62" v:mID="6294" v:groupContext="shape" transform="translate(-5.7454E-15,-55.11)">
						<title>shape19</title>
						<path d="M0.15 156 L1.72 156 C1.8 156 1.87 156.15 1.87 156.3 L1.87 159.23 C1.87 159.38 1.8 159.53 1.72 159.53
									 L0.15 159.53 C0.07 159.53 0 159.38 0 159.23 L0 156.3 C0 156.15 0.07 156 0.15 156 Z"
								class="st3"/>
					</g>
				</g>
			</g>
			<g id="group6295-65" transform="translate(172.298,140.025) rotate(90)" v:mID="6295" v:groupContext="group">
				<title>工作表.6295</title>
				<g id="shape6296-66" v:mID="6296" v:groupContext="shape" transform="translate(1.7925,-5.68434E-14)">
					<title>shape20</title>
					<path d="M0.15 98.85 L3.6 98.85 C3.67 98.85 3.75 99.08 3.75 99.45 L3.75 158.85 C3.75 159.23 3.67 159.53 3.6 159.53
								 L0.15 159.53 C0.07 159.53 0 159.23 0 158.85 L0 99.45 C0 99.08 0.07 98.85 0.15 98.85 Z" class="st2"/>
				</g>
				<g id="shape6297-69" v:mID="6297" v:groupContext="shape" transform="translate(2.2275,-5.68434E-14)">
					<title>shape21</title>
					<path d="M0.15 98.85 L2.77 98.85 C2.85 98.85 2.92 99.08 2.92 99.45 L2.92 158.85 C2.92 159.23 2.85 159.53 2.77
								 159.53 L0.15 159.53 C0.07 159.53 0 159.23 0 158.85 L0 99.45 C0 99.08 0.07 98.85 0.15 98.85 Z"
							class="st3"/>
				</g>
				<g id="group6298-72" transform="translate(3.15997E-14,-1.08)" v:mID="6298" v:groupContext="group">
					<title>工作表.6298</title>
					<g id="shape6299-73" v:mID="6299" v:groupContext="shape" transform="translate(-5.7454E-15,-36.735)">
						<title>shape22</title>
						<path d="M0.15 156 L1.72 156 C1.8 156 1.87 156.15 1.87 156.3 L1.87 159.23 C1.87 159.38 1.8 159.53 1.72 159.53
									 L0.15 159.53 C0.07 159.53 0 159.38 0 159.23 L0 156.3 C0 156.15 0.07 156 0.15 156 Z"
								class="st3"/>
					</g>
					<g id="shape6300-76" v:mID="6300" v:groupContext="shape" transform="translate(-5.7454E-15,-27.525)">
						<title>shape23</title>
						<path d="M0.15 156 L1.72 156 C1.8 156 1.87 156.15 1.87 156.3 L1.87 159.23 C1.87 159.38 1.8 159.53 1.72 159.53
									 L0.15 159.53 C0.07 159.53 0 159.38 0 159.23 L0 156.3 C0 156.15 0.07 156 0.15 156 Z"
								class="st3"/>
					</g>
					<g id="shape6301-79" v:mID="6301" v:groupContext="shape" transform="translate(-5.7454E-15,-18.3675)">
						<title>shape24</title>
						<path d="M0.15 156 L1.72 156 C1.8 156 1.87 156.15 1.87 156.3 L1.87 159.23 C1.87 159.38 1.8 159.53 1.72 159.53
									 L0.15 159.53 C0.07 159.53 0 159.38 0 159.23 L0 156.3 C0 156.15 0.07 156 0.15 156 Z"
								class="st3"/>
					</g>
					<g id="shape6302-82" v:mID="6302" v:groupContext="shape" transform="translate(-5.7454E-15,-9.18)">
						<title>shape25</title>
						<path d="M0.15 156 L1.72 156 C1.8 156 1.87 156.15 1.87 156.3 L1.87 159.23 C1.87 159.38 1.8 159.53 1.72 159.53
									 L0.15 159.53 C0.07 159.53 0 159.38 0 159.23 L0 156.3 C0 156.15 0.07 156 0.15 156 Z"
								class="st3"/>
					</g>
					<g id="shape6303-85" v:mID="6303" v:groupContext="shape">
						<title>shape26</title>
						<path d="M0.15 156 L1.72 156 C1.8 156 1.87 156.15 1.87 156.3 L1.87 159.23 C1.87 159.38 1.8 159.53 1.72 159.53
									 L0.15 159.53 C0.07 159.53 0 159.38 0 159.23 L0 156.3 C0 156.15 0.07 156 0.15 156 Z"
								class="st3"/>
					</g>
					<g id="shape6304-88" v:mID="6304" v:groupContext="shape" transform="translate(-5.7454E-15,-45.9225)">
						<title>shape27</title>
						<path d="M0.15 156 L1.72 156 C1.8 156 1.87 156.15 1.87 156.3 L1.87 159.23 C1.87 159.38 1.8 159.53 1.72 159.53
									 L0.15 159.53 C0.07 159.53 0 159.38 0 159.23 L0 156.3 C0 156.15 0.07 156 0.15 156 Z"
								class="st3"/>
					</g>
					<g id="shape6305-91" v:mID="6305" v:groupContext="shape" transform="translate(-5.7454E-15,-55.11)">
						<title>shape28</title>
						<path d="M0.15 156 L1.72 156 C1.8 156 1.87 156.15 1.87 156.3 L1.87 159.23 C1.87 159.38 1.8 159.53 1.72 159.53
									 L0.15 159.53 C0.07 159.53 0 159.38 0 159.23 L0 156.3 C0 156.15 0.07 156 0.15 156 Z"
								class="st3"/>
					</g>
				</g>
				<g id="group6306-94" transform="translate(5.55,-1.08)" v:mID="6306" v:groupContext="group">
					<title>工作表.6306</title>
					<g id="shape6307-95" v:mID="6307" v:groupContext="shape" transform="translate(-5.7454E-15,-36.735)">
						<title>shape29</title>
						<path d="M0.15 156 L1.72 156 C1.8 156 1.87 156.15 1.87 156.3 L1.87 159.23 C1.87 159.38 1.8 159.53 1.72 159.53
									 L0.15 159.53 C0.07 159.53 0 159.38 0 159.23 L0 156.3 C0 156.15 0.07 156 0.15 156 Z"
								class="st3"/>
					</g>
					<g id="shape6308-98" v:mID="6308" v:groupContext="shape" transform="translate(-5.7454E-15,-27.525)">
						<title>shape30</title>
						<path d="M0.15 156 L1.72 156 C1.8 156 1.87 156.15 1.87 156.3 L1.87 159.23 C1.87 159.38 1.8 159.53 1.72 159.53
									 L0.15 159.53 C0.07 159.53 0 159.38 0 159.23 L0 156.3 C0 156.15 0.07 156 0.15 156 Z"
								class="st3"/>
					</g>
					<g id="shape6309-101" v:mID="6309" v:groupContext="shape" transform="translate(-5.7454E-15,-18.3675)">
						<title>shape31</title>
						<path d="M0.15 156 L1.72 156 C1.8 156 1.87 156.15 1.87 156.3 L1.87 159.23 C1.87 159.38 1.8 159.53 1.72 159.53
									 L0.15 159.53 C0.07 159.53 0 159.38 0 159.23 L0 156.3 C0 156.15 0.07 156 0.15 156 Z"
								class="st3"/>
					</g>
					<g id="shape6310-104" v:mID="6310" v:groupContext="shape" transform="translate(-5.7454E-15,-9.18)">
						<title>shape32</title>
						<path d="M0.15 156 L1.72 156 C1.8 156 1.87 156.15 1.87 156.3 L1.87 159.23 C1.87 159.38 1.8 159.53 1.72 159.53
									 L0.15 159.53 C0.07 159.53 0 159.38 0 159.23 L0 156.3 C0 156.15 0.07 156 0.15 156 Z"
								class="st3"/>
					</g>
					<g id="shape6311-107" v:mID="6311" v:groupContext="shape">
						<title>shape33</title>
						<path d="M0.15 156 L1.72 156 C1.8 156 1.87 156.15 1.87 156.3 L1.87 159.23 C1.87 159.38 1.8 159.53 1.72 159.53
									 L0.15 159.53 C0.07 159.53 0 159.38 0 159.23 L0 156.3 C0 156.15 0.07 156 0.15 156 Z"
								class="st3"/>
					</g>
					<g id="shape6312-110" v:mID="6312" v:groupContext="shape" transform="translate(-5.7454E-15,-45.9225)">
						<title>shape34</title>
						<path d="M0.15 156 L1.72 156 C1.8 156 1.87 156.15 1.87 156.3 L1.87 159.23 C1.87 159.38 1.8 159.53 1.72 159.53
									 L0.15 159.53 C0.07 159.53 0 159.38 0 159.23 L0 156.3 C0 156.15 0.07 156 0.15 156 Z"
								class="st3"/>
					</g>
					<g id="shape6313-113" v:mID="6313" v:groupContext="shape" transform="translate(-5.7454E-15,-55.11)">
						<title>shape35</title>
						<path d="M0.15 156 L1.72 156 C1.8 156 1.87 156.15 1.87 156.3 L1.87 159.23 C1.87 159.38 1.8 159.53 1.72 159.53
									 L0.15 159.53 C0.07 159.53 0 159.38 0 159.23 L0 156.3 C0 156.15 0.07 156 0.15 156 Z"
								class="st3"/>
					</g>
				</g>
			</g>
			<g id="group6314-116" transform="translate(159.525,119.775) rotate(90)" v:mID="6314" v:groupContext="group">
				<title>工作表.6314</title>
				<g id="shape6315-117" v:mID="6315" v:groupContext="shape" transform="translate(14.115,-3.5475) scale(-1,1)">
					<title>shape36</title>
					<path d="M0 159.53 L13.27 159.53 L13.27 146.93 L0 146.93 L0 159.53 Z" class="st4"/>
				</g>
				<g id="shape6316-121" v:mID="6316" v:groupContext="shape" transform="translate(14.925,-5.68434E-14) scale(-1,1)">
					<title>shape37</title>
					<path d="M0 159.53 L14.92 159.53 L14.92 154.8 L0 154.8 L0 159.53 Z" class="st4"/>
				</g>
			</g>
			<g id="group6317-124" transform="translate(159.525,26.4) rotate(90)" v:mID="6317" v:groupContext="group">
				<title>工作表.6317</title>
				<g id="shape6318-125" v:mID="6318" v:groupContext="shape" transform="translate(14.115,-3.5475) scale(-1,1)">
					<title>shape38</title>
					<path d="M0 159.53 L13.27 159.53 L13.27 146.93 L0 146.93 L0 159.53 Z" class="st4"/>
				</g>
				<g id="shape6319-128" v:mID="6319" v:groupContext="shape" transform="translate(14.925,-5.68434E-14) scale(-1,1)">
					<title>shape39</title>
					<path d="M0 159.53 L14.92 159.53 L14.92 154.8 L0 154.8 L0 159.53 Z" class="st4"/>
				</g>
			</g>
			<g id="group6320-131" transform="translate(-73.005,134.7) rotate(-90)" v:mID="6320" v:groupContext="group">
				<title>工作表.6320</title>
				<g id="shape6321-132" v:mID="6321" v:groupContext="shape" transform="translate(0.81,-3.5475)">
					<title>shape40</title>
					<path d="M0 159.53 L13.27 159.53 L13.27 146.93 L0 146.93 L0 159.53 Z" class="st4"/>
				</g>
				<g id="shape6322-135" v:mID="6322" v:groupContext="shape">
					<title>shape41</title>
					<path d="M0 159.53 L14.92 159.53 L14.92 154.8 L0 154.8 L0 159.53 Z" class="st4"/>
				</g>
			</g>
			<g id="group6323-138" transform="translate(-73.005,41.325) rotate(-90)" v:mID="6323" v:groupContext="group">
				<title>工作表.6323</title>
				<g id="shape6324-139" v:mID="6324" v:groupContext="shape" transform="translate(0.81,-3.5475)">
					<title>shape42</title>
					<path d="M0 159.53 L13.27 159.53 L13.27 146.93 L0 146.93 L0 159.53 Z" class="st4"/>
				</g>
				<g id="shape6325-142" v:mID="6325" v:groupContext="shape">
					<title>shape43</title>
					<path d="M0 159.53 L14.92 159.53 L14.92 154.8 L0 154.8 L0 159.53 Z" class="st4"/>
				</g>
			</g>
		</g>
	</g>
</svg>
