<?xml version="1.0" encoding="UTF-8" standalone="no"?>
<!DOCTYPE svg PUBLIC "-//W3C//DTD SVG 1.1//EN" "http://www.w3.org/Graphics/SVG/1.1/DTD/svg11.dtd">
<!-- 由 Microsoft Visio, SVG Export 生成 罐.svg 页-1 -->
<svg xmlns="http://www.w3.org/2000/svg" xmlns:xlink="http://www.w3.org/1999/xlink" xmlns:ev="http://www.w3.org/2001/xml-events"
		xmlns:v="http://schemas.microsoft.com/visio/2003/SVGExtensions/" width="1.72375in" height="1.21365in"
		viewBox="0 0 124.11 87.3825" xml:space="preserve" color-interpolation-filters="sRGB" class="st11">
	<v:documentProperties v:langID="2052" v:metric="true" v:viewMarkup="false"/>

	<style type="text/css">
	<![CDATA[
		.st1 {fill:url(#grad0-6);stroke:none;stroke-linecap:butt;stroke-width:0.75}
		.st2 {fill:url(#grad0-10);stroke:none;stroke-linecap:butt;stroke-width:0.75}
		.st3 {fill:url(#grad0-14);stroke:none;stroke-linecap:butt;stroke-width:0.75}
		.st4 {fill:url(#grad3-18);stroke:#d4d6db;stroke-linecap:butt;stroke-width:0.1875}
		.st5 {fill:url(#grad0-25);stroke:none;stroke-linecap:butt;stroke-width:0.75}
		.st6 {fill:url(#grad0-29);stroke:none;stroke-linecap:butt;stroke-width:0.75}
		.st7 {fill:url(#grad0-39);stroke:none;stroke-linecap:butt;stroke-width:0.75}
		.st8 {fill:url(#grad0-61);stroke:none;stroke-linecap:butt;stroke-width:0.75}
		.st9 {fill:url(#grad0-65);stroke:none;stroke-linecap:butt;stroke-width:0.75}
		.st10 {fill:url(#grad0-73);stroke:none;stroke-linecap:butt;stroke-width:0.75}
		.st11 {fill:none;fill-rule:evenodd;font-size:12px;overflow:visible;stroke-linecap:square;stroke-miterlimit:3}
	]]>
	</style>

	<defs id="Patterns_And_Gradients">
		<linearGradient id="grad0-6" x1="0" y1="0" x2="1" y2="0" gradientTransform="rotate(-180 0.5 0.5)">
			<stop offset="0" stop-color="#7b684c" stop-opacity="1"/>
			<stop offset="0.09" stop-color="#c3b19a" stop-opacity="1"/>
			<stop offset="0.16" stop-color="#a18965" stop-opacity="1"/>
			<stop offset="0.64" stop-color="#9e8763" stop-opacity="1"/>
			<stop offset="0.92" stop-color="#9b8361" stop-opacity="1"/>
			<stop offset="1" stop-color="#726046" stop-opacity="1"/>
		</linearGradient>
		<linearGradient id="grad0-10" x1="0" y1="0" x2="1" y2="0" gradientTransform="rotate(90 0.5 0.5)">
			<stop offset="0" stop-color="#7b684c" stop-opacity="1"/>
			<stop offset="0.09" stop-color="#c3b19a" stop-opacity="1"/>
			<stop offset="0.16" stop-color="#a18965" stop-opacity="1"/>
			<stop offset="0.64" stop-color="#9e8763" stop-opacity="1"/>
			<stop offset="0.92" stop-color="#9b8361" stop-opacity="1"/>
			<stop offset="1" stop-color="#726046" stop-opacity="1"/>
		</linearGradient>
		<linearGradient id="grad0-14" x1="0" y1="0" x2="1" y2="0" gradientTransform="rotate(-180 0.5 0.5)">
			<stop offset="0" stop-color="#9c8561" stop-opacity="1"/>
			<stop offset="0.15" stop-color="#d6ba90" stop-opacity="1"/>
			<stop offset="0.25" stop-color="#e8dac8" stop-opacity="1"/>
			<stop offset="0.52" stop-color="#b89d74" stop-opacity="1"/>
			<stop offset="0.69" stop-color="#a48b66" stop-opacity="1"/>
			<stop offset="0.8" stop-color="#9b8360" stop-opacity="1"/>
			<stop offset="0.92" stop-color="#927c5a" stop-opacity="1"/>
			<stop offset="1" stop-color="#a88f69" stop-opacity="1"/>
		</linearGradient>
		<radialGradient id="grad3-18" cx="0.5" cy="0.5" r="0.73">
			<stop offset="0" stop-color="#c1aa87" stop-opacity="1"/>
			<stop offset="0.91" stop-color="#c1aa87" stop-opacity="1"/>
		</radialGradient>
		<linearGradient id="grad0-25" x1="0" y1="0" x2="1" y2="0" gradientTransform="rotate(0 0.5 0.5)">
			<stop offset="0" stop-color="#86693d" stop-opacity="1"/>
			<stop offset="0.66" stop-color="#e1cfbd" stop-opacity="1"/>
			<stop offset="1" stop-color="#82653b" stop-opacity="1"/>
		</linearGradient>
		<linearGradient id="grad0-29" x1="0" y1="0" x2="1" y2="0" gradientTransform="rotate(-180 0.5 0.5)">
			<stop offset="0" stop-color="#968364" stop-opacity="1"/>
			<stop offset="0.09" stop-color="#decaae" stop-opacity="1"/>
			<stop offset="0.16" stop-color="#c4ab84" stop-opacity="1"/>
			<stop offset="0.64" stop-color="#c1a882" stop-opacity="1"/>
			<stop offset="0.92" stop-color="#bca47f" stop-opacity="1"/>
			<stop offset="1" stop-color="#8b795d" stop-opacity="1"/>
		</linearGradient>
		<linearGradient id="grad0-39" x1="0" y1="0" x2="1" y2="0" gradientTransform="rotate(90 0.5 0.5)">
			<stop offset="0" stop-color="#9c8561" stop-opacity="1"/>
			<stop offset="0.15" stop-color="#d6ba90" stop-opacity="1"/>
			<stop offset="0.25" stop-color="#e8dac8" stop-opacity="1"/>
			<stop offset="0.52" stop-color="#b89d74" stop-opacity="1"/>
			<stop offset="0.69" stop-color="#a48b66" stop-opacity="1"/>
			<stop offset="0.8" stop-color="#9b8360" stop-opacity="1"/>
			<stop offset="0.92" stop-color="#927c5a" stop-opacity="1"/>
			<stop offset="1" stop-color="#a88f69" stop-opacity="1"/>
		</linearGradient>
		<linearGradient id="grad0-61" x1="0" y1="0" x2="1" y2="0" gradientTransform="rotate(90 0.5 0.5)">
			<stop offset="0" stop-color="#7e7f7f" stop-opacity="1"/>
			<stop offset="0.09" stop-color="#c6c7c7" stop-opacity="1"/>
			<stop offset="0.16" stop-color="#a6a6a6" stop-opacity="1"/>
			<stop offset="0.64" stop-color="#a3a4a4" stop-opacity="1"/>
			<stop offset="0.92" stop-color="#9fa0a0" stop-opacity="1"/>
			<stop offset="1" stop-color="#757676" stop-opacity="1"/>
		</linearGradient>
		<linearGradient id="grad0-65" x1="0" y1="0" x2="1" y2="0" gradientTransform="rotate(-180 0.5 0.5)">
			<stop offset="0" stop-color="#979898" stop-opacity="1"/>
			<stop offset="0.15" stop-color="#d0d1d1" stop-opacity="1"/>
			<stop offset="0.25" stop-color="#e5e6e6" stop-opacity="1"/>
			<stop offset="0.52" stop-color="#b3b4b4" stop-opacity="1"/>
			<stop offset="0.69" stop-color="#9fa0a0" stop-opacity="1"/>
			<stop offset="0.8" stop-color="#969797" stop-opacity="1"/>
			<stop offset="0.92" stop-color="#8e8e8e" stop-opacity="1"/>
			<stop offset="1" stop-color="#a3a4a4" stop-opacity="1"/>
		</linearGradient>
		<linearGradient id="grad0-73" x1="0" y1="0" x2="1" y2="0" gradientTransform="rotate(-180 0.5 0.5)">
			<stop offset="0" stop-color="#7e7f7f" stop-opacity="1"/>
			<stop offset="0.09" stop-color="#c6c7c7" stop-opacity="1"/>
			<stop offset="0.16" stop-color="#a6a6a6" stop-opacity="1"/>
			<stop offset="0.64" stop-color="#a3a4a4" stop-opacity="1"/>
			<stop offset="0.92" stop-color="#9fa0a0" stop-opacity="1"/>
			<stop offset="1" stop-color="#757676" stop-opacity="1"/>
		</linearGradient>
	</defs>
	<g v:mID="0" v:index="1" v:groupContext="foregroundPage">
		<title>页-1</title>
		<v:pageProperties v:drawingScale="0.0393701" v:pageScale="0.0393701" v:drawingUnits="24" v:shadowOffsetX="8.50394"
				v:shadowOffsetY="-8.50394"/>
		<g id="group4641-1" transform="translate(0.1875,-0.75)" v:mID="4641" v:groupContext="group">
			<title>锅炉</title>
			<g id="group4642-2" transform="translate(59.2575,-72.495)" v:mID="4642" v:groupContext="group">
				<title>工作表.4642</title>
				<g id="shape4643-3" v:mID="4643" v:groupContext="shape" transform="translate(1.3725,7.10543E-14)">
					<title>shape1</title>
					<path d="M0 87.38 L11.47 87.38 L11.47 75.23 L0 75.23 L0 87.38 Z" class="st1"/>
				</g>
				<g id="shape4644-7" v:mID="4644" v:groupContext="shape" transform="translate(-1.28897E-13,-11.9625)">
					<title>shape2</title>
					<path d="M0 87.38 L14.25 87.38 L14.25 85.96 L0 85.96 L0 87.38 Z" class="st2"/>
				</g>
			</g>
			<g id="shape4645-11" v:mID="4645" v:groupContext="shape" transform="translate(99.1575,56.025) rotate(90) scale(-1,1)">
				<title>shape3</title>
				<path d="M0 71.71 L9.97 71.71 L9.97 87.38 L0 87.38 L0 71.71 Z" class="st3"/>
			</g>
			<g id="shape4646-15" v:mID="4646" v:groupContext="shape" transform="translate(87.3825,69.75) rotate(90) scale(-1,1)">
				<title>shape4</title>
				<path d="M0 75.53 C0 69.01 5.32 63.76 11.85 63.76 C18.37 63.76 23.7 69.01 23.7 75.53 C23.7 82.06 18.37 87.38 11.85
							 87.38 C5.32 87.38 0 82.06 0 75.53 Z" class="st4"/>
			</g>
			<g id="shape4647-19" v:mID="4647" v:groupContext="shape" transform="translate(114.832,56.55) rotate(90) scale(-1,1)">
				<title>shape5</title>
				<path d="M0.37 85.96 L10.57 85.96 C10.72 85.96 10.95 86.26 10.95 86.63 C10.95 87.01 10.72 87.38 10.57 87.38 L0.37
							 87.38 C0.15 87.38 0 87.01 0 86.63 C0 86.26 0.15 85.96 0.37 85.96 Z" class="st3"/>
			</g>
			<g id="shape4648-22" v:mID="4648" v:groupContext="shape" transform="translate(114.832,56.55) rotate(90) scale(-1,1)">
				<title>shape6</title>
				<path d="M10.8 86.93 C10.8 87.16 10.65 87.38 10.5 87.38 L0.38 87.38 C0.15 87.38 0 87.16 0 86.93 C0 86.93 10.8 86.93
							 10.8 86.93 Z" class="st5"/>
			</g>
			<g id="shape4649-26" v:mID="4649" v:groupContext="shape" transform="translate(19.875,137.182) rotate(180)">
				<title>shape7</title>
				<path d="M0 79.28 C0 74.78 3.6 71.11 8.1 71.11 C12.6 71.11 16.2 74.78 16.2 79.28 C16.2 83.71 12.6 87.38 8.1 87.38
							 C3.6 87.38 0 83.71 0 79.28 Z" class="st6"/>
			</g>
			<g id="shape4650-30" v:mID="4650" v:groupContext="shape" transform="translate(3.87,-13.2075)">
				<title>shape8</title>
				<path d="M0 72.31 L15.98 72.31 L15.98 87.38 L0 87.38 L0 72.31 Z" class="st6"/>
			</g>
			<g id="shape4651-33" v:mID="4651" v:groupContext="shape" transform="translate(3.87,-13.1775)">
				<title>shape9</title>
				<path d="M0 83.93 L15.98 83.93 L15.98 87.38 L0 87.38 L0 83.93 Z" class="st1"/>
			</g>
			<g id="shape4652-36" v:mID="4652" v:groupContext="shape" transform="translate(30.255,-17.28)">
				<title>shape10</title>
				<path d="M0 32.18 L90.6 32.18 L90.6 87.38 L0 87.38 L0 32.18 Z" class="st7"/>
			</g>
			<g id="shape4653-40" v:mID="4653" v:groupContext="shape" transform="translate(72.045,-72.5025)">
				<title>shape11</title>
				<path d="M0 87.38 L46.73 87.38 L46.73 78.23 L0 78.23 L0 87.38 Z" class="st2"/>
			</g>
			<g id="shape4654-43" v:mID="4654" v:groupContext="shape" transform="translate(28.1475,-16.44)">
				<title>shape12</title>
				<path d="M1.05 30.46 C1.65 30.46 2.1 30.91 2.1 31.51 L2.1 86.33 C2.1 86.93 1.65 87.38 1.05 87.38 C0.45 87.38 0 86.93
							 0 86.33 L0 31.51 C0 30.91 0.45 30.46 1.05 30.46 Z" class="st7"/>
			</g>
			<g id="shape4655-46" v:mID="4655" v:groupContext="shape" transform="translate(120.862,-16.44)">
				<title>shape13</title>
				<path d="M1.05 30.46 C1.65 30.46 2.1 30.91 2.1 31.51 L2.1 86.33 C2.1 86.93 1.65 87.38 1.05 87.38 C0.45 87.38 0 86.93
							 0 86.33 L0 31.51 C0 30.91 0.45 30.46 1.05 30.46 Z" class="st7"/>
			</g>
			<g id="shape4656-49" v:mID="4656" v:groupContext="shape" transform="translate(40.965,-5.82)">
				<title>shape14</title>
				<path d="M0 87.38 L5.77 87.38 L5.77 69.83 L0 69.83 L0 87.38 Z" class="st1"/>
			</g>
			<g id="shape4657-52" v:mID="4657" v:groupContext="shape" transform="translate(105.405,-5.82)">
				<title>shape15</title>
				<path d="M0 87.38 L5.77 87.38 L5.77 69.83 L0 69.83 L0 87.38 Z" class="st1"/>
			</g>
			<g id="shape4658-55" v:mID="4658" v:groupContext="shape" transform="translate(28.6725,4.26326E-14)">
				<title>shape16</title>
				<path d="M0 81.38 L94.5 81.38 L94.5 87.38 L0 87.38 L0 81.38 Z" class="st2"/>
			</g>
			<g id="shape4659-58" v:mID="4659" v:groupContext="shape" transform="translate(52.9425,-69.855)">
				<title>shape17</title>
				<path d="M0 84.76 L45.23 84.76 L45.23 87.38 L0 87.38 L0 84.76 Z" class="st8"/>
			</g>
			<g id="shape4660-62" v:mID="4660" v:groupContext="shape" transform="translate(67.785,-1.605)">
				<title>shape18</title>
				<path d="M0 16.51 L1.95 16.51 L1.95 87.38 L0 87.38 L0 16.51 Z" class="st9"/>
			</g>
			<g id="shape4661-66" v:mID="4661" v:groupContext="shape" transform="translate(81.3975,-1.605)">
				<title>shape19</title>
				<path d="M0 16.51 L1.95 16.51 L1.95 87.38 L0 87.38 L0 16.51 Z" class="st9"/>
			</g>
			<g id="group4662-69" transform="translate(67.35,-1.4175)" v:mID="4662" v:groupContext="group">
				<title>工作表.4662</title>
				<g id="shape4663-70" v:mID="4663" v:groupContext="shape">
					<title>shape20</title>
					<path d="M0 84.38 L2.78 84.38 L2.78 87.38 L0 87.38 L0 84.38 Z" class="st10"/>
				</g>
				<g id="shape4664-74" v:mID="4664" v:groupContext="shape" transform="translate(13.605,2.84217E-14)">
					<title>shape21</title>
					<path d="M0 84.38 L2.78 84.38 L2.78 87.38 L0 87.38 L0 84.38 Z" class="st10"/>
				</g>
			</g>
			<g id="group4665-77" transform="translate(67.35,-69.5325)" v:mID="4665" v:groupContext="group">
				<title>工作表.4665</title>
				<g id="shape4666-78" v:mID="4666" v:groupContext="shape">
					<title>shape22</title>
					<path d="M0 84.38 L2.78 84.38 L2.78 87.38 L0 87.38 L0 84.38 Z" class="st10"/>
				</g>
				<g id="shape4667-81" v:mID="4667" v:groupContext="shape" transform="translate(13.605,2.84217E-14)">
					<title>shape23</title>
					<path d="M0 84.38 L2.78 84.38 L2.78 87.38 L0 87.38 L0 84.38 Z" class="st10"/>
				</g>
			</g>
			<g id="shape4668-84" v:mID="4668" v:groupContext="shape" transform="translate(-5.6325,78.375) rotate(-90)">
				<title>shape24</title>
				<path d="M0 75.23 L1.95 75.23 L1.95 87.38 L0 87.38 L0 75.23 Z" class="st9"/>
			</g>
			<g id="shape4669-87" v:mID="4669" v:groupContext="shape" transform="translate(-5.6325,52.35) rotate(-90)">
				<title>shape25</title>
				<path d="M0 75.23 L1.95 75.23 L1.95 87.38 L0 87.38 L0 75.23 Z" class="st9"/>
			</g>
			<g id="shape4670-90" v:mID="4670" v:groupContext="shape" transform="translate(-5.6325,39.375) rotate(-90)">
				<title>shape26</title>
				<path d="M0 75.23 L1.95 75.23 L1.95 87.38 L0 87.38 L0 75.23 Z" class="st9"/>
			</g>
			<g id="shape4671-93" v:mID="4671" v:groupContext="shape" transform="translate(-5.6325,26.4) rotate(-90)">
				<title>shape27</title>
				<path d="M0 75.23 L1.95 75.23 L1.95 87.38 L0 87.38 L0 75.23 Z" class="st9"/>
			</g>
			<g id="shape4672-96" v:mID="4672" v:groupContext="shape" transform="translate(-5.6325,65.4) rotate(-90)">
				<title>shape28</title>
				<path d="M0 75.23 L1.95 75.23 L1.95 87.38 L0 87.38 L0 75.23 Z" class="st9"/>
			</g>
		</g>
	</g>
</svg>
