<?xml version="1.0" encoding="UTF-8" standalone="no"?>
<!DOCTYPE svg PUBLIC "-//W3C//DTD SVG 1.1//EN" "http://www.w3.org/Graphics/SVG/1.1/DTD/svg11.dtd">
<!-- 由 Microsoft Visio, SVG Export 生成 罐31.svg 页-1 -->
<svg xmlns="http://www.w3.org/2000/svg" xmlns:xlink="http://www.w3.org/1999/xlink" xmlns:ev="http://www.w3.org/2001/xml-events"
		xmlns:v="http://schemas.microsoft.com/visio/2003/SVGExtensions/" width="0.901042in" height="1.0999in"
		viewBox="0 0 64.875 79.1925" xml:space="preserve" color-interpolation-filters="sRGB" class="st25">
	<v:documentProperties v:langID="2052" v:metric="true" v:viewMarkup="false"/>

	<style type="text/css">
	<![CDATA[
		.st1 {fill:url(#grad0-6);stroke:none;stroke-linecap:butt;stroke-width:0.75}
		.st2 {fill:url(#grad0-13);stroke:none;stroke-linecap:butt;stroke-width:0.75}
		.st3 {fill:url(#grad0-18);stroke:none;stroke-linecap:butt;stroke-width:0.75}
		.st4 {fill:url(#grad0-58);stroke:none;stroke-linecap:butt;stroke-width:0.75}
		.st5 {fill:url(#grad0-62);stroke:none;stroke-linecap:butt;stroke-width:0.75}
		.st6 {fill:url(#grad0-66);stroke:none;stroke-linecap:butt;stroke-width:0.75}
		.st7 {fill:url(#grad0-70);stroke:none;stroke-linecap:butt;stroke-width:0.75}
		.st8 {fill:url(#grad0-77);stroke:none;stroke-linecap:butt;stroke-width:0.75}
		.st9 {fill:url(#grad0-91);stroke:none;stroke-linecap:butt;stroke-width:0.75}
		.st10 {fill:url(#grad0-107);stroke:none;stroke-linecap:butt;stroke-width:0.75}
		.st11 {fill:url(#grad0-112);stroke:none;stroke-linecap:butt;stroke-width:0.75}
		.st12 {fill:#937a54;stroke:none;stroke-linecap:butt;stroke-width:0.75}
		.st13 {fill:#ffffff;stroke:none;stroke-linecap:butt;stroke-width:0.75}
		.st14 {fill:url(#grad0-141);stroke:none;stroke-linecap:butt;stroke-width:0.75}
		.st15 {fill:url(#grad0-149);stroke:none;stroke-linecap:butt;stroke-width:0.75}
		.st16 {fill:url(#grad0-153);stroke:none;stroke-linecap:butt;stroke-width:0.75}
		.st17 {fill:url(#grad0-181);stroke:none;stroke-linecap:butt;stroke-width:0.75}
		.st18 {fill:#000000;stroke:none;stroke-linecap:butt;stroke-width:0.75}
		.st19 {fill:#3e3938;stroke:none;stroke-linecap:butt;stroke-width:0.75}
		.st20 {fill:#276f71;stroke:none;stroke-linecap:butt;stroke-width:0.75}
		.st21 {fill:url(#grad0-196);stroke:#ffffff;stroke-linecap:butt;stroke-width:0.75}
		.st22 {fill:#7d040f;stroke:none;stroke-linecap:butt;stroke-width:0.75}
		.st23 {fill:url(#grad0-203);stroke:#ffffff;stroke-linecap:butt;stroke-width:0.75}
		.st24 {fill:none;stroke:#dcdcdd;stroke-linecap:butt;stroke-width:0.1875}
		.st25 {fill:none;fill-rule:evenodd;font-size:12px;overflow:visible;stroke-linecap:square;stroke-miterlimit:3}
	]]>
	</style>

	<defs id="Patterns_And_Gradients">
		<linearGradient id="grad0-6" x1="0" y1="0" x2="1" y2="0" gradientTransform="rotate(0 0.5 0.5)">
			<stop offset="0" stop-color="#949990" stop-opacity="1"/>
			<stop offset="0.15" stop-color="#cdd2c7" stop-opacity="1"/>
			<stop offset="0.25" stop-color="#e3e6e1" stop-opacity="1"/>
			<stop offset="0.52" stop-color="#b0b5aa" stop-opacity="1"/>
			<stop offset="0.69" stop-color="#9ca197" stop-opacity="1"/>
			<stop offset="0.8" stop-color="#93988f" stop-opacity="1"/>
			<stop offset="0.92" stop-color="#8b8f86" stop-opacity="1"/>
			<stop offset="1" stop-color="#a0a59b" stop-opacity="1"/>
		</linearGradient>
		<linearGradient id="grad0-13" x1="0" y1="0" x2="1" y2="0" gradientTransform="rotate(0 0.5 0.5)">
			<stop offset="0" stop-color="#7b7e77" stop-opacity="1"/>
			<stop offset="0.15" stop-color="#aeb2aa" stop-opacity="1"/>
			<stop offset="0.25" stop-color="#d5d7d3" stop-opacity="1"/>
			<stop offset="0.52" stop-color="#92968d" stop-opacity="1"/>
			<stop offset="0.69" stop-color="#81857d" stop-opacity="1"/>
			<stop offset="0.8" stop-color="#7a7d76" stop-opacity="1"/>
			<stop offset="0.92" stop-color="#73766f" stop-opacity="1"/>
			<stop offset="1" stop-color="#848880" stop-opacity="1"/>
		</linearGradient>
		<linearGradient id="grad0-18" x1="0" y1="0" x2="1" y2="0" gradientTransform="rotate(90 0.5 0.5)">
			<stop offset="0" stop-color="#949990" stop-opacity="1"/>
			<stop offset="0.15" stop-color="#cdd2c7" stop-opacity="1"/>
			<stop offset="0.25" stop-color="#e3e6e1" stop-opacity="1"/>
			<stop offset="0.52" stop-color="#b0b5aa" stop-opacity="1"/>
			<stop offset="0.69" stop-color="#9ca197" stop-opacity="1"/>
			<stop offset="0.8" stop-color="#93988f" stop-opacity="1"/>
			<stop offset="0.92" stop-color="#8b8f86" stop-opacity="1"/>
			<stop offset="1" stop-color="#a0a59b" stop-opacity="1"/>
		</linearGradient>
		<linearGradient id="grad0-58" x1="0" y1="0" x2="1" y2="0" gradientTransform="rotate(90 0.5 0.5)">
			<stop offset="0" stop-color="#886638" stop-opacity="1"/>
			<stop offset="0.13" stop-color="#bd9666" stop-opacity="1"/>
			<stop offset="0.18" stop-color="#dccbba" stop-opacity="1"/>
			<stop offset="0.38" stop-color="#a17a44" stop-opacity="1"/>
			<stop offset="0.54" stop-color="#8f6c3c" stop-opacity="1"/>
			<stop offset="0.8" stop-color="#866538" stop-opacity="1"/>
			<stop offset="0.92" stop-color="#7f5f34" stop-opacity="1"/>
		</linearGradient>
		<linearGradient id="grad0-62" x1="0" y1="0" x2="1" y2="0" gradientTransform="rotate(-180 0.5 0.5)">
			<stop offset="0" stop-color="#2b2827" stop-opacity="1"/>
			<stop offset="0.15" stop-color="#5b5858" stop-opacity="1"/>
			<stop offset="0.32" stop-color="#b8b7b7" stop-opacity="1"/>
			<stop offset="0.56" stop-color="#353130" stop-opacity="1"/>
			<stop offset="0.75" stop-color="#2e2a29" stop-opacity="1"/>
			<stop offset="0.8" stop-color="#2b2726" stop-opacity="1"/>
			<stop offset="0.92" stop-color="#282424" stop-opacity="1"/>
			<stop offset="1" stop-color="#2f2b2b" stop-opacity="1"/>
		</linearGradient>
		<linearGradient id="grad0-66" x1="0" y1="0" x2="1" y2="0" gradientTransform="rotate(-180 0.5 0.5)">
			<stop offset="0" stop-color="#949990" stop-opacity="1"/>
			<stop offset="0.15" stop-color="#cdd2c7" stop-opacity="1"/>
			<stop offset="0.25" stop-color="#e3e6e1" stop-opacity="1"/>
			<stop offset="0.52" stop-color="#b0b5aa" stop-opacity="1"/>
			<stop offset="0.69" stop-color="#9ca197" stop-opacity="1"/>
			<stop offset="0.8" stop-color="#93988f" stop-opacity="1"/>
			<stop offset="0.97" stop-color="#8b8f86" stop-opacity="1"/>
			<stop offset="1" stop-color="#a0a59b" stop-opacity="1"/>
		</linearGradient>
		<linearGradient id="grad0-70" x1="0" y1="0" x2="1" y2="0" gradientTransform="rotate(-180 0.5 0.5)">
			<stop offset="0" stop-color="#7a866f" stop-opacity="1"/>
			<stop offset="0.15" stop-color="#adbba0" stop-opacity="1"/>
			<stop offset="0.25" stop-color="#d4dbce" stop-opacity="1"/>
			<stop offset="0.52" stop-color="#919f84" stop-opacity="1"/>
			<stop offset="0.69" stop-color="#808d75" stop-opacity="1"/>
			<stop offset="0.8" stop-color="#79856e" stop-opacity="1"/>
			<stop offset="0.92" stop-color="#727d67" stop-opacity="1"/>
			<stop offset="1" stop-color="#839077" stop-opacity="1"/>
		</linearGradient>
		<linearGradient id="grad0-77" x1="0" y1="0" x2="1" y2="0" gradientTransform="rotate(-180 0.5 0.5)">
			<stop offset="0" stop-color="#7d7c84" stop-opacity="1"/>
			<stop offset="0.03" stop-color="#c5c4cc" stop-opacity="1"/>
			<stop offset="0.08" stop-color="#a4a3ad" stop-opacity="1"/>
			<stop offset="0.64" stop-color="#a1a0aa" stop-opacity="1"/>
			<stop offset="0.95" stop-color="#9d9ca6" stop-opacity="1"/>
			<stop offset="1" stop-color="#74737a" stop-opacity="1"/>
		</linearGradient>
		<linearGradient id="grad0-91" x1="0" y1="0" x2="1" y2="0" gradientTransform="rotate(-180 0.5 0.5)">
			<stop offset="0" stop-color="#82818c" stop-opacity="1"/>
			<stop offset="0.15" stop-color="#b7b5c3" stop-opacity="1"/>
			<stop offset="0.25" stop-color="#d9d8de" stop-opacity="1"/>
			<stop offset="0.52" stop-color="#9a99a6" stop-opacity="1"/>
			<stop offset="0.69" stop-color="#898893" stop-opacity="1"/>
			<stop offset="0.8" stop-color="#81808b" stop-opacity="1"/>
			<stop offset="0.92" stop-color="#7a7883" stop-opacity="1"/>
			<stop offset="1" stop-color="#8c8b97" stop-opacity="1"/>
		</linearGradient>
		<linearGradient id="grad0-107" x1="0" y1="0" x2="1" y2="0" gradientTransform="rotate(-180 0.5 0.5)">
			<stop offset="0" stop-color="#9a908b" stop-opacity="1"/>
			<stop offset="0.03" stop-color="#e2d7d3" stop-opacity="1"/>
			<stop offset="0.08" stop-color="#c9bcb6" stop-opacity="1"/>
			<stop offset="0.64" stop-color="#c5b9b3" stop-opacity="1"/>
			<stop offset="0.95" stop-color="#c1b4af" stop-opacity="1"/>
			<stop offset="1" stop-color="#8f8581" stop-opacity="1"/>
		</linearGradient>
		<linearGradient id="grad0-112" x1="0" y1="0" x2="1" y2="0" gradientTransform="rotate(90 0.5 0.5)">
			<stop offset="0" stop-color="#9c8561" stop-opacity="1"/>
			<stop offset="0.13" stop-color="#d6ba90" stop-opacity="1"/>
			<stop offset="0.18" stop-color="#e8dac8" stop-opacity="1"/>
			<stop offset="0.38" stop-color="#b89d74" stop-opacity="1"/>
			<stop offset="0.54" stop-color="#a48b66" stop-opacity="1"/>
			<stop offset="0.8" stop-color="#9b8360" stop-opacity="1"/>
			<stop offset="0.92" stop-color="#927c5a" stop-opacity="1"/>
		</linearGradient>
		<linearGradient id="grad0-141" x1="0" y1="0" x2="1" y2="0" gradientTransform="rotate(-180 0.5 0.5)">
			<stop offset="0" stop-color="#93846e" stop-opacity="1"/>
			<stop offset="0.03" stop-color="#daccb7" stop-opacity="1"/>
			<stop offset="0.08" stop-color="#bfad91" stop-opacity="1"/>
			<stop offset="0.64" stop-color="#bcaa8f" stop-opacity="1"/>
			<stop offset="0.95" stop-color="#b8a68b" stop-opacity="1"/>
			<stop offset="1" stop-color="#887a66" stop-opacity="1"/>
		</linearGradient>
		<linearGradient id="grad0-149" x1="0" y1="0" x2="1" y2="0" gradientTransform="rotate(-180 0.5 0.5)">
			<stop offset="0" stop-color="#979898" stop-opacity="1"/>
			<stop offset="0.15" stop-color="#d0d1d1" stop-opacity="1"/>
			<stop offset="0.25" stop-color="#e5e6e6" stop-opacity="1"/>
			<stop offset="0.52" stop-color="#b3b4b4" stop-opacity="1"/>
			<stop offset="0.69" stop-color="#9fa0a0" stop-opacity="1"/>
			<stop offset="0.8" stop-color="#969797" stop-opacity="1"/>
			<stop offset="0.92" stop-color="#8e8e8e" stop-opacity="1"/>
			<stop offset="1" stop-color="#a3a4a4" stop-opacity="1"/>
		</linearGradient>
		<linearGradient id="grad0-153" x1="0" y1="0" x2="1" y2="0" gradientTransform="rotate(-180 0.5 0.5)">
			<stop offset="0" stop-color="#7e7f7f" stop-opacity="1"/>
			<stop offset="0.09" stop-color="#c6c7c7" stop-opacity="1"/>
			<stop offset="0.16" stop-color="#a6a6a6" stop-opacity="1"/>
			<stop offset="0.64" stop-color="#a3a4a4" stop-opacity="1"/>
			<stop offset="0.92" stop-color="#9fa0a0" stop-opacity="1"/>
			<stop offset="1" stop-color="#757676" stop-opacity="1"/>
		</linearGradient>
		<linearGradient id="grad0-181" x1="0" y1="0" x2="1" y2="0" gradientTransform="rotate(-180 0.5 0.5)">
			<stop offset="0" stop-color="#858585" stop-opacity="1"/>
			<stop offset="0.13" stop-color="#babbbb" stop-opacity="1"/>
			<stop offset="0.18" stop-color="#dadada" stop-opacity="1"/>
			<stop offset="0.38" stop-color="#9d9e9e" stop-opacity="1"/>
			<stop offset="0.54" stop-color="#8b8c8c" stop-opacity="1"/>
			<stop offset="0.8" stop-color="#838484" stop-opacity="1"/>
			<stop offset="0.92" stop-color="#7c7d7d" stop-opacity="1"/>
		</linearGradient>
		<linearGradient id="grad0-196" x1="0" y1="0" x2="1" y2="0" gradientTransform="rotate(45 0.5 0.5)">
			<stop offset="0" stop-color="#91cfd1" stop-opacity="1"/>
			<stop offset="1" stop-color="#49aeb1" stop-opacity="1"/>
		</linearGradient>
		<linearGradient id="grad0-203" x1="0" y1="0" x2="1" y2="0" gradientTransform="rotate(45 0.5 0.5)">
			<stop offset="0" stop-color="#9f5153" stop-opacity="1"/>
			<stop offset="1" stop-color="#7b030d" stop-opacity="1"/>
		</linearGradient>
	</defs>
	<g v:mID="0" v:index="1" v:groupContext="foregroundPage">
		<title>页-1</title>
		<v:pageProperties v:drawingScale="0.0393701" v:pageScale="0.0393701" v:drawingUnits="24" v:shadowOffsetX="8.50394"
				v:shadowOffsetY="-8.50394"/>
		<g id="group5805-1" transform="translate(0.75,-0.75)" v:mID="5805" v:groupContext="group">
			<title>燃油锅炉</title>
			<g id="group5806-2" transform="translate(32.25,-63.81)" v:mID="5806" v:groupContext="group">
				<title>工作表.5806</title>
				<g id="shape5807-3" v:mID="5807" v:groupContext="shape" transform="translate(79.1925,70.1175) rotate(90)">
					<title>shape1</title>
					<path d="M0 79.19 L0 70.19 L9.07 70.19 L9.07 79.19 L0 79.19 Z" class="st1"/>
				</g>
				<g id="shape5808-7" v:mID="5808" v:groupContext="shape" transform="translate(88.1925,70.1175) rotate(90)">
					<title>shape2</title>
					<path d="M0 79.19 L0 75.44 C0 75.44 0.07 74.99 0.6 74.84 C0.6 74.84 2.32 74.39 4.5 74.39 C6.67 74.39 8.47 74.84
								 8.47 74.84 C9.07 74.99 9.07 75.44 9.07 75.44 L9.07 79.19 L0 79.19 Z" class="st1"/>
				</g>
				<g id="shape5809-10" v:mID="5809" v:groupContext="shape" transform="translate(88.1175,70.1175) rotate(90)">
					<title>shape3</title>
					<path d="M0 79.19 L9.07 79.04 L0 79.19 Z" class="st2"/>
				</g>
				<g id="group5810-14" transform="translate(0.705,-0.5475)" v:mID="5810" v:groupContext="group">
					<title>工作表.5810</title>
					<g id="shape5811-15" v:mID="5811" v:groupContext="shape" transform="translate(-1.34892E-14,-3.825)">
						<title>shape4</title>
						<path d="M0.07 78.97 L8.17 78.97 C8.25 78.97 8.25 78.97 8.25 79.04 C8.25 79.12 8.25 79.19 8.17 79.19 L0.07
									 79.19 C0 79.19 0 79.12 0 79.12 C0 78.97 0 78.97 0.07 78.97 Z" class="st3"/>
					</g>
					<g id="shape5812-19" v:mID="5812" v:groupContext="shape" transform="translate(-1.34892E-14,-3.225)">
						<title>shape5</title>
						<path d="M0.07 78.97 L8.17 78.97 C8.25 78.97 8.25 78.97 8.25 79.04 C8.25 79.12 8.25 79.19 8.17 79.19 L0.07
									 79.19 C0 79.19 0 79.12 0 79.12 C0 78.97 0 78.97 0.07 78.97 Z" class="st3"/>
					</g>
					<g id="shape5813-22" v:mID="5813" v:groupContext="shape" transform="translate(-1.34892E-14,-2.55)">
						<title>shape6</title>
						<path d="M0.07 78.97 L8.17 78.97 C8.25 78.97 8.25 78.97 8.25 79.04 C8.25 79.12 8.25 79.19 8.17 79.19 L0.07
									 79.19 C0 79.19 0 79.12 0 79.12 C0 78.97 0 78.97 0.07 78.97 Z" class="st3"/>
					</g>
					<g id="shape5814-25" v:mID="5814" v:groupContext="shape" transform="translate(-1.34892E-14,-1.95)">
						<title>shape7</title>
						<path d="M0.07 78.97 L8.17 78.97 C8.25 78.97 8.25 78.97 8.25 79.04 C8.25 79.12 8.25 79.19 8.17 79.19 L0.07
									 79.19 C0 79.19 0 79.12 0 79.12 C0 78.97 0 78.97 0.07 78.97 Z" class="st3"/>
					</g>
					<g id="shape5815-28" v:mID="5815" v:groupContext="shape" transform="translate(-1.34892E-14,-1.275)">
						<title>shape8</title>
						<path d="M0.07 78.97 L8.17 78.97 C8.25 78.97 8.25 78.97 8.25 79.04 C8.25 79.12 8.25 79.19 8.17 79.19 L0.07
									 79.19 C0 79.19 0 79.12 0 79.12 C0 78.97 0 78.97 0.07 78.97 Z" class="st3"/>
					</g>
					<g id="shape5816-31" v:mID="5816" v:groupContext="shape" transform="translate(-1.34892E-14,-0.675)">
						<title>shape9</title>
						<path d="M0.07 78.97 L8.17 78.97 C8.25 78.97 8.25 78.97 8.25 79.04 C8.25 79.12 8.25 79.19 8.17 79.19 L0.07
									 79.19 C0 79.19 0 79.12 0 79.12 C0 78.97 0 78.97 0.07 78.97 Z" class="st3"/>
					</g>
					<g id="shape5817-34" v:mID="5817" v:groupContext="shape" transform="translate(-1.34892E-14,-4.5)">
						<title>shape10</title>
						<path d="M0.07 78.97 L8.17 78.97 C8.25 78.97 8.25 78.97 8.25 79.04 C8.25 79.12 8.25 79.19 8.17 79.19 L0.07
									 79.19 C0 79.19 0 79.12 0 79.12 C0 78.97 0 78.97 0.07 78.97 Z" class="st3"/>
					</g>
					<g id="shape5818-37" v:mID="5818" v:groupContext="shape">
						<title>shape11</title>
						<path d="M0.07 78.97 L8.17 78.97 C8.25 78.97 8.25 78.97 8.25 79.04 C8.25 79.12 8.25 79.19 8.17 79.19 L0.07
									 79.19 C0 79.19 0 79.12 0 79.12 C0 78.97 0 78.97 0.07 78.97 Z" class="st3"/>
					</g>
					<g id="shape5819-40" v:mID="5819" v:groupContext="shape" transform="translate(-1.34892E-14,-7.05)">
						<title>shape12</title>
						<path d="M0.07 78.97 L8.17 78.97 C8.25 78.97 8.25 78.97 8.25 79.04 C8.25 79.12 8.25 79.19 8.17 79.19 L0.07
									 79.19 C0 79.19 0 79.12 0 79.12 C0 78.97 0 78.97 0.07 78.97 Z" class="st3"/>
					</g>
					<g id="shape5820-43" v:mID="5820" v:groupContext="shape" transform="translate(-1.34892E-14,-6.375)">
						<title>shape13</title>
						<path d="M0.07 78.97 L8.17 78.97 C8.25 78.97 8.25 78.97 8.25 79.04 C8.25 79.12 8.25 79.19 8.17 79.19 L0.07
									 79.19 C0 79.19 0 79.12 0 79.12 C0 78.97 0 78.97 0.07 78.97 Z" class="st3"/>
					</g>
					<g id="shape5821-46" v:mID="5821" v:groupContext="shape" transform="translate(-1.34892E-14,-5.775)">
						<title>shape14</title>
						<path d="M0.07 78.97 L8.17 78.97 C8.25 78.97 8.25 78.97 8.25 79.04 C8.25 79.12 8.25 79.19 8.17 79.19 L0.07
									 79.19 C0 79.19 0 79.12 0 79.12 C0 78.97 0 78.97 0.07 78.97 Z" class="st3"/>
					</g>
					<g id="shape5822-49" v:mID="5822" v:groupContext="shape" transform="translate(-1.34892E-14,-5.1)">
						<title>shape15</title>
						<path d="M0.07 78.97 L8.17 78.97 C8.25 78.97 8.25 78.97 8.25 79.04 C8.25 79.12 8.25 79.19 8.17 79.19 L0.07
									 79.19 C0 79.19 0 79.12 0 79.12 C0 78.97 0 78.97 0.07 78.97 Z" class="st3"/>
					</g>
					<g id="shape5823-52" v:mID="5823" v:groupContext="shape" transform="translate(-1.34892E-14,-7.65)">
						<title>shape16</title>
						<path d="M0.07 78.97 L8.17 78.97 C8.25 78.97 8.25 78.97 8.25 79.04 C8.25 79.12 8.25 79.19 8.17 79.19 L0.07
									 79.19 C0 79.19 0 79.12 0 79.12 C0 78.97 0 78.97 0.07 78.97 Z" class="st3"/>
					</g>
				</g>
			</g>
			<g id="shape5824-55" v:mID="5824" v:groupContext="shape" transform="translate(25.5975,-61.4925)">
				<title>shape17</title>
				<path d="M1.43 62.99 L11.63 62.99 C12.45 62.99 13.13 63.67 13.13 64.42 C13.13 64.42 12 79.19 11.4 79.12 L1.8 79.12
							 C1.43 79.12 0 64.42 0 64.42 C0 63.67 0.68 62.99 1.43 62.99 Z" class="st4"/>
			</g>
			<g id="shape5825-59" v:mID="5825" v:groupContext="shape">
				<title>shape18</title>
				<path d="M0 74.39 L63.38 74.39 L63.38 79.19 L0 79.19 L0 74.39 Z" class="st5"/>
			</g>
			<g id="shape5826-63" v:mID="5826" v:groupContext="shape" transform="translate(3.4425,-4.74)">
				<title>shape19</title>
				<path d="M0 22.72 L51.07 22.72 L51.07 79.19 L0 79.19 L0 22.72 Z" class="st6"/>
			</g>
			<g id="shape5827-67" v:mID="5827" v:groupContext="shape" transform="translate(3.4425,-59.64)">
				<title>shape20</title>
				<path d="M0 77.62 L51.07 77.62 L51.07 79.19 L0 79.19 L0 77.62 Z" class="st7"/>
			</g>
			<g id="shape5828-71" v:mID="5828" v:groupContext="shape" transform="translate(3.4425,-4.74)">
				<title>shape21</title>
				<path d="M0 77.62 L51.07 77.62 L51.07 79.19 L0 79.19 L0 77.62 Z" class="st7"/>
			</g>
			<g id="shape5829-74" v:mID="5829" v:groupContext="shape" transform="translate(15.12,-61.125)">
				<title>shape22</title>
				<path d="M0 79.19 L8.48 79.19 L8.48 76.12 L0 76.12 L0 79.19 Z" class="st8"/>
			</g>
			<g id="shape5830-78" v:mID="5830" v:groupContext="shape" transform="translate(55.1925,-25.575)">
				<title>shape23</title>
				<path d="M0 79.19 L4.05 79.19 L4.05 74.39 L0 74.39 L0 79.19 Z" class="st7"/>
			</g>
			<g id="shape5831-81" v:mID="5831" v:groupContext="shape" transform="translate(53.79,-28.755)">
				<title>shape24</title>
				<path d="M1.58 72.44 L5.25 72.44 C6.15 72.44 6.83 72.89 6.83 73.57 L6.83 78.07 C6.83 78.67 6.15 79.19 5.25 79.19
							 L1.58 79.19 C0.75 79.19 0 78.67 0 78.07 L0 73.57 C0 72.89 0.75 72.44 1.58 72.44 Z" class="st6"/>
			</g>
			<g id="shape5832-84" v:mID="5832" v:groupContext="shape" transform="translate(54.135,-4.7175)">
				<title>shape25</title>
				<path d="M0 58.27 L6.15 58.27 L6.15 79.19 L0 79.19 L0 58.27 Z" class="st6"/>
			</g>
			<g id="group5833-87" transform="translate(48.5625,-61.0725)" v:mID="5833" v:groupContext="group">
				<title>工作表.5833</title>
				<g id="shape5834-88" v:mID="5834" v:groupContext="shape" transform="translate(0.615,1.42109E-14)">
					<title>shape26</title>
					<path d="M0 77.24 L3 77.24 L3 79.19 L0 79.19 L0 77.24 Z" class="st9"/>
				</g>
				<g id="shape5835-92" v:mID="5835" v:groupContext="shape" transform="translate(0.0975,-1.77)">
					<title>shape27</title>
					<path d="M0 77.24 L4.2 77.24 L4.2 79.19 L0 79.19 L0 77.24 Z" class="st9"/>
				</g>
				<g id="shape5836-95" v:mID="5836" v:groupContext="shape" transform="translate(0.3525,-5.6775)">
					<title>shape28</title>
					<path d="M0 75.97 L3.45 75.97 L3.45 79.19 L0 79.19 L0 75.97 Z" class="st9"/>
				</g>
				<g id="shape5837-98" v:mID="5837" v:groupContext="shape" transform="translate(1.32,-8.9025)">
					<title>shape29</title>
					<path d="M0 75.97 L1.58 75.97 L1.58 79.19 L0 79.19 L0 75.97 Z" class="st9"/>
				</g>
				<g id="shape5838-101" v:mID="5838" v:groupContext="shape" transform="translate(1.64868E-14,-3.7125)">
					<title>shape30</title>
					<path d="M0 77.24 L4.2 77.24 L4.2 79.19 L0 79.19 L0 77.24 Z" class="st9"/>
				</g>
			</g>
			<g id="shape5839-104" v:mID="5839" v:groupContext="shape" transform="translate(14.6775,-4.77)">
				<title>shape31</title>
				<path d="M0 33.89 L20.33 33.89 L20.33 79.19 L0 79.19 L0 33.89 Z" class="st10"/>
			</g>
			<g id="group5840-108" transform="translate(26.085,-62.085)" v:mID="5840" v:groupContext="group">
				<title>工作表.5840</title>
				<g id="shape5841-109" v:mID="5841" v:groupContext="shape">
					<title>shape32</title>
					<path d="M1.35 64.19 L10.8 64.19 C11.55 64.19 12.15 64.79 12.15 65.54 C12.15 65.54 11.1 79.19 10.57 79.12 L1.65
								 79.12 C1.35 79.12 0 65.54 0 65.54 C0 64.79 0.6 64.19 1.35 64.19 Z" class="st11"/>
				</g>
				<g id="group5842-113" transform="translate(2.0625,-11.385)" v:mID="5842" v:groupContext="group">
					<title>工作表.5842</title>
					<g id="group5843-114" transform="translate(3.3,-0.0075)" v:mID="5843" v:groupContext="group">
						<title>工作表.5843</title>
						<g id="shape5844-115" v:mID="5844" v:groupContext="shape" transform="translate(-1.07414E-14,-0.09)">
							<title>shape34</title>
							<path d="M0.67 76.87 C1.05 76.87 1.35 77.17 1.35 77.54 L1.35 78.52 C1.35 78.89 1.05 79.19 0.67 79.19
										 C0.3 79.19 0 78.89 0 78.52 L0 77.54 C0 77.17 0.3 76.87 0.67 76.87 Z" class="st12"/>
						</g>
						<g id="shape5845-117" v:mID="5845" v:groupContext="shape" transform="translate(0.3225,0)">
							<title>shape35</title>
							<path d="M0.45 77.24 C0.75 77.24 0.97 77.47 0.97 77.77 L0.97 78.59 C0.97 78.89 0.75 79.19 0.45 79.19
										 C0.22 79.19 0 78.89 0 78.59 L0 77.77 C0 77.47 0.22 77.24 0.45 77.24 Z" class="st13"/>
						</g>
					</g>
					<g id="group5846-119" v:mID="5846" v:groupContext="group">
						<title>工作表.5846</title>
						<g id="shape5847-120" v:mID="5847" v:groupContext="shape" transform="translate(-1.07414E-14,-0.0975)">
							<title>shape36</title>
							<path d="M0.67 76.87 C1.05 76.87 1.35 77.17 1.35 77.54 L1.35 78.52 C1.35 78.89 1.05 79.19 0.67 79.19
										 C0.3 79.19 0 78.89 0 78.52 L0 77.54 C0 77.17 0.3 76.87 0.67 76.87 Z" class="st12"/>
						</g>
						<g id="shape5848-122" v:mID="5848" v:groupContext="shape" transform="translate(0.3225,2.84217E-14)">
							<title>shape37</title>
							<path d="M0.45 77.24 C0.75 77.24 0.97 77.47 0.97 77.77 L0.97 78.59 C0.97 78.89 0.75 79.19 0.45 79.19
										 C0.22 79.19 0 78.89 0 78.59 L0 77.77 C0 77.47 0.22 77.24 0.45 77.24 Z" class="st13"/>
						</g>
					</g>
					<g id="group5849-124" transform="translate(6.6075,-0.0075)" v:mID="5849" v:groupContext="group">
						<title>工作表.5849</title>
						<g id="shape5850-125" v:mID="5850" v:groupContext="shape" transform="translate(-1.07414E-14,-0.09)">
							<title>shape38</title>
							<path d="M0.67 76.87 C1.05 76.87 1.35 77.17 1.35 77.54 L1.35 78.52 C1.35 78.89 1.05 79.19 0.67 79.19
										 C0.3 79.19 0 78.89 0 78.52 L0 77.54 C0 77.17 0.3 76.87 0.67 76.87 Z" class="st12"/>
						</g>
						<g id="shape5851-127" v:mID="5851" v:groupContext="shape" transform="translate(0.3225,0)">
							<title>shape39</title>
							<path d="M0.45 77.24 C0.75 77.24 0.97 77.47 0.97 77.77 L0.97 78.59 C0.97 78.89 0.75 79.19 0.45 79.19
										 C0.22 79.19 0 78.89 0 78.59 L0 77.77 C0 77.47 0.22 77.24 0.45 77.24 Z" class="st13"/>
						</g>
					</g>
				</g>
			</g>
			<g id="shape5852-129" v:mID="5852" v:groupContext="shape" transform="translate(25.455,-61.14)">
				<title>shape40</title>
				<path d="M0 79.19 L14.55 79.19 L14.55 78.22 L0 78.22 L0 79.19 Z" class="st9"/>
			</g>
			<g id="shape5853-132" v:mID="5853" v:groupContext="shape" transform="translate(41.385,-61.155)">
				<title>shape41</title>
				<path d="M0 79.19 L5.85 79.19 L5.85 77.17 L0 77.17 L0 79.19 Z" class="st9"/>
			</g>
			<g id="shape5854-135" v:mID="5854" v:groupContext="shape" transform="translate(15.7125,-37.7925)">
				<title>shape42</title>
				<path d="M0 69.74 L18.22 69.74 L18.22 79.19 L0 79.19 L0 69.74 Z" class="st10"/>
			</g>
			<g id="shape5855-138" v:mID="5855" v:groupContext="shape" transform="translate(15.7125,-46.695)">
				<title>shape43</title>
				<path d="M0 78.29 L18.22 78.29 L18.22 79.19 L0 79.19 L0 78.29 Z" class="st14"/>
			</g>
			<g id="shape5856-142" v:mID="5856" v:groupContext="shape" transform="translate(15.7125,-37.245)">
				<title>shape44</title>
				<path d="M0 78.29 L18.22 78.29 L18.22 79.19 L0 79.19 L0 78.29 Z" class="st14"/>
			</g>
			<g id="group5857-145" transform="translate(3.0225,-2.49)" v:mID="5857" v:groupContext="group">
				<title>工作表.5857</title>
				<g id="shape5858-146" v:mID="5858" v:groupContext="shape" transform="translate(0.3525,-0.7275)">
					<title>shape45</title>
					<path d="M0 12.74 L1.58 12.74 L1.58 79.19 L0 79.19 L0 12.74 Z" class="st15"/>
				</g>
				<g id="shape5859-150" v:mID="5859" v:groupContext="shape">
					<title>shape46</title>
					<path d="M0 76.79 L2.25 76.79 L2.25 79.19 L0 79.19 L0 76.79 Z" class="st16"/>
				</g>
				<g id="shape5860-154" v:mID="5860" v:groupContext="shape" transform="translate(9.285,-0.7275)">
					<title>shape47</title>
					<path d="M0 12.74 L1.58 12.74 L1.58 79.19 L0 79.19 L0 12.74 Z" class="st15"/>
				</g>
				<g id="shape5861-157" v:mID="5861" v:groupContext="shape" transform="translate(8.9325,0)">
					<title>shape48</title>
					<path d="M0 76.79 L2.25 76.79 L2.25 79.19 L0 79.19 L0 76.79 Z" class="st16"/>
				</g>
				<g id="shape5862-160" v:mID="5862" v:groupContext="shape" transform="translate(-69.5925,73.1475) rotate(-90)">
					<title>shape49</title>
					<path d="M0 71.39 L1.58 71.39 L1.58 79.19 L0 79.19 L0 71.39 Z" class="st15"/>
				</g>
				<g id="shape5863-163" v:mID="5863" v:groupContext="shape" transform="translate(-69.5925,54.2475) rotate(-90)">
					<title>shape50</title>
					<path d="M0 71.39 L1.58 71.39 L1.58 79.19 L0 79.19 L0 71.39 Z" class="st15"/>
				</g>
				<g id="shape5864-166" v:mID="5864" v:groupContext="shape" transform="translate(-69.5925,44.7975) rotate(-90)">
					<title>shape51</title>
					<path d="M0 71.39 L1.58 71.39 L1.58 79.19 L0 79.19 L0 71.39 Z" class="st15"/>
				</g>
				<g id="shape5865-169" v:mID="5865" v:groupContext="shape" transform="translate(-69.5925,35.3475) rotate(-90)">
					<title>shape52</title>
					<path d="M0 71.39 L1.58 71.39 L1.58 79.19 L0 79.19 L0 71.39 Z" class="st15"/>
				</g>
				<g id="shape5866-172" v:mID="5866" v:groupContext="shape" transform="translate(-69.5925,63.8475) rotate(-90)">
					<title>shape53</title>
					<path d="M0 71.39 L1.58 71.39 L1.58 79.19 L0 79.19 L0 71.39 Z" class="st15"/>
				</g>
				<g id="shape5867-175" v:mID="5867" v:groupContext="shape" transform="translate(-69.5925,25.8975) rotate(-90)">
					<title>shape54</title>
					<path d="M0 71.39 L1.58 71.39 L1.58 79.19 L0 79.19 L0 71.39 Z" class="st15"/>
				</g>
				<g id="shape5868-178" v:mID="5868" v:groupContext="shape" transform="translate(0.0225,-64.56)">
					<title>shape55</title>
					<path d="M0.23 76.49 L1.95 76.49 C2.1 76.49 2.18 76.57 2.18 76.72 C2.18 76.72 2.03 79.19 1.95 79.19 L0.3 79.19
								 C0.23 79.19 0 76.72 0 76.72 C0 76.57 0.08 76.49 0.23 76.49 Z" class="st17"/>
				</g>
				<g id="shape5869-182" v:mID="5869" v:groupContext="shape" transform="translate(8.9625,-64.56)">
					<title>shape56</title>
					<path d="M0.23 76.49 L1.95 76.49 C2.1 76.49 2.18 76.57 2.18 76.72 C2.18 76.72 2.03 79.19 1.95 79.19 L0.3 79.19
								 C0.23 79.19 0 76.72 0 76.72 C0 76.57 0.08 76.49 0.23 76.49 Z" class="st17"/>
				</g>
			</g>
			<g id="group5870-185" transform="translate(17.5425,-41.3325)" v:mID="5870" v:groupContext="group">
				<title>工作表.5870</title>
				<g id="shape5871-186" v:mID="5871" v:groupContext="shape">
					<title>shape57</title>
					<path d="M0.9 75.29 L6.23 75.29 C6.68 75.29 7.13 75.67 7.13 76.19 L7.13 78.37 C7.13 78.82 6.68 79.19 6.23 79.19
								 L0.9 79.19 C0.38 79.19 0 78.82 0 78.37 L0 76.19 C0 75.67 0.38 75.29 0.9 75.29 Z" class="st18"/>
				</g>
				<g id="shape5872-188" v:mID="5872" v:groupContext="shape" transform="translate(0.495,-0.4125)">
					<title>shape58</title>
					<path d="M0 76.12 L6.08 76.12 L6.08 79.19 L0 79.19 L0 76.12 Z" class="st19"/>
				</g>
			</g>
			<g id="group5873-190" transform="translate(27.1725,-39.8175)" v:mID="5873" v:groupContext="group">
				<title>工作表.5873</title>
				<g id="shape5874-191" v:mID="5874" v:groupContext="shape">
					<title>shape59</title>
					<path d="M0 78.29 C0 77.84 0.38 77.47 0.83 77.47 C1.35 77.47 1.73 77.84 1.73 78.29 C1.73 78.82 1.35 79.19 0.83
								 79.19 C0.38 79.19 0 78.82 0 78.29 Z" class="st20"/>
				</g>
				<g id="shape5875-193" v:mID="5875" v:groupContext="shape" transform="translate(0.1575,-0.1425)">
					<title>shape60</title>
					<path d="M0 78.44 C0 78.07 0.3 77.77 0.68 77.77 C1.05 77.77 1.43 78.07 1.43 78.44 C1.43 78.82 1.05 79.19 0.68
								 79.19 C0.3 79.19 0 78.82 0 78.44 Z" class="st21"/>
				</g>
			</g>
			<g id="group5876-197" transform="translate(27.21,-43.335)" v:mID="5876" v:groupContext="group">
				<title>工作表.5876</title>
				<g id="shape5877-198" v:mID="5877" v:groupContext="shape">
					<title>shape61</title>
					<path d="M0 78.29 C0 77.84 0.38 77.47 0.83 77.47 C1.35 77.47 1.73 77.84 1.73 78.29 C1.73 78.82 1.35 79.19 0.83
								 79.19 C0.38 79.19 0 78.82 0 78.29 Z" class="st22"/>
				</g>
				<g id="shape5878-200" v:mID="5878" v:groupContext="shape" transform="translate(0.1575,-0.1425)">
					<title>shape62</title>
					<path d="M0 78.44 C0 78.07 0.3 77.77 0.68 77.77 C1.05 77.77 1.43 78.07 1.43 78.44 C1.43 78.82 1.05 79.19 0.68
								 79.19 C0.3 79.19 0 78.82 0 78.44 Z" class="st23"/>
				</g>
			</g>
			<g id="shape5879-204" v:mID="5879" v:groupContext="shape" transform="translate(26.2875,-43.0725)">
				<title>shape63</title>
				<path d="M0 76.87 L5.4 76.87 L5.4 79.19 L0 79.19 L0 76.87 Z" class="st24"/>
			</g>
			<g id="shape5880-206" v:mID="5880" v:groupContext="shape" transform="translate(26.2875,-39.465)">
				<title>shape64</title>
				<path d="M0 76.87 L5.4 76.87 L5.4 79.19 L0 79.19 L0 76.87 Z" class="st24"/>
			</g>
		</g>
	</g>
</svg>
