<?xml version="1.0" encoding="UTF-8" standalone="no"?>
<!DOCTYPE svg PUBLIC "-//W3C//DTD SVG 1.1//EN" "http://www.w3.org/Graphics/SVG/1.1/DTD/svg11.dtd">
<!-- 由 Microsoft Visio, SVG Export 生成 罐16.svg 页-1 -->
<svg xmlns="http://www.w3.org/2000/svg" xmlns:xlink="http://www.w3.org/1999/xlink" xmlns:ev="http://www.w3.org/2001/xml-events"
		xmlns:v="http://schemas.microsoft.com/visio/2003/SVGExtensions/" width="1.25917in" height="1.48198in"
		viewBox="0 0 90.66 106.702" xml:space="preserve" color-interpolation-filters="sRGB" class="st19">
	<v:documentProperties v:langID="2052" v:metric="true" v:viewMarkup="false"/>

	<style type="text/css">
	<![CDATA[
		.st1 {fill:url(#grad0-7);stroke:none;stroke-linecap:butt;stroke-width:0.75}
		.st2 {fill:url(#grad3-11);stroke:#d4d6db;stroke-linecap:butt;stroke-width:0.1875}
		.st3 {fill:url(#grad0-15);stroke:none;stroke-linecap:butt;stroke-width:0.75}
		.st4 {fill:url(#grad0-19);stroke:none;stroke-linecap:butt;stroke-width:0.75}
		.st5 {fill:url(#grad0-23);stroke:none;stroke-linecap:butt;stroke-width:0.75}
		.st6 {fill:url(#grad0-27);stroke:none;stroke-linecap:butt;stroke-width:0.75}
		.st7 {fill:url(#grad0-37);stroke:none;stroke-linecap:butt;stroke-width:0.75}
		.st8 {fill:url(#grad0-44);stroke:none;stroke-linecap:butt;stroke-width:0.75}
		.st9 {fill:url(#grad0-48);stroke:none;stroke-linecap:butt;stroke-width:0.75}
		.st10 {fill:url(#grad0-58);stroke:none;stroke-linecap:butt;stroke-width:0.75}
		.st11 {fill:#ceac67;stroke:none;stroke-linecap:butt;stroke-width:0.75}
		.st12 {fill:#fe5c1c;stroke:none;stroke-linecap:butt;stroke-width:0.75}
		.st13 {fill:#fd991f;stroke:none;stroke-linecap:butt;stroke-width:0.75}
		.st14 {fill:#fcd732;stroke:none;stroke-linecap:butt;stroke-width:0.75}
		.st15 {fill:#fcffa4;stroke:none;stroke-linecap:butt;stroke-width:0.75}
		.st16 {fill:url(#grad0-77);stroke:none;stroke-linecap:butt;stroke-width:0.75}
		.st17 {fill:url(#grad0-81);stroke:none;stroke-linecap:butt;stroke-width:0.75}
		.st18 {fill:url(#grad0-85);stroke:none;stroke-linecap:butt;stroke-width:0.75}
		.st19 {fill:none;fill-rule:evenodd;font-size:12px;overflow:visible;stroke-linecap:square;stroke-miterlimit:3}
	]]>
	</style>

	<defs id="Patterns_And_Gradients">
		<linearGradient id="grad0-7" x1="0" y1="0" x2="1" y2="0" gradientTransform="rotate(-180 0.5 0.5)">
			<stop offset="0" stop-color="#bda47f" stop-opacity="1"/>
			<stop offset="0.15" stop-color="#ffe0b3" stop-opacity="1"/>
			<stop offset="0.25" stop-color="#ffeed7" stop-opacity="1"/>
			<stop offset="0.52" stop-color="#dfc297" stop-opacity="1"/>
			<stop offset="0.69" stop-color="#c7ad86" stop-opacity="1"/>
			<stop offset="0.8" stop-color="#bca37e" stop-opacity="1"/>
			<stop offset="0.92" stop-color="#b19a77" stop-opacity="1"/>
			<stop offset="1" stop-color="#cbb189" stop-opacity="1"/>
		</linearGradient>
		<radialGradient id="grad3-11" cx="0.5" cy="0.5" r="0.73">
			<stop offset="0" stop-color="#e5c79b" stop-opacity="1"/>
			<stop offset="0.91" stop-color="#e5c79b" stop-opacity="1"/>
		</radialGradient>
		<linearGradient id="grad0-15" x1="0" y1="0" x2="1" y2="0" gradientTransform="rotate(-180 0.5 0.5)">
			<stop offset="0.16" stop-color="#d7bd8c" stop-opacity="1"/>
			<stop offset="0.64" stop-color="#d4ba89" stop-opacity="1"/>
			<stop offset="0.92" stop-color="#cfb586" stop-opacity="1"/>
		</linearGradient>
		<linearGradient id="grad0-19" x1="0" y1="0" x2="1" y2="0" gradientTransform="rotate(-48.81407483429 0.5 0.5)">
			<stop offset="0" stop-color="#ffe0b3" stop-opacity="1"/>
			<stop offset="0.18" stop-color="#ffeed7" stop-opacity="1"/>
			<stop offset="0.72" stop-color="#dfc297" stop-opacity="1"/>
			<stop offset="1" stop-color="#c7ad86" stop-opacity="1"/>
		</linearGradient>
		<linearGradient id="grad0-23" x1="0" y1="0" x2="1" y2="0" gradientTransform="rotate(90 0.5 0.5)">
			<stop offset="0" stop-color="#c4aa84" stop-opacity="1"/>
			<stop offset="0.15" stop-color="#ffe0b3" stop-opacity="1"/>
			<stop offset="0.25" stop-color="#ffeed7" stop-opacity="1"/>
			<stop offset="0.52" stop-color="#dfc297" stop-opacity="1"/>
			<stop offset="0.69" stop-color="#c7ad86" stop-opacity="1"/>
			<stop offset="0.8" stop-color="#bca37e" stop-opacity="1"/>
			<stop offset="0.97" stop-color="#b19a77" stop-opacity="1"/>
			<stop offset="1" stop-color="#cbb189" stop-opacity="1"/>
		</linearGradient>
		<linearGradient id="grad0-27" x1="0" y1="0" x2="1" y2="0" gradientTransform="rotate(-180 0.5 0.5)">
			<stop offset="0" stop-color="#c4aa84" stop-opacity="1"/>
			<stop offset="0.15" stop-color="#ffe0b3" stop-opacity="1"/>
			<stop offset="0.25" stop-color="#ffeed7" stop-opacity="1"/>
			<stop offset="0.52" stop-color="#dfc297" stop-opacity="1"/>
			<stop offset="0.69" stop-color="#c7ad86" stop-opacity="1"/>
			<stop offset="0.8" stop-color="#bca37e" stop-opacity="1"/>
			<stop offset="0.97" stop-color="#b19a77" stop-opacity="1"/>
			<stop offset="1" stop-color="#cbb189" stop-opacity="1"/>
		</linearGradient>
		<linearGradient id="grad0-37" x1="0" y1="0" x2="1" y2="0" gradientTransform="rotate(-180 0.5 0.5)">
			<stop offset="0" stop-color="#b59d79" stop-opacity="1"/>
			<stop offset="0.03" stop-color="#ffe5c1" stop-opacity="1"/>
			<stop offset="0.08" stop-color="#ebcc9f" stop-opacity="1"/>
			<stop offset="0.64" stop-color="#e7c99c" stop-opacity="1"/>
			<stop offset="0.95" stop-color="#e2c499" stop-opacity="1"/>
			<stop offset="1" stop-color="#a89170" stop-opacity="1"/>
		</linearGradient>
		<linearGradient id="grad0-44" x1="0" y1="0" x2="1" y2="0" gradientTransform="rotate(90 0.5 0.5)">
			<stop offset="0" stop-color="#b59d79" stop-opacity="1"/>
			<stop offset="0.03" stop-color="#ffe5c1" stop-opacity="1"/>
			<stop offset="0.08" stop-color="#ebcc9f" stop-opacity="1"/>
			<stop offset="0.64" stop-color="#e7c99c" stop-opacity="1"/>
			<stop offset="0.95" stop-color="#e2c499" stop-opacity="1"/>
			<stop offset="1" stop-color="#a89170" stop-opacity="1"/>
		</linearGradient>
		<linearGradient id="grad0-48" x1="0" y1="0" x2="1" y2="0" gradientTransform="rotate(90 0.5 0.5)">
			<stop offset="0" stop-color="#a5906a" stop-opacity="1"/>
			<stop offset="0.03" stop-color="#eed8b3" stop-opacity="1"/>
			<stop offset="0.08" stop-color="#d7bd8c" stop-opacity="1"/>
			<stop offset="0.64" stop-color="#d4ba89" stop-opacity="1"/>
			<stop offset="0.95" stop-color="#cfb586" stop-opacity="1"/>
			<stop offset="1" stop-color="#9a8662" stop-opacity="1"/>
		</linearGradient>
		<linearGradient id="grad0-58" x1="0" y1="0" x2="1" y2="0" gradientTransform="rotate(90 0.5 0.5)">
			<stop offset="0" stop-color="#b39d73" stop-opacity="1"/>
			<stop offset="0.15" stop-color="#ebd0a1" stop-opacity="1"/>
			<stop offset="0.25" stop-color="#f4e5cf" stop-opacity="1"/>
			<stop offset="0.52" stop-color="#cdb384" stop-opacity="1"/>
			<stop offset="0.69" stop-color="#b69f75" stop-opacity="1"/>
			<stop offset="0.8" stop-color="#ac966e" stop-opacity="1"/>
			<stop offset="0.97" stop-color="#a28e68" stop-opacity="1"/>
			<stop offset="1" stop-color="#baa378" stop-opacity="1"/>
		</linearGradient>
		<linearGradient id="grad0-77" x1="0" y1="0" x2="1" y2="0" gradientTransform="rotate(90 0.5 0.5)">
			<stop offset="0" stop-color="#bda47f" stop-opacity="1"/>
			<stop offset="0.15" stop-color="#ffe0b3" stop-opacity="1"/>
			<stop offset="0.25" stop-color="#ffeed7" stop-opacity="1"/>
			<stop offset="0.52" stop-color="#dfc297" stop-opacity="1"/>
			<stop offset="0.69" stop-color="#c7ad86" stop-opacity="1"/>
			<stop offset="0.8" stop-color="#bca37e" stop-opacity="1"/>
			<stop offset="0.92" stop-color="#b19a77" stop-opacity="1"/>
			<stop offset="1" stop-color="#cbb189" stop-opacity="1"/>
		</linearGradient>
		<linearGradient id="grad0-81" x1="0" y1="0" x2="1" y2="0" gradientTransform="rotate(-180 0.5 0.5)">
			<stop offset="0" stop-color="#c4aa84" stop-opacity="1"/>
			<stop offset="0.15" stop-color="#e7c99c" stop-opacity="1"/>
			<stop offset="0.25" stop-color="#f6d6a7" stop-opacity="1"/>
			<stop offset="0.52" stop-color="#dfc297" stop-opacity="1"/>
			<stop offset="0.69" stop-color="#c7ad86" stop-opacity="1"/>
			<stop offset="0.8" stop-color="#bca37e" stop-opacity="1"/>
			<stop offset="0.97" stop-color="#b19a77" stop-opacity="1"/>
			<stop offset="1" stop-color="#cbb189" stop-opacity="1"/>
		</linearGradient>
		<linearGradient id="grad0-85" x1="0" y1="0" x2="1" y2="0" gradientTransform="rotate(-180 0.5 0.5)">
			<stop offset="0" stop-color="#a78a4e" stop-opacity="1"/>
			<stop offset="0.24" stop-color="#e3c07c" stop-opacity="1"/>
			<stop offset="0.57" stop-color="#c5a35e" stop-opacity="1"/>
			<stop offset="0.74" stop-color="#af9153" stop-opacity="1"/>
			<stop offset="0.86" stop-color="#a5894d" stop-opacity="1"/>
		</linearGradient>
	</defs>
	<g v:mID="0" v:index="1" v:groupContext="foregroundPage">
		<title>页-1</title>
		<v:pageProperties v:drawingScale="0.0393701" v:pageScale="0.0393701" v:drawingUnits="24" v:shadowOffsetX="8.50394"
				v:shadowOffsetY="-8.50394"/>
		<g id="group5195-1" transform="translate(0.1875,-0.75)" v:mID="5195" v:groupContext="group">
			<title>锅炉14</title>
			<g id="group5196-2" transform="translate(-2.15827E-13,-67.605)" v:mID="5196" v:groupContext="group">
				<title>工作表.5196</title>
				<g id="group5197-3" transform="translate(9.99201E-16,-5.5275)" v:mID="5197" v:groupContext="group">
					<title>工作表.5197</title>
					<g id="shape5198-4" v:mID="5198" v:groupContext="shape"
							transform="translate(111.202,101.602) rotate(90) scale(-1,1)">
						<title>shape1</title>
						<path d="M0 100.93 L3.67 100.93 L3.67 106.7 L0 106.7 L0 100.93 Z" class="st1"/>
					</g>
					<g id="shape5199-8" v:mID="5199" v:groupContext="shape"
							transform="translate(106.702,106.702) rotate(90) scale(-1,1)">
						<title>shape2</title>
						<path d="M0 102.28 C0 99.88 1.95 97.93 4.43 97.93 C6.83 97.93 8.77 99.88 8.77 102.28 C8.77 104.68 6.83 106.7
									 4.43 106.7 C1.95 106.7 0 104.68 0 102.28 Z" class="st2"/>
					</g>
					<g id="shape5200-12" v:mID="5200" v:groupContext="shape" transform="translate(7.425,206.055) rotate(180)">
						<title>shape3</title>
						<path d="M0 103.7 C0 102.05 1.35 100.7 3 100.7 C4.65 100.7 6 102.05 6 103.7 C6 105.35 4.65 106.7 3 106.7
									 C1.35 106.7 0 105.35 0 103.7 Z" class="st3"/>
					</g>
					<g id="shape5201-16" v:mID="5201" v:groupContext="shape" transform="translate(7.275,206.205) rotate(180)">
						<title>shape4</title>
						<path d="M0 103.85 C0 102.35 1.28 101.08 2.78 101.08 C4.35 101.08 5.63 102.35 5.63 103.85 C5.63 105.43 4.35
									 106.7 2.78 106.7 C1.28 106.7 0 105.43 0 103.85 Z" class="st4"/>
					</g>
				</g>
				<g id="shape5202-20" v:mID="5202" v:groupContext="shape" transform="translate(12.165,-0.525)">
					<title>shape5</title>
					<path d="M0 74.83 L62.4 74.83 L75.45 86.38 L75.45 95.15 L62.4 106.7 L0 106.7 L0 74.83 Z" class="st5"/>
				</g>
				<g id="shape5203-24" v:mID="5203" v:groupContext="shape" transform="translate(21.2025,-32.37)">
					<title>shape6</title>
					<path d="M0 102.65 L5.25 102.65 L5.25 106.7 L0 106.7 L0 102.65 Z" class="st6"/>
				</g>
				<g id="shape5204-28" v:mID="5204" v:groupContext="shape" transform="translate(45.9375,-32.4225)">
					<title>shape7</title>
					<path d="M0 101.53 L5.25 101.53 L5.25 106.7 L0 106.7 L0 101.53 Z" class="st6"/>
				</g>
				<g id="shape5205-31" v:mID="5205" v:groupContext="shape" transform="translate(53.445,-32.4225)">
					<title>shape8</title>
					<path d="M0 101.53 L5.25 101.53 L5.25 106.7 L0 106.7 L0 101.53 Z" class="st6"/>
				</g>
				<g id="shape5206-34" v:mID="5206" v:groupContext="shape" transform="translate(62.235,-32.4375)">
					<title>shape9</title>
					<path d="M0 103.48 L10.43 103.48 L10.43 106.7 L0 106.7 L0 103.48 Z" class="st7"/>
				</g>
				<g id="shape5207-38" v:mID="5207" v:groupContext="shape" transform="translate(9.87,-4.26)">
					<title>shape14</title>
					<path d="M1.12 82.7 L0 82.7 L0 106.7 L1.12 106.7 L1.12 82.7 Z" class="st5"/>
				</g>
				<g id="shape5208-41" v:mID="5208" v:groupContext="shape" transform="translate(5.7225,-18.615)">
					<title>shape15</title>
					<path d="M4.12 99.28 L0 99.28 L0 106.7 L4.12 106.7 L4.12 99.28 Z" class="st8"/>
				</g>
				<g id="shape5209-45" v:mID="5209" v:groupContext="shape" transform="translate(5.7225,-18.615)">
					<title>shape16</title>
					<path d="M0.37 99.28 L0 106.7 L0.37 99.28 Z" class="st9"/>
				</g>
				<g id="shape5210-49" v:mID="5210" v:groupContext="shape" transform="translate(4.8225,-18.42)">
					<title>shape17</title>
					<path d="M0.07 98.9 C0.82 98.9 0.9 98.9 0.9 98.98 L0.9 106.63 C0.9 106.63 0.82 106.7 0.82 106.7 C0.07 106.7 0
								 106.63 0 106.63 L0 98.98 C0 98.9 0.07 98.9 0.07 98.9 Z" class="st8"/>
				</g>
				<g id="shape5211-52" v:mID="5211" v:groupContext="shape" transform="translate(61.8525,-35.52)">
					<title>shape18</title>
					<path d="M0.08 105.58 L11.03 105.58 C11.1 105.58 11.18 105.65 11.18 105.65 L11.18 106.55 C11.18 106.63 11.1 106.7
								 11.03 106.7 L0.08 106.7 C0 106.7 0 106.63 0 106.55 L0 105.65 C0 105.65 0 105.58 0.08 105.58 Z"
							class="st7"/>
				</g>
				<g id="shape5212-55" v:mID="5212" v:groupContext="shape" transform="translate(11.0325,-4.83169E-13)">
					<title>shape22</title>
					<path d="M0.08 73.85 L1.28 73.85 C1.35 73.85 1.35 73.93 1.35 73.93 L1.35 106.55 C1.35 106.63 1.35 106.7 1.28
								 106.7 L0.08 106.7 C0 106.7 0 106.63 0 106.55 L0 73.93 C0 73.93 0 73.85 0.08 73.85 Z" class="st10"/>
				</g>
				<g id="shape5213-59" v:mID="5213" v:groupContext="shape" transform="translate(87.4725,-12.09)">
					<title>shape23</title>
					<path d="M0 97.93 L2.25 97.93 L2.25 106.7 L0 106.7 L0 97.93 Z" class="st5"/>
				</g>
				<g id="shape5214-62" v:mID="5214" v:groupContext="shape" transform="translate(13.9575,-1.9725)">
					<title>shape24</title>
					<path d="M0 77.68 L59.48 77.68 L71.85 88.18 L71.85 96.2 L59.48 106.7 L0 106.7 L0 77.68 Z" class="st11"/>
				</g>
				<g id="group5215-64" transform="translate(13.9575,-8.67)" v:mID="5215" v:groupContext="group">
					<title>工作表.5215</title>
					<g id="group5216-65" transform="translate(1.335,-7.10543E-14)" v:mID="5216" v:groupContext="group">
						<title>工作表.5216</title>
						<g id="shape5217-66" v:mID="5217" v:groupContext="shape">
							<title>shape25</title>
							<path d="M0 101.9 C0 101.9 3.98 99.58 5.1 100.1 C6.23 100.55 8.18 100.4 8.18 100.4 C8.18 100.4 13.58
										 99.5 12.83 100.1 C12.08 100.7 17.78 99.5 16.95 100.1 C16.13 100.78 20.03 99.5 22.58 100.63
										 C23.93 101.15 20.1 100.4 25.13 101.68 C26.1 101.98 23.7 102.28 25.13 102.73 C25.58 103.63
										 19.95 103.48 22.05 104.23 C23.48 104.75 17.78 104.6 16.5 104.45 C14.4 104.3 15.9 104.68
										 15.9 104.68 C15.9 104.68 14.4 106.25 9.83 104.9 C9.83 104.9 10.8 105.58 9.6 105.58 C8.4
										 105.58 6.9 105.65 4.95 105.13 C3 104.68 6.9 106.7 0 103.7 L0 101.9 Z" class="st12"/>
						</g>
						<g id="shape5218-68" v:mID="5218" v:groupContext="shape" transform="translate(7.99361E-14,-0.9075)">
							<title>shape26</title>
							<path d="M0 102.8 C0 102.8 3.45 100.78 4.43 101.23 C5.4 101.68 7.05 101.6 7.05 101.6 C7.05 101.6 11.78
										 100.78 11.1 101.38 C10.43 101.9 13.5 101.53 13.5 101.53 C13.5 101.53 20.85 101 19.8 101.68
										 C18.83 102.28 24.98 102.28 21.98 103.03 C21.38 103.1 24.38 103.48 22.05 103.93 C20.55 104.15
										 19.65 104.08 20.85 104.83 C21.45 105.2 15.3 105.35 13.43 105.13 C11.63 104.83 13.28 105.5
										 13.28 105.5 C13.28 105.5 12.53 106.7 8.48 105.58 C8.48 105.58 9.38 106.1 8.33 106.1 C7.28
										 106.1 5.93 106.03 4.2 105.65 C2.48 105.2 2.1 105.58 0 104.38 L0 102.8 Z" class="st13"/>
						</g>
						<g id="shape5219-70" v:mID="5219" v:groupContext="shape" transform="translate(5.19584E-14,-1.59)">
							<title>shape27</title>
							<path d="M0 103.63 C0 103.63 3 102.05 3.9 102.43 C4.73 102.73 6.15 102.73 6.15 102.73 C6.15 102.73 10.28
										 102.05 9.68 102.5 C9.15 102.95 11.78 102.65 11.78 102.65 C11.78 102.65 18.23 102.2 17.33
										 102.73 C16.2 103.4 20.4 103.1 18.98 103.63 C16.88 103.78 19.58 104.15 19.05 104.38 C18.08
										 104.75 16.8 104.6 17.4 104.75 C18.98 105.2 13.88 105.58 12.3 105.43 C10.73 105.2 12.15 105.73
										 12.15 105.73 C12.15 105.73 10.95 106.7 7.43 105.8 C7.43 105.8 8.18 106.25 7.28 106.25 C6.38
										 106.25 5.18 106.18 3.68 105.88 C2.18 105.5 1.8 105.8 0 104.9 L0 103.63 Z" class="st14"/>
						</g>
						<g id="shape5220-72" v:mID="5220" v:groupContext="shape" transform="translate(0,-2.115)">
							<title>shape28</title>
							<path d="M0 104.3 C0 104.3 2.7 103.1 3.45 103.4 C4.2 103.63 5.48 103.63 5.48 103.63 C5.48 103.63 9.15
										 103.1 8.63 103.48 C8.1 103.78 10.5 103.55 10.5 103.55 C10.5 103.55 14.48 103.4 15.38 103.63
										 C16.28 103.93 17.55 104.38 17.1 104.38 C15.38 104.68 17.78 104.75 17.48 104.98 C17.25 105.2
										 16.88 105.58 15.38 105.5 C11.85 105.35 12.38 105.8 10.95 105.65 C9.53 105.5 10.8 105.95
										 10.8 105.95 C10.8 105.95 9.75 106.7 6.6 106.03 C6.6 106.03 7.28 106.33 6.45 106.33 C5.63
										 106.33 4.58 106.33 3.3 106.03 C1.95 105.8 1.65 106.03 0 105.28 L0 104.3 Z" class="st15"/>
						</g>
					</g>
					<g id="shape5221-74" v:mID="5221" v:groupContext="shape" transform="translate(2.01089E-14,-2.46)">
						<title>shape29</title>
						<path d="M0 103.63 L1.88 103.63 L1.88 106.7 L0 106.7 L0 103.63 Z" class="st16"/>
					</g>
				</g>
			</g>
			<g id="shape5222-78" v:mID="5222" v:groupContext="shape" transform="translate(14.595,-1.42109E-14)">
				<title>shape30</title>
				<path d="M7.28 44.08 L7.28 38.38 L20.55 38.38 L20.55 44.08 C20.55 44.08 27.83 46.7 27.83 51.13 C27.83 55.63 27.83
							 106.7 27.83 106.7 L0 106.7 C0 106.7 0 55.85 0 51.13 C0 46.48 7.28 44.08 7.28 44.08 Z" class="st17"/>
			</g>
			<g id="shape5223-82" v:mID="5223" v:groupContext="shape" transform="translate(15.9975,-1.5)">
				<title>shape31</title>
				<path d="M7.2 46.7 L7.12 38.83 L17.92 38.83 L17.92 46.7 C17.92 46.7 24.97 49.03 24.97 53.08 C24.97 57.05 24.97 106.7
							 24.97 106.7 L0 106.7 C0 106.7 0 57.28 0 53.08 C0 48.88 7.2 46.7 7.2 46.7 Z" class="st18"/>
			</g>
			<g id="group5224-86" transform="translate(16.125,-1.5675)" v:mID="5224" v:groupContext="group">
				<title>工作表.5224</title>
				<g id="shape5225-87" v:mID="5225" v:groupContext="shape" transform="translate(5.79536E-14,-0.0075)">
					<title>shape32</title>
					<path d="M0.15 106.63 C0.15 106.63 0.23 105.28 0.15 104.15 C0 102.65 0.75 105.65 1.13 104.38 C1.5 103.18 1.2
								 100.78 0.08 99.05 C0.08 99.05 1.88 101.83 3 102.2 C3 102.2 3.38 100.4 1.5 97.4 C1.5 97.4 3.3 99.5
								 2.18 97.55 C2.18 97.55 3.6 97.85 3.98 98.9 C4.28 99.95 4.8 100.25 4.8 100.25 C4.8 100.25 4.95 99.35
								 5.33 99.35 C5.33 99.35 5.25 101.75 6.6 102.8 C6.6 102.8 7.13 103.7 7.8 100.1 C7.8 100.1 7.73 98.68
								 7.05 97.4 C6.45 96.13 7.2 96.2 7.05 94.55 C7.05 94.55 7.13 94.18 7.73 94.63 C7.73 94.63 7.43 92.98
								 9 91.85 C9 91.85 8.25 92.45 8.4 93.58 C8.55 94.63 7.8 96.35 7.8 96.35 C7.8 96.35 7.13 98.9 9.45
								 99.2 C9.45 99.2 10.8 99.05 11.4 95.38 C11.4 95.38 11.63 93.28 11.63 92.83 C11.63 92.83 11.63 92.9
								 11.4 93.28 C11.25 93.65 10.95 92.9 11.25 92.23 C11.4 91.63 12.3 91.03 10.58 91.25 C10.58 91.25 11.25
								 90.95 10.73 90.05 C10.2 89.23 7.65 86.98 11.18 85.55 C11.18 85.55 11.85 85.25 10.8 86.08 C9.75 86.98
								 10.35 87.8 10.35 87.8 C10.35 87.8 10.8 87.2 11.4 87.13 C11.4 87.13 8.93 88.18 12.3 89.98 C12.3 89.98
								 12.15 89 13.5 89.15 C13.5 89.15 11.78 90.2 13.35 91.63 C13.35 91.63 14.03 91.7 13.43 93.5 C13.43
								 93.5 13.05 94.78 13.5 95.45 C13.95 95.08 14.93 96.05 14.93 97.48 C14.93 98.9 15 99.65 16.05 98.83
								 C16.05 98.83 17.25 97.78 16.5 95.6 C16.5 95.6 15.83 94.25 16.05 93.05 C16.05 93.05 15.98 92.38 15.45
								 92 C15.45 92 17.03 92.75 16.73 94.7 C16.73 94.7 17.33 94.25 17.48 94.55 C17.48 94.55 17.1 95 17.48
								 95.83 C17.85 96.65 17.03 98.6 16.88 99.35 C16.73 100.03 16.5 102.05 17.85 102.95 C17.85 102.95 19.05
								 101.9 19.2 99.35 C19.2 99.35 19.8 99.35 19.73 100.25 C19.73 100.25 20.33 99.8 20.7 98.75 C21 97.7
								 22.28 97.48 22.28 97.48 C22.28 97.48 21.38 98.75 22.28 98.3 C22.28 98.3 22.73 98.08 23.25 97.33
								 C23.25 97.33 20.93 100.25 21.68 102.28 C21.68 102.28 21.75 102.95 24.45 99.05 C24.45 99.05 22.73
								 101.6 23.48 104.45 C23.48 104.45 23.85 105.43 24.15 105.73 C24.75 106.33 24.68 106.7 24.68 106.7
								 L0.15 106.63 Z" class="st12"/>
				</g>
				<g id="shape5226-89" v:mID="5226" v:groupContext="shape" transform="translate(1.14,-0.1425)">
					<title>shape33</title>
					<path d="M1.13 106.7 C1.13 106.7 0.15 105.95 0.08 105.05 C0 104.15 1.2 102.65 1.2 102.65 C1.2 102.65 0.9 105.35
								 2.93 104.83 C2.93 104.83 4.35 104.3 2.93 102.95 C2.93 102.95 2.48 102.58 1.95 102.58 C1.95 102.58
								 2.78 101.68 4.5 102.58 C4.5 102.58 5.78 103.4 5.93 103.55 C5.93 103.55 6.3 100.18 8.93 99.73 C8.93
								 99.73 7.8 100.93 7.95 101.38 C8.1 101.75 9.3 101.38 9.45 100.4 C9.53 99.43 9.3 98.9 9.3 98.9 C9.3
								 98.9 9.68 99.28 9.68 99.35 C9.68 99.5 10.58 99.88 10.73 95.75 C10.73 95.75 11.18 96.28 11.18 96.73
								 C11.18 96.73 11.55 94.4 11.18 93.28 C11.18 93.28 13.13 97.33 11.03 100.25 C11.03 100.25 11.85 99.5
								 12.3 99.95 C12.3 99.95 11.03 100.78 12.08 103.03 C12.08 103.03 12.53 101 12.75 100.85 C13.05 100.63
								 13.05 101.68 14.18 101.15 C14.18 101.15 14.48 100.78 13.2 99.73 C13.2 99.73 15.45 100.1 16.28 103.55
								 C16.28 103.55 18 101.83 20.18 102.5 C20.18 102.5 18.08 103.18 19.05 104.6 C19.05 104.6 20.1 105.43
								 20.78 104.08 C20.78 104.08 21 103.4 21 102.8 C21 102.8 22.35 104.23 21.75 105.58 C21.75 105.58 21.15
								 106.63 20.85 106.7 L1.12 106.7 Z" class="st13"/>
				</g>
				<g id="shape5227-91" v:mID="5227" v:groupContext="shape" transform="translate(1.965,-0.1425)">
					<title>shape34</title>
					<path d="M1.42 106.7 C1.42 106.7 1.57 106.25 0.75 105.65 C0 104.98 0.3 104.3 0.3 104.3 C0.3 104.3 0.6 105.13
								 1.57 105.13 C2.47 105.13 2.77 105.43 2.77 105.43 C2.77 105.43 3 104.68 3.3 104.53 C3.52 104.3 3.3
								 105.65 4.27 105.73 C4.27 105.73 4.35 105.65 3.97 105.2 C3.52 104.75 4.27 104.3 4.27 104.3 C4.27
								 104.3 6.9 104.53 6.15 101.68 C6.15 101.68 7.27 102.2 7.8 102.13 C8.32 102.13 9 102.8 9 103.48 C9
								 103.48 10.27 103.18 9.9 101.38 C9.9 101.38 9.97 100.33 11.1 100.48 C11.1 100.48 10.05 101.53 10.87
								 103.1 C11.32 103.55 11.32 102.43 12.75 102.2 C14.25 101.9 14.32 101.53 14.32 101.53 C14.32 101.53
								 13.65 103.03 14.17 103.63 C14.7 104.3 15.75 104.45 16.2 104.38 C16.57 104.3 16.57 105.05 16.42 105.28
								 C16.35 105.5 16.27 106.18 16.87 105.5 C17.47 104.83 17.02 104.15 17.47 105.2 C17.47 105.2 17.62
								 105.73 17.85 105.2 C17.85 105.2 18.3 104.68 19.27 105.13 C19.27 105.13 19.95 105.35 20.02 104.75
								 C20.02 104.75 20.4 105.28 19.35 105.95 C19.35 105.95 18.97 106.25 19.05 106.7 L1.42 106.7 Z"
							class="st14"/>
				</g>
				<g id="shape5228-93" v:mID="5228" v:groupContext="shape" transform="translate(6.1725,-0.15)">
					<title>shape35</title>
					<path d="M0.9 106.7 C0.9 106.7 0.83 106.03 0.45 106.03 C0 106.03 0.68 105.8 1.13 106.1 C1.5 106.4 1.05 105.8
								 0.9 105.5 C0.83 105.28 0.9 104.68 1.5 104.68 C2.03 104.68 2.63 104.75 2.33 102.58 C2.33 102.58 2.93
								 103.03 3.38 103.03 C3.9 103.03 4.35 103.85 4.28 104.08 C4.2 104.3 5.33 104 5.48 103.03 C5.63 101.98
								 6 101 6.53 100.7 C6.98 100.4 6.08 100.85 6.08 102.28 C6.08 103.7 6.83 104.38 7.65 104.08 C7.65 104.08
								 7.8 103.18 8.55 102.95 C9.3 102.8 9.68 102.65 9.68 102.58 C9.68 102.43 8.7 104.75 10.88 104.75 C10.88
								 104.75 11.33 105.28 10.8 106.03 C10.2 106.7 11.18 105.73 11.63 105.88 C11.63 105.88 11.33 105.95
								 11.1 106.25 C10.88 106.55 10.95 106.7 10.95 106.7 L0.9 106.7 Z" class="st15"/>
				</g>
				<g id="shape5229-95" v:mID="5229" v:groupContext="shape" transform="translate(17.4975,-0.1125)">
					<title>shape36</title>
					<path d="M3.15 106.7 C3.15 106.7 2.55 105.65 3.45 105.28 C3.45 105.28 2.55 104.83 2.33 106.1 C2.33 106.1 1.88
								 106.55 1.58 104.68 C1.58 104.68 1.8 106.18 1.35 106.33 C0.98 106.48 0.75 106.03 1.13 105.73 C1.13
								 105.73 0.45 105.43 0.75 106.33 C0.75 106.33 0.75 105.8 0 106.7 L3.15 106.7 Z" class="st15"/>
				</g>
				<g id="shape5230-97" v:mID="5230" v:groupContext="shape" transform="translate(3.33,-1.42109E-14)">
					<title>shape37</title>
					<path d="M0.45 106.55 C0.45 106.55 1.05 105.28 0 105.2 C0 105.2 1.35 104.45 1.12 105.88 C1.12 105.88 1.57 106.1
								 1.95 104.83 C1.95 104.83 2.17 105.35 1.87 105.95 C1.5 106.55 2.32 106.4 2.47 105.65 C2.47 105.65
								 2.77 105.88 2.62 106.33 C2.62 106.33 3.52 106.1 3.22 106.7 L0.45 106.55 Z" class="st15"/>
				</g>
			</g>
		</g>
	</g>
</svg>
