<?xml version="1.0" encoding="UTF-8" standalone="no"?>
<!DOCTYPE svg PUBLIC "-//W3C//DTD SVG 1.1//EN" "http://www.w3.org/Graphics/SVG/1.1/DTD/svg11.dtd">
<!-- 由 Microsoft Visio, SVG Export 生成 罐9.svg 页-1 -->
<svg xmlns="http://www.w3.org/2000/svg" xmlns:xlink="http://www.w3.org/1999/xlink" xmlns:ev="http://www.w3.org/2001/xml-events"
		xmlns:v="http://schemas.microsoft.com/visio/2003/SVGExtensions/" width="0.992188in" height="1.34167in"
		viewBox="0 0 71.4375 96.6" xml:space="preserve" color-interpolation-filters="sRGB" class="st27">
	<v:documentProperties v:langID="2052" v:metric="true" v:viewMarkup="false"/>

	<style type="text/css">
	<![CDATA[
		.st1 {fill:url(#grad0-5);stroke:none;stroke-linecap:butt;stroke-width:0.75}
		.st2 {fill:url(#grad0-9);stroke:none;stroke-linecap:butt;stroke-width:0.75}
		.st3 {fill:url(#grad0-13);stroke:none;stroke-linecap:butt;stroke-width:0.75}
		.st4 {fill:url(#grad3-17);stroke:#2c85bd;stroke-linecap:butt;stroke-width:0.1875}
		.st5 {fill:#1d5a80;stroke:none;stroke-linecap:butt;stroke-width:0.75}
		.st6 {fill:#4a94ca;stroke:none;stroke-linecap:butt;stroke-width:0.75}
		.st7 {fill:#2675aa;stroke:none;stroke-linecap:butt;stroke-width:0.75}
		.st8 {fill:#3e3938;stroke:none;stroke-linecap:butt;stroke-width:0.75}
		.st9 {fill:none}
		.st10 {stroke:#4a94ca;stroke-linecap:butt;stroke-width:0.75}
		.st11 {fill:url(#grad0-75);stroke:none;stroke-linecap:butt;stroke-width:0.75}
		.st12 {fill:url(#grad0-79);stroke:none;stroke-linecap:butt;stroke-width:0.75}
		.st13 {fill:url(#grad0-89);stroke:none;stroke-linecap:butt;stroke-width:0.75}
		.st14 {fill:url(#grad0-93);stroke:none;stroke-linecap:butt;stroke-width:0.75}
		.st15 {fill:#7d040f;stroke:none;stroke-linecap:butt;stroke-width:0.75}
		.st16 {fill:url(#grad0-101);stroke:#ffffff;stroke-linecap:butt;stroke-width:0.75}
		.st17 {fill:#276f71;stroke:none;stroke-linecap:butt;stroke-width:0.75}
		.st18 {fill:url(#grad0-108);stroke:#ffffff;stroke-linecap:butt;stroke-width:0.75}
		.st19 {fill:url(#grad0-133);stroke:none;stroke-linecap:butt;stroke-width:0.75}
		.st20 {fill:url(#grad0-137);stroke:none;stroke-linecap:butt;stroke-width:0.75}
		.st21 {fill:url(#grad0-143);stroke:none;stroke-linecap:butt;stroke-width:0.75}
		.st22 {fill:url(#grad0-147);stroke:none;stroke-linecap:butt;stroke-width:0.75}
		.st23 {fill:url(#grad0-152);stroke:none;stroke-linecap:butt;stroke-width:0.75}
		.st24 {fill:#ffffff;fill-opacity:0.2;stroke:none;stroke-linecap:butt;stroke-width:0.75}
		.st25 {fill:#242020;stroke:#3e3938;stroke-linecap:butt;stroke-width:0.75}
		.st26 {fill:#ffffff;fill-opacity:0.17;stroke:none;stroke-linecap:butt;stroke-width:0.75}
		.st27 {fill:none;fill-rule:evenodd;font-size:12px;overflow:visible;stroke-linecap:square;stroke-miterlimit:3}
	]]>
	</style>

	<defs id="Patterns_And_Gradients">
		<linearGradient id="grad0-5" x1="0" y1="0" x2="1" y2="0" gradientTransform="rotate(-180 0.5 0.5)">
			<stop offset="0" stop-color="#346c95" stop-opacity="1"/>
			<stop offset="0.15" stop-color="#639dce" stop-opacity="1"/>
			<stop offset="0.25" stop-color="#b9cde4" stop-opacity="1"/>
			<stop offset="0.52" stop-color="#4081b1" stop-opacity="1"/>
			<stop offset="0.69" stop-color="#38729d" stop-opacity="1"/>
			<stop offset="0.8" stop-color="#346b94" stop-opacity="1"/>
			<stop offset="0.92" stop-color="#30658b" stop-opacity="1"/>
			<stop offset="1" stop-color="#3975a1" stop-opacity="1"/>
		</linearGradient>
		<linearGradient id="grad0-9" x1="0" y1="0" x2="1" y2="0" gradientTransform="rotate(90 0.5 0.5)">
			<stop offset="0" stop-color="#959d97" stop-opacity="1"/>
			<stop offset="0.15" stop-color="#ced7d0" stop-opacity="1"/>
			<stop offset="0.25" stop-color="#e4e9e5" stop-opacity="1"/>
			<stop offset="0.52" stop-color="#b1b9b2" stop-opacity="1"/>
			<stop offset="0.69" stop-color="#9da59e" stop-opacity="1"/>
			<stop offset="0.8" stop-color="#949b95" stop-opacity="1"/>
			<stop offset="0.92" stop-color="#8b938d" stop-opacity="1"/>
			<stop offset="1" stop-color="#a1a9a2" stop-opacity="1"/>
		</linearGradient>
		<linearGradient id="grad0-13" x1="0" y1="0" x2="1" y2="0" gradientTransform="rotate(-180 0.5 0.5)">
			<stop offset="0" stop-color="#959d97" stop-opacity="1"/>
			<stop offset="0.15" stop-color="#ced7d0" stop-opacity="1"/>
			<stop offset="0.25" stop-color="#e4e9e5" stop-opacity="1"/>
			<stop offset="0.52" stop-color="#b1b9b2" stop-opacity="1"/>
			<stop offset="0.69" stop-color="#9da59e" stop-opacity="1"/>
			<stop offset="0.8" stop-color="#949b95" stop-opacity="1"/>
			<stop offset="0.92" stop-color="#8b938d" stop-opacity="1"/>
			<stop offset="1" stop-color="#a1a9a2" stop-opacity="1"/>
		</linearGradient>
		<radialGradient id="grad3-17" cx="0.5" cy="0.5" r="0.73">
			<stop offset="0" stop-color="#2677aa" stop-opacity="1"/>
			<stop offset="0.91" stop-color="#2677aa" stop-opacity="1"/>
		</radialGradient>
		<linearGradient id="grad0-75" x1="0" y1="0" x2="1" y2="0" gradientTransform="rotate(-180 0.5 0.5)">
			<stop offset="0" stop-color="#aeaead" stop-opacity="1"/>
			<stop offset="0.03" stop-color="#f8f8f7" stop-opacity="1"/>
			<stop offset="0.08" stop-color="#e3e3e2" stop-opacity="1"/>
			<stop offset="0.64" stop-color="#dfdfde" stop-opacity="1"/>
			<stop offset="0.95" stop-color="#dadad9" stop-opacity="1"/>
			<stop offset="1" stop-color="#a2a2a1" stop-opacity="1"/>
		</linearGradient>
		<linearGradient id="grad0-79" x1="0" y1="0" x2="1" y2="0" gradientTransform="rotate(-180 0.5 0.5)">
			<stop offset="0" stop-color="#206694" stop-opacity="1"/>
			<stop offset="0.03" stop-color="#83b0dc" stop-opacity="1"/>
			<stop offset="0.08" stop-color="#2d87c1" stop-opacity="1"/>
			<stop offset="0.64" stop-color="#2c85be" stop-opacity="1"/>
			<stop offset="0.95" stop-color="#2b82ba" stop-opacity="1"/>
			<stop offset="1" stop-color="#1d5f89" stop-opacity="1"/>
		</linearGradient>
		<linearGradient id="grad0-89" x1="0" y1="0" x2="1" y2="0" gradientTransform="rotate(-180 0.5 0.5)">
			<stop offset="0.08" stop-color="#2d87c1" stop-opacity="1"/>
			<stop offset="0.6" stop-color="#2c85be" stop-opacity="1"/>
			<stop offset="0.67" stop-color="#2b82ba" stop-opacity="1"/>
			<stop offset="1" stop-color="#1d5f89" stop-opacity="1"/>
		</linearGradient>
		<linearGradient id="grad0-93" x1="0" y1="0" x2="1" y2="0" gradientTransform="rotate(0 0.5 0.5)">
			<stop offset="0" stop-color="#206694" stop-opacity="1"/>
			<stop offset="0.16" stop-color="#83b0dc" stop-opacity="1"/>
		</linearGradient>
		<linearGradient id="grad0-101" x1="0" y1="0" x2="1" y2="0" gradientTransform="rotate(58.465208094812 0.5 0.5)">
			<stop offset="0" stop-color="#9f5153" stop-opacity="1"/>
			<stop offset="1" stop-color="#7b030d" stop-opacity="1"/>
		</linearGradient>
		<linearGradient id="grad0-108" x1="0" y1="0" x2="1" y2="0" gradientTransform="rotate(58.465208094812 0.5 0.5)">
			<stop offset="0" stop-color="#91cfd1" stop-opacity="1"/>
			<stop offset="1" stop-color="#49aeb1" stop-opacity="1"/>
		</linearGradient>
		<linearGradient id="grad0-133" x1="0" y1="0" x2="1" y2="0" gradientTransform="rotate(-180 0.5 0.5)">
			<stop offset="0" stop-color="#89928b" stop-opacity="1"/>
			<stop offset="0.15" stop-color="#bfcac2" stop-opacity="1"/>
			<stop offset="0.25" stop-color="#dde2de" stop-opacity="1"/>
			<stop offset="0.52" stop-color="#a2ada5" stop-opacity="1"/>
			<stop offset="0.69" stop-color="#909a93" stop-opacity="1"/>
			<stop offset="0.8" stop-color="#88918a" stop-opacity="1"/>
			<stop offset="0.92" stop-color="#808982" stop-opacity="1"/>
			<stop offset="1" stop-color="#949d96" stop-opacity="1"/>
		</linearGradient>
		<linearGradient id="grad0-137" x1="0" y1="0" x2="1" y2="0" gradientTransform="rotate(-180 0.5 0.5)">
			<stop offset="0" stop-color="#357096" stop-opacity="1"/>
			<stop offset="0.03" stop-color="#8cb8de" stop-opacity="1"/>
			<stop offset="0.08" stop-color="#4793c4" stop-opacity="1"/>
			<stop offset="0.64" stop-color="#4691c1" stop-opacity="1"/>
			<stop offset="0.95" stop-color="#448dbc" stop-opacity="1"/>
			<stop offset="1" stop-color="#30688b" stop-opacity="1"/>
		</linearGradient>
		<linearGradient id="grad0-143" x1="0" y1="0" x2="1" y2="0" gradientTransform="rotate(-180 0.5 0.5)">
			<stop offset="0" stop-color="#1c5e8a" stop-opacity="1"/>
			<stop offset="0.03" stop-color="#81a8d2" stop-opacity="1"/>
			<stop offset="0.08" stop-color="#287cb4" stop-opacity="1"/>
			<stop offset="0.64" stop-color="#277ab1" stop-opacity="1"/>
			<stop offset="0.95" stop-color="#2677ad" stop-opacity="1"/>
			<stop offset="1" stop-color="#195780" stop-opacity="1"/>
		</linearGradient>
		<linearGradient id="grad0-147" x1="0" y1="0" x2="1" y2="0" gradientTransform="rotate(-180 0.5 0.5)">
			<stop offset="0" stop-color="#18537a" stop-opacity="1"/>
			<stop offset="0.03" stop-color="#80a0c2" stop-opacity="1"/>
			<stop offset="0.08" stop-color="#236ea0" stop-opacity="1"/>
			<stop offset="0.64" stop-color="#226c9d" stop-opacity="1"/>
			<stop offset="0.95" stop-color="#216a9a" stop-opacity="1"/>
			<stop offset="1" stop-color="#164d71" stop-opacity="1"/>
		</linearGradient>
		<linearGradient id="grad0-152" x1="0" y1="0" x2="1" y2="0" gradientTransform="rotate(-180 0.5 0.5)">
			<stop offset="0" stop-color="#161616" stop-opacity="1"/>
			<stop offset="0.15" stop-color="#464646" stop-opacity="1"/>
			<stop offset="0.25" stop-color="#474747" stop-opacity="1"/>
			<stop offset="0.63" stop-color="#000000" stop-opacity="1"/>
		</linearGradient>
	</defs>
	<g v:mID="0" v:index="1" v:groupContext="foregroundPage">
		<title>页-1</title>
		<v:pageProperties v:drawingScale="0.0393701" v:pageScale="0.0393701" v:drawingUnits="24" v:shadowOffsetX="8.50394"
				v:shadowOffsetY="-8.50394"/>
		<g id="group4973-1" transform="translate(0.1875,-0.75)" v:mID="4973" v:groupContext="group">
			<title>锅炉8</title>
			<g id="shape4974-2" v:mID="4974" v:groupContext="shape" transform="translate(39.405,-10.335)">
				<title>shape1</title>
				<path d="M0 89.92 L9.3 89.92 L9.3 96.6 L0 96.6 L0 89.92 Z" class="st1"/>
			</g>
			<g id="shape4975-6" v:mID="4975" v:groupContext="shape" transform="translate(8.0775,-19.59)">
				<title>shape2</title>
				<path d="M9.98 94.35 L0 94.35 L0 96.6 L9.98 96.6 L9.98 94.35 Z" class="st2"/>
			</g>
			<g id="shape4976-10" v:mID="4976" v:groupContext="shape" transform="translate(7.6725,-19.575)">
				<title>shape3</title>
				<path d="M0 82.5 L0 96.6 L2.25 96.6 L2.25 82.5 L0 82.5 Z" class="st3"/>
			</g>
			<g id="shape4977-14" v:mID="4977" v:groupContext="shape" transform="translate(-1.65867E-13,-32.1975)">
				<title>shape4</title>
				<path d="M0 87.75 C0 82.87 3.9 78.9 8.77 78.9 C13.65 78.9 17.55 82.87 17.55 87.75 C17.55 92.62 13.65 96.6 8.77 96.6
							 C3.9 96.6 0 92.62 0 87.75 Z" class="st4"/>
			</g>
			<g id="shape4978-18" v:mID="4978" v:groupContext="shape" transform="translate(1.5375,-33.7275)">
				<title>shape5</title>
				<path d="M0 89.25 C0 85.27 3.23 81.97 7.28 81.97 C11.25 81.97 14.48 85.27 14.48 89.25 C14.48 93.3 11.25 96.6 7.28
							 96.6 C3.23 96.6 0 93.3 0 89.25 Z" class="st5"/>
			</g>
			<g id="shape4979-20" v:mID="4979" v:groupContext="shape" transform="translate(2.0175,-34.215)">
				<title>shape6</title>
				<path d="M0 89.77 C0 86.02 3 82.95 6.75 82.95 C10.5 82.95 13.5 86.02 13.5 89.77 C13.5 93.52 10.5 96.6 6.75 96.6 C3
							 96.6 0 93.52 0 89.77 Z" class="st6"/>
			</g>
			<g id="shape4980-22" v:mID="4980" v:groupContext="shape" transform="translate(2.8725,-35.0775)">
				<title>shape7</title>
				<path d="M0 90.6 C0 87.37 2.63 84.67 5.93 84.67 C9.15 84.67 11.85 87.37 11.85 90.6 C11.85 93.9 9.15 96.6 5.93 96.6
							 C2.63 96.6 0 93.9 0 90.6 Z" class="st7"/>
			</g>
			<g id="shape4981-24" v:mID="4981" v:groupContext="shape" transform="translate(3.2775,-35.49)">
				<title>shape8</title>
				<path d="M0 91.05 C0 87.97 2.47 85.5 5.47 85.5 C8.55 85.5 11.02 87.97 11.02 91.05 C11.02 94.12 8.55 96.6 5.47 96.6
							 C2.47 96.6 0 94.12 0 91.05 Z" class="st8"/>
			</g>
			<g id="group4982-26" transform="translate(3.2775,-36.69)" v:mID="4982" v:groupContext="group">
				<title>工作表.4982</title>
				<g id="shape4983-27" v:mID="4983" v:groupContext="shape" transform="translate(-1.19904E-13,-4.365)">
					<title>shape9</title>
					<path d="M0 96.6 L11.02 96.6 L0 96.6 Z" class="st9"/>
					<path d="M0 96.6 L11.02 96.6" class="st10"/>
				</g>
				<g id="shape4984-30" v:mID="4984" v:groupContext="shape" transform="translate(0.1875,-5.805)">
					<title>shape10</title>
					<path d="M0 96.6 L10.65 96.6 L0 96.6 Z" class="st9"/>
					<path d="M0 96.6 L10.65 96.6" class="st10"/>
				</g>
				<g id="shape4985-33" v:mID="4985" v:groupContext="shape" transform="translate(0.7875,-7.2525)">
					<title>shape11</title>
					<path d="M0 96.6 L9.45 96.6 L0 96.6 Z" class="st9"/>
					<path d="M0 96.6 L9.45 96.6" class="st10"/>
				</g>
				<g id="shape4986-36" v:mID="4986" v:groupContext="shape" transform="translate(2.055,-8.6925)">
					<title>shape12</title>
					<path d="M0 96.6 L6.9 96.6 L0 96.6 Z" class="st9"/>
					<path d="M0 96.6 L6.9 96.6" class="st10"/>
				</g>
				<g id="shape4987-39" v:mID="4987" v:groupContext="shape" transform="translate(0.165,-2.91)">
					<title>shape13</title>
					<path d="M0 96.6 L10.65 96.6 L0 96.6 Z" class="st9"/>
					<path d="M0 96.6 L10.65 96.6" class="st10"/>
				</g>
				<g id="shape4988-42" v:mID="4988" v:groupContext="shape" transform="translate(0.855,-1.455)">
					<title>shape14</title>
					<path d="M0 96.6 L9.3 96.6 L0 96.6 Z" class="st9"/>
					<path d="M0 96.6 L9.3 96.6" class="st10"/>
				</g>
				<g id="shape4989-45" v:mID="4989" v:groupContext="shape" transform="translate(2.1825,0)">
					<title>shape15</title>
					<path d="M0 96.6 L6.6 96.6 L0 96.6 Z" class="st9"/>
					<path d="M0 96.6 L6.6 96.6" class="st10"/>
				</g>
			</g>
			<g id="group4990-48" transform="translate(-83.4,61.05) rotate(-90)" v:mID="4990" v:groupContext="group">
				<title>工作表.4990</title>
				<g id="shape4991-49" v:mID="4991" v:groupContext="shape" transform="translate(8.89289E-14,-4.3275)">
					<title>shape16</title>
					<path d="M0 96.6 L11.1 96.6 L0 96.6 Z" class="st9"/>
					<path d="M0 96.6 L11.1 96.6" class="st10"/>
				</g>
				<g id="shape4992-52" v:mID="4992" v:groupContext="shape" transform="translate(0.1875,-5.76)">
					<title>shape17</title>
					<path d="M0 96.6 L10.73 96.6 L0 96.6 Z" class="st9"/>
					<path d="M0 96.6 L10.73 96.6" class="st10"/>
				</g>
				<g id="shape4993-55" v:mID="4993" v:groupContext="shape" transform="translate(0.795,-7.1925)">
					<title>shape18</title>
					<path d="M0 96.6 L9.53 96.6 L0 96.6 Z" class="st9"/>
					<path d="M0 96.6 L9.53 96.6" class="st10"/>
				</g>
				<g id="shape4994-58" v:mID="4994" v:groupContext="shape" transform="translate(2.0625,-8.625)">
					<title>shape19</title>
					<path d="M0 96.6 L6.98 96.6 L0 96.6 Z" class="st9"/>
					<path d="M0 96.6 L6.98 96.6" class="st10"/>
				</g>
				<g id="shape4995-61" v:mID="4995" v:groupContext="shape" transform="translate(0.165,-2.8875)">
					<title>shape20</title>
					<path d="M0 96.6 L10.73 96.6 L0 96.6 Z" class="st9"/>
					<path d="M0 96.6 L10.73 96.6" class="st10"/>
				</g>
				<g id="shape4996-64" v:mID="4996" v:groupContext="shape" transform="translate(0.855,-1.44)">
					<title>shape21</title>
					<path d="M0 96.6 L9.38 96.6 L0 96.6 Z" class="st9"/>
					<path d="M0 96.6 L9.38 96.6" class="st10"/>
				</g>
				<g id="shape4997-67" v:mID="4997" v:groupContext="shape" transform="translate(2.1975,0)">
					<title>shape22</title>
					<path d="M0 96.6 L6.68 96.6 L0 96.6 Z" class="st9"/>
					<path d="M0 96.6 L6.68 96.6" class="st10"/>
				</g>
			</g>
			<g id="shape4998-70" v:mID="4998" v:groupContext="shape" transform="translate(7.395,-39.5925)">
				<title>shape23</title>
				<path d="M0 93.67 L2.85 93.67 L2.85 96.6 L0 96.6 L0 93.67 Z" class="st6"/>
			</g>
			<g id="shape4999-72" v:mID="4999" v:groupContext="shape" transform="translate(2.8875,-58.8375)">
				<title>shape24</title>
				<path d="M0 74.7 L14.7 74.7 L14.7 96.6 L0 96.6 L0 74.7 Z" class="st11"/>
			</g>
			<g id="shape5000-76" v:mID="5000" v:groupContext="shape" transform="translate(2.8875,-80.7675)">
				<title>shape25</title>
				<path d="M0 94.2 L14.7 94.2 L14.7 96.6 L0 96.6 L0 94.2 Z" class="st12"/>
			</g>
			<g id="shape5001-80" v:mID="5001" v:groupContext="shape" transform="translate(17.6025,-16.845)">
				<title>shape26</title>
				<path d="M0 27.22 L52.87 27.22 L52.87 96.6 L0 96.6 L0 27.22 Z" class="st11"/>
			</g>
			<g id="shape5002-83" v:mID="5002" v:groupContext="shape" transform="translate(17.6025,-86.1825)">
				<title>shape27</title>
				<path d="M0 94.2 L52.87 94.2 L52.87 96.6 L0 96.6 L0 94.2 Z" class="st12"/>
			</g>
			<g id="shape5003-86" v:mID="5003" v:groupContext="shape" transform="translate(17.6025,-7.10543E-14)">
				<title>shape28</title>
				<path d="M0 79.72 L7.87 79.72 L3.82 96.6 L0 96.6 L0 79.72 Z" class="st13"/>
			</g>
			<g id="shape5004-90" v:mID="5004" v:groupContext="shape" transform="translate(70.5,-7.10543E-14) scale(-1,1)">
				<title>shape29</title>
				<path d="M0 79.72 L7.87 79.72 L3.82 96.6 L0 96.6 L0 79.72 Z" class="st14"/>
			</g>
			<g id="group5005-94" transform="translate(58.1775,-50.1)" v:mID="5005" v:groupContext="group">
				<title>工作表.5005</title>
				<g id="group5006-95" transform="translate(0,-20.6175)" v:mID="5006" v:groupContext="group">
					<title>工作表.5006</title>
					<g id="shape5007-96" v:mID="5007" v:groupContext="shape">
						<title>shape30</title>
						<path d="M0 94.5 C0 93.37 0.9 92.47 2.02 92.47 C3.15 92.47 4.05 93.37 4.05 94.5 C4.05 95.7 3.15 96.6 2.02
									 96.6 C0.9 96.6 0 95.7 0 94.5 Z" class="st15"/>
					</g>
					<g id="shape5008-98" v:mID="5008" v:groupContext="shape" transform="translate(0.375,-0.3675)">
						<title>shape31</title>
						<path d="M0 94.87 C0 93.97 0.75 93.22 1.65 93.22 C2.55 93.22 3.3 93.97 3.3 94.87 C3.3 95.85 2.55 96.6 1.65
									 96.6 C0.75 96.6 0 95.85 0 94.87 Z" class="st16"/>
					</g>
				</g>
				<g id="group5009-102" transform="translate(0,-13.74)" v:mID="5009" v:groupContext="group">
					<title>工作表.5009</title>
					<g id="shape5010-103" v:mID="5010" v:groupContext="shape">
						<title>shape32</title>
						<path d="M0 94.5 C0 93.37 0.9 92.47 2.02 92.47 C3.15 92.47 4.05 93.37 4.05 94.5 C4.05 95.7 3.15 96.6 2.02
									 96.6 C0.9 96.6 0 95.7 0 94.5 Z" class="st17"/>
					</g>
					<g id="shape5011-105" v:mID="5011" v:groupContext="shape" transform="translate(0.375,-0.3675)">
						<title>shape33</title>
						<path d="M0 94.87 C0 93.97 0.75 93.22 1.65 93.22 C2.55 93.22 3.3 93.97 3.3 94.87 C3.3 95.85 2.55 96.6 1.65
									 96.6 C0.75 96.6 0 95.85 0 94.87 Z" class="st18"/>
					</g>
				</g>
				<g id="group5012-109" transform="translate(0,-27.4875)" v:mID="5012" v:groupContext="group">
					<title>工作表.5012</title>
					<g id="shape5013-110" v:mID="5013" v:groupContext="shape">
						<title>shape34</title>
						<path d="M0 94.5 C0 93.37 0.9 92.47 2.02 92.47 C3.15 92.47 4.05 93.37 4.05 94.5 C4.05 95.7 3.15 96.6 2.02
									 96.6 C0.9 96.6 0 95.7 0 94.5 Z" class="st15"/>
					</g>
					<g id="shape5014-112" v:mID="5014" v:groupContext="shape" transform="translate(0.375,-0.3675)">
						<title>shape35</title>
						<path d="M0 94.87 C0 93.97 0.75 93.22 1.65 93.22 C2.55 93.22 3.3 93.97 3.3 94.87 C3.3 95.85 2.55 96.6 1.65
									 96.6 C0.75 96.6 0 95.85 0 94.87 Z" class="st16"/>
					</g>
				</g>
				<g id="group5015-115" transform="translate(0,-6.87)" v:mID="5015" v:groupContext="group">
					<title>工作表.5015</title>
					<g id="shape5016-116" v:mID="5016" v:groupContext="shape">
						<title>shape36</title>
						<path d="M0 94.5 C0 93.37 0.9 92.47 2.02 92.47 C3.15 92.47 4.05 93.37 4.05 94.5 C4.05 95.7 3.15 96.6 2.02
									 96.6 C0.9 96.6 0 95.7 0 94.5 Z" class="st17"/>
					</g>
					<g id="shape5017-118" v:mID="5017" v:groupContext="shape" transform="translate(0.375,-0.3675)">
						<title>shape37</title>
						<path d="M0 94.87 C0 93.97 0.75 93.22 1.65 93.22 C2.55 93.22 3.3 93.97 3.3 94.87 C3.3 95.85 2.55 96.6 1.65
									 96.6 C0.75 96.6 0 95.85 0 94.87 Z" class="st18"/>
					</g>
				</g>
				<g id="group5018-121" v:mID="5018" v:groupContext="group">
					<title>工作表.5018</title>
					<g id="shape5019-122" v:mID="5019" v:groupContext="shape">
						<title>shape38</title>
						<path d="M0 94.5 C0 93.37 0.9 92.47 2.02 92.47 C3.15 92.47 4.05 93.37 4.05 94.5 C4.05 95.7 3.15 96.6 2.02
									 96.6 C0.9 96.6 0 95.7 0 94.5 Z" class="st15"/>
					</g>
					<g id="shape5020-124" v:mID="5020" v:groupContext="shape" transform="translate(0.375,-0.3675)">
						<title>shape39</title>
						<path d="M0 94.87 C0 93.97 0.75 93.22 1.65 93.22 C2.55 93.22 3.3 93.97 3.3 94.87 C3.3 95.85 2.55 96.6 1.65
									 96.6 C0.75 96.6 0 95.85 0 94.87 Z" class="st16"/>
					</g>
				</g>
			</g>
			<g id="shape5021-127" v:mID="5021" v:groupContext="shape" transform="translate(15.8025,-18.9975)">
				<title>shape40</title>
				<path d="M2.25 93.22 L0 93.22 L0 96.6 L2.25 96.6 L2.25 93.22 Z" class="st2"/>
			</g>
			<g id="shape5022-130" v:mID="5022" v:groupContext="shape" transform="translate(7.1475,-26.7525)">
				<title>shape41</title>
				<path d="M0 92.55 L0 96.6 L3.3 96.6 L3.3 92.55 L0 92.55 Z" class="st19"/>
			</g>
			<g id="shape5023-134" v:mID="5023" v:groupContext="shape" transform="translate(31.455,-46.965)">
				<title>shape42</title>
				<path d="M0 75.75 L3.6 75.75 L3.6 96.6 L0 96.6 L0 75.75 Z" class="st20"/>
			</g>
			<g id="shape5024-138" v:mID="5024" v:groupContext="shape" transform="translate(32.565,-48.75)">
				<title>shape43</title>
				<path d="M0 79.27 L1.35 79.27 L1.35 96.6 L0 96.6 L0 79.27 Z" class="st8"/>
			</g>
			<g id="shape5025-140" v:mID="5025" v:groupContext="shape" transform="translate(34.98,-46.965)">
				<title>shape44</title>
				<path d="M0 75.75 L1.28 75.75 L1.28 96.6 L0 96.6 L0 75.75 Z" class="st21"/>
			</g>
			<g id="shape5026-144" v:mID="5026" v:groupContext="shape" transform="translate(30.1875,-46.965)">
				<title>shape45</title>
				<path d="M0 75.75 L1.28 75.75 L1.28 96.6 L0 96.6 L0 75.75 Z" class="st22"/>
			</g>
			<g id="group5027-148" transform="translate(30.405,-67.38)" v:mID="5027" v:groupContext="group">
				<title>工作表.5027</title>
				<g id="shape5028-149" v:mID="5028" v:groupContext="shape">
					<title>shape46</title>
					<path d="M4.2 91.5 C4.42 91.65 4.35 92.25 4.72 92.85 C5.02 93.45 5.62 93.67 5.62 93.97 C5.62 94.27 5.02 94.5
								 4.72 95.1 C4.42 95.62 4.57 96.22 4.2 96.45 C3.9 96.6 3.52 96.22 2.77 96.22 C2.1 96.22 1.65 96.6
								 1.42 96.45 C1.12 96.3 1.27 95.7 0.9 95.1 C0.52 94.5 0 94.35 0 93.97 C0 93.6 0.52 93.45 0.9 92.85
								 C1.27 92.17 1.2 91.65 1.42 91.5 C1.57 91.42 2.02 91.72 2.85 91.72 C3.6 91.72 3.97 91.42 4.2 91.5
								 Z" class="st23"/>
				</g>
				<g id="shape5029-153" v:mID="5029" v:groupContext="shape" transform="translate(0.1575,-0.0975)">
					<title>shape47</title>
					<path d="M3.97 91.72 C4.2 91.87 4.12 92.4 4.42 93 C4.8 93.6 5.32 93.75 5.32 94.05 C5.32 94.35 4.8 94.57 4.5 95.1
								 C4.2 95.62 4.27 96.22 3.97 96.37 C3.67 96.6 3.37 96.15 2.62 96.15 C1.95 96.15 1.57 96.52 1.35 96.37
								 C1.05 96.22 1.2 95.77 0.82 95.1 C0.52 94.57 0 94.42 0 94.05 C0 93.75 0.45 93.6 0.82 93 C1.2 92.4
								 1.12 91.87 1.35 91.72 C1.5 91.65 1.95 91.95 2.7 91.95 C3.45 91.95 3.75 91.65 3.97 91.72 Z"
							class="st24"/>
				</g>
				<g id="shape5030-155" v:mID="5030" v:groupContext="shape" transform="translate(1.0875,-0.9075)">
					<title>shape48</title>
					<path d="M0 94.87 C0 93.9 0.75 93.15 1.72 93.15 C2.7 93.15 3.45 93.9 3.45 94.87 C3.45 95.85 2.7 96.6 1.72 96.6
								 C0.75 96.6 0 95.85 0 94.87 Z" class="st25"/>
				</g>
				<g id="shape5031-157" v:mID="5031" v:groupContext="shape" transform="translate(1.9575,-1.1175)">
					<title>shape49</title>
					<path d="M0.97 95.25 C0.97 94.35 0 93.6 0.82 93.6 C1.65 93.6 2.32 94.27 2.32 95.1 C2.32 95.92 1.65 96.6 0.82
								 96.6 C0 96.6 0.97 96.07 0.97 95.25 Z" class="st26"/>
				</g>
			</g>
			<g id="group5032-159" transform="translate(30.405,-42.165)" v:mID="5032" v:groupContext="group">
				<title>工作表.5032</title>
				<g id="shape5033-160" v:mID="5033" v:groupContext="shape">
					<title>shape50</title>
					<path d="M4.2 91.5 C4.42 91.65 4.35 92.25 4.72 92.85 C5.02 93.45 5.62 93.67 5.62 93.97 C5.62 94.27 5.02 94.5
								 4.72 95.1 C4.42 95.62 4.57 96.22 4.2 96.45 C3.9 96.6 3.52 96.22 2.77 96.22 C2.1 96.22 1.65 96.6
								 1.42 96.45 C1.12 96.3 1.27 95.7 0.9 95.1 C0.52 94.5 0 94.35 0 93.97 C0 93.6 0.52 93.45 0.9 92.85
								 C1.27 92.17 1.2 91.65 1.42 91.5 C1.57 91.42 2.02 91.72 2.85 91.72 C3.6 91.72 3.97 91.42 4.2 91.5
								 Z" class="st23"/>
				</g>
				<g id="shape5034-163" v:mID="5034" v:groupContext="shape" transform="translate(0.1575,-0.0975)">
					<title>shape51</title>
					<path d="M3.97 91.72 C4.2 91.87 4.12 92.4 4.42 93 C4.8 93.6 5.32 93.75 5.32 94.05 C5.32 94.35 4.8 94.57 4.5 95.1
								 C4.2 95.62 4.27 96.22 3.97 96.37 C3.67 96.6 3.37 96.15 2.62 96.15 C1.95 96.15 1.57 96.52 1.35 96.37
								 C1.05 96.22 1.2 95.77 0.82 95.1 C0.52 94.57 0 94.42 0 94.05 C0 93.75 0.45 93.6 0.82 93 C1.2 92.4
								 1.12 91.87 1.35 91.72 C1.5 91.65 1.95 91.95 2.7 91.95 C3.45 91.95 3.75 91.65 3.97 91.72 Z"
							class="st24"/>
				</g>
				<g id="shape5035-165" v:mID="5035" v:groupContext="shape" transform="translate(1.0875,-0.9075)">
					<title>shape52</title>
					<path d="M0 94.87 C0 93.9 0.75 93.15 1.72 93.15 C2.7 93.15 3.45 93.9 3.45 94.87 C3.45 95.85 2.7 96.6 1.72 96.6
								 C0.75 96.6 0 95.85 0 94.87 Z" class="st25"/>
				</g>
				<g id="shape5036-167" v:mID="5036" v:groupContext="shape" transform="translate(1.9575,-1.1175)">
					<title>shape53</title>
					<path d="M0.97 95.25 C0.97 94.35 0 93.6 0.82 93.6 C1.65 93.6 2.32 94.27 2.32 95.1 C2.32 95.92 1.65 96.6 0.82
								 96.6 C0 96.6 0.97 96.07 0.97 95.25 Z" class="st26"/>
				</g>
			</g>
			<g id="group5037-169" transform="translate(23.9625,-88.3725)" v:mID="5037" v:groupContext="group">
				<title>工作表.5037</title>
				<g id="shape5038-170" v:mID="5038" v:groupContext="shape" transform="translate(2.3625,-1.4025)">
					<title>shape54</title>
					<path d="M0 91.27 L4.58 91.27 L4.58 96.6 L0 96.6 L0 91.27 Z" class="st1"/>
				</g>
				<g id="shape5039-173" v:mID="5039" v:groupContext="shape">
					<title>shape55</title>
					<path d="M0 95.17 L9.3 95.17 L9.3 96.6 L0 96.6 L0 95.17 Z" class="st1"/>
				</g>
			</g>
			<g id="group5040-176" transform="translate(36.6075,-88.5525)" v:mID="5040" v:groupContext="group">
				<title>工作表.5040</title>
				<g id="shape5041-177" v:mID="5041" v:groupContext="shape" transform="translate(0.585,-1.4325)">
					<title>shape56</title>
					<path d="M0 94.35 L4.57 94.35 L4.57 96.6 L0 96.6 L0 94.35 Z" class="st1"/>
				</g>
				<g id="shape5042-180" v:mID="5042" v:groupContext="shape">
					<title>shape57</title>
					<path d="M0 95.17 L5.77 95.17 L5.77 96.6 L0 96.6 L0 95.17 Z" class="st1"/>
				</g>
			</g>
		</g>
	</g>
</svg>
