<?xml version="1.0" encoding="UTF-8" standalone="no"?>
<!DOCTYPE svg PUBLIC "-//W3C//DTD SVG 1.1//EN" "http://www.w3.org/Graphics/SVG/1.1/DTD/svg11.dtd">
<!-- 由 Microsoft Visio, SVG Export 生成 阀门符号3.svg 页-1 -->
<svg xmlns="http://www.w3.org/2000/svg" xmlns:xlink="http://www.w3.org/1999/xlink" xmlns:ev="http://www.w3.org/2001/xml-events"
		xmlns:v="http://schemas.microsoft.com/visio/2003/SVGExtensions/" width="0.981958in" height="0.97275in"
		viewBox="0 0 70.701 70.038" xml:space="preserve" color-interpolation-filters="sRGB" class="st4">
	<v:documentProperties v:langID="2052" v:metric="true" v:viewMarkup="false"/>

	<style type="text/css">
	<![CDATA[
		.st1 {fill:url(#grad0-5);stroke:none;stroke-linecap:butt;stroke-width:0.753069}
		.st2 {fill:url(#grad0-5);stroke:#9d9b6a;stroke-linecap:butt;stroke-width:0.75}
		.st3 {fill:url(#grad0-22);stroke:none;stroke-linecap:butt;stroke-width:0.753069}
		.st4 {fill:none;fill-rule:evenodd;font-size:12px;overflow:visible;stroke-linecap:square;stroke-miterlimit:3}
	]]>
	</style>

	<defs id="Patterns_And_Gradients">
		<linearGradient id="grad0-5" x1="0" y1="0" x2="1" y2="0" gradientTransform="rotate(-180 0.5 0.5)">
			<stop offset="0" stop-color="#adab86" stop-opacity="1"/>
			<stop offset="0.15" stop-color="#ebe9bb" stop-opacity="1"/>
			<stop offset="0.25" stop-color="#f4f2db" stop-opacity="1"/>
			<stop offset="0.52" stop-color="#cdca9f" stop-opacity="1"/>
			<stop offset="0.69" stop-color="#b6b48d" stop-opacity="1"/>
			<stop offset="0.8" stop-color="#acaa85" stop-opacity="1"/>
			<stop offset="0.92" stop-color="#a2a07d" stop-opacity="1"/>
			<stop offset="1" stop-color="#bab890" stop-opacity="1"/>
		</linearGradient>
		<linearGradient id="grad0-22" x1="0" y1="0" x2="1" y2="0" gradientTransform="rotate(-180 0.5 0.5)">
			<stop offset="0" stop-color="#9f9c79" stop-opacity="1"/>
			<stop offset="0.01" stop-color="#e7e4c1" stop-opacity="1"/>
			<stop offset="0.02" stop-color="#cfcb9f" stop-opacity="1"/>
			<stop offset="0.64" stop-color="#ccc89c" stop-opacity="1"/>
			<stop offset="0.99" stop-color="#c7c499" stop-opacity="1"/>
			<stop offset="1" stop-color="#939170" stop-opacity="1"/>
		</linearGradient>
	</defs>
	<g v:mID="0" v:index="1" v:groupContext="foregroundPage">
		<title>页-1</title>
		<v:pageProperties v:drawingScale="0.0393701" v:pageScale="0.0393701" v:drawingUnits="24" v:shadowOffsetX="8.50394"
				v:shadowOffsetY="-8.50394"/>
		<g id="group13-1" transform="translate(0.75,-0.75)" v:mID="13" v:groupContext="group">
			<title>三通电磁阀</title>
			<g id="shape14-2" v:mID="14" v:groupContext="shape" transform="translate(77.9246,-10.6241) rotate(45)">
				<title>shape1</title>
				<path d="M0 38.18 L4.22 38.18 L4.22 70.04 L0 70.04 L0 38.18 Z" class="st1"/>
			</g>
			<g id="group15-6" v:mID="15" v:groupContext="group">
				<title>工作表.15</title>
				<g id="shape16-7" v:mID="16" v:groupContext="shape" transform="translate(6.59472E-14,-0.015)">
					<title>shape2</title>
					<path d="M16.95 53.09 L0 70.04 L33.98 70.04 L16.95 53.09 Z" class="st2"/>
				</g>
				<g id="shape17-10" v:mID="17" v:groupContext="shape" transform="translate(70.113,70.038) rotate(90) scale(-1,1)">
					<title>shape3</title>
					<path d="M16.95 53.09 L0 70.04 L33.9 70.04 L16.95 53.09 Z" class="st2"/>
				</g>
				<g id="shape18-13" v:mID="18" v:groupContext="shape" transform="translate(-36.138,70.038) rotate(-90)">
					<title>shape4</title>
					<path d="M16.95 53.09 L0 70.04 L33.9 70.04 L16.95 53.09 Z" class="st2"/>
				</g>
				<g id="shape19-16" v:mID="19" v:groupContext="shape" transform="translate(6.59472E-14,106.176) scale(1,-1)">
					<title>shape5</title>
					<path d="M16.95 53.09 L0 70.04 L33.98 70.04 L16.95 53.09 Z" class="st2"/>
				</g>
			</g>
			<g id="shape20-19" v:mID="20" v:groupContext="shape" transform="translate(6.90116,-21.7233) rotate(-45)">
				<title>shape6</title>
				<path d="M1.28 50.91 L17.85 50.91 C18.6 50.91 19.13 51.51 19.13 52.19 L19.13 68.76 C19.13 69.51 18.6 70.04 17.85
							 70.04 L1.28 70.04 C0.53 70.04 0 69.51 0 68.76 L0 52.19 C0 51.51 0.53 50.91 1.28 50.91 Z" class="st3"/>
			</g>
		</g>
	</g>
</svg>
