<?xml version="1.0" encoding="UTF-8" standalone="no"?>
<!DOCTYPE svg PUBLIC "-//W3C//DTD SVG 1.1//EN" "http://www.w3.org/Graphics/SVG/1.1/DTD/svg11.dtd">
<!-- 由 Microsoft Visio, SVG Export 生成 阀门符号16.svg 页-1 -->
<svg xmlns="http://www.w3.org/2000/svg" xmlns:xlink="http://www.w3.org/1999/xlink" xmlns:ev="http://www.w3.org/2001/xml-events"
		xmlns:v="http://schemas.microsoft.com/visio/2003/SVGExtensions/" width="0.739271in" height="0.979271in"
		viewBox="0 0 53.2275 70.5075" xml:space="preserve" color-interpolation-filters="sRGB" class="st7">
	<v:documentProperties v:langID="2052" v:metric="true" v:viewMarkup="false"/>

	<style type="text/css">
	<![CDATA[
		.st1 {fill:url(#grad0-5);stroke:none;stroke-linecap:butt;stroke-width:0.75}
		.st2 {fill:url(#grad0-10);stroke:none;stroke-linecap:butt;stroke-width:0.75}
		.st3 {fill:url(#grad0-18);stroke:none;stroke-linecap:butt;stroke-width:0.75}
		.st4 {fill:url(#grad7-22);stroke:none;stroke-linecap:butt;stroke-width:0.75}
		.st5 {fill:none}
		.st6 {stroke:#717070;stroke-linecap:butt;stroke-width:0.75}
		.st7 {fill:none;fill-rule:evenodd;font-size:12px;overflow:visible;stroke-linecap:square;stroke-miterlimit:3}
	]]>
	</style>

	<defs id="Patterns_And_Gradients">
		<linearGradient id="grad0-5" x1="0" y1="0" x2="1" y2="0" gradientTransform="rotate(-180 0.5 0.5)">
			<stop offset="0" stop-color="#b0b0b0" stop-opacity="1"/>
			<stop offset="0.15" stop-color="#efefef" stop-opacity="1"/>
			<stop offset="0.25" stop-color="#f6f6f6" stop-opacity="1"/>
			<stop offset="0.52" stop-color="#d0d0d0" stop-opacity="1"/>
			<stop offset="0.69" stop-color="#b9b9b9" stop-opacity="1"/>
			<stop offset="0.8" stop-color="#afafaf" stop-opacity="1"/>
			<stop offset="0.92" stop-color="#a5a5a5" stop-opacity="1"/>
			<stop offset="1" stop-color="#bebebe" stop-opacity="1"/>
		</linearGradient>
		<linearGradient id="grad0-10" x1="0" y1="0" x2="1" y2="0" gradientTransform="rotate(90 0.5 0.5)">
			<stop offset="0" stop-color="#b0b0b0" stop-opacity="1"/>
			<stop offset="0.15" stop-color="#efefef" stop-opacity="1"/>
			<stop offset="0.25" stop-color="#f6f6f6" stop-opacity="1"/>
			<stop offset="0.52" stop-color="#d0d0d0" stop-opacity="1"/>
			<stop offset="0.69" stop-color="#b9b9b9" stop-opacity="1"/>
			<stop offset="0.8" stop-color="#afafaf" stop-opacity="1"/>
			<stop offset="0.92" stop-color="#a5a5a5" stop-opacity="1"/>
			<stop offset="1" stop-color="#bebebe" stop-opacity="1"/>
		</linearGradient>
		<linearGradient id="grad0-18" x1="0" y1="0" x2="1" y2="0" gradientTransform="rotate(90 0.5 0.5)">
			<stop offset="0" stop-color="#dbdcdc" stop-opacity="1"/>
			<stop offset="1" stop-color="#c6c7c7" stop-opacity="1"/>
		</linearGradient>
		<radialGradient id="grad7-22" cx="0" cy="0" r="1.4">
			<stop offset="0" stop-color="#ffffff" stop-opacity="1"/>
			<stop offset="0.57" stop-color="#ffffff" stop-opacity="1"/>
			<stop offset="1" stop-color="#ffffff" stop-opacity="1"/>
		</radialGradient>
	</defs>
	<g v:mID="0" v:index="1" v:groupContext="foregroundPage">
		<title>页-1</title>
		<v:pageProperties v:drawingScale="0.0393701" v:pageScale="0.0393701" v:drawingUnits="24" v:shadowOffsetX="8.50394"
				v:shadowOffsetY="-8.50394"/>
		<g id="group110-1" transform="translate(0.75,-0.75)" v:mID="110" v:groupContext="group">
			<title>旋转控制阀</title>
			<g id="shape111-2" v:mID="111" v:groupContext="shape" transform="translate(23.655,-9.675)">
				<title>shape1</title>
				<path d="M0 36.98 L4.43 36.98 L4.43 70.51 L0 70.51 L0 36.98 Z" class="st1"/>
			</g>
			<g id="group112-6" v:mID="112" v:groupContext="group">
				<title>工作表.112</title>
				<g id="shape113-7" v:mID="113" v:groupContext="shape" transform="translate(25.8,8.52651E-14) scale(-1,1)">
					<title>shape2</title>
					<path d="M25.8 51.16 L25.8 70.51 L0 60.83 L25.8 51.16 Z" class="st2"/>
				</g>
				<g id="shape114-11" v:mID="114" v:groupContext="shape" transform="translate(25.9275,8.52651E-14)">
					<title>shape3</title>
					<path d="M25.8 51.16 L25.8 70.51 L0 60.83 L25.8 51.16 Z" class="st2"/>
				</g>
			</g>
			<g id="group115-14" transform="translate(3.1725,-25.3575)" v:mID="115" v:groupContext="group">
				<title>工作表.115</title>
				<g id="shape116-15" v:mID="116" v:groupContext="shape" transform="translate(45.375,-1.42109E-13) scale(-1,1)">
					<title>shape4</title>
					<path d="M0 48.68 C0 36.61 10.13 26.86 22.73 26.86 C35.25 26.86 45.38 36.61 45.38 48.68 C45.38 60.76 35.25 70.51
								 22.73 70.51 C10.13 70.51 0 60.76 0 48.68 Z" class="st3"/>
				</g>
				<g id="shape117-19" v:mID="117" v:groupContext="shape" transform="translate(1.2975,-1.08)">
					<title>shape5</title>
					<path d="M0 49.21 C0 37.51 9.75 27.98 21.83 27.98 C33.9 27.98 43.73 37.51 43.73 49.21 C43.73 60.98 33.9 70.51
								 21.83 70.51 C9.75 70.51 0 60.98 0 49.21 Z" class="st4"/>
				</g>
				<g id="shape118-23" v:mID="118" v:groupContext="shape" transform="translate(4.4175,-7.4775)">
					<title>shape6</title>
					<path d="M0 52.43 C0 42.53 8.33 34.43 18.53 34.43 C28.8 34.43 37.05 42.53 37.05 52.43 C37.05 62.41 28.8 70.51
								 18.53 70.51 C8.33 70.51 0 62.41 0 52.43 Z" class="st4"/>
				</g>
				<g id="shape119-26" v:mID="119" v:groupContext="shape" transform="translate(9.9075,-14.0325)">
					<title>shape7</title>
					<path d="M0 56.48 C0 48.76 6.45 42.46 14.4 42.46 C22.43 42.46 28.88 48.76 28.88 56.48 C28.88 64.28 22.43 70.51
								 14.4 70.51 C6.45 70.51 0 64.28 0 56.48 Z" class="st4"/>
				</g>
			</g>
			<g id="shape120-29" v:mID="120" v:groupContext="shape" transform="translate(18.4575,-37.0425)">
				<title>shape8</title>
				<path d="M0 70.43 L0 50.26 L7.42 70.51 L14.85 50.26 L14.85 70.51 L0 70.43 Z" class="st5"/>
				<path d="M0 70.43 L0 50.26 L7.42 70.51 L14.85 50.26 L14.85 70.51" class="st6"/>
			</g>
		</g>
	</g>
</svg>
